<svg xmlns="http://www.w3.org/2000/svg" viewBox="0 0 860.62 556.81">
    <defs>
        <style>
            .cls-1{fill:none;}.cls-2{fill:#e2e223;}.cls-3{fill:#dd9d2a;}.cls-4{fill:#12cc7c;}
        </style>
    </defs>
    <title>
        DRAMA BG
    </title>
   
            <path d="M561.33,90.22c-1.1-.91-1.7-1.44-1.79-1.52a12.19,12.19,0,0,1,.78,2.54c.53,2.32,1.06,5.81,1.58,10h14.83A171.52,171.52,0,0,1,561.33,90.22Z" class="cls-3 path51" style=""></path>
<path d="M550.57,101.24l0-.22c-1.33-8.5-2.63-15.48-3.59-20.54a70.84,70.84,0,0,0-4.2-14.65C535,47.71,523.86,57,523.86,57q-7,5.44-14.13,10.3c-1.15.79-2.3,1.56-3.45,2.33v31.58Z" class="cls-2 path0" style=""></path>
<path d="M506.27,101.24V69.66q-11.62,7.74-23.32,14c-.75.42-1.51.82-2.26,1.22q-12.58,6.69-25.05,11.92v4.39Z" class="cls-2 path2" style=""></path>
<path d="M455.65,96.85c-1.19.51-2.39,1-3.58,1.49-2.47,1-4.92,2-7.37,2.9h10.95Z" class="cls-2 path9" style=""></path>
<path d="M750.8,151.86a12,12,0,0,1-1.6-.43q-13.22-.62-25.49-1.94c-1.38-.14-2.75-.29-4.12-.45q-5.52-.64-10.85-1.41v4.23Z" class="cls-3 path44" style=""></path>
<path d="M670.37,140.22q-6.3-1.56-12.25-3.26v14.9h50.62v-4.23q-13.68-1.95-26.1-4.6C678.45,142.14,674.35,141.2,670.37,140.22Z" class="cls-3 path39" style=""></path>
<path d="M617.22,122.52q-5.09-2.17-9.71-4.36v33.7h50.62V137c-3.25-.92-6.44-1.87-9.53-2.85A331.1,331.1,0,0,1,617.22,122.52Z" class="cls-3 path48" style=""></path>
<path d="M564.78,132c.62,8.1,1.08,15.39,1.33,19.86H607.5v-33.7l-2.79-1.33c-6-2.91-11.44-5.78-16.26-8.51-4.42-2.51-8.32-4.89-11.73-7.08H561.9c.66,5.3,1.29,11.72,1.87,18.27C564.14,123.7,564.48,128,564.78,132Z" class="cls-3 path46" style=""></path>
<path d="M506.26,136a37.81,37.81,0,0,1,5.68,3.63c2,1.5,3.34,2.77,3.95,3.18a4.33,4.33,0,0,1,.53.43c3.06,3.27,3.76,6.23,3.45,8.64H556c-.2-3.54-.42-7-.69-10.39-1-12.54-2.35-24-3.76-33.76-.33-2.25-.65-4.4-1-6.47h-44.3Z" class="cls-2 path3" style=""></path>
<path d="M488.85,133.86A22.78,22.78,0,0,1,506.26,136V101.24H455.65v50.62h11.17C474.26,141.22,481.73,135.79,488.85,133.86Z" class="cls-2 path16" style=""></path>
<path d="M413.66,111.26c-2.91.78-5.78,1.5-8.63,2.19v38.41h50.62V101.24H444.7c-8.4,3.19-16.68,5.94-24.78,8.28C417.82,110.13,415.73,110.7,413.66,111.26Z" class="cls-2 path18" style=""></path>
<path d="M405,113.45c-7,1.68-13.8,3.1-20.37,4.26-8.33,1.47-16.29,2.57-23.78,3.36-2.2.24-4.35.44-6.47.63v30.16H405Z" class="cls-2 path28" style=""></path>
<path d="M354.4,151.86V121.7c-3,.26-5.88.48-8.67.65-11.7.73-21.74.75-29.61.51-5.07-.15-9.22-.41-12.34-.67v29.67Z" class="cls-2 path21" style=""></path>
<path d="M303.79,122.19l-2.14-.18c-2.9-.27-4.46-.48-4.46-.48-14.07,2.34-11.14,15.24-11.14,17.59,1.19,3.46,2.4,6.84,3.63,10.2.31.85.63,1.69.94,2.54h13.16Z" class="cls-2 path19" style=""></path>
<path d="M757,154.65a16.46,16.46,0,0,0-6.15-2.79H708.74v50.62H745c4.79-9.44,8.25-17.17,10.44-22.39,1.75-4.16,2.71-6.74,2.88-7.27.42-.94.77-1.82,1.07-2.68v-12.8A10,10,0,0,0,757,154.65Z" class="cls-3 path35" style=""></path>
<polygon points="658.11 189.42 669.15 199.48 672.44 202.48 708.73 202.48 708.74 151.86 658.12 151.86 658.11 189.42" class="cls-3 polygon1" style=""></polygon>
<path d="M607.49,202.48H636.2a42.57,42.57,0,0,1-1.64-11.37,27,27,0,0,1,.22-3,18.21,18.21,0,0,1,1-4c1.47-.63,3.16-4,9.33-3.54a21.88,21.88,0,0,1,4.15.74l8.88,8.09V151.86H607.5Z" class="cls-3 path47" style=""></path>
<path d="M566.28,156.41c7.54-1,13-.78,17,.05,11.68,2.43,10.55,10.32,10.55,10.65.67,4.34-4.58,9.32-10.6,13.44-7.17,4.9-15.44,8.56-16.08,8.39-.25,4.75-.56,9.25-.91,13.54h41.25V151.86H566.11C566.26,154.67,566.32,156.36,566.28,156.41Z" class="cls-3 path34" style=""></path>
<path d="M516.12,158.31l-1.25.67-8.61,4.61v38.89H556c.07-1.19.16-2.38.22-3.56.28-5.38.44-10.69.51-15.91.12-9.9-.11-19.49-.58-28.62,0-.85-.1-1.68-.15-2.53H519.87A10.67,10.67,0,0,1,516.12,158.31Z" class="cls-2 path23" style=""></path>
<path d="M506.25,202.48V163.59L486.72,174l-18.19,9.73a2.2,2.2,0,0,1-.7.22l-.29,0c-11.55,1.36-11.35-10.6-11.23-13.25a1.21,1.21,0,0,1,.12-.46,125.31,125.31,0,0,1,9.16-16.67c.41-.61.82-1.19,1.22-1.77H455.64v50.62Z" class="cls-2 path29" style=""></path>
<path d="M409.17,177.56c7.61,4.1,10.26,8,10.43,11.43a7.87,7.87,0,0,1-.85,3.87c-1.78,3.62-5.82,6.23-7.45,7.17a3.41,3.41,0,0,1-1.43.44l-1.9.15-3,.23v1.63h50.62V151.86H405v23.56C407.33,176.58,408.82,177.43,409.17,177.56Z" class="cls-2 path26" style=""></path>
<path d="M377.07,167.11a61.21,61.21,0,0,1,17.62,3.83c.76.27,1.51.55,2.23.84,3.23,1.27,6,2.58,8.1,3.64V151.86H354.4v30.5a30.32,30.32,0,0,1,3.79-5.75A26.81,26.81,0,0,1,377.07,167.11Z" class="cls-2 path25" style=""></path>
<path d="M354.12,202.48c-2.94-2.71-3.46-7.44-3.54-8.21a40.88,40.88,0,0,1,3.82-11.91v-30.5H303.78v32.19c2.85,6.36,5.76,12.52,8.72,18.43Z" class="cls-2 path11" style=""></path>
<path d="M290.62,151.86c.33.9.66,1.81,1,2.7q5,13.27,10.34,25.44c.6,1.37,1.21,2.7,1.82,4.05V151.86Z" class="cls-2 path14" style=""></path>
<path d="M714.56,253.1c4.42-6.3,8.48-12.47,12.2-18.42,2.49-4,4.82-7.87,7-11.62,2.86-4.94,5.47-9.65,7.81-14.07,1.2-2.25,2.32-4.42,3.38-6.51H708.73V253.1Z" class="cls-3 path37" style=""></path>
<path d="M687.81,216.48a4.61,4.61,0,0,1,1.42,2.48,15.78,15.78,0,0,1,.32,3.09c0,3.63-1.25,8.59-7.37,11.82a22.89,22.89,0,0,1-4.22,1.68,15.52,15.52,0,0,1-2.8.89,29.16,29.16,0,0,1-17.06-1V253.1h50.62V202.48H672.44Z" class="cls-3 path38" style=""></path>
<path d="M647.18,226.91c-.27-.36-1-1.56-2.07-3.38a96.92,96.92,0,0,1-8.91-21.05H607.49V253.1H658.1V235.48A24.76,24.76,0,0,1,647.18,226.91Z" class="cls-3 path45" style=""></path>
<path d="M565.74,208.11q-.5,5.2-1.06,9.91c-1.3,10.95-2.84,19.95-4.32,27.13-.61,3-1.2,5.6-1.77,7.95h48.89V202.48H566.24C566.08,204.39,565.92,206.28,565.74,208.11Z" class="cls-3 path36" style=""></path>
<path d="M515.47,244c.53-.57,1.06-1.14,1.58-1.73v3.77a2.51,2.51,0,0,1-.1.66c-.65,2.23-1.35,4.34-2.1,6.37h34.29q1.74-7.93,3-15.86c.43-2.63.82-5.27,1.18-7.9,1.25-9.05,2.1-18,2.64-26.86H506.25V252.6A85.29,85.29,0,0,0,515.47,244Z" class="cls-2 path4" style=""></path>
<path d="M505.61,253.1l.63-.5V202.48H455.63V253.1Z" class="cls-2 path1" style=""></path>
<rect width="50.62" height="50.62" x="405.01" y="202.48" class="cls-2 rect0" style=""></rect>
<path d="M383.86,202.48l-22.44,1.72-2.27.18a7.15,7.15,0,0,1-4.75-1.67V253.1H405V202.48Z" class="cls-2 path8" style=""></path>
<path d="M354.4,202.71a3.11,3.11,0,0,1-.28-.23H312.5c1.12,2.22,2.24,4.42,3.36,6.58q7.22,13.83,14.71,26c.81,1.33,1.63,2.64,2.44,3.94,3.09,4.91,6.21,9.59,9.34,14.11h12Z" class="cls-2 path27" style=""></path>
<path d="M708.72,261.18l.73-1c1.76-2.38,3.45-4.75,5.11-7.1h-5.84Z" class="cls-3 path41" style=""></path>
<path d="M658.1,253.1v50.61h13.8c6.56-6.45,12.75-13,18.52-19.67,6.62-7.62,12.71-15.3,18.31-22.86V253.1Z" class="cls-3 path43" style=""></path>
<path d="M607.47,295.07a55.45,55.45,0,0,1,3.7,5.36c.67,1.1,1.28,2.2,1.84,3.28h45.08V253.1H607.48Z" class="cls-3 path56" style=""></path>
<path d="M556.86,259.72v8.19l.77.13c13.15,2.43,23.52,6.43,31.7,11.27a63.5,63.5,0,0,1,18.14,15.76v-42H558.59C558,255.66,557.38,257.86,556.86,259.72Z" class="cls-3 path32" style=""></path>
<path d="M590.05,303.71a117.9,117.9,0,0,0-16.5-8.63c-3.06-1.31-6-2.39-8.62-3.29-3-1-5.74-1.8-8.07-2.39v14.31Z" class="cls-3 path40" style=""></path>
<path d="M542.21,303.71h14.64V289.4c-5.31-1.37-8.6-1.79-8.76-2C547.23,291.79,545,297.52,542.21,303.71Z" class="cls-3 path53" style=""></path>
<path d="M506.23,303.71h26.2c.12-.24.24-.49.35-.73q3.84-8.42,7-17.05,2.52-7,4.59-14c1.84-6.23,3.43-12.51,4.81-18.8H514.85a76.25,76.25,0,0,1-8.61,16.71Z" class="cls-2 path10" style=""></path>
<path d="M506.24,269.81c-1.07,1.55-2.17,3-3.28,4.37a56.24,56.24,0,0,1-25.16,17.94,27.48,27.48,0,0,1-4.72,1.19A71.71,71.71,0,0,1,455.62,297v6.69h50.61Z" class="cls-2 path22" style=""></path>
<path d="M468,271.77a119.24,119.24,0,0,0,23-9.15,96.87,96.87,0,0,0,14.63-9.52h-50v21.62c1.14-.22,2.28-.45,3.43-.7C462,273.37,465,272.63,468,271.77Z" class="cls-2 path20" style=""></path>
<path d="M419.27,277.83a179.3,179.3,0,0,0,36.35-3.11V253.1H405V277c2.1.23,7.08.7,13.95.81Z" class="cls-2 path7" style=""></path>
<path d="M455.62,297a63,63,0,0,1-12.66-.24c-1.67-.2-3.3-.46-4.88-.78a65.59,65.59,0,0,1-25.73-11.57,61,61,0,0,1-7.35-6.35v25.63h50.62Z" class="cls-2 path6" style=""></path>
<path d="M385.05,303.71H405V278.08c-.73-.75-1.11-1.19-1.11-1.19L405,277V253.1H354.39v16.4q6.27,8.06,12.52,15.16Q376.1,295.15,385.05,303.71Z" class="cls-2 path30" style=""></path>
<path d="M342.35,253.1q2.72,3.93,5.45,7.69,3.29,4.48,6.58,8.71V253.1Z" class="cls-2 path24" style=""></path>
<path d="M668.34,307.18c1.2-1.14,2.37-2.31,3.55-3.47h-13.8v12.8Q663.36,311.92,668.34,307.18Z" class="cls-3 path52" style=""></path>
<path d="M618.74,329.07a121,121,0,0,0-11.27-12v34.74q6.3-3.39,12.31-7.06a276,276,0,0,0,25.47-17.63c4.43-3.45,8.7-7,12.85-10.61v-12.8H613C620.16,317.44,619.32,329.5,618.74,329.07Z" class="cls-3 path49" style=""></path>
<path d="M590.05,303.71h-33.2v50.62h45.82c1.61-.82,3.21-1.67,4.8-2.52V317.07q-3.47-3.21-7-6A117.86,117.86,0,0,0,590.05,303.71Z" class="cls-3 path33" style=""></path>
<path d="M539.49,309.46c-4.88,10-10.73,20.37-14.93,27.81-3.19,5.65-5.42,9.58-5.52,10.27.21.48.42.95.64,1.42a46.06,46.06,0,0,0,3,5.37h34.2V303.71H542.21Q540.92,306.55,539.49,309.46Z" class="cls-3 path54" style=""></path>
<path d="M506.23,345.85c.37-.39.66-.71.85-1,3.76-4.66,7.24-9.46,10.49-14.38a200.55,200.55,0,0,0,14.86-26.81h-26.2Z" class="cls-2 path15" style=""></path>
<path d="M494.28,354.33c1-.46,1.86-.94,2.72-1.43a42.92,42.92,0,0,0,9.23-7V303.71H455.62v48.48c2.15.92,3.91,1.62,5.25,2.14Z" class="cls-2 path17" style=""></path>
<path d="M438.77,343.94c2.28,1.26,4.44,2.39,6.46,3.41,4,2,7.54,3.63,10.38,4.84V303.71H405v17.53q3.9,3.11,7.64,5.87A233.55,233.55,0,0,0,438.77,343.94Z" class="cls-2 path5" style=""></path>
<path d="M385.05,303.71c1.38,1.33,2.75,2.64,4.11,3.9,5.43,5,10.72,9.55,15.83,13.63V303.71Z" class="cls-2 path13" style=""></path>
<path d="M559.18,370.71a37.79,37.79,0,0,0,11.19-2.65c7.29-2.49,14.32-5.3,21.14-8.37q5.49-2.47,10.8-5.17l.35-.19H556.84v16.56C557.64,370.84,558.43,370.79,559.18,370.71Z" class="cls-3 path42" style=""></path>
<path d="M542.27,369.33a42.87,42.87,0,0,0,14.57,1.56V354.33h-34.2A34.53,34.53,0,0,0,542.27,369.33Z" class="cls-3 path31" style=""></path>
<path d="M463.69,355.46a42.58,42.58,0,0,0,4.92,1.6,36.88,36.88,0,0,0,25.67-2.73H460.86C462.36,354.92,463.34,355.28,463.69,355.46Z" class="cls-2 path12" style=""></path>
<path d="M666.84,455.57l5.44-17.88,1-3.11,1.73,5.7,2.61,8.57,2,6.72h12.74l-5.05-16.46-7.94-25.91h-.12a5.76,5.76,0,0,0-1.66-3.07,6.12,6.12,0,0,0-2.66-1.61,6.34,6.34,0,0,0-1.7-.23,5.76,5.76,0,0,0-4.3,1.84,5.55,5.55,0,0,0-1.72,3.07h-.12l-1.4,4.57-3.21,10.46-4.41,14.4v12.94Z" class="cls-4 path75" style=""></path>
<polygon points="658.07 455.57 658.07 442.63 654.1 455.57 658.07 455.57" class="cls-4 polygon4" style=""></polygon>
<path d="M617.89,455.57l.05-.17v.17h12.29V414.43a6.34,6.34,0,0,0-1.81-4.33,5.92,5.92,0,0,0-4.34-1.81,4.89,4.89,0,0,0-4,1.78,22.06,22.06,0,0,0-2.76,5.59l-2.64,8.65-1.64,5.39-5.6,18.39v7.48Z" class="cls-4 path72" style=""></path>
<polygon points="607.45 455.57 607.45 448.09 605.17 455.57 607.45 455.57" class="cls-4 polygon2" style=""></polygon>
<path d="M592.3,450.45l-2.39-7.84-7.64-25.09-.57-1.86a11.27,11.27,0,0,0-2.4-5.59,6.05,6.05,0,0,0-4.36-1.78,5.85,5.85,0,0,0-4.3,1.78,6,6,0,0,0-1.84,4.36v41.14h12.28v-.17l0,.17h12.73Z" class="cls-4 path74" style=""></path>
<path d="M539.73,438.61l-5.05-16.47-2.74-8.94h-.12a5.76,5.76,0,0,0-1.66-3.07,6,6,0,0,0-4.36-1.84,5.74,5.74,0,0,0-4.3,1.84,5.49,5.49,0,0,0-1.72,3.07h-.13l-1.42,4.65-9.17,29.91-.82,2.68-1.57,5.13h12.74l6.39-21,6.38,21h12.74l-.16-.54Z" class="cls-4 path68" style=""></path>
<path d="M482.8,434.4a27.57,27.57,0,0,0-.47-5.13,24.6,24.6,0,0,0-1.72-5.52,27.25,27.25,0,0,0-14.13-13.64,25.19,25.19,0,0,0-6.35-1.61,27.63,27.63,0,0,0-3.44-.21H455.6v12.28h1.09a13.82,13.82,0,0,1,9.77,23.59,13.67,13.67,0,0,1-5.08,3.26,13.87,13.87,0,0,1-4.69.8h-1.1v7.35H472a29,29,0,0,0,3.19-2.74A25.12,25.12,0,0,0,482.8,434.4Z" class="cls-4 path66" style=""></path>
<path d="M455.59,448.22H433.65V420.57h22V408.29H427.51a5.9,5.9,0,0,0-4.33,1.81c-.08.08-.13.16-.2.24a5.88,5.88,0,0,0-1.61,4.09v41.14h34.22Z" class="cls-4 path64" style=""></path>
<path d="M409,436.85a29.32,29.32,0,0,0-4-13.31v32h4.11V439C409.08,438.28,409.05,437.56,409,436.85Z" class="cls-4 path57" style=""></path>
<path d="M359.94,455.57v-35h18.42a17.79,17.79,0,0,1,13,5.41,18.72,18.72,0,0,1,3.5,4.8,17.92,17.92,0,0,1,1.9,8.22v16.57H405v-32c-.35-.59-.72-1.17-1.12-1.73a32.47,32.47,0,0,0-3.78-4.52,29.52,29.52,0,0,0-20.63-9l-1.09,0h-24v47.28Z" class="cls-4 path61" style=""></path>
<path d="M354.36,408.29h-.57a6.18,6.18,0,0,0-6.14,6.14v41.14h6.7Z" class="cls-4 path60" style=""></path>
<path d="M683.92,469.72H662.54l2.55-8.4,1.75-5.75h-8.77V484.4l.73-2.4h28.88L691,493.06a17.14,17.14,0,0,0,2.74,5.56,4.94,4.94,0,0,0,4,1.81,6.18,6.18,0,0,0,6.14-6.14,12.68,12.68,0,0,0-1.22-4.92L697.39,472,693,457.71l-.65-2.14H679.62Z" class="cls-4 path77" style=""></path>
<path d="M654.1,455.57l-1.61,5.25-5.79,18.89-3,9.66a14.44,14.44,0,0,0-1.17,4.1,7.92,7.92,0,0,0-.06.82,6.2,6.2,0,0,0,6.15,6.14,6.67,6.67,0,0,0,1-.09,4.84,4.84,0,0,0,3-1.72,17.56,17.56,0,0,0,2.74-5.56l2.64-8.66V455.57Z" class="cls-4 path76" style=""></path>
<path d="M617.94,465.51v28.78a6.18,6.18,0,0,0,6.14,6.14,6,6,0,0,0,2.37-.46,6.36,6.36,0,0,0,2-1.35,6.29,6.29,0,0,0,1.34-2,6,6,0,0,0,.47-2.37V455.57H617.94Z" class="cls-4 path70" style=""></path>
<polygon points="607.44 489.69 613.48 469.97 614.57 466.43 617.89 455.57 607.45 455.57 607.44 489.69" class="cls-4 polygon3" style=""></polygon>
<path d="M605.17,455.57l-.42,1.38-5.24,17.19-5.65-18.57H581.13l1.42,4.63,8.6,28.07.94,3.09,1.28,4.16h.12a5.61,5.61,0,0,0,1.72,3.07,5.76,5.76,0,0,0,4.3,1.84,5.94,5.94,0,0,0,3.26-.94,7,7,0,0,0,1.1-.9,5.7,5.7,0,0,0,1.66-3.07h.13l1.78-5.83V455.57Z" class="cls-4 path73" style=""></path>
<path d="M568.8,466.68v27.61a6.14,6.14,0,0,0,12.28,0V455.57H568.8Z" class="cls-4 path71" style=""></path>
<path d="M535,464.8l1.5,4.92H515.11l3-9.78,1.33-4.37H506.67l-.46,1.51v40.14a21.58,21.58,0,0,0,1.78-4.16l.15-.49.41-1.32,2.82-9.25h28.87l3.38,11.06a22.29,22.29,0,0,0,1.83,4.25,9.11,9.11,0,0,0,.91,1.31,4.94,4.94,0,0,0,4,1.81,5.9,5.9,0,0,0,4.33-1.81,6.18,6.18,0,0,0,1.36-2,6,6,0,0,0,.45-2.33,12.71,12.71,0,0,0-1.23-4.92l-.44-1.46-9.92-32.34H532.18Z" class="cls-4 path67" style=""></path>
<path d="M498.26,483l-1.95,6.34a12.71,12.71,0,0,0-1.23,4.92,6.15,6.15,0,0,0,4.51,5.9,5.84,5.84,0,0,0,1.63.24,5,5,0,0,0,4-1.81,10,10,0,0,0,.95-1.4V457.08Z" class="cls-4 path69" style=""></path>
<path d="M455.59,472.14l11.11,18,2.58,4.17a17.24,17.24,0,0,0,1,1.69,15.14,15.14,0,0,0,2.08,2.64,6.12,6.12,0,0,0,2.09,1.39,6.18,6.18,0,0,0,8.39-5.72q0-2.52-2.46-6.14l-4.46-7.21-13.05-21.11a24.16,24.16,0,0,0,7.9-3.38c.43-.28.85-.57,1.26-.88h-16.4Z" class="cls-4 path65" style=""></path>
<path d="M421.37,455.57v38.72a6.1,6.1,0,0,0,9,5.41,6.22,6.22,0,0,0,1.48-1.08,5.9,5.9,0,0,0,1.81-4.33V460.5h14.74l1,1.67,6.16,10V455.57Z" class="cls-4 path63" style=""></path>
<path d="M405,485.2a28.73,28.73,0,0,0,3-7.1,31.81,31.81,0,0,0,1.09-8.38V455.57H405Z" class="cls-4 path58" style=""></path>
<path d="M378.36,500.43a31.59,31.59,0,0,0,8-1,29.68,29.68,0,0,0,13.72-8A31.26,31.26,0,0,0,405,485.2V455.57h-8.18v14.15a18.66,18.66,0,0,1-.14,2.26,18.47,18.47,0,0,1-16,16,21,21,0,0,1-2.27.14H359.94V455.57h-5.59v44.86h24Z" class="cls-4 path59" style=""></path>
<path d="M347.65,455.57v38.72a6.18,6.18,0,0,0,6.14,6.14h.55V455.57Z" class="cls-4 path62" style=""></path>
</svg>
