<svg xmlns="http://www.w3.org/2000/svg" viewBox="0 0 860.64 658.05">
    <defs>
        <style>
            .cls-1{fill:none;}.cls-2{fill:#e26d1e;}.cls-3{fill:#7c300a;}.cls-4{fill:#ea7a20;}.cls-5{fill:#d12c48;}.cls-6{fill:#1f49a2;}.cls-7{fill:#9dd5df;}.cls-8{fill:#a0cc3b;}.cls-9{fill:#f7d538;}.cls-10{fill:#f9911e;}.cls-11{fill:#4f1f69;}.cls-12{fill:#c8c7cb;}.cls-13{fill:#ea8449;}
        </style>
    </defs>
    <title>
        FIE ART BG
    </title>
<path d="M569.74,151.86c2.15-1.63,4-3.3,5.51-4.61C578,144.8,593,132,592,127.3c0,0-9.28,4.77-9.87,5.11a89.76,89.76,0,0,0,13.75-16c-11.58,2.08-28.7,5.68-39,14.11v21.34Z" class="cls-13 path187" style=""></path>
<path d="M555.6,101.24c.45-.78.89-1.55,1.31-2.3V96.23c-2.49,1.15-6.19,2.86-10.51,5Z" class="cls-13 path191" style=""></path>
<path d="M506.28,129.8v15.83l.85.92c12.86,1.33,21.53-9.23,28.5-18.66,5.27-7.11,9-10,16.66-15-1,.34-8.48,2-8.49,2,4.9-2.78,8.7-8.32,11.8-13.66h-9.2C533,107.89,513.66,118.68,506.28,129.8Z" class="cls-13 path193" style=""></path>
<path d="M556.9,157.94c4.31-.34,9-3.14,12.84-6.08H556.9Z" class="cls-13 path189" style=""></path>
<path d="M548.47,151.86h8.43V130.52C550.68,135.62,547,142.49,548.47,151.86Z" class="cls-13 path188" style=""></path>
<path d="M506.28,129.8c-3.2,4.84-4.15,9.73-1.35,14.37l1.35,1.46Z" class="cls-13 path194" style=""></path>
<path d="M548.47,151.86c.14.87.33,1.77.56,2.69a8.72,8.72,0,0,0,7.87,3.39v-6.08Z" class="cls-13 path190" style=""></path>
<path d="M539.86,169.21c7.35-8.05,13.18-20.6-3.08-13.77-10.83,4.56-21,12-30.51,19.64v24C518.09,189.74,529.84,180.19,539.86,169.21Z" class="cls-12 path181" style=""></path>
<path d="M506.28,145.63l-1.35-1.46c-1.54-2.22-8.18,1.6-16.34,7.69h17.69Z" class="cls-12 path199" style=""></path>
<path d="M488.59,151.86c-11.15,8.31-25.15,20.83-32.94,28v8.45l8.87,7.93c11.69-10.85,24-21.16,34.22-33.39,2.24-2.68,5.78-6.33,7.54-10.16v-.82Z" class="cls-12 path201" style=""></path>
<path d="M512.6,236a65.44,65.44,0,0,1,22.53-12.8l-12.27,1.07a197.16,197.16,0,0,1,17.37-14.64c-7.07-2-21.51,1.31-34,7.44V241.2C508.61,239.44,510.77,237.55,512.6,236Z" class="cls-13 path195" style=""></path>
<path d="M489.73,188.47l11.2,14H502l4.28-3.38v-24c-3.83,3.06-7.56,6.15-11.21,9.09Z" class="cls-12 path183" style=""></path>
<path d="M451.06,184.18l4.59,4.12v-8.45c-2,1.84-3.61,3.33-4.63,4.3Z" class="cls-12 path197" style=""></path>
<path d="M484.39,242.8c6.81,7.35,15.13,3.44,21.87-1.6V217C493.26,223.43,482.41,232.94,484.39,242.8Z" class="cls-13 path196" style=""></path>
<path d="M493.24,193.22l-3.74-4.57,0,0-.14-.18-16.84,14h28.17Z" class="cls-4 path132" style=""></path>
<path d="M455.64,239l45.94-35.66-.24-.3-.06,0-.45-.55h-.11l.6.74-.6-.74H472.55l-16.9,14.08Z" class="cls-4 path131" style=""></path>
<polygon points="455.65 188.58 451.11 184.35 455.65 188.58 455.65 188.58 451.06 184.18 451.02 184.15 432.07 202.48 455.65 202.48 455.65 188.58" class="cls-4 polygon33" style=""></polygon>
<path d="M455.81,188.73l-.16-.15v13.9h2.58l6.35-6.19-.06-.06-.44.41Z" class="cls-4 path124" style=""></path>
<polygon points="405.02 253.09 406.31 253.09 455.65 204.99 455.65 202.48 432.07 202.48 405.03 228.65 405.02 253.09" class="cls-4 polygon32" style=""></polygon>
<path d="M480.08,242.4c-6-1.07-15.31,4.68-23.66,10.7h21.06C482.48,248.39,486,243.47,480.08,242.4Z" class="cls-12 path203" style=""></path>
<path d="M455.64,270.79q5.69-4.41,11.25-8.94c1.7-1.39,6.6-5,10.59-8.75H456.42l-.78.56Z" class="cls-12 path204" style=""></path>
<polygon points="411.81 253.09 437.42 253.09 455.64 238.95 455.65 216.56 411.81 253.09" class="cls-4 polygon48" style=""></polygon>
<path d="M441.49,264l-6.05,3.83,4.89,6.95,3.65,4.86q5.88-4.38,11.66-8.87V253.66C450,257.77,444.83,261.91,441.49,264Z" class="cls-12 path205" style=""></path>
<polygon points="405.02 278.25 437.42 253.09 411.81 253.09 405.02 258.75 405.02 278.25" class="cls-4 polygon49" style=""></polygon>
<polygon points="405.03 228.65 379.76 253.09 405.02 253.09 405.03 228.65" class="cls-4 polygon34" style=""></polygon>
<path d="M408.19,303.71l35.89-23.92-.1-.13-.14.11h0l-3.51-5-.95-1.27,4.32,6.12-4.32-6.12-4.3-5.74-30.06,21v14.92Z" class="cls-4 path128" style=""></path>
<polygon points="354.4 300.94 354.39 303.71 372.22 303.71 405.02 278.25 405.02 258.75 354.4 300.94" class="cls-4 polygon51" style=""></polygon>
<path d="M369.68,265.55,354.4,279.86v19.95l30.18-25.52L405,254.35V253.1H379.76l-12.71,12.3C367.93,265.44,368.8,265.48,369.68,265.55Z" class="cls-4 path125" style=""></path>
<path d="M556.83,554.74a8.46,8.46,0,0,1-7.5-8.38,3.6,3.6,0,0,0-1.1-2.65,3.73,3.73,0,0,0-5.29,0,3.6,3.6,0,0,0-1.1,2.65,15.26,15.26,0,0,0,3.92,10.45h11.07Z" class="cls-2 path115" style=""></path>
<path d="M545.76,556.81c.24.27.48.55.74.81a15.27,15.27,0,0,0,10.33,4.63v-5.44Z" class="cls-2 path113" style=""></path>
<path d="M556.83,562.25c.31,0,.62,0,.94,0h5.62a15.38,15.38,0,0,0,11.27-4.67c.26-.26.5-.54.74-.81H556.83Z" class="cls-2 path111" style=""></path>
<path d="M557.77,537.92h5.62a8.44,8.44,0,0,1,0,16.87h-5.62c-.32,0-.63,0-.94,0v2.07H575.4a15.93,15.93,0,0,0-12-26.39h-5.62a7.3,7.3,0,0,1-.94,0v7.51C557.14,537.9,557.45,537.92,557.77,537.92Z" class="cls-2 path117" style=""></path>
<path d="M555.72,506.19a15.92,15.92,0,0,0,1.11,31.69v-7.51a8.44,8.44,0,0,1,0-16.77v-7.41Z" class="cls-2 path116" style=""></path>
<path d="M556.83,513.6c.31,0,.62,0,.94,0h5.62a8.45,8.45,0,0,1,8.44,8.43,3.73,3.73,0,0,0,6.39,2.64,3.62,3.62,0,0,0,1.1-2.64,15.93,15.93,0,0,0-13.89-15.8h-8.59Z" class="cls-2 path118" style=""></path>
<path d="M455.62,405h12.81a91.42,91.42,0,0,0,12.79-46c0-1.56,0-3.1-.11-4.63H455.62Z" class="cls-3 path155" style=""></path>
<path d="M455.63,327a15.68,15.68,0,0,1,0,19.07v8.3h25.49c-.93-20-8.9-36.91-21.1-50.62h-4.38Z" class="cls-3 path138" style=""></path>
<path d="M448.68,321.78A15.71,15.71,0,1,0,455.63,346V327A15.69,15.69,0,0,0,448.68,321.78Z" class="cls-6 path167" style=""></path>
<path d="M457.86,342A15.69,15.69,0,0,0,455.63,327V346A15.85,15.85,0,0,0,457.86,342Z" class="cls-6 path166" style=""></path>
<path d="M460,303.71c-1.4-1.57-2.86-3.11-4.38-4.6v4.6Z" class="cls-3 path147" style=""></path>
<path d="M425.22,292.62a15.77,15.77,0,0,1,3.21,11.09h27.2v-4.6a112.13,112.13,0,0,0-18.32-14.53Z" class="cls-3 path146" style=""></path>
<path d="M407.27,316.92a16.15,16.15,0,0,1-2.26-1.06v38.47h50.61V346a15.73,15.73,0,1,1,0-19.07V303.71h-27.2a15.73,15.73,0,0,1-21.16,13.21Z" class="cls-3 path141" style=""></path>
<path d="M405,306.29v9.57a16.15,16.15,0,0,0,2.26,1.06,15.73,15.73,0,0,0,21.16-13.21H408.84C407.57,304.58,406.29,305.43,405,306.29Z" class="cls-11 path179" style=""></path>
<path d="M428.43,303.71a15.77,15.77,0,0,0-3.21-11.09l-5.65,3.75q-5.34,3.7-10.73,7.34Z" class="cls-11 path178" style=""></path>
<path d="M405,315.86v-9.57c-1.92,1.29-3.84,2.6-5.76,3.88A15.65,15.65,0,0,0,405,315.86Z" class="cls-11 path180" style=""></path>
<polygon points="405.01 303.71 405.02 288.79 383.67 303.71 405.01 303.71" class="cls-4 polygon42" style=""></polygon>
<polygon points="372.22 303.71 354.39 303.71 354.39 317.55 372.22 303.71" class="cls-4 polygon52" style=""></polygon>
<path d="M369.68,265.55c-.88-.07-1.75-.11-2.63-.15L354.4,277.64v2.22Z" class="cls-4 path126" style=""></path>
<path d="M327.45,303.71l26.95-26.07V265.31c-.75,0-1.5.05-2.25.1-14.7.89-32.83,3.58-48.37,9.59v28.71Z" class="cls-3 path121" style=""></path>
<path d="M354.4,265.31v12.33l12.65-12.24C362.76,265.16,358.54,265.14,354.4,265.31Z" class="cls-3 path122" style=""></path>
<path d="M528.29,513.56a3.74,3.74,0,0,0,2.64-6.4,3.67,3.67,0,0,0-1.69-1h-23v7.37h3.32v43.25H517V513.56Z" class="cls-2 path109" style=""></path>
<path d="M509.54,558.54a3.75,3.75,0,0,0,7.5,0v-1.73h-7.5Z" class="cls-2 path110" style=""></path>
<path d="M497.35,506.19h8.87v-.13H498.3A3.63,3.63,0,0,0,497.35,506.19Z" class="cls-2 path108" style=""></path>
<path d="M495.65,507.16a3.76,3.76,0,0,0,2.65,6.4h7.92v-7.37h-8.87A3.7,3.7,0,0,0,495.65,507.16Z" class="cls-2 path106" style=""></path>
<path d="M455.61,422.48A109.34,109.34,0,0,0,468.43,405H455.62Z" class="cls-3 path153" style=""></path>
<path d="M405,402.5a15.55,15.55,0,0,1,8.34.73,15.79,15.79,0,0,1,3.29,1.72h39V354.33H405Zm19.71-24.94a15.7,15.7,0,1,1,9.18,20.23A15.71,15.71,0,0,1,424.71,377.56Z" class="cls-3 path144" style=""></path>
<path d="M354.38,405H399a15.87,15.87,0,0,1,6-2.45V354.33H354.39Z" class="cls-3 path137" style=""></path>
<path d="M354.39,354.33H405V315.86a15.65,15.65,0,0,1-5.76-5.69c1.92-1.28,3.84-2.59,5.76-3.88v-.23l-50.62,33.66Z" class="cls-3 path133" style=""></path>
<polygon points="354.39 339.58 405.01 305.83 405.01 303.71 383.67 303.71 354.39 324.17 354.39 339.58" class="cls-4 polygon40" style=""></polygon>
<polygon points="303.77 343.13 303.77 354.33 307.02 354.33 354.39 317.55 354.39 303.71 351.07 303.71 303.77 343.13" class="cls-4 polygon46" style=""></polygon>
<polygon points="354.39 303.71 354.4 300.94 351.07 303.71 354.39 303.71" class="cls-4 polygon45" style=""></polygon>
<polygon points="349.78 303.71 354.4 299.81 354.4 279.86 328.93 303.71 349.78 303.71" class="cls-4 polygon30" style=""></polygon>
<polygon points="354.4 279.86 354.4 277.63 327.45 303.71 328.93 303.71 354.4 279.86" class="cls-4 polygon37" style=""></polygon>
<polygon points="328.93 303.71 303.77 327.28 303.77 342.61 349.78 303.71 328.93 303.71" class="cls-4 polygon28" style=""></polygon>
<polygon points="303.78 303.71 303.77 326.62 327.45 303.71 303.78 303.71" class="cls-3 polygon26" style=""></polygon>
<path d="M303.78,275c-15.24,5.89-28,15-32.52,28.71h32.52Z" class="cls-3 path120" style=""></path>
<path d="M303.78,303.71H271.26c-2.28,6.86-2.52,14.87,0,24.22,1.64,6.08,5.22,12,9.85,20.57l1.63-1.53,21-20.35Z" class="cls-3 path119" style=""></path>
<path d="M479.54,537.51a16,16,0,0,0,7.51-26.78,15.24,15.24,0,0,0-9.22-4.54H457a3.61,3.61,0,0,0-1.43.76v49.86h6.14V537.92h9l11.67,18.89h8.93a11.23,11.23,0,0,0-1.11-2Zm-17.81-7.09V513.56h14.06a8.43,8.43,0,0,1,0,16.86Z" class="cls-2 path101" style=""></path>
<path d="M483.47,558.54a9.63,9.63,0,0,0,1.86,2.64,3.75,3.75,0,0,0,6.39-2.64,4.59,4.59,0,0,0-.39-1.73H482.4Z" class="cls-2 path105" style=""></path>
<path d="M454.23,556.81v1.73a3.59,3.59,0,0,0,1.11,2.64c.08.08.17.14.25.21v-4.58Z" class="cls-2 path102" style=""></path>
<path d="M455.59,561.39a3.55,3.55,0,0,0,2.39.9,3.77,3.77,0,0,0,3.75-3.75v-1.73h-6.14Z" class="cls-2 path103" style=""></path>
<path d="M455.6,507a2.65,2.65,0,0,0-.26.21,3.61,3.61,0,0,0-1.11,2.65v47h1.36Z" class="cls-2 path104" style=""></path>
<path d="M416.63,405A15.69,15.69,0,0,1,405,433.37v22.2h6.83c16.63-8.61,31.86-19.69,43.79-33.09V405Z" class="cls-3 path159" style=""></path>
<path d="M405,433.37A15.69,15.69,0,0,0,416.63,405H405Z" class="cls-8 path168" style=""></path>
<path d="M399,405a15.7,15.7,0,0,0,3.3,27.69,16.52,16.52,0,0,0,2.69.73V405Z" class="cls-8 path169" style=""></path>
<path d="M405,402.5V405h11.63a15.79,15.79,0,0,0-3.29-1.72A15.55,15.55,0,0,0,405,402.5Z" class="cls-8 path170" style=""></path>
<path d="M405,405V402.5a15.87,15.87,0,0,0-6,2.45Z" class="cls-8 path171" style=""></path>
<path d="M393.12,412.41A15.66,15.66,0,0,1,399,405H354.38v23a15.92,15.92,0,0,1,16-2.86,15.68,15.68,0,0,1,9.24,20.22,15.84,15.84,0,0,1-20.36,9.18,15.57,15.57,0,0,1-4.84-2.89v3.93H405v-22.2a16.52,16.52,0,0,1-2.69-.73A15.71,15.71,0,0,1,393.12,412.41Z" class="cls-3 path160" style=""></path>
<polygon points="354.39 354.33 332.41 354.33 303.76 373.38 303.76 404.95 354.38 404.95 354.39 354.33" class="cls-3 polygon56" style=""></polygon>
<polygon points="332.41 354.33 354.39 354.33 354.39 339.72 332.41 354.33" class="cls-3 polygon54" style=""></polygon>
<polygon points="354.39 324.17 311.23 354.33 332.26 354.33 354.39 339.58 354.39 324.17" class="cls-4 polygon43" style=""></polygon>
<polygon points="303.77 359.55 303.76 373.33 332.26 354.33 311.23 354.33 303.77 359.55" class="cls-4 polygon44" style=""></polygon>
<path d="M303.77,359.55l-34.69,24.24.79.9c5.26,2.85,11.14,3.49,15.48.92l18.41-12.28Z" class="cls-4 path127" style=""></path>
<path d="M303.77,356.86v-2.53H290.32L262,378h0c.42.54.86,1.07,1.32,1.57l5.8,4.25Z" class="cls-4 path129" style=""></path>
<polygon points="290.32 354.33 303.77 354.33 303.77 343.13 290.32 354.33" class="cls-4 polygon53" style=""></polygon>
<polygon points="303.77 342.61 303.77 327.28 282.74 346.98 275.13 354.33 289.91 354.33 303.77 342.61" class="cls-4 polygon36" style=""></polygon>
<polygon points="327.45 303.71 303.77 326.62 303.77 327.28 328.93 303.71 327.45 303.71" class="cls-4 polygon38" style=""></polygon>
<path d="M258.55,371.91A23.14,23.14,0,0,0,262,378l28-23.64H275.13l-16.85,16.31.18.9Z" class="cls-4 path123" style=""></path>
<polygon points="405.01 305.83 408.19 303.71 405.01 303.71 405.01 305.83" class="cls-4 polygon41" style=""></polygon>
<path d="M429.44,509.06h-.08a3.46,3.46,0,0,0-1-1.88,3.74,3.74,0,0,0-1.71-1h-1.89a3.55,3.55,0,0,0-1.68,1,3.34,3.34,0,0,0-1.05,1.88h-.08L407.7,555.54a10.44,10.44,0,0,0-.46,1.27h7.88l1.76-5.77H434.5l1.76,5.77h7.88a10.44,10.44,0,0,0-.46-1.27Zm-10.27,34.48,6.52-21.44,6.52,21.44Z" class="cls-2 path99" style=""></path>
<path d="M436.56,557.79a10.43,10.43,0,0,0,1.67,3.39,3,3,0,0,0,2.45,1.11,3.77,3.77,0,0,0,3.75-3.75,6.07,6.07,0,0,0-.29-1.73h-7.88Z" class="cls-2 path96" style=""></path>
<path d="M407,558.54a3.77,3.77,0,0,0,3.74,3.75,3,3,0,0,0,2.46-1.11,10.43,10.43,0,0,0,1.67-3.39l.3-1h-7.88A6.07,6.07,0,0,0,407,558.54Z" class="cls-2 path98" style=""></path>
<path d="M354.37,455.57V474.8A200.28,200.28,0,0,0,405,458.93v-3.36Z" class="cls-3 path157" style=""></path>
<path d="M405,458.93q3.45-1.6,6.83-3.36H405Z" class="cls-3 path158" style=""></path>
<path d="M359.21,454.53a15.84,15.84,0,0,0,20.36-9.18,15.68,15.68,0,0,0-9.24-20.22,15.92,15.92,0,0,0-16,2.86v23.65A15.57,15.57,0,0,0,359.21,454.53Z" class="cls-10 path176" style=""></path>
<path d="M350,434.31a15.6,15.6,0,0,0,4.4,17.33V428A15.62,15.62,0,0,0,350,434.31Z" class="cls-10 path175" style=""></path>
<path d="M350,434.31a15.62,15.62,0,0,1,4.4-6.32V405H303.76V430.4a15.7,15.7,0,1,1,18.51,25.17h32.11v-3.93A15.6,15.6,0,0,1,350,434.31Z" class="cls-3 path154" style=""></path>
<path d="M303.76,373.38,286,385.19l-.15.11-.21.14-.15.09-.14.08-9.27,6.18-6.21-7.1q-.9-.48-1.77-1.05a25.2,25.2,0,0,1-4.82-4.1l-1.7-1.25-5-6,1.7-1.65c-.88-4.46-1.16-10.19-1.46-16.31h-3.67V405h50.62Z" class="cls-3 path148" style=""></path>
<path d="M269.87,384.69l6.21,7.1,9.27-6.18C281,388.18,275.13,387.54,269.87,384.69Z" class="cls-3 path162" style=""></path>
<path d="M258.55,371.91l-.09-.37-.18-.9-1.7,1.65,5,6L262,378A23.14,23.14,0,0,1,258.55,371.91Z" class="cls-3 path161" style=""></path>
<path d="M253.15,327.6v26.73h3.67C256.37,345.31,255.84,335.45,253.15,327.6Z" class="cls-3 path150" style=""></path>
<path d="M238.4,313.19c-17.63-3.44-29.33,19.56-35.16,41.14h49.91V327.6C250.66,320.31,246.3,314.74,238.4,313.19Z" class="cls-3 path134" style=""></path>
<path d="M354.35,562.29h17.93a3.72,3.72,0,0,0,3.31-5.48H354.35Z" class="cls-2 path91" style=""></path>
<path d="M354.35,554.79H346V537.92h8.31v-7.5H346V513.56h8.32v-7.37h-13a3.67,3.67,0,0,0-1.69,1,3.61,3.61,0,0,0-1.11,2.65v47h15.81Z" class="cls-2 path95" style=""></path>
<path d="M372.28,554.79H354.35v2h21.24a3.76,3.76,0,0,0-.66-.91A3.61,3.61,0,0,0,372.28,554.79Z" class="cls-2 path90" style=""></path>
<path d="M338.54,556.81v1.73a3.79,3.79,0,0,0,3.75,3.75h12.06v-5.48Z" class="cls-2 path94" style=""></path>
<path d="M368.53,537.92a3.75,3.75,0,0,0,0-7.5H354.36v7.5Z" class="cls-2 path89" style=""></path>
<path d="M354.36,513.56h17.92a3.75,3.75,0,0,0,2.65-6.4,3.7,3.7,0,0,0-1.7-1H354.36Z" class="cls-2 path93" style=""></path>
<path d="M322.26,455.57a15.7,15.7,0,0,1-13.52,1.19,15.85,15.85,0,0,1-2.45-1.19h-2.54v20.31a167.67,167.67,0,0,0,50.62-1.08V455.57Z" class="cls-3 path149" style=""></path>
<path d="M329,447.58a15.7,15.7,0,0,0-25.22-17.18v23.31a15.22,15.22,0,0,0,2.54,1.86h16A15.67,15.67,0,0,0,329,447.58Z" class="cls-9 path173" style=""></path>
<path d="M308.74,456.76a15.7,15.7,0,0,0,13.52-1.19h-16A15.85,15.85,0,0,0,308.74,456.76Z" class="cls-9 path174" style=""></path>
<path d="M299.57,436.53a15.7,15.7,0,0,0,4.18,17.18V430.4A15.59,15.59,0,0,0,299.57,436.53Z" class="cls-9 path172" style=""></path>
<path d="M303.75,453.71a15.69,15.69,0,0,1,0-23.31V405H253.14v17.79a15.71,15.71,0,1,1,0,18.94v13.89h50.62Z" class="cls-3 path139" style=""></path>
<path d="M253.14,405V354.33H203.24c-.24.93-.48,1.85-.71,2.76V405Z" class="cls-3 path156" style=""></path>
<path d="M202.53,357.09c-2.63,10.59-3.83,20.54-3.6,26.49A87.3,87.3,0,0,0,202.38,405h.14Z" class="cls-3 path152" style=""></path>
<path d="M327.64,507.16a3.72,3.72,0,0,0-1.69-1H324a3.72,3.72,0,0,0-1.69,1,3.6,3.6,0,0,0-1.1,2.65v35.27l-17.51-28.4v14.67l15.69,25.46h9.31v-47A3.64,3.64,0,0,0,327.64,507.16Z" class="cls-2 path84" style=""></path>
<path d="M320.5,558.54a9.4,9.4,0,0,0,1.85,2.64,3.75,3.75,0,0,0,6.39-2.64v-1.73h-9.31Z" class="cls-2 path86" style=""></path>
<path d="M303.74,531.35V516.68l-4.24-6.87a9.88,9.88,0,0,0-1.85-2.65,3.72,3.72,0,0,0-1.69-1h-1.91a3.72,3.72,0,0,0-1.69,1,3.6,3.6,0,0,0-1.1,2.65v47h7.49V523.26Z" class="cls-2 path83" style=""></path>
<path d="M291.26,558.54a3.73,3.73,0,0,0,6.39,2.64,3.62,3.62,0,0,0,1.1-2.64v-1.73h-7.49Z" class="cls-2 path87" style=""></path>
<path d="M253.13,455.57V461a160.31,160.31,0,0,0,50.62,14.85V455.57Z" class="cls-3 path143" style=""></path>
<path d="M260.13,446.92a15.7,15.7,0,1,0-7-24.18v18.94A15.61,15.61,0,0,0,260.13,446.92Z" class="cls-5 path164" style=""></path>
<path d="M251,426.7a15.68,15.68,0,0,0,2.18,15V422.74A15.53,15.53,0,0,0,251,426.7Z" class="cls-5 path165" style=""></path>
<path d="M243.24,455.57h9.89V441.68a15.65,15.65,0,0,1,0-18.94V405H202.52v.44C209.13,427.29,224.17,443.88,243.24,455.57Z" class="cls-3 path145" style=""></path>
<path d="M253.11,562.29h24.6a3.79,3.79,0,0,0,3.75-3.75,3.51,3.51,0,0,0-.45-1.73h-27.9Z" class="cls-2 path77" style=""></path>
<path d="M277.71,554.79H266.46V513.56h11.25a3.74,3.74,0,0,0,2.64-6.4,3.67,3.67,0,0,0-1.69-1H253.12v7.37H259v41.23h-5.85v2H281a3.76,3.76,0,0,0-.66-.91A3.61,3.61,0,0,0,277.71,554.79Z" class="cls-2 path81" style=""></path>
<path d="M244.41,556.81a3.75,3.75,0,0,0,3.31,5.48h5.39v-5.48Z" class="cls-2 path80" style=""></path>
<path d="M245.07,507.16a3.76,3.76,0,0,0,2.65,6.4h5.4v-7.37h-6.35A3.7,3.7,0,0,0,245.07,507.16Z" class="cls-2 path75" style=""></path>
<path d="M243.24,455.57q4.78,2.94,9.89,5.46v-5.46Z" class="cls-3 path136" style=""></path>
<path d="M202.5,506.19h-3a3.77,3.77,0,0,0-2.8,3.62v47h5.81Z" class="cls-2 path74" style=""></path>
<path d="M196.68,556.81v1.73a3.75,3.75,0,0,0,5.81,3.13v-4.86Z" class="cls-2 path71" style=""></path>
<path d="M226.67,537.92a3.75,3.75,0,0,0,0-7.5H204.18V513.56h26.24a3.75,3.75,0,0,0,1-7.37H202.5v50.62h1.69V537.92Z" class="cls-2 path70" style=""></path>
<path d="M253.11,554.79h-5.39a3.61,3.61,0,0,0-2.65,1.11,3.76,3.76,0,0,0-.66.91h8.7Z" class="cls-2 path76" style=""></path>
<path d="M202.49,561.67a3.35,3.35,0,0,0,.58-.49,3.59,3.59,0,0,0,1.11-2.64v-1.73h-1.69Z" class="cls-2 path69" style=""></path>
</svg>
