    <svg xmlns="http://www.w3.org/2000/svg" viewBox="0 0 535.76 556.81">
      <defs>
          <style>
             svg {
               width: 500px;
               height: 500px;
             } 
              .cls-1{fill:none;}.cls-2{fill:#fff800;}.cls-3{fill:#6ef989;}.cls-4{fill:#1d4084;}.cls-5{fill:#513f40;}.cls-6{fill:#923c21;}.cls-7{fill:#e6e6e6;}.cls-8{fill:#00609a;}.cls-9{fill:#f9c68c;}.cls-10{fill:#a54d2e;}.cls-11{fill:#38f9d7;}
          </style>
      </defs>
      <title>
          MUSIC BG
      </title>
              <path d="M506.28,69V79.39a12.34,12.34,0,0,1,.8,2.58,1.75,1.75,0,0,1-.8,2.08v11a31.1,31.1,0,0,1,6.26,2.19c5.89,2.65,14.9.56,19.43-4.5a16.15,16.15,0,0,0-16.31-26,29.59,29.59,0,0,0-3.68.94c-3,1.13-4.39.61-3-2.77a7.31,7.31,0,0,0,.65-4.2c-.27-1.58-1-2.83-2.81-2.6a3.29,3.29,0,0,0-.58.13v7.29C507.06,67,507,68.18,506.28,69Zm18.17,3.13c1.62-.51,3.06,1.44,4,3,.25,2.84-2.18,2.33-3.67,2.9-1.07.42-2.86,1.39-2.93-.55S522.37,72.79,524.45,72.14Zm-10.2-.55c4.3-.41,5.5,3.62,5.48,5.92-.05,5.09-5.81,2.65-8,4.81-1.58.34-2.45.11-2.67-1.34C508.51,77.34,511.45,71.86,514.25,71.59Z" class="cls-6 path67" style=""></path>
  <path d="M524.81,78.05c1.49-.57,3.92-.06,3.67-2.9-1-1.57-2.41-3.52-4-3-2.08.65-2.63,3.38-2.57,5.36S523.74,78.47,524.81,78.05Z" class="cls-10 path113" style=""></path>
  <path d="M511.74,82.32c2.18-2.16,7.94.28,8-4.81,0-2.3-1.18-6.33-5.48-5.92-2.8.27-5.74,5.75-5.18,9.39C509.29,82.43,510.16,82.66,511.74,82.32Z" class="cls-10 path110" style=""></path>
  <path d="M504.6,61.29a11.36,11.36,0,0,0,1.54,4c.06.1.09.18.14.28V58.26A2.61,2.61,0,0,0,504.6,61.29Z" class="cls-6 path66" style=""></path>
  <path d="M507.07,82a12.34,12.34,0,0,0-.8-2.58v4.66A1.75,1.75,0,0,0,507.07,82Z" class="cls-10 path108" style=""></path>
  <path d="M503.56,75.58c-1.72-1.36-4.17.49-5.9,1.59-2.36,1.51-.37,4.4-1.47,6.53-1.5,2.92.61,2.85,3,2.68,1-.36,2.34-.82,3.68-1.34,1-.4,2.48-.44,3.4-1V79.39A9.88,9.88,0,0,0,503.56,75.58Z" class="cls-10 path107" style=""></path>
  <path d="M502.87,85c-1.34.52-2.7,1-3.68,1.34-2.39.17-4.5.24-3-2.68,1.1-2.13-.89-5,1.47-6.53,1.73-1.1,4.18-3,5.9-1.59a9.88,9.88,0,0,1,2.71,3.81V69a4.77,4.77,0,0,1-2.1,1.2c-1.38.45-2.83.66-4.18,1.17-3,1.13-5.37,1.81-3.24-2.91a4.62,4.62,0,0,0-.94-5.51,1.92,1.92,0,0,0-2.9.18c-1.6,1.72-1.27,3.63-.22,5.51.85,1.54,2.62,3.58.45,4.69-2.81,1.45-6,3.27-9.22,2.52-2.49-.59.11-3.07-.3-4.71-.34-1.38-.15-2.93-1.64-3.79a1.88,1.88,0,0,0-2.46.36,4,4,0,0,0-.75,4.51,6,6,0,0,0,.73,1.45c2.26,3,.5,4.11-2.18,4.88-1.39.4-2.74.92-4.14,1.28-1.14.31-2.39,1.53-3.48.27-.81-1,.09-2,.51-3,.81-1.94,1-3.89-.68-5.51a1.94,1.94,0,0,0-2.91.1c-1.69,1.69-1.33,3.61-.34,5.49s2,4-.63,5-5.49,2.7-8.52,2.24c-.66-1.19-.15-2,.18-2.82.77-2,1.05-3.89-.67-5.52a2.42,2.42,0,0,0-1-.6v25.78h39.42c3.33-5.4,6.36-7.18,11.2-6.19v-11C505.35,84.6,503.88,84.64,502.87,85ZM459.62,98.69c-.91-.14-2.3.87-2.43-1.47-.32-6,1.18-8.8,5.74-9.33s3.16,3.88,4.29,6C468.23,95.77,464.3,98.23,459.62,98.69Zm13.54-3.94c-1.75.26-3.38,0-2.69-1.68,1.28-3.22-1.69-8.78,4.87-9.26,4.32-.31,4.66,3.83,4.88,5.83C480.75,94.69,475,92.6,473.16,94.75Zm13-4.49c-1.53.41-2.86,1.42-3.46-.54s2.5-9.08,3.94-9.48c4.62-1.28,6.34,2.59,6.57,5.26C493.69,90.39,488.29,88.61,486.2,90.26Z" class="cls-6 path69" style=""></path>
  <path d="M486.68,80.24c-1.44.4-4.52,7.57-3.94,9.48s1.93,1,3.46.54c2.09-1.65,7.49.13,7.05-4.76C493,82.83,491.3,79,486.68,80.24Z" class="cls-10 path111" style=""></path>
  <path d="M475.34,83.81c-6.56.48-3.59,6-4.87,9.26-.69,1.72.94,1.94,2.69,1.68,1.88-2.15,7.59-.06,7.06-5.11C480,87.64,479.66,83.5,475.34,83.81Z" class="cls-10 path112" style=""></path>
  <path d="M462.93,87.89c-4.56.53-6.06,3.38-5.74,9.33.13,2.34,1.52,1.33,2.43,1.47,4.68-.46,8.61-2.92,7.6-4.82C466.09,91.77,467.52,87.35,462.93,87.89Z" class="cls-10 path109" style=""></path>
  <path d="M453.74,76c-1.8,1.67-1.16,3.65-.41,5.52.58,1.46,2.16,3.29.31,4.29-2.64,1.42-5.72,3.27-8.67,2.39-2.46-.74.19-3,.08-4.66-.15-2-.57-3.9-2.78-3.94-2.56-.06-2.58,2.12-2.26,4a18.3,18.3,0,0,0,1.31,3.52c.52,1.31.6,2.53-1,3.14-5.18,2-6.34,6.66-7.86,11h4.68s0-.09,0-.14a9.9,9.9,0,0,1,9-8c2.24-.28,5.13-3.89,6.84.15,1.11,2.6,2.89,5.85-.36,8h2.92V75.46A1.92,1.92,0,0,0,453.74,76Z" class="cls-6 path64" style=""></path>
  <path d="M453.09,93.28c-1.71-4-4.6-.43-6.84-.15a9.9,9.9,0,0,0-9,8c0,.05,0,.09,0,.14h15.55C456,99.13,454.2,95.88,453.09,93.28Z" class="cls-10 path105" style=""></path>
  <path d="M295.31,95.81a2,2,0,0,0-1.37-3c-20.46-3.6-27.43-9.19-29.67-13.25a6.11,6.11,0,0,1-.72-5A2,2,0,0,0,259.89,73a10,10,0,0,0,.76,8.32C264.22,88,274.21,93,290.39,96.22l-3,5h4.67C293.26,99.22,294.37,97.36,295.31,95.81Z" class="cls-2 path13" style=""></path>
  <path d="M256,101.24c2-9.93,2.95-18.37,3-18.89a2,2,0,1,0-4-.45c0,.1-.63,5.58-1.89,12.85v6.49Z" class="cls-2 path5" style=""></path>
  <path d="M253.18,94.75c-.36,2-.77,4.23-1.23,6.49h1.22Z" class="cls-2 path3" style=""></path>
  <path d="M466.41,127.4c3.22,2,5.27,1.52,8.11-.71a73.58,73.58,0,0,0,19.25-23.2c.44-.82.87-1.56,1.3-2.25H455.65V122.7A35.81,35.81,0,0,1,466.41,127.4Z" class="cls-6 path70" style=""></path>
  <path d="M451.11,102c-2.33.86-2.79,3.58-3.77,5.72-1.64,3.58-3,7.49-7.53,8.57l3.83,6.1a27.84,27.84,0,0,1,12,.27V101.24h-2.92A8.73,8.73,0,0,1,451.11,102Z" class="cls-6 path65" style=""></path>
  <path d="M439.8,116.33h0c4.52-1.08,5.89-5,7.53-8.57,1-2.14,1.44-4.86,3.77-5.72a8.73,8.73,0,0,0,1.62-.8H437.18c-.59,2.16-2,4.1-3.09,6.14Z" class="cls-10 path104" style=""></path>
  <path d="M434.09,107.38c1.05-2,2.5-4,3.09-6.14H432.5c-.35,1-.72,2-1.15,2.92C432.26,105.23,433.17,106.31,434.09,107.38Z" class="cls-6 path68" style=""></path>
  <path d="M434.09,107.38c-.92-1.07-1.83-2.15-2.74-3.22a12.26,12.26,0,0,0-5.49,2.14L405,119.44v29.83q9.44-6.35,18.85-12.68c6.71-4.54,13.19-9.43,19.77-14.16l-3.84-6.1Z" class="cls-5 path54" style=""></path>
  <path d="M354.4,151.38v.48h46.78l3.84-2.59V119.44Z" class="cls-5 path58" style=""></path>
  <path d="M276.84,122.45a2,2,0,0,1,1.13,1.77c0,.19,0,.4,0,.6,1.47-2.46,8.71-14.61,14.09-23.58h-4.67c-4.6,7.68-10.07,16.86-12.2,20.44C275.72,121.92,276.27,122.18,276.84,122.45Z" class="cls-2 path12" style=""></path>
  <path d="M253.17,113.41c1.13-4,2.08-8.21,2.87-12.17h-2.87Z" class="cls-2 path6" style=""></path>
  <path d="M251,113.78a2,2,0,0,1,1.29,2.49c.29-.94.57-1.89.84-2.86V101.24H252c-.8,4-1.76,8.08-2.88,12C249.72,113.38,250.37,113.57,251,113.78Z" class="cls-2 path4" style=""></path>
  <path d="M276.84,122.45c-.57-.27-1.12-.53-1.66-.77-.57.95-.9,1.52-.92,1.55l-.1.2c.59.26,1.18.52,1.81.82a13.07,13.07,0,0,1-.15,2l.15,0a2,2,0,0,0,1.72-1l.27-.46c0-.2,0-.41,0-.6A2,2,0,0,0,276.84,122.45Z" class="cls-2 path14" style=""></path>
  <path d="M276,126.25l-.15,0c-.44,3.09-2.12,8.8-8.5,9.72-8.6,1.25-16.72-22.79,6.84-12.52l.1-.2s.35-.6.92-1.55c-8-3.54-13.62-3.77-16.63-.68-2.34,2.39-2.5,6.57-.42,10.65s5.28,6.35,8.54,6.35a6,6,0,0,0,.94-.07c8-1.16,10.22-8.76,10.35-13.11l-.27.46A2,2,0,0,1,276,126.25Z" class="cls-2 path10" style=""></path>
  <path d="M251,113.78c-.67-.21-1.32-.4-2-.56-.19.63-.37,1.26-.56,1.88a.06.06,0,0,0,0,0c.63.16,1.27.33,1.92.55-.2.64-.4,1.27-.61,1.9h0a2.06,2.06,0,0,0,.59.09,2,2,0,0,0,1.91-1.41h0A2,2,0,0,0,251,113.78Z" class="cls-2 path7" style=""></path>
  <path d="M250.42,117.69a2.06,2.06,0,0,1-.59-.09h0c-3.18,9.59-7.46,16.78-12.93,14.51-13.42-5.55-4.78-21,11.62-17a.06.06,0,0,1,0,0c.19-.62.37-1.25.56-1.88-10.35-2.59-18,1.82-20.21,7.66-1.49,4-.48,9.87,7.25,13.07a7.23,7.23,0,0,0,2.77.57,7,7,0,0,0,3-.68c4-1.88,7.42-7.62,10.48-17.57h0A2,2,0,0,1,250.42,117.69Z" class="cls-2 path1" style=""></path>
  <path d="M275,126a2,2,0,0,0,.87.26,13.07,13.07,0,0,0,.15-2c-.63-.3-1.22-.56-1.81-.82A2,2,0,0,0,275,126Z" class="cls-2 path15" style=""></path>
  <path d="M267.32,136c6.38-.92,8.06-6.63,8.5-9.72A2,2,0,0,1,275,126a2,2,0,0,1-.79-2.54C250.6,113.16,258.72,137.2,267.32,136Zm-.28-2h0c-1.77.26-4-1.44-5.34-4.14-1.25-2.45-1.36-4.93-.28-6a4.15,4.15,0,0,1,3.09-.93c1.91,0,4.87.59,9.41,2.64C273.66,127.93,272.5,133.18,267,134Z" class="cls-2 path11" style=""></path>
  <path d="M249.81,117.59c.21-.63.41-1.26.61-1.9-.65-.22-1.29-.39-1.92-.55A2,2,0,0,0,249.81,117.59Z" class="cls-2 path8" style=""></path>
  <path d="M236.88,132.1c5.47,2.27,9.75-4.92,12.93-14.51a2,2,0,0,1-1.31-2.45C232.1,111.13,223.46,126.55,236.88,132.1Zm11-15.06c-3.27,9.79-6.22,12.47-7.74,13.18a2.94,2.94,0,0,1-2.51,0c-4.33-1.8-6.21-4.78-5-8,1-2.85,4.82-5.8,10.64-5.8A20.3,20.3,0,0,1,247.89,117Z" class="cls-2 path2" style=""></path>
  <path d="M261.41,123.79c-1.08,1.11-1,3.59.28,6,1.38,2.7,3.57,4.4,5.34,4.14h0c5.46-.79,6.62-6,6.87-8.47-4.54-2-7.5-2.64-9.41-2.64A4.15,4.15,0,0,0,261.41,123.79Z" class="cls-2 path9" style=""></path>
  <path d="M232.62,122.27c-1.19,3.21.69,6.19,5,8a2.94,2.94,0,0,0,2.51,0c1.52-.71,4.47-3.39,7.74-13.18a20.3,20.3,0,0,0-4.63-.57C237.44,116.47,233.67,119.42,232.62,122.27Z" class="cls-2 path0" style=""></path>
  <path d="M401.18,151.86H354.4v31.46Q377.79,167.59,401.18,151.86Z" class="cls-5 path55" style=""></path>
  <path d="M339.3,160.91q-17.78,11.24-35.52,22.51v19.06H326l14.69-9.94c4.56-3.08,9.14-6.14,13.71-9.22V151.86h-.74Z" class="cls-5 path60" style=""></path>
  <path d="M303.78,202.48V183.42l-30.09,19.06Z" class="cls-5 path51" style=""></path>
  <path d="M207,177.8c8.16-5.78,17-9.43,27.15-9.64,2.76,0,5.83.11,6.27,3.68.41,3.37-2.63,3.17-4.81,3.85-13.44,4.15-24.15,12.38-33,22.85v3.94h21a23.72,23.72,0,0,1,1.72-5.46c2.29-5.07,6-9,10.11-12.6,1.92-1.64,4.07-3,5.94-4.71,2.78-2.53,4.84-5.52,3.78-9.54-1.15-4.35-4.78-5.73-8.64-6.31a27,27,0,0,0-8.63.27,57.39,57.39,0,0,0-25.31,11.51v5.61C204,180,205.42,178.89,207,177.8Z" class="cls-4 path30" style=""></path>
  <path d="M235.57,175.69c2.18-.68,5.22-.48,4.81-3.85-.44-3.57-3.51-3.73-6.27-3.68-10.1.21-19,3.86-27.15,9.64-1.54,1.09-3,2.24-4.42,3.45v17.29C211.42,188.07,222.13,179.84,235.57,175.69Z" class="cls-8 path95" style=""></path>
  <path d="M199.27,202.48h3.27v-3.94l-1,1.19Z" class="cls-4 path36" style=""></path>
  <path d="M201.53,199.73l1-1.19V181.25c-7.37,6.26-13.29,13.89-19.53,21.23h16.26Z" class="cls-8 path94" style=""></path>
  <path d="M193.59,183.69c-5.81,6-11.08,12.49-16.56,18.79h6c6.24-7.34,12.16-15,19.53-21.23v-5.61A83.41,83.41,0,0,0,193.59,183.69Z" class="cls-4 path27" style=""></path>
  <path d="M151.93,152.73a13.52,13.52,0,0,0,1.77,2,12.51,12.51,0,0,0,9.63,3.29,2,2,0,0,0-.56-4,8.54,8.54,0,0,1-6.26-2.19h-4.58Z" class="cls-3 path20" style=""></path>
  <path d="M156.51,151.86l-.17-.15c-2.37-2.21-3.85-5.91-4.41-10.88v11Z" class="cls-3 path22" style=""></path>
  <path d="M146.84,145.91c.41-1.13.83-2.27,1.26-3.41a23,23,0,0,0,3.23,9.36h.6v-11a48,48,0,0,1-.15-8.06,2,2,0,0,0-3.84-.89c-1.65,4-3.28,8.38-4.86,12.65-.89,2.41-1.8,4.89-2.74,7.33h4.28C145.36,149.91,146.09,147.92,146.84,145.91Z" class="cls-3 path17" style=""></path>
  <path d="M130.29,170.36c-1.36-.11-2.84-.35-4.39-.6-5.49-.87-11.71-1.86-16.28,2.2-4.13,3.66-5.92,10.82-5.49,21.89a20.79,20.79,0,0,0,1.88,8.63h5.08c-2.18-1.58-2.84-5.48-3-8.78-.38-9.67,1-16,4.14-18.75s8.16-2,13-1.23a53.55,53.55,0,0,0,5.45.67,2,2,0,0,0,1.11-.27c4.94-2.88,8.87-11.88,12.79-22.26h-4.28C137.16,160.13,133.74,167.85,130.29,170.36Z" class="cls-3 path16" style=""></path>
  <path d="M134.91,188c1.68-5.17.45-9.31-3.37-11.35a2,2,0,0,0-1.88,3.53c2,1.08,2.51,3.3,1.44,6.59-2.09,6.45-8.89,13.47-14.4,15.7h7.58C129.06,198.65,133.26,193.09,134.91,188Z" class="cls-3 path19" style=""></path>
  <path d="M326,202.48H303.78v15Z" class="cls-5 path56" style=""></path>
  <path d="M262.9,209.31q-4.84,3.06-9.75,6v36.51q25.29-17.19,50.62-34.34v-15H273.69Z" class="cls-5 path59" style=""></path>
  <path d="M239.82,223.44h0c-.73.62-1.48,1.22-2.23,1.81-1.51,1.18-3.07,2.29-4.65,3.37-4,2.68-8.09,5.1-12.16,7.61l-.87.64c-3.56,2.61-9.65,3.88-10.31,7.65-.44,2.54,2,5.59,4.14,8.58h37.58l.55-.39,1.28-.87V215.33c-4.44,2.71-8.89,5.39-13.33,8.11Z" class="cls-5 path52" style=""></path>
  <path d="M202.53,223.11c.72-.84,1.44-1.69,2.19-2.51,4.39-4.79,8.57-4,11.48,1.78,2.21,4.38,3.37,9.13,4.58,13.85,4.07-2.51,8.2-4.93,12.16-7.61,1.58-1.08,3.14-2.19,4.65-3.37.75-.59,1.5-1.19,2.23-1.81-11.73-1.73-18.15-10.57-16.25-21h-21Z" class="cls-4 path29" style=""></path>
  <path d="M204.72,220.6c-.75.82-1.47,1.67-2.19,2.51v30h11.21c-2.12-3-4.58-6-4.14-8.58.66-3.77,6.75-5,10.31-7.65l.87-.64c-1.21-4.72-2.37-9.47-4.58-13.85C213.29,216.59,209.11,215.81,204.72,220.6Z" class="cls-7 path80" style=""></path>
  <path d="M171.22,253.1h31.31v-30c-2.77,3.29-5.34,6.76-8,10.18A68.15,68.15,0,0,1,171.22,253.1Z" class="cls-7 path73" style=""></path>
  <path d="M169.52,232.68a53.59,53.59,0,0,1-17.61,9.15V253.1h19.31a68.15,68.15,0,0,0,23.34-19.81c2.63-3.42,5.2-6.89,8-10.18V202.48h-3.27C190.22,213.42,180.92,224.06,169.52,232.68Z" class="cls-4 path32" style=""></path>
  <path d="M151.91,230.05v11.78a53.59,53.59,0,0,0,17.61-9.15c11.4-8.62,20.7-19.26,29.75-30.2H183q-1.8,2.13-3.67,4.21C171,216,162.19,224.26,151.91,230.05Z" class="cls-8 path93" style=""></path>
  <path d="M162.33,217.53a77,77,0,0,1-10.41,7.65v4.87c10.28-5.79,19.07-14.07,27.43-23.36q1.88-2.08,3.67-4.21h-6A147,147,0,0,1,162.33,217.53Z" class="cls-4 path40" style=""></path>
  <path d="M101.29,252.75v.35h50.62V241.83a42.11,42.11,0,0,1-7.53,1.42C129.51,244.65,115.05,247.46,101.29,252.75Z" class="cls-4 path50" style=""></path>
  <path d="M101.29,242.15v10.6c13.76-5.29,28.22-8.1,43.09-9.5a42.11,42.11,0,0,0,7.53-1.42V230.05A64.13,64.13,0,0,1,123,238.42,95.55,95.55,0,0,0,101.29,242.15Z" class="cls-8 path92" style=""></path>
  <path d="M123,238.42a64.13,64.13,0,0,0,28.89-8.37v-4.87a54.48,54.48,0,0,1-24.52,8.1A137.92,137.92,0,0,0,101.29,238v4.14A95.55,95.55,0,0,1,123,238.42Z" class="cls-4 path31" style=""></path>
  <path d="M112.23,207.12a9.39,9.39,0,0,0,1.19.08c3.42,0,7.3-1.88,10.86-4.72H116.7a8.06,8.06,0,0,1-3.92.68,3.78,3.78,0,0,1-1.69-.68H106A8.07,8.07,0,0,0,112.23,207.12Z" class="cls-3 path18" style=""></path>
  <path d="M101.29,252.75v-10.6a126,126,0,0,0-21.74,8.66c-1.45.73-2.88,1.49-4.27,2.29h25.09C100.67,253,101,252.86,101.29,252.75Z" class="cls-8 path89" style=""></path>
  <path d="M101.29,242.15V238q-7,2-13.93,4.5A78,78,0,0,0,67.12,253.1h8.16c1.39-.8,2.82-1.56,4.27-2.29A126,126,0,0,1,101.29,242.15Z" class="cls-4 path28" style=""></path>
  <path d="M269,291.3c.35-.11.67-.29,1-.37,3.33-.68,7.27-3.77,9.75.51,2.15,3.72-1.12,6.78-3.34,9.55a35.25,35.25,0,0,1-2.42,2.72h6a29.79,29.79,0,0,0,3.38-5.54c1.65-3.47,2.19-7.1-.64-10.13a8.55,8.55,0,0,0-9.9-2.35c-2,.76-4.13,1.32-6.22,1.9a32.5,32.5,0,0,1-13.51,1v4.64A38.58,38.58,0,0,0,269,291.3Z" class="cls-4 path45" style=""></path>
  <path d="M274.05,303.71a35.25,35.25,0,0,0,2.42-2.72c2.22-2.77,5.49-5.83,3.34-9.55-2.48-4.28-6.42-1.19-9.75-.51-.35.08-.67.26-1,.37a38.58,38.58,0,0,1-15.9,1.91v10.5Z" class="cls-7 path81" style=""></path>
  <path d="M234.83,265.11h0c-2.39.43-4.11,2.09-6.06,3.32.48,1.37.92,2.74,1.43,4.09,4.78,12.57,12.49,19.49,22.94,20.69v-4.64C241.79,286.81,234.26,278,234.83,265.11Z" class="cls-4 path48" style=""></path>
  <path d="M202.52,303.71h50.62v-10.5c-10.45-1.2-18.16-8.12-22.94-20.69-.51-1.35-.95-2.72-1.43-4.09-3.07,2.57-5.2,2.33-7-1.65s-4.25-7.46-6.38-11.19c-.47-.82-1-1.65-1.64-2.49H202.53Z" class="cls-7 path82" style=""></path>
  <path d="M221.76,266.78c1.81,4,3.94,4.22,7,1.65h0c1.95-1.23,3.67-2.89,6.06-3.32h0c5.49-4,10.88-8.17,16.49-12H213.74c.6.84,1.17,1.67,1.64,2.49C217.51,259.32,220,262.89,221.76,266.78Z" class="cls-5 path57" style=""></path>
  <path d="M154.89,258.73l-3,.59v44.39h21.16q-7.76-13.6-15.17-27.41c-1.2-2.23-.43-4.63,2-6.06,2.21-1.29,4.64-.95,5.8,1,6.13,10.37,12,20.91,17.61,30.83a13.71,13.71,0,0,1,.13,1.62h19.1V253.1H171.22A65.33,65.33,0,0,1,154.89,258.73Zm22.75.38c2.23-1,4.56-.53,5.75,1.56q8.81,15.49,17.24,31.2c1.15,2.15,0,4.17-2.09,5.49s-4.71,1.08-5.84-.83c-6.22-10.53-12.13-21.24-17.57-30.88C174.48,262,175.45,260.12,177.64,259.11Z" class="cls-7 path74" style=""></path>
  <path d="M175.13,265.65c5.44,9.64,11.35,20.35,17.57,30.88,1.13,1.91,3.64,2.21,5.84.83s3.24-3.34,2.09-5.49q-8.41-15.72-17.24-31.2c-1.19-2.09-3.52-2.58-5.75-1.56S174.48,262,175.13,265.65Z" class="cls-9 path114" style=""></path>
  <path d="M165.68,271.26c-1.16-2-3.59-2.31-5.8-1-2.42,1.43-3.19,3.83-2,6.06q7.38,13.81,15.17,27.41h10.36a13.71,13.71,0,0,0-.13-1.62C177.67,292.17,171.81,281.63,165.68,271.26Z" class="cls-9 path116" style=""></path>
  <path d="M154.89,258.73a65.33,65.33,0,0,0,16.33-5.63H151.91v6.22Z" class="cls-4 path42" style=""></path>
  <path d="M128.55,265c-12.59,4.62-15.86,12.1-11.16,24.67,1.86,5,4.66,9.44,7.24,14H151.9V259.32C144,260.85,136.12,262.25,128.55,265Z" class="cls-7 path76" style=""></path>
  <path d="M128.55,265c7.57-2.77,15.49-4.17,23.36-5.7V253.1H101.29v50.61h23.35c-2.58-4.58-5.38-9-7.24-14C112.69,277.12,116,269.64,128.55,265Z" class="cls-4 path25" style=""></path>
  <path d="M100.37,253.1a118.36,118.36,0,0,0-14,6.54c-16.77,9.24-24.21,24-25,42.69,0,.47,0,.92,0,1.38h39.86V253.1Z" class="cls-4 path23" style=""></path>
  <path d="M86.42,259.64a118.36,118.36,0,0,1,14-6.54H75.28c-6.57,3.75-12.44,8.4-16.33,15.45-6.35,11.49-7.35,23.26-5.7,35.16h8.17c0-.46,0-.91,0-1.38C62.21,283.68,69.65,268.88,86.42,259.64Z" class="cls-8 path88" style=""></path>
  <path d="M53.25,303.71C51.6,291.81,52.6,280,59,268.55c3.89-7.05,9.76-11.7,16.33-15.45H67.12a45.09,45.09,0,0,0-16.45,23.48v27.13Z" class="cls-4 path37" style=""></path>
  <path d="M50.67,276.58c-.31,1-.59,2-.84,3.1a66.41,66.41,0,0,0-1.11,24h1.94Z" class="cls-4 path35" style=""></path>
  <path d="M253.14,315.55v4.67a58.26,58.26,0,0,0,12.17-4.75c5.71-3.08,10.88-6.73,14.72-11.76h-6C268.22,309.75,261,313.25,253.14,315.55Z" class="cls-4 path44" style=""></path>
  <path d="M253.14,315.55c7.86-2.3,15.08-5.8,20.91-11.84H253.14Z" class="cls-7 path77" style=""></path>
  <path d="M246.12,317.31a54,54,0,0,1-6.39,1.18c-16.11,1.42-28.07,8.92-37.22,21.06v8.13c2.39-3.5,4.86-6.93,7.53-10.22,5.88-7.23,13.35-11.24,22.45-13,6.89-1.35,13.89-2.35,20.65-4.23v-4.67C250.84,316.23,248.5,316.8,246.12,317.31Z" class="cls-4 path46" style=""></path>
  <path d="M202.52,303.71v35.84c9.15-12.14,21.11-19.64,37.22-21.06a54,54,0,0,0,6.39-1.18c2.38-.51,4.72-1.08,7-1.76V303.71Z" class="cls-7 path83" style=""></path>
  <path d="M192.91,354.33h5.16c1.47-2.22,2.94-4.45,4.44-6.65v-8.13c-1.42,1.89-2.78,3.87-4.07,6Q195.73,350,192.91,354.33Z" class="cls-4 path24" style=""></path>
  <path d="M183.42,303.71c.06,2.13-.52,3.67-2.33,4.65-2.44,1.33-4.87.87-6.17-1.4l-1.86-3.25H151.9v50.62h41q2.82-4.36,5.53-8.8c1.29-2.11,2.65-4.09,4.07-6V303.71Z" class="cls-7 path84" style=""></path>
  <path d="M174.92,307c1.3,2.27,3.73,2.73,6.17,1.4,1.81-1,2.39-2.52,2.33-4.65H173.06Z" class="cls-9 path115" style=""></path>
  <path d="M126.88,307.91c9.1,12.11,14.49,26.41,22.92,38.92,1.8,2.67,2.28,5.31.87,7.5h1.22V303.71H124.63C125.41,305.1,126.17,306.49,126.88,307.91Z" class="cls-7 path75" style=""></path>
  <path d="M149.8,346.83C141.37,334.32,136,320,126.88,307.91c-3.59-.85-7.35-1.68-9.88,1.89-2.39,3.38-.35,6.44,1.43,9.46,6.33,10.65,12.57,21.36,18.85,32h0c.52.7,1.1,1.36,1.57,2.1.2.32.42.63.64.93h11.18C152.08,352.14,151.6,349.5,149.8,346.83Z" class="cls-9 path98" style=""></path>
  <path d="M137.28,351.3c-.43,1-.87,2-1.31,3h3.52c-.22-.3-.44-.61-.64-.93C138.38,352.66,137.8,352,137.28,351.3Z" class="cls-7 path72" style=""></path>
  <path d="M118.43,319.26c-1.78-3-3.82-6.08-1.43-9.46,2.53-3.57,6.29-2.74,9.88-1.89-.71-1.42-1.47-2.81-2.25-4.2H101.28v50.62H136c.44-1,.88-2,1.31-3C131,340.62,124.76,329.91,118.43,319.26Z" class="cls-4 path38" style=""></path>
  <path d="M61.42,303.71c-.42,18.6,6.17,35,15,50.62h24.9V303.71Z" class="cls-4 path41" style=""></path>
  <path d="M56,316.88c3.29,12.17,9.69,22.94,16.23,33.56.78,1.26,1.48,2.57,2.16,3.89h2c-8.78-15.66-15.37-32-15-50.62H53.25A108,108,0,0,0,56,316.88Z" class="cls-8 path91" style=""></path>
  <path d="M72.24,350.44C65.7,339.82,59.3,329.05,56,316.88a108,108,0,0,1-2.76-13.17H50.66v10.1c.37,1.47.78,2.94,1.22,4.4,3.91,13,10.29,24.7,17.23,36.12H74.4C73.72,353,73,351.7,72.24,350.44Z" class="cls-4 path34" style=""></path>
  <path d="M48.72,303.71a84.4,84.4,0,0,0,1.94,10.1v-10.1Z" class="cls-4 path33" style=""></path>
  <path d="M171.15,383.22c-5.59,6.1-11.77,11.41-19.27,14.83v4.5a56,56,0,0,0,15.7-9.68c9.39-8.13,16.52-18.16,23.58-28.25,2.37-3.38,4.64-6.84,6.91-10.29h-5.16A214.14,214.14,0,0,1,171.15,383.22Z" class="cls-4 path26" style=""></path>
  <path d="M171.15,383.22a214.14,214.14,0,0,0,21.76-28.89h-41v22.78c.77-2.11,2.73-3.4,5.4-4.08,3.68.13,6.14,1.91,6.86,5.57a6.33,6.33,0,0,1-5.71,7.17c-3.21.08-5.66-1.24-6.55-4.12v16.4C159.38,394.63,165.56,389.32,171.15,383.22Z" class="cls-7 path78" style=""></path>
  <path d="M158.44,385.77a6.33,6.33,0,0,0,5.71-7.17c-.72-3.66-3.18-5.44-6.86-5.57-2.67.68-4.63,2-5.4,4.08v4.54C152.78,384.53,155.23,385.85,158.44,385.77Z" class="cls-9 path118" style=""></path>
  <path d="M151.6,380.31a6.86,6.86,0,0,1,.29-3.2V354.33h-1.22a7.34,7.34,0,0,1-2.41,2.26c-3.77,2.33-6.58.77-8.77-2.26H136c-2.41,5.44-5.1,10.73-8,15.91q-1.72,3.06-3.54,6.08c-2.62,4.36-3.1,8.86-.84,13.42A19.91,19.91,0,0,0,148,399.62a42.14,42.14,0,0,0,3.92-1.57v-16.4A7.54,7.54,0,0,1,151.6,380.31Zm-12.78,16.28c-3.7.29-6.27-1.81-6.57-5.68a5.66,5.66,0,0,1,5.28-6.41c3.64-.44,6.18,1.51,6.81,5.47C144.47,393.77,142.56,396.29,138.82,396.59Z" class="cls-7 path79" style=""></path>
  <path d="M148.26,356.59a7.34,7.34,0,0,0,2.41-2.26H139.49C141.68,357.36,144.49,358.92,148.26,356.59Z" class="cls-9 path99" style=""></path>
  <path d="M137.53,384.5a5.66,5.66,0,0,0-5.28,6.41c.3,3.87,2.87,6,6.57,5.68s5.65-2.82,5.52-6.62C143.71,386,141.17,384.06,137.53,384.5Z" class="cls-9 path119" style=""></path>
  <path d="M151.6,380.31a7.54,7.54,0,0,0,.29,1.34v-4.54A6.86,6.86,0,0,0,151.6,380.31Z" class="cls-9 path117" style=""></path>
  <path d="M151.88,398.05a42.14,42.14,0,0,1-3.92,1.57,19.91,19.91,0,0,1-24.38-9.88c-2.26-4.56-1.78-9.06.84-13.42q1.81-3,3.54-6.08c2.91-5.18,5.6-10.47,8-15.91h-34.7v41.23A53.55,53.55,0,0,0,121.15,405h23.18a52.06,52.06,0,0,0,7.55-2.4Z" class="cls-4 path47" style=""></path>
  <path d="M80.09,360.75c1.29,2.16,3.09,4.06,3.28,6.75l.69.59h0l-.41.29-.28-.88h0a19.58,19.58,0,0,1-2.8-2.73,27.1,27.1,0,0,1-2.24-3.1c-.45-.72-.88-1.46-1.29-2.2-.92-1.69-1.76-3.42-2.64-5.14H69.11C73,360.66,77,366.9,80.82,373.21a89.32,89.32,0,0,0,15.41,18.15,59.65,59.65,0,0,0,5,4.2V354.33H76.37C77.57,356.48,78.82,358.62,80.09,360.75Z" class="cls-4 path39" style=""></path>
  <path d="M77,359.47c.41.74.84,1.48,1.29,2.2a27.1,27.1,0,0,0,2.24,3.1,19.58,19.58,0,0,0,2.8,2.73h0c-.19-2.69-2-4.59-3.28-6.75s-2.52-4.27-3.72-6.42h-2C75.28,356.05,76.12,357.78,77,359.47Z" class="cls-8 path90" style=""></path>
  <path d="M144.33,405H121.15A50.29,50.29,0,0,0,144.33,405Z" class="cls-4 path43" style=""></path>
  <path d="M466,455.57A27.34,27.34,0,0,0,458,440a29.54,29.54,0,0,0-2.37-2.14v17.67Z" class="cls-11 path147" style=""></path>
  <path d="M417.56,440a27.46,27.46,0,0,0-8,15.53h11.7a17.2,17.2,0,0,1,33.05,0h1.3V437.9a28.59,28.59,0,0,0-38,2.14Z" class="cls-11 path150" style=""></path>
  <path d="M360,443.1v12.47h11.43V443.1h17.15a5.72,5.72,0,0,0,0-11.43H354.36V443.1Z" class="cls-11 path144" style=""></path>
  <path d="M338.79,433.35a5.72,5.72,0,0,0,4,9.75h11.53V431.67H342.82A5.52,5.52,0,0,0,338.79,433.35Z" class="cls-11 path142" style=""></path>
  <path d="M307,446.87a12.36,12.36,0,0,1,3.75,8.7h11.43a24.33,24.33,0,0,0-18.41-23.21v12.12A13,13,0,0,1,307,446.87Z" class="cls-11 path139" style=""></path>
  <path d="M289.31,431.67A24.26,24.26,0,0,0,265,455.57h11.43a12.85,12.85,0,0,1,12.84-12.47h8.57a12.55,12.55,0,0,1,5.85,1.38V432.36a25.42,25.42,0,0,0-5.86-.69Z" class="cls-11 path138" style=""></path>
  <path d="M248.4,433.35a5.72,5.72,0,0,0-9.75,4v18.19h11.43V437.38A5.52,5.52,0,0,0,248.4,433.35Z" class="cls-11 path131" style=""></path>
  <path d="M202.68,433.35l-.18-.15v22.37h1.88V437.38A5.53,5.53,0,0,0,202.68,433.35Z" class="cls-11 path132" style=""></path>
  <path d="M198.65,431.67a5.74,5.74,0,0,0-5.71,5.71v18.19h9.55V433.2A5.49,5.49,0,0,0,198.65,431.67Z" class="cls-11 path127" style=""></path>
  <path d="M176.31,433.35a5.51,5.51,0,0,0-4-1.68,4.54,4.54,0,0,0-3.71,1.66,20.34,20.34,0,0,0-2.57,5.2l-5.19,17H178V437.38A5.49,5.49,0,0,0,176.31,433.35Z" class="cls-11 path121" style=""></path>
  <path d="M130.62,433.33a5.61,5.61,0,0,0-4.05-1.66,5.43,5.43,0,0,0-4,1.66,5.51,5.51,0,0,0-1.72,4.05v18.19h17.2l-5.2-17A10.36,10.36,0,0,0,130.62,433.33Z" class="cls-11 path125" style=""></path>
  <path d="M455.59,462.9a5.85,5.85,0,0,0,1,1.37,5.72,5.72,0,0,0,9.75-4,31,31,0,0,0-.36-4.67H455.59Z" class="cls-11 path149" style=""></path>
  <path d="M454.29,455.57a17.79,17.79,0,0,1,.62,4.67,5.45,5.45,0,0,0,.68,2.66v-7.33Z" class="cls-11 path148" style=""></path>
  <path d="M460.46,506.19a27.38,27.38,0,0,0,5.88-17.38,5.71,5.71,0,0,0-9.75-4,6.31,6.31,0,0,0-1,1.39v20Z" class="cls-11 path153" style=""></path>
  <path d="M449.88,500.93a17.15,17.15,0,0,1-29.26-12.12V460.24a17.79,17.79,0,0,1,.62-4.67h-11.7a31,31,0,0,0-.35,4.67v28.57a27.37,27.37,0,0,0,5.87,17.38h40.52v-20a5.48,5.48,0,0,0-.67,2.64A16.52,16.52,0,0,1,449.88,500.93Z" class="cls-11 path154" style=""></path>
  <path d="M371.39,506V455.57H360V506h-5.62v.23h35.75a5.58,5.58,0,0,0-1.55-.23Z" class="cls-11 path141" style=""></path>
  <path d="M310.74,456a5.72,5.72,0,0,0,11.43,0c0-.14,0-.26,0-.39H310.72C310.72,455.7,310.74,455.82,310.74,456Z" class="cls-11 path137" style=""></path>
  <path d="M289.31,468.81A12.87,12.87,0,0,1,276.45,456c0-.14,0-.26,0-.39H265c0,.13,0,.25,0,.39a24.29,24.29,0,0,0,24.29,24.28h8.57a12.58,12.58,0,0,1,5.85,1.38V469.5a25.26,25.26,0,0,0-5.85-.69Z" class="cls-11 path140" style=""></path>
  <path d="M315.05,475.93a23.42,23.42,0,0,0-11.32-6.43v12.12A13.29,13.29,0,0,1,307,484a12.84,12.84,0,0,1,0,18.18,13.34,13.34,0,0,1-3.25,2.39v1.61h14.65a24.34,24.34,0,0,0-3.32-30.26Z" class="cls-11 path134" style=""></path>
  <path d="M303.72,504.58a12.51,12.51,0,0,1-5.84,1.38h-8.57a12.87,12.87,0,0,1-12.86-12.86,5.72,5.72,0,0,0-11.43,0,23.33,23.33,0,0,0,3.8,13.09h34.9Z" class="cls-11 path135" style=""></path>
  <path d="M250.08,455.57H238.65v33.24a17.14,17.14,0,1,1-34.28,0V455.57h-1.88v50.62h41.72a27.37,27.37,0,0,0,5.87-17.38Z" class="cls-11 path128" style=""></path>
  <path d="M202.49,455.57h-9.55v33.24a27.37,27.37,0,0,0,5.87,17.38h3.68Z" class="cls-11 path126" style=""></path>
  <polygon points="160.81 455.57 151.87 484.9 151.87 506.19 157.17 506.19 166.57 475.5 166.57 506.19 178 506.19 178 455.57 160.81 455.57" class="cls-11 polygon0" style=""></polygon>
  <polygon points="151.87 484.9 149.43 492.93 138.04 455.57 120.85 455.57 120.85 506.19 132.28 506.19 132.28 475.5 141.68 506.19 151.87 506.19 151.87 484.9" class="cls-11 polygon1" style=""></polygon>
  <path d="M455.58,511.17a32.19,32.19,0,0,0,4.88-5h-4.88Z" class="cls-11 path151" style=""></path>
  <path d="M415.06,506.19a31.34,31.34,0,0,0,2.5,2.82,28.58,28.58,0,0,0,38,2.16v-5Z" class="cls-11 path152" style=""></path>
  <path d="M354.34,517.39h34.2a5.71,5.71,0,0,0,4-9.75,5.63,5.63,0,0,0-2.48-1.45H354.34Z" class="cls-11 path143" style=""></path>
  <path d="M341.27,506.19a5.71,5.71,0,0,0-4.16,5.48,5.75,5.75,0,0,0,5.71,5.72h11.52v-11.2Z" class="cls-11 path145" style=""></path>
  <path d="M303.72,516.7a23.45,23.45,0,0,0,11.33-6.43,25.25,25.25,0,0,0,3.32-4.08H303.72Z" class="cls-11 path133" style=""></path>
  <path d="M268.82,506.19a24.73,24.73,0,0,0,3.32,4.08,23.4,23.4,0,0,0,17.17,7.12h8.57a25.24,25.24,0,0,0,5.84-.69V506.19Z" class="cls-11 path136" style=""></path>
  <path d="M202.48,510.13A28.55,28.55,0,0,0,241.71,509a29.86,29.86,0,0,0,2.5-2.82H202.49Z" class="cls-11 path130" style=""></path>
  <path d="M198.81,506.19a29.86,29.86,0,0,0,2.5,2.82c.38.39.78.76,1.17,1.12v-3.94Z" class="cls-11 path129" style=""></path>
  <path d="M166.57,511.67a5.72,5.72,0,0,0,11.43,0v-5.48H166.57Z" class="cls-11 path120" style=""></path>
  <path d="M151.86,516.82a5.72,5.72,0,0,0,1.62-1.15,5.37,5.37,0,0,0,1.55-2.86h.11l2-6.62h-5.3Z" class="cls-11 path124" style=""></path>
  <path d="M141.68,506.19l2,6.62h.12a5.14,5.14,0,0,0,1.6,2.86,5.32,5.32,0,0,0,4,1.72,5.5,5.5,0,0,0,2.43-.57V506.19Z" class="cls-11 path122" style=""></path>
  <path d="M120.85,511.67a5.72,5.72,0,0,0,11.43,0v-5.48H120.85Z" class="cls-11 path123" style=""></path>
  </svg>