<svg xmlns="http://www.w3.org/2000/svg" viewBox="0 0 52.4 61.8"><defs><style>.cls-1{fill:#fff; animation: opacity-flicker 2s infinite alternate;} @keyframes opacity-flicker {from{opacity: 0} to{opacity: 1}}</style></defs><g id="Group_4" data-name="Group 4"><path id="Path_12" data-name="Path 12" class="cls-1" d="M8.3 134.4a1.7 1.7 0 0 1 .6.2 6.7 6.7 0 0 0 5.1-.2 6.3 6.3 0 0 0 3.1-3.5 8.6 8.6 0 0 0 .6-3 11.1 11.1 0 0 0-.5-3.5 19.8 19.8 0 0 0-1.1-2.7 11.3 11.3 0 0 0-1.4-2.2 12.6 12.6 0 0 0-1-1.1 9.1 9.1 0 0 0-2.2-1.7 6.4 6.4 0 0 0-3.7-.7 6.1 6.1 0 0 0-4.7 3.4 12.3 12.3 0 0 0-1.3 2.7l-.3 1.3v.2l-.2-.2a12.2 12.2 0 0 1-1-3.9 7.7 7.7 0 0 1 1-5.1A6.8 6.8 0 0 1 4 112a13.8 13.8 0 0 1 3.2-1.2l2-.4a13.3 13.3 0 0 0 3-1.3 18 18 0 0 0 1.5-.9 27.3 27.3 0 0 0 2.9-2.4 32.1 32.1 0 0 0 2.4-3 27 27 0 0 0 1.7-2.7 32.7 32.7 0 0 0 2.6-5.6 31.5 31.5 0 0 0 1.3-5 8.7 8.7 0 0 0 .2-2.9l.1-.2a.1.1 0 0 1 .2 0c.2.8.6 1.4.8 2a6 6 0 0 1 .2 3 34.9 34.9 0 0 1-1.5 5.7c-.6 1.8-1.2 3.6-2 5.3l-1.3 3.4a22.7 22.7 0 0 0-.9 3.3 26 26 0 0 0-.4 3.8 15.1 15.1 0 0 0 1 6.4 16.4 16.4 0 0 0 2.9 4.6 21.2 21.2 0 0 0 2.3 2.4l2.5 2c1 1 2.2 1.7 3.3 2.6l2 1.6 2.6 2.3a13.6 13.6 0 0 1 1.9 2.5 9.3 9.3 0 0 1 1.4 4 2.8 2.8 0 0 1 .1.6v.3a.3.3 0 0 1-.4-.1l-.6-.6a43.8 43.8 0 0 0-3.7-2.7 25.8 25.8 0 0 0-2.3-1.3 27.3 27.3 0 0 0-3.9-1.7 13.4 13.4 0 0 0-5-.4 14.4 14.4 0 0 0-4.2 1 15.5 15.5 0 0 1-4.3 1.2 7 7 0 0 1-3.9-.7 15.2 15.2 0 0 1-3.1-2.3.5.5 0 0 1-.2-.3z" transform="translate(-.2 -80.4)"/><path id="Path_13" data-name="Path 13" class="cls-1" d="M328.2 0a12.6 12.6 0 0 1 3 1.5 12.6 12.6 0 0 1 3.1 3 8 8 0 0 1 1.7 4 9.4 9.4 0 0 1-.5 3.9 13.6 13.6 0 0 1-1.6 3.4 23.3 23.3 0 0 1-2.2 2.6 22.7 22.7 0 0 1-2.9 2.5 22.4 22.4 0 0 1-3.8 2.5l-3.9 2a9.4 9.4 0 0 0-1.6 1.3 19 19 0 0 0-1.3 1.3 12.9 12.9 0 0 0-2.4 3.8 14.3 14.3 0 0 0-.8 6.4 19.2 19.2 0 0 0 1.2 5.4l.8 1.9c0 .1.2.3 0 .4s-.2 0-.4-.1a8.4 8.4 0 0 1-2.4-1.8 18.6 18.6 0 0 1-1.8-2.2 20.2 20.2 0 0 1-1.8-3.5 15.3 15.3 0 0 1-.8-2.6c-.4-1.1-.5-2.3-.7-3.5a5.2 5.2 0 0 1-.1-1.2v-1.4-1.8c0-.8.2-1.5.4-2.3 0-.4.2-1 .4-1.4a8.4 8.4 0 0 1 .8-1.9 9.5 9.5 0 0 1 2.2-2.8 13.4 13.4 0 0 1 1.4-1 11.4 11.4 0 0 1 2.7-1.2l2.6-.7A25 25 0 0 0 325 14a17.6 17.6 0 0 0 3.6-2.7 9 9 0 0 0 2.2-3.6 6.1 6.1 0 0 0-.4-4.6 9 9 0 0 0-2-2.8l-.2-.2V0z" transform="translate(-286.7)"/><path id="Path_14" data-name="Path 14" class="cls-1" d="M487.3 154a9.8 9.8 0 0 1 .8-3.3 6.2 6.2 0 0 1 2-2.2 17 17 0 0 1 3-1.6 8.3 8.3 0 0 0 2.6-1.8 16.8 16.8 0 0 0 3.3-4.8 26.7 26.7 0 0 0 1.7-4.7l.2-1c0-.2 0-.3.3-.2l.2.2c.7.5.7.5.5 1.2l-1 3.7-.6 2.9c-.6 2.5-1.3 4.9-1.8 7.4l-1.7 6.8-.5 2.6-1.2 4.8-.8 3.3c0 .2 0 .4.2.4a8.3 8.3 0 0 1 2.1.5 9.2 9.2 0 0 1 2.6 1.5 6.2 6.2 0 0 1 2.5 3.6 2.2 2.2 0 0 1-.5 1.7 3 3 0 0 1-2.3 1.2 4.8 4.8 0 0 1-2.4-.3 4.6 4.6 0 0 1-2-1.5 9.3 9.3 0 0 1-1.8-4.4c-.2-.8-.4-1.5-.4-2.4a11.2 11.2 0 0 1 .3-2.4 32.7 32.7 0 0 1 .8-4l1-2.8a24.7 24.7 0 0 0 .7-3v-.6c-.3 0-.3.2-.4.2a5.4 5.4 0 0 1-2.4.8 7.2 7.2 0 0 0-3.8 1.5 11.5 11.5 0 0 0-2.6 3.9 8 8 0 0 0-.5 1c0 .3-.1.3-.2.1a2.8 2.8 0 0 1-.7-1.7 5.2 5.2 0 0 1 .9-3.1 9.8 9.8 0 0 1 4.3-3.8 9.2 9.2 0 0 1 2.3-.7 5.8 5.8 0 0 0 2.3-1.1 6.2 6.2 0 0 0 2.2-3 1.7 1.7 0 0 0 0-.2c0-.3 0-.3-.3-.2l-.6.2c-1.2.6-2.4 1.2-3.7 1.6a11 11 0 0 0-2.6 1.5 8.5 8.5 0 0 0-1.5 1.4l-.5.7z" transform="translate(-449.6 -125)"/><path id="Path_15" data-name="Path 15" class="cls-1" d="M427 370.4c0 .3-.2.5-.4.6a8.7 8.7 0 0 0-1 1.6 11 11 0 0 0-1.5 3.4 12.4 12.4 0 0 0-.2 3.9 13.1 13.1 0 0 0 .7 3.2 14 14 0 0 0 1.6 2.9.6.6 0 0 0 .1.1l.3.2v-.3a7.1 7.1 0 0 1 2.2-6 8.6 8.6 0 0 1 3.2-2h.7a.5.5 0 0 1-.1.3 19.1 19.1 0 0 0-2.1 5.6 15 15 0 0 0-.4 3.1v2a18.3 18.3 0 0 0 .6 4.2 26.2 26.2 0 0 0 3 7v.2l-1.3-.8-3.9-2.7q-1.3-1-2.5-2.2a22.5 22.5 0 0 1-3.5-4 15 15 0 0 1-2-4.5 14 14 0 0 1-.3-4.3 12.7 12.7 0 0 1 1.5-5.1 17.6 17.6 0 0 1 2.8-4l1.3-1.4 1.1-1a.1.1 0 0 1 .2 0z" transform="translate(-389.9 -344.6)"/><path id="Path_16" data-name="Path 16" class="cls-1" d="M368.9 69.1a6.3 6.3 0 0 1 2.2.9 4.4 4.4 0 0 1 1.9 2.4 14 14 0 0 1 .3 1.7 8.5 8.5 0 0 1 0 1c0 .3 0 .3.2.1a5.9 5.9 0 0 1 1.9-.7 8.5 8.5 0 0 1 1.7-.2 30 30 0 0 0 3-.1 13.2 13.2 0 0 0 2.4-.6 4.8 4.8 0 0 0 1.2-.4v.2a11.8 11.8 0 0 1-2.4 2 15.7 15.7 0 0 1-3.7 1.5l-2.8.7a20.4 20.4 0 0 0-3.1.9 6.7 6.7 0 0 0-2.5 1.6.8.8 0 0 1-.4.3l.2-.8.7-2.6a13.6 13.6 0 0 0 .3-2.7c0-.2.2-.4.1-.6a8.6 8.6 0 0 0-1-4l-.2-.3v-.3z" transform="translate(-342.2 -64.3)"/><path id="Path_17" data-name="Path 17" class="cls-1" d="M90.4 275.2a3.9 3.9 0 0 1 4.2-3.8 4 4 0 0 1 3.7 4 4 4 0 0 1-4 3.7 3.9 3.9 0 0 1-4-3.9z" transform="translate(-83.9 -252.5)"/><path id="Path_18" data-name="Path 18" class="cls-1" d="M367.8 68.5v.3l-.2-.2v-.1h.2z" transform="translate(-341.1 -63.7)"/></g></svg>
