<svg xmlns="http://www.w3.org/2000/svg" viewBox="0 0 658.14 556.81">
    <defs>
        <style>
            .cls-1{fill:none;}.cls-2{fill:#9fcef4;}.cls-3{fill:#de7766;}.cls-4{fill:#fff8de;}.cls-5{fill:#a4b6ca;}.cls-6{fill:#f05e5f;}.cls-7{fill:#7791a8;}.cls-8{fill:#485e73;}.cls-9{fill:#f9565b;}.cls-10{fill:#668097;}.cls-11{fill:#e6dfc3;}.cls-12{fill:#b7d8f9;}
        </style>
    </defs>
    <title>
        PHOTOG BIG GRID
    </title>
           <path d="M562.7,151.86V132.07a47.21,47.21,0,0,0-5.81-22.72v42.51Z" class="cls-4 path117" style=""></path>
<path d="M506.27,101.24v5.57a16.77,16.77,0,0,1,8.21,14.42V133a16.78,16.78,0,0,1-8.22,14.42v4.42h50.62V109.35a48.39,48.39,0,0,0-5.61-8.11Z" class="cls-4 path107" style=""></path>
<path d="M506.27,94.29v6.95h45a47.53,47.53,0,0,0-36.19-16.78h-3.88v.34A11.56,11.56,0,0,1,506.27,94.29Z" class="cls-4 path115" style=""></path>
<path d="M506.27,94.29a11.56,11.56,0,0,0,4.94-9.49v-.34h-4.94Z" class="cls-4 path152" style=""></path>
<path d="M511.21,84.46v-7.8a11.58,11.58,0,0,0-4.93-9.48V84.46Z" class="cls-3 path87" style=""></path>
<path d="M456.4,65.06c-.25,0-.5,0-.74,0V84.46h50.62V67.18a11.56,11.56,0,0,0-6.67-2.12Z" class="cls-3 path86" style=""></path>
<rect width="5.82" height="12.27" x="556.88" y="151.86" class="cls-4 rect58" style=""></rect>
<rect width="50.62" height="12.27" x="506.26" y="151.86" class="cls-4 rect57" style=""></rect>
<path d="M514.48,133V121.23a16.77,16.77,0,0,0-8.21-14.42v40.63A16.78,16.78,0,0,0,514.48,133Z" class="cls-12 path256" style=""></path>
<path d="M455.65,106.22a16.71,16.71,0,0,1,7.53-1.79h34.49a16.75,16.75,0,0,1,8.6,2.38v-5.57H455.65Z" class="cls-4 path111" style=""></path>
<path d="M499.61,96.4H456.4c-.25,0-.5,0-.75,0v4.87h50.62V94.29A11.5,11.5,0,0,1,499.61,96.4Z" class="cls-4 path112" style=""></path>
<path d="M456.4,96.4h43.21a11.5,11.5,0,0,0,6.66-2.11V84.46H455.65V96.37C455.9,96.38,456.15,96.4,456.4,96.4Z" class="cls-4 path151" style=""></path>
<path d="M455.66,65.1A11.59,11.59,0,0,0,444.8,76.66v7.8h10.85Z" class="cls-3 path88" style=""></path>
<rect width="5.83" height="38.35" x="556.87" y="164.13" class="cls-6 rect88" style=""></rect>
<rect width="50.62" height="38.35" x="506.26" y="164.13" class="cls-6 rect83" style=""></rect>
<path d="M463.18,149.82a16.76,16.76,0,0,1-7.54-1.8v3.84h50.62v-4.42a16.68,16.68,0,0,1-8.59,2.38Z" class="cls-4 path103" style=""></path>
<rect width="50.62" height="12.27" x="455.64" y="151.86" class="cls-4 rect55" style=""></rect>
<path d="M463.18,104.43a16.71,16.71,0,0,0-7.53,1.79V148a16.76,16.76,0,0,0,7.54,1.8h34.49a16.68,16.68,0,0,0,8.59-2.38V106.81a16.75,16.75,0,0,0-8.6-2.38Zm-7,35.3h0Zm0-12.61h0Zm0-12.61h0Z" class="cls-12 path257" style=""></path>
<path d="M446.38,121.23V133a16.81,16.81,0,0,0,9.26,15v-41.8A16.81,16.81,0,0,0,446.38,121.23Z" class="cls-12 path258" style=""></path>
<path d="M455.65,96.37V84.46H444.8v.34A11.59,11.59,0,0,0,455.65,96.37Z" class="cls-4 path153" style=""></path>
<path d="M455.65,101.24V96.37A11.59,11.59,0,0,1,444.8,84.8v-.34H405v16.78Z" class="cls-4 path145" style=""></path>
<path d="M405,151.86h50.62V148a16.81,16.81,0,0,1-9.26-15V121.23a16.81,16.81,0,0,1,9.27-15v-5H405Z" class="cls-4 path146" style=""></path>
<polygon points="556.86 253.09 562.7 253.09 562.7 202.48 556.87 202.48 556.86 253.09" class="cls-6 polygon13" style=""></polygon>
<rect width="50.62" height="50.62" x="506.25" y="202.48" class="cls-6 rect87" style=""></rect>
<rect width="50.62" height="38.35" x="455.64" y="164.13" class="cls-6 rect79" style=""></rect>
<path d="M445,202.48h10.63V164.13h-33A147.15,147.15,0,0,1,445,202.48Z" class="cls-6 path174" style=""></path>
<path d="M405,202.48h40a147.15,147.15,0,0,0-22.39-38.35h33V151.86H405Z" class="cls-4 path147" style=""></path>
<rect width="50.62" height="50.62" x="354.41" y="101.24" class="cls-4 rect59" style=""></rect>
<rect width="50.62" height="16.77" x="354.41" y="84.46" class="cls-4 rect69" style=""></rect>
<rect width="50.62" height="50.62" x="506.24" y="253.1" class="cls-6 rect84" style=""></rect>
<path d="M455.62,251.8c0,.43.05.86.07,1.3h50.55V202.48H455.63Z" class="cls-6 path175" style=""></path>
<path d="M455.63,202.48H445a153.81,153.81,0,0,1,10.62,49.32Z" class="cls-6 path172" style=""></path>
<path d="M354.4,168.86a95.81,95.81,0,0,1,46.75,33.62H405V151.86H354.4Z" class="cls-4 path138" style=""></path>
<rect width="50.62" height="50.62" x="303.79" y="101.24" class="cls-4 rect65" style=""></rect>
<rect width="50.62" height="16.77" x="303.8" y="84.46" class="cls-4 rect63" style=""></rect>
<rect width="50.62" height="50.62" x="253.17" y="101.24" class="cls-4 rect62" style=""></rect>
<rect width="50.62" height="16.77" x="253.18" y="84.46" class="cls-4 rect68" style=""></rect>
<polygon points="202.56 101.24 253.18 101.24 253.18 84.46 244.28 84.46 202.56 84.46 202.56 101.24" class="cls-4 polygon12" style=""></polygon>
<polygon points="556.85 303.71 562.7 303.71 562.7 253.09 556.86 253.09 556.85 303.71" class="cls-6 polygon14" style=""></polygon>
<polygon points="556.85 354.33 562.7 354.33 562.7 303.71 556.85 303.71 556.85 354.33" class="cls-6 polygon15" style=""></polygon>
<rect width="50.62" height="50.62" x="506.23" y="303.71" class="cls-6 rect81" style=""></rect>
<path d="M455.82,259.59q0,4-.2,7.87v36.25h50.61V253.1H455.69Q455.82,256.33,455.82,259.59Z" class="cls-6 path177" style=""></path>
<path d="M419.94,253.1h35.68v-1.3A153.81,153.81,0,0,0,445,202.48H405V208A95.05,95.05,0,0,1,419.94,253.1Z" class="cls-4 path139" style=""></path>
<path d="M405,208v-5.56h-3.86C402.5,204.28,403.79,206.14,405,208Z" class="cls-4 path137" style=""></path>
<path d="M381.06,202.48h20.09a95.81,95.81,0,0,0-46.75-33.62V185A80.14,80.14,0,0,1,381.06,202.48Z" class="cls-5 path171" style=""></path>
<path d="M303.78,166.37v15.57a80.17,80.17,0,0,1,50.62,3v-16.1a96,96,0,0,0-50.62-2.49Z" class="cls-5 path168" style=""></path>
<path d="M324.55,164.1a95.31,95.31,0,0,1,29.85,4.76v-17H303.78v14.51A96.07,96.07,0,0,1,324.55,164.1Z" class="cls-4 path108" style=""></path>
<path d="M303.78,166.37V151.86H253.17v44.25A95.55,95.55,0,0,1,303.78,166.37Z" class="cls-4 path109" style=""></path>
<rect width="50.62" height="50.62" x="202.55" y="101.24" class="cls-4 rect61" style=""></rect>
<rect width="50.62" height="50.62" x="151.93" y="101.24" class="cls-4 rect60" style=""></rect>
<rect width="50.62" height="16.77" x="151.94" y="84.46" class="cls-4 rect56" style=""></rect>
<rect width="41.72" height="25.37" x="202.56" y="59.09" class="cls-11 rect98" style=""></rect>
<rect width="50.62" height="25.37" x="151.94" y="59.09" class="cls-11 rect97" style=""></rect>
<polygon points="151.94 59.09 137.91 59.09 137.91 84.46 140.18 84.46 151.94 84.46 151.94 59.09" class="cls-11 polygon19" style=""></polygon>
<path d="M553.18,455.57a9.09,9.09,0,0,0-1.33,2l-9.72,15.75-9.71-15.75a9.13,9.13,0,0,0-1.34-2h-5.65a3.31,3.31,0,0,0-.64,2,6.61,6.61,0,0,0,1.38,3.47l11.76,19.08.73,1.18v21.37a3.47,3.47,0,0,0,6.94,0V481.29l.73-1.18,10.5-17v-7.51Z" class="cls-2 path84" style=""></path>
<path d="M556.83,463.08l1.26-2.05a6.55,6.55,0,0,0,1.39-3.47,3.31,3.31,0,0,0-.64-2h-2Z" class="cls-2 path81" style=""></path>
<path d="M553.56,455.12a5.63,5.63,0,0,0-.38.45h3.65V454.2a3.12,3.12,0,0,0-.82-.11A3.33,3.33,0,0,0,553.56,455.12Z" class="cls-2 path82" style=""></path>
<path d="M558.84,455.57a4.11,4.11,0,0,0-.38-.45,3.35,3.35,0,0,0-1.63-.92v1.37Z" class="cls-2 path83" style=""></path>
<path d="M530.7,455.12a3.42,3.42,0,0,0-4.89,0,3.23,3.23,0,0,0-.38.45h5.65A5.63,5.63,0,0,0,530.7,455.12Z" class="cls-2 path85" style=""></path>
<path d="M506.23,358V405h38.63a48.23,48.23,0,0,0,12-14.27V358Z" class="cls-4 path105" style=""></path>
<path d="M556.84,390.68a47.23,47.23,0,0,0,5.86-22.81V358h-5.86Z" class="cls-4 path119" style=""></path>
<rect width="50.62" height="3.66" x="506.23" y="354.33" class="cls-6 rect82" style=""></rect>
<rect width="5.86" height="3.66" x="556.84" y="354.33" class="cls-6 rect85" style=""></rect>
<rect width="50.62" height="3.66" x="455.61" y="354.33" class="cls-6 rect80" style=""></rect>
<rect width="50.62" height="50.62" x="455.61" y="303.71" class="cls-6 rect86" style=""></rect>
<path d="M455.62,303.71V267.46a154.42,154.42,0,0,1-6.13,36.25Z" class="cls-6 path173" style=""></path>
<path d="M419.94,253.1q.22,3.27.23,6.62a95.16,95.16,0,0,1-10.7,44h40a154.42,154.42,0,0,0,6.13-36.25V253.1Z" class="cls-4 path136" style=""></path>
<path d="M405,303.71h4.47a95.16,95.16,0,0,0,10.7-44q0-3.35-.23-6.62H405Z" class="cls-5 path165" style=""></path>
<path d="M419.94,253.1A95.05,95.05,0,0,0,405,208V253.1Z" class="cls-5 path161" style=""></path>
<path d="M404.55,253.1H405V208c-1.22-1.9-2.51-3.76-3.86-5.56H381.06A80,80,0,0,1,404.55,253.1Z" class="cls-5 path169" style=""></path>
<path d="M354.4,202.48v7.15a58.32,58.32,0,0,1,28.09,43.47h22a80,80,0,0,0-23.83-50.62Z" class="cls-7 path202" style=""></path>
<path d="M354.4,185.33v17.15h26.29A80.33,80.33,0,0,0,354.4,185.33Z" class="cls-7 path196" style=""></path>
<path d="M324.55,179.58a80.36,80.36,0,0,0-20.77,2.73v20.17h9.69a57.9,57.9,0,0,1,22.16,0H354.4V185.33A80,80,0,0,0,324.55,179.58Z" class="cls-7 path200" style=""></path>
<path d="M303.78,182.31a80.06,80.06,0,0,0-35.37,20.17h35.37Z" class="cls-7 path208" style=""></path>
<path d="M268,202.48a80.12,80.12,0,0,1,35.74-20.54V166.37a95.55,95.55,0,0,0-50.62,29.74v6.37Z" class="cls-5 path163" style=""></path>
<path d="M202.54,201.29v1.19h45.4q2.48-3.3,5.22-6.37V151.86H202.55V165h20A150,150,0,0,0,202.54,201.29Z" class="cls-4 path104" style=""></path>
<rect width="50.62" height="13.09" x="151.93" y="151.86" class="cls-4 rect74" style=""></rect>
<path d="M151.93,151.86V101.24H104q-1.43,1.67-2.68,3.45v47.17Zm-14-33.07a12.5,12.5,0,1,1-12.5,12.5A12.5,12.5,0,0,1,137.91,118.79Z" class="cls-4 path141" style=""></path>
<path d="M151.94,84.46H140.18A47.53,47.53,0,0,0,104,101.24h47.94Z" class="cls-4 path144" style=""></path>
<path d="M508.78,476.64H506.2v6.94h2.58v19.08a3.47,3.47,0,0,0,6.94,0v-45.1a3.31,3.31,0,0,0-.64-2h-5.66a3.31,3.31,0,0,0-.64,2Z" class="cls-2 path78" style=""></path>
<path d="M488,476.64V457.56a3.31,3.31,0,0,0-.64-2h-5.65a3.32,3.32,0,0,0-.65,2v45.1a3.47,3.47,0,0,0,6.94,0V483.58H506.2v-6.94Z" class="cls-2 path80" style=""></path>
<path d="M514.7,455.12a3.43,3.43,0,0,0-4.9,0,3.23,3.23,0,0,0-.38.45h5.66A4.11,4.11,0,0,0,514.7,455.12Z" class="cls-2 path77" style=""></path>
<path d="M486.94,455.12a3.42,3.42,0,0,0-4.89,0,2.67,2.67,0,0,0-.38.45h5.65A3.23,3.23,0,0,0,486.94,455.12Z" class="cls-2 path79" style=""></path>
<path d="M515.09,415.48A47.36,47.36,0,0,0,544.85,405H506.22v10.53Z" class="cls-4 path101" style=""></path>
<rect width="50.62" height="46.95" x="455.6" y="358" class="cls-4 rect75" style=""></rect>
<path d="M449.49,303.71a147.88,147.88,0,0,1-26.3,50.62h32.42V303.71Z" class="cls-6 path178" style=""></path>
<path d="M420.17,358h35.44v-3.67H423.19C422.2,355.57,421.2,356.8,420.17,358Z" class="cls-6 path176" style=""></path>
<path d="M405,311.43v42.9h18.2a147.88,147.88,0,0,0,26.3-50.62h-40Q407.4,307.69,405,311.43Zm16.88,38.32h0Z" class="cls-4 path135" style=""></path>
<path d="M405,311.43q2.4-3.74,4.47-7.72H405Z" class="cls-5 path167" style=""></path>
<path d="M404.82,259.72c0,.61,0,1.22,0,1.83v.13l0,.53a79.82,79.82,0,0,1-13.06,41.5H405V253.1h-.46c.12,1.5.21,3,.24,4.55C404.82,258.34,404.82,259,404.82,259.72Z" class="cls-5 path166" style=""></path>
<path d="M382.86,259.72c0,1,0,2-.08,3a58.1,58.1,0,0,1-19.84,41h28.59a79.7,79.7,0,0,0,13.25-41.94c0-.06,0-.11,0-.17,0-.58,0-1.17,0-1.75s0-1.38,0-2.08c0-1.57-.14-3.13-.27-4.67h-22A60.2,60.2,0,0,1,382.86,259.72Z" class="cls-7 path207" style=""></path>
<path d="M382.46,253.1H354.39v50.61h8.42a58.12,58.12,0,0,0,20-41c.05-1,.08-1.92.08-2.88A60,60,0,0,0,382.46,253.1Z" class="cls-8 path242" style=""></path>
<path d="M382.46,253.1a58.3,58.3,0,0,0-28.07-43.34V253.1Z" class="cls-8 path235" style=""></path>
<path d="M354.39,209.63v-7.15H335.63A57.71,57.71,0,0,1,354.39,209.63Z" class="cls-7 path198" style=""></path>
<path d="M303.78,205.36v35.18A28.28,28.28,0,0,1,352,253.1h2.35V209.76a58,58,0,0,0-19.47-7.28H314.17A57.4,57.4,0,0,0,303.78,205.36Z" class="cls-8 path240" style=""></path>
<path d="M314.17,202.48h20.75a57.73,57.73,0,0,0-20.75,0Z" class="cls-8 path239" style=""></path>
<path d="M313.47,202.48h-9.69v2.75A58.19,58.19,0,0,1,313.47,202.48Z" class="cls-7 path199" style=""></path>
<path d="M266.63,253.1h30.42a28.25,28.25,0,0,1,6.72-12.56V205.36A58.35,58.35,0,0,0,266.63,253.1Z" class="cls-8 path241" style=""></path>
<path d="M303.78,205.23v-2.75H268.41a80.6,80.6,0,0,0-15.26,20.67V253.1h13.47A58.37,58.37,0,0,1,303.78,205.23Z" class="cls-7 path195" style=""></path>
<path d="M253.16,202.48v20.31A81,81,0,0,1,268,202.48Z" class="cls-5 path158" style=""></path>
<path d="M253.16,196.11q-2.74,3.07-5.22,6.37h5.22Z" class="cls-5 path164" style=""></path>
<path d="M244.55,253.1a79.69,79.69,0,0,1,8.6-30.31V202.48h-5.22a95.2,95.2,0,0,0-18.79,50.62Z" class="cls-5 path162" style=""></path>
<path d="M229.15,253.1a95.2,95.2,0,0,1,18.79-50.62h-45.4V253.1Z" class="cls-4 path94" style=""></path>
<path d="M222.55,165h-20v36.34A150,150,0,0,1,222.55,165Z" class="cls-6 path185" style=""></path>
<path d="M202.54,201.29V165H151.93v37.53h50.16C202.23,202.08,202.39,201.69,202.54,201.29Z" class="cls-6 path181" style=""></path>
<rect width="50.62" height="13.09" x="101.31" y="151.86" class="cls-4 rect66" style=""></rect>
<path d="M101.32,104.69a47.19,47.19,0,0,0-8.74,27.38v19.79h8.73Z" class="cls-4 path142" style=""></path>
<polygon points="92.58 164.95 101.31 164.95 101.31 151.86 92.58 151.86 92.58 202.48 92.58 202.48 92.58 164.95" class="cls-4 polygon11" style=""></polygon>
<path d="M455.59,461h1.62a7.81,7.81,0,0,1,0,15.61h-1.62v6.94h1.63a14.74,14.74,0,0,0,10.42-25.17,14.88,14.88,0,0,0-3.92-2.84h-8.12Z" class="cls-2 path76" style=""></path>
<path d="M444.2,476.64V461h11.39v-5.46H437.9a3.31,3.31,0,0,0-.64,2v45.1a3.47,3.47,0,0,0,6.94,0V483.58h11.38v-6.94Z" class="cls-2 path73" style=""></path>
<path d="M438.28,455.12a4.11,4.11,0,0,0-.38.45h17.69v-1.48H440.73A3.32,3.32,0,0,0,438.28,455.12Z" class="cls-2 path75" style=""></path>
<path d="M463.71,455.57a14.51,14.51,0,0,0-6.5-1.48h-1.62v1.48Z" class="cls-2 path74" style=""></path>
<rect width="50.62" height="10.52" x="455.6" y="404.95" class="cls-4 rect76" style=""></rect>
<path d="M423.19,354.33H405V405H455.6V358H420.17C421.2,356.8,422.2,355.57,423.19,354.33Z" class="cls-4 path143" style=""></path>
<path d="M354.37,350.6v3.73H405v-42.9A95.89,95.89,0,0,1,354.37,350.6Z" class="cls-4 path150" style=""></path>
<path d="M391.7,303.71a80.51,80.51,0,0,1-37.33,30.57V350.6A95.89,95.89,0,0,0,405,311.43v-7.72Z" class="cls-5 path160" style=""></path>
<path d="M354.37,334a80.39,80.39,0,0,0,37.16-30.32H362.94a57.16,57.16,0,0,1-8.56,6.24Z" class="cls-7 path197" style=""></path>
<path d="M362.8,303.71h-8.42v6.12A58.39,58.39,0,0,0,362.8,303.71Z" class="cls-8 path244" style=""></path>
<path d="M303.76,314.21a58.31,58.31,0,0,0,50.62-4.38v-6.12H303.76Z" class="cls-8 path237" style=""></path>
<path d="M352.83,259.72a28.28,28.28,0,0,1-49.07,19.18v24.81h50.62V253.1H352A27.78,27.78,0,0,1,352.83,259.72Z" class="cls-8 path236" style=""></path>
<path d="M303.76,278.9a28.28,28.28,0,0,0,49.07-19.18,27.78,27.78,0,0,0-.79-6.62H303.77Z" class="cls-10 path254" style=""></path>
<path d="M352,253.1a28.28,28.28,0,0,0-48.27-12.56V253.1Z" class="cls-10 path252" style=""></path>
<path d="M297.05,253.1a28.24,28.24,0,0,0,6.71,25.8V253.1Z" class="cls-10 path255" style=""></path>
<path d="M303.77,253.1V240.54a28.25,28.25,0,0,0-6.72,12.56Z" class="cls-10 path253" style=""></path>
<path d="M286.29,303.71h17.47V278.9a28.24,28.24,0,0,1-6.71-25.8H266.63c-.14,1.23-.26,2.48-.32,3.74-.05,1-.08,1.91-.08,2.88A58.18,58.18,0,0,0,286.29,303.71Z" class="cls-8 path238" style=""></path>
<path d="M286.14,303.71a58.14,58.14,0,0,1-19.91-43.86c0-1,0-2,.08-3,.06-1.26.17-2.51.31-3.74H253.15v43.07a78.75,78.75,0,0,0,4.43,7.54Z" class="cls-7 path206" style=""></path>
<path d="M244.31,261.55c0,.26,0,.52,0,.79a79.76,79.76,0,0,0,8.79,33.83V253.1h-8.58c-.12,1.53-.22,3.07-.26,4.62,0,.67,0,1.33,0,2S244.29,260.94,244.31,261.55Z" class="cls-7 path203" style=""></path>
<path d="M244.57,253.1h8.58V223.15A79.92,79.92,0,0,0,244.57,253.1Z" class="cls-7 path204" style=""></path>
<path d="M202.54,202.48h-.46A163.87,163.87,0,0,0,191.9,253.1h10.63Z" class="cls-4 path89" style=""></path>
<path d="M191.9,253.1a163.87,163.87,0,0,1,10.18-50.62H151.92V253.1Z" class="cls-6 path180" style=""></path>
<rect width="50.62" height="50.62" x="101.3" y="202.48" class="cls-6 rect91" style=""></rect>
<rect width="50.62" height="37.53" x="101.3" y="164.95" class="cls-6 rect92" style=""></rect>
<polygon points="101.3 202.48 92.58 202.48 92.58 253.09 101.29 253.09 101.3 202.48" class="cls-6 polygon16" style=""></polygon>
<rect width="8.72" height="37.53" x="92.58" y="164.95" class="cls-6 rect93" style=""></rect>
<path d="M407.37,456.87l-2.4,7.85v23.55l5.88-19.33,6,19.85H405v6.93h14l1.91,6.25a9.62,9.62,0,0,0,1.54,3.14,2.8,2.8,0,0,0,2.27,1,3.48,3.48,0,0,0,3.47-3.47,7.26,7.26,0,0,0-.69-2.78l-13.19-43h-.07a3.07,3.07,0,0,0-.56-1.3H408a3,3,0,0,0-.59,1.3Z" class="cls-2 path72" style=""></path>
<path d="M404.81,488.79l.15-.52V464.72l-10.78,35.16a7.26,7.26,0,0,0-.69,2.78,3.48,3.48,0,0,0,3.47,3.47,2.8,2.8,0,0,0,2.27-1,9.82,9.82,0,0,0,1.54-3.14l1.91-6.25H405v-6.93Z" class="cls-2 path71" style=""></path>
<path d="M413.31,455.13a3.4,3.4,0,0,0-2.47-1,3.25,3.25,0,0,0-2.42,1,3.16,3.16,0,0,0-.39.44h5.65A3.75,3.75,0,0,0,413.31,455.13Z" class="cls-2 path70" style=""></path>
<rect width="50.62" height="50.62" x="354.36" y="354.33" class="cls-4 rect77" style=""></rect>
<path d="M324.55,340a80.16,80.16,0,0,1-20.8-2.74v15.79c2.25.5,4.54.93,6.85,1.26h27.9a94,94,0,0,0,15.87-3.73V334.28A80.08,80.08,0,0,1,324.55,340Z" class="cls-5 path170" style=""></path>
<path d="M303.76,314.33V337a80.25,80.25,0,0,0,50.62-3V310a58.31,58.31,0,0,1-50.62,4.38Z" class="cls-7 path205" style=""></path>
<path d="M303.76,314.21v-10.5H286.29A58.37,58.37,0,0,0,303.76,314.21Z" class="cls-8 path243" style=""></path>
<path d="M354.34,505.93a3.44,3.44,0,0,0,1.31-.82,3.36,3.36,0,0,0,1-2.45V483.58H365l11.8,19.08a8.94,8.94,0,0,0,1.71,2.45,3.47,3.47,0,0,0,5.92-2.45,6.58,6.58,0,0,0-1.39-3.47l-9.89-16a14.77,14.77,0,0,0,7-24.79,14.93,14.93,0,0,0-3.93-2.84H354.35Zm2.34-44.9h13a7.81,7.81,0,0,1,0,15.61h-13Z" class="cls-2 path68" style=""></path>
<path d="M350.38,455.57a3.31,3.31,0,0,0-.64,2v45.1a3.48,3.48,0,0,0,3.46,3.47,3.5,3.5,0,0,0,1.14-.2V455.57Z" class="cls-2 path66" style=""></path>
<path d="M354.35,454.09v1.48h21.83a14.48,14.48,0,0,0-6.5-1.48Z" class="cls-2 path69" style=""></path>
<path d="M354.35,454.09H353.2a3.31,3.31,0,0,0-2.44,1,2.67,2.67,0,0,0-.38.45h4Z" class="cls-2 path67" style=""></path>
<rect width="50.62" height="10.52" x="404.98" y="404.95" class="cls-4 rect70" style=""></rect>
<rect width="50.62" height="10.52" x="354.36" y="404.95" class="cls-4 rect78" style=""></rect>
<path d="M354.37,354.33V350.6a94,94,0,0,1-15.87,3.73Z" class="cls-4 path106" style=""></path>
<path d="M324.55,355.35a95.84,95.84,0,0,1-13.95-1h-6.85V405h50.62V354.33H338.5A95.73,95.73,0,0,1,324.55,355.35Z" class="cls-4 path110" style=""></path>
<path d="M257.41,303.71h-4.27v19.6a95.52,95.52,0,0,0,50.61,29.76V337.28A80.28,80.28,0,0,1,257.41,303.71Z" class="cls-5 path154" style=""></path>
<path d="M286.14,303.71H257.57A80.42,80.42,0,0,0,303.75,337V314.33A58.06,58.06,0,0,1,286.14,303.71Z" class="cls-7 path201" style=""></path>
<path d="M253.14,296.41A79.78,79.78,0,0,1,244.42,264c0-.78-.09-1.56-.11-2.34,0-.62,0-1.22,0-1.83s0-1.38,0-2.08v-.1h0v0c0-1.53.12-3,.24-4.55h-15.4c-.14,2.18-.23,4.39-.23,6.62a95.17,95.17,0,0,0,10.71,44h13.51Z" class="cls-5 path156" style=""></path>
<path d="M311.06,459.18A16.69,16.69,0,0,0,306,471.44v17.35a17.39,17.39,0,0,0,27.76,13.91,3.23,3.23,0,0,0,1,2.39,3.27,3.27,0,0,0,2.43,1,3.5,3.5,0,0,0,3.47-3.47V483.58a3.52,3.52,0,0,0-3.47-3.47H321.59a3.52,3.52,0,0,0-3.48,3.47,3.5,3.5,0,0,0,3.48,3.47h12.14v1.74a10.41,10.41,0,0,1-20.82,0V471.44a10.41,10.41,0,0,1,20.82,0,3.47,3.47,0,0,0,6.94,0,16.69,16.69,0,0,0-5.09-12.26,17,17,0,0,0-5.17-3.61H316.23A17,17,0,0,0,311.06,459.18Z" class="cls-2 path65" style=""></path>
<path d="M316.23,455.57h14.18a17.72,17.72,0,0,0-14.18,0Z" class="cls-2 path64" style=""></path>
<rect width="50.62" height="50.62" x="253.13" y="354.33" class="cls-4 rect52" style=""></rect>
<path d="M303.75,353.07a95.52,95.52,0,0,1-50.61-29.76v31h50.62Z" class="cls-4 path92" style=""></path>
<path d="M253.14,303.71h4.27a76.9,76.9,0,0,1-4.27-7.3Z" class="cls-5 path155" style=""></path>
<path d="M239.63,303.71a95.43,95.43,0,0,0,13.51,19.6v-19.6Z" class="cls-5 path157" style=""></path>
<path d="M229.15,253.1H202.53v50.61h37.11a95.17,95.17,0,0,1-10.71-44C228.92,257.49,229,255.28,229.15,253.1Z" class="cls-4 path95" style=""></path>
<path d="M202.53,253.1H191.9c-.1,2.42-.16,4.85-.16,7.31a166.51,166.51,0,0,0,5.66,43.3h5.12Z" class="cls-4 path90" style=""></path>
<path d="M191.9,253.1h-40v50.61h45.5a166.51,166.51,0,0,1-5.66-43.3C191.74,258,191.8,255.52,191.9,253.1Z" class="cls-6 path183" style=""></path>
<path d="M267.29,459.18a16.72,16.72,0,0,0-5.08,12.26v17.35a17.35,17.35,0,0,0,34.69,0V471.44a16.68,16.68,0,0,0-5.08-12.26,17.16,17.16,0,0,0-5.17-3.61H272.46A17.16,17.16,0,0,0,267.29,459.18ZM290,471.44v17.35a10.41,10.41,0,0,1-20.81,0V471.44a10.41,10.41,0,1,1,20.81,0Z" class="cls-2 path63" style=""></path>
<path d="M272.46,455.57h14.19a17.75,17.75,0,0,0-14.19,0Z" class="cls-2 path62" style=""></path>
<path d="M239.63,303.71H202.52v15.77a150,150,0,0,0,18.89,34.85h31.72v-31A95.43,95.43,0,0,1,239.63,303.71Z" class="cls-4 path91" style=""></path>
<path d="M197.4,303.71a158.72,158.72,0,0,0,5.12,15.77V303.71Z" class="cls-4 path93" style=""></path>
<path d="M227.73,455.57a3.31,3.31,0,0,0-.64,2,3.48,3.48,0,0,0,3.47,3.47H241v41.63a3.47,3.47,0,0,0,6.94,0V461h5.21v-5.46Z" class="cls-2 path60" style=""></path>
<path d="M253.11,461h5.2a3.48,3.48,0,0,0,3.47-3.47,3.31,3.31,0,0,0-.64-2h-8Z" class="cls-2 path61" style=""></path>
<path d="M253.11,454.09H230.56a3.32,3.32,0,0,0-2.45,1,2.67,2.67,0,0,0-.38.45h25.38Z" class="cls-2 path58" style=""></path>
<path d="M258.31,454.09h-5.2v1.48h8a4.11,4.11,0,0,0-.38-.45A3.33,3.33,0,0,0,258.31,454.09Z" class="cls-2 path59" style=""></path>
<rect width="50.62" height="10.52" x="303.74" y="404.95" class="cls-4 rect53" style=""></rect>
<rect width="50.62" height="10.52" x="253.12" y="404.95" class="cls-4 rect51" style=""></rect>
<path d="M253.13,354.33H221.41c1.11,1.52,2.24,3,3.41,4.48H202.51V405h50.62Z" class="cls-4 path102" style=""></path>
<path d="M221.41,354.33h-18.9v4.48h22.31C223.65,357.35,222.52,355.85,221.41,354.33Z" class="cls-6 path182" style=""></path>
<path d="M202.52,319.48v34.85h18.9A150,150,0,0,1,202.52,319.48Z" class="cls-6 path179" style=""></path>
<path d="M197.4,303.71H151.9v50.62h50.62V319.48A158.72,158.72,0,0,1,197.4,303.71Z" class="cls-6 path184" style=""></path>
<rect width="50.62" height="50.62" x="101.29" y="253.1" class="cls-6 rect90" style=""></rect>
<polygon points="101.29 253.09 92.58 253.09 92.58 303.71 101.28 303.71 101.29 253.09" class="cls-6 polygon17" style=""></polygon>
<path d="M202.49,461.18a10.44,10.44,0,0,1,8.59,10.26v17.35A10.44,10.44,0,0,1,202.49,499v7A17.35,17.35,0,0,0,218,488.79V471.44a16.72,16.72,0,0,0-5.08-12.26,17.29,17.29,0,0,0-5.17-3.61h-5.28Z" class="cls-2 path55" style=""></path>
<path d="M200.67,499.19a10.43,10.43,0,0,1-10.41-10.4V471.44A10.43,10.43,0,0,1,200.67,461a12,12,0,0,1,1.82.15v-5.61h-8.91a17.16,17.16,0,0,0-5.17,3.61,16.69,16.69,0,0,0-5.09,12.26v17.35a17.36,17.36,0,0,0,17.35,17.34,18.18,18.18,0,0,0,1.82-.09v-7A12,12,0,0,1,200.67,499.19Z" class="cls-2 path54" style=""></path>
<path d="M202.49,454.18a18,18,0,0,0-1.82-.09,17.11,17.11,0,0,0-7.09,1.48h8.91Z" class="cls-2 path56" style=""></path>
<path d="M202.49,455.57h5.28a16.67,16.67,0,0,0-5.28-1.39Z" class="cls-2 path57" style=""></path>
<rect width="50.62" height="10.52" x="202.5" y="404.95" class="cls-4 rect54" style=""></rect>
<rect width="50.62" height="46.14" x="151.89" y="358.81" class="cls-4 rect67" style=""></rect>
<rect width="50.62" height="4.48" x="151.89" y="354.33" class="cls-6 rect95" style=""></rect>
<rect width="50.62" height="50.62" x="101.28" y="303.71" class="cls-6 rect89" style=""></rect>
<polygon points="101.28 303.71 92.58 303.71 92.58 354.33 101.27 354.33 101.28 303.71" class="cls-6 polygon18" style=""></polygon>
<path d="M167.31,502.66a3.47,3.47,0,0,0,6.94,0v-45.1a3.31,3.31,0,0,0-.64-2H168a3.25,3.25,0,0,0-.65,2v19.08H151.87v6.94h15.44Z" class="cls-2 path50" style=""></path>
<path d="M146.5,476.64V457.56a3.31,3.31,0,0,0-.64-2H140.2a3.31,3.31,0,0,0-.64,2v45.1a3.47,3.47,0,0,0,6.94,0V483.58h5.37v-6.94Z" class="cls-2 path51" style=""></path>
<path d="M145.48,455.12a3.43,3.43,0,0,0-4.9,0,4.11,4.11,0,0,0-.38.45h5.66A4.11,4.11,0,0,0,145.48,455.12Z" class="cls-2 path53" style=""></path>
<path d="M170.78,454.09a3.31,3.31,0,0,0-2.44,1,2.67,2.67,0,0,0-.38.45h5.65a2.67,2.67,0,0,0-.38-.45A3.32,3.32,0,0,0,170.78,454.09Z" class="cls-2 path52" style=""></path>
<rect width="50.62" height="10.52" x="151.88" y="404.95" class="cls-4 rect64" style=""></rect>
<path d="M110.43,405h41.45V358.81H101.27v36.37A48,48,0,0,0,110.43,405Z" class="cls-4 path148" style=""></path>
<rect width="50.62" height="4.48" x="101.27" y="354.33" class="cls-6 rect96" style=""></rect>
<path d="M92.58,358.81v-4.48h0v13.54a47.19,47.19,0,0,0,8.69,27.31V358.81Z" class="cls-4 path149" style=""></path>
<rect width="8.69" height="4.48" x="92.58" y="354.33" class="cls-6 rect94" style=""></rect>
<path d="M102.74,502.66V483.58h13a14.74,14.74,0,0,0,10.42-25.17,14.88,14.88,0,0,0-3.92-2.84h-21V505.5a3.39,3.39,0,0,0,.46-.39A3.32,3.32,0,0,0,102.74,502.66Zm0-41.63h13a7.81,7.81,0,0,1,0,15.61h-13Z" class="cls-2 path49" style=""></path>
<path d="M96.44,455.57a3.31,3.31,0,0,0-.64,2v45.1a3.46,3.46,0,0,0,5.45,2.84V455.57Z" class="cls-2 path48" style=""></path>
<path d="M101.26,454.09h-2a3.32,3.32,0,0,0-2.45,1,4.11,4.11,0,0,0-.38.45h4.82Z" class="cls-2 path47" style=""></path>
<path d="M122.25,455.57a14.51,14.51,0,0,0-6.5-1.48H101.26v1.48Z" class="cls-2 path46" style=""></path>
<path d="M110.43,405a47.36,47.36,0,0,0,29.75,10.53h11.7V405Z" class="cls-4 path118" style=""></path>
</svg>
