<svg xmlns="http://www.w3.org/2000/svg" xmlns:xlink="http://www.w3.org/1999/xlink" viewBox="0 0 1080 1920">
  <defs>
    <style>
      .cls-1 {
        fill: #fff;
      }

      .cls-1, .cls-4 {
        stroke: #707070;
      }

      .cls-2 {
        fill: none;
      }

      .cls-3 {
        clip-path: url(#clip-path);
      }

      .cls-5 {
        fill: url(#linear-gradient);
      }

      .cls-6 {
        fill: url(#radial-gradient);
      }

      .cls-7 {
        opacity: 0.64;
      }

      .cls-8 {
        clip-path: url(#clip-path-2);
      }

      .cls-9 {
        fill: url(#radial-gradient-2);
      }

      .cls-10 {
        stroke: none;
      }
    </style>
    <clipPath id="clip-path">
      <rect id="Rectangle_489" data-name="Rectangle 489" class="cls-1" width="1080" height="1920" transform="translate(12774 -2806)"/>
    </clipPath>
    <linearGradient id="linear-gradient" x1="0.513" y1="1" x2="0.513" y2="0.022" gradientUnits="objectBoundingBox">
      <stop offset="0" stop-color="#0c6077"/>
      <stop offset="0.244" stop-color="#1cb69b"/>
      <stop offset="0.639" stop-color="#0f6178"/>
      <stop offset="1" stop-color="#01041d" stop-opacity="0.851"/>
    </linearGradient>
    <radialGradient id="radial-gradient" cx="0.5" cy="0.5" r="0.5" gradientUnits="objectBoundingBox">
      <stop offset="0" stop-color="#e8b3c6" stop-opacity="0.349"/>
      <stop offset="1" stop-color="#bfad2e" stop-opacity="0"/>
    </radialGradient>
    <clipPath id="clip-path-2">
      <rect id="Rectangle_396" data-name="Rectangle 396" class="cls-2" width="7.038" height="7.038"/>
    </clipPath>
    <radialGradient id="radial-gradient-2" cx="3.948" cy="3.948" r="3.54" gradientUnits="userSpaceOnUse">
      <stop offset="0" stop-color="#fff"/>
      <stop offset="0.457" stop-color="#fff" stop-opacity="0.702"/>
      <stop offset="0.522" stop-color="#fff" stop-opacity="0.2"/>
      <stop offset="1" stop-color="#fff" stop-opacity="0"/>
    </radialGradient>
  </defs>
  <g id="Mask_Group_8" data-name="Mask Group 8" class="cls-3" transform="translate(-12774 2806)">
    <g id="Rectangle_490" data-name="Rectangle 490" class="cls-4" transform="translate(12774 -2806)">
      <rect class="cls-10" width="1080" height="1920"/>
      <rect class="cls-2" x="0.5" y="0.5" width="1079" height="1919"/>
    </g>
    <g id="Group_92" data-name="Group 92" transform="translate(-790 1335)">
      <rect id="Rectangle_491" data-name="Rectangle 491" class="cls-5" width="1080" height="1921" transform="translate(13564 -4141)"/>
      <circle id="Ellipse_12" data-name="Ellipse 12" class="cls-6" cx="719.5" cy="719.5" r="719.5" transform="translate(13385 -3525)"/>
    </g>
    <g id="stars_svg" data-name="stars svg" class="cls-7" transform="translate(12424.95 -2806.05)">
      <g id="Group_180" data-name="Group 180" transform="translate(0.025 0.025)">
        <g id="Group_92-2" data-name="Group 92" class="cls-8" transform="translate(511.68 189.129)">
          <circle id="Ellipse_12-2" data-name="Ellipse 12" class="cls-9" cx="3.519" cy="3.519" r="3.519" transform="translate(0 0)"/>
        </g>
        <g id="Group_93" data-name="Group 93" class="cls-8" transform="translate(628.431 127.23)">
          <circle id="Ellipse_13" data-name="Ellipse 13" class="cls-9" cx="3.519" cy="3.519" r="3.519" transform="translate(0 0)"/>
        </g>
        <g id="Group_94" data-name="Group 94" class="cls-8" transform="translate(771.039 77.386)">
          <circle id="Ellipse_14" data-name="Ellipse 14" class="cls-9" cx="3.519" cy="3.519" r="3.519" transform="translate(0 0)"/>
        </g>
        <g id="Group_95" data-name="Group 95" class="cls-8" transform="translate(1040.706 82.523)">
          <circle id="Ellipse_15" data-name="Ellipse 15" class="cls-9" cx="3.519" cy="3.519" r="3.519" transform="translate(0 0)"/>
        </g>
        <g id="Group_96" data-name="Group 96" class="cls-8" transform="translate(1207.185 118.496)">
          <circle id="Ellipse_16" data-name="Ellipse 16" class="cls-9" cx="3.519" cy="3.519" r="3.519" transform="translate(0 0)"/>
        </g>
        <g id="Group_97" data-name="Group 97" class="cls-8" transform="translate(1356.826 178.66)">
          <circle id="Ellipse_17" data-name="Ellipse 17" class="cls-9" cx="3.519" cy="3.519" r="3.519" transform="translate(0 0)"/>
        </g>
        <g id="Group_98" data-name="Group 98" class="cls-8" transform="translate(448.198 391.761)">
          <circle id="Ellipse_18" data-name="Ellipse 18" class="cls-9" cx="3.519" cy="3.519" r="3.519" transform="translate(0 0)"/>
        </g>
        <g id="Group_99" data-name="Group 99" class="cls-8" transform="translate(686.862 312.818)">
          <circle id="Ellipse_19" data-name="Ellipse 19" class="cls-9" cx="3.519" cy="3.519" r="3.519" transform="translate(0 0)"/>
        </g>
        <g id="Group_100" data-name="Group 100" class="cls-8" transform="translate(843.228 261.357)">
          <circle id="Ellipse_20" data-name="Ellipse 20" class="cls-9" cx="3.519" cy="3.519" r="3.519" transform="translate(0 0)"/>
        </g>
        <g id="Group_101" data-name="Group 101" class="cls-8" transform="translate(1061.274 194.292)">
          <circle id="Ellipse_21" data-name="Ellipse 21" class="cls-9" cx="3.519" cy="3.519" r="3.519" transform="translate(0 0)"/>
        </g>
        <g id="Group_102" data-name="Group 102" class="cls-8" transform="translate(1291.356 173.629)">
          <circle id="Ellipse_22" data-name="Ellipse 22" class="cls-9" cx="3.519" cy="3.519" r="3.519" transform="translate(0 0)"/>
        </g>
        <g id="Group_103" data-name="Group 103" class="cls-8" transform="translate(1347.911 185.808)">
          <circle id="Ellipse_23" data-name="Ellipse 23" class="cls-9" cx="3.519" cy="3.519" r="3.519" transform="translate(0 0)"/>
        </g>
        <g id="Group_104" data-name="Group 104" class="cls-8" transform="translate(1236.38 182.282)">
          <circle id="Ellipse_24" data-name="Ellipse 24" class="cls-9" cx="3.519" cy="3.519" r="3.519" transform="translate(0 0)"/>
        </g>
        <g id="Group_105" data-name="Group 105" class="cls-8" transform="translate(906.924 104.039)">
          <circle id="Ellipse_25" data-name="Ellipse 25" class="cls-9" cx="3.519" cy="3.519" r="3.519" transform="translate(0 0)"/>
        </g>
        <g id="Group_106" data-name="Group 106" class="cls-8" transform="translate(906.975 100.702)">
          <circle id="Ellipse_26" data-name="Ellipse 26" class="cls-9" cx="3.519" cy="3.519" r="3.519" transform="translate(0 0)"/>
        </g>
        <g id="Group_107" data-name="Group 107" class="cls-8" transform="translate(899.179 101.406)">
          <circle id="Ellipse_27" data-name="Ellipse 27" class="cls-9" cx="3.519" cy="3.519" r="3.519" transform="translate(0 0)"/>
        </g>
        <g id="Group_108" data-name="Group 108" class="cls-8" transform="translate(698.904 202.926)">
          <circle id="Ellipse_28" data-name="Ellipse 28" class="cls-9" cx="3.519" cy="3.519" r="3.519" transform="translate(0 0)"/>
        </g>
        <g id="Group_109" data-name="Group 109" class="cls-8" transform="translate(999.406 362.596)">
          <circle id="Ellipse_29" data-name="Ellipse 29" class="cls-9" cx="3.519" cy="3.519" r="3.519" transform="translate(0 0)"/>
        </g>
        <g id="Group_110" data-name="Group 110" class="cls-8" transform="translate(1243.297 511.972)">
          <circle id="Ellipse_30" data-name="Ellipse 30" class="cls-9" cx="3.519" cy="3.519" r="3.519" transform="translate(0 0)"/>
        </g>
        <g id="Group_111" data-name="Group 111" class="cls-8" transform="translate(1469.915 578.91)">
          <circle id="Ellipse_31" data-name="Ellipse 31" class="cls-9" cx="3.519" cy="3.519" r="3.519" transform="translate(0 0)"/>
        </g>
        <g id="Group_112" data-name="Group 112" class="cls-8" transform="translate(1421.868 309.343)">
          <circle id="Ellipse_32" data-name="Ellipse 32" class="cls-9" cx="3.519" cy="3.519" r="3.519" transform="translate(0 0)"/>
        </g>
        <g id="Group_113" data-name="Group 113" class="cls-8" transform="translate(1160.82 410.673)">
          <circle id="Ellipse_33" data-name="Ellipse 33" class="cls-9" cx="3.519" cy="3.519" r="3.519" transform="translate(0 0)"/>
        </g>
        <g id="Group_114" data-name="Group 114" class="cls-8" transform="translate(880.923 544.616)">
          <circle id="Ellipse_34" data-name="Ellipse 34" class="cls-9" cx="3.519" cy="3.519" r="3.519" transform="translate(0 0)"/>
        </g>
        <g id="Group_115" data-name="Group 115" class="cls-8" transform="translate(609.665 685.363)">
          <circle id="Ellipse_35" data-name="Ellipse 35" class="cls-9" cx="3.519" cy="3.519" r="3.519" transform="translate(0 0)"/>
        </g>
        <g id="Group_116" data-name="Group 116" class="cls-8" transform="translate(348.633 548.033)">
          <circle id="Ellipse_36" data-name="Ellipse 36" class="cls-9" cx="3.519" cy="3.519" r="3.519" transform="translate(0 0)"/>
        </g>
        <g id="Group_117" data-name="Group 117" class="cls-8" transform="translate(662.858 462.201)">
          <circle id="Ellipse_37" data-name="Ellipse 37" class="cls-9" cx="3.519" cy="3.519" r="3.519" transform="translate(0 0)"/>
        </g>
        <g id="Group_118" data-name="Group 118" class="cls-8" transform="translate(1007.99 451.919)">
          <circle id="Ellipse_38" data-name="Ellipse 38" class="cls-9" cx="3.519" cy="3.519" r="3.519" transform="translate(0 0)"/>
        </g>
        <g id="Group_119" data-name="Group 119" class="cls-8" transform="translate(1205.409 525.757)">
          <circle id="Ellipse_39" data-name="Ellipse 39" class="cls-9" cx="3.519" cy="3.519" r="3.519" transform="translate(0 0)"/>
        </g>
        <g id="Group_120" data-name="Group 120" class="cls-8" transform="translate(1420.078 652.781)">
          <circle id="Ellipse_40" data-name="Ellipse 40" class="cls-9" cx="3.519" cy="3.519" r="3.519" transform="translate(0 0)"/>
        </g>
        <g id="Group_121" data-name="Group 121" class="cls-8" transform="translate(1605.463 795.132)">
          <circle id="Ellipse_41" data-name="Ellipse 41" class="cls-9" cx="3.519" cy="3.519" r="3.519" transform="translate(0 0)"/>
        </g>
        <g id="Group_122" data-name="Group 122" class="cls-8" transform="translate(1608.939 814.266)">
          <circle id="Ellipse_42" data-name="Ellipse 42" class="cls-9" cx="3.519" cy="3.519" r="3.519" transform="translate(0 0)"/>
        </g>
        <g id="Group_123" data-name="Group 123" class="cls-8" transform="translate(1275.84 815.92)">
          <circle id="Ellipse_43" data-name="Ellipse 43" class="cls-9" cx="3.519" cy="3.519" r="3.519" transform="translate(0 0)"/>
        </g>
        <g id="Group_124" data-name="Group 124" class="cls-8" transform="translate(899.819 807.32)">
          <circle id="Ellipse_44" data-name="Ellipse 44" class="cls-9" cx="3.519" cy="3.519" r="3.519" transform="translate(0 0)"/>
        </g>
        <g id="Group_125" data-name="Group 125" class="cls-8" transform="translate(576.954 711.18)">
          <circle id="Ellipse_45" data-name="Ellipse 45" class="cls-9" cx="3.519" cy="3.519" r="3.519" transform="translate(0 0)"/>
        </g>
        <g id="Group_126" data-name="Group 126" class="cls-8" transform="translate(764.164 620.168)">
          <circle id="Ellipse_46" data-name="Ellipse 46" class="cls-9" cx="3.519" cy="3.519" r="3.519" transform="translate(0 0)"/>
        </g>
        <g id="Group_127" data-name="Group 127" class="cls-8" transform="translate(961.642 659.669)">
          <circle id="Ellipse_47" data-name="Ellipse 47" class="cls-9" cx="3.519" cy="3.519" r="3.519" transform="translate(0 0)"/>
        </g>
        <g id="Group_128" data-name="Group 128" class="cls-8" transform="translate(1248.354 740.335)">
          <circle id="Ellipse_48" data-name="Ellipse 48" class="cls-9" cx="3.519" cy="3.519" r="3.519" transform="translate(0 0)"/>
        </g>
        <g id="Group_129" data-name="Group 129" class="cls-8" transform="translate(1505.963 24.192)">
          <circle id="Ellipse_49" data-name="Ellipse 49" class="cls-9" cx="3.519" cy="3.519" r="3.519" transform="translate(0 0)"/>
        </g>
        <g id="Group_130" data-name="Group 130" class="cls-8" transform="translate(1406.387 61.955)">
          <circle id="Ellipse_50" data-name="Ellipse 50" class="cls-9" cx="3.519" cy="3.519" r="3.519" transform="translate(0 0)"/>
        </g>
        <g id="Group_131" data-name="Group 131" class="cls-8" transform="translate(999.461 125.549)">
          <circle id="Ellipse_51" data-name="Ellipse 51" class="cls-9" cx="3.519" cy="3.519" r="3.519" transform="translate(0 0)"/>
        </g>
        <g id="Group_132" data-name="Group 132" class="cls-8" transform="translate(704.045 111.755)">
          <circle id="Ellipse_52" data-name="Ellipse 52" class="cls-9" cx="3.519" cy="3.519" r="3.519" transform="translate(0 0)"/>
        </g>
        <g id="Group_133" data-name="Group 133" class="cls-8" transform="translate(291.967 94.6)">
          <circle id="Ellipse_53" data-name="Ellipse 53" class="cls-9" cx="3.519" cy="3.519" r="3.519" transform="translate(0 0)"/>
        </g>
        <g id="Group_134" data-name="Group 134" class="cls-8" transform="translate(0 86.172)">
          <circle id="Ellipse_54" data-name="Ellipse 54" class="cls-9" cx="3.519" cy="3.519" r="3.519" transform="translate(0 0)"/>
        </g>
        <g id="Group_135" data-name="Group 135" class="cls-8" transform="translate(1207.166 139.339)">
          <circle id="Ellipse_55" data-name="Ellipse 55" class="cls-9" cx="3.519" cy="3.519" r="3.519" transform="translate(0 0)"/>
        </g>
        <g id="Group_136" data-name="Group 136" class="cls-8" transform="translate(824.163 249.217)">
          <circle id="Ellipse_56" data-name="Ellipse 56" class="cls-9" cx="3.519" cy="3.519" r="3.519" transform="translate(0 0)"/>
        </g>
        <g id="Group_137" data-name="Group 137" class="cls-8" transform="translate(576.966 436.427)">
          <circle id="Ellipse_57" data-name="Ellipse 57" class="cls-9" cx="3.519" cy="3.519" r="3.519" transform="translate(0 0)"/>
        </g>
        <g id="Group_138" data-name="Group 138" class="cls-8" transform="translate(238.695 654.47)">
          <circle id="Ellipse_58" data-name="Ellipse 58" class="cls-9" cx="3.519" cy="3.519" r="3.519" transform="translate(0 0)"/>
        </g>
        <g id="Group_139" data-name="Group 139" class="cls-8" transform="translate(310.835 444.973)">
          <circle id="Ellipse_59" data-name="Ellipse 59" class="cls-9" cx="3.519" cy="3.519" r="3.519" transform="translate(0 0)"/>
        </g>
        <g id="Group_140" data-name="Group 140" class="cls-8" transform="translate(554.592 127.24)">
          <circle id="Ellipse_60" data-name="Ellipse 60" class="cls-9" cx="3.519" cy="3.519" r="3.519" transform="translate(0 0)"/>
        </g>
        <g id="Group_141" data-name="Group 141" class="cls-8" transform="translate(716.042 41.252)">
          <circle id="Ellipse_61" data-name="Ellipse 61" class="cls-9" cx="3.519" cy="3.519" r="3.519" transform="translate(0 0)"/>
        </g>
        <g id="Group_142" data-name="Group 142" class="cls-8" transform="translate(916.967)">
          <circle id="Ellipse_62" data-name="Ellipse 62" class="cls-9" cx="3.519" cy="3.519" r="3.519" transform="translate(0 0)"/>
        </g>
        <g id="Group_143" data-name="Group 143" class="cls-8" transform="translate(1176.294 13.812)">
          <circle id="Ellipse_63" data-name="Ellipse 63" class="cls-9" cx="3.519" cy="3.519" r="3.519" transform="translate(0 0)"/>
        </g>
        <g id="Group_144" data-name="Group 144" class="cls-8" transform="translate(1414.962 486.184)">
          <circle id="Ellipse_64" data-name="Ellipse 64" class="cls-9" cx="3.519" cy="3.519" r="3.519" transform="translate(0 0)"/>
        </g>
        <g id="Group_145" data-name="Group 145" class="cls-8" transform="translate(1203.765 304.208)">
          <circle id="Ellipse_65" data-name="Ellipse 65" class="cls-9" cx="3.519" cy="3.519" r="3.519" transform="translate(0 0)"/>
        </g>
        <g id="Group_146" data-name="Group 146" class="cls-8" transform="translate(963.361 201.197)">
          <circle id="Ellipse_66" data-name="Ellipse 66" class="cls-9" cx="3.519" cy="3.519" r="3.519" transform="translate(0 0)"/>
        </g>
        <g id="Group_147" data-name="Group 147" class="cls-8" transform="translate(676.534 165.068)">
          <circle id="Ellipse_67" data-name="Ellipse 67" class="cls-9" cx="3.519" cy="3.519" r="3.519" transform="translate(0 0)"/>
        </g>
        <g id="Group_148" data-name="Group 148" class="cls-8" transform="translate(372.673 123.81)">
          <circle id="Ellipse_68" data-name="Ellipse 68" class="cls-9" cx="3.519" cy="3.519" r="3.519" transform="translate(0 0)"/>
        </g>
        <g id="Group_149" data-name="Group 149" class="cls-8" transform="translate(302.265 714.579)">
          <circle id="Ellipse_69" data-name="Ellipse 69" class="cls-9" cx="3.519" cy="3.519" r="3.519" transform="translate(0 0)"/>
        </g>
        <g id="Group_150" data-name="Group 150" class="cls-8" transform="translate(630.263 862.248)">
          <circle id="Ellipse_70" data-name="Ellipse 70" class="cls-9" cx="3.519" cy="3.519" r="3.519" transform="translate(0 0)"/>
        </g>
        <g id="Group_151" data-name="Group 151" class="cls-8" transform="translate(982.242 978.995)">
          <circle id="Ellipse_71" data-name="Ellipse 71" class="cls-9" cx="3.519" cy="3.519" r="3.519" transform="translate(0 0)"/>
        </g>
        <g id="Group_152" data-name="Group 152" class="cls-8" transform="translate(1344.497 1126.633)">
          <circle id="Ellipse_72" data-name="Ellipse 72" class="cls-9" cx="3.519" cy="3.519" r="3.519" transform="translate(0 0)"/>
        </g>
        <g id="Group_153" data-name="Group 153" class="cls-8" transform="translate(1471.558 1006.452)">
          <circle id="Ellipse_73" data-name="Ellipse 73" class="cls-9" cx="3.519" cy="3.519" r="3.519" transform="translate(0 0)"/>
        </g>
        <g id="Group_154" data-name="Group 154" class="cls-8" transform="translate(1111.002 1164.406)">
          <circle id="Ellipse_74" data-name="Ellipse 74" class="cls-9" cx="3.519" cy="3.519" r="3.519" transform="translate(0 0)"/>
        </g>
        <g id="Group_155" data-name="Group 155" class="cls-8" transform="translate(825.994 1260.546)">
          <circle id="Ellipse_75" data-name="Ellipse 75" class="cls-9" cx="3.519" cy="3.519" r="3.519" transform="translate(0 0)"/>
        </g>
        <g id="Group_156" data-name="Group 156" class="cls-8" transform="translate(633.68 1246.806)">
          <circle id="Ellipse_76" data-name="Ellipse 76" class="cls-9" cx="3.519" cy="3.519" r="3.519" transform="translate(0 0)"/>
        </g>
        <g id="Group_157" data-name="Group 157" class="cls-8" transform="translate(384.706 1114.608)">
          <circle id="Ellipse_77" data-name="Ellipse 77" class="cls-9" cx="3.519" cy="3.519" r="3.519" transform="translate(0 0)"/>
        </g>
        <g id="Group_158" data-name="Group 158" class="cls-8" transform="translate(530.661 929.145)">
          <circle id="Ellipse_78" data-name="Ellipse 78" class="cls-9" cx="3.519" cy="3.519" r="3.519" transform="translate(0 0)"/>
        </g>
        <g id="Group_159" data-name="Group 159" class="cls-8" transform="translate(817.401 1056.251)">
          <circle id="Ellipse_79" data-name="Ellipse 79" class="cls-9" cx="3.519" cy="3.519" r="3.519" transform="translate(0 0)"/>
        </g>
        <g id="Group_160" data-name="Group 160" class="cls-8" transform="translate(520.319 960.183)">
          <circle id="Ellipse_80" data-name="Ellipse 80" class="cls-9" cx="3.519" cy="3.519" r="3.519" transform="translate(0 0)"/>
        </g>
        <g id="Group_161" data-name="Group 161" class="cls-8" transform="translate(331.459 798.735)">
          <circle id="Ellipse_81" data-name="Ellipse 81" class="cls-9" cx="3.519" cy="3.519" r="3.519" transform="translate(0 0)"/>
        </g>
        <g id="Group_162" data-name="Group 162" class="cls-8" transform="translate(230.096 499.938)">
          <circle id="Ellipse_82" data-name="Ellipse 82" class="cls-9" cx="3.519" cy="3.519" r="3.519" transform="translate(0 0)"/>
        </g>
        <g id="Group_163" data-name="Group 163" class="cls-8" transform="translate(204.36 295.619)">
          <circle id="Ellipse_83" data-name="Ellipse 83" class="cls-9" cx="3.519" cy="3.519" r="3.519" transform="translate(0 0)"/>
        </g>
        <g id="Group_164" data-name="Group 164" class="cls-8" transform="translate(188.938 173.759)">
          <circle id="Ellipse_84" data-name="Ellipse 84" class="cls-9" cx="3.519" cy="3.519" r="3.519" transform="translate(0 0)"/>
        </g>
        <g id="Group_165" data-name="Group 165" class="cls-8" transform="translate(183.753 149.528)">
          <circle id="Ellipse_85" data-name="Ellipse 85" class="cls-9" cx="3.519" cy="3.519" r="3.519" transform="translate(0 0)"/>
        </g>
        <g id="Group_166" data-name="Group 166" class="cls-8" transform="translate(331.449 233.778)">
          <circle id="Ellipse_86" data-name="Ellipse 86" class="cls-9" cx="3.519" cy="3.519" r="3.519" transform="translate(0 0)"/>
        </g>
        <g id="Group_167" data-name="Group 167" class="cls-8" transform="translate(15.607 70.554)">
          <circle id="Ellipse_87" data-name="Ellipse 87" class="cls-9" cx="3.519" cy="3.519" r="3.519" transform="translate(0 0)"/>
        </g>
        <g id="Group_168" data-name="Group 168" class="cls-8" transform="translate(161.48 44.808)">
          <circle id="Ellipse_88" data-name="Ellipse 88" class="cls-9" cx="3.519" cy="3.519" r="3.519" transform="translate(0 0)"/>
        </g>
        <g id="Group_169" data-name="Group 169" class="cls-8" transform="translate(571.785 44.725)">
          <circle id="Ellipse_89" data-name="Ellipse 89" class="cls-9" cx="3.519" cy="3.519" r="3.519" transform="translate(0 0)"/>
        </g>
        <g id="Group_170" data-name="Group 170" class="cls-8" transform="translate(958.258 44.693)">
          <circle id="Ellipse_90" data-name="Ellipse 90" class="cls-9" cx="3.519" cy="3.519" r="3.519" transform="translate(0 0)"/>
        </g>
        <g id="Group_171" data-name="Group 171" class="cls-8" transform="translate(1581.501 113.539)">
          <circle id="Ellipse_91" data-name="Ellipse 91" class="cls-9" cx="3.519" cy="3.519" r="3.519" transform="translate(0 0)"/>
        </g>
        <g id="Group_172" data-name="Group 172" class="cls-8" transform="translate(1768.626 122.134)">
          <circle id="Ellipse_92" data-name="Ellipse 92" class="cls-9" cx="3.519" cy="3.519" r="3.519" transform="translate(0 0)"/>
        </g>
        <g id="Group_173" data-name="Group 173" class="cls-8" transform="translate(1898.977 147.839)">
          <circle id="Ellipse_93" data-name="Ellipse 93" class="cls-9" cx="3.519" cy="3.519" r="3.519" transform="translate(0 0)"/>
        </g>
        <g id="Group_174" data-name="Group 174" class="cls-8" transform="translate(1912.962 156.586)">
          <circle id="Ellipse_94" data-name="Ellipse 94" class="cls-9" cx="3.519" cy="3.519" r="3.519" transform="translate(0 0)"/>
        </g>
        <g id="Group_175" data-name="Group 175" class="cls-8" transform="translate(1675.922 151.345)">
          <circle id="Ellipse_95" data-name="Ellipse 95" class="cls-9" cx="3.519" cy="3.519" r="3.519" transform="translate(0 0)"/>
        </g>
        <g id="Group_176" data-name="Group 176" class="cls-8" transform="translate(1636.458 434.665)">
          <circle id="Ellipse_96" data-name="Ellipse 96" class="cls-9" cx="3.519" cy="3.519" r="3.519" transform="translate(0 0)"/>
        </g>
        <g id="Group_177" data-name="Group 177" class="cls-8" transform="translate(1670.782 714.499)">
          <circle id="Ellipse_97" data-name="Ellipse 97" class="cls-9" cx="3.519" cy="3.519" r="3.519" transform="translate(0 0)"/>
        </g>
        <g id="Group_178" data-name="Group 178" class="cls-8" transform="translate(1742.873 863.891)">
          <circle id="Ellipse_98" data-name="Ellipse 98" class="cls-9" cx="3.519" cy="3.519" r="3.519" transform="translate(0 0)"/>
        </g>
        <g id="Group_179" data-name="Group 179" class="cls-8" transform="translate(1748.007 927.488)">
          <circle id="Ellipse_99" data-name="Ellipse 99" class="cls-9" cx="3.519" cy="3.519" r="3.519" transform="translate(0 0)"/>
        </g>
      </g>
    </g>
  </g>
</svg>
