<svg xmlns="http://www.w3.org/2000/svg" viewBox="0 0 232.8 122.3"><defs><style>.cls-1{fill:#ff4eb2;}.cls-2{fill:blue;}.cls-3{fill:#00d8a7;}.cls-3,.cls-4{stroke:blue;stroke-miterlimit:10;}.cls-4{fill:none;}.cls-5{fill:#fff;}</style></defs><title>Asset 26</title><g id="Layer_2" data-name="Layer 2"><g id="Layer_1-2" data-name="Layer 1"><path class="cls-1" d="M14.5,121.8a14.6,14.6,0,0,0-14-14V18.6l6.3-3.7v2.2l.8-.4A14.5,14.5,0,0,0,14.5,4.6L20.9.8l.6,4H211a14.4,14.4,0,0,0,13.9,14v85.7H231l-5.7,3.3h-1c-1.8.3-4.7,1.8-5.7,7.8l-1.7-5.1-.6.5a13.2,13.2,0,0,0-3.4,4l-.3.5,5.1,2.4-6.4,3.8Z"/><path class="cls-2" d="M20.6,1.6,21,4.5v.8H210.5a15,15,0,0,0,13.9,14V105h4.7l-3.9,2.3h-1c-1.7.3-4.4,1.6-5.7,6.4l-.9-2.6-.5-1.4-1.1.9a13.1,13.1,0,0,0-3.5,4.2l-.6.9,1,.5,3.8,1.8-5.5,3.2H15A15,15,0,0,0,1,107.4V18.9l5.3-3.1V18l1.6-.9A15,15,0,0,0,15,4.9l5.6-3.3M21.3,0,14,4.3A13.8,13.8,0,0,1,7.3,16.2V14L0,18.3v90a14,14,0,0,1,14,14H211.4l7.4-4.3-5.5-2.6a14,14,0,0,1,3.3-3.9l2.2,6.5c.6-7.7,3.9-9.3,5.6-9.6h1l7.4-4.3h-7.4V18.3a14,14,0,0,1-14-14H21.9L21.3,0Z"/><path class="cls-3" d="M231.8,105V15a14,14,0,0,1-14-14H20.3a14,14,0,0,1-14,14v90a14,14,0,0,1,14,14H217.8A14,14,0,0,1,231.8,105Z"/><line class="cls-4" x1="27" y1="7" x2="209.7" y2="7"/><line class="cls-4" x1="27" y1="112" x2="209.7" y2="112"/><line class="cls-4" x1="13.3" y1="101.3" x2="13.3" y2="19.7"/><line class="cls-4" x1="226.3" y1="102.3" x2="226.3" y2="20.7"/><path class="cls-5" d="M55,73.8v5.1H32.2V40.5H54.8v5.2H37.5V57.5H51.2v5H37.5V73.8Z"/><path class="cls-5" d="M74.5,64.9l11-24.5h6l-17,38.5L58.1,40.4h6Z"/><path class="cls-5" d="M117.6,73.8v5.1H94.8V40.5h22.6v5.2H100.1V57.5h13.7v5H100.1V73.8Z"/><path class="cls-5" d="M149.1,40.5V78.9h-6l-16.8-29v29h-5.2V40.5h6.1l16.9,29.7V40.5Z"/><path class="cls-5" d="M183.8,40.5v5.1H171V78.9h-5.5V45.5H153.1v-5Z"/><path class="cls-5" d="M199.5,78.7c-4.8,0-9.2-2.2-11.5-5.4h0l2.2-3.8c1.7,2.5,4.9,4.4,9.3,4.7h1.4a6.7,6.7,0,0,0,6.9-6.6c0-3.8-2.9-5.3-6.9-5.9l-2.5-.4c-5.4-1-10.3-4.2-10.3-9.9a10.5,10.5,0,0,1,10.3-10.6h.8c3.8,0,7.8,1.6,9.8,4.2l-2.4,4.6c-2.2-2.4-4.2-3.7-7.4-3.9h-.8a5.6,5.6,0,0,0-5.3,5.7c0,2.9,2,4.5,5.3,4.9l2.7.3c6.5.8,11.4,4.6,11.4,11s-5.2,11.1-11.6,11.2Z"/></g></g></svg>