<svg xmlns="http://www.w3.org/2000/svg" viewBox="0 0 300.9 183.2"><defs><style>.cls-1{fill:#210434;}.cls-2,.cls-4,.cls-6,.cls-9{fill:none;}.cls-2{stroke:#21005a;}.cls-2,.cls-4{stroke-width:4px;}.cls-3{fill:#35acb5;}.cls-4{stroke:#d7d2ee;}.cls-5{fill:#d8457a;}.cls-6{stroke:#3909dc;stroke-width:2px;}.cls-7{isolation:isolate;}.cls-8{fill:#fff;}.cls-9{stroke:#6327cc;stroke-width:3px;}</style></defs><title>EVENTS BUTTON</title><g id="Layer_2" data-name="Layer 2"><g id="Layer_1-2" data-name="Layer 1"><g id="Group_68" data-name="Group 68"><g id="Group_25" data-name="Group 25"><g id="Rectangle_363" data-name="Rectangle 363"><rect class="cls-1" x="9.2" y="21" width="280.2" height="147.02" rx="11.2" ry="11.2" transform="translate(-7.7 13.3) rotate(-5)"/><rect class="cls-2" x="6.9" y="18.8" width="284.7" height="151.49" rx="13.4" ry="13.4" transform="matrix(1, -0.09, 0.09, 1, -7.66, 13.35)"/></g><g id="Rectangle_347" data-name="Rectangle 347"><rect class="cls-3" x="16.3" y="15" width="275.5" height="144.68" rx="11.2" ry="11.2" transform="matrix(1, -0.09, 0.09, 1, -7.02, 13.74)"/><rect class="cls-4" x="14.1" y="12.8" width="280" height="149.15" rx="13.4" ry="13.4" transform="translate(-7 13.7) rotate(-5)"/></g><g id="Rectangle_348" data-name="Rectangle 348"><rect class="cls-5" x="16.3" y="15" width="275.5" height="144.68" rx="13.4" ry="13.4" transform="translate(-7 13.7) rotate(-5)"/><rect class="cls-6" x="17.4" y="16.1" width="273.3" height="142.44" rx="12.3" ry="12.3" transform="translate(-7 13.7) rotate(-5)"/></g></g><g id="EVENTS" class="cls-7"><g class="cls-7"><path class="cls-8" d="M75.8,106.1l.5,5.6-25.1,2.2L47.5,71.8l24.8-2.2.5,5.7-19,1.6,1.1,12.9L70,88.5l.5,5.6L55.4,95.4l1.1,12.4Z"/><path class="cls-8" d="M96.3,94.5l9.8-28,6.6-.5-15,43.8L75.9,69.2l6.7-.6Z"/><path class="cls-8" d="M144.6,100.1l.4,5.6-25,2.1-3.7-42,24.8-2.2.5,5.6-19,1.7,1.1,12.9,15.1-1.3.5,5.6-15.1,1.3,1.1,12.3Z"/><path class="cls-8" d="M175.9,60.6l3.7,42-6.6.6L151.8,73l2.7,31.8-5.6.5-3.7-42.1,6.7-.5,21.3,30.9L170.4,61Z"/><path class="cls-8" d="M214,57.2l.5,5.6-14.1,1.1,3.3,36.7-5.9.5-3.2-36.7-13.9,1.2-.4-5.5Z"/><path class="cls-8" d="M234.9,97.7a16,16,0,0,1-13.1-4.9h0l2-4.3c2.1,2.5,5.9,4.3,10.7,4.2l1.6-.2a7.2,7.2,0,0,0,6.9-7.8c-.3-4.2-3.7-5.6-8.1-5.9l-2.9-.2c-6-.6-11.7-3.6-12.2-9.9A11.6,11.6,0,0,1,230.1,56h.9c4.1-.3,8.7,1.1,11.2,3.7l-2.3,5.2c-2.6-2.3-4.9-3.6-8.5-3.5h-.9a6.2,6.2,0,0,0-5.3,6.7c.3,3.2,2.7,4.8,6.3,4.9h3c7.3.3,13,3.9,13.6,11s-4.6,12.7-11.6,13.4Z"/></g></g><line id="Line_31" data-name="Line 31" class="cls-9" x1="33.8" y1="36.2" x2="262.1" y2="16.2"/><line id="Line_32" data-name="Line 32" class="cls-9" x1="44.2" y1="156.1" x2="272.6" y2="136.1"/></g></g></g></svg>