<svg xmlns="http://www.w3.org/2000/svg" viewBox="0 0 635.65 362.8"><defs><style>.cls-1{fill:#342783;}.cls-2{fill:#43958c;}.cls-3{fill:#d13780;}.cls-4{fill:#342883;}.cls-5{fill:#fff;}</style></defs><title>Asset 5</title><g id="Layer_2" data-name="Layer 2"><g id="Layer_2-2" data-name="Layer 2"><path class="cls-1" d="M635.65,125.65a8.16,8.16,0,0,1-.26,2.79,18.24,18.24,0,0,1-1.14,2.65,25.32,25.32,0,0,1-3.1,4.52,50.57,50.57,0,0,1-7.73,7.61,18.45,18.45,0,0,1-9.64,3.63,25,25,0,0,0-9,2.17c-5.38,2.59-8.75,7.59-10.38,13.21-1.92,6.64-2.86,13.72-1.64,20.57,2.62,14.74,15.27,24.91,29,29.1,1.84.56,3.71,1,5.59,1.43a24.22,24.22,0,0,1,4,1,5.19,5.19,0,0,1,3.28,4.28c.76,3.93.54,8,.47,12-.07,4.61,0,9.22,0,13.83,0,18.32.21,36.67-.1,55-.16,9.23-.41,18.46-.47,27.68,0,4.5.24,9,.06,13.52a13,13,0,0,1-1.33,5.5,24.6,24.6,0,0,1-3,4.09c-3.93,4.84-8.65,9.19-14.66,11.21a29.16,29.16,0,0,1-10.25,1.31q-7-.19-14-.35-27.65-.63-55.29-.76c-18.44-.1-36.88,0-55.32-.18s-37-.51-55.54-.67-36.89-.08-55.33.31-36.87.51-55.3.68-37,.62-55.48.69-36.8-.31-55.21-.48-36.77-.23-55.16-.29c-9.14,0-18.27,0-27.41-.25s-18.49-.55-27.74-.5c-18.37.09-36.73.85-55.09,1.09q-14,.19-28,.11c-2.5,0-5.67.35-8-.79-1.81-.88-2.19-2.87-2.33-4.7-.32-4.12-.09-8.32-.1-12.44q0-6.9,0-13.79,0-13.89,0-27.78c.06-9.26.17-18.52.38-27.78s.69-18.32.65-27.48l-.06-6.93c0-1.08,0-2.17,0-3.25A13.27,13.27,0,0,1,1,234.57c.22-1.41,1.72-2.84,2.54-4,1-1.35,1.92-2.71,2.92-4,4-5.33,8.7-10.16,15.24-12.1,6.74-2,15.52-2.31,19.38-9.13,2.25-4,2.9-9,3-13.47A46.72,46.72,0,0,0,35.19,164a38.19,38.19,0,0,0-11.76-10.59,37.68,37.68,0,0,0-7.76-3.31c-3.3-1-6.73-1.42-10.07-2.23a6.09,6.09,0,0,1-4.86-5.25,37.21,37.21,0,0,1-.09-5.88c0-2.23,0-4.47,0-6.7,0-9.17,0-18.35,0-27.52q0-27.63,0-55.25C.66,42.6.8,38,.54,33.32c-.25-4.27-1-8.83-.17-13.07.69-3.61,2.76-6.77,5.07-9.57a29.6,29.6,0,0,1,7.37-6.52C18.17.88,24.46-.14,30.66,0c4.12.1,8.22.65,12.34.83,4.52.19,9,.22,13.57.17C65.73.91,74.87.66,84,.65S102.4.56,111.59.46c18.5-.21,37-.48,55.51-.36,9.15.07,18.3.4,27.45.58S213,.54,222.21.31C240.64-.16,259,.37,277.47.5s37,0,55.52.06S369.8,1,388.22.84,425,.69,443.46.92s37,.26,55.43.21,36.78.15,55.18.13c9.22,0,18.45-.08,27.68-.26s18.32.14,27.49.26c4.64.06,9.29.06,13.94-.1,2-.06,3.94-.25,5.91-.23a8.52,8.52,0,0,1,3.32.51c1.94.82,2.45,2.88,2.63,4.8.4,4.17.1,8.47.1,12.65V46.1c0,9.15-.29,18.31-.41,27.46-.12,8.81-.12,17.61.1,26.41.11,4.38.31,8.74.31,13.12,0,2.15.1,4.3,0,6.45A16.33,16.33,0,0,0,635.65,125.65Z"/><path class="cls-2" d="M634.31,38.39c.9,17.26-1.35,34.52-.78,51.79.29,8.88.52,17.77,1,26.65.12,2.53.9,6.09-1.24,8.06a8,8,0,0,1-3.25,1.58c-1.55.45-3.11.85-4.65,1.35-11,3.61-21,10.25-27.58,19.85a48.53,48.53,0,0,0-7.8,32.42c.65,6.37,2.22,12.65,5.71,18.08a41.61,41.61,0,0,0,13,12.44c6.14,3.9,12.91,7.09,20.15,8.19,2.6.4,4.58,1.72,5.23,4.36a22.52,22.52,0,0,1,.35,5.19q.06,3.3.09,6.59c.19,17.86,0,35.71-.34,53.56q-.27,13.39-.65,26.78c-.13,4.44-.28,8.89-.23,13.34,0,2.19.07,4.37.11,6.56a15.18,15.18,0,0,1-.25,4.71c-1,3.2-4.62,3-7.34,3.07-4.36.17-8.74.19-13.11.15-8.87-.1-17.73-.51-26.6-.68s-17.72-.63-26.59-.71-17.79,0-26.68.06-17.79.1-26.68-.06-17.81-.48-26.71-.65q-26.73-.52-53.48-.44c-17.78,0-35.61-.11-53.39.54s-35.37,2.19-53.08,1.49c-4.34-.18-8.65-.32-13-.21s-8.75.37-13.12.6c-8.8.46-17.59.47-26.4.3-17.77-.36-35.52-1.17-53.29-1.41s-35.66-.29-53.49-.33-35.39-.37-53.08-1.46a78.29,78.29,0,0,0-13.07.61c-4.27.46-8.52.83-12.82.95q-13.35.41-26.72.66c-8.62.18-17.26.42-25.89.46-1.69,0-3.94.2-5.44-.79-1.31-.87-1.48-2.66-1.58-4.09-.27-3.59-.15-7.22-.18-10.82q-.06-6.67-.1-13.36-.06-13.36.25-26.71c.39-17.76,1-35.52,1.48-53.28.06-2.18.11-4.37.17-6.56a20.64,20.64,0,0,1,.33-5.09c.82-2.9,4.42-2.88,6.84-3.41a53.75,53.75,0,0,0,18.65-7.51A42.12,42.12,0,0,0,67.27,175a58.4,58.4,0,0,0-4.52-19.59,46.48,46.48,0,0,0-8.83-14.07A40.43,40.43,0,0,0,40.7,132a48.34,48.34,0,0,0-8.34-2.79c-1.55-.37-3.12-.67-4.69-.92a8.86,8.86,0,0,1-3.79-1.07c-2.37-1.64-1.62-5.71-1.62-8.12q0-6.69,0-13.39,0-13.27,0-26.56,0-26.78-.09-53.54l0-13.58c0-2.06-.32-4.78.67-6.68.77-1.46,2.49-1.56,4-1.53,3.58.06,7.15.57,10.74.68,8.79.29,17.6.41,26.4.68s17.74.51,26.61.31,17.75-.74,26.63-1.07,17.77-.6,26.65-.71c17.82-.21,35.59.72,53.39,1,8.91.16,17.81.16,26.71-.18s17.74-.71,26.63-.73c17.67,0,35.33.69,53,1,8.87.18,17.74.13,26.61.22s17.78.38,26.67.58,17.76.3,26.64.06S401.17,5,410.05,5c17.67,0,35.32,1,53,1.05s35.62-.47,53.43-.58,35.47,1,53.22.41c8.82-.26,17.63-.67,26.45-.71s17.71.23,26.56.33c2.12,0,4.23.05,6.35.05,1.35,0,3-.21,4.15.7a3.77,3.77,0,0,1,1.11,2.89c.08,1.78,0,3.59,0,5.37C634.29,22.49,634.31,30.44,634.31,38.39Z"/><path class="cls-3" d="M3.65,352c0-17.48-.21-34.95.26-52.43s1.25-35.13,1.59-52.71c0-2.45.09-4.91.11-7.36,0-1.84-.05-3.79,1.12-5.34a17.72,17.72,0,0,1,2.45-2.29l2.56-2.3,5.48-5c1,1.35.48,3.33.41,4.87-.11,2.21-.1,4.44-.15,6.66q-.18,6.75-.4,13.5c-.29,9-.63,18-.91,27-.57,18-.81,36-.29,54,.07,2.55.18,5.1.25,7.65a9.24,9.24,0,0,1-.27,2.92A7.64,7.64,0,0,1,14,343.88c-1.65,1.89-3.32,3.77-5,5.64l-2.5,2.82a5.05,5.05,0,0,1-.53.6c-.44.35-.35.24-.87-.05Z"/><path class="cls-3" d="M47.34,205.39c3.77-11.91,2.17-24.2-2.67-35.54-2.14-5-4.66-9.78-8.43-13.74a39.73,39.73,0,0,0-11.55-8.21,79.06,79.06,0,0,0-15.93-5.38c3.41-3.51,6.68-7.18,10.29-10.51,1.65-1.52,3.36-1.59,5.46-1,1.88.51,3.78.95,5.66,1.47a40.78,40.78,0,0,1,17.66,9.9A44.46,44.46,0,0,1,58.48,159.9c2.62,7.66,3.89,16,2.37,24a37,37,0,0,1-4.74,12.24A43.49,43.49,0,0,1,52,201.79C50.79,203.24,49.44,205.31,47.34,205.39Z"/><path class="cls-1" d="M37.65,62.62c.23,6.51.06,13,.05,19.53,0,3.57,0,7.14.12,10.71.06,1.85.14,3.7.26,5.55a29.08,29.08,0,0,0,.45,4.67,7.4,7.4,0,0,0,4,5c2.9,1.52,5.91,2.87,8.81,4.41a76.79,76.79,0,0,1,16,10.86,56.84,56.84,0,0,1,16.78,27.23A81.57,81.57,0,0,1,86.53,168a98.24,98.24,0,0,1-.78,18.62,71,71,0,0,1-14.13,33.52,58,58,0,0,1-26.05,19.46c-2.32.83-5.25,1.14-7.07,2.94s-1.76,4.2-1.74,6.51c.09,7.31.05,14.61,0,21.91-.15,14.61-.46,29.22-.25,43.83,0,3.66.13,7.31.26,11,0,1.14.28,2.2.38,3.32.08.88-.11,1.69-1.07,1.89-2.43.52-2.23-2.2-2.26-3.77-.07-3.46-.42-6.92-.53-10.39-.49-14.63.09-29.28.37-43.91.14-7.29.14-14.57.12-21.85,0-2.69-.36-5.68.68-8.24A8,8,0,0,1,39,238.59c2.53-1.05,5.17-1.76,7.68-2.87A57.31,57.31,0,0,0,53.73,232a58.72,58.72,0,0,0,11.92-9.67,63.78,63.78,0,0,0,14.71-26A76.46,76.46,0,0,0,83,180.84a98.57,98.57,0,0,0-.23-21.17,56,56,0,0,0-12.73-29c-6.78-7.89-15.51-13.2-24.73-17.78a51,51,0,0,1-7.75-4.14A6.31,6.31,0,0,1,35,104.49a52.09,52.09,0,0,1-.17-8.92c.06-6.34-.08-12.67-.11-19-.08-14.59,0-29.18,0-43.78,0-3.55-.2-7.18.1-10.72a2.32,2.32,0,0,1,.62-1.79c.08-.07.64-.63.77-.63s.76.65.86.75c.92,1,.63,3.16.64,4.4q0,9.09,0,18.18Z"/><path class="cls-4" d="M613.6,285c0-6.66,0-13.32,0-20,0-3.33,0-6.66,0-10,0-3,.23-6.09.06-9.1a8.23,8.23,0,0,0-2-5.35c-1.64-1.71-4-2.17-6.11-2.95a60.84,60.84,0,0,1-14.67-7.92,65.19,65.19,0,0,1-12-10.6,48,48,0,0,1-7.71-12.93,68.11,68.11,0,0,1-4.41-30.86c.94-11.05,4.67-21.63,9.71-31.45,2.52-4.92,5.2-10.07,8.62-14.43a51.67,51.67,0,0,1,11.91-10.5c2.26-1.53,4.59-2.93,6.87-4.43a10.49,10.49,0,0,0,4.06-4.54c1-2.25.85-4.69.84-7.08q0-5,0-9.94,0-19.49.16-39c.07-6.6.2-13.16.7-19.74.24-3.14.51-6.28.76-9.43.11-1.35-.25-4.49,1.88-4.3s1.25,3.59,1.09,5c-.38,3.14-.6,6.3-.72,9.46-.24,6.57-.07,13.16-.09,19.73,0,13.15-.43,26.29-.62,39.43l-.12,9.57c0,2.66.25,5.52-.82,8a12,12,0,0,1-4.72,5c-2.56,1.74-5.06,3.56-7.54,5.41-4.73,3.54-9.7,6.88-13.09,11.81a71.59,71.59,0,0,0-4.08,7.12c-1.36,2.56-2.67,5.15-3.9,7.78-4.83,10.32-8.3,21.42-8,32.92.28,9.18,2,18.75,6.18,27a42.74,42.74,0,0,0,8,11.1c3.7,3.68,8.06,6.33,12.47,9.06,2.54,1.57,5.09,3.12,7.76,4.46,2.44,1.23,5.16,1.93,7.53,3.26,3.71,2.09,5.05,5.93,5.13,10,.13,6.43,0,12.88,0,19.31q0,10,.07,19.93.09,19.55.22,39.07c0,1.4.64,5-2,4.12-.88-.28-1.08-1.2-1.15-2-.12-1.39-.06-2.82-.07-4.22-.08-6.45-.11-12.9-.14-19.35C613.65,301.83,613.67,285,613.6,285Z"/><path class="cls-5" d="M136.27,123.24c6,0,12.44,1.21,17,5.39S159.72,139,160.05,145c.17,3.31.06,6.65.06,10a80.31,80.31,0,0,1-.22,10.29,22.92,22.92,0,0,1-3,8.82,25,25,0,0,1-2.86,3.85c-.53.58-1.08,1.14-1.65,1.67-.12.12-.31.23-.34.38-.08.36.3,1.15.38,1.5l.85,3.31,5.73,22.4,2.72,10.66,1,3.74a9.7,9.7,0,0,1,.52,2,1.43,1.43,0,0,0,.07.28H149.94c-.64,0-2.71.33-3.09-.16a3.79,3.79,0,0,1-.29-1.17l-.53-2.16-7.37-30.3a25.39,25.39,0,0,0-.94-3.87c0-.07,0-.26-.08-.31s-1.13,0-1.4,0h-6.78c-.3,0-1.71-.2-1.91,0s0,.65,0,.76v35.35a8.35,8.35,0,0,1,0,1.5c-.06.29.06.24-.12.35-.4.24-1.73,0-2.18,0H113.5c-.17,0-1,.12-1.13,0s0-1,0-1.14V124.1c0-.16-.08-.75,0-.86s1.13,0,1.32,0h22.55Zm9,24.28a9.49,9.49,0,0,0-1.89-6.28,8.13,8.13,0,0,0-5.8-2.46c-3-.19-6.09,0-9.11,0-.14,0-.87-.1-1,0s0,.3,0,.36a15.29,15.29,0,0,0,0,2.44v28.56c0,.14-.08.59,0,.71s0,0,.23.1a6.31,6.31,0,0,0,1.79,0h2.74c1.42,0,2.84,0,4.26,0a8.65,8.65,0,0,0,6.68-3c2.4-2.8,2.07-6.25,2.07-9.66v-10.7Z"/><path class="cls-5" d="M176.27,223.9V124.46c0-.22-.12-.92,0-1.11s.27-.11.55-.11H219c.61,0,.51,0,.51.63v12c0,.4.24,2.29-.06,2.52-.14.1-.74,0-.9,0H192.89c-.31,0-1.28-.14-1.44.08s0,.78,0,.95V165c0,.16-.1.8,0,.94s.08,0,.3.08a6.59,6.59,0,0,0,1.6,0h17.72c.13,0,.75-.09.84,0s0,.68,0,.81V179a10.05,10.05,0,0,1,0,1.9c-.07.37.08.2-.16.33a4.24,4.24,0,0,1-1.33,0H192.68c-.21,0-1-.13-1.17,0s0,.12-.06.29a5.39,5.39,0,0,0,0,1.27v25.39c0,.61-.09.58.52.58h27c.75,0,.51.25.51,1V222c0,.42.2,1.75-.12,1.94s-1.68,0-2.13,0h-41Z"/><path class="cls-5" d="M254,225.17a24,24,0,0,1-24.06-24c0-4.18,0-8.37,0-12.55V147.15a27.31,27.31,0,0,1,1.44-9.53,24.09,24.09,0,0,1,44.94-.66c1.67,4.14,1.69,8.41,1.69,12.78v5.79a6.17,6.17,0,0,1,0,1.77c-.13.33.09.09-.24.21a5.09,5.09,0,0,1-1.51,0H263c-.9,0-.7-.08-.7-1,0-3.45,0-6.89,0-10.34a8.8,8.8,0,0,0-10.72-9c-4.29.95-6.72,4.9-6.72,9.08v54.52a8.74,8.74,0,0,0,16.74,3.71,10.79,10.79,0,0,0,.7-4.43V182.16c0-.15.1-.81,0-.93s-.55,0-.72,0h-5.59c-.44,0-1.6.22-2,0s-.14-1.54-.14-2v-11.3c0-.36-.18-1.68.08-1.87s.73,0,.89,0h22.46c.51,0,.61-.13.74.23a8.62,8.62,0,0,1,0,2.38v27.49c0,1.69,0,3.37,0,5a24,24,0,0,1-24,24Z"/><path class="cls-5" d="M306.29,223.9H293.56c-.45,0-2.23.24-2.45-.1s0-1.19,0-1.48V125.23a6.17,6.17,0,0,1,0-1.77s0-.18,0-.22,1.26,0,1.47,0H304a6.62,6.62,0,0,1,2.13,0c.24.14.17.24.17.63v100Z"/><path class="cls-5" d="M369.14,198.9a29.38,29.38,0,0,1-4,15.82,20.84,20.84,0,0,1-12.06,9.34,29.22,29.22,0,0,1-17.05-.18,22.56,22.56,0,0,1-12-9.76,36.12,36.12,0,0,1-4.95-16.26c0-.22-.2-1.15-.07-1.28s.23,0,.29,0a6.83,6.83,0,0,1,1.28-.09l4.33-.29,5-.35,2-.13a4.75,4.75,0,0,1,1.24-.09c.06,0,.2-.05.25,0s.16,1,.19,1.25a33.39,33.39,0,0,0,.85,4.21,18.15,18.15,0,0,0,2.87,6.27,8.7,8.7,0,0,0,6,3.76,9.11,9.11,0,0,0,6.47-2c4.18-3.38,4.89-9.35,3.24-14.24s-5.47-8.36-9.17-11.84c-4.35-4.1-8.86-8.09-12.93-12.48-3.67-4-7-8.3-8.72-13.47a32.53,32.53,0,0,1-.93-16.95A23.23,23.23,0,0,1,328,127.8a22.06,22.06,0,0,1,14.18-5.72c5.56-.31,11.34.73,16,3.85a23.31,23.31,0,0,1,9.2,13.52,32.73,32.73,0,0,1,.84,4.26c0,.22.28,1.29.14,1.45s-.19,0-.24,0a4.88,4.88,0,0,1-1.2.22l-1.91.35-9.27,1.68-1.92.35a18.45,18.45,0,0,0-2.75-8.57,7.84,7.84,0,0,0-7.09-3.56c-6.74.23-8.49,8.33-7.6,13.73,1,6.38,5.42,11.64,10.11,15.81s9.54,7.92,13.54,12.81C364.81,183.81,368.94,191.24,369.14,198.9Z"/><path class="cls-5" d="M395.69,138.42H380.05c-.63,0-.48-.08-.48-.72V124.26c0-.31-.11-.88.1-1s1,0,1.29,0h43.61c.46,0,2.14-.22,2.35.13.13.2,0,.87,0,1.11v11.86c0,.29.22,1.86,0,2.08s-1.87,0-2.18,0H420c-2.86,0-5.85-.25-8.71,0-.38,0-.29-.07-.41.15a2.84,2.84,0,0,0,0,.92V222c0,.27.2,1.65,0,1.87s-1.61,0-1.87,0H397.1a4,4,0,0,1-1.2,0c-.33-.14-.1.09-.21-.23a3.69,3.69,0,0,1,0-1v-84.2Z"/><path class="cls-5" d="M439.12,223.9V124.46c0-.22-.13-.92,0-1.11s.26-.11.54-.11h42.15c.61,0,.51,0,.51.63v12c0,.4.24,2.29-.06,2.52-.14.1-.74,0-.9,0H455.73c-.31,0-1.27-.14-1.44.08s0,.78,0,.95V165c0,.16-.1.8,0,.94s.09,0,.3.08a6.67,6.67,0,0,0,1.61,0h17.71c.13,0,.75-.09.84,0s0,.68,0,.81V179a10.05,10.05,0,0,1,0,1.9c-.07.37.08.2-.16.33a4.24,4.24,0,0,1-1.33,0H455.52c-.21,0-1-.13-1.17,0s0,.12-.06.29a5.39,5.39,0,0,0,0,1.27v25.39c0,.61-.09.58.52.58h27c.75,0,.51.25.51,1V222c0,.42.2,1.75-.12,1.94s-1.68,0-2.13,0H439.12Z"/><path class="cls-5" d="M516.65,123.24c6,0,12.45,1.21,17,5.39S540.1,139,540.43,145c.18,3.31.06,6.65.06,10a82.17,82.17,0,0,1-.21,10.29,22.93,22.93,0,0,1-3,8.82,24.32,24.32,0,0,1-2.86,3.85c-.52.58-1.07,1.14-1.65,1.67-.12.12-.3.23-.34.38a4.82,4.82,0,0,0,.39,1.5l.84,3.31,5.73,22.4,2.73,10.66.95,3.74a8.61,8.61,0,0,1,.52,2,1.43,1.43,0,0,0,.07.28h-13.3c-.65,0-2.72.33-3.1-.16a4.1,4.1,0,0,1-.29-1.17l-.52-2.16L519,190.11a23.24,23.24,0,0,0-.94-3.87c0-.07,0-.26-.08-.31s-1.13,0-1.4,0h-6.78c-.29,0-1.71-.2-1.91,0s0,.65,0,.76v35.35a7.52,7.52,0,0,1,0,1.5c-.06.29.06.24-.12.35-.4.24-1.73,0-2.18,0H493.88c-.17,0-1,.12-1.13,0s0-1,0-1.14V124.1c0-.16-.08-.75,0-.86s1.13,0,1.33,0h22.54Zm9.05,24.28a9.44,9.44,0,0,0-1.89-6.28,8.1,8.1,0,0,0-5.8-2.46c-3-.19-6.08,0-9.1,0-.15,0-.88-.1-1,0s0,.3,0,.36a16.56,16.56,0,0,0,0,2.44v28.56c0,.14-.08.59,0,.71s0,0,.23.1a6.31,6.31,0,0,0,1.79,0h2.74c1.42,0,2.84,0,4.26,0a8.62,8.62,0,0,0,6.68-3c2.4-2.8,2.07-6.25,2.07-9.66v-10.7Z"/></g></g></svg>