<svg id="Layer_1" data-name="Layer 1" xmlns="http://www.w3.org/2000/svg" viewBox="0 0 1932.2 620.8"><defs><style>.cls-1{fill:#08142d;}.cls-2{fill:#102a2c;}.cls-3{fill:none;}.cls-4{fill:#fff;}.cls-5{fill:#07132d;}</style></defs><title>trees</title><path class="cls-1" d="M159.6,693.1l-.3-.4h.6Z" transform="translate(11.7 -464.5)"/><path class="cls-1" d="M16.8,647.7l.4-.2v.5C17,648,16.9,647.9,16.8,647.7Z" transform="translate(11.7 -464.5)"/><path class="cls-2" d="M1893.2,509.4l-.3-1.5,1.1.6Z" transform="translate(11.7 -464.5)"/><path class="cls-2" d="M1906.6,510.1l.5-.7.2.5h-.7Z" transform="translate(11.7 -464.5)"/><polygon class="cls-2" points="1750.6 267.2 1750.2 267.3 1750.3 267 1750.6 267.2"/><path class="cls-1" d="M323.4,774c2.3-2.3,4.7-4.6,8.1-5.3l.4.6-7.9,5.6Z" transform="translate(11.7 -464.5)"/><path class="cls-1" d="M366.4,843.9h.6l-.3.3Z" transform="translate(11.7 -464.5)"/><path class="cls-1" d="M323,774.9l.7-.2-.3.7Z" transform="translate(11.7 -464.5)"/><path class="cls-1" d="M1579.3,789.7l-7.8-5.5v-.6c.6,0,1.4-.2,1.8.1,2.1,1.8,5,2.7,6.5,5.3Z" transform="translate(11.7 -464.5)"/><path class="cls-1" d="M1883.4,707c.6-1,1.1-1.7,1.8.1l-1.4.3Z" transform="translate(11.7 -464.5)"/><path class="cls-1" d="M1909.9,625.9v-.7l.4.4Z" transform="translate(11.7 -464.5)"/><path class="cls-1" d="M1881.6,662.8l-.2-.6.4.3Z" transform="translate(11.7 -464.5)"/><path class="cls-1" d="M1738,707.6h.5c-.1.2-.1.3-.2.4Z" transform="translate(11.7 -464.5)"/><path class="cls-1" d="M1536.7,859l-.3-.3h.5Z" transform="translate(11.7 -464.5)"/><path class="cls-1" d="M1580,790.2l-.3-.7.7.2Z" transform="translate(11.7 -464.5)"/><path class="cls-1" d="M1534.1,903.4v-.5h.2l-.3.4Z" transform="translate(11.7 -464.5)"/><path class="cls-3" d="M1920.5,634.9a19.8,19.8,0,0,0-2.5-5.3v5.3A10.5,10.5,0,0,0,1920.5,634.9Z" transform="translate(11.7 -464.5)"/><path class="cls-3" d="M1553.6,1078.2v-.2h-5.3C1549.6,1079.4,1551.3,1079.8,1553.6,1078.2Z" transform="translate(11.7 -464.5)"/><path class="cls-1" d="M420,1084.6a2.5,2.5,0,0,0-.4.7C420,1085,420.2,1084.7,420,1084.6Z" transform="translate(11.7 -464.5)"/><path class="cls-3" d="M0,553.9v-5.8l-2.6.3-2.1,4.1Z" transform="translate(11.7 -464.5)"/><path class="cls-2" d="M0,548l-1.5-1.7-1.1,2.1,2.6-.3Z" transform="translate(11.7 -464.5)"/><path class="cls-2" d="M-1.6,525.8c-1.1,1.1-.1,3.7,1.6,6.8v-6Z" transform="translate(11.7 -464.5)"/><path class="cls-2" d="M-11.7,538.4c.7.8,2.2-.3,0,0Z" transform="translate(11.7 -464.5)"/><path class="cls-4" d="M1916.1,553.8a17.1,17.1,0,0,0,3.9-.3v-7.8C1917.3,548.4,1914.4,550.7,1916.1,553.8Z" transform="translate(11.7 -464.5)"/><path class="cls-4" d="M122.4,512.8a6.9,6.9,0,0,0,.4,1C123.5,513.5,123.4,513.2,122.4,512.8Z" transform="translate(11.7 -464.5)"/><path class="cls-4" d="M118.4,549.1c-.2,0-.2,0-.2.1h.2Z" transform="translate(11.7 -464.5)"/><path class="cls-4" d="M1920,600.1v-2l-2.8,2.6Z" transform="translate(11.7 -464.5)"/><path class="cls-4" d="M1920,571.6v-4.4c-1.3,1.8-2.4,3.4-3.3,4.4Z" transform="translate(11.7 -464.5)"/><path class="cls-4" d="M118.3,549.2Z" transform="translate(11.7 -464.5)"/><path class="cls-4" d="M81.1,628c-12.3-7.5-16.6-8.2-30.8-5.9,5.2,2.4,4.1,5.3-3.5,8.7,10.2,4.5,24.2.8,34.9-.2-2.7,5.5-7.3,8.4-13.5,8.6,8.3,3.9,16.5,3.5,21.8-4.6C85.2,636.5,82.5,628.9,81.1,628Z" transform="translate(11.7 -464.5)"/><path class="cls-4" d="M73.7,603,58.9,613.5H73.5c-1.6,1.6-1.2,3.4,1.2,5.3,5.9-3,21-4.7,23.4-12.1C89.8,608.4,80.4,609.5,73.7,603Z" transform="translate(11.7 -464.5)"/><path class="cls-4" d="M1851.3,645.5c2.8.4,3.7-1.6,2.7-6.1h13.3c-6.9-4.8-11.3-6.7-17.8-7.5s-13.7,3.1-21.2,1.8C1834.2,642,1845.9,637.2,1851.3,645.5Z" transform="translate(11.7 -464.5)"/><path class="cls-4" d="M1869.9,647.3c-8.9-1.4-13.5.9-21.5,5.4-5.7,3.2-3.3,8.5-11.1,9.4,5.8,6.1,13.5,7.6,21,3.8-3-1.1-13.7-3.4-12.2-9.6,11,1.4,24.1,4.7,34.8,0C1874.5,653.9,1877.2,648.5,1869.9,647.3Z" transform="translate(11.7 -464.5)"/><path class="cls-4" d="M1858.8,694.1c-9.3-3.1-10.4-6.3-16.2,2.6,2,.2,14.7,3.1,17.1,1.3Q1856.4,696.2,1858.8,694.1Z" transform="translate(11.7 -464.5)"/><path class="cls-4" d="M70.1,668.8c1,2.3-.9,3.1-5.5,2.3a32,32,0,0,0,20.5-1.8C78.4,659.9,69.7,668.6,70.1,668.8Z" transform="translate(11.7 -464.5)"/><path class="cls-4" d="M9.4,575.7,0,565.6v9.6C4.5,577,8.2,577.7,9.4,575.7Z" transform="translate(11.7 -464.5)"/><path class="cls-4" d="M9.4,546.3C8.3,544.2,3,537.8,0,532.6V548H0A64.9,64.9,0,0,0,9.4,546.3Z" transform="translate(11.7 -464.5)"/><path class="cls-4" d="M0,553.9c7.3,2,6.3,1.3,0-5.8H0Z" transform="translate(11.7 -464.5)"/><polygon class="cls-4" points="11.7 83.5 11.7 83.5 11.7 83.5 11.7 83.5"/><path class="cls-4" d="M118.2,549.2h0Z" transform="translate(11.7 -464.5)"/><path class="cls-4" d="M122.4,512.8h0Z" transform="translate(11.7 -464.5)"/><path class="cls-4" d="M187.6,702.3c-1.4,1.4,4.9.5,0,0Z" transform="translate(11.7 -464.5)"/><path class="cls-4" d="M18.1,485.2c0-.6-1-.8,0,0Z" transform="translate(11.7 -464.5)"/><path class="cls-4" d="M59,544.2c1,1.4,1.8,0,0,0Z" transform="translate(11.7 -464.5)"/><path class="cls-4" d="M151.8,547.3c1.1,1.3,1.8-.2,0,0Z" transform="translate(11.7 -464.5)"/><path class="cls-4" d="M1817,592.1c0-.1,0-.1-.1-.1A.1.1,0,0,0,1817,592.1Z" transform="translate(11.7 -464.5)"/><path class="cls-4" d="M1905.2,509.9l1.4.2C1905.9,509.1,1905.4,509,1905.2,509.9Z" transform="translate(11.7 -464.5)"/><path class="cls-2" d="M217.7,876.7a604.8,604.8,0,0,1-16.9-87.4c-2.6-21.9-12.8-63.6,6.1-78.6-10.5-7.3-22.5-4.9-34.2-3.7,7.7-7.2,16.3-3.6,22.9-12.1,18-23.5-25.3-4.2-25.1-14.1,7.9-.8,9.6-5.5,15-11.7-9.3-.9-23.4.5-31.3-5.3,7.9-1.4,16.4,2.4,23.9-1.6-5.9-4-6.3-11-2.6-16.7L155,643c5.6-2.8,14.5-.4,17.9-7.1-10.4-3.2-13.8-7.9-24.1-9.2.2-3.7,12-1.1,10.9-10.5-1.6-12.6-10.5-4.3-16.1-12.4h17.3c-6.5-6.6-15-9-23.5-11.4,32.9-7.1,5.6-4.2-1.6-13.2,11.5-.1,11.7-3,.5-8.8,2.4-4.2,4.9-8.4,7.4-12.6-2.8,1.4-4.7,1.2-5.5-.7a50.5,50.5,0,0,0,14.3-8.9c-1.7-2-18.9,5.8-19.7,6,5.6-13.7-2.5-5.7-.3-18.5a9.7,9.7,0,0,0-5.4,2c0-6.2,7.1-7.3,8-12.6.2-1.5-8.7-6.5-9.8-8.1,1.5-.6,18.2-5.7,17.3-8.7-6.7,1.9-13.2,4.1-20.2,4.4h0c1,.4,1.1.7.4,1a6.9,6.9,0,0,1-.4-1h0c-.6-2.5,1.6-4.2,6.7-5.1-13.5-4.8,8.7-6.3,6.9-13.8-19.6.9-5.5-15.8-14-29.3-4.7,8.8,4.7,19.9-8.5,19.9,2.7,5.6,11.1,4.2-1.4,8a21.9,21.9,0,0,0,4.6,5,22.7,22.7,0,0,1-13.6,6.5c1.5,8.3,11.2,8.2,13.7,18.9-7.3,2.3-12.2-6.3-19.3-5.8,3.3,5.4,13.2,12.2,14,19.5H95.7c6.8,5.5,14.9,8.6,22.5,12.7,0-.1,0-.1.2-.1h-.1c-7.4,5.9-14.1,11.5-24.3,9.7s-12.8-13.1-19.8-4.2c11.8,2.2,22.2,15.1,34.5,8.5-3.6,14.9-22.4,7.1-33.3,5.5,4.3,9.1,21.4,8.5,30.9,10.4-4,14-17.6,1.2-20,8.5,4.6,3.7,12.7,7.6,18.7,7.3-4.4,13.2-55.6,5.1-63.8.1,8,2.2,30.7-6.2,37-11.3-.4.1-22.8,5.5-23.3,3.5,8.1-3.3,6.7-5.3,10.2-12.2-2.6.2-21.9,4-23,.2,10.8-5.6,14.6-5.6,19-17.2a39.1,39.1,0,0,1-20.1.5c7.7-1.9,15.4-5.7,18.7-13.4-.8-1-21.7,3.5-22.7,3.5s16.6-9.6,17.7-16.1a23.2,23.2,0,0,1-18.2,2.6c5.5-3.3,18.2-7.6,19.3-14.5l-22.3-1c0-1.4,11.7-6.8,13.6-9.7H33.8c13-13.1,5-8.5-6.9-7.6,10.8-8.1,10.3-11.2-1.7-9.3,3.9-2.2,5.8-5.4,5.7-9.7-7.3,2.6-7.9-8.4-6.4-13.9-6.3.4,1.3,14.3-6.5,15.8,4.6,17.8-2.6-2.6-7.3-.6,1.6,5.5,3.3,11,4.9,16.4-14.1-6-4.6,7.9-.2,13.5-2,1.7-11.4-3.9-13.1-4.6-4.5,7.6,2.9,11.4,8.1,17.2-4,2.5-6.5,1.4-10.4-.5v6c3,5.2,8.3,11.6,9.4,13.7A64.9,64.9,0,0,1,0,548.1c6.3,7.1,7.3,7.8,0,5.8v11.7l9.4,10.1c-1.2,2-4.9,1.3-9.4-.5V1084H275.1c-4-20.5-8-41.1-12.1-61.6C252.9,972.2,230.9,926.2,217.7,876.7ZM64.6,671.1c4.6.8,6.5,0,5.5-2.3-.4-.2,8.3-8.9,15,.5A32,32,0,0,1,64.6,671.1Zm3.6-31.9c6.2-.2,10.8-3.1,13.5-8.6-10.7,1-24.7,4.7-34.9.2,7.6-3.4,8.7-6.3,3.5-8.7,14.2-2.3,18.5-1.6,30.8,5.9,1.4.9,4.1,8.5,8.9,6.6C84.7,642.7,76.5,643.1,68.2,639.2Zm6.5-20.4c-2.4-1.9-2.8-3.7-1.2-5.3H58.9L73.7,603c6.7,6.5,16.1,5.4,24.4,3.7C95.7,614.1,80.6,615.8,74.7,618.8Z" transform="translate(11.7 -464.5)"/><path class="cls-2" d="M1920,600.1l-2.8.6,2.8-2.6V571.6h-3.3c.9-1,2-2.6,3.3-4.4V553.5a17.1,17.1,0,0,1-3.9.3c-1.7-3.1,1.2-5.4,3.9-8.1v-9.4c-3.5,1.8-8.6,4.2-9.7,3.4,3-6.5,13.3-19.3-.6-13.8.4-1.6,5.8-15.9,3.2-17.1-.7,7.1-3.2,10.1-7.3,9.1a36,36,0,0,1-.4-8c-5.9-1.6.8-14.6-4.7-14.4,0,5.3,1.1,16.7-6.5,13-3,3.2,3.7,8.5,5.4,9.7-13.1,1.3-7.9,2.3-1.7,9.9l-16.3-2.1,9.6,9.6h-12.7c1.9,6.2,12,5,12.8,9.6l-22,1.4c2.4,7.5,13.2,9.6,19.4,13.8a20.4,20.4,0,0,1-17.2-1.8c-.7,7.2,13.4,13.5,17.2,14.7a56.4,56.4,0,0,1-23.7-3.6,25.7,25.7,0,0,0,19,14.3c-6,2.8-13.1.8-19.3-.1,4.7,11.9,8,11.5,19.2,17-1.1,4-21.3,0-23.4-.1,2.9,6.2,3.2,9.6,10.4,12.3-.5,1.9-24.7-3.6-24.7-3.7,8.8,8.1,25.7,9.7,36.9,12.6-8.2,5.9-18.4,3.1-27.3,1.5,1.4,2.5-27.5,10.3-34.4-2.2,4.2,1.7,20.2-2.4,18.8-8.2-45.7,0,5.5-8.8,11.3-17.9-12.2,1.6-25.5,6.4-34.3-3.1a.1.1,0,0,1-.1-.1c.1,0,.1,0,.1.1,2.1.2,33.9-9.9,34.1-9.8.7-2.9-.8-5-4.5-6.4-13.2,14.1-24.8,9.7-38.5.9l22.2-12.8c-1-1.8-15.1-.7-16-.7,2.5-8.2,10.7-11.9,13.4-19.1-4.7-3.1-13.9,5.2-18.9,6,2.3-11,11.8-10.9,13.2-19.5a20,20,0,0,1-13.5-6.3l4.9-5.1c-9.8-.6-9.1-4.2-1.4-7.1-17.9-4.3-3.1-7.1-9.6-21-9.4,15,6.1,29.3-14.4,29.3,4.7,9.4,9.2,15.4,13.7,19.4-7.1-.3-13.6-4.6-20.9-2.6l18.6,6.9c1.5,4.8-10,4-8.7,7.7s7.4,9.2,7.7,12.6a24.5,24.5,0,0,0-5.4-1.8c1.6,1.3,1,5.9.2,7.5-2.6,5.7-4.3,2.7-.2,10.9l-19.9-6c1.4,5.7,9.3,6.7,13.3,9.8-13.8,0,1.5,3.3,1.3,9.8-.3,9.5-11.8,9.4,2.3,11.9-2.5,4.8-14.8,4.3-18.1,4.6,2.4,8.8,8.3,7.2,17.1,8.8-10.3,2.8-13.7,5.8-22.5,10.5,2,5.8,15.7-3.9,16.6,2-18.3,3.9-21,18-5.1,21.3-12.5,10.1-35,5.2-7.5,17.1l-18.8,2.7c8.5,12.1-6.7,9.7-.4,15.3s13,2.1,22.2,2.7c-9.7,5.9-20.4,2.5-30.7,5.8,3.9,5.3,6.3,9.4,12.1,12.7-11.3.9-20.4-.2-30,6.5,10.1,14.4,18.3,8.8,30.6,18.1-11.7-.6-23.5-2.6-34,4.4,20.4,16.1,10.3,59.5,7.7,82.6a635.2,635.2,0,0,1-14.3,79.8c-12.9,53.4-34.6,103.2-44.7,157.1-1.5,8.5-3.1,16.9-4.7,25.4H1920Zm-91.7,33.6c7.5,1.3,15.3-2.6,21.2-1.8s10.9,2.7,17.8,7.5H1854c1,4.5.1,6.5-2.7,6.1C1845.9,637.2,1834.2,642,1828.3,633.7Zm14.3,63c5.8-8.9,6.9-5.7,16.2-2.6q-2.4,2.1.9,3.9C1857.3,699.8,1844.6,696.9,1842.6,696.7Zm3.5-40.4c-1.5,6.2,9.2,8.5,12.2,9.6-7.5,3.8-15.2,2.3-21-3.8,7.8-.9,5.4-6.2,11.1-9.4,8-4.5,12.6-6.8,21.5-5.4,7.3,1.2,4.6,6.6,11,9C1870.2,661,1857.1,657.7,1846.1,656.3Z" transform="translate(11.7 -464.5)"/><path class="cls-1" d="M376.8,1075.3c-5.3.4-2,1.1-8.8-2.2,7.5-6.1-4.4.4,3.3-8.4-23.8,0,5.1-5.2-6.8-11.3-1.5,4-3.3,12.2-9.3,10.3-3.7-1.2,5.3-4.3,5.1-4.3-7.1-8.8,16-11.1,22.8-11.5-2.7-4.9-7-7-12.9-6.2,8-7.2-.7-7.2,15.2-7.2a12.7,12.7,0,0,1-4.7-4.2c3.2-1.6,5.7-.8,8.9-1.6-.3-1.4-7.1-2.6-7.4-2.7.9-5,12.7-.6,12.2-4.1-21.8,0,4.5-5-3.3-8.1l7.7-9.3c-5.6-1-33.4,36.6-38.5,27.1-1.8-3.2,7.3-9.4,9.1-9.6-6.4-6.7,2.2-8.9,8.2-9.7a17.8,17.8,0,0,0-9.3-2.2c1.5-.3,10-4.3,8.3-7.3-19.6,10-1.4-8-6.4-12.4-2.2,1-7.2,5.3-9.8,3.5s1.6-10.3.3-12.6c-9.1,8.4-4.6,20.4-21.2,18.1,8.4-7.2-.3-2.2-1.4-10.2,8.6-3.1-.5-3.4,2.6-10.4a5.9,5.9,0,0,1,4.6,4.8c2.5-3.5-.2-6.4-2-9.6a10.8,10.8,0,0,1,8.1,4.5c1.4-9.4,15.2,4.2-3-10.7,8.5-1,11.3,5.9,15.6-2.3a7.7,7.7,0,0,1-6.8-4.5c-.1-1,8.9-3.6,10.2-6.4,2.6-5.6,1.3-17.6,3.6-21.9.9-1.8,7,.5,7.8,0-8.5-9.1.6-1.9.6-10.8-3.9,2.6-16.8,13.5-16.8,2.3,5.6,2.3,3.7.3,4.8-3.7a7.9,7.9,0,0,0,6.1,1c4.5-4.9-7-5.6,7.8-9.6-.9-4-21.8,5.5-24.9,1.1,7-5.2,3.5-6.6,14.2-12.9a28.6,28.6,0,0,0-9.5-2.2c8.2-3.1,10.8-6.4,7.6-9.7-11,7.5-20.3,26.4-32.9,30.6-3.8,1.2-7.4-1.7-9.4-3.3s12.1-4.8,12.8-5.5a6.4,6.4,0,0,1-6.5-3.6c7.5-.5,6.5-3.3,14.4-3.3-2.1-2.2-15.3-13.4-.7-10.9.6-1.4-.4-2.3-2.9-2.5a42.9,42.9,0,0,0,8.8-1.8c-2.6-1.1-5.3-1.2-7.2-3.3,8.9-6,12.1-8.7,23.8-11.9-4-1-5.5-2.5-4.3-4.6,19.3,6.1,3.5,2.1,4.2-3,1.6,0,9.2-3.2,9.4-4.4-5.5-2-18.2,5.7-19.7-.8,3.2-.6,9.2-14.1,7.9-16-10,9.7-31,43.6-46.5,24.1.4-1.3,15.4-4,14.2-4.1-.2-3-5.3-10.9-1.7-14,1.9-1.6,10.5,1.5,14.2-.8s-.4-4.7.3-7.3c1.6,2,3.4,2.7,5.5,2.2a20.9,20.9,0,0,0-12.9-9.6q.6-3.9,6.9-1.2c.1-1-3.4-3-4.2-3.7A16.6,16.6,0,0,1,351,828a13.3,13.3,0,0,0-4.8-2.3c2.7-4.3,6.3-4.8,2.5-8a19.7,19.7,0,0,0,8.3-3.5c-15.5.9.4-1.7,0-9.1-15.7-.9-29.4,28.1-37.9,28.5a44.9,44.9,0,0,0,.8,9.7c-2.7,4.1-9.3-3.7-10.2-4.3a2.9,2.9,0,0,0-.8,3.5c-3.1-1.6-3.9-17.5-3.3-18.6,2.3-4.2,11.3,3.8,11.3-6.5,5.5,2.4,7.6,2.5,6.2-3.8,10.7.5-3.6-2.8,7.2-3.4-.7-3.7-4.2-4-7.4-6.2,2.9-2.7,7.9,0,12.3.1l-4.1-4c-1.8-1.4-2.4-2.2,0,0s9.7,6.8,9.5-.9c-16.7,0-1.4-1.4,2.4-1.9-3.6-1.8-3.2-3.2,1.4-4.4-.2-.2-3.7-4.6-4.6-7.2-4.1,7.5-15.9,20.1-29.8,15.1,7.3-4.9-5.5-5.5-5.5-11,0-11.2,19.4,10.8,8.2-4.1a16.6,16.6,0,0,0,11.8,1,55.4,55.4,0,0,0-9.6-2.2c5.3-2.3,7.8-4.4,13.3-5.4a29.7,29.7,0,0,1-5.2-4.2c-2.1,1.6-6.7,7.4-8.4,7.7.4-2.7,1.6-5,.1-7.3-2,2.1-4.4,18.1-10.1,7.3,6.8-4.4-3.9-.9,6-6-.4-1.5-4.2.2-5.7-1.7,4.2-2.4,8.6-3.9,10.8-8.2-3.2-2-5,5.2-7.5.7,3.5-2.8,20.1-15.8,19.8-16.8a8,8,0,0,1-7.8,1.8c.9-1.3,9.1-9.5,7.3-12.1-3.3,3.6-6.8,10.8-12.6,9.7,2.6-1.1,3.4-2.9,2.3-5.6-1.3,1.4-22.1,12.2-18.1,1,2.8-7.8,8-4.3,13.9-9.4-.9-1.4-13.7,3.1-14.2,3.3-1.7-7.4,11.6-8.1,15.6-12.9-.6-1.4-13.1,6.6-13.2.2,9.9-1.7,12.1-8,11.3-15.5-.2.2-10.6,9.9-12.5,6.2-1.1-2.1,13.1-22.7,6.1-24.3-.6,2.2-3.8,19-8.4,17.2s-3.5-34.3-4.8-40c-2,.2-.8,43-1.1,49.3-2.9-3.3-11.5-11.3-15.8-12.1,3,10.4,16.6,14.9,18.1,24.4a22.6,22.6,0,0,1-10.5-7.2c0,4.1,9.3,10.5,5.8,14.5-5.1,6-15.1-6.5-19.6-2.3s17.9,10.7,16.9,14.1c-7.6-3.6-11.4-2.6-11.6,2.8a47.4,47.4,0,0,1,9.7,3.7c-2.6,3.6-7.7,1.7-11.1,3,2,4.3,6.8,4.8,9.7,8.3-14.1,8.4-17.8-15.5-25.7-13.9,1.5,13.5,19.1,17.2,20.9,27a29.6,29.6,0,0,1-10.7-4.8c1.5,6.5,18,10.9,5.7,15.2s-24-18.3-20.4-28.2c-2.9.5-10.9,3.3-12.9-.3,6.3-1.8,10.5-7.1,16.8-8.1-2.3-4.5-9.1-.8-12.5-2.1,2.6-2.4,11-3,10.7-8.6a6.5,6.5,0,0,0-5.5-1.9c4.4-.6,6.7-3.1,7-7.4a32,32,0,0,0-8.6,2.2c.5-6.2,5.3-7.3,4-13.4-1.7,1.2-14.7,27.1-19.7,23.4-1.9-1.4,4-8.6,3.9-9.8-4.1,2.7-7.8,8.2-12.5,4.2-.7-3.5,1.1-5.3,5.5-5.1-2-2.5-6.3-13.7-.1-6a5,5,0,0,0-1.1-5.8c4.8-.8,6.3,2,10.1,4.6.4-6.5,1.4-5.7,8.1-9.4-8.7-2.1-18.6,6.1-29.2,3.4,5.4-3.4,11-2.4,17.5-2.8-13.8-7.8,4.8-7,6.8-7.6-5.3-4.1-.6-8.1,6.2-7.6-2.9-5.7-4.8,1.6-10.5-.7.1-.8,6.7-12.2,5.8-13-4.7,4-7.4,15.5-14.4,14,.9-2.6-6.8,18.4-9,5.9-.9-4.8,10.2-3.3-.4-5a16.5,16.5,0,0,1,6.7-6.4,7.1,7.1,0,0,1-3.6-2.8c2-.5,8.7,1.6,9.1-.2-3.1,0-4.6-1-4.3-3,9-1.3,2.2-5.3-3-9.3a12.2,12.2,0,0,1,9.2-.4q.9-7.1-5.7-6.3c3.4-2.5,8.7-6.3,9-11-1,1.1-6.6,6.4-7.4,5.8-3.2-2.6,6.5-13.3,8-14.6-7.8-4.6-6.7,18.5-17.6,12.1q-3.2,3.3,4.5,6c-7.1,1.9-5.8-3.9-12.9-3.6,3.3-2,3.4-4,.3-6.2q8,4.9,8.7,0a17,17,0,0,1-10.1-4.2,18.6,18.6,0,0,0,10.6-3.7,60.2,60.2,0,0,0-9.4,1.9c-1.4-5.2,3.3-4.9,4.6-8.9a35.8,35.8,0,0,0-5.3,1c-2.4-4.8,20.4-12.1,16.8-16.6-3.6,2.2-10.4,9.7-14.2,9.9a11.9,11.9,0,0,0,3.9-9.4c-2-1.7-3.9,6.4-5.9,6l-.9-41.7c-6.9,5.4-1,40.4-.8,47.4a74.3,74.3,0,0,1-8.2-5.6c4.2,8,8.6,21.4,8.6,21.2l-7.1.5c6.6-.4,8.8,2.8,6.4,9.7a37.7,37.7,0,0,1-4.3-4.6c8.8,19.8-20.5-8.8-22.4-10.3-.5.4,9.9,18,9.9,17.4a5.2,5.2,0,0,1-5.1,2.5,53.8,53.8,0,0,1,10.4,2.3,15.6,15.6,0,0,0-3.7,4,8.4,8.4,0,0,1,8,.5c-3.1.7-4.6,2.3-4.4,4.7,9.9.5,1.6,5.1,2.7,7.2,3.4-1,6.3-1.2,9,1.2a11.3,11.3,0,0,0-9.7,3.4c1.3.3,9.3-2.4,9.6.4-8.8,1.5-12.9.8-21.5.2.3.5,9,6.6,10.6,7.8,2.8-2.8,5.8-6.8,9.5-2.6-11.8,16-8.8,3.6-5.9,13.6,2,6.5-35-9-18.3-13-3.4-1.6-18.1-16.6-18.1-16.6s5.2,6.8,5.4,9c.6,7.3-4.9,2-5.3,6.5,4,1.6,12.1,3.3,10,8.2,1.9.2,11.3,4.1,10.8,7.9s-11.5.7-13.6,2.1c2.6.8,5.1,1.7,7.6,2.7a11.2,11.2,0,0,1-3.8,6.4c3.1-.5,4.9.9,5.5,4.3a12.8,12.8,0,0,1,8.7-6c.3.2,2.5,5.2,3.6,5.9-3.9-.8-5.8,0-5.8,2.4,3.1.8,5.9.8,9,1.3-.7,2.6-5.2,4.9-4.6,6.8a17.5,17.5,0,0,1,8.5-.3c-2.6,9.8-31.4,6.1-23.8-4.7-2.2-2.8-3.7,1.9-5.5-.7s3.1-4.8,1.8-6.1c-8.1,4.9-6.4-7.2-13-11.4-6.4,6.8,15.7,14.7.2,14.7-.2,2.4,7.9-.4,7.9,2.6a4.1,4.1,0,0,1-3.9,2.1c3.5,8.3,4.6-1.8,10.3,7,1.2,1.9-13.4,1-14.3,1.9,6.5.9,5.9,5.5,16.7,1.3.8,1.5-5.9,7-7.4,7.8,3.3-.3,7.5,2.9,10.2,8.9-5.8,1.3-8.5,4.4-8,9.5,7.1-3.6,9.1-8.8,6.9,4.2,3.9-3.2,4.3-2.6,9.3-3.8-.3,20.6-28.8-10-35.8-17.3.5,4,.1,12.2-.7,14.6,5.2.4,6.9.1,2.2,2.7a3.6,3.6,0,0,0,4.2,2c1.2,7-5.3,1.2-5,5.1s13.1,2.1-4,12.2c7.6,4.5,8.6.1,15.7.3-.7,3.5-7.7,4.5-5.9,8.5a10,10,0,0,1,9.1-2.1c0,6.2-16.2,5.4-18.3,4.3s-3-15.4-8.7-17.6c-5.9,8.4,9,9.9-2.2,17.2.3-22.4-10.2-3.5-21.6-12.5a25.6,25.6,0,0,0,13.4-6c-2.6-2.1-11.7-1.3-13.6-4.2,22.9-11.1,5.3-1.9-1.4-8,2.7-1.5,7.3-2.6,8.7-5.7a73.1,73.1,0,0,0-9.3-.7c-1.3,1.1-3.6.1,0,0,1.1-.8,1.6-2.8-1.7-7.4-4.1,16.1-21.8,5.3-4.1,14.8-.5,1-6.6-.9-8.4-.8.6,4.6,4.7,6.1,8.2,8.7-3.8-1.9-7.3-1.4-10.3,1.6,13.1,7.9,13.9,6.4-1.2,6.4-.3,2.2,8.8,7,10.4,8.8a10.5,10.5,0,0,0-9.6.7c3.7,2.8,8,4.3,11.7,7.2-2.5,4.4-15-10-19.1-4.7,0,3.1,1.8,4.7,5.1,5-9,7.7-5.3-28.7-10.6-33.1-.9,10-.5,20.1-2,29.9s-15.2.8-3.4,8.6c-16.6,6.4,1.7,24.7-17,16.1-1.1,1.7,4.6,19.7,6.5,23.8-5.9-.9-11.8-4.1-17.6-4.5,6.7,8.5-15.8,7.8-21.8,8.8a83.8,83.8,0,0,1,16.5-19.4q-5.7,4.2-7.2.3c4.9-4,26.4-14.9,21.8-23.6-10.6,3.1-19.2,2.6-30,4.2,2.5-9.8,17.5-.6,22.4-6.6.1,0-1.2-8.3,0-9.2-15.1-1.3-27-.5-41.4,3.6-.7.6-1.2.8-1.4.5l1.4-.5c4-2.8,15.2-15.9,17.7-13.6-.9-6.4,1.8-7.5,8.4-3.5-.4-.5,15.5-11.8,19.6-14.3-7.6-2.3-19.5,1.1-8.9-5.6-15.1-2.1-25.4-12-41.5-13.8,7.7-16.1,21.1-21.7,35.1-30-9.1-1-1.8-3.1-11-2.7-7.4.4-15.6,7.9-24.3,8.2,8.8-8.2,9.8-2.3,11.9-12.6,4.7,4.8,10.4-7.7,14.2-10.7-2.2-4.7-23.3,5.8-27.9,5.8,5.7-3,8.9-17.4,13.6-16.7a2.9,2.9,0,0,0-2.6-3.5c3.9-2.6,8.1-6.8,1.5-11.1-4.1,4.4-9.2,14.5-20.7,13.5V1078H376.4A17.6,17.6,0,0,1,376.8,1075.3Zm-10.2-76.9c-.5,1.7-.9,3.5-1.3,5.2C361.4,1000.6,361.2,999.1,366.6,998.4Zm-5.5,11.4c-.2,1.4-.3,2.9-.4,4.3l-4.1-.4Q355.4,1010.6,361.1,1009.8ZM344.2,845.7c-5.2-.8-6-4.8-9.7-7.9C338.7,834.1,345.7,841.6,344.2,845.7Zm-25.1-42.3c1.7,4.7.2,7.2-4.3,7.3C315.2,802.9,314.7,806.2,319.1,803.4Zm-6.2,7.7a36.8,36.8,0,0,1,1.2,10.5C308.6,823.2,309.4,813,312.9,811.1Zm1.4-53.5c2.2,4-7.1,7.8-8.7,4.3A50.3,50.3,0,0,1,314.3,757.6Zm-63.4-11.4a2.7,2.7,0,0,1-3.5,1.9C246.6,745.3,247.8,744.6,250.9,746.2Zm-23.6-53.7c-7,4.7-6.7,3.5-9.5-4.2A15.3,15.3,0,0,1,227.3,692.5Zm-45,76.3c1.4-1.6,2.9-1.4,4.5.7C184.1,772.5,182.6,772.2,182.3,768.8ZM-2,781.7c3.7,0,15.5-6.6,15.8-9.5,3.5,4.3,6.4,9.8,13.2,8C21.1,787.8.6,793.7-2,781.7Zm52.2,90.5c-1.2,2.9-.1,4.8,3.4,5.6-14.1,3.8-1.8,2.5-7.4-5.7a11.4,11.4,0,0,1,9.2-1.3c-.2-3.3.8-4.9,2.9-4.9C60.8,875.4,58.3,873.4,50.2,872.2ZM96.3,850l1.5-4.2Q102.6,850.3,96.3,850Zm3.1-25.2,2.8-3.8C105.9,826.1,99.5,824.9,99.4,824.8ZM197.3,730c2-5.2,4.8-5,6.8-.5A22.1,22.1,0,0,1,197.3,730Zm.6,30.2c3.4,2.4-1.3,8.5-7.3,4.3C190.5,764.5,196.7,759.4,197.9,760.2ZM129.1,884.6c-5.5-.3-6.6-1.7-3.2-4.4C123.1,876.3,129.7,881.9,129.1,884.6Zm-5.4-35c1.2-3.2,2.3-3.1,5.9,0Zm3.7-17.4c.8,1.7,1.5,3.3,2.2,5C124.7,836.4,124,834.7,127.4,832.2Zm-1.1-17.6c8.3-2.6,3.8-8.1,7.7-9.3C133.9,804.8,135.2,828,126.3,814.6Zm15.1,13.5c-2.6-1.7-3.9-3.6-4.2-5.3a6.6,6.6,0,0,1-2.4,4.8c-4.5-3.6-3.8-6,2.1-7.1.1.3.1.6.2.9.3-4.9,7.6-8.6,9.8-6.3l-4.1,3a5.6,5.6,0,0,0,6.3.9,6.3,6.3,0,0,0-1.7,3.8,3.5,3.5,0,0,0,4.6-1.6C154.6,823,142.1,825.6,141.4,828.1Zm16.1-6.1c-5,2.8-1.9-2.3-1.9-3-4-1.5,2.2-2.4,3.5-2.2A4.4,4.4,0,0,0,157.5,822Zm6.2,10c-1.7-2.7-7.3-20.8,2.5-18.1-5.1-1.4,4.3,14.1,5.1,15.1h0c.1.1.1.1,0,.1a6.7,6.7,0,0,1-3.3,5.1l4.8,1.2C174.4,847.1,163.2,831.3,163.7,832Zm21.7-25.3c-2.9-4.1-10.9-19.4,2.1-9.3.2-2.8,6.3-7.6,8.7-3.7S187.3,804.1,185.4,806.7Zm9.5,8.4c-.2-1.2-5.1-6,.5-6.8a3.9,3.9,0,0,1,2.8,3.2c1.3-1.1-.3-6.1,2.4-5.9C209.2,806.3,195.5,818.3,194.9,815.1Zm6.9-31.3c1.6-2,4.4-3.5,6.2,0C205.1,785.6,203.1,785.6,201.8,783.8Zm4.6-42.1c-4.3,1.6-.6-4.2,0-5.1h0Q210.3,739.6,206.4,741.7Zm-.4-23.6c.5-6.3,8,1.1,0,0Zm39.8,63c4.7-1.4,9.2,1.1,9.6,7.2a17.1,17.1,0,0,1-10.2-4.6C248.5,784.1,247.4,783,245.8,781.1Zm-3,3.9a15.2,15.2,0,0,0,1.6,5.5c-3.8-.1-6.1-1.9-6.8-5.6C247.4,791.9,238.3,785.9,242.8,785Zm-25.9-56.1c-.3-5.8,6.9,1.5,0,0ZM211.1,743l2.7-3.9C222.7,739.7,209.7,749.2,211.1,743Zm4.5,20.2a7.5,7.5,0,0,1,5.5-3c-7-2.3-.7-3.4-8.3-4.4-2.4-5,7.9-1.9,9.2-.6-1-3.9,3-1.4,4.3.5,1.5-8.1,3.6-6.3,10.4-4.5C234.5,758.5,223,765.5,215.6,763.2Zm16.7,2.6c-.1-3.4,1.1-5,3.7-4.9C237.7,763.4,236.4,765.1,232.3,765.8Zm-1.8,40c4.2-1.1,7-.1,8.5,3C240,813.5,226.2,807.5,230.5,805.8Zm6.6,27.2h0c-.2.1-.2,0,0-.1-1.6-3.7-.4-5.4,4-5.2S238.2,832.1,237.1,833Zm21.8-17.8c.1,0-4,3-5.8,3.1,1.6,3.4,4.1,6.9.7,10.8-6.8-7.3.9-16.2,3.2-23.6-4.8,1.3-12.1,13-18.5,9.1,3.3-4.3,4.9-3,3.5-9.2,3.9-1.7,12.7,2.5,12-6.5-6.6-.7-11.3,7.2-18.4,3.9,5.3-9.3,14.6-15.1,25.8-10.7-2.5,2.8-6,3.6-10.4,2.3a15.9,15.9,0,0,0,13,1.6c-2,2-2.9,2-5.5,3.5,2.4,3.4,1.9,9,8.2,5.7,2.7,6.8-.4,12.9-4.5,14.8a4.5,4.5,0,0,0,5.9.7C264.8,828.1,259.6,819.1,258.9,815.2Zm13.7,78.3c-.4-2.1,6.3-2.7,0,0Zm-.6-30.1c2.6-1.3,2.7-1.2,4.2,1.9Zm4.6-48.8c-5-1.1-2.2-3.7-.1-6.3C280.7,810,278.3,811.9,276.6,814.6Zm2.3,16.9c.4-4,8.6,4.9,8.4,4.7C285.9,837.6,278.7,833.2,278.9,831.5Zm8.4-71.2a4.3,4.3,0,0,1-1.7-4.9,3.5,3.5,0,0,1,4.5,2.4A4.1,4.1,0,0,1,287.3,760.3Zm14.6,40.2c-.8-2,5.9-4.9,6.3.4A6.2,6.2,0,0,1,301.9,800.5Zm4.8,1.6c3.4.6,3.6,1.8.5,3.7C304.9,804.6,304.8,803.3,306.7,802.1Zm24.8,149.8c1.2-4.1,3.3-7.4,4.4-11.7.9,1.4,8.9-5.3,13.4-2.3,0-4.7,2.4-6.3,7-4.7a4.8,4.8,0,0,1-.6-4.9c8.1-4.6,6.7,8.5,4.1,11.4s-11.2-1-14.7,1.2S339.2,955.3,331.5,951.9Z" transform="translate(11.7 -464.5)"/><path class="cls-1" d="M1903.9,643.6c1.1.8,11.8,7,12.3,8.1,3.6,8.6-6.1,10,.4,19.1-12.4.7-19-2.5-29.8-8.3-2.2,2.3,4.4,9.5,5.9,11.3-.9-1.1,3.8,5.1,6.1,6.5s10.7-2.9,13.7-2.3c-4.6,8.1-12.6-1.5-2.6,9.9-1.9-.3-22.8-5.5-25.4-7,3.4,4,14.8,20,15.3,15.5a17.8,17.8,0,0,1,4.3,7.7c3-10.5,8.2,10.7,10.6,14.5-12.5,3.8-19-4.1-26.3-11.6a8.5,8.5,0,0,1-3,1.5c4.5,7.2,1,5.4,5.9,8.6a3.1,3.1,0,0,0-2.6,3.5c5.2-1.2,8.8,13.8,13.2,16.7-10-.9-17.2-7.1-27.4-6.4,1.9,3.4,9.5,16.1,14,11.4,3.2,10.8,1.8,3.1,11.5,12-7.5,2.1-13.1-3.8-19.7-5.3s-9.2-2.1-10.4-2.4c1.3.5,3.4,1.9-4.7,2.7,6.2,3.7,22.7,19.1,25.3,16,2,2.9,8.3,10.4,9.5,14.1-15.6,1.4-26.4,11.6-41.2,13.7,9.8,6.3-1.6,4.1-8.3,5.3-1.4,7.9,26.7,13.8,27.4,18.1,2.2-2.4,15.7,12,18.5,13.8l.6.2c-.1.1-.3,0-.6-.2-14.5-3.6-27.2-5.7-42.3-3.6,3,2,1.4,3-1.4,4,4,2.7,4.6,4.3,1.7,4.9,4.9,7.4,17.9-3.9,22.4,6.7-10.6-1.2-19.8-1.6-30.2-4,1,3.8,4.1,11.5,6.2,13.6s25.7,12.2,8.8,9.6c5.9,6.4,12,12.4,16.4,19.4-5.4.3-27.3-2.3-22.5-8.3-1.1-1-16.1,3.8-16.5,3.9-1.2-1.9,6-23.1,6.4-23.8-19.3,8.2-.2-10.5-17.7-15.9,3.9-.4,5.6-1.7,5-3.9-13.6,0-9.1-23.8-10.4-34.8-9,6.4,2.8,38.1-10.6,33.8.4-2.2,6.9-1.6,5.3-5.4s-16.7,4.3-19.2,4.8c3.2-3.3,7.7-4.9,11.7-7.3a8.9,8.9,0,0,0-9.4-.9c.5-.7,10.3-8.5,10.3-8.8-15.3,0-14.7,1.6-1.5-6.3-2.1-4.5-6.3-2-10.1-2a17.2,17.2,0,0,0,8.2-6.9c1.8-3.1-7.9-.2-8.4-.1a79.4,79.4,0,0,1,9.1-6q-14.5,6.3-13.2-9.3c-2.7,3.2.8,6.5-.9,10a25.4,25.4,0,0,0-10.2-2.4,22.8,22.8,0,0,0,8.8,6.2,100.6,100.6,0,0,1-12.2,2.2,38.2,38.2,0,0,0,10.7,5.3c.1,3.4-10.9,1.5-13.2,4.6.6,3.8,10.3,5,13.2,5.8-7.5,6.9-12.4-3.4-20.7.2,1.2-.5-.5,8.4-1.2,12.1h0a8.9,8.9,0,0,0-.2,1.1c-.1.6-.2.6,0,0a8.9,8.9,0,0,1,.2-1.1c-12.4-6.6,1-6.4-1.5-16.6-8.5,1-7.7,16.3-9.4,17.4s-17.4,2.2-18.2-4.3a9.3,9.3,0,0,1,9.1,2.2c1.3-3-4.9-6.9-6.3-8.7a133.9,133.9,0,0,1,15.5.6c.8-3-9.7-5.4-10.1-8.6-.9-7,6.4-.8,6.8-4.4s-5.1-.9-5-5.1a4.2,4.2,0,0,0,4.3-2.1c-5.5-2.7-2.7-2.2,3.6-2.8-8.9-7.4,3.6-9.2-.7-15.9,0,0-36.5,41.4-37.3,18.8,1.9-.5,7.6,2.4,8.7,3.3,2.6-1.3,2.3-4-.8-7.9a10.5,10.5,0,0,1,7.7,3.8c.7-5.1-1.7-8.2-7.4-9.2,1.6-3.7,6.2-2.6,7.2-4.5a25,25,0,0,0-3.9-4.7,21.2,21.2,0,0,1,7.1.1,69.3,69.3,0,0,0-5.8-5c-1.8,0-2.8-.4-2.3-1.6l2.3,1.6c5.3-.1,17-4.1,14.9-3.8-1.5-1.5-15.4-.3-14.3-2,4-6.2,7.7-1.2,10.4-6.9a15.6,15.6,0,0,1-4.7-2.2,19.9,19.9,0,0,1,8.6-1.9c-.5-5.6-7.9,6.4-4.2-4.5,1.1-3.3,4.5-7.1,4.8-10.6a27.1,27.1,0,0,0-9,13.7c-1.6-2.6-3.2-3.4-4.8-2.3,1.9,3.1,4,3.4,1.3,7-1.6-1.3-3.1-1.5-4.7-.6,6.8,9.6-17.9,14.8-23.9,5.3a17,17,0,0,1,9.5-.3c-.3-.3-6.3-4.4-5.4-6.5a30.4,30.4,0,0,1,9-1.6,14.7,14.7,0,0,0-5.6-2.4c7.7-3.9.2-10.5,12.1.1,2.8-4.4.3-3.6,5.4-4.2a16.9,16.9,0,0,1-3.8-6.3c2.5-1,5-2,7.6-2.8a45.8,45.8,0,0,1-12.8-.8c-2.6-2.4,9.9-9.2,10.7-9.3-5-4.3,6.6-7,9.3-8.1-3.2-3.7-5.2-6.1-4-9.4-5.2,4.5-13.2,10-14.5,10.4,17,3.6-17.9,21.5-17.8,13,0-2.6,4.2-1.2,4.2-3.2s-8.2-7.8-10-10.1c3.2-4.8,7,0,9.5,2.5a100.7,100.7,0,0,1,10.6-7.5c-6.1-1.1-14.9.1-21.5-.4-.6-3.5,7.7-.5,9.4-.5a9.1,9.1,0,0,0-9.7-3.2c2.7-2.3,8.8-1.2,9.4-1.8-2.1-2.9-4.2-6.4,2.2-6.9a5.5,5.5,0,0,0-4.2-4.6,7.9,7.9,0,0,1,8-.5,8.9,8.9,0,0,0-3.5-3.7c.5-2.7,7.9-1.8,9.8-2.1.2-2-4.6-.6-4.7-3s12.7-14.7,10-17.5c-6.3,4.9-7.7,13.8-16.1,15.7-13.8,3-4-4-6.9-5.6q-.7,6.4-4.2,4.8c-2.2-7.4.6-10.6,8.6-9.5a64,64,0,0,0-8.8-.6c.5-2.6,5.1-15.3,9.2-21.9-2.9,2.1-5.7,4.4-8.7,6.4,0-3.3,2-47.1-.8-47.2-1.4,9.5,3.6,34.6-1.9,41.5-.5-3.4-2.1-5.5-5.1-6.2,1.1,3.2,2.4,6.4,3.8,9.5-4.5-1.4-10.5-7.9-14.2-10.2-.5,2.8,18.3,16.5,16.8,17s-3.5-1.4-5.2-1.2c2.3,6.1,12.9,11.5-4.1,6.6-.8,2.8,8.7,3.7,9.5,3.9-.5,4.9-10,1.9-9.5,5.2,1.9-.2,12.6.6,8.7,5.8-1.8-2.8-21.7,12.9-7.4-2.4-7.5-.4-13.7-14.3-18.4-12.4,3.2,2.6,9.3,10,8,14.5a12.4,12.4,0,0,1-7.7-5.6c2.3,6.5,2.7,6.1,8.6,10.3-3.9.4-5.6,2.6-5.1,6.4a20.1,20.1,0,0,1,8.8.4c-1.6,4.3-13.5,8.4-2.7,9.6q1,3.1-4.5,3.3c4.9,1.8,5.7-1.4,9.5.2a7.2,7.2,0,0,1-3.6,2.5,22.7,22.7,0,0,1,6.7,6.4c-2.6-.8-4.1-.4-4.4,1.3,11.1,6.2-10.8,10-4.5-1.7-1-.9-14.6-14.1-15.5-14.1a83.9,83.9,0,0,1,6.4,12.7c-5.5,2.5-7.6-4.8-10.5.5,6.5.1,11.5,3.6,6.2,7.8,6.4,1.8,15.7-2.1,6.8,7.8,5.1-1.7,12.7-.3,17.3,2.3-9.1,4.8-21.5-5.8-28.9-2.6,5.9,2.2,6,3.5,8.2,8.7,3.6-2.5,5.1-5.3,9.8-4.4-1.9,3.5-3.6,9.1,1.5,2.6,1.3,5.1.8,5.2-2.9,9.2a10.1,10.1,0,0,1,6.9,3.5c.5,8.5-13.1-2.2-13.5-2.6s6.4,10.3,2.8,10.1c-8.5-.6-14-19-18.5-23.6-1.7,6.1,2.7,6.9,3.8,13.2a32.4,32.4,0,0,0-8.6-1.9c.3,4.3,2.6,6.7,7.1,7.2-12.5,1.9-.5,8.3,5.2,10-3.3,2.6-9.4-.1-13.3,2.1,6.1,2.8,10.9,6.7,17.3,8.5-1.4,4.6-9.8,1-12.7.4-1.8,4.1,2.6,10.7-1.4,16.9-1.5,2.2-18.3,12.5-21.1,11.7-16.7-4.9,28.8-17.4-2.2-11-.4.3-.6.4-.6.2l.6-.2c3.9-2.9,25.7-30.1,17.6-27-5.8,2.3-10.4,21.4-23.3,14.2,1.8-1.4,10.3-5.7,9.6-8.5-.1-.4-10-1.6-10.8-2.8a36.1,36.1,0,0,1,9.6-3.7c-.1-5.4-4-6.5-11.7-3.2,1.2-3,19.3-10,17.1-13.7s-16,6.1-19.4,3.1,5.1-11.2,5.6-15c-.9,1-8.4,7.7-10.5,6.3,1.7-8.5,15-14,18.1-23.7-3.6.3-13.5,12.3-16.2,11.5,0-4.1,1.5-48.3-.7-48.8-2.7,10.1,1.9,31.1-3.8,39.2-3.7,5.3-9.8-16-10.1-16.3,0,4,6.1,24.9,6.7,24.2-2.6,3.1-11.2-5.2-12.4-6.2-1.2,6.7,1.5,13.6,11.2,15.4-.1,5.1-11-.1-13.1-.6,1.8,3.4,19.2,9,15.3,13.2l-13.7-3.9c-.1,5.8,14.9,2.4,14.2,9.6-1.1,11.8-14.1,4.4-18.8-.6-1.2,2.5-.4,4.3,2.4,5.3-4.4,3-10.6-7.2-12.5-9.2-2.1,2.5,6.1,10.3,7.3,11.7a6.2,6.2,0,0,1-5.3.3c7.1,5.3,26,21.1,10.4,14-1.1,5.3,7.8,6.2,9.9,8.8a6,6,0,0,1-5.5.7,4.4,4.4,0,0,0,4.7,2.5c.4,2.8-5,2.8,1.4,4.2-6.1,10.4-8.4-5.5-10.1-7.3-1.8,2.1-1.8,4.4.1,7.1-4.5.1-5.5-5.2-8.5-7.5-3.5,4.4,11.8,4.1-6.4,3,2,3,15,2.6,14.5,7a69.1,69.1,0,0,0-9.1,1.5,12.5,12.5,0,0,0,11-.3c-3.3,1.8-4.1,3.3-2.4,4.7,14.7-13.6,5.8,10.3,5.1,9.8-10.5,10.5-29.2-13.2-30.4-17.2-2.5,3.5,1.6,10.7-3.5,8.7,0,4.6,6.8.6,1.2,5.1,3.7.7,19.2,2,2.4,2,0,2.1,11.4,1.6,11.8,1.7.3,2.7-2,3.6-6.8,2.6,6.3,4.1,7.7-3.7,12.8.5-3.1,2.1-6.7,2.6-7.6,6.1,7.4.7,1.1,1.9,7.3,3.6-.5,5.9-.4,6.5,6.1,3.9.5,10,9,1.8,11.4,6.3.2.5-2.2,18.1-2.6,18.8s0-3.6-1.2-3.5c-3.3.3-2.4,6.2-6.9,4.7-8.1-2.5,1.8-6-3.2-10.3,2-3-32.5-22.5-37.3-28.8-.3,4.4,4.3,6.5,6.7,9.2a9.7,9.7,0,0,1-6.7,0c.8,2.8,6,3,7.9,3.3.7,3.1,2.9,9-1.9,9.7-.1,3,8.6.1,8.5,2.4s-3.7,1.7-4.1,3.4,6.2-1.3,6.9,1.6c-5.8,1.8-9.3,4.9-12.9,9.5a8.7,8.7,0,0,0,5.6-2c1.5,4.9-3.2,5,2.5,8.1,3.1,1.7,10.4-1.3,12,.1s-1.7,11.8-1.8,13.7c-1.6.1,13.9,3.3,14.2,4.1-17.2,24.2-42.1-27.9-46.8-23.7,2.4,4.4,2.2,14.5,8.1,15.8-1.3,7.6-19.9-4.3-19.5,1.3a25.1,25.1,0,0,1,9.3,3.8,11.3,11.3,0,0,1-4.9,5.9c10.4-3.2,12.3-4.8,4.9,1.6,3.7,1.8,22.8,6.7,23.7,12,.2,1.7-6.2,2.8-7.1,3.1a25.3,25.3,0,0,0,8.6,2.1c-4.1,2.5,8.7,3.7-3.1,12.7,1-.2,12.6,3.9,13.9,4q-2.1,4.2-6.9,3.3c4.9,2.9,12.3,1,13.1,7.5-20.4,5.1-28.5-33.4-42.8-28.7,3,2.4,6.2,7.1,8.6,9.9a12.9,12.9,0,0,0-9.1,1c2.6.9,15.1,14.7,13.5,13.5-3.4,4.8-23.8-5.7-24.8-1,18.5,4.9,1.9,1.8,7.6,10,18.2-3.9-.1.4,7.4,3.6,2.5,1,2-2.1,3.7-1.6,0,11.9-11.7-.6-17.1-2,6.4,3.9,6.6,7.6.5,11.1,1.5-.1,7.1-1.9,8.2-.3s1.9,11.2,3.6,15.2c-1.8-4.2,1.1,9.4,1.1,9.5.9,3,9.7-.9,9,3.5a7.8,7.8,0,0,1-6.7,4.5c3.7,8.1,13.8-.6,15.2,2.8-.9.7-7.8,5-7.5,6.9,3.4-.5,5,.6,4.7,3.4a15.9,15.9,0,0,1,7.6-4.9c1.4,4.4-5.2,5.5-1.5,10a5.3,5.3,0,0,1,5.5-4.5,7.4,7.4,0,0,1-3.1,8.3c9.1,3.4-2.8,4.9,3,11.7-13.2,5-14.2-11.9-20.6-17.8-2.8,3.8,3.4,10.3.3,12.7s-8.1-2.8-10.1-3.7c-4,15.6,9.4,13.2-6.4,13a11.3,11.3,0,0,0,8,6.7c-1.2,2.4-6.7-1.2-8.7,2.3,9.3,1.3,9.3,2.7,8.7,9.8,4.9.4,10.8,8.2,5.7,11-9.1,4.9-26-29.7-35.6-28.8,2.2,7.5,19.5,17.6,4.2,17.6-.6,3.4,10.9-.7,12.3,3.6a11,11,0,0,1-7.5,2.1c0,2.5,6.8,1.3,9,2.6-.6,1-4.3,3.7-4.1,4.3,17.5,0,5,.6,14.8,7.2-5.6.9-10.8.3-13.2,5.9,5.8,1.6,30.5,2.3,22.9,11.8,3.2-.6,5,.7,5.5,3.7H1918V634.9c-5.5-.1-11.4-1.7-15.8-1.7C1907,637.1,1910.2,641.2,1903.9,643.6Zm-177.7,139c-.1.7-1.3,8.5-4.4,2.2Zm-38.4-72.1a7,7,0,0,1-6.4-3.3,13,13,0,0,1,9.3-4C1689.7,705.6,1688.8,708.1,1687.8,710.5ZM1661,762.9a2.5,2.5,0,0,1-3.4-1.7C1660.6,759.4,1661.7,760,1661,762.9Zm-44.6-28.3h0Zm-13.8,42.6h0c-.6-.2-13.6-2.7-8.2-4.9.7.5,8.5,3.6,8.2,4.9Zm-9.3,48.3c-4.9-.3-4.2-3.4-4.2-7.2C1593.3,819.2,1593.8,821.9,1593.3,825.5Zm1.3,11.2c-1.6-2.8.6-8,1.3-10.8C1599.8,829.4,1598,833.2,1594.6,836.7Zm-30.3,23.9c-2.6-4.5,5.9-11.3,9.7-7.9C1570.1,855.5,1569.4,859.7,1564.3,860.6Zm-21.2,157.8c-.4-1.7-.8-3.4-1.3-5.1C1547.3,1014,1547.2,1015.4,1543.1,1018.4Zm8.7,10.2-4.1.3-.3-4.2C1550.8,1025.1,1552.3,1026.4,1551.8,1028.6Zm24.7-61.6c-6.8-2.8-8.3-8.2-13.5-11.3-10.5-6.5-10.8,5-18.6-8.2q2.8-5.7,8.4-4.2a3.9,3.9,0,0,1-.8,4.7c4.7-1.7,7.1-.1,7,4.8C1565.2,948.9,1579.4,958.3,1576.5,967Zm22.6-148.7c-1.6-2.4,3.9,0,4.7.2h0c.1.1,0,.1,0,.1C1602.2,820.5,1600.6,820.5,1599.1,818.3Zm1.2-3.2c.8-2.7,6.1-3.6,6.2,0C1604.7,816.7,1602.6,816.7,1600.3,815.1Zm91.6-72c-2.4,1.3-3.6.8-3.5-1.4C1689.8,741.1,1691,741.6,1691.9,743.1Zm-28.7,55h0q-1.2,6-10.2,5.1C1653.6,789.7,1662.4,798.4,1663.2,798.1Zm-44.7-24.9c-.4-2.5,1-3.5,4.3-2.9a4.6,4.6,0,0,1-1.1,4.5A3.2,3.2,0,0,1,1618.5,773.2Zm2.6,77.6,4.4-5.4a3.6,3.6,0,0,1,4.1,1C1630.2,847.6,1622.7,851.9,1621.1,850.8Zm11.1-27.8,3.2,5.4C1631,829.9,1626.6,825.5,1632.2,823Zm3.6,85.3c-7.8-.6,1-3.7,0,0Zm18.6-64.2c-1.7-5.1,1.3-7,.9-11.1-2.7,0-5.4-3.1-5.8-3-.4,2.6-6.5,14-9,5.9a5.3,5.3,0,0,0,5.4-.6,75.7,75.7,0,0,0-6.7-4.2c7.8-4.1.6-4.1,2.3-10.6,15.8.8,2.2-7.5,3.5-10,4.7,2,8.9,1.6,12.4-1.2-2.5.2-10.5-.1-10.3-2.3s8.9-.8,10.1-1.3c16.3-6.9.5-.6,9-5.7.1,3.7,1.7,3.6,4.7-.3-.4,4.7-6,5.6-9.5,6.9,2.1,4.7,11.3,8.1,11.3,12-1.5-.2-18.2-5.3-18.4-4.3,5.7,1.3,7,3.4,4.1,6.3l8.2-.4c-2.7,8.6-.2,3.9,3.3,9.3-6.2,3.4-14.1-7.3-18.5-9.9C1650.3,830.1,1663.9,834.1,1654.4,844.1Zm19-69.1c3,2.1,3.7,3.8,2.2,5.3C1671.6,777.7,1670.5,777.7,1673.4,775Zm-2.1,72.9c-3.8-.2-5.3-2-4.6-5.3C1671.3,842.1,1673.2,843.4,1671.3,847.9Zm-1.6-22.9c-.9-4.6,5-3.9,8.3-4.5C1677.2,825.3,1673.9,824.8,1669.7,825Zm26-54.4c-7.6.9-1.3,2.1-8.5,4.4a8.6,8.6,0,0,1,5.5,2.6c-2.1,5.3-17.1-.8-12.4-5.2-.6-.3-9.6-3.9-8.4-6.5,2.8-6,10.4-.5,9.9,4.7a4,4,0,0,1,5.1-2.4c-1,1.2-1,2-.1,2.6C1687.9,769.7,1698.3,764.5,1695.7,770.6Zm-.8-16.6,2.4,4C1698.9,764.3,1685,753.7,1694.9,754Zm15.7,21c1.2-.8,7.4,4.4,7.3,4.3l-7.8.8A4.5,4.5,0,0,1,1710.6,775Zm.2-30.4a7.2,7.2,0,0,1-6.4-.3C1703.7,743.7,1710.5,733.6,1710.8,744.6Zm-12-13c-.7-1.2,5.1-2.2,3.6,1.4A3.1,3.1,0,0,1,1698.8,731.6Zm3.4,20.7c1.1-.5,6,4.7-.8,4.3C1699.4,754.9,1699.7,753.5,1702.2,752.3Zm3.9,46.9-5.6-.6C1701.9,795.6,1707.8,796.4,1706.1,799.2Zm8.9,28.7c-6,6.1-12-6.5-7.4-7.4s.9,4.5,2.7,5.8C1712.6,820.7,1717.3,825.7,1715,827.9Zm8.1-6.3c-1-1.4-14.3-10.5-10.9-13s7.1.1,9.1,3.5C1731.9,802,1726.1,817.2,1723.1,821.6Zm21,25.8c1.3,7.1-4.7,8.6-9,2.9,14.7-3.8-1.8-1,2-6.5-.4.6,10.4-16.3,5.2-15.1C1749.9,826.9,1749.4,843.6,1744.1,847.4Zm9.7-10.3c-2.2,2.2-4.5-4.6-4.4-5.6,2.2-.8,3.9-.3,5.1,1.8C1749.3,834.8,1756.5,834.3,1753.8,837.1Zm13.8,5.4c-1,.1-12.8-5.1-11.2-6.5q2.1,3.4,5.1,1.2c-.4-.6-2.3-3-1.7-3.8a4.5,4.5,0,0,0,6-.5c-9.8-6.6-.9-.5,1.8-2.6Zm6.8-22.4c2.9.9.2,7.1,7.7,9.3q-3.4,4.1-9,2.4C1773.5,827.9,1774,824,1774.4,820.1Zm4.6,31.8c.7-1.7,1.4-3.3,2-5C1784.2,848.9,1783.2,851.8,1779,851.9Zm-5.3-9.4a6.5,6.5,0,0,1-2.1-7.1C1777.4,836.4,1778.1,838.8,1773.7,842.5Zm5.5,57a11.3,11.3,0,0,0,2.4-5.6C1787.9,896.2,1781.5,898.6,1779.2,899.5Zm-.2-35c3.3-3.3,5.4-3.1,5.6,0Zm27.3-28.6c2.7,1.3,3.5,2.6,2.4,4.1C1804,839.9,1803.2,838.5,1806.3,835.9Zm4.3,24.8,1.6,4.2C1808,865.1,1807.5,863.7,1810.6,860.7Zm51.1,26.7c-4.3,3.2-4.1,5.6.7,6.9a83.6,83.6,0,0,1-9.7-.7c3.5-1.9,6-2.3,5.4-6.6-7.8,1.5-10.1,3-8.1-5.6-.7-.5-.7-.8.2-.8s-.1.6-.2.8c1.8,1.5,8.1,4.5,11.7,6l.6-.4C1865.7,888.8,1864.5,888.5,1861.7,887.4Zm19.5-92.4c3.9.5,13.6-7.3,13.6-7.3.9,6.4,14.8,2.7,14.7,11C1909.3,810.3,1885.2,799.5,1881.2,795Z" transform="translate(11.7 -464.5)"/><path class="cls-5" d="M1598.4,931.8V920.2s-10.7,3.9-14.8,7.6a14.7,14.7,0,0,1-3.7,2.4c.6-2,.8-4,4.4-5.8s7.9-.6,7.5-6.3,5-7.5,3.1-10.4a6.4,6.4,0,0,0-6.9-2.6l-6.8,1.2s-10.9-3.7-9.7-4.7,6.8-3.7,4.8-6.1-3.3-3.5-5.6-3.5-2.6-.8-7.6.6l-2.9.9v-.3c-.8-1.6-5.9-3.7-5.7-9.1s-3.1-10.5-5.8-13-.7-4-3,.1-.7,7.6-2.8,10.1-10.4,3.4-6.5,6.2l1.4,1.1c-1.8-.3-3.6-.5-3.7-.1s1.9.8,1.9,2.3-.8,1.6-.3,2.2,2.1,1.4,2.7,2.3.7,2.6,2.6,3.4c0,0-4.6-2-5.5-1.4s-1.1,1.6-2.4,1.4,0,1.2,0,1.6-.7.5-1.1,1c-3.6-1.2-8.1-2.6-10.2-4.1a11.2,11.2,0,0,0-7.7-2.3s-2.3,1.1-1.7,2.6a.5.5,0,0,0,.3.4c.8,1.3,2.8,4.5,2.7,5.3s-.8,1.8,1.3,3.6a8.1,8.1,0,0,1,2.5,4.5l-2.1.7-1.5,4.7c-6.1-3.2-15.6-8.9-15.6-8.9s-8.2,4.4-5.3,4.1l.7.2-2.2-.2a5.9,5.9,0,0,1,.8,3.4,7,7,0,0,0,.8,4.5c.9,1.3,3.8,4.8,4,6.3a20.7,20.7,0,0,1-.3,3.5c-3.8,3.7-7.1,7.7-8,10.3a4.8,4.8,0,0,0-2.9.4c-2,1-3,2.4-2.4,3.1a2.8,2.8,0,0,0,1,.9,19.1,19.1,0,0,1-5.2,1.9c2.4-4.6,6.4-11.5,7.4-11.3s-2.8-3.4-2.8-3.4-7.2,7.7-9.5,9.4a37.3,37.3,0,0,0-5.2,6.1c-2.7-.3-7.8,0-7.8,6.4V957c-.5-3.8-.9-7.2-1.3-9.8s3.9-4.2,5.2-6.3,4.1-5.9,5.3-8,3.4-7,5.8-8.7,0-3.5,0-3.5-1.9-.4-3.9,2.1-7.7,4.5-7.7,6-2.5,3.4-4.2,4.9c.4-2.4.8-4.3.8-4.3l-.8-5.2.8-2.8a28.2,28.2,0,0,1,3.4-6.7c2-2.4-2.3-3.1-3.4-5.2s-.4-5.3-1.7-8.7-.2-2.1-1.5,0a21.2,21.2,0,0,0-2.6,11.3c.3,4.6-2.2,6.5-2.6,7.9s5.2,4.2,5.2,4.2a16.3,16.3,0,0,1-.7,3l-7.6-4.8V927s2.3,1.4,3.1,5.7a2.8,2.8,0,0,0,2.4,2.5l-.6,3.2-.2-.2-6.2-3.2c-1.2-.7-4.6-3.8-5.8-3.8s-3.4,3.4-3.4,3.4,3.1,1.2,3.8,3.6,1.5,11.1,3.1,11.5,4.5,3.3,6.1,4.7h-1.3l-5.3,1.3s-8.7-3.8-7.8-4.8,5.3-3.7,3.8-6.2-2.7-3.5-4.4-3.5-2.1-.8-6,.6l-2.4.9v-.3c-.7-1.6-4.7-3.7-4.4-9.3s-2.6-10.6-4.7-13.2-.5-4-2.3.1-.5,7.7-2.2,10.2-8.2,3.5-5.1,6.4a5.2,5.2,0,0,1,1.1,1c-1.4-.3-2.9-.6-2.9,0s1.5.7,1.5,2.2-.7,1.6-.2,2.3,1.7,1.3,2.1,2.2.6,2.7,2.1,3.4-3.6-2-4.4-1.4-.9,1.7-1.9,1.4,0,1.2,0,1.6-.6.6-.8,1c-2.8-1.2-6.4-2.6-8.1-4.2a8.2,8.2,0,0,0-6-2.3s-1.9,1.2-1.5,2.6l.3.5c.6,1.3,2.3,4.5,2.1,5.3s-.6,1.8,1.1,3.6a9.5,9.5,0,0,1,1.9,4.5l-1.7.7s-.5,2.1-1.2,4.8c-4.8-3.2-12.3-9-12.3-9s-6.6,4.4-4.2,4.1h-1.3a1.4,1.4,0,0,1,.2.6,39.5,39.5,0,0,1-9.1-8.7c-3.5-5,1.2-14.4-7-8.8s-10.4,5.1-10.4,11.3-8.1,7.5-8.1,14.4c0,5.2-3.3,9.3-6.4,12.9-4.2.1-9.3,1.1-8.8-1.1s.6-5,3.3-7.1,5.5-.8,5.3-7.4,3.5-8.8,2.2-12.2-3.6-3.6-4.9-3.1l-4.8,1.5s-7.8-4.4-6.9-5.6,4.8-4.3,3.4-7.1-2.4-4.1-4-4.1-1.8-.9-5.3.8l-2.1,1v-.4c-.6-1.9-4.2-4.3-4-10.7a28.6,28.6,0,0,0-4.1-15.1c-1.9-3-.5-4.7-2.2,0s-.4,9-1.9,11.8-7.4,4.1-4.5,7.3l.9,1.3c-1.2-.4-2.5-.7-2.7-.1s1.4.8,1.4,2.6-.6,1.9-.2,2.7,1.5,1.5,1.9,2.6.5,3.1,1.8,4-3.2-2.3-3.8-1.6-.8,1.9-1.7,1.6,0,1.4,0,1.9-.5.6-.8,1.2c-2.5-1.4-5.7-3.1-7.2-4.9s-5.5-2.7-5.5-2.7a3.6,3.6,0,0,0-1.3,3c.1.2.2.3.2.5s2,5.2,2,6.1-6.9-1.1-5.4.9a2.2,2.2,0,0,1-.2,3.1l-.2.2-5.9-.7-4,6.7a13.4,13.4,0,0,1,.6,4,11.6,11.6,0,0,0,.5,5.2c.7,1.5,2.7,5.6,2.9,7.4s-.9,10.1-.5,10.3a28.1,28.1,0,0,1,2.9,3.1c.5.8-1.1,3.8-1.1,3.8a6.2,6.2,0,0,1-3.3,0c-2.2-.3-4.4-1.9-5.9-.7-5.8-.8-16.9-7.5-16.9-7.5l-.2,7c-.2,6.9-9.7,6.7-22.4,11.7l-2.9,1.3-.7-.4a9.6,9.6,0,0,0-5.7,1.5c-2.9,1.7-11.4,3.2-11.4,4.3s-3.7,2.4-6.3,3.5l1.1-3-1.1-3.7,1.1-2.1a25.2,25.2,0,0,1,5.1-4.7c2.9-1.8-3.4-2.3-5.1-3.8s-.5-3.7-2.4-6.1-.4-1.6-2.3,0-4.3,4.6-3.9,8-3.3,4.6-3.9,5.6,7.7,3,7.8,3a20,20,0,0,1-1,2.1l-11.2-3.1v3.2s3.4,1.1,4.5,4.1c.4,1.2,1.9,1.6,3.5,1.8a19.5,19.5,0,0,0-.8,2.2h-.4l-9.2-2.3c-1.7-.4-6.8-2.7-8.5-2.7s-5.1,2.5-5.1,2.5,4.5.8,5.7,2.6,2.3,7.8,4.5,8.1,10.2,3.9,10.2,3.9l4.9,2.1c.4,1.7.6,3.5.9,5.3l-5.8-3c-2.2-1.2-9.6-2.7-9.6-2.7s-12.5-3.3-14.2-3.2c0,0-1.2,3,0,4.7a2.1,2.1,0,0,0,.4.6l-2-.6c-7-1.9-17-9.9-18.3-16.4s-14.2-6.4-30.4-8.3.6-4.5-5-11.6-19.8,8.8-27.6,16.6c-3.2-.1-13.6-2.9-19.2-3s-13.5,1.2-12.9-1,.7-4.7,4.2-6.7,7.2-.7,6.9-6.9,4.4-8.2,2.7-11.2a5.2,5.2,0,0,0-6.2-2.9c-1.7.5-6.2,1.4-6.2,1.4s-10-4.1-8.9-5.2,6.2-4,4.4-6.6-3-3.8-5.1-3.8-2.4-.9-6.9.7l-2.7.9v-.2c-.7-1.8-5.4-4-5.1-9.9s-2.9-11.4-5.3-14.1-.6-4.3-2.7.1-.6,8.3-2.6,11-9.4,3.7-5.8,6.7a6.8,6.8,0,0,1,1.2,1.2c-1.6-.4-3.3-.7-3.4-.2s1.8.8,1.8,2.5-.7,1.7-.2,2.4,1.9,1.4,2.4,2.5.7,2.8,2.4,3.6c0,0-4.1-2.1-4.9-1.4s-1,1.8-2.2,1.4,0,1.4,0,1.8-.6.6-1,1.1c-3.2-1.3-7.3-2.8-9.3-4.4a9.3,9.3,0,0,0-6.9-2.6s-2.1,1.3-1.7,2.8l.3.6c.8,1.3,2.6,4.9,2.5,5.6s-.7,2,1.2,3.9a10.9,10.9,0,0,1,2.2,4.9l-1.9.7-1.4,5.2c-5.5-3.5-14.2-9.7-14.2-9.7s-7.5,4.8-4.8,4.5a.8.8,0,0,1,.7.1h-2a9,9,0,0,1,.8,3.6,8.2,8.2,0,0,0,.7,4.9c.8,1.4,3.4,5.2,3.5,6.9-21.4-8.7-11.1-15-16.7-16s-11.4,16-11.4,16l-13.4,4.7c-4.1,0-18.4-3.9-26.1-4s-18.3,1.6-17.3-1.4.9-6.2,5.5-9,9.7-.8,9.2-9.2,6.1-11,3.8-15.2-6-4.5-8.4-3.9l-8.3,1.9s-13.4-5.4-12-6.9,8.3-5.4,6-9-4.2-5.1-7-5.1-3.2-1.2-9.2.9l-3.6,1.2v-.4c-1-2.4-7.2-5.4-6.9-13.4s-3.9-15.3-7.1-18.9-.9-5.8-3.7,0-.7,11.2-3.3,14.8-12.8,5.1-8,9.1l1.7,1.6c-2.2-.5-4.5-.8-4.6-.1s2.3,1,2.3,3.2-.9,2.4-.2,3.3,2.6,2,3.3,3.3.8,3.8,3.2,4.8c0,0-5.6-2.8-6.7-1.9s-1.4,2.4-3,1.9,0,1.8,0,2.4-.8.8-1.3,1.5c-4.4-1.8-9.9-3.9-12.5-6-4.8-4.1-9.3-3.4-9.3-3.4s-2.9,1.7-2.2,3.7h0a1.3,1.3,0,0,0,.4.7c1,1.8,3.5,6.5,3.3,7.6s-.9,2.7,1.6,5.2a12.5,12.5,0,0,1,3,6.6l-2.6,1-1.8,6.9c-7.5-4.7-19.1-13-19.1-13l-2.7,1.8c-1.8-2.2-3.5-4.4-3.5-8,0-7.9-2.5-7.1-11.1-14.3s-3.7,4.7-7.3,11.1-11.1,12.7-20.9,19.9l-2.9,2.3h-.5v-.3c-.9-2.1-6.3-4.8-6-11.8s-3.4-13.4-6.3-16.6-.6-5.1-3.2,0-.7,9.8-2.9,13-11.2,4.4-7,8l1.4,1.3c-1.6-.4-3.4-.7-3.8-.3,1.8-5.1,3.6-12.9,3.6-12.9s11.5-22.7,13.8-22.4-4.1-5-4.1-5-10.7,11.4-14.1,14-10.3,11.9-12,16-4.8,5.9-7.3,7.9c-.7-5.6-1.4-10.7-1.9-14.6-.2-1.9,5.8-6.2,7.6-9.3s6.1-8.8,7.8-11.9,5.1-10.4,8.5-12.9,0-5.2,0-5.2-2.8-.6-5.7,3-11.3,6.8-11.3,9.1-3.8,4.9-6.3,7.1c.5-3.5,1.1-6.2,1.1-6.2l-1.2-7.8,1.2-4.2s2.3-6.2,5.1-9.9-3.5-4.6-5.1-7.7-.6-7.7-2.5-12.8-.3-3.2-2.3,0a32,32,0,0,0-3.9,16.6c.5,6.9-3.3,9.7-3.8,11.8s7.6,6.1,7.8,6.2-.6,2.8-1,4.4l-11.3-6.5v6.8s3.4,2,4.5,8.4a4.2,4.2,0,0,0,3.6,3.7,38.9,38.9,0,0,0-.9,4.7l-.3-.3s-7.5-3.7-9.2-4.7-6.8-5.6-8.6-5.6-5.1,5-5.1,5,4.6,1.7,5.8,5.4,2.2,16.3,4.5,17,10.2,8,10.2,8l4.9,4.5c.3,3.5.6,7.2.9,10.9l-5.8-6.3c-2.3-2.5-9.7-5.7-9.7-5.7l-5.2-2.7c-.9-2.6-1.3-5.6-1.3-11.5,0-11.2-9.8-7.8-9.8-7.8s-2.5-9.8-5-18.5-6.1-10.3-8.6-6.4c-.9,1.6-5.1,3.5-10,5.6a6.2,6.2,0,0,0-3.3-.1l-7.3,1.6s-11.7-4.7-10.6-6,7.3-4.7,5.3-7.8-3.7-4.5-6.1-4.5-2.8-1-8,.9l-3.2,1.1v-.4c-.9-2-6.3-4.7-6-11.7s-3.4-13.4-6.2-16.7-.7-5-3.3.1-.7,9.8-2.9,13-11.2,4.4-7,7.9l1.5,1.4c-2-.4-4-.8-4-.2s2,.9,2,2.9-.9,2.1-.2,2.8,2.2,1.7,2.8,2.9.8,3.4,2.8,4.3c0,0-4.8-2.5-5.9-1.7s-1.2,2.1-2.6,1.7,0,1.5,0,2.1-.7.7-1.1,1.3l-1.1-.4c-3.8-5.5-9.5-11.7-9.5-20.1s-8.6-10.3-8.6-18.3-2.4-7.1-11-14.3-3.8,4.8-7.4,11.1-11.1,12.7-20.9,20-7.4,9.5-12.3,20.6c-2.9,6.5-7.8,9.5-12.2,11.4,2.2-3.4,4.2-6.2,5.4-6.2s7.5-15.4,7.5-15.4,14.6-20.2,17.4-19.9-5.2-4.5-5.2-4.5-13.4,10.2-17.7,12.5-12.9,10.7-15,14.4-6,5.2-9.2,7c-.9-5-1.7-9.6-2.4-13-.2-1.7,7.3-5.6,9.6-8.4s7.7-7.9,9.9-10.6,6.4-9.3,10.7-11.5,0-4.7,0-4.7a10,10,0,0,0-7.2,2.7c-3.5,3.2-14.3,6.1-14.3,8s-4.7,4.4-7.8,6.4c.7-3.1,1.4-5.6,1.4-5.6l-1.6-6.8,1.5-3.8s2.9-5.5,6.5-8.7-4.3-4.2-6.5-7-.7-6.9-3.1-11.4-.5-2.9-2.9,0-5.4,8.7-4.8,14.8-4.2,8.7-4.9,10.5,9.6,5.6,9.7,5.6a29.1,29.1,0,0,1-1.2,3.9l-14.2-5.8v6a11.3,11.3,0,0,1,5.7,7.6c.5,2.1,2.4,3,4.4,3.3-.4,1.4-.7,2.8-1,4.2l-.4-.3s-9.5-3.3-11.6-4.2-8.6-5-10.8-5a7.5,7.5,0,0,0-3.1,1.5,62.8,62.8,0,0,1-.4-7.5c0-11.1-9.8-7.8-9.8-7.8s-2.5-9.7-5-18.5-6.1-10.3-8.6-6.4S380,864,378.7,868.7c-.7,2.7-7.1,5.2-13.8,7.9a11.6,11.6,0,0,1,3.6-7.6c4.6-4.1,10.5-16.9,13.1-16.8s7.5-15.3,7.5-15.3,14.6-20.3,17.4-20-5.2-4.4-5.2-4.4-13.4,10.2-17.7,12.5-12.9,10.6-15,14.3-6,5.2-9.2,7.1l-2.3-13.1c-.3-1.7,7.2-5.6,9.6-8.3s7.6-7.9,9.8-10.7,6.5-9.2,10.7-11.5,0-4.7,0-4.7a9.9,9.9,0,0,0-7.1,2.7c-3.6,3.2-14.3,6.1-14.3,8.1s-4.7,4.4-7.9,6.3l1.4-5.5-1.8-6.4,1.5-3.7s2.9-5.6,6.4-8.8-4.2-4.2-6.4-6.9-.7-7-3.2-11.5-.4-2.9-2.8,0-5.5,8.7-4.9,14.9-4.1,8.6-4.9,10.4,9.6,5.6,9.8,5.6-.8,2.6-1.3,3.9l-14.2-5.8v6a11.3,11.3,0,0,1,5.7,7.6c.6,2.1,2.4,3,4.5,3.3-.4,1.4-.8,2.8-1.1,4.2l-.4-.3s-9.5-3.3-11.6-4.2-8.6-5-10.7-5-6.5,4.5-6.5,4.5,5.7,1.5,7.2,4.7,2.8,14.6,5.7,15.2,12.8,7.2,12.8,7.2l6.2,3.9c.4,3.2.7,6.6,1.1,9.8l-7.3-5.6c-2.9-2.3-12.1-5.1-12.1-5.1s-15.7-5.9-17.9-5.9a34,34,0,0,0-.6,4.6l-2.3-3.3c-4.4-4.8-20.9-11.9-20.9-11.9V1080H1615.5V935.1S1604.6,932.6,1598.4,931.8Zm-1247-33.1-10.5,8.7c-5.3-5.1-9.3-8.7-9.3-8.7l-9.8-21.4s-1.9-4.9-4.3-10.4c2,2,4.1,3.9,5.6,5.5,2.9,3.4,7.2,4.1,8.6,10.4s10.3,4,10.3,4l10.5,5.5c.2,2.1.3,3.8.5,5.1Zm82.5,25.5c-1.5-3.2-2.6-5.4-3.4-7.5a6.8,6.8,0,0,1,2.7,3.1h0q.9,3,1.5,6C434.5,925.3,434.2,924.8,433.9,924.2Zm17.9,30.2a17.3,17.3,0,0,0-4.1-2.5c-.2-2-.3-4.1-.3-6.1a12.6,12.6,0,0,0-.8-4.3c2.9,1.9,5.2,3.6,5.2,3.6l6.1,4.5c.4,3.6.8,7.4,1.2,11.1Zm236,86.9c-1.6-1.3-3.1-2.5-4.7-3.6v-.2l4.7,3.5Zm26.8-24.1c-1,.9-1.2,2.4-2.6,1.9s0,1.8,0,2.4-.8.8-1.2,1.5l-5.7-2.7c2.3-5.7,4.4-11.2,5.6-11.2s1.5-1.9,2.3-4.5c0,1.1,2,.9,2,3.1s-.8,2.4-.2,3.3,2.2,1.9,2.8,3.2.8,3.9,2.8,4.9C720.4,1019.1,715.6,1016.3,714.6,1017.2Zm508.7,32.7c-2.2,1.2-4.3,2.3-6.6,3.3s-10.2,6.6-11.9,8.8-4.8,3.2-7.3,4.3c-.7-3.1-1.4-5.9-1.9-8s5.8-3.4,7.7-5.1,6.1-4.8,7.8-6.5a39.5,39.5,0,0,1,6.8-6.1C1218.4,1043,1223.6,1045.2,1223.3,1049.9Zm222.9-40.2h0a.8.8,0,0,1-.3-.9c.6-2.1.7-4.4,2.9-6.4a2.6,2.6,0,0,0,1.1,1.6,13.4,13.4,0,0,0-3.7,5.7Zm10.1-20.4h0c.7-1.6,1.4-2.9,1.8-4.1.1,2.3.3,4.5.4,6.8A28.8,28.8,0,0,0,1456.3,989.3Z" transform="translate(11.7 -464.5)"/></svg>