<svg id="Layer_1" data-name="Layer 1" xmlns="http://www.w3.org/2000/svg" viewBox="0 0 1920 1080"><defs><style>.cls-1{fill:#102a2c;}.cls-2{fill:#08142d;}.cls-3{fill:#07132d;}.cls-4{fill:none;}</style></defs><title>Artboard 1</title><path class="cls-1" d="M203.7,863.4a601.2,601.2,0,0,1-17.1-88.1c-2.7-22.1-13-64.1,6.1-79.3-10.5-7.3-22.7-4.9-34.5-3.7,7.8-7.3,16.5-3.6,23.1-12.2,18.3-23.7-25.6-4.2-25.4-14.2,8.1-.8,9.7-5.6,15.2-11.8-9.4-.9-23.7.5-31.6-5.3,7.9-1.5,16.5,2.4,24.1-1.7-5.9-4-6.4-11.1-2.7-16.8l-20.6-2.5c5.5-2.8,14.6-.4,18-7.2-10.5-3.2-13.9-7.9-24.3-9.3.1-3.7,12.1-1.1,10.9-10.5-1.5-12.7-10.6-4.4-16.2-12.5h17.5c-6.5-6.7-15.2-9.1-23.8-11.5,33.3-7.2,5.8-4.3-1.6-13.3,11.6-.1,11.8-3.1.5-8.9l7.6-12.7c-2.9,1.4-4.8,1.2-5.7-.7a52.3,52.3,0,0,0,14.6-9c-1.8-2-19.2,5.9-20,6.1,5.6-13.9-2.5-5.8-.3-18.7a10,10,0,0,0-5.5,2c0-6.2,7.2-7.3,8.1-12.7.2-1.5-8.9-6.5-10-8.1,1.6-.6,18.5-5.8,17.6-8.8-6.8,1.9-13.3,4.1-20.4,4.4h0c.9.4,1.1.7.4,1l-.4-1h0c-.7-2.5,1.6-4.2,6.7-5.1-13.6-4.9,8.8-6.4,7-13.9-19.7.9-5.5-16-14.1-29.6-4.8,8.9,4.7,20.1-8.6,20.1,2.7,5.6,11.2,4.2-1.5,8.1a20.7,20.7,0,0,0,4.8,5,22.9,22.9,0,0,1-13.8,6.5c1.5,8.4,11.2,8.3,13.8,19.1-7.4,2.3-12.3-6.3-19.5-5.8,3.2,5.4,13.3,12.3,14.1,19.6H80.3c6.8,5.6,15,8.7,22.8,12.8-.1-.1,0-.1.2-.1h-.2c.1,0,.1,0,.1.1s0-.1-.1-.1c-7.5,6-14.2,11.6-24.6,9.8s-12.9-13.2-20-4.2c11.9,2.2,22.5,15.2,34.9,8.5-3.7,15.1-22.7,7.2-33.7,5.6,4.4,9.1,21.7,8.5,31.3,10.5-4.1,14.1-17.9,1.2-20.3,8.5,4.8,3.8,12.8,7.7,19,7.4-4.5,13.3-56.2,5.1-64.6.1,8.1,2.2,31.1-6.3,37.4-11.4-.4.1-23,5.5-23.5,3.5,8.1-3.3,6.7-5.3,10.3-12.3-2.6.2-22.1,4.1-23.3.2,10.9-5.6,14.8-5.6,19.2-17.3a39.9,39.9,0,0,1-20.3.5c7.8-1.9,15.6-5.8,18.9-13.5-.8-1-22,3.5-22.9,3.5s16.7-9.6,17.9-16.1A23.7,23.7,0,0,1,20.4,519c5.6-3.3,18.4-7.7,19.5-14.6l-22.5-1c-.1-1.4,11.8-6.9,13.7-9.8H17.6c13.2-13.2,5.1-8.6-7-7.7,11-8.1,10.4-11.3-1.7-9.3,4-2.3,6-5.5,5.8-9.8-7.4,2.6-7.9-8.5-6.5-14-6.3.4,1.3,14.4-6.5,15.9,4.6,17.9-2.7-2.6-7.4-.6,1.6,5.5,3.2,11.1,4.9,16.5-2.8-1.1-4.6-1.6-5.8-1.4v6.7A80.3,80.3,0,0,0-1,498.2c-.9.7-3.2.1-5.6-.9v12.9l.6.7-.6.3v597H268.8c-6.3-32.7-12.8-65.3-19.3-97.9C239.3,959.7,217.1,913.3,203.7,863.4ZM48.8,656.1c4.7.8,6.5,0,5.6-2.3-.4-.2,8.4-9,15.2.5A32.3,32.3,0,0,1,48.8,656.1ZM52.4,624c6.3-.3,11-3.2,13.7-8.7-10.8,1-25,4.7-35.3.2,7.7-3.4,8.9-6.4,3.5-8.8,14.3-2.3,18.7-1.6,31.2,6,1.4.9,4.1,8.5,8.9,6.6-5.3,8.2-13.6,8.6-22,4.7ZM59,603.4q-3.7-2.9-1.2-5.4H43.1L58,587.5c6.9,6.5,16.2,5.4,24.7,3.7-2.4,7.4-17.7,9.2-23.7,12.2Z"/><path class="cls-1" d="M1923,555.8h-.4l.4-.5V537.9h-1.1c-1-2.1-.3-3.7,1.1-5.3v-11c-3,1.4-6.1,2.6-7,2,3.1-6.5,13.6-19.4-.6-13.9.4-1.6,5.9-16,3.3-17.2-.7,7.1-3.3,10.2-7.4,9.2a36.7,36.7,0,0,1-.4-8.1c-5.9-1.6.8-14.7-4.7-14.5,0,5.3,1.1,16.8-6.7,13.1-3,3.2,3.7,8.6,5.5,9.8-13.3,1.3-8,2.3-1.8,9.9l-16.4-2.1,9.7,9.7h-12.8c1.9,6.3,12.1,5,13,9.7l-22.4,1.4c2.5,7.6,13.4,9.7,19.7,13.9a20.9,20.9,0,0,1-17.4-1.8c-.7,7.3,13.5,13.6,17.4,14.8a57.1,57.1,0,0,1-23.9-3.6,25.7,25.7,0,0,0,19.1,14.4c-6,2.8-13.2.8-19.4-.1,4.6,12,8,11.6,19.4,17.1-1.2,4.1-21.5,0-23.7-.1,2.9,6.3,3.2,9.7,10.5,12.4-.5,2-25-3.6-25-3.7,8.9,8.2,26,9.8,37.3,12.7-8.3,6-18.6,3.1-27.6,1.5,1.4,2.5-27.8,10.4-34.8-2.2,4.2,1.7,20.5-2.4,19-8.3-46.2,0,5.6-8.8,11.5-18-12.3,1.6-25.8,6.4-34.7-3.1-.1,0-.2-.1-.1-.1a.1.1,0,0,1,.1.1c2.1.2,34.3-10,34.5-9.9.7-2.9-.8-5.1-4.6-6.5-13.4,14.3-25.1,9.8-39,.9,7.6-4.2,15-8.5,22.5-12.9-1-1.8-15.2-.7-16.1-.7,2.5-8.2,10.7-12,13.5-19.2-4.8-3.1-14,5.2-19.1,6,2.3-11.1,11.9-11,13.3-19.6a20.5,20.5,0,0,1-13.7-6.4l5.1-5.1c-10-.6-9.2-4.3-1.6-7.2-18-4.3-3-7.1-9.6-21.2-9.5,15.2,6.2,29.6-14.6,29.6,4.8,9.5,9.3,15.5,13.9,19.5-7.2-.3-13.9-4.6-21.2-2.6l18.8,7c1.5,4.8-10,4-8.7,7.7s7.4,9.3,7.7,12.7a24.5,24.5,0,0,0-5.4-1.8c1.6,1.3,1,6,.2,7.6-2.6,5.7-4.3,2.7-.2,11l-20.1-6.1c1.4,5.8,9.4,6.8,13.3,9.9-13.9,0,1.6,3.3,1.4,9.9-.4,9.6-11.9,9.5,2.3,12-2.5,4.8-14.9,4.3-18.2,4.6,2.3,8.9,8.4,7.3,17.3,8.9-10.5,2.8-14,5.8-22.8,10.6,2,5.8,15.9-4,16.8,2-18.5,3.9-21.3,18.1-5.1,21.5-12.7,10.2-35.5,5.2-7.7,17.2l-19,2.7c8.5,12.2-6.8,9.8-.4,15.5s13.1,2.1,22.4,2.7c-9.8,5.9-20.6,2.5-31,5.8,4,5.4,6.3,9.5,12.3,12.8-11.5.9-20.7-.2-30.4,6.6,10.2,14.5,18.5,8.9,31,18.2-11.9-.6-23.9-2.6-34.4,4.5,20.6,16.2,10.4,60,7.8,83.2a646.9,646.9,0,0,1-14.6,80.5c-13.1,53.8-34.9,104-45.1,158.4-3.9,20.4-7.6,40.9-11.4,61.4H1923Zm-89.9,62.6c7.6,1.3,15.5-2.6,21.4-1.8s11,2.7,18.1,7.6h-13.5c1,4.5.1,6.5-2.7,6.1-5.5-8.4-17.4-3.5-23.3-11.9Zm14.5,63.5c5.8-9,6.9-5.7,16.3-2.6q-2.4,2.1.9,3.9c-2.4,1.8-15.2-1.1-17.2-1.3Zm3.4-40.7c-1.4,6.2,9.4,8.6,12.4,9.7-7.5,3.8-15.4,2.3-21.2-3.9,7.8-.9,5.5-6.2,11.2-9.4,8.1-4.6,12.7-6.9,21.8-5.5,7.4,1.2,4.6,6.7,11.1,9.1-10.8,4.7-24,1.4-35.3,0Z"/><path class="cls-2" d="M21,632.8l-.8,6a3.6,3.6,0,0,0-4.7,2.3,2.5,2.5,0,0,0-.2,1.2c-.1,1-.3,2-.5,3.4L12.3,643l-3.4,7.5c-4.3-.1-8.3-3.2-12.9-2.6-.2,3,1,4.3,3.6,4.1,1-.1,2.1,0,3.5,0l-5.2,5.9A48.1,48.1,0,0,0,11,655.5c4.1-1.4,8-3.1,12.5-4.8-2.2,2.3-4.2,4.3-6.3,6.3l1,.6-1.6,5.2-4.2.2c-.3,2.8-.5,5.6-4.3,6l-.3-2.2c-2.6,1.7-2.8,4.7-4.2,7.6l-1.5-4.9-4.2,10.3-2.3-.5c-1.5,1.8.4,2.5,1.4,3.5L-6.5,688V641.1c1.3,0,2.5-.1,3.7,0a23.5,23.5,0,0,0,13-2.9l10.4-5.7C20.7,632.7,20.8,632.8,21,632.8Z"/><path class="cls-2" d="M-6.5,605l9.6-3.1,2.3,1.4a14,14,0,0,0-5.8,8.6l4.2,1.6-4.5,3.1,1.2,1.3-7,1.5Z"/><path class="cls-2" d="M163.6,678.3l-.3-.4h.6Z"/><path class="cls-2" d="M20.6,632.5l.5-.2a4.3,4.3,0,0,1-.1.5C20.8,632.8,20.7,632.7,20.6,632.5Z"/><path class="cls-2" d="M62.2,824.7l-.6-.3h.9Z"/><path class="cls-1" d="M1898.7,493.1l-.3-1.5,1.1.6Z"/><path class="cls-1" d="M1912.3,493.8l.5-.7v.5h-.6Z"/><polygon class="cls-1" points="1742.6 717.2 1742.3 717.3 1742.3 717 1742.6 717.2"/><path class="cls-2" d="M306.9,1211.7H36.8c-12.7,0-41.5,5.5-52.6,0-9.2-4.5-6.6-6.5-6.6-19.1V689.3c14.5,3.9,20.2-8.1,24.8-12.9,6.6,4.3,2.4,8.5-1.5,11.2a2.8,2.8,0,0,1,2.6,3.1v.4c-4.8-.7-8,13.8-13.7,16.8,4.6,0,25.9-10.6,28.1-5.8-3.8,3-9.6,15.6-14.3,10.8-2.1,10.4-3.2,4.4-12,12.7,8.7-.3,17-7.9,24.5-8.3,9.2-.4,2,1.7,11.2,2.7C13,728.4-.5,734-8.2,750.3c16.2,1.8,26.6,11.8,41.9,13.9-10.7,6.7,1.3,3.3,9,5.6-4.1,2.6-20.3,13.9-19.9,14.4-6.5-4-9.3-2.9-8.3,3.6C11.4,785.1-3.9,804-4.9,802c15.2-4.6,27.5-5.5,43.4-4.1-1.3.9,0,9.2-.1,9.2-5,6.1-20.1-3.2-22.7,6.7,10.9-1.6,19.6-1.1,30.3-4.2,4.8,8.7-17,19.7-22,23.7,1,2.7,3.5,2.6,7.3-.3a86.4,86.4,0,0,0-16.6,19.6c5.9-1,28.8-.3,21.9-8.9,5.9.4,11.9,3.7,17.9,4.6-1.9-4.2-7.8-22.3-6.6-24,19,8.6.4-9.8,17.2-16.3-11.9-7.8,1.8,1,3.4-8.6s1.1-20.1,2.1-30.2c5.3,4.5,1.5,41.2,10.7,33.4-3.4-.3-5.1-1.9-5.2-5,4.1-5.4,16.8,9.1,19.3,4.7-3.7-2.9-8.1-4.4-11.8-7.3a10.7,10.7,0,0,1,9.7-.7c-1.6-1.8-10.8-6.6-10.6-8.8,15.3,0,14.5,1.5,1.3-6.5,3-3,6.6-3.5,10.5-1.6-3.6-2.6-7.8-4.1-8.4-8.8,1.9-.1,8,1.8,8.5.8-17.8-9.5.1,1.3,4.1-14.9,9.7,13.2-12.5,5.4,11.1,8.2-1.4,3.1-6,4.2-8.7,5.7,6.7,6.2,24.6-3.1,1.5,8.1,1.9,2.9,11.1,2.1,13.7,4.2a26.8,26.8,0,0,1-13.6,6.1c11.6,9,22.2-10,21.9,12.6,11.3-7.4-3.8-8.9,2.2-17.4,5.8,2.2,7.7,17.2,8.8,17.8s18.5,1.9,18.5-4.4a10.3,10.3,0,0,0-9.2,2.2c-1.8-4.1,5.3-5.1,6-8.6-7.2-.2-8.2,4.2-15.9-.3,17.3-10.2,4.4-7.3,4-12.3s6.3,1.9,5-5.2a3.4,3.4,0,0,1-4.1-2c5-2.8,2.8-2.3-3.3-2.8,2.1,5.8,3.2-21.6.3-16.2.5.1,37.3,42.5,37.6,19-5,1.2-5.5.6-9.4,3.9,2.3-13.1.3-7.9-7-4.3-.4-5.1,2.3-8.2,8.2-9.6-2.9-6.2-7.3-9.4-10.7-8.9-.4.9,8.8-6.2,7.9-7.9-11,4.2-10.4-.4-17-1.3.9-.9,15.8,0,14.4-1.9-5.7-8.9-6.8,1.3-10.3-7.1a4.4,4.4,0,0,0,4-2.1c0-3-8.3-.2-8.1-2.6,15.8,0-6.7-8-.2-14.8,6.7,4.2,5,16.4,13.2,11.5,1.3,1.3-4.2,3-1.9,6.1s3.4-2.1,5.6.7c-7.7,10.9,21.5,14.6,24.2,4.8a17.1,17.1,0,0,0-8.7.3c-.6-2,3.9-4.3,4.6-6.9-3.1-.5-5.9-.5-9-1.3,0-2.4,1.9-3.2,5.8-2.4-1.1-.7-3.3-5.8-3.6-6a13.4,13.4,0,0,0-8.9,6.1c-.5-3.5-2.4-4.9-5.5-4.4a11,11,0,0,0,3.9-6.4c-2.5-1-5.2-1.9-7.8-2.7,2.1-1.4,13.2,2.5,13.8-2.2s-8.9-7.7-11-7.9c2.2-5-6-6.7-10-8.3.4-4.5,5.9.8,5.3-6.5-.2-2.3-5.9-8.5-5.4-9.1s19.2,19.5,19,16.5c-18.6,3.9,19.8,19.9,17.9,13.3-3.1-10.1-6.1,2.4,5.9-13.7-3.7-4.2-6.8-.1-9.7,2.7,2.5,1.6-10.4-7.3-10.7-7.9,8.7.6,13,1.3,21.8-.2-.4-2.8-8.4-.1-9.8-.4a11.9,11.9,0,0,1,9.9-3.5c-2.8-2.4-5.6-2.2-9.1-1.2-1.1-2.1,7.2-6.7-2.8-7.2-.1-2.4,1.3-4.1,4.5-4.8a8.6,8.6,0,0,0-8.1-.5,17.6,17.6,0,0,1,3.7-4,54.1,54.1,0,0,0-10.6-2.3,5.7,5.7,0,0,0,5.4-2.5c-.1.6-10.6-17.2-10.1-17.6,1.8,1.5,31.6,30.4,22.7,10.4a31.2,31.2,0,0,0,4.3,4.6c2.6-7.4-.2-10.6-8.2-9.5a65.2,65.2,0,0,1,8.8-.7c.1.4-11.4-34.4-14.7-25.5,5,3,9.3,6.9,14.3,9.7-.2-7-6-42.3.9-47.8l.9,42.1c2.1.4,3.9-7.8,6-6.1a12.1,12.1,0,0,1-3.9,9.5c3.8-.2,10.7-7.8,14.3-10,3.7,4.6-19.4,11.9-17.1,16.8a33.3,33.3,0,0,1,5.5-1c-1.3,4-6.2,3.7-4.7,8.9a61.5,61.5,0,0,1,9.5-1.9,19,19,0,0,1-10.8,3.7,17.9,17.9,0,0,0,10.3,4.3c-.5,3.3-3.4,3.3-8.8,0,3.2,2.2,3.1,4.2-.4,6.2,7.3-.3,6,5.6,13.1,3.7-5.1-1.9-6.6-3.9-4.5-6.1,11.1,6.5,10-16.8,17.8-12.2-1.5,1.3-11.3,12.1-8,14.7.9.7,8.9-7.1,7.4-5.9-.3,4.8-5.7,8.7-9.1,11.2q6.6-.7,5.7,6.3a12.2,12.2,0,0,0-9.2.4c5.2,4.1,12.1,8.1,3,9.4-.2,2,1.2,3,4.4,3-.5,1.8-7.3-.3-9.2.2A6.5,6.5,0,0,0,212,686a16.2,16.2,0,0,0-6.8,6.4c10.8,1.7-.5.2.4,5,2.2,12.6,10-8.5,9.1-5.9,7,1.5,9.8-10.1,14.6-14.1.9.8-5.7,12.3-5.8,13.1,5.6,2.3,7.6-5.1,10.5.7-6.8-.5-11.6,3.5-6.2,7.7-2.1.6-20.9-.2-6.9,7.6-6.6.4-12.2-.6-17.8,2.8,10.8,2.8,20.8-5.5,29.6-3.4-6.8,3.7-7.7,2.9-8.2,9.5-3.9-2.6-5.3-5.5-10.2-4.6a4.9,4.9,0,0,1,1.1,5.8c-6.3-7.8-1.8,3.5.1,6-4.4-.2-6.3,1.7-5.6,5.2,4.9,4,8.5-1.5,12.6-4.2.2,1.2-5.8,8.4-3.9,9.8,5.1,3.8,18.3-22.3,20-23.6,1.3,6.2-3.6,7.3-4.1,13.6a32.9,32.9,0,0,1,8.7-2.3q-.4,6.6-6.9,7.5a6.4,6.4,0,0,1,5.4,1.9c.4,5.7-8.2,6.3-10.8,8.7,3.4,1.3,10.3-2.4,12.7,2.1-6.4,1-10.7,6.4-17.1,8.2,2.1,3.6,10.2.8,13.1.3-3.6,9.9,7.9,32.7,20.6,28.4s-4.2-8.8-5.7-15.3a30.1,30.1,0,0,0,10.8,4.8c-1.8-9.9-19.7-13.6-21.2-27.2,8.1-1.6,11.8,22.5,26,14-2.9-3.5-7.7-4-9.8-8.4,3.5-1.3,8.6.6,11.2-3a49.7,49.7,0,0,0-9.7-3.7c.2-5.5,4-6.5,11.7-2.8,1.1-3.5-20.6-11-17.1-14.3s14.6,8.4,19.8,2.4c3.6-4.1-5.9-10.5-5.8-14.7a21.4,21.4,0,0,0,10.5,7.3c-1.5-9.6-15.2-14.1-18.2-24.6,4.3.8,13,8.9,15.9,12.2.3-6.3-.8-49.5,1.1-49.7,1.3,5.8-.5,38.1,4.9,40.3s7.9-15.1,8.5-17.3c7.1,1.6-7.3,22.4-6.1,24.5,1.9,3.7,12.4-6.1,12.6-6.3.8,7.6-1.4,14-11.4,15.7.1,6.4,12.8-1.6,13.4-.2-4.2,4.8-17.6,5.5-15.9,13,.6-.2,13.5-4.8,14.5-3.4-6.1,5.2-11.3,1.7-14.1,9.5-4.2,11.3,16.9.4,18.3-1,1.1,2.7.3,4.5-2.4,5.7,5.9,1.1,9.4-6.2,12.8-9.8,1.7,2.6-6.6,10.9-7.4,12.2a8.4,8.4,0,0,0,7.9-1.8c.3,1-16.5,14.1-20.1,16.9,2.6,4.5,4.4-2.7,7.6-.7-2.2,4.3-6.7,5.8-10.9,8.3,1.5,1.9,5.3.2,5.8,1.7-10,5.1.8,1.6-6.1,6,5.8,10.9,8.2-5.2,10.2-7.3,1.5,2.3.3,4.6,0,7.3,1.6-.3,6.2-6.1,8.5-7.7.4.6,6.4,6,6.2,4-6.2,1-8.9,3.1-14.5,5.6a54.7,54.7,0,0,1,9.7,2.3,16.9,16.9,0,0,1-11.9-1.1c11.4,15.1-8.3-7.1-8.3,4.2,0,5.5,13,6.1,5.5,11.1,15.5,5.5,28.4-10.4,31.2-17.3-4.2-.3,3.9,9.6,3.7,9.3-4.7,1.2-5.1,2.6-1.4,4.4-3.9.5-19.4,2-2.5,2,.4,13.7-21.3-10.7-5.4,4.9-4.5-.1-9.5-2.8-12.5-.1,3.2,2.2,6.8,2.5,7.5,6.2-11,.7,3.5,4-7.3,3.5,1.4,6.3-.7,6.2-6.3,3.8,0,10.4-9.1,2.3-11.4,6.6-.6,1.1.2,17.1,3.3,18.7a3.1,3.1,0,0,1,.8-3.5c1,.6,7.7,8.4,10.4,4.3a40.2,40.2,0,0,1-.9-9.8c8.6-.4,22.5-29.6,38.4-28.7.4,7.5-15.7,10.1,0,9.2a20.1,20.1,0,0,1-8.4,3.5c3.9,3.2.3,3.7-2.6,8.1a12.3,12.3,0,0,1,4.9,2.3,16.6,16.6,0,0,0-8.8,1.5c.7.7,4.3,2.7,4.1,3.7q-6.3-2.7-6.9,1.2a21.6,21.6,0,0,1,13,9.7c-2,.5-3.9-.2-5.6-2.2-.7,2.6,2.6,5.8-.2,7.4s-12.5-.8-14.4.8c-3.6,3.1,1.5,11.1,1.7,14.1,1.3.1-13.9,2.8-14.4,4.1,15.8,19.7,36.9-14.5,47.1-24.3,1.3,1.9-4.7,15.5-8,16.2,1.5,6.5,14.4-1.3,19.9.8-.2,1.2-7.9,4.4-9.5,4.4-.7,5.1,15.4,9.2-4.2,3-1.1,2.1.3,3.6,4.3,4.7-11.8,3.2-15.1,5.9-24.1,12,1.9,2.1,4.8,2.2,7.4,3.3a45.3,45.3,0,0,1-8.9,1.8c2.5.2,3.4,1.1,2.8,2.5-14.7-2.5-1.3,8.8.7,11-7.8,0-6.8,2.8-14.5,3.3a6.6,6.6,0,0,0,6.6,3.7c-.7.7-14.4,4.4-12.9,5.5s5.6,4.5,9.5,3.3c12.7-4.2,22.1-23.3,33.2-30.8,3.3,3.3.7,6.6-7.6,9.8a25.9,25.9,0,0,1,9.5,2.2c-10.7,6.3-7.2,7.7-14.3,13,3.2,4.4,24.3-5.2,25.1-1.1-14.9,4-3.3,4.7-7.7,9.7a8.2,8.2,0,0,1-6.3-1.1c-1.1,4.1.8,6.1-4.8,3.8,0,11.3,13,.3,17-2.3,0,8.9-9.3,1.7-.6,10.8-.8.5-7-1.8-8,0-2.2,4.4-1,16.5-3.6,22.1-1.3,2.8-10.5,5.5-10.3,6.5a7.9,7.9,0,0,0,6.9,4.5c-4.3,8.3-7.2,1.3-15.8,2.3,18.4,15.1,4.5,1.3,3.1,10.8a11.4,11.4,0,0,0-8.3-4.5c1.8,3.2,4.7,6.1,2,9.7a5.9,5.9,0,0,0-4.6-4.9c-3,7.1,6,7.4-2.6,10.5,1.1,8.1,10,3,1.4,10.3,16.8,2.3,12.3-9.8,21.5-18.3,1.3,2.4-2.6,11.2-.3,12.7s7.6-2.5,9.9-3.5c5.1,4.5-13.5,22.6,6.4,12.5,1.8,3-6.9,7.1-8.3,7.4a16.7,16.7,0,0,1,9.3,2.2c-6,.8-14.7,3-8.2,9.8-1.9.2-11.1,6.4-9.2,9.7,5.1,9.5,33.2-28.4,38.9-27.4l-7.8,9.4c7.9,3.1-18.7,8.2,3.4,8.2.4,3.5-11.5-.9-12.5,4.1.4.1,7.3,1.3,7.6,2.7-3.3.8-5.7,0-9,1.6a13.2,13.2,0,0,0,4.8,4.3c-16.2,0-7.3,0-15.5,7.2,6-.8,10.4,1.3,13.1,6.3-6.8.4-30.3,2.7-23,11.6.2,0-8.9,3.1-5.2,4.3,6.1,1.9,7.9-6.3,9.4-10.4,12.1,6.2-17.1,11.4,6.9,11.4-7.8,8.9,4.3,2.3-3.4,8.5,7,3.3,3.7,2.6,9,2.2-.7,2.9-.8,4,1.3,6.3a26.1,26.1,0,0,0-12,5.9c3.3,3.9,5.6-2.8,8.6-.3-4.4,6.3,1.1,1.5,2.5,5.8.3,1-11,9.5-10,8,7-.3,55.7-14.2,53.2-16.3-3,5.7-6.9,13.6-10.9,17.6-1.9,1.9-13.6,5.9-14.2,9.2,26.6,3.9-11.9,5.6-15,7.5-5,3.1-5.6,9.6-10.7,14.5,6.5,8.2,31.6-6.3,36.9-8.8s25.4-16.3,25.2-16.3c-.4,7.3-8.6,13.4,2.9,12.3,0,2.9-10.8,3.6-11.7,3.8,1.4,3.6,8.3,2.3,8.6,5.1a15.8,15.8,0,0,1-11.5-3.1c-.1,1.3,3.2,6.1,2.2,7-12.9-8.3-.3.5-1.2,6.2-3.1-6.2-5.9-8-8.4-5.2,6.5,8.6.5,6.4-5.5,11.5-1,.9-11.9,4.8-12.8,5.2-9.8,5.3-20.2,12.7-32.2,15.3s-25.4,7.6-38.6,10.1c-5.7,1.1-11.5-5.1-17.1.9C291.5,1169,305.5,1206.5,306.9,1211.7Z"/><path class="cls-2" d="M239.5,804.5c1.8-.1,6-3.1,5.9-3.1.6,3.9,5.9,13,9.3,5.5a4.3,4.3,0,0,1-5.9-.7c4.1-1.9,7.2-8,4.4-14.9-6.3,3.3-5.9-2.3-8.2-5.7,2.5-1.6,3.5-1.6,5.6-3.6a16,16,0,0,1-13.2-1.6c4.4,1.3,7.9.5,10.5-2.3-11.3-4.4-20.7,1.4-26.2,10.8,7.3,3.3,12-4.7,18.7-3.9.7,9-8.2,4.8-12.2,6.5,1.5,6.3-.2,4.9-3.4,9.3,6.4,3.9,13.8-7.9,18.7-9.2-2.4,7.5-10.2,16.4-3.3,23.8C243.6,811.5,241.1,807.9,239.5,804.5Z"/><path class="cls-2" d="M-18.5,767.6c2.5,12.1,23.3,6.2,29.2-1.5C3.9,767.9.9,762.4-2.7,758-2.9,761-14.9,767.6-18.5,767.6Z"/><path class="cls-2" d="M318.8,939.2c7.8,3.4,9.9-8.7,13.7-11.1s11.6,2.2,14.9-1.2,4.1-16.1-4.1-11.5a4.8,4.8,0,0,0,.6,4.9c-4.7-1.6-7,0-7,4.8-4.6-3-12.7,3.7-13.6,2.3C322.1,931.7,320,935.1,318.8,939.2Z"/><path class="cls-2" d="M208.1,741.2c1-.8-12-5.2-9.4.3,7.7,1,1.3,2.1,8.4,4.4a7.6,7.6,0,0,0-5.5,3.1c7.4,2.3,19-4.8,21.2-12.1-6.7-1.8-8.9-3.7-10.4,4.5C211.1,739.5,206.8,736.9,208.1,741.2Z"/><path class="cls-2" d="M153.4,820.4a7,7,0,0,0,3.4-5.2c.9,1.8-10.8-16.6-5.2-15.1-9.9-2.7-4.3,15.5-2.6,18.2-.5-.7,10.8,15.2,9.2,3.4Z"/><path class="cls-2" d="M170.9,792.8c2-2.6,13.9-8.5,11-13.1s-8.6.9-8.8,3.7c-13.1-10.1-5.1,5.3-2.2,9.4Z"/><path class="cls-2" d="M132.1,801.3c-3.2-3.2-16.8,5.5-5.6,13.1.7-2.5,13.3-5.1,10.8-7a3.7,3.7,0,0,1-4.8,1.6,6.3,6.3,0,0,1,1.7-3.8,5.5,5.5,0,0,1-6.3-.9Z"/><path class="cls-2" d="M183.9,797.7a4,4,0,0,0-2.8-3.3c-5.6.8-.7,5.7-.5,6.9.6,3.2,14.4-8.9,5.8-9.6C183.6,791.5,185.2,796.5,183.9,797.7Z"/><path class="cls-2" d="M39.5,857.4a11.3,11.3,0,0,0-9.3,1.4c5.6,8.2-6.8,9.5,7.4,5.7-3.5-.8-4.6-2.7-3.4-5.6,8.2,1.2,10.8,3.2,8.2-6.4C40.3,852.5,39.3,854.1,39.5,857.4Z"/><path class="cls-2" d="M241.9,774.3c-.5-6.2-5-8.7-9.8-7.3,1.6,1.9,2.7,3-.6,2.6A17.8,17.8,0,0,0,241.9,774.3Z"/><path class="cls-2" d="M111.2,800.8c9,13.5,7.7-9.9,7.8-9.4C115.1,792.6,119.7,798.2,111.2,800.8Z"/><path class="cls-2" d="M331.6,832.1c1.5-4.1-5.5-11.7-9.8-7.9,3.8,3.1,4.6,7.1,9.8,7.9Z"/><path class="cls-2" d="M203.8,673.5c2.8,7.7,2.5,8.9,9.6,4.2A15.1,15.1,0,0,0,203.8,673.5Z"/><path class="cls-2" d="M300,797.3c-3.6,1.9-4.4,12.2,1.2,10.5A31.2,31.2,0,0,0,300,797.3Z"/><path class="cls-2" d="M176.3,750.3c6.1,4.2,10.8-1.9,7.3-4.4C182.4,745.1,176.2,750.3,176.3,750.3Z"/><path class="cls-2" d="M216.6,791.9c-4.3,1.7,9.6,7.8,8.7,3C223.8,791.8,220.8,790.8,216.6,791.9Z"/><path class="cls-2" d="M306.3,789.5c-4.5,2.8-4-.5-4.4,7.4,4.6-.2,6-2.7,4.4-7.4Z"/><path class="cls-2" d="M197,728.6c-1.5,6.2,11.7-3.3,2.7-3.9Z"/><path class="cls-2" d="M183,715.5a23,23,0,0,0,6.9-.5C187.9,710.5,185,710.2,183,715.5Z"/><path class="cls-2" d="M301.4,743.3a48.2,48.2,0,0,0-8.8,4.4C294.2,751.2,303.7,747.3,301.4,743.3Z"/><path class="cls-2" d="M274.2,822.6c.1.2-8.2-8.8-8.6-4.8-.2,1.7,7,6.2,8.6,4.8Z"/><path class="cls-2" d="M140.9,805.2c-.1.7-3.1,5.9,1.8,3a4.4,4.4,0,0,1,1.7-5.2C143.1,802.8,136.7,803.7,140.9,805.2Z"/><path class="cls-2" d="M223.4,819.4c-1.8.7,8.3-5.2,4-5.3S221.7,815.6,223.4,819.4Z"/><path class="cls-2" d="M263.3,800.8c1.7-2.7,4.1-4.7-.1-6.4C261,797.1,258.2,799.7,263.3,800.8Z"/><path class="cls-2" d="M121.9,806.7c-5.9,1.1-6.6,3.6-2.1,7.2A6.4,6.4,0,0,0,121.9,806.7Z"/><path class="cls-2" d="M230.7,776.5a15.1,15.1,0,0,1-1.6-5.6c-4.5.9,4.6,7-5.2-.1C224.6,774.6,226.9,776.4,230.7,776.5Z"/><path class="cls-2" d="M272.4,741.1a4.1,4.1,0,0,0,1.7,4.9,3.9,3.9,0,0,0,2.8-2.5,3.5,3.5,0,0,0-4.2-2.5Z"/><path class="cls-2" d="M295.2,787c-.4-5.4-7.1-2.4-6.3-.4A6.2,6.2,0,0,0,295.2,787Z"/><path class="cls-2" d="M354.3,986.1c-5.4.7-5.2,2.2-1.3,5.2Z"/><path class="cls-2" d="M192.2,722.1c1-1.2-5,7.1,0,5.2C195,725.9,195,724.2,192.2,722.1Z"/><path class="cls-2" d="M172.4,755.3c-1.6-2.1-3.2-2.3-4.6-.7C168.1,758,169.7,758.3,172.4,755.3Z"/><path class="cls-2" d="M112.4,818.5c-3.5,2.5-2.8,4.3,2.2,5.1Z"/><path class="cls-2" d="M110.8,866.9q-5.1,4.1,3.3,4.5C114.7,868.6,108,863,110.8,866.9Z"/><path class="cls-2" d="M348.4,1001.9l.4-4.3c-3.9.5-5.4,1.8-4.6,3.9Z"/><path class="cls-2" d="M193.8,769.7c-1.7-3.5-4.5-2-6.1,0C188.9,771.5,191,771.5,193.8,769.7Z"/><path class="cls-2" d="M237.4,731.8c-3.3-1.6-4.5-.9-3.7,1.9a2.8,2.8,0,0,0,3.6-1.7C237.3,731.9,237.3,731.9,237.4,731.8Z"/><path class="cls-2" d="M218.4,751.6c4.2-.7,5.5-2.4,3.7-5C219.6,746.5,218.3,748.2,218.4,751.6Z"/><path class="cls-2" d="M294.2,791.9c3.1-1.9,3-3.1-.4-3.7C291.8,789.4,291.9,790.7,294.2,791.9Z"/><path class="cls-2" d="M108.6,836.1h6C110.9,832.9,109.7,832.8,108.6,836.1Z"/><path class="cls-2" d="M84,811.1c.1.1,6.6,1.3,2.8-3.9Z"/><path class="cls-2" d="M310.6,759.9c2.4-2.4,4.7-4.7,8.2-5.4l.4.6-7.9,5.7Z"/><path class="cls-2" d="M354.1,830.3h.6l-.3.3Z"/><path class="cls-2" d="M310.3,760.8l.7-.2-.3.7Z"/><path class="cls-2" d="M1945.2,633.6v16.9c-.9-2.5-2-3.3-3.4-2.4.9,7,5.9,18.4.3,22.1,11.9,4,.2,46.1-2.9,55.3,12-1.1,4.1,10.5,4.2,17.6,0,15.9,1.8,33.4,1.8,49.9v381.8c0,9.2,5.6,45.3,0,51.8s-49,0-58.7,0H1606.2c1.6-5.8,13.3-33.5,10.5-38.8-1.3-2.6-21.6-8.6-24.2-9.2-14.7-3-31.2-4.2-45.7-8.1-6.4-1.6-12.3-2.6-18.3-4.8-9.6-3.4-13.8-11.8-19.6-14.8-13.9-7.1-16.5,1-17.3-13.7a75.5,75.5,0,0,1-7.6,5.4c-5.8-2.4,16-17.1-1.7-5.8-1.4-1.5,2.6-4.6,2.3-6.6a20.9,20.9,0,0,1-11.6,2.9c-.6-2.9,7.2-1.6,8.7-5.4,4.8.8-12.5-.4-11.6-3.5,13.5.7.3-5.3,3.4-13,12.2,17.8,41,26.1,61.5,26.1-2.3-5.9-10-12.1-14.7-14.7s-34.6-4.3-10.6-7.9c-2.2-4.4-12.2-6.8-14.7-9.2-4.1-4.2-7.5-11.3-10.8-17.6.2-.1,43,17.5,53.2,16.2-2.7-3.2-10.8-4.5-10.6-9.4a6.3,6.3,0,0,0,5.1-1.4c-2.1-1.2-2.6-2.4-1.5-3.5a8.6,8.6,0,0,0,8.2,1,36.6,36.6,0,0,0-12-6.4c1.5-2.3,1.8-2.5,1.2-5.8,9.2.2,10.2-5.5,5.4-10.8,24.3,0-5.8-4.2,6.8-11.1,2,3.5,3.7,14.2,10.2,9.8-.5-3.2-2.3-4.5-5.7-3.9,7.8-9.6-17.3-10.3-23-11.9,2.4-5.6,7.6-5,13.3-5.9-9.9-6.7,2.7-7.3-15.1-7.3-.2-.6,3.6-3.3,4.2-4.3-2.2-1.3-9.1-.1-9.1-2.7a10.9,10.9,0,0,0,7.6-2.1c-1.4-4.3-13-.2-12.3-3.6,15.4,0-2.2-10.2-4.4-17.7,9.8-1,26.8,33.9,36,29,5.2-2.8-.8-10.7-5.7-11.1.6-7.2.6-8.6-8.8-9.9,2-3.5,7.6.1,8.8-2.3a11.5,11.5,0,0,1-8.2-6.8c16,.2,2.5,2.7,6.6-13.1,1.9.9,7.9,5.6,10.1,3.8s-3.1-9-.3-12.8c6.5,5.9,7.5,22.9,20.9,17.9-5.8-6.8,6.2-8.4-3-11.8a7.5,7.5,0,0,0,3.1-8.4,5.4,5.4,0,0,0-5.5,4.6c-3.9-4.6,2.9-5.7,1.5-10.1a15.7,15.7,0,0,0-7.7,4.9c.3-2.8-1.3-3.9-4.8-3.4-.3-1.9,6.6-6.2,7.6-6.9-1.5-3.5-11.6,5.3-15.4-2.9a7.8,7.8,0,0,0,6.8-4.5c.7-4.4-8.2-.5-9.1-3.5,0-.1-2.9-13.8-1.1-9.6-1.8-4-2.5-13.6-3.6-15.3s-6.9.2-8.4.3c6.2-3.6,6-7.3-.5-11.2,5.4,1.4,17.3,14,17.3,2-1.7-.5-1.2,2.6-3.7,1.6-7.6-3.2,10.9-7.6-7.5-3.6-5.7-8.3,11-5.2-7.6-10.1.9-4.7,21.5,5.8,25,1,1.8,1.3-14.1-16.1-14.1-13.4a13.6,13.6,0,0,1,9.7-1.2c-2.4-2.8-5.7-7.6-8.7-10,14.4-4.7,22.5,34.1,43.2,28.9-.7-6.5-8.3-4.6-13.2-7.5,3.3.6,5.7-.5,7.1-3.3-1.5-.1-14.6-4.8-14.3-4.1,12-9.1-1-10.3,3.3-12.8a27,27,0,0,1-8.8-2.1c.9-.3,7.5-1.4,7.2-3.1-.8-5.4-20.2-10.3-23.9-12.1,7.4-6.5,5.5-4.9-5-1.6a12.3,12.3,0,0,0,5-6,25.3,25.3,0,0,0-9.5-3.8c-.4-5.7,18.5,6.3,19.8-1.3-6-1.3-5.7-11.5-8.2-16,4.7-4.2,29.9,48.3,47.4,23.9-.4-.8-16.1-4-14.4-4.1.1-1.9,4.8-11.2,1.8-13.8s-9.1,1.6-12.1-.1c-5.8-3.1-1-3.2-2.6-8.2a8.5,8.5,0,0,1-5.7,2c3.6-4.6,7.3-7.7,13.1-9.5-.7-3-7.6,1.1-6.9-1.6s3.9-1,4.1-3.5-8.7.6-8.6-2.4c4.8-.7,2.5-6.6,1.9-9.8-1.9-.3-7.2-.5-8-3.3a9.9,9.9,0,0,0,6.8,0c-2.4-2.7-7-4.8-6.8-9.3,4.8,6.4,39.8,26,37.7,29.1,5.1,4.3-4.9,7.8,3.2,10.3,4.6,1.6,3.7-4.4,7.1-4.7,1.2-.1.3,3.2,1.2,3.5s2.9-18.4,2.6-18.9c-2.4-4.6-11,3.7-11.5-6.4-6.6,2.6-6.8,2-6.3-3.9-6.2-1.7.1-2.9-7.3-3.6,1-3.6,4.6-4.1,7.7-6.2-5.1-4.2-6.6,3.6-13-.5,4.9,1,7.2.1,6.9-2.6-.3-.1-11.9.4-11.9-1.7,17,0,1.3-1.3-2.4-2,5.6-4.6-1.2-.5-1.2-5.2,5.1,2,1-5.2,3.4-8.8,1.3,4.1,20.3,28,30.8,17.4.7.5,9.8-23.6-5.1-9.9-1.8-1.4-1-2.9,2.4-4.7a12.9,12.9,0,0,1-11.2.3,75,75,0,0,1,9.3-1.5c.5-4.5-12.7-4.1-14.7-7.1,18.4,1.1,2.9,1.4,6.4-3,3.1,2.3,4.2,7.6,8.7,7.5-1.9-2.7-1.9-5-.2-7.1,1.8,1.8,4.1,17.8,10.3,7.3-6.5-1.4-1-1.4-1.4-4.2a4.6,4.6,0,0,1-4.8-2.5,6.2,6.2,0,0,0,5.6-.7c-2.1-2.6-11.2-3.5-10-8.9,19.1,8.7-12.7-16.3-13-15.7,2.4,2.2,5,2.7,7.9,1.3-1.2-1.4-9.6-9.3-7.4-11.8,1.8,2,8.1,12.3,12.6,9.3q-4.4-1.5-2.4-5.4c4.6,5.1,17.8,12.5,19,.6.8-7.2-14.6-3.8-14.4-9.6l13.8,3.9c4-4.2-13.6-9.9-15.4-13.3,2.1.5,13.1,5.7,13.3.6-9.9-1.8-12.6-8.8-11.4-15.5,1.1,1,9.9,9.3,12.5,6.2-.6.7-6.7-20.4-6.7-24.4.3.3,6.5,21.8,10.3,16.4,5.7-8.1,1.1-29.3,3.8-39.5,2.2.5.6,45.1.6,49.2,2.7.8,12.8-11.3,16.4-11.6-3.1,9.8-16.5,15.4-18.2,23.9,2.1,1.4,9.7-5.3,10.5-6.3-.4,3.8-9.9,11.4-5.6,15.1s17.5-6.7,19.6-3.1-16,10.8-17.3,13.8c7.8-3.3,11.7-2.2,11.8,3.2a40.5,40.5,0,0,0-9.7,3.7c.9,1.2,10.9,2.5,11,2.9.7,2.8-7.9,7.1-9.7,8.5,13,7.3,17.7-12,23.6-14.3,8.9-3.4-18.5,30-18.5,27.4,32.6-6.8-14.2,6,2.9,10.9,2.9.8,19.8-9.6,21.2-11.8,4.2-6.2-.3-12.9,1.5-17,2.9.6,11.5,4.2,12.9-.4-6.5-1.8-11.4-5.8-17.5-8.6,3.9-2.2,10.1.5,13.5-2.1-5.9-1.7-18-8.2-5.4-10.1-4.5-.5-6.8-2.9-7.1-7.2a28.8,28.8,0,0,1,8.7,1.9c-1.2-6.4-5.6-7.2-3.9-13.3,4.6,4.6,10.1,23.2,18.8,23.8,3.6.2-2.9-10.2-2.9-10.2s14.2,11.2,13.7,2.6a10.1,10.1,0,0,0-7-3.5c3.7-4.1,4.2-4.2,2.9-9.3-5.1,6.5-3.4.9-1.5-2.6-4.7-.9-6.2,1.9-10,4.4-2.1-5.2-2.3-6.5-8.1-8.8,7.4-3.2,19.9,7.5,29.1,2.7-4.6-2.7-12.3-4.1-17.4-2.4,8.9-9.9-.5-6-7-7.8,5.5-4.3.4-7.8-6.2-7.9,2.9-5.3,5,2,10.5-.5a76.5,76.5,0,0,0-6.4-12.8c1,0,14.7,13.3,15.7,14.2-6.3,11.8,15.8,8,4.6,1.7.3-1.7,1.8-2.1,4.4-1.3a21.9,21.9,0,0,0-6.8-6.4,7.4,7.4,0,0,0,3.7-2.5c-3.9-1.7-4.7,1.6-9.6-.2,3.7-.2,5.2-1.3,4.5-3.4-11-1.2,1-5.3,2.7-9.7a21.7,21.7,0,0,0-8.8-.4c-.5-3.8,1.2-6,5.1-6.4-6-4.2-6.4-3.8-8.7-10.4a13.2,13.2,0,0,0,7.8,5.7c1.3-4.6-4.9-12-8.2-14.7,4.9-1.9,11.1,12.1,18.7,12.5-14.4,15.5,5.6-.4,7.5,2.5,4-5.3-6.9-6.1-8.8-5.9-.5-3.3,9.2-.3,9.7-5.2-.8-.2-10.5-1.1-9.7-4,17.2,5,6.4-.5,4.1-6.6,1.8-.2,4.1,1.6,5.3,1.2s-17.5-14.3-17-17.1c3.8,2.3,9.8,8.8,14.4,10.2a85.5,85.5,0,0,1-3.8-9.5c2.9.7,4.6,2.8,5.1,6.2,5.6-6.9.5-32.3,1.9-41.8,2.8.1.8,44.2.8,47.6,4.9-3.2,9.1-7.2,14.3-9.9-4.1-5.1-13.9,21.6-14.7,25.5a65.1,65.1,0,0,1,8.8.6c-8-1.1-10.9,2.1-8.6,9.6,2.3,1.1,3.6-.5,4.2-4.9,2.8,1.6-6.9,8.7,6.9,5.7,8.5-1.9,10-10.9,16.3-15.9,2.8,2.9-10.1,16-10.1,17.7s5,1,4.8,3c-2,.3-9.4-.6-9.9,2.1a9.2,9.2,0,0,1,3.5,3.8,7.6,7.6,0,0,0-8.1.5,5.4,5.4,0,0,1,4.3,4.6c-6.5.5-4.4,4-2.2,7-.7.6-6.8-.6-9.5,1.8a9.3,9.3,0,0,1,9.8,3.2c-1.8,0-10.2-3-9.6.5,6.6.5,15.6-.7,21.9.4a91.1,91.1,0,0,0-10.8,7.6c-2.7-2.6-6.4-7.4-9.7-2.6,1.8,2.4,10.3,7.2,10.2,10.2s-4.3.6-4.4,3.3c0,8.6,35.5-9.6,17.9-13.3,0,1.3,21.7-14,19.4-16.2-7.5,7.3-5.3,9.7-.5,15.3-2.7,1.1-14.5,3.9-9.3,8.2-.9.1-13.6,7-10.9,9.4a46.5,46.5,0,0,0,12.9.8c-2.5.8-5.2,1.8-7.7,2.8a16.3,16.3,0,0,0,3.9,6.4c-5.1.6-2.6-.2-5.5,4.2-12-10.7-4.4-4-12.2-.1a14,14,0,0,1,5.6,2.4,31,31,0,0,0-9,1.6c-.9,2.1,5.1,6.3,5.4,6.6a17.8,17.8,0,0,0-9.7.3c6.1,9.6,31.2,4.3,24.3-5.4a3.9,3.9,0,0,1,4.7.6c2.8-3.6.6-3.9-1.2-7,1.6-1.1,3.2-.3,4.7,2.3a26.9,26.9,0,0,1,9.3-13.8c-.3,3.5-3.9,7.4-5,10.7-3.7,11,3.9-1.1,4.4,4.5a20.2,20.2,0,0,0-8.8,1.9,13.5,13.5,0,0,0,4.7,2.2c-2.7,5.8-6.4.8-10.4,7-1.3,1.7,12.9.5,14.4,2,2.8-.4-19.6,7.1-17.4,2.2a57.7,57.7,0,0,1,8.1,6.7,21.8,21.8,0,0,0-7.2-.1,30.7,30.7,0,0,1,4.1,4.7c-1,1.9-5.8.8-7.3,4.6,5.7,1,8.2,4.1,7.5,9.2a10.9,10.9,0,0,0-7.9-3.8c3.1,3.9,3.4,6.7.9,8-1.2-.9-6.8-3.9-8.9-3.4.8,22.8,37.8-18.9,37.7-18.9,4.5,6.8-8.2,8.6.9,16-6.5.6-9.3.1-3.8,2.8a4.1,4.1,0,0,1-4.2,2.2c-.2,4.2,5.2,2.5,4.9,5.1s-7.6-2.6-6.8,4.4c.4,3.3,11.1,5.7,10.3,8.7a139.1,139.1,0,0,0-15.8-.6c1.4,1.8,7.7,5.8,6.4,8.8a9.2,9.2,0,0,0-9.2-2.2c.8,6.5,16.6,5.5,18.5,4.3s.9-16.5,9.4-17.5c2.6,10.2-11.1,10,1.5,16.7-1.5,7.2,3-12.9,1.3-12.2,8.4-3.6,13.4,6.7,20.9-.2-2.9-.8-12.8-2-13.4-5.9,2.4-3.1,13.4-1.2,13.4-4.6a40.2,40.2,0,0,1-10.8-5.3,98.9,98.9,0,0,0,12.3-2.3,22.1,22.1,0,0,1-8.9-6.2,25.9,25.9,0,0,1,10.3,2.4c1.8-3.5-1.8-6.8,1-10.1-1,10.5,3.5,13.6,13.4,9.4a64.8,64.8,0,0,0-9.3,6.1c.5-.1,10.3-3.1,8.5.1a18,18,0,0,1-8.3,6.9c3.8,0,8.2-2.5,10.3,2-13.4,8-14.1,6.4,1.4,6.4,0,.3-9.9,8.1-10.4,8.9a9,9,0,0,1,9.6.9c-4.2,2.4-8.6,4-11.9,7.3,2.5-.5,17.6-9.3,19.4-4.8s-5,3.2-5.3,5.4c13.5,4.4,1.6-27.6,10.6-34.1,1.3,11.1-3.2,35.1,10.6,35.1.6,2.2-1.1,3.6-5.1,4,17.7,5.4-1.6,24.3,17.9,16-.4.7-7.7,22.1-6.5,24,.4-.1,15.6-5,16.8-3.9-4.9,6,17.3,8.6,22.6,8.3-4.3-7-10.5-13.1-16.5-19.5,17.1,2.6-6.1-6.8-8.9-9.7s-5.2-9.9-6.2-13.7c10.5,2.4,19.8,2.8,30.5,4-4.5-10.7-17.7.7-22.7-6.7,3-.7,2.4-2.3-1.7-5,2.9-1,4.5-2,1.4-4,15.5-2.1,28.5,0,43.4,3.8-.3,1.3-16.8-16.8-19.3-14.1-.7-4.3-29.2-10.3-27.8-18.2,6.9-1.3,18.4,1,8.5-5.4,15-2.1,25.9-12.4,41.7-13.8-1.3-3.7-7.5-11.3-9.7-14.2-2.6,3.1-19.2-12.4-25.6-16.1,16.8-1.8-9.2-5.7,15.4-.4,6.6,1.6,12.3,7.5,19.9,5.4-9.9-9-8.4-1.2-11.7-12.1-4.5,4.7-12.2-8.1-14.1-11.5,10.3-.7,17.6,5.5,27.6,6.5-4.4-3-8-18.1-13.3-16.9a3.1,3.1,0,0,1,2.6-3.5c-4.9-3.2-1.3-1.4-5.9-8.7a8.9,8.9,0,0,0,3.1-1.5c7.3,7.6,13.9,15.5,26.5,11.7-2.4-3.8-7.6-25.2-10.6-14.6a19.5,19.5,0,0,0-4.4-7.8c-.5,4.7-12.7-12.5-15.7-15.9-.8.9,23.8,7,25.8,7.3-10-11.4-1.9-1.8,2.7-9.9-3-.6-11.9,3.5-13.9,2.3s-7-7.7-6-6.6c-1.7-1.8-8.3-9-6.1-11.4,10.9,5.9,17.7,9.1,30.3,8.4-6.7-9.2,3.1-10.6-.5-19.2-.6-1.2-11.3-7.4-12.4-8.2,6.3-2.4,3.1-6.6-1.9-10.5,5.3,0,12.3,2.1,18.6,1.7a19.9,19.9,0,0,0-5.7-9.1c2.6-1.9,5.7,2.1,6.9-4s-3.5-17.1,4-20.4c5.7,6.5.4,13.6,2.9,19.4l13.4-.8c-5.4,2.3-5.4,4.2-.1,5.9-6.4-.3-8.7,1.4-7,5,25.7-5.1-2.5,14.6-1.8,18.9A53.3,53.3,0,0,0,1945.2,633.6Z"/><path class="cls-2" d="M1661,784.1c-.8.4-9.7-8.5-10.3,5.2C1656.7,789.9,1660.2,788.2,1661,784.1Z"/><path class="cls-2" d="M1653,819.3c.4,4.2-2.6,6.1-.9,11.2,9.6-10.1-4.1-14.1-3.1-24.7,4.5,2.6,12.5,13.4,18.8,10-3.6-5.4-6.1-.7-3.4-9.4l-8.3.4c3-2.9,1.7-5-4.1-6.3.2-1,17.1,4.1,18.7,4.3,0-3.9-9.3-7.3-11.5-12.1,3.5-1.3,9.1-2.2,9.5-6.9-3,3.9-4.5,4-4.7.3-8.6,5.1,7.5-1.2-9.1,5.7-1.3.5-10-.7-10.3,1.3s14.1,2.4,10.7,2.2c-3.6,3-7.8,3.5-12.7,1.3-1.4,2.6,12.4,10.9-3.5,10.1-1.8,6.6,5.5,6.6-2.4,10.7a70.3,70.3,0,0,1,6.8,4.3,5.5,5.5,0,0,1-5.5.6c2.6,8.1,8.7-3.4,9.2-6C1647.6,816.2,1650.3,819.3,1653,819.3Z"/><path class="cls-2" d="M1895.3,773.7s-9.8,7.8-13.7,7.3c4,4.6,28.4,15.4,28.6,3.8C1910.3,776.4,1896.2,780.1,1895.3,773.7Z"/><path class="cls-2" d="M1540.9,934.8c7.9,13.3,8.1,1.7,18.8,8.2,5.2,3.2,6.7,8.6,13.6,11.4,2.9-8.7-11.5-18.2-17.7-14.3,0-4.9-2.3-6.5-7.1-4.8a3.9,3.9,0,0,0,.8-4.8C1545.5,929.5,1542.8,930.9,1540.9,934.8Z"/><path class="cls-2" d="M1678.3,758.2c-4.7,4.5,10.4,10.6,12.5,5.3a8.2,8.2,0,0,0-5.5-2.6c7.2-2.4.9-3.6,8.6-4.5,2.6-6.1-7.9-.9-9,.2-.9-.6-.9-1.4.1-2.6a4.1,4.1,0,0,0-5.2,2.4c.5-5.2-7.2-10.8-9.9-4.7C1668.6,754.3,1677.6,757.9,1678.3,758.2Z"/><path class="cls-2" d="M1742.8,833.8c5.5-3.8,6-20.6-1.8-18.8,5.3-1.2-5.6,15.8-5.2,15.2-3.8,5.6,12.8,2.7-2,6.6C1738.1,842.5,1744.2,841,1742.8,833.8Z"/><path class="cls-2" d="M1719.9,798.3c-2.2-3.5-5-6.8-9.3-3.6s10,11.7,11.1,13.1c3-4.4,8.8-19.7-1.8-9.5Z"/><path class="cls-2" d="M1758.7,819.7c-.6.8,1.3,3.3,1.7,3.9q-2.9,2.3-5.1-1.2c-1.7,1.4,10.3,6.6,11.3,6.5V816.6c-2.8,2.1-11.8-4-1.9,2.6A4.5,4.5,0,0,1,1758.7,819.7Z"/><path class="cls-2" d="M1858.2,873.8c.6,4.3-1.9,4.7-5.5,6.6a64.6,64.6,0,0,0,9.8.7c-5-1.4-5-3.8-.1-7.3,9.8,5.2-17.6-6.8-12.2-6.5C1847.8,876.9,1850,875.3,1858.2,873.8Z"/><path class="cls-2" d="M1708.7,812.6c-1.9-1.3.4-6.5-2.9-5.9s1.6,13.6,7.6,7.5c2.3-2.2-2.4-7.3-4.7-1.6Z"/><path class="cls-2" d="M1773.5,806.3l-1.3,11.8a8.3,8.3,0,0,0,9.2-2.4c-7.7-2.2-5-8.5-7.9-9.4Z"/><path class="cls-2" d="M1570.8,839.2c-3.9-3.4-12.4,3.4-9.8,8,5.1-.9,5.8-5.2,9.8-8Z"/><path class="cls-2" d="M1685.9,695.8l2.9-7.3a13.4,13.4,0,0,0-9.4,4A7.1,7.1,0,0,0,1685.9,695.8Z"/><path class="cls-2" d="M1591.6,823.1c3.4-3.6,5.3-7.4,1.3-10.9C1592.1,815,1589.9,820.2,1591.6,823.1Z"/><path class="cls-2" d="M1708.5,766l7.8-.8c.1.1-6.1-5.1-7.3-4.3a4.2,4.2,0,0,0-.5,5.1Z"/><path class="cls-2" d="M1667.5,811.3c4.3-.2,7.7.3,8.5-4.6-3.4.6-9.3-.1-8.5,4.6Z"/><path class="cls-2" d="M1590.3,811.8c.4-3.7,0-6.4-4.2-7.3,0,3.8-.7,7,4.2,7.3Z"/><path class="cls-2" d="M1695.6,743.7l-2.6-4c-9.9-.3,4.2,10.4,2.6,4Z"/><path class="cls-2" d="M1622.8,831.8l-4.4,5.5c1.5,1.1,9.3-3.2,8.6-4.5s-2.4-1.5-4.2-1Z"/><path class="cls-2" d="M1709.2,730.2c-.3-11.1-7.2-.9-6.5-.3a7.4,7.4,0,0,0,6.5.3Z"/><path class="cls-2" d="M1599.7,763.1c.4-1.3-7.6-4.5-8.4-5-5.6,2.4,9.2,5,8.4,5Z"/><path class="cls-2" d="M1664.5,829c-.7,3.3.8,5.2,4.6,5.4,2.1-4.6,0-5.9-4.6-5.4Z"/><path class="cls-2" d="M1753.4,819.6a4,4,0,0,0-5.2-1.8c-.1,1,2.2,7.9,4.4,5.7s-4.4-2.4.8-3.9Z"/><path class="cls-2" d="M1629.6,809.3c-5.6,2.5-1.2,6.9,3.3,5.4Z"/><path class="cls-2" d="M1770.7,821.8a6.5,6.5,0,0,0,2.1,7.1C1777.2,825.2,1776.5,822.8,1770.7,821.8Z"/><path class="cls-2" d="M1620.2,756.1c-3.4-.6-4.9.4-4.4,2.9a3.3,3.3,0,0,0,3.2,1.7,4.9,4.9,0,0,0,1.2-4.6Z"/><path class="cls-2" d="M1597.4,801.3c2.4,1.6,4.4,1.6,6.2,0C1603.6,797.7,1598.2,798.6,1597.4,801.3Z"/><path class="cls-2" d="M1539.5,1006.2c4.1-3,4.2-4.4-1.3-5.1Z"/><path class="cls-2" d="M1699.7,742.3c6.8.4,1.8-4.8.8-4.3C1697.9,739.2,1697.7,740.6,1699.7,742.3Z"/><path class="cls-2" d="M1724.7,768.5l-4.4,2.2C1723.4,777.1,1724.7,769.2,1724.7,768.5Z"/><path class="cls-2" d="M1780.2,833.3l-2.1,5.1c4.3-.1,5.4-3,2.1-5.1Z"/><path class="cls-2" d="M1780.7,880.7a10.1,10.1,0,0,1-2.4,5.7c2.3-.9,8.8-3.4,2.4-5.7Z"/><path class="cls-2" d="M1704.4,785.3c1.7-2.9-4.2-3.7-5.7-.6Z"/><path class="cls-2" d="M1544.1,1016.8l4.3-.3c.4-2.2-1-3.5-4.6-3.9Z"/><path class="cls-2" d="M1673.6,766.2c1.5-1.5.8-3.2-2.2-5.3-3.1,2.7-1.8,2.7,2.2,5.3Z"/><path class="cls-2" d="M1783.9,851.1c-.3-3.1-2.3-3.3-5.8,0Z"/><path class="cls-2" d="M1655.3,746.9a2.7,2.7,0,0,0,3.3,1.9h.3Q1660,744.2,1655.3,746.9Z"/><path class="cls-2" d="M1600.9,804.6c.7.6-6.6-2.8-4.7-.1S1599.3,806.7,1600.9,804.6Z"/><path class="cls-2" d="M1808.3,826.4c1-1.5.2-2.8-2.5-4.1C1802.6,824.9,1803.4,826.3,1808.3,826.4Z"/><path class="cls-2" d="M1700.6,718.5c1.6-3.6-4.3-2.6-3.6-1.4a3.2,3.2,0,0,0,3.6,1.4Z"/><path class="cls-2" d="M1690,728.7c-.9-1.5-2-2-3.5-1.4,0,2.2,1.1,2.7,3.5,1.4Z"/><path class="cls-2" d="M1581.2,775.7l-7.9-5.6.2-.6c.6,0,1.4-.2,1.7.1,2.2,1.8,5.1,2.8,6.5,5.4Z"/><path class="cls-2" d="M1888.9,692.3c.5-1,1-1.7,1.8.1l-1.5.3Z"/><path class="cls-2" d="M1915.6,610.5v-.7l.4.4Z"/><path class="cls-2" d="M1887,647.7l-.2-.6.4.3Z"/><path class="cls-2" d="M1741.7,692.9h.5c0,.2,0,.3-.2.4Z"/><path class="cls-2" d="M1538.1,845.5l-.3-.3h.5Z"/><path class="cls-2" d="M1581.8,776.2l-.3-.7.7.2Z"/><path class="cls-2" d="M1535.5,890.3v-.5h.2l-.3.4Z"/><path id="Path_1801" data-name="Path 1801" class="cls-3" d="M1610.5,878.4s-11.2-1.8-17.6-2.2l-.8-11.6s-10.5,4.5-14.3,8.6a18.3,18.3,0,0,1-3.6,2.6c.5-2,.5-4,4-6.1s8-1.1,7.2-6.8,4.5-8,2.4-10.7a6.6,6.6,0,0,0-7.1-2.2l-6.8,1.8s-11.3-3-10.2-4.1,6.6-4.3,4.5-6.6-3.6-3.2-5.9-3-2.7-.7-7.6,1.1l-2.9,1V840c-1-1.6-6.3-3.4-6.4-8.9s-3.9-10.3-6.7-12.7-1-3.9-3.1.3-.1,7.8-2.1,10.4-10.2,4.1-6.1,6.7c.5.3.9.7,1.5,1-1.9-.2-3.7-.3-3.8.2s1.9.6,2,2.1-.6,1.7,0,2.3a28.3,28.3,0,0,1,2.8,2c.6.9.9,2.6,2.8,3.4,0,0-4.7-1.8-5.5-1.1s-1,1.8-2.4,1.6.1,1.2.1,1.6-.7.6-1,1.1c-3.8-1-8.4-2.1-10.6-3.5a12.1,12.1,0,0,0-7.9-1.9s-2.3,1.3-1.6,2.8h0l.3.5c1,1.2,3.2,4.3,3.1,5s-.6,1.9,1.5,3.5a9,9,0,0,1,2.9,4.5l-2,.8s-.5,2.2-1.3,4.9c-6.3-2.9-16.3-7.9-16.3-7.9s-8,4.9-5,4.4h-1.6a6,6,0,0,1,1.1,3.4,6.2,6.2,0,0,0,1.1,4.4c1,1.3,4.1,4.6,4.4,6.1a20.4,20.4,0,0,1,0,3.5c-3.5,4.1-6.6,8.2-7.4,10.9a4.9,4.9,0,0,0-2.9.6c-2,1.1-2.8,2.6-2.2,3.3l1.1.9a29.1,29.1,0,0,1-5.1,2.2c2.1-4.8,5.6-12,6.6-11.8s-3-3.4-3-3.4-6.7,8.3-9,10.2a34.1,34.1,0,0,0-4.8,6.5c-2.7-.1-7.8.5-7.4,6.9.1,1.5.2,2.7.2,3.7-.8-3.8-1.4-7.2-1.9-9.8s3.6-4.4,4.8-6.7,3.7-6.2,4.8-8.4,2.9-7.3,5.2-9.1-.3-3.5-.3-3.5-1.9-.3-3.7,2.3-7.4,5.1-7.3,6.6-2.4,3.5-4,5.1c.3-2.4.5-4.3.5-4.3l-1.2-5.2.7-2.9a30.1,30.1,0,0,1,3-6.9c1.8-2.6-2.6-3-3.8-5s-.8-5.3-2.3-8.6-.3-2.2-1.5.1a19.5,19.5,0,0,0-1.9,11.4c.6,4.7-1.7,6.8-2,8.2s5.4,3.9,5.5,3.9a21.9,21.9,0,0,1-.5,3l-8.1-4.2.3,4.5s2.5,1.3,3.6,5.6a2.8,2.8,0,0,0,2.6,2.3c-.1,1.1-.3,2.2-.3,3.3l-.2-.2-6.6-2.8c-1.3-.6-4.9-3.5-6.1-3.4s-3.3,3.6-3.3,3.6,3.3,1,4.2,3.4,2.3,11,3.9,11.3,4.8,3,6.5,4.4l-1.3.2-5.4,1.6s-9-3.3-8.2-4.4,5.3-4,3.6-6.4-3.1-3.3-4.9-3.2-2.1-.8-5.9,1l-2.3,1v-.2c-.8-1.6-5-3.6-5.2-9.1s-3.3-10.5-5.5-13-.9-3.9-2.4.2.1,7.9-1.6,10.5-7.9,4-4.6,6.7l1.1,1c-1.4-.3-2.9-.4-2.9.1s1.5.6,1.6,2.2-.5,1.7,0,2.3,1.8,1.2,2.3,2.1.8,2.7,2.3,3.2-3.8-1.7-4.5-1-.8,1.7-1.8,1.5.1,1.2.1,1.6-.5.6-.8,1.1c-2.9-1.1-6.6-2.3-8.4-3.7s-6.2-1.9-6.2-1.9-1.8,1.3-1.3,2.6h0l.3.5c.7,1.3,2.6,4.5,2.5,5.3s-.5,1.8,1.3,3.5a9.2,9.2,0,0,1,2.2,4.4l-1.6.8-.9,5c-5.1-3-13-8.3-13-8.3s-6.4,4.9-4,4.3H1372a.8.8,0,0,1,.2.7,44.9,44.9,0,0,1-9.7-8.2c-3.9-4.9.2-14.5-7.7-8.4s-10.1,5.8-9.7,12.1-7.6,8.1-7.2,15c.4,5.2-2.7,9.6-5.6,13.4-4.3.4-9.3,1.8-9-.5s.3-5.1,2.9-7.4,5.5-1.1,4.8-7.8,2.9-9.2,1.3-12.4-3.7-3.3-5-2.8l-4.8,1.8s-8.1-3.8-7.3-5.1,4.5-4.7,2.9-7.4-2.7-3.9-4.3-3.8-1.9-.8-5.4,1.1l-2,1.1v-.3c-.8-1.9-4.5-4.1-4.7-10.6a28.6,28.6,0,0,0-5.3-14.9c-2-2.8-.8-4.7-2.1.2s.1,9.1-1.1,12-7.2,4.5-4.1,7.6l1.1,1.3c-1.3-.3-2.6-.5-2.7,0s1.3.8,1.4,2.6-.4,1.9.1,2.7a24.3,24.3,0,0,1,2,2.5c.5,1,.8,3.1,2.2,3.9s-3.4-2.1-4-1.4-.7,2-1.6,1.8.1,1.4.1,1.9-.4.6-.7,1.2c-2.7-1.2-6-2.7-7.6-4.5s-5.8-2.3-5.8-2.3a3.9,3.9,0,0,0-1.1,3.1h0l.3.6c.6,1.4,2.4,5,2.4,5.9s-7.1-.7-5.4,1.3a2.2,2.2,0,0,1,.2,3h-.2l-.2.2-5.9-.3-3.7,7a13.8,13.8,0,0,1,.9,3.9,10.9,10.9,0,0,0,1,5.3c.8,1.5,3.1,5.4,3.3,7.2s-.1,10.3.3,10.4a21.3,21.3,0,0,1,3,3c.6.7-.8,3.9-.8,3.9a9.3,9.3,0,0,1-3.3.3c-2.2-.2-4.7-1.6-6-.4-5.9-.4-17.6-6.4-17.6-6.4l.3,7c.3,6.9-9.4,7.4-21.9,13.3a14.3,14.3,0,0,0-2.7,1.5l-.8-.4a10.5,10.5,0,0,0-5.7,1.9c-2.7,1.9-11.3,4-11.2,5.1s-3.5,2.7-6,3.9a14.9,14.9,0,0,1,.9-3l-1.4-3.8,1-2.1a23.3,23.3,0,0,1,4.8-5.1c2.8-2-3.6-2.1-5.4-3.5s-.8-3.7-2.9-6-.4-1.5-2.3.2-4.1,4.9-3.4,8.3-3,4.9-3.5,5.9,7.9,2.5,8.1,2.5l-.9,2.2-11.6-2.4.3,3.2s3.5.9,4.8,3.9c.5,1.1,2,1.5,3.6,1.5a15.5,15.5,0,0,0-.7,2.3h-.3l-9.5-1.6c-1.8-.4-7-2.3-8.7-2.2s-5.1,2.8-5.1,2.8,4.7.5,6,2.2,2.8,7.8,5.1,7.9,10.6,3.2,10.6,3.2l5,1.8a51.8,51.8,0,0,1,1.4,5.3l-6.1-2.7c-2.4-1-9.9-2-9.9-2s-12.9-2.5-14.6-2.3c0,0-1,3.1.3,4.8.2.1.3.4.5.6l-2-.5c-7.3-1.5-17.8-8.9-19.7-15.3s-14.7-5.5-31.2-6.3.4-4.6-5.9-11.4-19.3,10.2-26.7,18.5c-3.2.1-13.8-1.9-19.5-1.7s-13.6,2.1-13.1-.2.4-4.6,3.7-6.9,7.3-1.2,6.4-7.4,4.1-8.6,2.1-11.5a5.4,5.4,0,0,0-6.5-2.5c-1.6.6-6.1,1.8-6.1,1.8s-10.3-3.4-9.4-4.6,6-4.5,4.1-7-3.4-3.5-5.5-3.4-2.4-.7-6.9,1.1l-2.6,1.2V951c-.8-1.7-5.6-3.7-5.8-9.7s-3.7-11.2-6.3-13.8-.9-4.2-2.7.3,0,8.4-1.8,11.2-9.3,4.4-5.5,7.2l1.3,1.1c-1.6-.2-3.4-.4-3.4.1s1.8.6,1.9,2.3-.6,1.8,0,2.5,2,1.3,2.6,2.3.9,2.8,2.7,3.6c0,0-4.3-2-5.1-1.2s-.9,1.9-2.1,1.6.1,1.4.1,1.8-.6.6-.9,1.2c-3.3-1.1-7.6-2.4-9.7-4a10.1,10.1,0,0,0-7.1-2s-2.2,1.4-1.6,3h0l.3.5c1,1.3,3.1,4.7,3,5.5s-.6,2,1.4,3.8a9.8,9.8,0,0,1,2.6,4.8l-1.8.9-1.1,5.2c-5.9-3.2-14.9-8.7-14.9-8.7s-7.3,5.3-4.6,4.7h-1.4a8.9,8.9,0,0,1,1.1,3.6,8.7,8.7,0,0,0,1,5c.9,1.3,3.9,4.9,4.1,6.6-22.2-7.3-12.3-14.4-18.1-14.9s-10.4,16.7-10.4,16.7l-13.2,5.7c-4.1.3-18.7-2.7-26.6-2.3s-18.3,2.9-17.5-.2.5-6.4,5-9.4,9.7-1.5,8.7-9.9,5.3-11.5,2.6-15.6a7.6,7.6,0,0,0-8.7-3.4l-8.2,2.6s-14-4.7-12.6-6.3,8-5.9,5.4-9.4-4.5-4.8-7.4-4.6-3.3-1-9.2,1.5l-3.6,1.4v-.4c-1.2-2.3-7.6-4.9-7.8-13s-5.1-15.1-8.6-18.5-1.2-5.8-3.6.3,0,11.3-2.4,15.1-12.5,5.8-7.4,9.7l1.8,1.4c-2.3-.3-4.6-.5-4.6.2s2.4.9,2.5,3.1-.7,2.4,0,3.3,2.7,1.9,3.5,3.1,1.2,3.8,3.7,4.7c0,0-5.9-2.5-6.9-1.6s-1.3,2.5-2.9,2.2.1,1.8.1,2.4-.8.9-1.2,1.6c-4.6-1.6-10.2-3.3-13-5.2-5.2-3.8-9.7-2.8-9.7-2.8s-2.8,1.9-1.9,3.9h0a1,1,0,0,0,.4.7c1.2,1.7,4,6.4,3.9,7.4s-.8,2.8,1.9,5.2a11.9,11.9,0,0,1,3.5,6.4l-2.5,1.2-1.4,7.1c-7.8-4.3-20.1-11.9-20.1-11.9l-2.6,1.9c-2-2-3.8-4.1-4.1-7.7-.5-8-3-7-12.2-13.6s-3.4,5-6.7,11.7-10.2,13.5-19.7,21.3l-2.7,2.5-.5.2v-.3c-1-2.1-6.8-4.5-6.9-11.5s-4.3-13.2-7.5-16.4-1-4.9-3.2.3-.1,9.9-2.1,13.3-11,5.2-6.5,8.5l1.6,1.2c-1.8-.3-3.6-.4-4-.1a114.5,114.5,0,0,0,2.8-13.2s10.1-23.6,12.5-23.4-4.6-4.7-4.6-4.7-10,12.2-13.3,15-9.5,12.6-11,16.8-4.3,6.3-6.7,8.5c-1.1-5.6-2.3-10.7-3-14.6-.3-1.8,5.4-6.7,7.1-9.8s5.5-9.4,7-12.5,4.4-10.8,7.7-13.6-.4-5.2-.4-5.2-2.8-.3-5.5,3.4-11,7.7-10.8,9.9-3.4,5.2-5.9,7.5c.3-3.5.7-6.3.7-6.3l-1.7-7.7.9-4.3s1.8-6.4,4.5-10.3-3.9-4.4-5.7-7.5-1.1-7.6-3.4-12.6-.5-3.3-2.3.1a32.1,32.1,0,0,0-2.8,17c1,6.9-2.7,10-3.1,12.1s8.2,5.7,8.3,5.7-.4,2.8-.7,4.6l-11.8-5.9.4,6.9s3.6,1.8,5.2,8.1a4.1,4.1,0,0,0,3.7,3.7c-.2,1.6-.4,3.2-.5,4.8l-.3-.3-9.7-4c-1.8-.9-7.3-5.3-9-5.2s-4.8,5.4-4.8,5.4,4.7,1.4,6.1,5,3.5,16.3,5.8,16.8,10.9,7.5,10.9,7.5l5.2,4c.5,3.6,1.1,7.4,1.6,11L670,986c-2.6-2.4-10.2-5.1-10.2-5.1l-5.6-2.4c-1-2.6-1.6-5.5-2-11.5-.7-11.2-10.5-7.2-10.5-7.2s-3.1-9.6-6.2-18.3-6.9-10-9.1-5.8c-.9,1.6-4.9,3.9-9.7,6.2a7.8,7.8,0,0,0-3.4.2c-2,.7-7.3,2.1-7.3,2.1s-12.1-4-11-5.3,7-5.2,4.8-8.3-4-4.2-6.5-4-2.9-.8-8,1.4l-3.1,1.2v-.3c-1.2-2-6.8-4.3-6.9-11.4s-4.4-13.3-7.5-16.3-1.1-5-3.3.3,0,9.9-2,13.2-11,5.1-6.6,8.5l1.7,1.3c-2.1-.3-4.1-.5-4.1.1s2,.7,2.2,2.7-.7,2.1,0,2.9,2.4,1.5,3.1,2.7,1,3.4,3.1,4.1c0,0-5.1-2.1-6.1-1.3s-1.1,2.2-2.5,1.9.1,1.5.2,2.1-.8.7-1.1,1.4l-1.2-.4c-4-5.2-10.3-11.1-10.9-19.5s-9.4-9.8-9.9-17.9-3-6.9-12.2-13.6-3.4,5-6.6,11.7-10.3,13.5-19.8,21.4-6.7,10.1-11,21.5c-2.4,6.8-7.2,10.1-11.5,12.3,2.1-3.5,3.9-6.5,5.1-6.6s6.5-15.9,6.5-15.9,13.3-21.3,16.2-21.2-5.6-4.1-5.6-4.1-12.9,11-17,13.7-12.2,11.6-14.1,15.4-5.8,5.6-8.9,7.8c-1.2-5.1-2.3-9.6-3.2-13.1-.4-1.7,6.9-6,9-9s7.2-8.4,9.2-11.4,6-9.7,10.1-12.2-.3-4.8-.3-4.8a10.3,10.3,0,0,0-7.1,3.3c-3.3,3.4-14,7-13.9,8.9s-4.4,4.8-7.4,7c.6-3.1,1-5.6,1-5.6l-2-6.9,1.3-3.8s2.5-5.9,5.8-9.3-4.5-3.8-6.9-6.6-1.2-6.8-4-11.3-.7-2.8-2.9.3a22.1,22.1,0,0,0-3.9,15.2c.9,6.1-3.6,8.9-4.2,10.9s10.1,4.9,10.2,4.9a25.9,25.9,0,0,1-.9,4l-14.8-4.9.4,6.1a11.4,11.4,0,0,1,6.2,7.2c.8,2.1,2.8,2.9,4.8,3-.3,1.5-.5,3-.7,4.4l-.4-.2s-9.9-2.8-12.1-3.6-9-4.4-11.2-4.3a5.8,5.8,0,0,0-3,1.8,48,48,0,0,1-.9-7.5c-.7-11.2-10.5-7.3-10.5-7.3s-3.2-9.6-6.3-18.3-6.8-9.9-9.1-5.8-25.4,12.1-26.3,17c-.6,2.8-6.8,5.7-13.5,8.8a11.3,11.3,0,0,1,3.3-7.9c4.2-4.4,9.3-17.6,11.9-17.7s6.6-15.9,6.6-15.9,13.3-21.4,16.2-21.2-5.6-4.2-5.6-4.2-12.8,11.2-16.9,13.8-12.3,11.6-14.3,15.4-5.6,5.6-8.7,7.7c-1.3-5-2.5-9.5-3.3-12.9-.4-1.8,7-6.2,9.1-9.1s7.2-8.5,9.3-11.4,5.8-9.7,10-12.3-.3-4.6-.3-4.6a9.3,9.3,0,0,0-7.1,3.2c-3.3,3.4-14,6.9-13.9,9s-4.3,4.7-7.5,6.9c.6-3.2,1-5.7,1-5.7l-2.3-6.3,1.3-3.8s2.6-5.9,6-9.3-4.7-3.9-7.1-6.5-1.1-7-3.9-11.3-.6-3-2.8.2-5,9-4,15.2-3.6,9-4.2,10.9,10.1,4.9,10.2,4.9a25.9,25.9,0,0,1-.9,4l-14.8-4.9.4,6.1a11.8,11.8,0,0,1,6.3,7.2c.7,2.1,2.6,2.9,4.8,3a34.3,34.3,0,0,0-.9,4.4l-.4-.3-12.1-3.5c-2.2-.7-8.9-4.4-11-4.3s-6.3,5-6.3,5,5.9,1.1,7.6,4.3,3.9,14.4,6.7,14.8,13.5,6.4,13.5,6.4l6.5,3.6c.6,3.1,1.2,6.4,1.8,9.8l-7.8-5.2c-3-2.1-12.5-4.3-12.5-4.3s-16.3-5-18.4-4.8a24.2,24.2,0,0,0-.4,4.7,18.9,18.9,0,0,0-2.5-3.1c-4.9-4.7-21.9-10.7-21.9-10.7L293.1,1280l1340.4-63.4ZM331.9,925.8l-10,9.4-9.8-8.1-11.4-20.9s-2.2-4.7-5.2-10.1c2.2,1.9,4.5,3.6,6.1,5.1,3.2,3.2,7.5,3.6,9.4,9.9s10.6,3.3,10.6,3.3l11,4.9c.3,2.1.6,3.8.8,5.1Zm370.3,87.1c.6,0,1.3-2,2-4.6.1,1.2,2.2.8,2.3,3s-.7,2.4,0,3.3,2.4,1.7,3.1,3,1.1,3.9,3.1,4.8c0,0-5-2.4-6-1.5s-1,2.5-2.6,2.1.2,1.7.2,2.3-.7.9-1.1,1.6l-5.9-2.3c1.9-5.9,3.7-11.6,4.9-11.7Zm-20.9,33.7v.3l-5.1-3.4v-.2ZM436.5,965.8l6.4,4.2c.7,3.5,1.3,7.3,2,10.9l-7.8-5.8a14,14,0,0,0-4.4-2.2c-.3-2-.5-4.1-.7-6.1a9.1,9.1,0,0,0-1-4.3ZM416,941.5a41.8,41.8,0,0,1,1.9,6L417,946a74.8,74.8,0,0,1-3.9-7.4,8.1,8.1,0,0,1,2.9,2.9Zm786.5,83.1c1.7-1.8,5.8-5.2,7.3-7.1a45,45,0,0,1,6.6-6.5c.7,2.3,6,4.2,6,9-2.1,1.3-4.2,2.6-6.4,3.7s-9.9,7.2-11.5,9.7-4.5,3.5-7.1,4.7c-.9-3-1.7-5.8-2.4-8s5.8-3.7,7.5-5.5Zm242.2-59.9a1,1,0,0,1-.4-.9c.4-2.1.3-4.5,2.4-6.7a4.3,4.3,0,0,0,1.3,1.7A11.6,11.6,0,0,0,1444.7,964.7Zm8.8-21.2c.5-1.7,1.2-3,1.5-4.2.2,2.2.6,4.4.9,6.8A19.5,19.5,0,0,0,1453.5,943.5Z"/><path class="cls-4" d="M107.3,496.5l.4,1C108.4,497.2,108.2,496.9,107.3,496.5Z"/><path class="cls-4" d="M58,587.5,43.1,598H57.8q-2.5,2.6,1.2,5.4c6-3,21.3-4.8,23.7-12.2C74.2,592.9,64.9,594,58,587.5Z"/><path class="cls-4" d="M65.5,612.7c-12.5-7.6-16.9-8.3-31.2-6,5.4,2.4,4.2,5.4-3.5,8.8,10.3,4.5,24.5.8,35.3-.2-2.7,5.5-7.4,8.4-13.7,8.7,8.4,3.9,16.7,3.5,22-4.7C69.6,621.2,66.9,613.6,65.5,612.7Z"/><path class="cls-4" d="M54.4,653.8c.9,2.3-.9,3.1-5.6,2.3a32.3,32.3,0,0,0,20.8-1.8C62.8,644.8,54,653.6,54.4,653.8Z"/><path class="cls-4" d="M1856.4,630.3c2.8.4,3.7-1.6,2.7-6.1h13.5c-7.1-4.9-11.5-6.8-18.1-7.6s-13.8,3.1-21.4,1.8C1839,626.8,1850.9,621.9,1856.4,630.3Z"/><path class="cls-4" d="M1863.9,679.3c-9.4-3.1-10.5-6.4-16.3,2.6,2,.2,14.8,3.1,17.2,1.3Q1861.5,681.4,1863.9,679.3Z"/><path class="cls-4" d="M103.3,533.1c-.2,0-.3,0-.2.1h.2Z"/><path class="cls-4" d="M1875.2,632.1c-9.1-1.4-13.7.9-21.8,5.5-5.7,3.2-3.4,8.5-11.2,9.4,5.8,6.2,13.7,7.7,21.2,3.9-3-1.1-13.8-3.5-12.4-9.7,11.3,1.4,24.5,4.7,35.3,0C1879.8,638.8,1882.6,633.3,1875.2,632.1Z"/><path class="cls-4" d="M103.1,533.2h.1C103.2,533.4,103.2,533.2,103.1,533.2Z"/><path class="cls-1" d="M1910.9,493.6l1.4.2C1911.6,492.8,1911.1,492.7,1910.9,493.6Z"/><path class="cls-1" d="M1821.7,576.5a.1.1,0,0,0-.1-.1C1821.5,576.4,1821.6,576.5,1821.7,576.5Z"/></svg>