<svg id="Layer_1" data-name="Layer 1" xmlns="http://www.w3.org/2000/svg" xmlns:xlink="http://www.w3.org/1999/xlink" viewBox="0 0 2235.6 1250.4"><defs><style>.cls-1{fill:none;}.cls-2{fill:#102a2c;}.cls-3{clip-path:url(#clip-path);}.cls-4{fill:#08142d;}.cls-5{fill:#07132d;}</style><clipPath id="clip-path" transform="translate(14)"><rect class="cls-1" x="0.5" y="-0.3" width="1920" height="1080.56"/></clipPath></defs><title>trees hills silhouttes</title><path class="cls-2" d="M2220.3,386.5l1.3-.2-.8.7A1.2,1.2,0,0,1,2220.3,386.5Z" transform="translate(14)"/><g class="cls-3"><path class="cls-2" d="M210.6,837.2a605,605,0,0,1-17-87.4c-2.6-21.9-12.8-63.6,6.1-78.6-10.4-7.3-22.5-4.9-34.2-3.7,7.7-7.2,16.3-3.6,22.9-12.1,18.1-23.5-25.4-4.2-25.2-14.1,8-.8,9.6-5.5,15.1-11.7-9.4-.9-23.5.5-31.4-5.3,7.9-1.4,16.4,2.4,23.9-1.6-5.8-4-6.3-11-2.6-16.7l-20.5-2.5c5.5-2.8,14.5-.4,17.9-7.1-10.4-3.2-13.8-7.9-24.1-9.2.1-3.7,12-1.1,10.8-10.5-1.5-12.6-10.5-4.3-16.1-12.4h17.4c-6.5-6.6-15.1-9-23.6-11.4,33-7.1,5.7-4.2-1.6-13.2,11.5-.1,11.7-3,.5-8.8l7.5-12.6c-2.9,1.4-4.7,1.2-5.6-.7a51,51,0,0,0,14.4-8.9c-1.7-2-19,5.8-19.8,6,5.6-13.7-2.5-5.7-.3-18.5a9.7,9.7,0,0,0-5.4,2c0-6.2,7.1-7.3,8-12.6.2-1.5-8.8-6.5-9.9-8.1,1.6-.6,18.3-5.7,17.4-8.7-6.7,1.9-13.2,4.1-20.2,4.4h0c.9.4,1.1.7.4,1l-.4-1h0c-.7-2.5,1.6-4.2,6.6-5.1-13.5-4.8,8.8-6.3,7-13.8-19.6.9-5.5-15.8-14-29.3-4.8,8.8,4.7,19.9-8.5,19.9,2.6,5.6,11.1,4.2-1.5,8a22.3,22.3,0,0,0,4.7,5,22.9,22.9,0,0,1-13.7,6.5c1.5,8.3,11.2,8.2,13.7,18.9-7.3,2.3-12.2-6.3-19.3-5.8,3.2,5.4,13.2,12.2,14,19.5H88.2c6.8,5.5,14.9,8.6,22.6,12.7-.1-.1,0-.1.2-.1h-.2c.1,0,.1,0,.1.1s0-.1-.1-.1c-7.4,5.9-14.1,11.5-24.4,9.7s-12.8-13.1-19.8-4.2c11.8,2.2,22.3,15.1,34.6,8.5-3.7,14.9-22.5,7.1-33.4,5.5,4.3,9.1,21.5,8.5,31,10.4-4,14-17.7,1.2-20.1,8.5,4.7,3.7,12.7,7.6,18.8,7.3-4.4,13.2-55.7,5.1-64,.1,8,2.2,30.8-6.2,37.1-11.3-.4.1-22.9,5.5-23.4,3.5,8.1-3.3,6.7-5.3,10.3-12.2-2.6.2-22,4-23.2.2,10.9-5.6,14.7-5.6,19.1-17.2a39.1,39.1,0,0,1-20.1.5c7.7-1.9,15.4-5.7,18.7-13.4-.8-1-21.8,3.5-22.7,3.5S45.9,499.5,47,493a23.3,23.3,0,0,1-18.2,2.6c5.5-3.3,18.2-7.6,19.3-14.5l-22.3-1c-.1-1.4,11.7-6.8,13.6-9.7H26c13.1-13.1,5.1-8.5-6.9-7.6,10.9-8.1,10.3-11.2-1.7-9.3,4-2.2,5.9-5.4,5.7-9.7-7.3,2.6-7.8-8.4-6.4-13.9-6.3.4,1.3,14.3-6.5,15.8,4.6,17.8-2.6-2.6-7.3-.6,1.6,5.5,3.2,11,4.9,16.4-2.8-1.1-4.6-1.6-5.8-1.4v6.6A74.6,74.6,0,0,0,7.6,475c-.9.7-3.2.1-5.6-.9v12.8l.6.7-.6.3V1080H275.2q-9.4-48.6-19.2-97.1C245.9,932.7,223.9,886.7,210.6,837.2ZM57,631.6c4.6.8,6.4,0,5.5-2.3-.4-.2,8.3-8.9,15.1.5A32.4,32.4,0,0,1,57,631.6Zm3.5-31.9c6.3-.2,10.9-3.1,13.6-8.6-10.7,1-24.8,4.7-35,.2,7.6-3.4,8.8-6.3,3.5-8.7,14.2-2.3,18.5-1.6,30.9,5.9,1.4.9,4.1,8.5,8.9,6.6C77.1,603.2,68.9,603.6,60.5,599.7Zm6.6-20.4c-2.5-1.9-2.9-3.7-1.2-5.3H51.3l14.8-10.5c6.8,6.5,16.1,5.4,24.5,3.7C88.2,574.6,73,576.3,67.1,579.3Z" transform="translate(14)"/><path class="cls-2" d="M1916,532.1h-.4l.4-.5V514.3h-1.1c-1-2-.3-3.6,1.1-5.2V498.2c-3,1.4-6.1,2.6-6.9,2,3-6.5,13.4-19.3-.6-13.8.4-1.6,5.8-15.9,3.2-17.1-.7,7.1-3.2,10.1-7.3,9.1a36,36,0,0,1-.4-8c-5.9-1.6.8-14.6-4.7-14.4,0,5.3,1.1,16.7-6.6,13-3,3.2,3.7,8.5,5.4,9.7-13.1,1.3-7.9,2.3-1.7,9.9l-16.3-2.1,9.6,9.6H1877c1.9,6.2,12,5,12.9,9.6l-22.2,1.4c2.5,7.5,13.3,9.6,19.5,13.8a20.4,20.4,0,0,1-17.2-1.8c-.7,7.2,13.4,13.5,17.2,14.7a56.1,56.1,0,0,1-23.7-3.6,25.5,25.5,0,0,0,19,14.3c-6,2.8-13.1.8-19.3-.1,4.6,11.9,8,11.5,19.3,17-1.2,4-21.4,0-23.5-.1,2.8,6.2,3.1,9.6,10.4,12.3-.5,1.9-24.8-3.6-24.8-3.7,8.8,8.1,25.8,9.7,37,12.6-8.3,5.9-18.5,3.1-27.4,1.5,1.4,2.5-27.6,10.3-34.5-2.2,4.2,1.7,20.3-2.4,18.8-8.2-45.8,0,5.6-8.8,11.4-17.9-12.2,1.6-25.6,6.4-34.4-3.1-.1,0-.2-.1-.1-.1a.1.1,0,0,1,.1.1c2.1.2,34-9.9,34.2-9.8.7-2.9-.8-5-4.5-6.4-13.3,14.1-24.9,9.7-38.7.9,7.5-4.2,14.9-8.5,22.3-12.8-1-1.8-15.1-.7-16-.7,2.5-8.2,10.7-11.9,13.4-19.1-4.7-3.1-13.9,5.2-18.9,6,2.3-11,11.8-10.9,13.2-19.5a20.4,20.4,0,0,1-13.6-6.3l5-5.1c-9.9-.6-9.1-4.2-1.5-7.1-17.9-4.3-3-7.1-9.6-21-9.4,15,6.2,29.3-14.4,29.3,4.7,9.4,9.2,15.4,13.7,19.4-7.1-.3-13.7-4.6-21-2.6l18.7,6.9c1.5,4.8-10,4-8.7,7.7s7.4,9.2,7.7,12.6a24.5,24.5,0,0,0-5.4-1.8c1.6,1.3,1,5.9.2,7.5-2.6,5.7-4.3,2.7-.2,10.9l-19.9-6c1.4,5.7,9.3,6.7,13.2,9.8-13.8,0,1.6,3.3,1.4,9.8-.4,9.5-11.8,9.4,2.2,11.9-2.4,4.8-14.7,4.3-18,4.6,2.3,8.8,8.3,7.2,17.1,8.8-10.4,2.8-13.8,5.8-22.6,10.5,2,5.8,15.8-3.9,16.7,2-18.4,3.9-21.1,18-5.1,21.3-12.6,10.1-35.2,5.2-7.6,17.1l-18.8,2.7c8.4,12.1-6.8,9.7-.4,15.3s13,2.1,22.2,2.7c-9.7,5.9-20.5,2.5-30.8,5.8,4,5.3,6.3,9.4,12.2,12.7-11.4.9-20.5-.2-30.1,6.5,10.1,14.4,18.3,8.8,30.7,18.1-11.8-.6-23.7-2.6-34.1,4.4,20.4,16.1,10.3,59.5,7.7,82.6A635.5,635.5,0,0,1,1713,862c-13,53.4-34.7,103.2-44.8,157.1-3.8,20.3-7.5,40.6-11.3,60.9H1916Zm-89.2,62.1c7.6,1.3,15.4-2.6,21.3-1.8s10.9,2.7,17.9,7.5h-13.4c1,4.5.1,6.5-2.7,6.1C1844.5,597.7,1832.7,602.5,1826.8,594.2Zm14.4,63c5.8-8.9,6.9-5.7,16.2-2.6q-2.4,2.1.9,3.9C1855.9,660.3,1843.2,657.4,1841.2,657.2Zm3.4-40.4c-1.4,6.2,9.3,8.5,12.3,9.6-7.5,3.8-15.3,2.3-21-3.8,7.7-.9,5.4-6.2,11.1-9.4,8-4.5,12.6-6.8,21.6-5.4,7.3,1.2,4.5,6.6,11,9C1868.9,621.5,1855.8,618.2,1844.6,616.8Z" transform="translate(14)"/><path class="cls-4" d="M29.4,608.5l-.8,5.9a3.7,3.7,0,0,0-4.9,3.5c-.1,1-.3,2-.5,3.4l-2.4-2.7L17.4,626c-4.3-.1-8.2-3.1-12.8-2.5-.2,2.9,1,4.2,3.6,4,1-.1,2,0,3.4,0l-5.1,5.9a53.5,53.5,0,0,0,13-2.4c4-1.4,7.9-3.1,12.4-4.8-2.2,2.3-4.2,4.3-6.3,6.3l1,.6L25,638.2l-4.1.2c-.3,2.8-.5,5.6-4.3,6l-.3-2.2c-2.6,1.7-2.8,4.7-4.2,7.5l-1.5-4.8L6.5,655.1l-2.3-.5c-1.5,1.8.4,2.5,1.4,3.5l-3.5,5.1V616.7c1.3,0,2.5-.1,3.7,0a23.1,23.1,0,0,0,12.9-2.9L29,608.2A.5.5,0,0,0,29.4,608.5Z" transform="translate(14)"/><path class="cls-4" d="M2.1,580.9l9.5-3.1,2.3,1.4a13.7,13.7,0,0,0-5.7,8.5l4.1,1.6-4.4,3.1,1.2,1.3-7,1.5Z" transform="translate(14)"/><path class="cls-4" d="M170.8,653.6l-.3-.4h.6Z" transform="translate(14)"/><path class="cls-4" d="M29,608.2l.5-.2a4.3,4.3,0,0,0-.1.5A.5.5,0,0,1,29,608.2Z" transform="translate(14)"/><path class="cls-4" d="M70.3,798.8l-.6-.3h.9Z" transform="translate(14)"/><polygon class="cls-4" points="83.7 798.5 83.7 798.4 83.7 798.5 83.7 798.5"/><path class="cls-2" d="M1891.9,469.9l-.3-1.5,1.1.6Z" transform="translate(14)"/><path class="cls-2" d="M1905.4,470.6l.5-.7v.5h-.6Z" transform="translate(14)"/><path class="cls-2" d="M1935.6,523.7l-.4.7c-.1-.2-.3-.3-.3-.4a2.1,2.1,0,0,1,.4-.6Z" transform="translate(14)"/><polygon class="cls-2" points="1751.1 692.2 1750.8 692.3 1750.8 692 1751.1 692.2"/><path class="cls-4" d="M313,1182.7H45.1c-12.6,0-41.2,5.4-52.2,0-9.1-4.5-6.6-6.5-6.6-19V664.5c14.4,3.9,20.1-8,24.6-12.8,6.6,4.3,2.4,8.5-1.5,11.1a2.9,2.9,0,0,1,2.6,3.5C7.3,665.6,4.1,680-1.6,683c4.6,0,25.7-10.5,27.9-5.8-3.8,3-9.5,15.5-14.2,10.7C10,698.2,9,692.3.2,700.5c8.7-.3,16.9-7.8,24.3-8.2,9.2-.4,2,1.7,11.1,2.7C21.5,703.3,8.1,708.9.4,725c16.1,1.8,26.4,11.7,41.6,13.8-10.6,6.7,1.3,3.3,8.9,5.6-4.1,2.5-20.1,13.8-19.7,14.3-6.5-4-9.3-2.9-8.3,3.5-3-2.7-18.2,16.1-19.2,14.1,15.1-4.6,27.3-5.4,43-4.1-1.2.9,0,9.2-.1,9.2-4.9,6-19.9-3.2-22.5,6.6,10.8-1.6,19.5-1.1,30.1-4.2,4.7,8.7-16.9,19.6-21.8,23.6q1.5,3.9,7.2-.3a83.8,83.8,0,0,0-16.5,19.4c5.9-1,28.6-.3,21.8-8.8,5.8.4,11.8,3.6,17.7,4.5-1.9-4.1-7.7-22.1-6.5-23.8,18.8,8.6.4-9.7,17-16.1-11.8-7.8,1.8,1,3.4-8.6s1.1-19.9,2.1-29.9c5.2,4.4,1.5,40.8,10.6,33.1-3.4-.3-5.1-1.9-5.2-5,4.1-5.3,16.7,9.1,19.2,4.7-3.7-2.9-8-4.4-11.7-7.2a10.5,10.5,0,0,1,9.6-.7c-1.6-1.8-10.7-6.6-10.5-8.8,15.2,0,14.4,1.5,1.3-6.4,3-3,6.5-3.5,10.4-1.6-3.6-2.6-7.7-4.1-8.3-8.7,1.8-.1,7.9,1.8,8.4.8-17.7-9.5.1,1.3,4.1-14.8,9.6,13.1-12.4,5.3,11,8.1-1.4,3.1-6,4.2-8.7,5.7,6.7,6.1,24.4-3.1,1.5,8,1.9,2.9,11,2.1,13.6,4.2a25.9,25.9,0,0,1-13.5,6c11.5,9,22-9.9,21.7,12.5,11.3-7.3-3.7-8.8,2.2-17.2,5.8,2.2,7.7,17,8.8,17.6s18.3,1.9,18.3-4.3a10.1,10.1,0,0,0-9.1,2.1c-1.8-4,5.2-5,5.9-8.5-7.1-.2-8.1,4.2-15.7-.3,17.1-10.1,4.3-7.2,3.9-12.2s6.3,1.9,5-5.1a3.5,3.5,0,0,1-4.1-2c5-2.8,2.8-2.3-3.2-2.8,2,5.7,3.1-21.4.2-16.1.5.1,37,42.2,37.3,18.9-4.9,1.2-5.4.6-9.3,3.8,2.3-13,.3-7.8-6.9-4.2-.4-5.1,2.3-8.2,8.1-9.5-2.9-6.2-7.2-9.4-10.6-8.9-.4.9,8.7-6.1,7.8-7.8-10.9,4.2-10.3-.4-16.8-1.3.9-.9,15.6,0,14.3-1.9-5.7-8.8-6.8,1.3-10.3-7a4.4,4.4,0,0,0,4-2.1c0-3-8.2-.2-8-2.6,15.6,0-6.7-7.9-.2-14.7,6.6,4.2,4.9,16.3,13.1,11.4,1.3,1.3-4.2,3-1.9,6.1s3.4-2.1,5.5.7c-7.6,10.8,21.4,14.5,24,4.7a17.9,17.9,0,0,0-8.6.3c-.6-1.9,3.9-4.2,4.6-6.8-3.1-.5-5.9-.5-9-1.3,0-2.4,1.9-3.2,5.8-2.4-1.1-.7-3.3-5.7-3.6-5.9a13.2,13.2,0,0,0-8.8,6c-.5-3.4-2.4-4.8-5.5-4.3a10.8,10.8,0,0,0,3.9-6.4c-2.5-1-5.1-1.9-7.7-2.7,2.1-1.4,13.1,2.5,13.7-2.1s-8.9-7.7-10.9-7.9c2.1-4.9-6-6.6-10-8.2.4-4.5,5.9.8,5.3-6.5-.2-2.2-5.9-8.4-5.4-9s19.1,19.4,18.9,16.4c-18.5,3.8,19.6,19.7,17.7,13.2-3-10-6,2.4,5.9-13.6-3.7-4.2-6.8-.1-9.6,2.7,2.4,1.5-10.3-7.3-10.6-7.9,8.6.6,12.8,1.3,21.6-.2-.4-2.8-8.4-.1-9.7-.4a11.5,11.5,0,0,1,9.8-3.4c-2.8-2.4-5.6-2.2-9-1.2-1.1-2.1,7.1-6.7-2.8-7.2-.1-2.4,1.3-4,4.4-4.7a8.4,8.4,0,0,0-8-.5,15.6,15.6,0,0,1,3.7-4,53.1,53.1,0,0,0-10.5-2.3,5.5,5.5,0,0,0,5.3-2.5c-.1.6-10.5-17-10-17.4,1.8,1.5,31.3,30.1,22.5,10.3a31.2,31.2,0,0,0,4.3,4.6c2.6-7.4-.2-10.6-8.2-9.5a86.9,86.9,0,0,1,8.8-.7c.1.4-11.3-34.1-14.6-25.3,5,3,9.2,6.9,14.2,9.7-.2-7-6-42,.9-47.4l.9,41.7c2,.4,3.8-7.7,5.9-6a11.9,11.9,0,0,1-3.9,9.4c3.8-.2,10.7-7.7,14.2-9.9,3.7,4.5-19.2,11.8-16.9,16.6a40,40,0,0,1,5.4-1c-1.3,4-6.1,3.7-4.6,8.9a60.2,60.2,0,0,1,9.4-1.9,18.7,18.7,0,0,1-10.7,3.7,17.5,17.5,0,0,0,10.2,4.2q-.7,4.9-8.7,0c3.1,2.2,3,4.2-.4,6.2,7.2-.3,5.9,5.5,13,3.6q-7.6-2.7-4.5-6c11,6.4,9.9-16.7,17.6-12.1-1.4,1.3-11.2,12-7.9,14.6.9.7,8.8-7.1,7.4-5.9-.3,4.8-5.7,8.6-9.1,11.1q6.6-.7,5.7,6.3a12,12,0,0,0-9.1.4c5.1,4,12,8,2.9,9.3-.2,2,1.2,3,4.4,3-.5,1.8-7.2-.3-9.1.2a6.5,6.5,0,0,0,3.5,2.8,16.5,16.5,0,0,0-6.7,6.4c10.7,1.7-.5.2.4,5,2.2,12.5,9.9-8.5,9-5.9,7,1.5,9.7-10,14.5-14,.9.8-5.7,12.2-5.8,13,5.6,2.3,7.6-5,10.5.7-6.8-.5-11.5,3.5-6.2,7.6-2.1.6-20.7-.2-6.8,7.6-6.6.4-12.1-.6-17.7,2.8,10.7,2.7,20.6-5.5,29.4-3.4-6.8,3.7-7.7,2.9-8.2,9.4-3.8-2.6-5.2-5.4-10.1-4.6a4.9,4.9,0,0,1,1.1,5.8c-6.2-7.7-1.8,3.5.1,6-4.4-.2-6.2,1.6-5.5,5.1,4.8,4,8.4-1.5,12.5-4.2.2,1.2-5.8,8.4-3.9,9.8,5,3.7,18.1-22.2,19.8-23.4,1.3,6.1-3.5,7.2-4,13.4a33,33,0,0,1,8.6-2.2c-.3,4.3-2.6,6.8-6.9,7.4a6.4,6.4,0,0,1,5.4,1.9c.4,5.6-8.1,6.2-10.7,8.6,3.4,1.3,10.2-2.4,12.6,2.1-6.4,1-10.6,6.3-17,8.1,2.1,3.6,10.1.8,13,.3-3.6,9.9,7.9,32.5,20.5,28.2s-4.2-8.7-5.7-15.2a29.6,29.6,0,0,0,10.7,4.8c-1.8-9.8-19.5-13.5-21-27,8-1.6,11.7,22.3,25.8,13.9-2.9-3.5-7.7-4-9.7-8.3,3.4-1.3,8.5.6,11.1-3a47.4,47.4,0,0,0-9.7-3.7c.2-5.4,4-6.4,11.6-2.8,1.1-3.4-20.4-10.9-16.9-14.1s14.5,8.3,19.6,2.3c3.6-4-5.8-10.4-5.7-14.5a21.8,21.8,0,0,0,10.4,7.2c-1.5-9.5-15.1-14-18.1-24.4,4.3.8,12.9,8.8,15.8,12.1.3-6.3-.8-49.1,1.1-49.3,1.3,5.7-.5,37.8,4.9,40s7.8-15,8.4-17.2c7,1.6-7.3,22.2-6.1,24.3,1.9,3.7,12.3-6,12.5-6.2.8,7.5-1.4,13.8-11.3,15.5.1,6.4,12.7-1.6,13.3-.2-4.1,4.8-17.4,5.5-15.8,12.9.6-.2,13.4-4.7,14.4-3.3-6,5.1-11.2,1.6-14,9.4-4.1,11.2,16.8.4,18.2-1,1.1,2.7.3,4.5-2.4,5.6,5.9,1.1,9.3-6.1,12.7-9.7,1.7,2.6-6.5,10.8-7.3,12.1a8,8,0,0,0,7.8-1.8c.3,1-16.4,14-19.9,16.8,2.5,4.5,4.3-2.7,7.5-.7-2.2,4.3-6.6,5.8-10.8,8.2,1.5,1.9,5.3.2,5.7,1.7-9.9,5.1.8,1.6-6,6,5.8,10.8,8.1-5.2,10.1-7.3,1.5,2.3.3,4.6,0,7.3,1.6-.3,6.2-6.1,8.4-7.7.4.6,6.4,6,6.2,4-6.2,1-8.8,3.1-14.4,5.6a51.5,51.5,0,0,1,9.6,2.2,16.6,16.6,0,0,1-11.8-1c11.3,14.9-8.2-7.1-8.2,4.1,0,5.5,12.9,6.1,5.5,11,15.3,5.5,28.1-10.3,30.9-17.1-4.2-.3,3.9,9.5,3.7,9.2-4.7,1.2-5.1,2.6-1.4,4.4-3.9.5-19.3,1.9-2.5,1.9.4,13.6-21.1-10.6-5.4,4.9-4.4-.1-9.4-2.8-12.4-.1,3.2,2.2,6.8,2.5,7.5,6.2-10.9.6,3.5,3.9-7.3,3.4,1.4,6.3-.6,6.2-6.2,3.8,0,10.3-9,2.3-11.3,6.5-.6,1.1.2,17,3.3,18.6a2.9,2.9,0,0,1,.8-3.5c.9.6,7.6,8.4,10.3,4.3a39.4,39.4,0,0,1-.9-9.7c8.5-.4,22.3-29.4,38.1-28.5.4,7.4-15.6,10,0,9.1a19.6,19.6,0,0,1-8.4,3.5c3.9,3.2.3,3.7-2.5,8a11.9,11.9,0,0,1,4.8,2.3,16.1,16.1,0,0,0-8.7,1.5c.7.7,4.3,2.7,4.1,3.7q-6.3-2.7-6.9,1.2a20.9,20.9,0,0,1,12.9,9.6c-2,.5-3.9-.2-5.5-2.2-.7,2.6,2.5,5.7-.2,7.3s-12.4-.8-14.3.8c-3.6,3.1,1.5,11,1.7,14,1.2.1-13.8,2.8-14.3,4.1,15.6,19.5,36.6-14.4,46.7-24.1,1.3,1.9-4.7,15.4-7.9,16,1.4,6.5,14.2-1.2,19.7.8-.2,1.2-7.8,4.4-9.4,4.4-.7,5.1,15.2,9.1-4.2,3-1.1,2.1.3,3.6,4.3,4.6-11.7,3.2-15,5.9-23.9,11.9,1.9,2.1,4.7,2.2,7.3,3.3a44.4,44.4,0,0,1-8.8,1.8c2.5.2,3.4,1.1,2.8,2.5-14.6-2.5-1.3,8.7.7,10.9-7.8,0-6.8,2.8-14.4,3.3a6.4,6.4,0,0,0,6.5,3.6c-.7.7-14.3,4.4-12.8,5.5s5.6,4.5,9.4,3.3c12.6-4.2,22-23.1,33-30.6,3.2,3.3.7,6.6-7.6,9.7a28,28,0,0,1,9.5,2.2c-10.7,6.3-7.2,7.7-14.2,12.9,3.1,4.4,24.1-5.1,24.9-1.1-14.8,4-3.3,4.7-7.7,9.6a8.1,8.1,0,0,1-6.2-1c-1.1,4,.8,6-4.8,3.7,0,11.2,12.9.3,16.9-2.3,0,8.9-9.2,1.7-.6,10.8-.8.5-7-1.8-7.9,0-2.2,4.3-1,16.3-3.6,21.9-1.3,2.8-10.4,5.4-10.2,6.4a7.7,7.7,0,0,0,6.8,4.5c-4.3,8.2-7.1,1.3-15.7,2.3,18.3,14.9,4.5,1.3,3.1,10.7a11,11,0,0,0-8.2-4.5c1.8,3.2,4.6,6.1,2,9.6a5.9,5.9,0,0,0-4.6-4.8c-3,7,6,7.3-2.6,10.4,1.1,8,9.9,3,1.4,10.2,16.7,2.3,12.2-9.7,21.3-18.1,1.3,2.3-2.5,11.1-.3,12.6s7.6-2.5,9.9-3.5c5,4.4-13.4,22.4,6.3,12.4,1.8,3-6.8,7-8.2,7.3a17.2,17.2,0,0,1,9.2,2.2c-6,.8-14.6,3-8.1,9.7-1.9.2-11,6.4-9.2,9.6,5.1,9.5,33-28.1,38.6-27.1l-7.7,9.3c7.8,3.1-18.6,8.1,3.4,8.1.4,3.5-11.4-.9-12.4,4.1.4.1,7.2,1.3,7.5,2.7-3.3.8-5.7,0-8.9,1.6a12.7,12.7,0,0,0,4.7,4.2c-16,0-7.2,0-15.3,7.2,5.9-.8,10.3,1.3,13,6.2-6.8.4-30.1,2.7-22.9,11.5.2,0-8.8,3.1-5.1,4.3,6,1.9,7.8-6.3,9.3-10.3,12,6.1-17,11.3,6.9,11.3-7.8,8.8,4.2,2.3-3.4,8.4,6.9,3.3,3.6,2.6,8.9,2.2-.7,2.9-.8,4,1.3,6.2a26.2,26.2,0,0,0-11.9,5.9c3.3,3.9,5.5-2.8,8.5-.3-4.3,6.2,1.1,1.5,2.5,5.7.3,1-10.9,9.5-9.9,8,6.9-.3,55.2-14.1,52.8-16.2-3,5.7-6.9,13.5-10.9,17.5-1.8,1.9-13.4,5.8-14,9.1,26.3,3.9-11.8,5.6-14.9,7.4-5,3.1-5.6,9.6-10.6,14.4,6.4,8.2,31.3-6.2,36.6-8.7s25.2-16.2,25-16.2c-.4,7.3-8.6,13.3,2.8,12.2,0,2.9-10.7,3.6-11.6,3.8,1.4,3.6,8.3,2.3,8.6,5.1a16,16,0,0,1-11.4-3.1c-.1,1.3,3.1,6,2.1,6.9-12.8-8.2-.3.5-1.2,6.2-3-6.2-5.8-8-8.3-5.2,6.5,8.5.5,6.4-5.4,11.4-1,.9-11.8,4.8-12.7,5.2-9.8,5.2-20.1,12.6-32,15.2s-25.2,7.5-38.3,10c-5.6,1.1-11.4-5.1-16.9.9C297.7,1140.3,311.6,1177.5,313,1182.7ZM246.1,778.8c1.8-.1,6-3.1,5.9-3.1.6,3.9,5.8,12.9,9.2,5.5a4.4,4.4,0,0,1-5.9-.7c4.1-1.9,7.2-8,4.4-14.8-6.2,3.3-5.8-2.3-8.1-5.7,2.5-1.5,3.4-1.5,5.5-3.5a16.1,16.1,0,0,1-13.1-1.6c4.4,1.3,7.9.5,10.5-2.3-11.3-4.4-20.6,1.4-26,10.7,7.2,3.3,11.9-4.6,18.5-3.9.7,9-8.1,4.8-12.1,6.5,1.5,6.2-.2,4.9-3.4,9.2,6.4,3.9,13.7-7.8,18.6-9.1-2.4,7.4-10.1,16.3-3.3,23.6C250.2,785.7,247.7,782.2,246.1,778.8ZM-9.8,742.2c2.5,12,23.1,6.1,29-1.5-6.8,1.8-9.8-3.7-13.3-8C5.7,735.6-6.2,742.2-9.8,742.2ZM324.8,912.4c7.7,3.4,9.8-8.6,13.6-11s11.5,2.2,14.7-1.2,4.1-16-4-11.4a4.8,4.8,0,0,0,.6,4.9c-4.7-1.6-7,0-7,4.7-4.5-3-12.6,3.7-13.5,2.3C328.1,905,326,908.3,324.8,912.4ZM215,716c1-.8-11.9-5.2-9.4.3,7.7,1,1.3,2.1,8.4,4.4a7.5,7.5,0,0,0-5.5,3c7.4,2.3,18.9-4.7,21.1-12-6.7-1.8-8.9-3.6-10.4,4.5C217.9,714.3,213.7,711.7,215,716Zm-54.3,78.6a7.1,7.1,0,0,0,3.4-5.2c.9,1.8-10.7-16.5-5.2-15-9.8-2.7-4.2,15.4-2.5,18.1-.5-.7,10.7,15.1,9.1,3.3Zm17.4-27.4c2-2.6,13.8-8.4,10.9-13s-8.5.9-8.7,3.7C167.3,747.8,175.2,763.1,178.1,767.2Zm-38.5,8.4c-3.2-3.2-16.7,5.5-5.6,13,.7-2.5,13.2-5.1,10.7-6.9a3.7,3.7,0,0,1-4.7,1.6,6.3,6.3,0,0,1,1.7-3.8,5.6,5.6,0,0,1-6.3-.9ZM191,772a3.9,3.9,0,0,0-2.8-3.2c-5.6.8-.7,5.6-.5,6.8.6,3.2,14.3-8.8,5.7-9.5C190.7,765.9,192.3,770.9,191,772ZM47.7,831.3a11.4,11.4,0,0,0-9.2,1.3c5.6,8.2-6.7,9.5,7.4,5.7-3.5-.8-4.6-2.7-3.4-5.6,8.1,1.2,10.7,3.2,8.1-6.3C48.5,826.4,47.5,828,47.7,831.3Zm307,256.6c.4,12.3,12.9-3.3,12.8-3.4C367.3,1081,358,1087.6,354.7,1087.9ZM248.5,748.8c-.5-6.1-5-8.6-9.7-7.2,1.6,1.9,2.7,3-.6,2.6A17.1,17.1,0,0,0,248.5,748.8ZM118.9,775.1c8.9,13.4,7.6-9.8,7.7-9.3C122.7,767,127.3,772.5,118.9,775.1Zm218.6,31.1c1.5-4.1-5.5-11.6-9.7-7.9C331.5,801.4,332.3,805.4,337.5,806.2ZM210.7,648.8c2.8,7.7,2.5,8.9,9.5,4.2A15.3,15.3,0,0,0,210.7,648.8Zm95.4,122.8c-3.5,1.9-4.3,12.1,1.2,10.5A30.9,30.9,0,0,0,306.1,771.6ZM183.4,725c6.1,4.2,10.7-1.9,7.3-4.3C189.5,719.9,183.3,725,183.4,725Zm40,41.3c-4.3,1.7,9.5,7.7,8.6,3C230.5,766.2,227.6,765.2,223.4,766.3Zm89-2.4c-4.5,2.8-4-.5-4.4,7.3C312.6,771.1,314,768.6,312.4,763.9ZM204,703.5c-1.5,6.2,11.6-3.3,2.6-3.9Zm-13.9-13a22.1,22.1,0,0,0,6.8-.5C194.9,685.5,192.1,685.3,190.1,690.5Zm117.4,27.6a50.3,50.3,0,0,0-8.7,4.3C300.4,725.9,309.8,722.1,307.5,718.1Zm-27,78.6c.1.2-8.1-8.7-8.5-4.7C271.8,793.7,279,798.1,280.5,796.7ZM148.3,779.5c-.1.7-3.1,5.8,1.8,3a4.4,4.4,0,0,1,1.7-5.2C150.5,777.1,144.2,778,148.3,779.5Zm81.8,14.1c-1.7.7,8.3-5.2,4-5.3S228.5,789.8,230.1,793.6Zm39.6-18.5c1.7-2.7,4.1-4.6-.1-6.3C267.4,771.4,264.7,774,269.7,775.1ZM129.5,781c-5.9,1.1-6.6,3.5-2.1,7.1A6.4,6.4,0,0,0,129.5,781Zm107.9-30a15.2,15.2,0,0,1-1.6-5.5c-4.5.9,4.6,6.9-5.2-.1C231.3,749.1,233.6,750.9,237.4,751Zm41.4-35.1a4.1,4.1,0,0,0,1.6,4.9,3.9,3.9,0,0,0,2.8-2.5A3.4,3.4,0,0,0,278.8,715.9Zm22.6,45.5c-.4-5.3-7.1-2.4-6.3-.4A6.2,6.2,0,0,0,301.4,761.4ZM360,958.9c-5.4.7-5.2,2.2-1.3,5.2ZM199.2,697.1c1-1.2-5,7,0,5.1Q203.3,700.1,199.2,697.1ZM179.6,730c-1.6-2.1-3.2-2.3-4.6-.7C175.3,732.7,176.9,733,179.6,730ZM120,792.7c-3.4,2.5-2.7,4.2,2.2,5Zm-1.5,48c-3.4,2.7-2.3,4.1,3.2,4.4C122.3,842.4,115.7,836.8,118.5,840.7ZM354.1,974.6l.4-4.3q-5.7.8-4.5,3.9ZM200.8,744.3c-1.7-3.5-4.5-2-6.1,0C195.9,746.1,198,746.1,200.8,744.3ZM244,706.7c-3.2-1.6-4.4-.9-3.6,1.9A2.8,2.8,0,0,0,244,706.7Zm-18.8,19.6c4.2-.7,5.4-2.4,3.7-4.9C226.4,721.3,225.1,722.9,225.2,726.3Zm75.2,40c3.1-1.9,3-3.1-.4-3.7C298,763.8,298.1,765.1,300.4,766.3ZM116.3,810.1h5.9C118.6,807,117.4,806.9,116.3,810.1ZM91.9,785.3c.1.1,6.5,1.3,2.8-3.8ZM198.8,678.6,265.6,854,88.8,810.5q6.3.3,1.5-4.2Zm121-121.1,59.5,136.4c-1.5-3.1-1.6-3.2-4.3-1.9Z" transform="translate(14)"/><path class="cls-4" d="M316.6,734.5c2.4-2.3,4.7-4.6,8.2-5.3l.4.6-7.9,5.6Z" transform="translate(14)"/><path class="cls-4" d="M359.8,804.4h.6l-.3.3Z" transform="translate(14)"/><path class="cls-4" d="M316.3,735.4l.7-.2-.3.7Z" transform="translate(14)"/><path class="cls-4" d="M1938,609.3V626c-.9-2.4-2-3.2-3.4-2.3.9,6.9,5.9,18.2.3,21.9,11.8,3.9.2,45.7-2.8,54.8,11.9-1.1,4,10.4,4.1,17.5,0,15.8,1.8,33.1,1.8,49.5v378.7c0,9.1,5.6,44.9,0,51.4s-48.6,0-58.2,0h-278c1.5-5.8,13.2-33.3,10.4-38.5-1.3-2.6-21.4-8.5-24-9.1-14.6-3-31-4.2-45.4-8.1-6.3-1.6-12.2-2.6-18.1-4.7-9.5-3.4-13.7-11.7-19.5-14.7-13.7-7.1-16.3,1-17.1-13.6q-3.7,2.9-7.5,5.4c-5.8-2.4,15.8-17-1.7-5.8-1.4-1.5,2.5-4.6,2.2-6.5a20.9,20.9,0,0,1-11.5,2.8c-.6-2.8,7.2-1.6,8.7-5.3,4.7.8-12.4-.4-11.5-3.5,13.4.7.3-5.3,3.3-12.9,12.1,17.7,40.7,25.9,61,25.9-2.2-5.9-9.9-12-14.5-14.6s-34.4-4.3-10.6-7.8c-2.1-4.4-12.1-6.8-14.5-9.1-4.1-4.2-7.5-11.3-10.8-17.5.2-.1,42.7,17.4,52.8,16.1-2.7-3.2-10.7-4.5-10.5-9.4a6.2,6.2,0,0,0,5.1-1.3c-2.1-1.2-2.6-2.4-1.5-3.5a8.6,8.6,0,0,0,8.1,1,36.1,36.1,0,0,0-11.9-6.4c1.5-2.3,1.8-2.5,1.2-5.7,9.1.2,10.1-5.5,5.4-10.7,24.1,0-5.8-4.2,6.7-11.1,2,3.5,3.7,14.1,10.1,9.8-.5-3.2-2.3-4.5-5.6-3.9,7.7-9.5-17.2-10.2-22.9-11.8,2.4-5.6,7.6-5,13.2-5.9-9.8-6.6,2.7-7.2-14.9-7.2-.2-.6,3.5-3.3,4.1-4.3-2.2-1.3-9-.1-9-2.6a11,11,0,0,0,7.5-2.1c-1.3-4.3-12.9-.2-12.2-3.6,15.3,0-2.1-10.1-4.3-17.6,9.7-.9,26.6,33.7,35.7,28.8,5.1-2.8-.8-10.6-5.7-11,.6-7.1.6-8.5-8.7-9.8,2-3.5,7.5.1,8.7-2.3a11.7,11.7,0,0,1-8.1-6.7c15.9.2,2.5,2.6,6.5-13,1.9.9,7.9,5.5,10.1,3.7s-3.1-8.9-.3-12.7c6.4,5.9,7.4,22.8,20.7,17.8-5.8-6.8,6.1-8.3-3-11.7a7.4,7.4,0,0,0,3.1-8.3,5.3,5.3,0,0,0-5.5,4.5c-3.8-4.5,2.9-5.6,1.5-10a15.5,15.5,0,0,0-7.6,4.9c.3-2.8-1.3-3.9-4.8-3.4-.3-1.9,6.6-6.2,7.6-6.9-1.5-3.4-11.5,5.3-15.3-2.8a7.7,7.7,0,0,0,6.7-4.5c.7-4.4-8.1-.5-9-3.5,0-.1-2.9-13.7-1.1-9.5-1.8-4-2.5-13.5-3.6-15.2s-6.8.2-8.3.3c6.2-3.5,6-7.2-.5-11.1,5.4,1.4,17.2,13.9,17.2,2-1.7-.5-1.2,2.6-3.7,1.6-7.5-3.2,10.8-7.5-7.4-3.6-5.7-8.2,10.9-5.1-7.6-10,.9-4.7,21.4,5.8,24.8,1,1.8,1.3-14-16-14-13.3a13.5,13.5,0,0,1,9.7-1.2c-2.4-2.8-5.7-7.5-8.7-9.9,14.3-4.7,22.4,33.8,42.9,28.7-.7-6.5-8.2-4.6-13.1-7.5,3.3.6,5.6-.5,7-3.3-1.5-.1-14.4-4.7-14.1-4,11.9-9-1-10.2,3.2-12.7a26.4,26.4,0,0,1-8.7-2.1c.9-.3,7.4-1.4,7.1-3.1-.8-5.3-20-10.2-23.7-12,7.4-6.4,5.5-4.8-4.9-1.6a11.8,11.8,0,0,0,4.9-5.9,24.9,24.9,0,0,0-9.4-3.8c-.4-5.6,18.4,6.3,19.6-1.3-5.9-1.3-5.6-11.4-8.1-15.8,4.7-4.2,29.7,47.9,47,23.7-.4-.8-15.9-4-14.3-4.1.1-1.9,4.8-11.1,1.8-13.7s-9,1.6-12-.1c-5.7-3.1-1-3.2-2.5-8.1a9,9,0,0,1-5.7,2c3.6-4.6,7.2-7.7,13-9.5-.7-2.9-7.5,1.1-6.9-1.6s3.9-.9,4.1-3.4-8.6.6-8.5-2.4c4.7-.7,2.5-6.6,1.9-9.7-1.9-.3-7.2-.5-8-3.3a9.9,9.9,0,0,0,6.8,0c-2.4-2.7-7-4.8-6.8-9.2,4.8,6.3,39.5,25.8,37.4,28.8,5.1,4.3-4.8,7.8,3.2,10.3,4.6,1.5,3.7-4.4,7-4.7,1.2-.1.3,3.2,1.2,3.5s2.9-18.3,2.6-18.8c-2.4-4.5-10.9,3.7-11.4-6.3-6.5,2.6-6.7,2-6.2-3.9-6.2-1.7.1-2.9-7.3-3.6,1-3.5,4.6-4,7.7-6.1-5.1-4.2-6.6,3.6-12.9-.5,4.8,1,7.1.1,6.8-2.6-.3-.1-11.8.4-11.8-1.7,16.9,0,1.3-1.3-2.4-2,5.6-4.5-1.2-.5-1.2-5.1,5.1,2,1-5.2,3.4-8.7,1.3,4,20.1,27.7,30.6,17.2.6.5,9.7-23.4-5.1-9.8-1.8-1.4-1-2.9,2.4-4.7a12.7,12.7,0,0,1-11.1.3,70.6,70.6,0,0,1,9.2-1.5c.5-4.4-12.6-4-14.6-7,18.3,1.1,2.9,1.4,6.4-3,3,2.3,4.1,7.6,8.6,7.5-1.9-2.7-1.9-5-.2-7.1,1.8,1.8,4.1,17.7,10.2,7.3-6.4-1.4-1-1.4-1.4-4.2a4.4,4.4,0,0,1-4.7-2.5,6,6,0,0,0,5.5-.7c-2.1-2.6-11.1-3.5-9.9-8.8,18.9,8.6-12.6-16.2-12.9-15.6,2.4,2.2,5,2.7,7.8,1.3-1.2-1.4-9.5-9.2-7.3-11.7,1.8,2,8,12.2,12.5,9.2-2.9-1-3.7-2.8-2.4-5.3,4.6,5,17.7,12.4,18.9.6.7-7.2-14.5-3.8-14.3-9.6l13.7,3.9c3.9-4.2-13.5-9.8-15.3-13.2,2.1.5,13,5.7,13.2.6-9.8-1.8-12.5-8.7-11.3-15.4,1.1,1,9.8,9.3,12.4,6.2-.6.7-6.7-20.2-6.7-24.2.3.3,6.5,21.6,10.2,16.3,5.7-8.1,1.1-29.1,3.8-39.2,2.2.5.6,44.7.6,48.8,2.7.8,12.7-11.2,16.3-11.5-3.1,9.7-16.4,15.2-18.1,23.7,2.1,1.4,9.6-5.3,10.4-6.3-.4,3.8-9.8,11.3-5.5,15s17.3-6.6,19.4-3.1-15.9,10.7-17.1,13.7c7.7-3.3,11.6-2.2,11.7,3.2a38.1,38.1,0,0,0-9.7,3.7c.9,1.2,10.9,2.4,11,2.8.6,2.8-7.9,7.1-9.7,8.5,12.9,7.2,17.6-11.9,23.4-14.2,8.9-3.4-18.3,29.7-18.3,27.2,32.3-6.8-14.1,5.9,2.9,10.8,2.8.8,19.6-9.5,21-11.7,4.2-6.2-.3-12.8,1.5-16.9,2.9.6,11.4,4.2,12.8-.4-6.5-1.8-11.3-5.7-17.4-8.5,3.9-2.2,10,.5,13.4-2.1-5.8-1.7-17.8-8.1-5.3-10-4.5-.5-6.8-2.9-7.1-7.2a32.4,32.4,0,0,1,8.6,1.9c-1.1-6.3-5.5-7.1-3.8-13.2,4.5,4.6,10,23,18.6,23.6,3.6.2-2.9-10.1-2.9-10.1s14.1,11.1,13.6,2.6a10.1,10.1,0,0,0-6.9-3.5c3.7-4,4.2-4.1,2.9-9.2-5.1,6.5-3.4.9-1.5-2.6-4.7-.9-6.2,1.9-9.9,4.4-2.1-5.2-2.3-6.5-8.1-8.7,7.4-3.2,19.8,7.4,28.9,2.6-4.6-2.6-12.2-4-17.3-2.3,8.9-9.9-.5-6-6.9-7.8,5.4-4.2.4-7.7-6.2-7.8,2.9-5.3,5,2,10.5-.5a75.5,75.5,0,0,0-6.4-12.7c1,0,14.6,13.2,15.6,14.1-6.3,11.7,15.7,7.9,4.5,1.7.3-1.7,1.8-2.1,4.4-1.3a22.7,22.7,0,0,0-6.7-6.4,7.2,7.2,0,0,0,3.6-2.5c-3.8-1.6-4.6,1.6-9.5-.2q5.5-.2,4.5-3.3c-10.9-1.2,1-5.3,2.7-9.6a20.1,20.1,0,0,0-8.8-.4c-.5-3.8,1.2-6,5.1-6.4-6-4.2-6.4-3.8-8.6-10.3a12.4,12.4,0,0,0,7.7,5.6c1.3-4.5-4.9-11.9-8.1-14.5,4.8-1.9,11,12,18.5,12.4-14.3,15.3,5.6-.4,7.4,2.4,4-5.2-6.8-6-8.7-5.8-.5-3.3,9.1-.3,9.6-5.2-.8-.2-10.4-1.1-9.6-3.9,17.1,4.9,6.4-.5,4.1-6.6,1.8-.2,4,1.6,5.2,1.2s-17.3-14.2-16.8-17c3.7,2.3,9.7,8.8,14.3,10.2a69.7,69.7,0,0,1-3.8-9.5c2.9.7,4.6,2.8,5,6.2,5.6-6.9.5-32,1.9-41.5,2.8.1.8,43.9.8,47.2,4.9-3.1,9.1-7.1,14.2-9.8-4.1-5-13.8,21.5-14.6,25.3a65.1,65.1,0,0,1,8.8.6c-8-1.1-10.9,2.1-8.6,9.5,2.3,1.1,3.6-.5,4.2-4.8,2.8,1.6-6.9,8.6,6.8,5.6,8.5-1.9,10-10.8,16.2-15.7,2.8,2.8-10,15.8-10,17.5s4.9,1,4.7,3c-1.9.3-9.3-.6-9.8,2.1a8.9,8.9,0,0,1,3.5,3.7,7.9,7.9,0,0,0-8,.5,5.5,5.5,0,0,1,4.2,4.6c-6.4.5-4.3,4-2.2,6.9-.6.6-6.7-.5-9.4,1.8a9.2,9.2,0,0,1,9.7,3.2c-1.7,0-10.1-3-9.5.5,6.6.5,15.5-.7,21.7.4a94.7,94.7,0,0,0-10.7,7.5c-2.6-2.5-6.3-7.3-9.6-2.5,1.8,2.3,10.2,7.1,10.1,10.1s-4.2.6-4.3,3.2c0,8.6,35.2-9.5,17.7-13.1,0,1.2,21.5-13.9,19.3-16.1-7.5,7.2-5.3,9.6-.5,15.2-2.7,1.1-14.4,3.8-9.3,8.1-.8.1-13.4,6.9-10.8,9.3a45.8,45.8,0,0,0,12.8.8c-2.5.8-5.1,1.8-7.6,2.8a15.9,15.9,0,0,0,3.9,6.3c-5.1.6-2.6-.2-5.5,4.2-11.9-10.6-4.4-4-12.1-.1a14.7,14.7,0,0,1,5.6,2.4,30.4,30.4,0,0,0-9,1.6c-.9,2.1,5.1,6.2,5.4,6.5a17.4,17.4,0,0,0-9.6.3c6,9.5,30.9,4.3,24.1-5.3a3.7,3.7,0,0,1,4.6.6c2.8-3.6.6-3.9-1.2-7,1.6-1.1,3.2-.3,4.7,2.3a26.8,26.8,0,0,1,9.2-13.7c-.3,3.5-3.8,7.3-4.9,10.6-3.7,10.9,3.8-1.1,4.3,4.5a20.1,20.1,0,0,0-8.7,1.9,15.6,15.6,0,0,0,4.7,2.2c-2.7,5.7-6.4.7-10.4,6.9-1.2,1.7,12.8.5,14.3,2,2.8-.4-19.4,7-17.2,2.2a51.1,51.1,0,0,1,8,6.6,21.1,21.1,0,0,0-7.1-.1,30.1,30.1,0,0,1,4,4.7c-1,1.9-5.7.8-7.2,4.5,5.6,1,8.1,4.1,7.4,9.2a10.5,10.5,0,0,0-7.8-3.8c3.1,3.9,3.4,6.6.9,7.9-1.2-.9-6.8-3.8-8.8-3.3.8,22.6,37.5-18.8,37.4-18.8,4.4,6.7-8.2,8.5.8,15.9-6.4.6-9.2.1-3.7,2.8a4,4,0,0,1-4.2,2.1c-.2,4.2,5.2,2.5,4.9,5.1s-7.6-2.6-6.8,4.4c.4,3.2,11,5.6,10.2,8.6a135.6,135.6,0,0,0-15.6-.6c1.4,1.8,7.6,5.7,6.3,8.7a9.3,9.3,0,0,0-9.1-2.2c.8,6.5,16.5,5.5,18.3,4.3s.9-16.4,9.4-17.4c2.5,10.2-11,10,1.5,16.6-1.5,7.2,2.9-12.8,1.2-12.1,8.4-3.6,13.3,6.7,20.8-.2-2.9-.8-12.7-2-13.3-5.8,2.4-3.1,13.3-1.2,13.3-4.6a36.9,36.9,0,0,1-10.7-5.3,104.2,104.2,0,0,0,12.2-2.2,23.1,23.1,0,0,1-8.9-6.2,26.3,26.3,0,0,1,10.3,2.4c1.7-3.5-1.8-6.8.9-10-.9,10.4,3.5,13.5,13.3,9.3a80.7,80.7,0,0,0-9.2,6c.5-.1,10.2-3,8.4.1a17.2,17.2,0,0,1-8.2,6.9c3.8,0,8.1-2.5,10.2,2-13.3,7.9-14,6.3,1.4,6.3,0,.3-9.8,8.1-10.3,8.8a9.1,9.1,0,0,1,9.5.9c-4.1,2.4-8.5,4-11.8,7.3,2.5-.5,17.5-9.2,19.3-4.8s-5,3.2-5.3,5.4c13.4,4.3,1.6-27.4,10.5-33.8,1.3,11-3.2,34.8,10.5,34.8.6,2.2-1.1,3.5-5,3.9,17.5,5.4-1.6,24.1,17.7,15.9-.4.7-7.6,21.9-6.4,23.8.4-.1,15.5-4.9,16.6-3.9-4.8,6,17.2,8.6,22.5,8.3-4.3-7-10.5-13-16.4-19.4,17,2.6-6.1-6.7-8.8-9.6s-5.2-9.8-6.2-13.6c10.4,2.4,19.7,2.8,30.3,4-4.5-10.6-17.6.7-22.5-6.7,2.9-.6,2.3-2.2-1.7-4.9,2.8-1,4.4-2,1.4-4,15.3-2.1,28.2,0,43,3.8-.3,1.3-16.7-16.7-19.1-14-.7-4.3-29-10.2-27.6-18.1,6.8-1.2,18.2,1,8.4-5.3,14.9-2.1,25.7-12.3,41.4-13.7-1.3-3.7-7.5-11.2-9.6-14.1-2.6,3.1-19.1-12.3-25.4-16,16.6-1.7-9.2-5.6,15.2-.3,6.6,1.5,12.2,7.4,19.8,5.3-9.8-8.9-8.4-1.2-11.6-12-4.5,4.7-12.1-8-14-11.4,10.2-.7,17.4,5.5,27.4,6.4-4.4-2.9-8-17.9-13.2-16.7a3.1,3.1,0,0,1,2.6-3.5c-4.9-3.2-1.3-1.4-5.9-8.6a9.9,9.9,0,0,0,3.1-1.5c7.2,7.5,13.8,15.4,26.3,11.6-2.4-3.8-7.6-25-10.6-14.5a18.9,18.9,0,0,0-4.3-7.7c-.5,4.6-12.6-12.4-15.6-15.8-.8.9,23.6,7,25.6,7.3-9.9-11.4-1.9-1.8,2.7-9.9-3-.6-11.8,3.5-13.8,2.3s-7-7.6-6-6.5c-1.6-1.8-8.2-9-6-11.3,10.8,5.8,17.5,9,30,8.3-6.6-9.1,3.1-10.5-.5-19.1-.5-1.1-11.2-7.3-12.3-8.1,6.3-2.4,3.1-6.5-1.8-10.4,5.2,0,12.2,2.1,18.4,1.7a19.4,19.4,0,0,0-5.6-9c2.5-1.9,5.6,2,6.8-4s-3.5-17,4-20.2c5.6,6.4.4,13.4,2.8,19.2l13.3-.8c-5.3,2.3-5.3,4.2-.1,5.9-6.3-.3-8.6,1.3-6.9,4.9,25.5-5-2.5,14.5-1.8,18.8A52.9,52.9,0,0,0,1938,609.3ZM1656.1,758.6c-.8.3-9.6-8.5-10.2,5.1q9,.9,10.2-5.1Zm-7.9,34.9c.4,4.1-2.6,6-.9,11.1,9.5-10-4.1-14-3.1-24.5,4.5,2.6,12.4,13.3,18.7,9.9-3.6-5.4-6.1-.7-3.4-9.3l-8.2.4c2.9-2.9,1.6-5-4.1-6.3.2-1,17,4.1,18.5,4.3,0-3.9-9.2-7.3-11.4-12,3.5-1.3,9.1-2.2,9.5-6.9-3,3.9-4.5,4-4.7.3-8.5,5.1,7.4-1.2-9,5.7-1.3.5-10-.7-10.2,1.3s13.9,2.4,10.6,2.2c-3.6,2.9-7.8,3.4-12.6,1.3-1.4,2.5,12.3,10.8-3.5,10-1.8,6.5,5.5,6.5-2.4,10.6a77.4,77.4,0,0,1,6.8,4.2,5.4,5.4,0,0,1-5.5.6c2.6,8.1,8.6-3.3,9.1-5.9C1642.8,790.4,1645.5,793.5,1648.2,793.5Zm240.3-45.3s-9.7,7.8-13.6,7.3c4,4.5,28.2,15.3,28.4,3.7C1903.4,750.9,1889.4,754.6,1888.5,748.2ZM1537,908c7.8,13.2,8,1.7,18.6,8.2,5.2,3.1,6.7,8.5,13.5,11.3,2.9-8.7-11.4-18.1-17.5-14.2,0-4.9-2.3-6.5-7.1-4.8a3.8,3.8,0,0,0,.8-4.7C1541.6,902.8,1538.9,904.2,1537,908Zm136.3-175.1c-4.7,4.4,10.3,10.5,12.4,5.2a8.6,8.6,0,0,0-5.5-2.6c7.2-2.3.9-3.5,8.6-4.4,2.5-6.1-7.9-.9-9,.2-.9-.6-.9-1.4.1-2.6a4,4,0,0,0-5.1,2.4c.5-5.2-7.2-10.7-9.9-4.7C1663.7,729,1672.6,732.6,1673.3,732.9Zm64,75c5.4-3.8,5.9-20.5-1.8-18.7,5.2-1.2-5.6,15.7-5.2,15.1-3.8,5.5,12.7,2.7-2,6.5C1732.6,816.5,1738.6,815,1737.3,807.9Zm-22.8-35.3c-2.1-3.4-4.9-6.7-9.2-3.5s9.9,11.6,11,13C1719.3,777.7,1725.1,762.5,1714.5,772.6Zm38.5,21.3c-.6.8,1.3,3.2,1.7,3.8-1.9,1.5-3.6,1.1-5-1.2-1.7,1.4,10.2,6.6,11.2,6.5V790.8c-2.8,2.1-11.7-4-1.9,2.6A4.5,4.5,0,0,1,1753,793.9Zm98.7,53.6c.6,4.3-1.9,4.7-5.4,6.6a83.6,83.6,0,0,0,9.7.7c-5-1.4-5-3.8-.1-7.3,9.7,5.2-17.5-6.7-12.1-6.4C1841.4,850.6,1843.6,849,1851.7,847.5Zm-148.3-60.7c-1.9-1.3.4-6.4-2.8-5.8s1.5,13.5,7.5,7.4C1710.4,786.2,1705.7,781.2,1703.4,786.8Zm-163.8,315.9a30.6,30.6,0,0,1-12.6-5.3C1527,1101.5,1539.1,1113.5,1539.6,1102.7Zm228.1-322.1-1.3,11.7c3.7,1.1,6.7.3,9.1-2.4C1767.9,787.7,1770.6,781.5,1767.7,780.6Zm-201.1,32.6c-3.8-3.4-12.3,3.4-9.7,7.9C1562,820.2,1562.7,816,1566.6,813.2ZM1680.8,671l2.9-7.3a13.2,13.2,0,0,0-9.3,4A7,7,0,0,0,1680.8,671Zm-93.5,126.2c3.4-3.5,5.2-7.3,1.3-10.8C1587.8,789.2,1585.6,794.4,1587.3,797.2Zm115.9-56.6,7.8-.8c.1.1-6.1-5.1-7.3-4.3A4.5,4.5,0,0,0,1703.2,740.6Zm-40.6,44.9c4.2-.2,7.6.3,8.4-4.5C1667.6,781.6,1661.8,780.9,1662.6,785.5Zm-76.6.5c.4-3.6,0-6.3-4.2-7.2C1581.8,782.6,1581.1,785.7,1586,786Zm104.4-67.5-2.5-4C1678,714.2,1692,724.8,1690.4,718.5Zm-72.2,87.4-4.3,5.4c1.5,1.1,9.2-3.2,8.5-4.4S1620,805.4,1618.2,805.9Zm85.7-100.8c-.3-11-7.1-.9-6.4-.3A7.2,7.2,0,0,0,1703.9,705.1Zm-108.6,32.6c.4-1.3-7.5-4.4-8.3-4.9C1581.4,735.1,1596.1,737.7,1595.3,737.7Zm64.3,65.4c-.7,3.3.8,5.1,4.6,5.3C1666.2,803.9,1664.2,802.6,1659.6,803.1Zm88.2-9.3a3.9,3.9,0,0,0-5.2-1.8c-.1,1,2.2,7.8,4.4,5.6S1742.6,795.3,1747.8,793.8ZM1625,783.5c-5.6,2.5-1.2,6.9,3.2,5.4Zm139.9,12.4a6.5,6.5,0,0,0,2.1,7.1C1771.4,799.3,1770.7,796.9,1764.9,795.9Zm-149.3-65.1c-3.3-.6-4.8.4-4.3,2.9a3.2,3.2,0,0,0,3.2,1.6A4.6,4.6,0,0,0,1615.6,730.8ZM1593,775.6c2.4,1.6,4.4,1.6,6.2,0C1599.2,772,1593.8,772.9,1593,775.6Zm-57.4,203.3c4.1-3,4.2-4.4-1.3-5.1Zm158.9-261.8c6.8.4,1.8-4.8.8-4.3C1692.7,714,1692.5,715.4,1694.5,717.1Zm24.8,26-4.4,2.2C1718,751.6,1719.3,743.8,1719.3,743.1Zm55.1,64.3-2.1,5C1776.5,812.3,1777.6,809.4,1774.4,807.4Zm.5,47a10.5,10.5,0,0,1-2.4,5.6C1774.8,859.1,1781.2,856.7,1774.9,854.4Zm-75.7-94.7c1.7-2.8-4.2-3.6-5.7-.6Zm-159,229.7,4.2-.3c.4-2.2-1-3.5-4.5-3.9Zm128.4-248.6c1.5-1.5.8-3.2-2.2-5.3C1663.4,738.2,1664.6,738.2,1668.6,740.8ZM1778,825c-.3-3.1-2.3-3.3-5.7,0ZM1650.5,721.7a2.6,2.6,0,0,0,3.5,1.7C1654.7,720.5,1653.5,719.9,1650.5,721.7Zm-54,57.2c.7.6-6.5-2.8-4.7-.1S1594.9,781,1596.5,778.9Zm205.7,21.6c1-1.5.2-2.8-2.5-4.1C1796.6,799,1797.4,800.4,1802.2,800.5Zm-106.8-107c1.6-3.6-4.3-2.6-3.6-1.4A3.2,3.2,0,0,0,1695.4,693.5Zm-10.5,10.1c-.9-1.5-2-2-3.5-1.4C1681.4,704.4,1682.5,704.9,1684.9,703.6Zm-56.2,165.2,176.9-43.4-1.5-4.2Q1799.3,825.7,1805.6,825.4ZM1609.1,695.1" transform="translate(14)"/><path class="cls-4" d="M1577,750.2l-7.9-5.5.2-.6c.6,0,1.4-.2,1.7.1,2.2,1.8,5.1,2.7,6.5,5.3Z" transform="translate(14)"/><path class="cls-4" d="M1882.2,667.5c.5-1,1-1.7,1.8.1l-1.5.3Z" transform="translate(14)"/><path class="cls-4" d="M1908.7,586.4v-.7l.4.4Z" transform="translate(14)"/><path class="cls-4" d="M1880.3,623.3l-.2-.6.4.3Z" transform="translate(14)"/><path class="cls-4" d="M1736.2,668.1h.5a.5.5,0,0,1-.2.4Z" transform="translate(14)"/><path class="cls-4" d="M1534.2,819.5l-.3-.3h.5Z" transform="translate(14)"/><path class="cls-4" d="M1577.6,750.7l-.3-.7.7.2Z" transform="translate(14)"/><path class="cls-4" d="M1531.6,863.9v-.5h.2l-.3.4Z" transform="translate(14)"/><path id="Path_1801" data-name="Path 1801" class="cls-5" d="M1606,852.1s-11.1-1.8-17.4-2.2l-.8-11.5s-10.4,4.5-14.2,8.5a18.3,18.3,0,0,1-3.6,2.6c.5-2,.5-4,4-6s7.9-1.1,7.1-6.8,4.5-7.9,2.4-10.6a6.5,6.5,0,0,0-7-2.2l-6.8,1.8s-11.2-3-10.1-4.1,6.6-4.2,4.5-6.5-3.6-3.2-5.9-3-2.7-.7-7.5,1.1l-2.9,1V814c-1-1.6-6.2-3.4-6.3-8.8s-3.9-10.2-6.7-12.6-1-3.9-3.1.3-.1,7.7-2,10.3-10.2,4.1-6.1,6.6c.5.3.9.7,1.5,1-1.9-.2-3.7-.3-3.8.2s1.9.6,2,2.1-.6,1.7,0,2.3a21.2,21.2,0,0,1,2.8,2c.6.9.9,2.6,2.8,3.3,0,0-4.7-1.7-5.5-1s-1,1.7-2.4,1.5.1,1.2.1,1.6-.7.6-1,1.1c-3.7-1-8.3-2.1-10.5-3.5a11.9,11.9,0,0,0-7.8-1.8s-2.3,1.3-1.6,2.7h0a.9.9,0,0,0,.3.5c1,1.2,3.2,4.3,3.1,5s-.6,1.9,1.5,3.5a8.4,8.4,0,0,1,2.8,4.4l-2,.8s-.5,2.2-1.2,4.9c-6.3-2.9-16.2-7.9-16.2-7.9s-7.9,4.9-5,4.4h-1.6a6,6,0,0,1,1.1,3.4,6.9,6.9,0,0,0,1.1,4.4c1,1.2,4.1,4.5,4.4,6a20.5,20.5,0,0,1,0,3.5c-3.5,4-6.6,8.1-7.4,10.8a4.8,4.8,0,0,0-2.8.6c-2,1.1-2.8,2.6-2.2,3.3l1.1.8a23.1,23.1,0,0,1-5.1,2.2c2.1-4.7,5.6-11.9,6.6-11.7s-3-3.3-3-3.3-6.7,8.2-8.9,10.1a32.4,32.4,0,0,0-4.8,6.4c-2.7-.1-7.7.5-7.3,6.9.1,1.4.2,2.6.2,3.6-.8-3.7-1.4-7.1-1.9-9.7s3.5-4.4,4.7-6.6,3.7-6.2,4.8-8.4,2.9-7.2,5.2-9-.3-3.5-.3-3.5-1.9-.3-3.7,2.3-7.4,5.1-7.3,6.6-2.3,3.4-3.9,5c.3-2.4.5-4.2.5-4.2l-1.2-5.2.7-2.9a27.6,27.6,0,0,1,3-6.8c1.7-2.6-2.6-3-3.8-5s-.8-5.2-2.3-8.5-.3-2.2-1.5.1a20,20,0,0,0-1.9,11.3c.6,4.7-1.7,6.7-2,8.1s5.4,3.9,5.5,3.9-.3,2-.5,3l-8-4.2.3,4.5s2.5,1.3,3.5,5.5a2.8,2.8,0,0,0,2.6,2.3c-.1,1.1-.3,2.2-.3,3.3l-.2-.2-6.5-2.8c-1.3-.6-4.9-3.5-6.1-3.4s-3.2,3.6-3.2,3.6,3.2,1,4.1,3.4,2.3,10.9,3.9,11.2,4.8,3,6.4,4.3l-1.3.2-5.3,1.6s-8.9-3.2-8.1-4.3,5.2-4,3.5-6.4-3-3.3-4.8-3.2-2.1-.7-5.9,1l-2.3,1v-.2c-.8-1.6-4.9-3.5-5.1-9s-3.3-10.4-5.5-12.9-.9-3.9-2.4.2.1,7.8-1.5,10.4-7.9,4-4.6,6.7a10,10,0,0,1,1.1,1c-1.4-.3-2.9-.4-2.9.1s1.5.6,1.6,2.1-.5,1.7,0,2.3,1.8,1.2,2.3,2.1.8,2.7,2.3,3.2-3.8-1.7-4.5-1-.8,1.7-1.8,1.5.1,1.2.1,1.6-.5.6-.8,1.1c-2.9-1.1-6.5-2.3-8.3-3.7s-6.2-1.9-6.2-1.9-1.8,1.3-1.3,2.6h0l.3.5c.7,1.3,2.6,4.4,2.5,5.2s-.5,1.8,1.3,3.5a8.8,8.8,0,0,1,2.2,4.4l-1.6.8-.9,4.9c-5-3-12.9-8.2-12.9-8.2s-6.3,4.8-4,4.3h-1.2a1.4,1.4,0,0,1,.2.6,41.8,41.8,0,0,1-9.7-8.1c-3.8-4.8.2-14.4-7.6-8.3s-10,5.7-9.6,12-7.6,8-7.2,14.9c.4,5.1-2.6,9.5-5.5,13.3-4.3.4-9.2,1.7-8.9-.5s.2-5.1,2.8-7.4,5.5-1.1,4.8-7.7,2.9-9.1,1.3-12.3-3.7-3.3-5-2.8-4.7,1.8-4.7,1.8-8.1-3.8-7.3-5.1,4.5-4.6,2.9-7.3-2.7-3.9-4.3-3.8-1.9-.8-5.3,1.1l-2,1.1v-.3c-.8-1.9-4.5-4.1-4.7-10.5a28.5,28.5,0,0,0-5.2-14.8c-2-2.8-.8-4.6-2.1.2s.1,9-1.1,11.9-7.1,4.5-4.1,7.6l1.1,1.2c-1.3-.3-2.6-.5-2.7,0s1.3.8,1.4,2.6-.4,1.9.1,2.7a13.6,13.6,0,0,1,2,2.5c.5,1,.8,3.1,2.2,3.8s-3.4-2-4-1.3-.7,1.9-1.6,1.7.1,1.4.1,1.9-.4.6-.7,1.2c-2.6-1.2-5.9-2.7-7.5-4.4s-5.7-2.3-5.7-2.3a3.5,3.5,0,0,0-1.1,3h0l.3.6c.6,1.4,2.3,5,2.3,5.9s-7-.7-5.3,1.3a2.1,2.1,0,0,1,0,3.1l-.2.2-5.9-.3-3.6,6.9a13.8,13.8,0,0,1,.9,3.9,11.4,11.4,0,0,0,.9,5.2c.8,1.5,3.1,5.4,3.3,7.2s-.1,10.2.3,10.3a21.3,21.3,0,0,1,3,3c.6.7-.8,3.8-.8,3.8a9.3,9.3,0,0,1-3.3.3c-2.2-.2-4.6-1.6-5.9-.4-5.9-.4-17.5-6.3-17.5-6.3l.3,6.9c.3,6.9-9.3,7.4-21.7,13.2a18.2,18.2,0,0,0-2.7,1.5l-.8-.4a10.2,10.2,0,0,0-5.6,1.9c-2.7,1.9-11.2,4-11.1,5.1s-3.5,2.6-6,3.8a25.7,25.7,0,0,1,.9-3l-1.4-3.7,1-2.1a23.1,23.1,0,0,1,4.8-5.1c2.7-1.9-3.6-2-5.4-3.4s-.8-3.7-2.9-6-.4-1.5-2.3.2-4,4.9-3.3,8.2-3,4.9-3.5,5.9,7.8,2.5,8,2.5a10.2,10.2,0,0,1-.9,2.2l-11.5-2.4.3,3.2s3.5.8,4.8,3.8c.5,1.1,2,1.5,3.6,1.5a20.2,20.2,0,0,0-.7,2.3h-.3l-9.4-1.6c-1.8-.4-7-2.3-8.7-2.2s-5,2.8-5,2.8,4.6.5,5.9,2.2,2.8,7.7,5.1,7.8,10.5,3.2,10.5,3.2l5,1.8c.5,1.7.9,3.5,1.3,5.2l-6-2.6c-2.4-1-9.8-2-9.8-2s-12.8-2.5-14.5-2.3c0,0-1,3.1.3,4.8.2.1.3.3.5.5l-2-.4c-7.2-1.5-17.7-8.9-19.5-15.2s-14.6-5.5-31-6.3.4-4.5-5.8-11.3-19.2,10.1-26.5,18.4c-3.2.1-13.7-1.9-19.4-1.7s-13.5,2.1-13-.2.4-4.6,3.7-6.9,7.2-1.2,6.4-7.3,4-8.5,2-11.4a5.3,5.3,0,0,0-6.4-2.5c-1.6.6-6.1,1.8-6.1,1.8s-10.2-3.4-9.3-4.6,6-4.4,4.1-6.9-3.4-3.5-5.5-3.4-2.4-.7-6.8,1.1l-2.6,1.2v-.3c-.8-1.7-5.6-3.7-5.7-9.6s-3.7-11.1-6.3-13.7-.9-4.2-2.7.3,0,8.3-1.8,11.1-9.2,4.4-5.4,7.1l1.3,1.1c-1.6-.2-3.4-.4-3.4.1s1.8.6,1.9,2.3-.6,1.8,0,2.5,2,1.3,2.6,2.3.9,2.8,2.6,3.5c0,0-4.2-1.9-5-1.1s-.9,1.8-2.1,1.5.1,1.4.1,1.8-.6.6-.9,1.2c-3.3-1.1-7.5-2.4-9.6-3.9a9.6,9.6,0,0,0-7.1-2s-2.1,1.4-1.5,2.9h0l.3.5c.9,1.3,3,4.7,2.9,5.5s-.6,2,1.4,3.8a9.5,9.5,0,0,1,2.6,4.7l-1.8.9-1.1,5.2c-5.8-3.2-14.8-8.7-14.8-8.7s-7.2,5.3-4.5,4.7h-1.4a9.4,9.4,0,0,1,1.1,3.6,8.4,8.4,0,0,0,1,4.9c.9,1.3,3.8,4.9,4,6.6-22-7.3-12.2-14.3-17.9-14.8s-10.3,16.6-10.3,16.6l-13.1,5.6c-4.1.3-18.6-2.7-26.4-2.3s-18.2,2.9-17.4-.2.5-6.3,5-9.3,9.6-1.5,8.6-9.8,5.3-11.4,2.6-15.5a7.4,7.4,0,0,0-8.6-3.3l-8.2,2.5s-13.8-4.6-12.5-6.2,8-5.9,5.4-9.3-4.5-4.8-7.3-4.6-3.3-1-9.2,1.5l-3.5,1.4v-.4c-1.2-2.3-7.6-4.9-7.8-12.9s-5-15-8.5-18.4-1.2-5.7-3.6.3,0,11.2-2.4,15-12.4,5.8-7.3,9.6l1.8,1.4c-2.3-.3-4.6-.5-4.6.2s2.4.9,2.5,3.1-.7,2.4,0,3.3,2.7,1.8,3.5,3,1.2,3.8,3.6,4.7c0,0-5.8-2.5-6.8-1.6s-1.3,2.5-2.9,2.2.1,1.8.1,2.4-.8.9-1.2,1.6c-4.5-1.6-10.1-3.3-12.9-5.2-5.1-3.8-9.6-2.8-9.6-2.8s-2.8,1.9-1.9,3.9h0a1.6,1.6,0,0,0,.4.7c1.2,1.7,4,6.3,3.9,7.3s-.8,2.8,1.9,5.2a12,12,0,0,1,3.5,6.3l-2.5,1.2-1.4,7.1c-7.8-4.3-20-11.8-20-11.8l-2.5,1.9c-2-2-3.8-4.1-4.1-7.7-.5-7.9-3-6.9-12.1-13.5s-3.4,5-6.6,11.6-10.2,13.4-19.6,21.2l-2.7,2.4-.5.2v-.3c-1-2-6.7-4.4-6.8-11.4s-4.3-13.1-7.4-16.2-1-4.9-3.2.3-.1,9.8-2.1,13.2-10.9,5.1-6.4,8.4a15.8,15.8,0,0,1,1.5,1.2c-1.7-.3-3.5-.4-3.9-.1a129.3,129.3,0,0,0,2.7-13.1s10.1-23.4,12.4-23.2-4.5-4.7-4.5-4.7-9.9,12.1-13.2,14.9-9.4,12.5-10.9,16.7-4.3,6.2-6.7,8.4c-1.1-5.6-2.2-10.6-2.9-14.5-.3-1.8,5.3-6.6,7-9.7s5.5-9.3,6.9-12.4,4.4-10.7,7.7-13.5-.4-5.2-.4-5.2-2.8-.3-5.5,3.4-10.9,7.6-10.7,9.8-3.4,5.2-5.8,7.5c.3-3.5.7-6.3.7-6.3l-1.7-7.6.9-4.3s1.8-6.3,4.4-10.2-3.8-4.4-5.6-7.4-1.1-7.6-3.4-12.5-.5-3.3-2.3.1a32.5,32.5,0,0,0-2.8,16.8c1,6.9-2.6,9.9-3,12s8.1,5.7,8.2,5.7-.4,2.8-.7,4.5l-11.7-5.8.4,6.8s3.6,1.8,5.2,8.1A3.9,3.9,0,0,0,674,920c-.2,1.6-.4,3.2-.5,4.8l-.3-.3-9.6-4c-1.8-.9-7.2-5.2-8.9-5.1s-4.8,5.3-4.8,5.3,4.7,1.4,6.1,5,3.4,16.2,5.7,16.7,10.8,7.4,10.8,7.4l5.2,4c.5,3.5,1.1,7.3,1.6,10.9l-6.2-5.9c-2.5-2.4-10.1-5-10.1-5l-5.5-2.4c-1-2.6-1.6-5.5-2-11.4-.7-11.1-10.4-7.2-10.4-7.2s-3.1-9.5-6.2-18.1-6.8-9.9-9-5.8c-.9,1.6-4.9,3.9-9.6,6.2a7.8,7.8,0,0,0-3.4.2c-2,.7-7.2,2.1-7.2,2.1s-12-4-11-5.3,7-5.2,4.8-8.2-4-4.2-6.4-4-2.9-.8-8,1.4l-3.1,1.2v-.3c-1.1-2-6.7-4.3-6.8-11.3s-4.4-13.2-7.4-16.2-1.1-5-3.3.3,0,9.8-2,13.1-10.9,5.1-6.5,8.4l1.6,1.3c-2-.3-4-.5-4,.1s2,.7,2.2,2.7-.7,2.1,0,2.9,2.3,1.5,3,2.6,1,3.4,3.1,4.1c0,0-5-2.1-6-1.3s-1.1,2.2-2.5,1.9.1,1.5.2,2.1-.8.7-1.1,1.4l-1.2-.4c-4-5.2-10.2-11-10.8-19.4s-9.3-9.7-9.8-17.7-3-6.9-12.1-13.5-3.4,5-6.6,11.6-10.2,13.4-19.6,21.2-6.7,10-10.9,21.4c-2.4,6.7-7.2,10-11.4,12.2,2-3.5,3.8-6.5,5-6.6s6.5-15.8,6.5-15.8,13.2-21.1,16-21-5.5-4.1-5.5-4.1-12.8,11-16.9,13.6-12.1,11.5-14,15.3-5.7,5.6-8.8,7.7c-1.2-5-2.3-9.5-3.2-12.9-.4-1.7,6.9-6,9-9s7.1-8.3,9.1-11.3,5.9-9.6,10-12.1-.3-4.7-.3-4.7a9.8,9.8,0,0,0-7,3.2c-3.3,3.4-13.9,7-13.8,8.9s-4.4,4.7-7.4,6.9c.6-3.1,1-5.6,1-5.6l-2-6.8,1.3-3.8s2.5-5.8,5.8-9.2-4.5-3.8-6.9-6.5-1.2-6.8-3.9-11.2-.7-2.8-2.9.2-4.8,9-3.9,15.1-3.5,8.9-4.1,10.8,10,4.9,10.1,4.9a25.9,25.9,0,0,1-.9,4l-14.7-4.9.4,6.1a11,11,0,0,1,6.2,7.1c.7,2.1,2.7,2.9,4.7,3-.3,1.5-.5,2.9-.7,4.3l-.4-.2s-9.8-2.7-12-3.5-8.9-4.4-11.1-4.3a6.2,6.2,0,0,0-3,1.8,48,48,0,0,1-.9-7.5c-.7-11.1-10.4-7.2-10.4-7.2s-3.1-9.5-6.2-18.1-6.8-9.9-9-5.8-25.2,12-26.1,16.9c-.6,2.7-6.8,5.6-13.4,8.7a11,11,0,0,1,3.2-7.8c4.2-4.4,9.3-17.5,11.9-17.6s6.5-15.8,6.5-15.8,13.2-21.2,16.1-21-5.6-4.2-5.6-4.2-12.7,11.1-16.8,13.7-12.2,11.5-14.1,15.3-5.6,5.6-8.7,7.6c-1.3-4.9-2.4-9.4-3.2-12.8-.4-1.7,6.9-6.1,9-9s7.1-8.4,9.2-11.3,5.8-9.6,9.9-12.2-.3-4.6-.3-4.6a9.4,9.4,0,0,0-7,3.2c-3.3,3.4-13.9,6.9-13.8,8.9s-4.3,4.7-7.4,6.9c.6-3.2,1-5.7,1-5.7l-2.3-6.2,1.3-3.8s2.5-5.8,5.9-9.2-4.6-3.9-7-6.5-1.1-6.9-3.9-11.2-.6-2.9-2.8.2-4.9,9-3.9,15.1-3.6,8.9-4.2,10.8,10,4.9,10.1,4.9a28.8,28.8,0,0,1-.9,4l-14.7-4.9.4,6a11.6,11.6,0,0,1,6.3,7.2c.7,2.1,2.6,2.9,4.7,3a29.7,29.7,0,0,0-.8,4.3l-.4-.3-12-3.4c-2.2-.7-8.9-4.4-11-4.3s-6.2,4.9-6.2,4.9,5.8,1.1,7.5,4.3,3.9,14.3,6.7,14.7,13.4,6.3,13.4,6.3l6.4,3.6c.6,3.1,1.2,6.4,1.8,9.7l-7.7-5.1c-3-2.1-12.4-4.3-12.4-4.3s-16.2-4.9-18.3-4.8a24.2,24.2,0,0,0-.4,4.7,18.9,18.9,0,0,0-2.5-3.1c-4.8-4.6-21.7-10.6-21.7-10.6l28.2,414.7,1329.5-62.8Zm-1268.2,47-9.9,9.3-9.8-8-11.3-20.7s-2.2-4.7-5.1-10.1c2.1,1.9,4.4,3.6,6,5.1,3.2,3.2,7.5,3.6,9.3,9.8s10.6,3.3,10.6,3.3l10.9,4.9c.3,2,.6,3.7.8,5Zm367.3,86.4c.6,0,1.3-2,2-4.6.1,1.2,2.1.8,2.2,3s-.7,2.4,0,3.3,2.4,1.7,3.1,3,1.1,3.8,3.1,4.7c0,0-5-2.4-6-1.5s-1,2.5-2.5,2.1.2,1.7.2,2.3-.7.9-1.1,1.6l-5.9-2.3C702.1,991.3,703.9,985.6,705.1,985.5Zm-20.8,33.4v.3l-5-3.3v-.2ZM441.5,938.8l6.4,4.1c.7,3.5,1.3,7.3,2,10.9l-7.8-5.8a15.9,15.9,0,0,0-4.3-2.2c-.3-2-.5-4-.7-6a10.4,10.4,0,0,0-1-4.3Zm-20.3-24.1a44.9,44.9,0,0,1,1.9,5.9c-.3-.4-.6-1-.9-1.5a69.8,69.8,0,0,1-3.9-7.3,8.1,8.1,0,0,1,2.9,2.9Zm780.1,82.4c1.7-1.8,5.8-5.2,7.3-7a40,40,0,0,1,6.5-6.5c.7,2.3,6,4.2,6,8.9-2.1,1.3-4.2,2.6-6.4,3.7s-9.8,7.2-11.4,9.6-4.5,3.5-7,4.7c-.9-3-1.7-5.8-2.4-7.9S1199.6,998.9,1201.3,997.1Zm240.3-59.4a.9.9,0,0,1-.4-.9c.4-2.1.3-4.5,2.4-6.6a4,4,0,0,0,1.2,1.6,11.8,11.8,0,0,0-3.2,5.9Zm8.7-21c.5-1.7,1.2-3,1.5-4.2.2,2.2.6,4.4.9,6.7a28.9,28.9,0,0,0-2.4-2.5Z" transform="translate(14)"/><path class="cls-1" d="M-7.9,508.6l-2.6.3-2.1,4.1C-.4,516.4-.4,516.9-7.9,508.6Z" transform="translate(14)"/><path class="cls-1" d="M1921,540.9c8.6-.5,10.4-3.1,5.3-8h-.3C1923.9,534.7,1918.7,540.2,1921,540.9Z" transform="translate(14)"/><path class="cls-1" d="M1936.4,568.4c4.9,2.4,8.2-1.6,12.8-2.6C1944.9,562.9,1941.6,563.7,1936.4,568.4Z" transform="translate(14)"/><path class="cls-2" d="M-9.4,506.8l-1.1,2.1,2.6-.3C-8.3,508-8.9,507.4-9.4,506.8Z" transform="translate(14)"/><path class="cls-2" d="M-5.5,470.4c-4.4,7.4,2.3,11.1,7.5,16.5V474.1C-1.2,472.7-4.6,470.8-5.5,470.4Z" transform="translate(14)"/><path class="cls-2" d="M2,466.7v-6.6C-.6,460.4.2,463.3,2,466.7Z" transform="translate(14)"/><path class="cls-2" d="M1922,495.1c-.5.2-3.2,1.8-6,3.1v10.9C1919.1,505.5,1925.2,502,1922,495.1Z" transform="translate(14)"/><path class="cls-2" d="M1949,553.2l3.7-1C1951.7,551.6,1950.6,551.6,1949,553.2Z" transform="translate(14)"/><path class="cls-2" d="M1926.1,532.7h.2Z" transform="translate(14)"/><path class="cls-2" d="M1926,511.1a18,18,0,0,1-10,3.2v17.3C1919.5,527.2,1927.5,515,1926,511.1Z" transform="translate(14)"/><path class="cls-1" d="M115,473.3l.4,1C116.1,474,115.9,473.7,115,473.3Z" transform="translate(14)"/><path class="cls-1" d="M66.1,563.5,51.3,574H65.9c-1.7,1.6-1.3,3.4,1.2,5.3,5.9-3,21.1-4.7,23.5-12.1C82.2,568.9,72.9,570,66.1,563.5Z" transform="translate(14)"/><path class="cls-1" d="M1914.9,514.3h1.1v-5.2C1914.6,510.7,1913.9,512.3,1914.9,514.3Z" transform="translate(14)"/><path class="cls-1" d="M73.5,588.5c-12.4-7.5-16.7-8.2-30.9-5.9,5.3,2.4,4.1,5.3-3.5,8.7,10.2,4.5,24.3.8,35-.2-2.7,5.5-7.3,8.4-13.6,8.6,8.4,3.9,16.6,3.5,21.9-4.6C77.6,597,74.9,589.4,73.5,588.5Z" transform="translate(14)"/><path class="cls-1" d="M62.5,629.3c.9,2.3-.9,3.1-5.5,2.3a32.4,32.4,0,0,0,20.6-1.8C70.8,620.4,62.1,629.1,62.5,629.3Z" transform="translate(14)"/><path class="cls-1" d="M1916,532.1v-.5l-.4.5Z" transform="translate(14)"/><path class="cls-1" d="M1849.9,606c2.8.4,3.7-1.6,2.7-6.1H1866c-7-4.8-11.4-6.7-17.9-7.5s-13.7,3.1-21.3,1.8C1832.7,602.5,1844.5,597.7,1849.9,606Z" transform="translate(14)"/><path class="cls-1" d="M2,486.9v1l.6-.3Z" transform="translate(14)"/><path class="cls-1" d="M1857.4,654.6c-9.3-3.1-10.4-6.3-16.2,2.6,2,.2,14.7,3.1,17.1,1.3Q1855,656.7,1857.4,654.6Z" transform="translate(14)"/><path class="cls-1" d="M7.6,475A74.6,74.6,0,0,1,2,466.7v7.4C4.4,475.1,6.7,475.7,7.6,475Z" transform="translate(14)"/><path class="cls-1" d="M111,509.6c-.2,0-.3,0-.2.1h.2Z" transform="translate(14)"/><path class="cls-1" d="M1868.6,607.8c-9-1.4-13.6.9-21.6,5.4-5.7,3.2-3.4,8.5-11.1,9.4,5.7,6.1,13.5,7.6,21,3.8-3-1.1-13.7-3.4-12.3-9.6,11.2,1.4,24.3,4.7,35,0C1873.1,614.4,1875.9,609,1868.6,607.8Z" transform="translate(14)"/><path class="cls-1" d="M110.8,509.7h0c.1,0,.1,0,.1.1S110.9,509.7,110.8,509.7Z" transform="translate(14)"/><path class="cls-1" d="M1713,862a635.5,635.5,0,0,0,14.4-79.8c2.6-23.1,12.7-66.5-7.7-82.6,10.4-7,22.3-5,34.1-4.4-12.4-9.3-20.6-3.7-30.7-18.1,9.6-6.7,18.7-5.6,30.1-6.5-5.9-3.3-8.2-7.4-12.2-12.7,10.3-3.3,21.1.1,30.8-5.8-9.2-.6-16.3,2.5-22.2-2.7s8.8-3.2.4-15.3l18.8-2.7c-27.6-11.9-5-7,7.6-17.1-16-3.3-13.3-17.4,5.1-21.3-.9-5.9-14.7,3.8-16.7-2,8.8-4.7,12.2-7.7,22.6-10.5-8.8-1.6-14.8,0-17.1-8.8,3.3-.3,15.6.2,18-4.6-14-2.5-2.6-2.4-2.2-11.9.2-6.5-15.2-9.8-1.4-9.8-3.9-3.1-11.8-4.1-13.2-9.8l19.9,6c-4.1-8.2-2.4-5.2.2-10.9.8-1.6,1.4-6.2-.2-7.5a24.5,24.5,0,0,1,5.4,1.8c-.3-3.4-6.9-10.1-7.7-12.6s10.2-2.9,8.7-7.7l-18.7-6.9c7.3-2,13.9,2.3,21,2.6-4.5-4-9-10-13.7-19.4,20.6,0,5-14.3,14.4-29.3,6.6,13.9-8.3,16.7,9.6,21-7.6,2.9-8.4,6.5,1.5,7.1l-5,5.1a20.4,20.4,0,0,0,13.6,6.3c-1.4,8.6-10.9,8.5-13.2,19.5,5-.8,14.2-9.1,18.9-6-2.7,7.2-10.9,10.9-13.4,19.1.9,0,15-1.1,16,.7-7.4,4.3-14.8,8.6-22.3,12.8,13.8,8.8,25.4,13.2,38.7-.9,3.7,1.4,5.2,3.5,4.5,6.4-.2-.1-32.1,10-34.2,9.8,8.8,9.5,22.2,4.7,34.4,3.1-5.8,9.1-57.2,17.9-11.4,17.9,1.5,5.8-14.6,9.9-18.8,8.2,6.9,12.5,35.9,4.7,34.5,2.2,8.9,1.6,19.1,4.4,27.4-1.5-11.2-2.9-28.2-4.5-37-12.6,0,.1,24.3,5.6,24.8,3.7-7.3-2.7-7.6-6.1-10.4-12.3,2.1.1,22.3,4.1,23.5.1-11.3-5.5-14.7-5.1-19.3-17,6.2.9,13.3,2.9,19.3.1a25.5,25.5,0,0,1-19-14.3,56.1,56.1,0,0,0,23.7,3.6c-3.8-1.2-17.9-7.5-17.2-14.7a20.4,20.4,0,0,0,17.2,1.8c-6.2-4.2-17-6.3-19.5-13.8l22.2-1.4c-.9-4.6-11-3.4-12.9-9.6h12.7l-9.6-9.6,16.3,2.1c-6.2-7.6-11.4-8.6,1.7-9.9-1.7-1.2-8.4-6.5-5.4-9.7,7.7,3.7,6.6-7.7,6.6-13,5.5-.2-1.2,12.8,4.7,14.4.2-.9.7-.8,1.4.2l-1.4-.2a36,36,0,0,0,.4,8c4.1,1,6.6-2,7.3-9.1,2.6,1.2-2.8,15.5-3.2,17.1,14-5.5,3.6,7.3.6,13.8.8.6,3.9-.6,6.9-2V0H2V460.1c1.2-.2,3,.3,5.8,1.4-1.7-5.4-3.3-10.9-4.9-16.4,4.7-2,11.9,18.4,7.3.6,7.8-1.5.2-15.4,6.5-15.8-1.4,5.5-.9,16.5,6.4,13.9.2,4.3-1.7,7.5-5.7,9.7,12-1.9,12.6,1.2,1.7,9.3,12-.9,20-5.5,6.9,7.6H39.4c-1.9,2.9-13.7,8.3-13.6,9.7l22.3,1C47,488,34.3,492.3,28.8,495.6A23.3,23.3,0,0,0,47,493c-1.1,6.5-17.9,15.1-17.7,16.1s21.9-4.5,22.7-3.5c-3.3,7.7-11,11.5-18.7,13.4a39.1,39.1,0,0,0,20.1-.5c-4.4,11.6-8.2,11.6-19.1,17.2,1.2,3.8,20.6,0,23.2-.2-3.6,6.9-2.2,8.9-10.3,12.2.5,2,23-3.4,23.4-3.5-6.3,5.1-29.1,13.5-37.1,11.3,8.3,5,59.6,13.1,64-.1-6.1.3-14.1-3.6-18.8-7.3,2.4-7.3,16.1,5.5,20.1-8.5-9.5-1.9-26.7-1.3-31-10.4,10.9,1.6,29.7,9.4,33.4-5.5-12.3,6.6-22.8-6.3-34.6-8.5,7-8.9,9.8,2.5,19.8,4.2s17-3.8,24.4-9.7h0c-7.7-4.1-15.8-7.2-22.6-12.7H104c-.8-7.3-10.8-14.1-14-19.5,7.1-.5,12,8.1,19.3,5.8-2.5-10.7-12.2-10.6-13.7-18.9a22.9,22.9,0,0,0,13.7-6.5,22.3,22.3,0,0,1-4.7-5c12.6-3.8,4.1-2.4,1.5-8,13.2,0,3.7-11.1,8.5-19.9,8.5,13.5-5.6,30.2,14,29.3,1.8,7.5-20.5,9-7,13.8-5,.9-7.3,2.6-6.6,5.1,7-.3,13.5-2.5,20.2-4.4.9,3-15.8,8.1-17.4,8.7,1.1,1.6,10.1,6.6,9.9,8.1-.9,5.3-8,6.4-8,12.6a9.7,9.7,0,0,1,5.4-2c-2.2,12.8,5.9,4.8.3,18.5.8-.2,18.1-8,19.8-6a51,51,0,0,1-14.4,8.9c.9,1.9,2.7,2.1,5.6.7l-7.5,12.6c11.2,5.8,11,8.7-.5,8.8,7.3,9,34.6,6.1,1.6,13.2,8.5,2.4,17.1,4.8,23.6,11.4H136.2c5.6,8.1,14.6-.2,16.1,12.4,1.2,9.4-10.7,6.8-10.8,10.5,10.3,1.3,13.7,6,24.1,9.2-3.4,6.7-12.4,4.3-17.9,7.1l20.5,2.5c-3.7,5.7-3.2,12.7,2.6,16.7-7.5,4-16,.2-23.9,1.6,7.9,5.8,22,4.4,31.4,5.3-5.5,6.2-7.1,10.9-15.1,11.7-.2,9.9,43.3-9.4,25.2,14.1-6.6,8.5-15.2,4.9-22.9,12.1,11.7-1.2,23.8-3.6,34.2,3.7-18.9,15-8.7,56.7-6.1,78.6a605,605,0,0,0,17,87.4c13.3,49.5,35.3,95.5,45.4,145.7q9.8,48.5,19.2,97.1H1656.9c3.8-20.3,7.5-40.6,11.3-60.9C1678.3,965.2,1700,915.4,1713,862Z" transform="translate(14)"/><path class="cls-2" d="M115,473.3h0Z" transform="translate(14)"/><path class="cls-2" d="M110.8,509.7Z" transform="translate(14)"/><path class="cls-2" d="M1904,470.4l1.4.2C1904.7,469.6,1904.2,469.5,1904,470.4Z" transform="translate(14)"/><path class="cls-2" d="M1815.5,552.6a.1.1,0,0,0-.1-.1C1815.3,552.5,1815.4,552.6,1815.5,552.6Z" transform="translate(14)"/></g></svg>