<svg xmlns="http://www.w3.org/2000/svg" viewBox="0 0 56.959 56.959">
  <defs>
    <style>
      .cls-1 {
        fill: #fff;
      }
    </style>
  </defs>
  <path id="twitter_icon" data-name="twitter icon" class="cls-1" d="M28.426,56.959H3.376A3.056,3.056,0,0,1,.183,54.738,4.919,4.919,0,0,1,.03,53.49Q.008,28.495,0,3.515A3.317,3.317,0,0,1,3.529,0Q28.487.046,53.446,0a3.309,3.309,0,0,1,3.513,3.53q-.023,24.949-.015,49.9c0,2.313-1.232,3.53-3.544,3.53Zm-23-12.8-.091.183A3.407,3.407,0,0,0,6.1,45c1.354.67,2.692,1.37,4.091,1.9a28.867,28.867,0,0,0,13.78,1.461,28.983,28.983,0,0,0,8.867-2.572,26.289,26.289,0,0,0,9.445-7.624,28.986,28.986,0,0,0,6.586-18.018,3.269,3.269,0,0,1,1.08-2.48q1.323-1.278,2.555-2.648a2.453,2.453,0,0,0,.289-.852,6.87,6.87,0,0,0-.943-.183,2.924,2.924,0,0,0-.7.167,5.761,5.761,0,0,1-1,.167,1.833,1.833,0,0,1-.532-.137,2.11,2.11,0,0,1,.183-.548c.259-.35.578-.67.852-1.02a9.746,9.746,0,0,0,.958-1.385.978.978,0,0,0,.046-.867,1.046,1.046,0,0,0-.852-.183,7.935,7.935,0,0,0-1.536.517,3.948,3.948,0,0,1-3.164.046c-.928-.365-1.825-.837-2.722-1.278A10.156,10.156,0,0,0,28.639,19.3c.061.852-.122,1.065-.943,1.248a3.118,3.118,0,0,1-.837.076,21.22,21.22,0,0,1-5.582-1.172,29.215,29.215,0,0,1-11.3-6.954,4.454,4.454,0,0,0-.837-.685,1.389,1.389,0,0,0-2.221.867,10.084,10.084,0,0,0,.046,5.539,11.7,11.7,0,0,0,2.357,4.17,3.572,3.572,0,0,1,.411.989,4.1,4.1,0,0,1-1.141.015c-.684-.183-1.354-.472-2.068-.73a9.318,9.318,0,0,0,.958,4.413,10.572,10.572,0,0,0,4.989,4.885c.4.2.76.457,1.141.685-.015.076-.046.152-.061.228-.73.015-1.46.046-2.19.061-.669,0-.867.167-.715.822a5.056,5.056,0,0,0,.669,1.644A10.125,10.125,0,0,0,16.9,39.474c.487.152,1.11.274,1.186.883.076.639-.548.883-1,1.141A19.688,19.688,0,0,1,6.464,44.177C6.1,44.146,5.764,44.161,5.43,44.161Z" transform="translate(0 0)"/>
</svg>
