<svg xmlns="http://www.w3.org/2000/svg" xmlns:xlink="http://www.w3.org/1999/xlink" id="Layer_1" x="0px" y="0px" style="enable-background:new 0 0 492 489.8" version="1.1" viewBox="0 0 492 489.8" xml:space="preserve">
      <style type="text/css">
          .cls-2{fill:#4f1d16; stroke: #4f1d16}.cls-3{fill:#001533; stroke: #001533}.cls-4{fill:#f09c56;stroke:#f09c56}.cls-5{fill:#281b9e;stroke:#281b9e}.cls-6{fill:#ffba80;stroke:#ffba80}.cls-7{fill:#bd0005;stroke:#bd0005}.cls-8{fill:#362823;stroke:#362823}.cls-9{fill:#fdb171;stroke:#fdb171}.cls-10{fill:#de8840;stroke:#de8840}.cls-11{fill:#37120b;stroke:#37120b}.cls-12{fill:#efda84;stroke:#efda84}.cls-13{fill:#d23813;stroke:#d23813}
      </style>
      <title>
          Dance
      </title>
        <path d="M307,100H338.2c-.06-.46-.11-.91-.19-1.4-1.72-10.59-7.11-13.84-5.6-22.7C333.8,67.75,327.33,55,315.65,50H307.9Z"     class="cls-12 path243" style=""></path>
        <path d="M315.65,50a26.54,26.54,0,0,0-3.14-1.13,16.46,16.46,0,0,0-4.58-.51l0,1.64Z" class="cls-12 path238" style=""></path>
        <path d="M262.21,19.73a5.83,5.83,0,0,1-3.78-.49l-.11,6.2A5.86,5.86,0,0,0,262.21,19.73Z" class="cls-11 path224" style=""></path>
        <path d="M305,68.25l-.06.6q-.13,1.4-.24,2.73s0,.09,0,.13c-.08,1-.15,2-.2,2.91v.11c-.05.91-.1,1.79-.13,2.65v.14c-.06,1.79-.09,   3.49-.08,5.09v.09A79.3,79.3,0,0,0,305,93.23v.11c.17,1.19.36,2.3.58,3.37l0,.16c.1.49.2,1,.31,1.43a.52.52,0,0,1,0,.11c.12.5.24,1,.36,      1.45,0,0,0,.09,0,.14H307l.87-50h-7.67l5.1,15.2C305.21,66.25,305.11,67.26,305,68.25Z" class="cls-12 path245" style=""></path>
        <path d="M307.9,50l0-1.64a33,33,0,0,0-7.87,1.14l.17.5Z" class="cls-12 path241" style=""></path>
        <path d="M228.44,11.07c23.13-1.93,33.1,10.14,28.83,14.47,0,.07.07.14.1.22a7.06,7.06,0,0,0,.95-.32l.11-6.2a11.81,11.81,0,0,      1-2.76-1.64,42.54,42.54,0,0,0-8.18-5.75C236.29,6.4,218.23,7.39,213.69,22v0C216.11,16.59,220.78,11.72,228.44,11.07Z" class="cls-11        path223" style=""></path>
        <path d="M225.81,28.36l7.38-.6a1.45,1.45,0,0,1,.93-1.58c.74-.34,22.55-1.69,22.55-1.69a6.33,6.33,0,0,1,.6,   1.05c4.27-4.33-5.7-16.4-28.83-14.47-7.66.65-12.33,5.52-14.76,10.93C209.18,36.54,225.81,28.36,225.81,28.36Z" class="cls-11 path226"       style=""></path>
        <path d="M300.23,50h-1.79a6.3,6.3,0,0,0-.92.4s2.37,6.7,1.72,9.94-2.15,8.43-2.79,11.89a18.9,18.9,0,0,0-.14,5.64l9-12.67Z"    class="cls-12 path277" style=""></path>
        <path d="M300.23,50l-.17-.5c-.63.17-1.18.34-1.62.5Z" class="cls-12 path278" style=""></path>
        <path d="M299.35,77.2a4.07,4.07,0,0,1,1.26.38c2.66-6.59,4.72-12.38,4.72-12.38l-9,12.67c.07.53.14.84.14.84S296.45,76.76,299.35,      77.2Z" class="cls-12 path299" style=""></path>
        <path d="M306.3,99.86c-.12-.47-.24-1-.36-1.45a.52.52,0,0,0,     0-.11c-.11-.47-.21-.94-.31-1.43l0-.16c-.22-1.07-.41-2.18-.58-3.37v-.11a79.42,79.42,0,0,1-.72-10.53v-.09c0-1.6,0-3.3.08-5.09a.61.61,      0,0,0,0-.14c0-.86.08-1.74.13-2.65v-.11c.05-1,.12-1.92.2-2.91,0,0,0-.09,0-.13q.1-1.33.24-2.73l.06-.6c.1-1,.2-2,.32-3,0,0-2.06,      5.79-4.72,12.38,1.68.85,1.65,2.73.57,4.16-1.22,1.64-.91,6.4-4.68,5.4a47.64,47.64,0,0,1-4.21,7.63,18.94,18.94,0,0,0,0,4.88c0,.12,0,     .23.06.35h14S306.31,99.91,306.3,99.86Z" class="cls-12 path295" style=""></path>
        <path d="M307.14,102.72a.65.65,0,0,0,0,.13c.11.35.23.69.34,1,   .05.15.1.29.16.44s.16.46.25.69.15.42.23.62.18.49.28.73.18.48.28.71l.09.22c.32.81.65,1.59,1,2.36h0a69.55,69.55,0,0,1,4,10.87c2,       7.87-1.4,19.11-5.54,28.58l.09.23-.45.66H329.8a9.62,9.62,0,0,1,.24-2.32,13.55,13.55,0,0,0,.17,2.32h2.6a5.22,5.22,0,0,1, .25-.59c1.5-3,1.5-9.51,0-13.62s-2.37-6,0-14.91c2.26-8.46,6.26-11.43,5.14-20.88H307l0,2.24C307,102.4,307.09,102.57,307.14,102.72Z"    class="cls-12 path246" style=""></path>
        <path d="M256.93,25.86s-17.55,2.36-21.45,18.8l-3.32,0s2-7.82-2.45-8.36c-4.21-.48-2.69,4.67-3.45,6.71s-4.36,5.06.17,6A7.44,7.44,0,0,     1,226,50h6.63l.42-.68s0,.26-.08.68h25l0-2.14c-1.25-2.74-1.41-5.48.13-7.15l.21-12a13.77,13.77,0,0,0-.9-2.9Z" class="cls-4 path211"    style=""></path>
        <path d="M257.27,25.54a6.33,6.33,0,0,0-.6-1.05s-21.81,1.35-22.55,1.69a1.45,1.45,0,0,0-.93,1.58l23.74-1.9A3.47,3.47,0,0,0,257.27,    25.54Z" class="cls-11 path227" style=""></path>
        <path d="M226.43,48.92c-4.53-.89-1-3.9-.17-6s-.76-7.19,3.45-6.71c4.45.54,2.45,8.36,2.45,8.36l3.32,0c3.9-16.44,21.45-18.8,   21.45-18.8l-23.74,1.9a3.13,3.13,0,0,0,.13.62c.36,1.2-1.7,2.46-2.24,3.18S220,37.19,219.72,39.2a7.22,7.22,0,0,0,.89,4.52,3.14,3.14,0,      0,1-.25,2.73,4.65,4.65,0,0,1-.1,3.55H226A7.44,7.44,0,0,0,226.43,48.92Z" class="cls-11 path217" style=""></path>
        <path d="M291.47,54.63c-2.7,3.14-2.58,3.57-2.81,5a2.81,2.81,0,0,1-.36,1,2.51,2.51,0,0,0,1.57-.39l-1.29,1.47a5.79,5.79,0,0,      1-.88-.37c-1.13,1-3,1.24-4.22,1.57-2.78.72-5.66.84-4.13,3.56,1.7,3.06.19,3.53-1.11,3.67-.95.11-.62,1.89-.49,2.44,0,0-2.05.27-1.75,       1.58s1.28,1.83.83,2.58-3.21,3-2.54,4.89,4.82,3.63,6.78,4.82a32.53,32.53,0,0,1,5.64,4.87h0l9.61-13.5a18.9,18.9,0,0,1,       .14-5.64c.64-3.46,2.15-8.66,2.79-11.89s-1.72-9.94-1.72-9.94a6.3,6.3,0,0,1,.92-.4h-.09A17.23,17.23,0,0,0,291.47,54.63Z"      class="cls-9 path184" style=""></path>
        <path d="M289.87,60.3a2.51,2.51,0,0,1-1.57.39,2.73,2.73,0,0,1-.6.71,5.79,5.79,0,0,0,.88.37Z" class="cls-9 path186" style=""></path>
        <path d="M332.81,150h-2.6a22.86,22.86,0,0,0,2.85,8.06S331.73,153.11,332.81,150Z" class="cls-12 path248" style=""></path>
        <path d="M306.09,153.86l-.14,8a46.67,46.67,0,0,0,5.35-4.62c1.43,4,2.44,6.92,2.73,8.12.73,2.92-1.79,7-5.83,11.29.78,1.26,5.35,9,4,   14.73,0,0,5.82-3.9,6.46-8.22s4.52-12.11,5.18-12.33-3.24,6.27,0,11c0,0-1.08-2.16,1.93-6.27s6.47-10.6,5.17-14.92A39.51,39.51,0,0,1,        329.8,150H307.92l-.08.11C307.27,151.4,306.68,152.65,306.09,153.86Z" class="cls-12 path247" style=""></path>
        <path d="M318.64,250c-4.56-8.05-10.23-18.17-13.79-25l-.44,25Z" class="cls-7 path130" style=""></path>
        <path d="M304.11,267.21l16.6-5.39,2.2,3.54c1.9-1.61,3-2.68,3-2.68s-3.18-5.51-7.24-12.68H304.41Z" class="cls-7 path132"      style=""></path>
        <path d="M324.38,300H346.9c-1.29-1.21-2.16-2-2.5-2.45-1.58-2-13.25-19.08-21.49-32.19a77.22,77.22,0,0,1-15.24,10.15Z" class="cls-6       path123" style=""></path>
        <path d="M358.49,350h24.9c-2.07-3.92-4.5-8.41-7.55-13.68a155.57,155.57,0,0,0-22.41-29.9l-.61,35.26Z" class="cls-6 path121"      style=""></path>
        <path d="M346.9,300H324.38l28.44,41.68.61-35.26C350.75,303.63,348.51,301.51,346.9,300Z" class="cls-6 path120" style=""></path>
        <path d="M363.94,358c.39.27.77.52,1.13.73,8.36,4.76,21.48,22.39,23.44,25.06-.33-2.47.6-4.91,4.2-6.43a10.32,10.32,0,0,1,     8.92.46c-8.38-7.74-11.15-14.39-18.24-27.81h-24.9Z" class="cls-6 path122" style=""></path>
        <path d="M392.71,377.35c-3.6,1.52-4.53,4-4.2,6.43l.25.35,13.4-4.34,0-1.48-.56-.5A10.32,10.32,0,0,0,392.71,377.35Z" class="cls-7     path324" style=""></path>
        <path d="M403.41,379.39l-1.25.4-.33,19c1,.39,2,.78,3,1.19h20.93a15.6,15.6,0,0,      0-1.74-1.89c-8.39-7.72-10.39-7.78-11.49-9.83s-5.66-6.1-8.63-9a11.29,11.29,0,0,0-1.67-1.16v.21C402.58,378.67,403,379,403.41,      379.39Z" class="cls-7 path315" style=""></path>
        <path d="M414.5,412.13a8,8,0,0,0,3,.43c5.54-.35,13.39-5.72,8.2-12.56H404.79C409.83,402.2,413.7,405.12,414.5,412.13Z" class="cls-7       path316" style=""></path>
        <polygon points="458.3 436.73 458.3 425.73 451.37 425.73 451.17 436.73 458.3 436.73" class="cls-13 polygon105" style=""></polygon>
        <polygon points="405.8 450 416.7 450 416.7 436.73 451.17 436.73 451.37 425.73 405.8 425.73 405.8 450" class="cls-13 polygon106"     style=""></polygon>
        <path d="M404.79,400h-3v0a14.2,14.2,0,0,1,1.38,1.78c1.82,2.92,6.35,8.7,11.31,10.33C413.7,405.12,409.83,402.2,404.79,400Z"       class="cls-7 path321" style=""></path>
        <path d="M388.51,383.78a11.82,11.82,0,0,0,2.13,5c1.75,2.47,6.14,6.16,9.37,9.35l1.82.68.33-19-13.4,4.34Z" class="cls-7 path317"      style=""></path>
        <path d="M403.41,379.39c-.42-.36-.83-.72-1.22-1.08l0,1.48Z" class="cls-7 path323" style=""></path>
        <path d="M404.79,400c-1-.41-1.94-.8-3-1.19l0,1.19Z" class="cls-7 path319" style=""></path>
        <path d="M403.19,401.8a14.2,14.2,0,0,0-1.38-1.78l-.23,12.68c6.85-.22,12.92-.57,12.92-.57h0C409.54,410.5,405,404.72,403.19,401.8Z"       class="cls-2 path91" style=""></path>
        <path d="M301.18,81.74c1.08-1.43,1.11-3.31-.57-4.16-1.28,3.19-2.71,6.56-4.11,9.56C300.27,88.14,300,83.38,301.18,81.74Z"     class="cls-9 path196" style=""></path>
        <path d="M292.29,94.77a13.16,13.16,0,0,1,3.58-7.83c.23.09.43.14.63.2,1.4-3,2.83-6.37,4.11-9.56a4.07,4.07,0,0,   0-1.26-.38c-2.9-.44-2.9,1.51-2.9,1.51s-.07-.31-.14-.84l-9.61,13.5h0a10.3,10.3,0,0,1,2.47,3.73C289.72,97.16,290.86,96.69,292.29,      94.77Z" class="cls-9 path200" style=""></path>
        <path d="M295.87,86.94a13.16,13.16,0,0,0-3.58,7.83,47.64,47.64,0,0,0,4.21-7.63C296.3,87.08,296.1,87,295.87,86.94Z" class="cls-12    path298" style=""></path>
        <path d="M306.26,143.82c.71,1.83,1.38,3.6,2,5.29,4.14-9.47,7.51-20.71,5.54-28.58a69.55,69.55,0,0,0-4-10.87c-.94.44-1.93.88-3,   1.32Z" class="cls-12 path270" style=""></path>
        <path d="M306.84,111c1-.44,2-.88,3-1.32-.33-.78-.66-1.56-1-2.37l-.09-.22c-.1-.23-.19-.47-.28-.71s-.19-.48-.28-.73-.16-.41-.23-.62-.17-.46-.25-.69-.11-.29-.16-.44c-.      11-.34-.23-.68-.34-1a.65.65,0,0,1,0-.13l-.15-.47Z" class="cls-12 path297" style=""></path>
        <path d="M307,102.25c-.08-.25-.16-.51-.23-.77l-.09-.29c-.11-.38-.22-.77-.32-1.17v0h-14c.73,4.38,4.33,7.45,2.29,15.17A75.76,75.76,0,     0,0,306.84,111Z" class="cls-12 path296" style=""></path>
        <path d="M306.35,100c.1.4.21.79.32,1.17l.09.29c.07.26.15.51.23.76l0-2.24h-.69Z" class="cls-12 path244" style=""></path>
        <path d="M257.81,55l.39-.06c2.57-.4,2.31-2.1.84-4.93h-1.15Z" class="cls-4 path210" style=""></path>
        <path d="M258.13,40.61c1.81-1.89.14-4.18.43-7.41a16.11,16.11,0,0,0-.29-4.54l-.21,12.05A.61.61,0,0,1,258.13,40.61Z" class="cls-4     path209" style=""></path>
        <path d="M220.36,46.45a3.14,3.14,0,0,0,.25-2.73,7.22,7.22,0,0,1-.89-4.52c.24-2,10.85-6.89,11.36-7.64s2.6-2,2.24-3.18a3.13,3.13,0,0,     1-.13-.62l-7.38.6S209.18,36.54,213.68,22a22.06,22.06,0,0,0-1.88,12.2c.74,3.89,2.89,10,4,15.8h4.41A4.65,4.65,0,0,0,220.36,46.45Z"     class="cls-11 path214" style=""></path>
        <path d="M237.39,59.37c6.26,1.7,7.18,3.6,8.72,4.65a6.49,6.49,0,0,0,6.95.48c.35,1.12.61,3.57-1.08,5,1.88-1.39,1.43-4.34,     1-5.41-.45-1.29.11-1.66,1.47-2.56s.38-2.51.38-2.51c1.89-1,.89-2.29.89-3s-.4-.64,2.05-1l.08-5h-25C232.74,52,232.59,58.07,237.39,      59.37Z" class="cls-4 path207" style=""></path>
        <path d="M259,50c-.17-.34-.37-.7-.58-1.08s-.37-.7-.53-1.06l0,2.14Z" class="cls-4 path208" style=""></path>
        <path d="M231.88,62.94,243,61.82a16.72,16.72,0,0,0,.11,7.45c2.39.57,5.34,1.31,7.37.9a3.64,3.64,0,0,0,1.53-.65c1.69-1.45,1.43-3.9,   1.08-5a6.49,6.49,0,0,1-6.95-.48c-1.54-1-2.46-2.95-8.72-4.65-4.8-1.3-4.65-7.34-4.46-9.37h-.34c-1.6,2.58-2.87,5.38-2.76,6.8C230,       59.17,229.25,59.76,231.88,62.94Z" class="cls-11 path220" style=""></path>
        <path d="M290.13,105.25c1.37,2.85,2.9,6.24,4.5,9.93h0c2-7.72-1.56-10.79-2.29-15.17h-4c.06.66.09,1.33.1,2C289,103,289.58,104.1,      290.13,105.25Z" class="cls-9 path198" style=""></path>
        <path d="M292.3,99.65a18.94,18.94,0,0,1,0-4.88c-1.43,1.92-2.57,2.39-3.11.34a10.3,10.3,0,0,0-2.47-3.73,45.21,45.21,0,0,1,1.64,   8.62h4C292.34,99.88,292.31,99.77,292.3,99.65Z" class="cls-9 path197" style=""></path>
        <path d="M287.29,100c-7.75-12.79-16.24-15.1-19-15.94-1.84-.57-6.48-1.59-11-3.19L257,100Z" class="cls-5 path83" style=""></path>
        <path d="M237.45,100H257l.33-19.13a27.73,27.73,0,0,1-7.92-4Z" class="cls-5 path84" style=""></path>
        <path d="M237.45,100l12-23.17c-3.07-2.54-5.35-4.35-6.31-7.43-.39-.12-.79-.26-1.18-.4-1.33-.29-2.37-.45-2.74-.16-1.09.85.26,1.25-4,      4.55s6.93,10.67,6.93,10.67-23.58-3.4-29.2-15.64c0,0,.76-1.62,1.59-3.65L212,70l8.41,30Z" class="cls-4 path68" style=""></path>
        <path d="M256.64,122c2.5-.53,5.05-1,7.56-1.28,2.78-1.17,6.29-2.46,9.75-3.89h0a60.69,60.69,0,0,0,    8.62-4.18l.18-.11.65-.42.25-.18.53-.37.27-.2L285,111l.23-.18c.2-.17.38-.34.56-.51L286,110l.32-.33.23-.27.26-.33.19-.27a3.73,3.73,0,      0,0,.23-.37c0-.08.1-.16.14-.24a3.81,3.81,0,0,0,.28-.62,15.59,15.59,0,0,0,.81-5.61c-.38-.7-.77-1.36-1.16-2H257Z" class="cls-5       path85" style=""></path>
        <path d="M287.64,116.23a39.19,39.19,0,0,0,7-1c-1.6-3.69-3.13-7.08-4.5-9.93-.55-1.15-1.11-2.23-1.68-3.25a15.59,15.59,0,0,1-.81,5.61,     3.81,3.81,0,0,1-.28.62c0,.08-.09.16-.14.24a3.73,3.73,0,0,1-.23.37l-.19.27-.26.33-.23.27L286,110l-.25.25c-.18.17-.36.34-.56.51L285,   111l-.52.42-.27.2-.53.37-.25.18-.65.42-.18.11a62.63,62.63,0,0,1-8.6,4.18C281.36,115.79,273.93,116.86,287.64,116.23Z" class="cls-9      path199" style=""></path>
        <path d="M306.26,143.82l.58-32.84a75.76,75.76,0,0,1-12.19,4.19v0C298.47,124,302.71,134.61,306.26,143.82Z" class="cls-12 path265"    style=""></path>
        <path d="M306.26,143.82c-3.55-9.21-7.79-19.78-11.62-28.61-.08.3-.15.59-.25.91-2.68,8.65-2.91,12.32,0,16.43,2.58,3.63,7.77,10.15,    6.53,17.45h5.23Z" class="cls-12 path275" style=""></path>
        <path d="M306.15,150h1.74l.39-.89c-.64-1.69-1.31-3.46-2-5.29Z" class="cls-12 path276" style=""></path>
        <path d="M298.46,161.34l3.14.84.06-.09a3,3,0,0,1,.25-4.36,25.92,25.92,0,0,0,4.2-5l0-2.7h-5.23a13.76,13.76,0,0,1-.81,2.87A21.35,     21.35,0,0,0,298.46,161.34Z" class="cls-12 path274" style=""></path>
        <path d="M307.84,150.11a.54.54,0,0,0,.05-.11h-1.74l0,2.7Z" class="cls-12 path273" style=""></path>
        <path d="M301.91,157.73a3,3,0,0,0-.25,4.36c1.32-2.23,2.87-5.05,4.43-8.23l0-1.16A25.92,25.92,0,0,1,301.91,157.73Z" class="cls-12     path259" style=""></path>
        <path d="M306.09,153.86c.59-1.21,1.18-2.46,1.75-3.75l-1.73,2.59Z" class="cls-12 path263" style=""></path>
        <path d="M314,165.34c-.29-1.2-1.3-4.15-2.73-8.12a46.67,46.67,0,0,1-5.35,4.62l-.3,17.32c.82-.78,1.61-1.55,2.35-2.32,     0-.14.05-.26.08-.41l.12.2C312.24,172.37,314.76,168.26,314,165.34Z" class="cls-12 path300" style=""></path>
        <path d="M301.77,162.23l-.17,0c-.75,1.26-1.43,2.33-2,3.16l-.48.68c.07.29.15.58.24.86,2.35-1.74,4.64-3.5,6.59-5l.14-8c-1.56,     3.18-3.11,6-4.43,8.23A1.71,1.71,0,0,0,301.77,162.23Z" class="cls-12 path242" style=""></path>
        <path d="M301.6,162.18l-3.14-.84a19.79,19.79,0,0,0,.66,4.68l.48-.68C300.17,164.51,300.85,163.44,301.6,162.18Z" class="cls-12    path262" style=""></path>
        <path d="M285.42,130.44c2.45,6.66-2.71,17.66-17.09,17.66-3.32,0-7.53,0-12.15,0l0,   1.84.31.09h44.46c1.24-7.3-3.95-13.82-6.53-17.45-2.91-4.11-2.68-7.78,0-16.43.1-.32.17-.61.25-.91v0a39.19,39.19,0,0,1-7,       1c-13.71.63-6.28-.44-13.69.63-3.46,1.43-7,2.72-9.75,3.89C273.38,119.71,282,121.11,285.42,130.44Z" class="cls-7 path155"    style=""></path>
        <path d="M300.11,152.87a13.76,13.76,0,0,0,.81-2.87H256.46l42,11.34A21.35,21.35,0,0,1,300.11,152.87Z" class="cls-7 path158"      style=""></path>
        <path d="M256.57,126.06l-.39,22c4.62,0,8.83,0,12.15,0,14.38,0,19.54-11,17.09-17.66-3.43-9.33-12-10.73-21.22-9.69l-1.5.65A20.23,     20.23,0,0,0,256.57,126.06Z" class="cls-9 path313" style=""></path>
        <path d="M243,61.82l-11.09,1.12c.42.51.92,1.08,1.54,1.74.93,1,4.66,2.95,8.52,4.32l1.14.27A16.72,16.72,0,0,1,243,61.82Z"     class="cls-11 path222" style=""></path>
        <path d="M231.88,62.94c-2.63-3.18-1.87-3.77-2-6.14-.11-1.42,1.16-4.22,2.76-6.8H226a15,15,0,0,1-5.82,5.94,10.79,10.79,0,0,0-4.17,    5c-.11.3-.21.61-.34.89a6.84,6.84,0,0,1,.34-.89,11.15,11.15,0,0,0,.42-1.61,42.77,42.77,0,0,1-1.89,5.45l0-.06Z" class="cls-4       path206" style=""></path>
        <path d="M220.14,55.94A15,15,0,0,0,226,50h-5.7a10.44,10.44,0,0,1-.68,1.53c.19,1.5-2.26,3.45-2.26,3.45-.06,2-.7,2.36-.7,2.36a5.76,   5.76,0,0,1-.23,2,11.15,11.15,0,0,1-.42,1.61A10.79,10.79,0,0,1,220.14,55.94Z" class="cls-11 path216" style=""></path>
        <path d="M216.39,59.32a5.76,5.76,0,0,0,.23-2s.64-.36.7-2.36c0,0,2.45-1.95,2.26-3.45a10.44,10.44,0,0,0,.68-1.53h-4.41A26.35,26.35,0,     0,1,216.39,59.32Z" class="cls-11 path213" style=""></path>
        <path d="M242.11,84.06s-11.22-7.38-6.93-10.67,2.93-3.7,4-4.55c.37-.29,1.41-.13,     2.74.16-3.86-1.37-7.59-3.31-8.52-4.32-.62-.66-1.12-1.23-1.54-1.74l-17.35,1.77,0,.06c-.83,2-1.59,3.65-1.59,3.65C218.53,80.66,242.11,      84.06,242.11,84.06Z" class="cls-4 path212" style=""></path>
        <path d="M208,126c5.45-.29,21.44-1,29.57-.34,4,.35,11.27-2,19.06-3.67l.38-22H237.45l-11.07,21.4-6-21.4H207l-.42,24.35Z"     class="cls-5 path82" style=""></path>
        <path d="M262.7,121.4l1.5-.65c-2.51.28-5.06.75-7.56,1.28l-.07,4A20.23,20.23,0,0,1,262.7,121.4Z" class="cls-9 path310"       style=""></path>
        <path d="M301.94,172.33c2,3,2.61,4.4,2.73,7.73l1-.9.3-17.32c-1.95,1.54-4.24,3.3-6.59,5A21.76,21.76,0,0,0,301.94,172.33Z"    class="cls-12 path301" style=""></path>
        <path d="M304.67,180.06c0,1.21,0,2.68,0,4.59a2.71,2.71,0,0,0,.94-.9l.08-4.59Z" class="cls-12 path240" style=""></path>
        <path d="M305.65,179.16l-.08,4.59c.71-1,1.69-3,2.43-6.91C307.26,177.61,306.47,178.38,305.65,179.16Z" class="cls-12 path239"     style=""></path>
        <path d="M290.77,159.26c.93,1.31,1.89,2.58,2.85,3.87l-.2.1a160.57,160.57,0,0,1-15.21,8.66l.5.76c3,4.53,3.67,3.88,6.9,3.23,1.43-.29,     6.36-3.6,11.54-7.37.74-.9,1.41-1.74,2-2.49a19.79,19.79,0,0,1-.66-4.68l-42-11.34h0Z" class="cls-7 path138" style=""></path>
        <path d="M299.36,166.88c-.73.55-1.47,1.1-2.21,1.63-4.77,5.85-12.42,14.5-11.82,22.93,3-.32,6.1-1.15,11.69-5.22a96.15,96.15,0,0,0,    7.65-6.16c-.12-3.33-.76-4.73-2.73-7.73A21.76,21.76,0,0,1,299.36,166.88Z" class="cls-4 path229" style=""></path>
        <polygon points="237.45 100 220.37 100 226.38 121.4 237.45 100" class="cls-4 polygon66" style=""></polygon>
        <path d="M289.29,200H262.51L269,213.57l-14,2.16L254.4,250h50l.44-25c-1.45-2.76-2.56-5-3.1-6.28C298.9,211.8,294.7,206.59,289.29,     200Z" class="cls-7 path131" style=""></path>
        <path d="M262.39,192.66A33.2,33.2,0,0,1,258,190.6l4.51,9.4h26.78l-.88-1.08a13,13,0,0,1-3.08-7.48,49.13,49.13,0,0,0-6.83.81A45.45,   45.45,0,0,1,262.39,192.66Z" class="cls-7 path135" style=""></path>
        <path d="M297.15,168.51c-5.18,3.77-10.11,7.08-11.54,7.37-3.23.65-3.88,1.3-6.9-3.23l-.5-.76c-7.35,3.7-14.92,6.91-22.62,9.93l-.06,    3.64L258,190.6a33.2,33.2,0,0,0,4.39,2.06,45.45,45.45,0,0,0,16.11-.41,49.13,49.13,0,0,1,6.83-.81C284.73,183,292.38,174.36,297.15,     168.51Z" class="cls-4 path232" style=""></path>
        <path d="M271.17,166c-4.16-1.66-6.18-2.21-8.93-2.16-2,0-4,.11-4,1.29,0,2.81,10.07,4,10.07,6.68,0,1.51,0,2.9-7.17.54A35.74,35.74,0,      0,1,255.8,170l-.21,11.87c7.7-3,15.27-6.23,22.62-9.93C275.78,168.13,276.24,168,271.17,166Z" class="cls-4 path235" style=""></path>
        <path d="M255.8,170a35.74,35.74,0,0,0,5.36,2.38c7.17,2.36,7.17,1,7.17-.54,0-2.7-10.07-3.87-10.07-6.68,0-1.18,2-1.25,4-1.29,2.75,0,      4.77.5,8.93,2.16,5.07,2,4.61,2.15,7,5.91a160.57,160.57,0,0,0,15.21-8.66l.2-.1c-1-1.29-1.92-2.56-2.85-3.87L256.46,150h-.31Z"          class="cls-7 path148" style=""></path>
        <polygon points="293.62 254.92 302.39 267.77 304.11 267.21 304.41 250 254.4 250 254.39 250.64 293.62 254.92" class="cls-7       polygon77" style=""></polygon>
        <path d="M304.11,267.21l-.05,3,3.61,5.3a77.22,77.22,0,0,0,15.24-10.15l-2.2-3.54Z" class="cls-7 path180" style=""></path>
        <path d="M307.67,275.51l-3.61-5.3-.13,7C305.22,276.68,306.46,276.11,307.67,275.51Z" class="cls-7 path181" style=""></path>
        <path d="M285,273.44l6.69,6.85a28.37,28.37,0,0,0,3.22-.39,45.32,45.32,0,0,0,9.06-2.69l.13-7-1.67-2.44Z" class="cls-7 path182"       style=""></path>
        <path d="M303.93,277.21l-.26,15.38,7.21,7.41h13.5l-16.71-24.49C306.46,276.11,305.22,276.68,303.93,277.21Z" class="cls-6 path125"    style=""></path>
        <path d="M330.62,320.38c4.68,5,13.79,17.17,22.1,26.66l.1-5.36L324.38,300h-13.5C319.48,308.83,327.63,317.22,330.62,320.38Z"      class="cls-6 path127" style=""></path>
        <path d="M363.94,358l-5.45-8h-3.12A56.87,56.87,0,0,0,363.94,358Z" class="cls-6 path128" style=""></path>
        <path d="M355.37,350h3.12l-5.67-8.32-.1,5.36C353.62,348.06,354.5,349.05,355.37,350Z" class="cls-6 path124" style=""></path>
        <path d="M291.65,280.29l12,12.3.26-15.38a45.32,45.32,0,0,1-9.06,2.69A28.37,28.37,0,0,1,291.65,280.29Z" class="cls-6 path126"    style=""></path>
        <polygon points="304.06 270.21 304.11 267.21 302.39 267.77 304.06 270.21" class="cls-7 polygon86" style=""></polygon>
        <path d="M352.72,347c-8.31-9.49-17.42-21.69-22.1-26.66-3-3.16-11.14-11.55-19.74-20.38h-7.34L303,329l15.06,21h34.58Z" class="cls-3       path106" style=""></path>
        <path d="M352.67,350h2.7c-.87-.95-1.75-1.94-2.65-3Z" class="cls-3 path108" style=""></path>
        <path d="M291.65,280.29c-7.46.5-17.24-1.19-26.3-3.84L282.23,300h21.31l.13-7.41Z" class="cls-3 path107" style=""></path>
        <path d="M303.54,300h7.34l-7.21-7.41Z" class="cls-3 path105" style=""></path>
        <path d="M302.39,267.77l-8.77-12.85-39.23-4.28-.18,10.29,11.14,15.52c9.06,2.65,18.84,4.34,26.3,3.84L285,273.44Z" class="cls-7       path169" style=""></path>
        <path d="M363.94,358a56.87,56.87,0,0,1-8.57-8h-2.7l-.82,47.07.3.41c-2.58-9.48,23.26-17.66,23.26-17.66s.72,1.05,2,2.64l2.27-1.35Z"       class="cls-3 path104" style=""></path>
        <polygon points="318.09 350 351.85 397.07 352.67 350 318.09 350" class="cls-3 polygon75" style=""></polygon>
        <path d="M352.15,397.48l25.3-15c-1.32-1.59-2-2.64-2-2.64S349.57,388,352.15,397.48Z" class="cls-3 path109" style=""></path>
        <path d="M400,398.13a61.13,61.13,0,0,1-8.24-3.57,52.4,52.4,0,0,1-14.32-12.1l-25.3,15c.24.89.47,1.72.69,2.52h49C401.27,399.41,   400.66,398.78,400,398.13Z" class="cls-2 path90" style=""></path>
        <path d="M401.79,400h-49c2.12,7.63,3.19,10.83,3.19,10.83h17.66a8,8,0,0,1,0-4.76c.86-2.15,3.87,5.63,10.77,6.51,3.36.43,10.6.33,      17.12.12l.23-12.68Z" class="cls-2 path89" style=""></path>
        <path d="M450.25,489.43H416.7v-19c4.5-2.4,9.3-2.9,14.1-2.9h16.3v-11.1H430.8c-4.9,0-9.6.3-14.1,2.9V450H405.8v50h44.27Z"      class="cls-13 path348" style=""></path>
        <polygon points="450.25 489.43 450.07 500 462.7 500 462.7 489.43 450.25 489.43" class="cls-13 polygon104" style=""></polygon>
        <path d="M359.3,434.53a30.33,30.33,0,0,1,21.8,9l7-8.2a40.51,40.51,0,0,0-28.7-11.8,42,42,0,0,0-8,.78l-.19,11.23A32.6,32.6,0,0,1,     359.3,434.53Z" class="cls-13 path346" style=""></path>
        <path d="M351.18,435.54l.19-11.23C337.43,427,325.65,436.74,321.15,450h11.78A27.82,27.82,0,0,1,351.18,435.54Z" class="cls-13     path347" style=""></path>
        <path d="M350.23,489.73c-11.49-3.56-20.33-13.66-20.33-26.5a29.41,29.41,0,0,1,3-13.23H321.15a37.07,37.07,0,0,0-1.95,11.93A39.52,     39.52,0,0,0,346.42,500h3.63Z" class="cls-13 path344" style=""></path>
        <path d="M389.8,488.53l-6.7-9.1a29.41,29.41,0,0,1-23.7,11.7,30.82,30.82,0,0,1-9.17-1.4L350.05,500h22.12A40.39,40.39,0,0,0,389.8,    488.53Z" class="cls-13 path343" style=""></path>
        <path d="M350,501a41.95,41.95,0,0,0,22.13-1H350.05Z" class="cls-13 path342" style=""></path>
        <path d="M346.42,500c1.18.39,2.39.72,3.62,1v-1Z" class="cls-13 path345" style=""></path>
        <polygon points="303.03 329 303.54 300 282.24 300 303.03 329" class="cls-3 polygon76" style=""></polygon>
        <path d="M237.58,125.7c-8.13-.7-24.12,0-29.57.34l11.91,14.1L249,148l1.85,0a31.18,31.18,0,0,0-.43-4.56c-1.21-6.37,2-12.94,   6.11-17.4l.07-4C248.85,123.7,241.55,126.05,237.58,125.7Z" class="cls-9 path309" style=""></path>
        <path d="M256.57,126.06c-4.14,4.46-7.32,11-6.11,17.4a31.18,31.18,0,0,1,.43,4.56l5.29,0Z" class="cls-9 path314" style=""></path>
        <path d="M256.15,149.92l-5.25-1.42c0,.48,0,1,0,1.5h5.23Z" class="cls-7 path147" style=""></path>
        <path d="M255.8,170l.35-19.95h-5.23a135.37,135.37,0,0,1-1.36,17.72C251.28,167.51,253.3,168.64,255.8,170Z" class="cls-7 path145"     style=""></path>
        <path d="M256.15,149.91l0-1.84-5.29,0c0,.16,0,.32,0,.48Z" class="cls-7 path152" style=""></path>
        <polygon points="207.01 100 220.37 100 211.96 70.04 207.37 79.55 207.01 100" class="cls-5 polygon69" style=""></polygon>
        <path d="M212,70s-1.71-.17-4.41-.18l-.11,6.34Z" class="cls-5 path77" style=""></path>
        <polygon points="207.37 79.54 211.95 70.03 207.43 76.19 207.37 79.54" class="cls-5 polygon73" style=""></polygon>
        <polygon points="198.82 97.28 207.37 79.54 207.43 76.19 191.92 97.28 192.3 100 198.82 100 198.82 97.28" class="cls-5 polygon72"     style=""></polygon>
        <polygon points="198.82 100 207.01 100 207.37 79.55 198.82 97.28 198.82 100" class="cls-5 polygon70" style=""></polygon>
        <path d="M249,148l-29.11-7.85-13.44-9.91-.24,14a53.23,53.23,0,0,1,6.79,1.33C219.52,147.21,235.05,147.79,249,148Z" class="cls-9      path308" style=""></path>
        <path d="M249.18,184.28a32.13,32.13,0,0,0,6.28,4.86l.07-3.68-1.47-3.05Z" class="cls-4 path233" style=""></path>
        <path d="M258,190.6l-2.47-5.14-.07,3.68C256.34,189.68,257.2,190.17,258,190.6Z" class="cls-4 path234" style=""></path>
        <path d="M249.56,167.72A119,119,0,0,1,247,181.34a11.86,11.86,0,0,0,1.36,2,20.87,20.87,0,0,0,5.18-2.06l.54,1.12,1.53-.59L255.8,      170C253.3,168.64,251.28,167.51,249.56,167.72Z" class="cls-4 path236" style=""></path>
        <path d="M254.06,182.41l-.54-1.12a20.87,20.87,0,0,1-5.18,2.06c.26.32.54.62.84.93Z" class="cls-4 path237" style=""></path>
        <path d="M255.53,185.46l.06-3.64-1.53.59Z" class="cls-4 path231" style=""></path>
        <path d="M248.78,167.92c-.89.36-3.23,4.09-2.56,11a6.59,6.59,0,0,0,.76,2.44,119,119,0,0,0,2.58-13.62A3.09,3.09,0,0,0,248.78,     167.92Z" class="cls-4 path230" style=""></path>
        <path d="M250.92,150c0-.52,0-1,0-1.5L249,148c-14-.2-29.51-.78-36-2.47a53.23,53.23,0,0,0-6.79-1.33l-.1,5.81Z" class="cls-5 path76"       style=""></path>
        <path d="M255.46,189.14,255.27,200h7.24L258,190.6C257.2,190.17,256.34,189.68,255.46,189.14Z" class="cls-7 path144" style=""></path>
        <polygon points="255 215.73 269.03 213.57 262.51 200 255.28 200 255 215.73" class="cls-7 polygon81" style=""></polygon>
        <path d="M250.89,148,249,148l1.86.51C250.9,148.34,250.89,148.18,250.89,148Z" class="cls-5 path86" style=""></path>
        <path d="M246.26,183.88c.25-.79.49-1.64.72-2.54a6.59,6.59,0,0,1-.76-2.44c-.67-6.89,1.67-10.62,2.56-11a3.09,3.09,0,0,1,      .78-.2A135.37,135.37,0,0,0,250.92,150H206.14l-.56,32C226.11,186.55,239.07,185.52,246.26,183.88Z" class="cls-5 path78"        style=""></path>
        <path d="M157.12,93.24l0,2.34a29.12,29.12,0,0,0,4.3,4.42H192.3l-.38-2.72,15.51-21.09.11-6.34c-5.89,0-16.5.77-24.38,5.89C171.68,     83.21,170,85.79,164.8,86.65c-.28,0-.63.11-1,.19A43.39,43.39,0,0,1,157.12,93.24Z" class="cls-5 path71" style=""></path>
        <polygon points="198.82 115.15 206.59 124.35 207.01 100 198.82 100 198.82 115.15" class="cls-5 polygon71" style=""></polygon>
        <path d="M208,126l-1.45.08-.08,4.11,13.44,9.91Z" class="cls-9 path311" style=""></path>
        <path d="M249.18,184.28l-2.54.95-1,.38c-.79,2.13-1.62,3.66-2.48,4.26l-6.28-.7c-2,.84-4,1.7-6,2.56a93.3,93.3,0,0,1-25.39-6l-.18,     9.84a16.57,16.57,0,0,1,0,4.4h49.88l.19-10.86A32.13,32.13,0,0,1,249.18,184.28Z" class="cls-7 path143" style=""></path>
        <path d="M247,181.34c-.23.9-.47,1.75-.72,2.54.75-.17,1.45-.35,2.08-.53A11.86,11.86,0,0,1,247,181.34Z" class="cls-7 path146"     style=""></path>
        <path d="M245.66,185.61c-2.94,1.12-5.86,2.32-8.76,3.56l6.28.7C244,189.27,244.87,187.74,245.66,185.61Z" class="cls-3 path67"     style=""></path>
        <path d="M245.66,185.61c.21-.54.4-1.11.6-1.73-7.19,1.64-20.15,2.67-40.68-1.91l-.06,3.66,31.38,3.54C239.8,187.93,242.72,186.73,      245.66,185.61Z" class="cls-5 path81" style=""></path>
        <path d="M249.18,184.28c-.3-.31-.58-.61-.84-.93-.63.18-1.33.36-2.08.53-.2.62-.39,1.19-.6,1.73l1-.38Z" class="cls-7 path150"     style=""></path>
        <path d="M205.39,200c0,.33-.09.65-.14,1L205,217.7l1.86,5.46L255,215.73l.27-15.73Z" class="cls-7 path142" style=""></path>
        <path d="M209.58,231.23s-2.08,5.84-5.11,14.27l-.05,3c1.28.52,2.6,1,4,1.53h38l-.18-.25,2.3.25h5.9l.6-34.27-48.18,7.43Z"      class="cls-7 path136" style=""></path>
        <polygon points="254.39 250.64 248.5 250 246.38 250 254.21 260.93 254.39 250.64" class="cls-7 polygon84" style=""></polygon>
        <path d="M254,272.49a109.42,109.42,0,0,0,11.34,4l-11.14-15.52Z" class="cls-7 path134" style=""></path>
        <polygon points="254.39 250.64 254.4 250 248.5 250 254.39 250.64" class="cls-7 polygon80" style=""></polygon>
        <path d="M246.38,250h-38c13.55,5,29.72,9.12,31.8,13.53,1.25,2.68,6.67,6,13.84,9l.2-11.56Z" class="cls-7 path139" style=""></path>
        <polygon points="291.2 425.73 291.2 450 300.92 450 301.34 425.73 291.2 425.73" class="cls-13 polygon97" style=""></polygon>
        <polygon points="300.92 450 291.2 450 291.2 482.73 263.7 450 250.91 450 250.88 451.76 291.13 500 300.05 500 300.92 450"     class="cls-13 polygon102" style=""></polygon>
        <polygon points="301.34 425.73 300.92 450 302.2 450 302.2 425.73 301.34 425.73" class="cls-13 polygon99" style=""></polygon>
        <polygon points="300.92 450 300.05 500 302.2 500 302.2 450 300.92 450" class="cls-13 polygon98" style=""></polygon>
        <polygon points="250.91 450 263.7 450 251.17 435.1 250.91 450" class="cls-13 polygon103" style=""></polygon>
        <polygon points="243.3 425.73 229.2 425.73 237.9 436.23 237.9 450 248.6 450 248.6 449.03 249.41 450 250.91 450 251.17 435.1 243.3       425.73" class="cls-13 polygon100" style=""></polygon>
        <path d="M230.91,191.73c2-.86,4-1.72,6-2.56l-31.38-3.54v.13A93.3,93.3,0,0,0,230.91,191.73Z" class="cls-7 path149" style=""></path>
        <path d="M206.14,126.14l.42,0,0-1.77-7.77-9.2V100H192.3l2.63,18.88C200.44,121.63,204.68,124,206.14,126.14Z" class="cls-5 path87"    style=""></path>
        <path d="M206.59,124.35l0,1.77L208,126Z" class="cls-5 path88" style=""></path>
        <path d="M206.14,126.14c-1.46-2.1-5.7-4.51-11.21-7.26l.44,3.17,11.11,8.18.08-4.11Z" class="cls-9 path312" style=""></path>
        <path d="M156.85,109.15c2.52,2.21,5.45,4.75,8.57,7.44l19.19-2.37s2.17,10.64,3.77,21.81c4.22,3.47,7.34,5.95,8.29,6.47,2.78,1.55,     4.92,1.1,9.57,1.69l.24-14-11.11-8.18-.44-3.17c-9.17-4.59-21.85-10.14-31-16.86-.93-.69-1.78-1.36-2.55-2H157Z" class="cls-9 path304"       style=""></path>
        <rect width="10.7" height="50" x="237.9" y="450" class="cls-13 rect3" style=""></rect>
        <path d="M206.24,144.19c-4.65-.59-6.79-.14-9.57-1.69-.95-.52-4.07-3-8.29-6.47.69,4.83,1.28,9.76,1.54,14h16.22Z" class="cls-5    path73" style=""></path>
        <path d="M194.93,118.88,192.3,100H161.38c.77.66,1.62,1.33,2.55,2C173.08,108.74,185.76,114.29,194.93,118.88Z" class="cls-5 path72"       style=""></path>
        <path d="M206.14,150H189.92c.09,1.48.14,2.87.14,4.13a211.8,211.8,0,0,0,1.4,24.12c5.07,1.53,9.76,2.75,14.12,3.72Z" class="cls-5      path74" style=""></path>
        <path d="M205.52,185.63l.06-3.66c-4.36-1-9.05-2.19-14.12-3.72,0,0,4.66,3.73,13.61,7.33Z" class="cls-5 path80" style=""></path>
        <path d="M205.07,185.58c-8.95-3.6-13.61-7.33-13.61-7.33l2.06,6Z" class="cls-3 path66" style=""></path>
        <path d="M205.34,195.6l.18-9.84-.45-.18-11.55-1.3.15.42C201.3,186.74,204.6,190.78,205.34,195.6Z" class="cls-7 path141"      style=""></path>
        <path d="M165.42,116.59c7.75,6.68,16.6,14.2,23,19.44-1.6-11.17-3.77-21.81-3.77-21.81Z" class="cls-9 path303" style=""></path>
        <path d="M205.34,195.6c-.74-4.82-4-8.86-11.67-10.9L198.9,200h6.37Z" class="cls-7 path172" style=""></path>
        <path d="M198.9,200l3.4,9.94a34.59,34.59,0,0,0,2.95-9l0-1Z" class="cls-7 path174" style=""></path>
        <path d="M205,217.7l.29-16.72a34.59,34.59,0,0,1-2.95,9Z" class="cls-7 path140" style=""></path>
        <path d="M157.08,95.58l0-2.34c-.38.28-.76.53-1.13.76C156.31,94.51,156.67,95,157.08,95.58Z" class="cls-5 path69" style=""></path>
        <polygon points="193.52 184.28 191.46 178.25 188.89 183.75 193.52 184.28" class="cls-3 polygon74" style=""></polygon>
        <path d="M163.77,86.84a39.54,39.54,0,0,0,3-3.78c2.16-3.46-4.09-7.74-7.75-9.9a16.13,16.13,0,0,1-1.49-1l-.28,16.12C159.92,87.66,      162.24,87.14,163.77,86.84Z" class="cls-4 path325" style=""></path>
        <path d="M120.64,98.36c1.62-1.44,9.93-3.54,12.66-4.21a16.42,16.42,0,0,1,2.07-4.62c2.28-2.6,4.89.54,7.11,1.93a17.2,17.2,0,0,     1-.52-9.68c2.16-8.19,13.35,2.15,13.35,2.15A7.14,7.14,0,0,0,154.14,89l3.07-.72.28-16.12c-1.65-1.22-1.24-1.24-7.77-.53-8,      .87-5.32.36-10.49,1.8s-6.31,1.72-12.63,7.46-12.35,10.63-16.08,16.66L109,100h9.42C119.49,99.26,120.28,98.68,120.64,98.36Z"      class="cls-4 path329" style=""></path>
        <path d="M154.14,89a7.14,7.14,0,0,1,1.17-5.09S144.12,73.59,142,81.78a17.2,17.2,0,0,0,.52,9.68c.18.1.34.2.51.28C146.49,90.88,150.48,     89.9,154.14,89Z" class="cls-4 path336" style=""></path>
        <path d="M157.12,93.24a43.39,43.39,0,0,0,6.65-6.4c-1.53.3-3.85.82-6.56,1.46Z" class="cls-4 path332" style=""></path>
        <path d="M157.12,93.24l.09-4.94-3.07.72A12,12,0,0,0,156,94C156.36,93.77,156.74,93.52,157.12,93.24Z" class="cls-4 path331"       style=""></path>
        <path d="M161.38,100a29.12,29.12,0,0,1-4.3-4.42L157,100Z" class="cls-9 path305" style=""></path>
        <path d="M143,91.75c2.34,1.15,4.67,3.16,9.4,3.46A6.5,6.5,0,0,0,156,94a12,12,0,0,1-1.85-5c-3.66.88-7.65,1.86-11.15,2.72Z"    class="cls-4 path337" style=""></path>
        <path d="M193.67,184.7a38.08,38.08,0,0,0-4.79-.93L181.28,200H198.9Z" class="cls-7 path178" style=""></path>
        <path d="M192.35,225.39a80.23,80.23,0,0,0,10-15.45L198.9,200H181.28l0,.08a22.65,22.65,0,0,0,2.08,7.9c3.27,7,3.49,12.13,3.78,    17.13l1.76.82Z" class="cls-7 path179" style=""></path>
        <polygon points="206.82 223.16 204.96 217.7 204.86 223.46 206.82 223.16" class="cls-7 polygon83" style=""></polygon>
        <path d="M192.35,225.39l12.51-1.93.1-5.76-2.66-7.76A80.23,80.23,0,0,1,192.35,225.39Z" class="cls-7 path168" style=""></path>
        <path d="M204.47,245.5c3-8.43,5.11-14.27,5.11-14.27l-2.76-8.07-2,.3Z" class="cls-7 path164" style=""></path>
        <path d="M204.86,223.46l-12.51,1.93c-.79,1-1.29,1.53-1.29,1.53l-2.2-1-1.7.26a34.73,34.73,0,0,0,2.61,12.36c1.53,3.62,7,6.74,13.77,   9.56l.93-2.61Z" class="cls-7 path165" style=""></path>
        <path d="M188,183.65l-2.08-.23a27.24,27.24,0,0,0-4.69,16.24c2.92-6.15,5.68-11.9,7.6-15.9Z" class="cls-7 path170" style=""></path>
        <path d="M191.06,226.92s.5-.55,1.29-1.53l-3.49.54Z" class="cls-7 path177" style=""></path>
        <path d="M152.4,95.21c-4.73-.3-7.06-2.31-9.4-3.46h0l-.38.1A28.53,28.53,0,0,0,147.1,     100H157l.08-4.42c-.41-.54-.77-1.07-1.09-1.58A6.5,6.5,0,0,1,152.4,95.21Z" class="cls-9 path306" style=""></path>
        <path d="M147.1,100a22.54,22.54,0,0,0,1.76,2c.83.83,3.85,3.52,8,7.13L157,100Z" class="cls-9 path307" style=""></path>
        <path d="M181.05,200l.16-.34a27.24,27.24,0,0,1,4.69-16.24c-16.17-1.79-25-2.38-30.32-2L155.26,200Z" class="cls-6 path114"    style=""></path>
        <path d="M181.24,200.08,173,217.79c4.61,2.74,10.37,5.55,14.15,7.32-.29-5-.51-10.12-3.78-17.13A22.65,22.65,0,0,1,181.24,200.08Z"     class="cls-6 path119" style=""></path>
        <path d="M159,250c2.91-8.08,6-14.5,8.61-20.8,2.38-5.8-1.09-16.06-1.09-16.06a30.27,30.27,0,0,0,6.23,4.54c2.5-5.41,5.47-11.71,    8.3-17.68H155.26l-.83,47.26c.34,1,.65,1.91.93,2.74Z" class="cls-6 path113" style=""></path>
        <path d="M134.11,94l.07,0c1.22.36,2.52,2.8,3.48,6.06h9.44a28.53,28.53,0,0,1-4.49-8.16Z" class="cls-5 path75" style=""></path>
        <path d="M148.86,102a22.54,22.54,0,0,1-1.76-2h-9.44c2.24,7.6,2.64,19.69-4.16,20.53l23.2-2.86.15-8.52C152.71,105.54,149.69,102.85,   148.86,102Z" class="cls-5 path79" style=""></path>
        <path d="M156.85,109.15l-.15,8.52,8.72-1.08C162.3,113.9,159.37,111.36,156.85,109.15Z" class="cls-5 path70" style=""></path>
        <polygon points="173.8 424.43 177.9 433.63 169.97 450 181.98 450 183.4 446.93 184.99 450 197.9 450 185.8 424.43 173.8 424.43"       class="cls-13 polygon93" style=""></polygon>
        <polygon points="200.22 489.43 204.6 489.43 209.35 500 221.55 500 200.8 456.13 200.22 489.43" class="cls-13 polygon91"      style=""></polygon>
        <path d="M181.9,489.43h18.31l.59-33.3L197.9,450H185l14.71,28.43H185.9c-10.2,0-16.3,1.9-19,4.2L182,450H170l-19.79,40.87L150,     500h7.56l1.72-3.17C161,493.73,168.3,489.43,181.9,489.43Z" class="cls-13 path341" style=""></path>
        <path d="M189.77,238.55a34.73,34.73,0,0,1-2.61-12.36l-19.55,3L159.06,250h43.8l.68-1.89C196.75,245.29,191.3,242.17,189.77,238.55Z"       class="cls-3 path96" style=""></path>
        <path d="M187.1,225.11c-3.78-1.77-9.54-4.58-14.15-7.32l-5.34,11.41,19.55-3Z" class="cls-3 path103" style=""></path>
        <path d="M184.68,300c4.15-11,12.33-33.7,18.18-50h-43.8l-.5,1.22a139.75,139.75,0,0,0-4.47,15.65L153.51,300Z" class="cls-3 path93"    style=""></path>
        <path d="M181.24,200.08V200h-.19c-2.83,6-5.8,12.27-8.3,17.68l.2.11Z" class="cls-6 path116" style=""></path>
        <path d="M159,250h.06l8.55-20.8C165,235.5,161.91,241.92,159,250Z" class="cls-6 path115" style=""></path>
        <path d="M184.68,300H153.51l-.87,50h23.68c2.09-20.16,4.5-40.37,6.13-44.25C182.89,304.7,183.67,302.69,184.68,300Z" class="cls-3      path99" style=""></path>
        <path d="M152.26,371.66a10.94,10.94,0,0,1,2.36-.26c8.49,0,15.36,10,15.36,22.3,0,.19,0,.37,0,.56.92.11,1.66.21,2.15.3,0,0,1.9-22.25,     4.2-44.56H152.64Z" class="cls-3 path98" style=""></path>
        <path d="M154.62,371.4a10.94,10.94,0,0,0-2.36.26l-.36,20.91c6.7.56,14.12,1.22,18.07,1.69,0-.19,0-.37,0-.56C170,381.38,163.11,371.4,     154.62,371.4Z" class="cls-3 path101" style=""></path>
        <path d="M151.9,392.57l-.13,7.43h17.58a32.24,32.24,0,0,0,.62-5.74C166,393.79,158.6,393.13,151.9,392.57Z" class="cls-2 path63"       style=""></path>
        <path d="M151.5,415.53a10.58,10.58,0,0,0,3.12.47c7,0,12.86-6.75,14.73-16H151.77Z" class="cls-2 path62" style=""></path>
        <path d="M154.09,266.87c-.17.74-.34,1.48-.5,2.25-3.19,15.27-6.67,22.35-7.56,30.88h7.48Z" class="cls-3 path94" style=""></path>
        <path d="M137.66,100h-2.74c1,5.57,1.75,14-1.42,20.53C140.3,119.69,139.9,107.6,137.66,100Z" class="cls-10 path204" style=""></path>
        <path d="M134.18,93.94l-.07,0-.61.15a51,51,0,0,1,1.42,5.89h2.74C136.7,96.74,135.4,94.3,134.18,93.94Z" class="cls-10 path205"    style=""></path>
        <path d="M155.58,181.38c-6.36.39-7.81,2.1-11,4.62-3.55,2.79-4.4,7.52-3.64,14h14.35Z" class="cls-6 path110" style=""></path>
        <path d="M140.91,200a107.52,107.52,0,0,0,3.64,16.15c2.76,9.67,7.12,22.87,9.88,31.11l.83-47.26Z" class="cls-6 path111"       style=""></path>
        <path d="M155.36,250c1,3,1.68,4.92,1.68,4.92l1.52-3.7c.14-.42.29-.81.44-1.22Z" class="cls-6 path112" style=""></path>
        <polygon points="150.18 490.87 145.76 500 150.02 500 150.18 490.87" class="cls-13 polygon94" style=""></polygon>
        <rect width="44.27" height="0.33" x="405.8" y="500" class="cls-13 rect5" style=""></rect>
        <path d="M187.1,225.11l.06,1.08,1.7-.26Z" class="cls-7 path166" style=""></path>
        <path d="M203.54,248.11l.88.36.05-3Z" class="cls-7 path137" style=""></path>
        <polygon points="250.88 451.76 250.91 450 249.41 450 250.88 451.76" class="cls-13 polygon96" style=""></polygon>
        <path d="M401.79,400h0l0-1.19-1.82-.68C400.66,398.78,401.27,399.41,401.79,400Z" class="cls-7 path322" style=""></path>
        <path d="M288.3,60.69a6.11,6.11,0,0,1-2.88-1.21,6.29,6.29,0,0,0,2.28,1.92A2.73,2.73,0,0,0,288.3,60.69Z" class="cls-8 path183"       style=""></path>
        <path d="M233,49.32l-.42.68h.34C233,49.58,233,49.32,233,49.32Z" class="cls-11 path221" style=""></path>
        <path d="M134.92,100a51,51,0,0,0-1.42-5.89l.61-.15-.81.19c-.58,1.74-1.21,3.77-1.9,5.85Z" class="cls-10 path201" style=""></path>
        <path d="M153.51,300H146a39.78,39.78,0,0,0-.19,5.75c.21,5.52-1.54,25.16-3.42,44.25h10.22Z" class="cls-3 path97" style=""></path>
        <path d="M152.26,371.66l.38-21.66H142.42c-2.08,21.06-4.33,41.45-4.33,41.45l1.26.1C140,381.38,145.39,373.2,152.26,371.66Z"       class="cls-3 path100" style=""></path>
        <path d="M139.35,391.55c2.23.17,7.15.56,12.55,1l.36-20.91C145.39,373.2,140,381.38,139.35,391.55Z" class="cls-3 path102"     style=""></path>
        <path d="M151.9,392.57c-5.4-.46-10.32-.85-12.55-1,0,.71-.08,1.42-.08,2.15a31.37,31.37,0,0,0,.63,6.3h11.87Z" class="cls-2 path65"    style=""></path>
        <path d="M139.9,400c1.59,7.82,6,13.86,11.6,15.53l.27-15.53Z" class="cls-2 path64" style=""></path>
        <path d="M134.92,100H131.4c-1.62,4.88-3.59,10-6.23,12-5.18,4-8.84,8.73-14.65,7.66a10.65,10.65,0,0,1-3.58-1.41,7.31,7.31,0,0,0,4.88,     2.48c8,.87,12,1,21.68-.22C136.67,114,136,105.57,134.92,100Z" class="cls-10 path202" style=""></path>
        <path d="M133.3,94.15c-2.73.67-11,2.77-12.66,4.21-.36.32-1.15.9-2.2,1.64h13C132.09,97.92,132.72,95.89,133.3,94.15Z" class="cls-4    path335" style=""></path>
        <path d="M125.17,112c2.64-2,4.61-7.14,6.23-12h-13c-3.09,2.16-8.39,5.65-11.58,7.74L106.68,118l.26.31a10.65,10.65,0,0,0,3.58,     1.41C116.33,120.75,120,116,125.17,112Z" class="cls-4 path334" style=""></path>
        <path d="M118.44,100H109c-.76,1.23-1.46,2.39-2.08,3.48l-.08,4.26C110.05,105.65,115.35,102.16,118.44,100Z" class="cls-4 path326"     style=""></path>
        <path d="M106.68,118l.18-10.22-2.65,1.72v0C104.2,109.8,104.12,114.71,106.68,118Z" class="cls-4 path333" style=""></path>
        <path d="M106.94,103.48a29.85,29.85,0,0,0-2.73,6l2.65-1.72Z" class="cls-4 path328" style=""></path>
        <path d="M104.2,109.49a16.18,16.18,0,0,0-.57,2.53,6.25,6.25,0,0,0,3.05,6.08V118C104.12,114.71,104.2,109.8,104.2,109.49Z"    class="cls-4 path327" style=""></path>
        <path d="M106.3,425.73h-5l-.19,11h5.28A22.57,22.57,0,0,1,127.59,450h11.84C134.66,435.93,122.12,425.73,106.3,425.73Z" class="cls-13      path339" style=""></path>
        <path d="M130.4,490.43a41.26,41.26,0,0,0,11.1-27.7A39.59,39.59,0,0,0,139.43,450H127.59a31.54,31.54,0,0,1,2.91,13.53c0,13.9-9.4,     25.9-23.9,25.9h-6.4L100,500h12.19C119.32,499.1,125,496.28,130.4,490.43Z" class="cls-13 path340" style=""></path>
        <polygon points="101.12 436.73 101.31 425.73 68.3 425.73 73.1 436.73 79 436.73 79 450 89.7 450 89.7 436.73 101.12 436.73"       class="cls-13 polygon89" style=""></polygon>
        <polygon points="100.2 489.43 89.7 489.43 89.7 450 79 450 79 500 100.02 500 100.2 489.43" class="cls-13 polygon88"      style=""></polygon>
        <path d="M307.92,150l.45-.66-.09-.23-.39.89Z" class="cls-12 path251" style=""></path>
</svg>