<svg xmlns="http://www.w3.org/2000/svg" viewBox="0 0 508.8 501.7">
    <defs>
        <style>
            .cls-2{fill:#966544;stroke: #966544;}.cls-3{fill:#d81a5a;stroke: #d81a5a;}.cls-4{fill:#f42762;stroke: #f42762;}.cls-5{fill:#ddb983;stroke: #ddb983;}.cls-6{fill:#7a5646;stroke: #7a5646;}.cls-7{fill:#f4f4f4;stroke: #f4f4f4;}.cls-8{fill:#af794e;stroke: #af794e;}.cls-9{fill:#151514;stroke: #151514;}.cls-10{fill:#523c2e;stroke: #523c2e;}.cls-11{fill:#fff;stroke: #fff;}.cls-12{fill:#f98aaf;stroke: #f98aaf;}.cls-13{fill:#e5bfa5;stroke: #e5bfa5;}.cls-14{fill:#582a1b;stroke: #582a1b;}.cls-15{fill:#f5d8a9;stroke: #f5d8a9;}.cls-16{fill:#f7e7da;stroke: #f7e7da;}.cls-17{fill:#91918e;stroke: #91918e;}.cls-18{fill:#2d2d2c;stroke: #2d2d2c;}.cls-19{fill:#a5a5a4;stroke: #a5a5a4;}.cls-20{fill:#3d3d3c;stroke: #3d3d3c;}.cls-21{fill:#f9efe8;stroke: #f9efe8;}.cls-22{fill:#f2d3a5;stroke: #f2d3a5;}.cls-23{fill:#f1a58d;stroke: #f1a58d;}.cls-24{fill:#f7decb;stroke: #f7decb;}.cls-25{fill:#e5c08f;stroke: #e5c08f;}.cls-26{fill:#eac896;stroke: #eac896;}.cls-27,.cls-28{opacity:0.1;}.cls-28{fill:#020202;stroke: #020202;}.cls-29{fill:#ef848c;stroke: #ef848c;}
        </style>
    </defs>
    <title>
        Fashion
    </title>
<path d="M375.06,82.34a26.92,26.92,0,0,0-.24,14.07h0a15.16,15.16,0,0,1,1,3.59H392.9c-.25-4-.51-7.22-.78-9-1.3-8.43-7.14-12.33-12.54-13.41-.58-.11-1.24-.22-1.93-.32A12.37,12.37,0,0,0,376,79.89,18.19,18.19,0,0,0,375.06,82.34Z" class="cls-15 path145" style=""></path>
<path d="M362.44,78.31c-1.78.52-3.48,1.06-5.05,1.57L357,100h18a17.38,17.38,0,0,0-.27-3.59h0a26.92,26.92,0,0,1,.24-14.07,18.19,18.19,0,0,1,1-2.45,12.37,12.37,0,0,1,1.63-2.62h0L372,76.39h0l-1.27-.2-1.21.27h0c-1.86.42-3.74.91-5.57,1.42Z" class="cls-4 path163" style=""></path>
<path d="M362.44,78.31l1.5-.43c1.83-.51,3.71-1,5.57-1.42-2.38-.2-4.8-.4-7-.65L361,75.64c-1-.13-1.86-.26-2.68-.41l-.82-.16-.08,4.81C359,79.37,360.66,78.83,362.44,78.31Z" class="cls-15 path153" style=""></path>
<path d="M359,51.5c-.35.8-.73,1.57-1.14,2.32l-.37,21.25.82.16c.33-.46.64-.92.91-1.37A22.87,22.87,0,0,0,361,75.64l1.51.17c2.23.25,4.65.45,7,.65h0l1.21-.27,1.27.2a27.25,27.25,0,0,1-3.8-4.77,80.25,80.25,0,0,0,13,2.38,46.46,46.46,0,0,1-11.7-15.64c3.49,3.55,8.83,6.41,17,6.21,0,0-9.93-4.7-16.56-13.07-.39-.49-.76-1-1.12-1.5h-9.18C359.38,50.5,359.19,51,359,51.5Z" class="cls-2 path4" style=""></path>
<path d="M349.83,62.23h0S351.31,73.7,357.12,75l.35.07.37-21.25A20.62,20.62,0,0,1,349.83,62.23Z" class="cls-2 path6" style=""></path>
<path d="M360.3,47.9Q360,49,359.58,50h9.18a25.64,25.64,0,0,1-4-8.41A14.73,14.73,0,0,1,363,46.46,2.67,2.67,0,0,1,360.3,47.9Z" class="cls-2 path5" style=""></path>
<path d="M363.17,36.77a11.21,11.21,0,0,0-1.72,2c-.18-1.69-.4-3.38-.73-5a20.66,20.66,0,0,0-.72-2.59,1,1,0,0,1-.05-.23c-.57-.19-1.13-.38-1.7-.53l-.09,5a1.59,1.59,0,0,0,.59-.25,1.14,1.14,0,0,1-.6,1.2L357.91,50h1.67q.39-1,.72-2.1a2.67,2.67,0,0,0,2.7-1.44,14.73,14.73,0,0,0,1.74-4.87l0-.18c.2-1,.58-3.81-.14-5C364.23,36.08,363.69,36.33,363.17,36.77Z" class="cls-15 path150" style=""></path>
<path d="M358.66,29.09c.84.32.86.23,1.11,1,.08.26.12.54.18.81h0a1,1,0,0,0,.05.23,20.66,20.66,0,0,1,.72,2.59c.33,1.67.55,3.36.73,5a11.21,11.21,0,0,1,1.72-2c.52-.44,1.06-.69,1.46-.39a1.2,1.2,0,0,1,.21.23,22.94,22.94,0,0,0,.29-4.75,22.41,22.41,0,0,0,5.61-.07,15.06,15.06,0,0,1-5.92-5.18,9.93,9.93,0,0,1-.8-2.93c-.18-.72-.38-1.43-.59-2.14-.13-.43-.26-.87-.41-1.31a43.25,43.25,0,0,0-2.71-6.44,29.18,29.18,0,0,0-1.72-2.88l-.31,18Z" class="cls-2 path28" style=""></path>
<path d="M323,47.16a3.54,3.54,0,0,0,1.13,1c.34.16,1.12,0,1.33.19s.42,1.15.52,1.41c0,.09.07.19.11.29h31.81l.24-13.74a2.2,2.2,0,0,1-1.12.15,1.39,1.39,0,0,1,0,.72,4.15,4.15,0,0,1-8,.64q-.58.46-1.14,1A6.22,6.22,0,0,1,352.22,35a7.57,7.57,0,0,1,3.81.09,4.62,4.62,0,0,0,2.13.24l.09-5a8.5,8.5,0,0,0-5-.11,29.51,29.51,0,0,1-3.84,1.32,1.37,1.37,0,0,1-1.48-2,25,25,0,0,1,6.61-.64,12,12,0,0,1,3.68,1.2l0-1.21a8.15,8.15,0,0,1-2.23-1,10.74,10.74,0,0,1-2.48-3.66,22.81,22.81,0,0,1-1.78-4.88c-1.15,2.53.32,5.74,1.78,7.85a41.13,41.13,0,0,1-6.47.21,34.23,34.23,0,0,1-5.36-.19c-2.83-.5-4.17-5.23-4.22-7.74a8.22,8.22,0,0,0-.55,8.07,21.41,21.41,0,0,0-8,.4c-1,.2-2.91.26-3.52,1.13-.9,1.29-.91,3.82-1.11,5.32-.17,1.29-.32,2.58-.44,3.87-.51-.85-1.52-2.15-2.65-1.68-.24.1-.34.31-.47.36a1.63,1.63,0,0,0-.22.46,7.19,7.19,0,0,0,0,3.51,25.2,25.2,0,0,0,.79,2.89A10,10,0,0,0,323,47.16Zm19.82,2.56c-.44,0-.68-.36-.93-.67L342,49a1.22,1.22,0,0,0,2-.26C344,49.2,343.33,49.72,342.83,49.72Zm-2.55-2.41c.59-.28.67.14,1.13,0,.09,0,.18-.28.3-.33,1-.42,2.26-.59,2.85.67.8-1,1.69.24,1.54,1.09l-.11,0c.17-1-1.17-1.53-1.35-.49-.44-.07-.14-.2-.36-.47a1.59,1.59,0,0,0-1.23-.82c-.71-.08-1.73.3-1.29,1.17-.33-.39-.6-.74-1.15-.62-1,.2-.48.85-.46,1.31C339.47,48.4,339.48,47.69,340.28,47.31Zm-3.75-9.39a4.15,4.15,0,0,1-8-.47,1.41,1.41,0,0,1,0-.71c-1,.09-1.75-.13-1.75-1.31.87.55,1.82.18,2.72-.06a7.69,7.69,0,0,1,3.81-.18,6.25,6.25,0,0,1,4.45,3.69Q337.13,38.37,336.53,37.92Zm-5.77-8.69a25.51,25.51,0,0,1,6.63.49,1.38,1.38,0,0,1-1.44,2,30,30,0,0,1-3.87-1.24c-2.36-.7-4.6,0-6.85.87C327,30.7,328.72,29.5,330.76,29.23Z" class="cls-15 path149" style=""></path>
<path d="M323.89,38.29c.12-1.29.27-2.58.44-3.87.2-1.5.21-4,1.11-5.32.61-.87,2.53-.93,3.52-1.13a21.41,21.41,0,0,1,8-.4,8.22,8.22,0,0,1,.55-8.07c.05,2.51,1.39,7.24,4.22,7.74a34.23,34.23,0,0,0,5.36.19,41.13,41.13,0,0,0,6.47-.21c-1.46-2.11-2.93-5.32-1.78-7.85a22.81,22.81,0,0,0,1.78,4.88,10.74,10.74,0,0,0,2.48,3.66,8.15,8.15,0,0,0,2.23,1l.31-18c-2.89-4.23-7-7.51-12.54-6.8a14.6,14.6,0,0,1-3,.52c-1.06-.12-2.07-.48-3.17-.53-4.23-.22-7.78,1.67-10.8,4.52-5,4.73-7.22,11.53-8.08,18.21a48.36,48.36,0,0,0-.59,9.15c0,.18,0,.79.12.93s.15.09.21.06.23-.26.47-.36C322.37,36.14,323.38,37.44,323.89,38.29Z" class="cls-2 path29" style=""></path>
<path d="M359.77,30.07c-.25-.75-.27-.66-1.11-1l-.38-.14,0,1.21c.57.26,1.13.52,1.7.72C359.89,30.61,359.85,30.33,359.77,30.07Z" class="cls-15 path152" style=""></path>
<path d="M354.57,29a25,25,0,0,0-6.61.64,1.37,1.37,0,0,0,1.48,2,29.51,29.51,0,0,0,3.84-1.32,8.5,8.5,0,0,1,5,.11v-.2A12,12,0,0,0,354.57,29Z" class="cls-6 path20" style=""></path>
<path d="M332.08,30.49A30,30,0,0,0,336,31.73a1.38,1.38,0,0,0,1.44-2,25.51,25.51,0,0,0-6.63-.49c-2,.27-3.76,1.47-5.53,2.13C327.48,30.52,329.72,29.79,332.08,30.49Z" class="cls-6 path14" style=""></path>
<path d="M354.52,38a2.27,2.27,0,0,0,.25-.38.86.86,0,0,1-.75-.85.82.82,0,0,1,.5-.79l-.41,0a6.71,6.71,0,0,0-3.32.73C351.34,38.12,353.13,39.49,354.52,38Z" class="cls-9 path22" style=""></path>
<path d="M354,36.72a.86.86,0,0,0,.75.85,1,1,0,0,0,1-.32,3.2,3.2,0,0,1-.59,1.41c-1.86,2.35-4.56.69-5.29-1.56a11.44,11.44,0,0,0-.93.67,4.15,4.15,0,0,0,8-.64,1.39,1.39,0,0,0,0-.72,25.52,25.52,0,0,1-2.51-.48A.82.82,0,0,0,354,36.72Z" class="cls-7 path23" style=""></path>
<path d="M356,35.07a7.57,7.57,0,0,0-3.81-.09,6.22,6.22,0,0,0-4.36,3.78q.56-.52,1.14-1a11.44,11.44,0,0,1,.93-.67c.28-.18.57-.34.86-.49a6.71,6.71,0,0,1,3.32-.73l.41,0a25.52,25.52,0,0,0,2.51.48,2.2,2.2,0,0,0,1.12-.15v-.95A4.62,4.62,0,0,1,356,35.07Z" class="cls-10 path24" style=""></path>
<path d="M355.22,38.66a3.2,3.2,0,0,0,.59-1.41,1,1,0,0,1-1,.32,2.27,2.27,0,0,1-.25.38c-1.39,1.54-3.18.17-3.73-1.34-.29.15-.58.31-.86.49C350.66,39.35,353.36,41,355.22,38.66Z" class="cls-8 path21" style=""></path>
<path d="M331.49,37a.88.88,0,0,1-.73.87,1.74,1.74,0,0,0,.26.37c1.42,1.5,3.18.1,3.7-1.42a6.67,6.67,0,0,0-3.34-.66l-.41.06A.82.82,0,0,1,331.49,37Z" class="cls-9 path17" style=""></path>
<path d="M330.33,38.94a3.25,3.25,0,0,1-.64-1.42,1.06,1.06,0,0,0,1.07.33.88.88,0,0,0,.73-.87.82.82,0,0,0-.52-.78c-.69.14-1.66.45-2.5.54a1.41,1.41,0,0,0,0,.71,4.15,4.15,0,0,0,8,.47,11.43,11.43,0,0,0-.94-.66C334.91,39.53,332.24,41.25,330.33,38.94Z" class="cls-7 path15" style=""></path>
<path d="M331,38.22a1.74,1.74,0,0,1-.26-.37,1.06,1.06,0,0,1-1.07-.33,3.25,3.25,0,0,0,.64,1.42c1.91,2.31,4.58.59,5.26-1.68a9.13,9.13,0,0,0-.87-.46C334.2,38.32,332.44,39.72,331,38.22Z" class="cls-8 path16" style=""></path>
<path d="M333.25,35.19a7.69,7.69,0,0,0-3.81.18c-.9.24-1.85.61-2.72.06,0,1.18.79,1.4,1.75,1.31s1.81-.4,2.5-.54l.41-.06a6.67,6.67,0,0,1,3.34.66,9.13,9.13,0,0,1,.87.46,11.43,11.43,0,0,1,.94.66q.6.45,1.17,1A6.25,6.25,0,0,0,333.25,35.19Z" class="cls-10 path18" style=""></path>
<path d="M376.16,101.5c2.42,11.65,6.79,39.13,6.79,39.13s.4,4.18,1,9.37h12.65c-.68-3.66-1.24-6.34-1.51-7.43-.5-2-1.2-26-2.08-41.07q0-.77-.09-1.5H375.84C375.94,100.47,376.05,101,376.16,101.5Z" class="cls-15 path144" style=""></path>
<path d="M361.8,114.79a19.35,19.35,0,0,0,9.32-1.38h0A27.08,27.08,0,0,0,375,101.5c.05-.54.06-1,.07-1.5H357l-.24,13.75A22.11,22.11,0,0,0,361.8,114.79Z" class="cls-4 path165" style=""></path>
<path d="M345.43,100H357l.35-20.12c-5,1.64-8.61,3.07-8.61,3.07l-2.4,12.22,0,.08Z" class="cls-4 path166" style=""></path>
<path d="M312.88,76.31h0l.25,0c2.45.54,5,1.19,7.47,1.88,7.89,2.2,14.9,4.71,14.9,4.71l2,11.94,1.42.06,7.48.22L348.78,83s3.61-1.43,8.61-3.07l.08-4.81-.35-.07c-5.81-1.3-7.29-12.77-7.29-12.77h0a20.62,20.62,0,0,0,8-8.41l.07-3.82H326.1c.19.5.38,1,.58,1.5l0,.08a23.85,23.85,0,0,0,2.33,4.3,20.6,20.6,0,0,0,5.88,5.7c.51.33,1.08.66,1.67,1-.63,8.27-4.66,11.32-9.82,12.54a25.07,25.07,0,0,1-2.5.44c-3.56.48-7.45.41-11,.73l-.36,0Zm23-24.13c-.15-.43,1.37.38,1.49.41a4.53,4.53,0,0,0,1.94-.1,10,10,0,0,1,2.1-.4c.52,0,1,.21,1.49.25,1,.09,1.84-.41,2.92-.18s2.32.81,3.3.32c.28-.14,1.31-.37.74.14-.28.26-.65.09-.86.35a13.8,13.8,0,0,0-.56,1.61,5.51,5.51,0,0,1-4.44,3,6.14,6.14,0,0,1-5.74-2.32,8.7,8.7,0,0,1-1-1.87c-.06-.15-.07-.51-.17-.63C336.87,52.51,336,52.59,335.88,52.18Z" class="cls-15 path151" style=""></path>
<path d="M337.3,53.41a8.7,8.7,0,0,0,1,1.87A6.14,6.14,0,0,0,344,57.6a5.51,5.51,0,0,0,4.44-3A13.8,13.8,0,0,1,349,53c.21-.26.58-.09.86-.35.57-.51-.46-.28-.74-.14-1,.49-2.35-.12-3.3-.32s-1.89.27-2.92.18c-.51,0-1-.25-1.49-.25a10,10,0,0,0-2.1.4,4.53,4.53,0,0,1-1.94.1c-.12,0-1.64-.84-1.49-.41s1,.33,1.25.6C337.23,52.9,337.24,53.26,337.3,53.41ZM348.19,53a8.88,8.88,0,0,1-2.07,1.58c-3.08,1.64-6,.53-8.39-1.7A13.82,13.82,0,0,0,348.19,53Z" class="cls-12 path27" style=""></path>
<path d="M346.12,54.6A8.88,8.88,0,0,0,348.19,53a13.82,13.82,0,0,1-10.46-.12C340.09,55.13,343,56.24,346.12,54.6Z" class="cls-11 path26" style=""></path>
<path d="M312.85,54.26a46.86,46.86,0,0,1-5.1,4.56l-.08,4.5a19.62,19.62,0,0,0,8-5,52.35,52.35,0,0,1-3,5.43,45.64,45.64,0,0,1-5.15,6.76l-.05,3c1.45-.21,3.21-.49,5-.87,1.47-.3,3-.65,4.4-1.08a27.26,27.26,0,0,1-3.69,4.66c3.58-.32,7.47-.25,11-.73a20.5,20.5,0,0,0,1.67-1.69c.25.41.53.83.83,1.25,5.16-1.22,9.19-4.27,9.82-12.54-.59-.33-1.16-.66-1.67-1a20.6,20.6,0,0,1-5.88-5.7,23.85,23.85,0,0,1-2.33-4.3l0-.08c-.2-.5-.39-1-.58-1.5h-9.72q-.54.77-1.11,1.5C314.5,52.47,313.69,53.39,312.85,54.26Z" class="cls-2 path1" style=""></path>
<path d="M326,49.71c-.1-.26-.28-1.25-.52-1.41s-1,0-1.33-.19a3.54,3.54,0,0,1-1.13-1,10,10,0,0,1-1.65-3.33,25.2,25.2,0,0,1-.79-2.89A25.47,25.47,0,0,1,316.38,50h9.72C326.06,49.9,326,49.8,326,49.71Z" class="cls-2 path2" style=""></path>
<path d="M298.7,64.57a25.83,25.83,0,0,0,9-1.25l.08-4.5A54.94,54.94,0,0,1,298.7,64.57Z" class="cls-2 path3" style=""></path>
<path d="M384.1,151.5c.75,6.42,1.74,13.87,2.65,16.93,1.81,6.12,4.43,21,6.16,31.57h8.27c-.49-11.13-1.23-26.88-1.66-30.53-.77-6.66-1.79-13-2.67-18-.09-.52-.19-1-.27-1.5H383.93C384,150.49,384,151,384.1,151.5Z" class="cls-15 path147" style=""></path>
<path d="M367.78,119.35c.08-.26.16-.51.24-.73s.16-.51.24-.72c.15-.44.27-.73.31-.84a21.82,21.82,0,0,1-6.8-.4,21.11,21.11,0,0,1-5-1.78L356.16,150h15.28c-2.67-8.72-4.79-14.8-4.79-14.8A34.61,34.61,0,0,1,367.78,119.35Z" class="cls-4 path173" style=""></path>
<path d="M311.83,113.11c.05.1.1.2.16.3h0c1.53.69,9.33,3.69,18.78-1.63a20.55,20.55,0,0,1-16.24,5.28h0c.29.73,3.62,9.27,1.92,18.14,0,0-2.12,6.09-4.78,14.8h44.49l.62-35.12a17.39,17.39,0,0,1-4.43-3.1,24.29,24.29,0,0,0,4.45,2L357,100H345.43l-.3,1.5-3.58,18.19-3-18.19-.25-1.5H308c0,.47,0,1,.07,1.5A26.89,26.89,0,0,0,311.83,113.11Z" class="cls-4 path172" style=""></path>
<polygon points="341.55 119.69 345.13 101.5 345.43 100 338.32 100 338.57 101.5 341.55 119.69" class="cls-15 polygon4" style=""></polygon>
<polygon points="346.36 95.25 338.9 94.95 337.49 94.91 338.32 100 345.43 100 346.36 95.25" class="cls-15 polygon5" style=""></polygon>
<path d="M307.57,81c.21.52.41,1.09.6,1.72a24.76,24.76,0,0,1,.86,8.55c0,.49-.07,1-.14,1.52h0a32.69,32.69,0,0,1-.6,3.61A17.28,17.28,0,0,0,308,100h30.3l-.84-5.09v0l-2-11.94s-7-2.51-14.9-4.71c-2.46-.69-5-1.34-7.47-1.88l-.25,0h0l-.41-.1-.11,0-4.93.77-.06,3.58Z" class="cls-4 path164" style=""></path>
<path d="M307.37,80.54A15.4,15.4,0,0,0,306,77.92c-9.18,3.84-7.25,12.43-7.25,12.43l8.46,2Z" class="cls-15 path154" style=""></path>
<path d="M309,91.28a24.76,24.76,0,0,0-.86-8.55c-.19-.63-.39-1.2-.6-1.72l-.2-.47-.21,11.84,1.73.42C309,92.28,309,91.77,309,91.28Z" class="cls-15 path155" style=""></path>
<path d="M216.5,50.69h0l.14.82c.08.54.2,1.33.32,2.32,24.08,3.77,34.17.41,38.26-2.32a10.47,10.47,0,0,0,1.79-1.5H216.62Q216.58,50.35,216.5,50.69Z" class="cls-13 path33" style=""></path>
<path d="M254.32,48.77l-1.49-.06-1.27-.07-1.29-.07-1.48-.12-1.09-.09c-.55,0-1.11-.1-1.66-.16l-.92-.09c-.6-.06-1.19-.14-1.78-.21l-.83-.1-1.92-.26-.69-.09-2.07-.32-.55-.08-2.2-.37-.43-.08-2.3-.42-.34-.07-2.36-.47-.28-.06c-.82-.17-1.64-.34-2.46-.53l-.19,0c-.84-.18-1.69-.38-2.53-.58l-.11,0-2.6-.63,0,0-2.64-.67h0l-2.65-.71c.05,2.17-.07,3.57-.07,3.57h0a1.67,1.67,0,0,1,.65.89,8.14,8.14,0,0,1-.08,3.17h40.43a4.3,4.3,0,0,0,.83-1.17l-2.51,0Z" class="cls-13 path34" style=""></path>
<path d="M208.43,18.84,208.06,40l1.54.49.87.26c.86.26,1.72.5,2.59.75l1.22.35c.62.18,1.23.37,1.85.54l2.65.71h0l2.64.67,0,0,2.6.63.11,0c.84.2,1.69.4,2.53.58l.19,0c.82.19,1.64.36,2.46.53l.28.06,2.36.47.34.07,2.3.42.43.08,2.2.37.55.08,2.07.32.69.09,1.92.26.83.1c.59.07,1.18.15,1.78.21l.92.09c.55.06,1.11.12,1.66.16l1.09.09,1.48.12,1.29.07,1.27.07,1.49.06,1.05,0,2.51,0a171.79,171.79,0,0,0-38.95-25.44c-1.79-.86-3.63-1.68-5.51-2.5C211.79,20.19,210.12,19.5,208.43,18.84Z" class="cls-24 path103" style=""></path>
<path d="M159.92,21l.07,0,1.72.81.06,0,1.61.76.16.07h0l2.63,1.21.65.29,2.09.94.29.13.3.13c1.25.56,2.52,1.11,3.81,1.67q3.59,1.56,7.37,3.1c0-.14.07-.29.09-.43s.27.29.76.78c1.65.67,3.33,1.33,5,2l1.12.43,4.52,1.71.64.23c3.62,1.34,7.33,2.62,11.07,3.85l.25.08,2.89.91,1,.31.37-21.15c-2.63-1-5.32-2-8.11-2.94a181.33,181.33,0,0,0-22.54-5.72c-4.93-.93-9.68-1.64-14.14-2.18-1.72-.21-3.39-.4-5-.56l-.22,12.8Z" class="cls-24 path104" style=""></path>
<path d="M213.42,20.89c1.88.82,3.72,1.64,5.51,2.5a12.78,12.78,0,0,0-5.34-12.12,26.31,26.31,0,0,0-5-3l-.18,10.55C210.12,19.5,211.79,20.19,213.42,20.89Z" class="cls-20 path78" style=""></path>
<path d="M208.43,18.84l.18-10.55a47.71,47.71,0,0,0-6.22-2.36c-13-4-20.25-1.44-24.61,4.25a181.33,181.33,0,0,1,22.54,5.72C203.11,16.81,205.8,17.8,208.43,18.84Z" class="cls-20 path77" style=""></path>
<path d="M139.43,10.64l2.95,1.57.53.28c3.76,2,8.35,4.31,13.57,6.83l.07,0,1.62.78.09,0,.14.06.22-12.8a205.34,205.34,0,0,0-26.91-1.09l.16.09C132.51,6.82,135.18,8.36,139.43,10.64Z" class="cls-24 path102" style=""></path>
<path d="M368.57,117.06h0l0,0c.14-.16.26-.33.39-.49l.64-.86c.27-.36.52-.73.76-1.1s.39-.59.57-.88c.06-.09.12-.18.17-.27a19.35,19.35,0,0,1-9.32,1.38,22.11,22.11,0,0,1-5-1l0,1.13a21.11,21.11,0,0,0,5,1.78A21.82,21.82,0,0,0,368.57,117.06Z" class="cls-27 path185" style=""></path>
<path d="M330.77,111.78c-9.45,5.32-17.25,2.32-18.78,1.63l.18.28c.19.32.4.64.62,1s.36.55.56.83.53.72.82,1.09l.34.45,0,0A20.55,20.55,0,0,0,330.77,111.78Z" class="cls-27 path179" style=""></path>
<path d="M307.43,77l-2,.31a5.62,5.62,0,0,1,.5.65h0a15.4,15.4,0,0,1,1.42,2.62Z" class="cls-4 path159" style=""></path>
<path d="M304,74s1.44-.14,3.53-.43l.05-3A40.45,40.45,0,0,1,304,74Z" class="cls-2 path0" style=""></path>
<path d="M359,51.5c.21-.49.4-1,.6-1.5h-1.67l-.07,3.82C358.25,53.07,358.63,52.3,359,51.5Z" class="cls-15 path148" style=""></path>
<path d="M358.75,35.06a1.59,1.59,0,0,1-.59.25v.95A1.14,1.14,0,0,0,358.75,35.06Z" class="cls-10 path25" style=""></path>
<path d="M308.73,150h2.94c2.66-8.71,4.78-14.8,4.78-14.8,1.7-8.87-1.63-17.41-1.92-18.14h0l0,0-.34-.45c-.29-.37-.57-.73-.82-1.09s-.38-.55-.56-.83c-.08-.11-.17-.23-.24-.34s-.26-.4-.38-.61-.13-.19-.18-.28h0c-.06-.1-.11-.2-.16-.3a26.89,26.89,0,0,1-3.74-11.61c0-.54-.06-1-.07-1.5h-1l-.28,15.73a148.71,148.71,0,0,1,4.2,16.5C311.51,136,310.33,142.67,308.73,150Z" class="cls-22 path138" style=""></path>
<path d="M307.16,92.38l-8.46-2s1.36,4,3.17,9.65H307Z" class="cls-22 path141" style=""></path>
<path d="M306.75,115.73,307,100h-5.16l.48,1.5C303.73,105.81,305.31,110.86,306.75,115.73Z" class="cls-22 path139" style=""></path>
<path d="M308.29,96.41a32.69,32.69,0,0,0,.6-3.61h0l-1.73-.42L307,100h1A17.28,17.28,0,0,1,308.29,96.41Z" class="cls-22 path143" style=""></path>
<path d="M212.78,57.38a2.23,2.23,0,0,1-1.26.14s-.85,2.19-1.31,3.22a22.47,22.47,0,0,1-2.59,4.41L207.31,83a18.36,18.36,0,0,0,2.84.86,16.76,16.76,0,0,0,2.24-3.9,14.52,14.52,0,0,0,1-3.92,21,21,0,0,1-.87,8.23l.45,0c6.17-7.38,4.87-23.67,4-30.52-.12-1-.24-1.78-.32-2.32l-.14-.82h0c-.05.27-.12.54-.18.81C215.7,54,214.51,56.7,212.78,57.38Z" class="cls-14 path43" style=""></path>
<path d="M207.62,65.15a22.47,22.47,0,0,0,2.59-4.41c.46-1,1.31-3.22,1.31-3.22a2.23,2.23,0,0,0,1.26-.14c1.73-.68,2.92-3.35,3.54-5.88.06-.27.13-.54.18-.81s.09-.46.12-.69h-8.73Z" class="cls-15 path188" style=""></path>
<path d="M215.71,45.8a2.14,2.14,0,0,0-1.61.49h0l0,.12a.49.49,0,0,1,0-.12c-.36,0-.71,0-1.06,0a31.81,31.81,0,0,1-3.39-.23,1.29,1.29,0,0,1-.64.15,4.06,4.06,0,0,1-.51,0,5,5,0,0,1-.52,1.93l0,1.91h8.73a8.14,8.14,0,0,0,.08-3.17,1.67,1.67,0,0,0-.65-.89,1.44,1.44,0,0,0-.32-.13Z" class="cls-15 path191" style=""></path>
<path d="M208,45.77c.54.11,1.09.2,1.63.28a31.81,31.81,0,0,0,3.39.23c.35,0,.7,0,1.06,0h.06a2.14,2.14,0,0,1,1.61-.49h0a1.44,1.44,0,0,1,.32.13h0s.12-1.4.07-3.57l-1.85-.53-1.22-.36c-.87-.24-1.73-.49-2.59-.75l-.87-.26L208.06,40Z" class="cls-14 path107" style=""></path>
<path d="M174.87,57.13h0c.39,1.21.79,2.31,1.19,3.25a21.18,21.18,0,0,0,9.83,10.85h0s-1.56,11.27-7.67,12.55c-.43.09-.89.17-1.37.25-.78.13-1.61.24-2.49.35l-.41,0-1.39.15-3,.29-1.78.14-5,.4a15.63,15.63,0,0,0,1.52,1.16h0c.6.41,1.23.79,1.86,1.16.2.13.41.24.62.36.5.28,1,.55,1.52.81l.46.24c.66.32,1.34.62,2,.91,10.22,4.27,22.64,4.55,33.07,2.79,1.1-.18,2.21-.41,3.31-.66l.16-9.15c-4-1.61-7-4.84-7.5-11.5a21.21,21.21,0,0,0,7.81-6.37L207.89,50h-2.14a5.08,5.08,0,0,1-2,.27,4.14,4.14,0,0,1-1.34-.27h-19a3.48,3.48,0,0,1-.58,0,5.53,5.53,0,0,1-.83,0H170c.06.39.14.8.23,1.2,0,.1.05.2.08.3C171.07,54.47,172.57,57.48,174.87,57.13Zm15.56-.47a1,1,0,0,1,1,.26,1.85,1.85,0,0,1,1.8-1h0a1.83,1.83,0,0,1,1.41.55.71.71,0,0,1,.1.14,1.19,1.19,0,0,1,1.18-.05,1.1,1.1,0,0,1,.7.88c0,.3-.24.44-.56.63l-.07-.11a.55.55,0,0,0,.31-.51.8.8,0,0,0-.52-.62.86.86,0,0,0-1,.14l-.4.42.12-.55a.58.58,0,0,0-.15-.24,1.59,1.59,0,0,0-1.11-.38h0a1.52,1.52,0,0,0-1.61,1.09l0,.05v.06l-.3.09-.06-.18h0c-.09-.25-.29-.46-.8-.36-.72.15-.57,1-.57,1l-.11,0C189.73,57.59,189.61,56.82,190.43,56.66Zm3.8,1.6c-.33.37-.56.66-1,.66h0c-.81,0-1.26-.88-1.29-.91l0-.09a2,2,0,0,0,1.25.7h0a1.14,1.14,0,0,0,.86-.45Zm-8.13,3.53a.8.8,0,0,0,.16.08,4.07,4.07,0,0,0,2.08-.1c1.43-.32,2.35-.79,3.42-.6.91.15,1,.39,1.48.42s.57-.25,1.48-.39c1.07-.16,2,.33,3.4.68a5.38,5.38,0,0,0,1.79.19,1,1,0,0,0,.27-.13c.59-.4,1.22.47.29.63l-.86.11a8.62,8.62,0,0,1-2.48,2.75,7.29,7.29,0,0,1-3.95.94,7.17,7.17,0,0,1-3.93-1,8.56,8.56,0,0,1-2.39-2.76c-.3-.06-.65-.09-1.07-.17C184.87,62.23,185.52,61.38,186.1,61.79Z" class="cls-15 path193" style=""></path>
<path d="M205.75,50h2.14l0-1.91A3.93,3.93,0,0,1,205.75,50Z" class="cls-15 path190" style=""></path>
<path d="M203.94,48.16a2,2,0,0,0,2-.9.92.92,0,0,1-.76-.87.88.88,0,0,1,.56-.78,7.19,7.19,0,0,0-2.47.12,9.58,9.58,0,0,0-1.5.45A2.54,2.54,0,0,0,203.94,48.16Z" class="cls-9 path92" style=""></path>
<path d="M205.94,47.26a2,2,0,0,1-2,.9,2.54,2.54,0,0,1-2.17-2c-.34.13-.65.27-.93.41.21.73.91,2.61,2.81,2.74A3,3,0,0,0,207,47a1.09,1.09,0,0,1-.8.33A1.26,1.26,0,0,1,205.94,47.26Z" class="cls-8 path91" style=""></path>
<path d="M201.77,46.18a9.58,9.58,0,0,1,1.5-.45,7.19,7.19,0,0,1,2.47-.12,1.13,1.13,0,0,1,.42-.11s0-.08,0-.12l-.64-.16a3.88,3.88,0,0,0-1.37,0,3.94,3.94,0,0,1,.6-.1H205l-1.53-.47c-.19,0-.39.08-.6.14a6.28,6.28,0,0,0-4.2,3.51,14.4,14.4,0,0,1,1.19-1,8.7,8.7,0,0,1,1-.64C201.12,46.45,201.43,46.31,201.77,46.18Z" class="cls-10 path95" style=""></path>
<path d="M205,45.08l.52.14.64.16c.53.14,1.08.25,1.62.36l.2,0,.1-5.76-1.12-.34-3-1c-3.74-1.23-7.44-2.51-11.06-3.85l-.64-.23-4.52-1.71-1.12-.43c-1.69-.66-3.37-1.32-5-2,2.54,2.53,11.2,10.59,21.91,14.13Z" class="cls-14 path106" style=""></path>
<path d="M179.69,45.57c.26-.06.53-.12.8-.16l.45-.07a7.37,7.37,0,0,1,2.46.18,9.81,9.81,0,0,1,2.41.91,7.56,7.56,0,0,1,1,.66c.57.45.94.85,1.17,1a6.25,6.25,0,0,0-4.11-3.59c-3.93-1.16-5.58,1.07-7.35,0,0,0-.09,1.36,1.21,1.37a4.41,4.41,0,0,0,.52,0,8.72,8.72,0,0,0,1.37-.25Z" class="cls-10 path101" style=""></path>
<path d="M178.23,45.84a4.41,4.41,0,0,1-.52,0c-1.3,0-1.21-1.37-1.21-1.37,1.77,1.12,3.42-1.11,7.35,0A6.25,6.25,0,0,1,188,48.14c-.23-.2-.6-.6-1.17-1A4.31,4.31,0,0,1,183.42,50h19a4.41,4.41,0,0,1-2.54-2.77,14.4,14.4,0,0,0-1.19,1,6.28,6.28,0,0,1,4.2-3.51c.21-.06.41-.1.6-.14-10.71-3.54-19.37-11.6-21.91-14.13-.49-.49-.76-.78-.76-.78s-.06.29-.09.43A38.53,38.53,0,0,1,177,39.61l1.19-.48a12.26,12.26,0,0,1,6.07-.53l3.61.53c.29.49,0,2-1,2s-4.55-1.58-6.26-1.77a13.09,13.09,0,0,0-3.81.58,63.85,63.85,0,0,1-3.89,6.33,1.78,1.78,0,0,0-2.85-.17,1.33,1.33,0,0,0-.09.21A9,9,0,0,0,170,50h12A4.14,4.14,0,0,1,178.23,45.84Z" class="cls-15 path192" style=""></path>
<path d="M182.68,47.94a2,2,0,0,1-2-.95,1.26,1.26,0,0,1-.28,0,1.15,1.15,0,0,1-.8-.35,3,3,0,0,0,3.32,2.42c1.9-.09,2.65-2,2.87-2.68a9.73,9.73,0,0,0-.91-.43A2.57,2.57,0,0,1,182.68,47.94Z" class="cls-8 path99" style=""></path>
<path d="M186.79,47.09a7.56,7.56,0,0,0-1-.66c-.22.73-1,2.59-2.87,2.68a3,3,0,0,1-3.32-2.42,1.15,1.15,0,0,0,.8.35,1.26,1.26,0,0,0,.28,0,.94.94,0,0,0,.78-.85.91.91,0,0,0-.54-.8l-.45.07c-.27,0-.54.1-.8.16l-.09,0a8.72,8.72,0,0,1-1.37.25A4.14,4.14,0,0,0,182,50h1.41A4.31,4.31,0,0,0,186.79,47.09Z" class="cls-7 path97" style=""></path>
<path d="M182.68,47.94A2.57,2.57,0,0,0,184.9,46a9.81,9.81,0,0,0-1.5-.48,7.37,7.37,0,0,0-2.46-.18.91.91,0,0,1,.54.8.94.94,0,0,1-.78.85A2,2,0,0,0,182.68,47.94Z" class="cls-9 path100" style=""></path>
<path d="M207.92,48.09l0-2c-.29-.06-.59-.12-.88-.2a.76.76,0,0,1,.21.53A.8.8,0,0,1,207,47a3,3,0,0,1-3.37,2.35c-1.9-.13-2.6-2-2.81-2.74a8.7,8.7,0,0,0-1,.64A4.41,4.41,0,0,0,202.38,50h3.37A3.93,3.93,0,0,0,207.92,48.09Z" class="cls-7 path89" style=""></path>
<path d="M205.74,45.61a.88.88,0,0,0-.56.78.92.92,0,0,0,.76.87,1.26,1.26,0,0,0,.28.05A1.09,1.09,0,0,0,207,47a.8.8,0,0,0,.26-.57.76.76,0,0,0-.21-.53c.29.08.59.14.88.2v-.27l-.2-.07c-.54-.11-1.09-.22-1.62-.36,0,0,0,.08,0,.12A1.13,1.13,0,0,0,205.74,45.61Z" class="cls-13 path31" style=""></path>
<path d="M207.92,48.09a5,5,0,0,0,.52-1.93l-.49-.08Z" class="cls-7 path88" style=""></path>
<path d="M203.72,50.27a5.08,5.08,0,0,0,2-.27h-3.37A4.14,4.14,0,0,0,203.72,50.27Z" class="cls-7 path90" style=""></path>
<path d="M180.6,39.38c1.71.19,5.28,1.8,6.26,1.77s1.28-1.53,1-2l-3.61-.53a12.26,12.26,0,0,0-6.07.53l-1.19.48-.19.35A13.09,13.09,0,0,1,180.6,39.38Z" class="cls-6 path96" style=""></path>
<path d="M172.9,46.29A63.85,63.85,0,0,0,176.79,40l.19-.35a38.53,38.53,0,0,0,3.71-9.48q-3.78-1.54-7.37-3.1A32.78,32.78,0,0,0,170,41.09c-.06,1.57-.06,3.25,0,5h0A1.78,1.78,0,0,1,172.9,46.29Z" class="cls-14 path105" style=""></path>
<path d="M170,41.09A32.78,32.78,0,0,1,173.32,27c-1.29-.56-2.56-1.11-3.81-1.67l-.3-.13-.29-.13-2.09-.94-.65-.29-2.63-1.21h0l-.16-.07-1.61-.76-.06,0L160,21l-.07,0-1.52-.73-.27,15q2.35,1.34,5,2.64C165.27,39,167.56,40.05,170,41.09Z" class="cls-13 path37" style=""></path>
<path d="M158.26,20.18l-.09,0-1.62-.78-.07,0c-5.22-2.52-9.81-4.86-13.57-6.83l-.53-.28-2.95-1.57c-4.25-2.29-6.93-3.83-7.56-4.2l-.16-.09s1.85,15,26.42,28.93l.27-15Z" class="cls-13 path36" style=""></path>
<path d="M199.81,71.52c.54,6.66,3.48,9.89,7.5,11.5l.31-17.87A21.21,21.21,0,0,1,199.81,71.52Z" class="cls-14 path44" style=""></path>
<path d="M193.21,63.7a17.88,17.88,0,0,0,2.83-.62,21.53,21.53,0,0,0,2.37-.35v0a13,13,0,0,1-2.5-.2c-.79-.09-1.72.6-2.69.59s-1.88-.72-2.68-.65a11.53,11.53,0,0,1-2.62.14,22,22,0,0,0,2.48.43A17.55,17.55,0,0,0,193.21,63.7Z" class="cls-15 path83" style=""></path>
<path d="M185.79,62.41c.42.08.77.11,1.07.17a8.56,8.56,0,0,0,2.39,2.76,7.17,7.17,0,0,0,3.93,1,7.29,7.29,0,0,0,3.95-.94,8.62,8.62,0,0,0,2.48-2.75l.86-.11c.93-.16.3-1-.29-.63a1,1,0,0,1-.27.13,5.38,5.38,0,0,1-1.79-.19c-1.41-.35-2.33-.84-3.4-.68-.91.14-1,.37-1.48.39s-.57-.27-1.48-.42c-1.07-.19-2,.28-3.42.6a4.07,4.07,0,0,1-2.08.1.8.8,0,0,1-.16-.08C185.52,61.38,184.87,62.23,185.79,62.41Zm4.75,0c.8-.07,1.71.64,2.68.65s1.9-.68,2.69-.59a13,13,0,0,0,2.5.2v0a21.53,21.53,0,0,1-2.37.35,17.88,17.88,0,0,1-2.83.62A17.55,17.55,0,0,1,190.4,63a22,22,0,0,1-2.48-.43A11.53,11.53,0,0,0,190.54,62.45Z" class="cls-23 path86" style=""></path>
<path d="M161,85.54l1.28-.1.47,0h0l5-.4a30,30,0,0,1,.34-5,11.21,11.21,0,0,0,1.44,4.89l3-.29c-.14-.89-.28-1.84-.39-2.84A14.11,14.11,0,0,0,174,84.42l.41,0a20.87,20.87,0,0,1-.9-8.31,16.07,16.07,0,0,0,3.39,8c.48-.08.94-.16,1.37-.25,6.11-1.28,7.67-12.55,7.67-12.55h0a21.18,21.18,0,0,1-9.83-10.85c-.4-.94-.8-2-1.19-3.25h0c-2.3.35-3.8-2.66-4.53-5.63,0-.1-.05-.2-.08-.3,0,.09,0,.19,0,.3-.05.34-.11.77-.19,1.29a61.66,61.66,0,0,1-7.37,11.72,40.38,40.38,0,0,1-5.12,5.27l-.06,3.83a12.92,12.92,0,0,0,5.06-1.94,11.45,11.45,0,0,0,1-.75,7.49,7.49,0,0,1-1,1.18,14,14,0,0,1-5.08,3.05l-.06,3.56.3-.06-.3.12-.06,3.3a20.9,20.9,0,0,0,2.23-.57,16,16,0,0,1-2.24,1.12l0,2.4A15,15,0,0,1,161,85.54Z" class="cls-14 path39" style=""></path>
<path d="M147.59,76.24s3.32,3.84,9.79,2.47l.06-3.56A23.25,23.25,0,0,1,147.59,76.24Z" class="cls-14 path41" style=""></path>
<path d="M152,73.51a14.88,14.88,0,0,0,5.5.1l.06-3.83A27.45,27.45,0,0,1,152,73.51Z" class="cls-14 path38" style=""></path>
<path d="M145.4,80.41s4.4,3.23,11.92,1.66l.06-3.3C155.87,79.38,148.81,82,145.4,80.41Z" class="cls-14 path42" style=""></path>
<path d="M156,86.09l.09,0c-.32-.31-.64-.64-1-1a15.17,15.17,0,0,1,2.11-.08l0-2.4a23.42,23.42,0,0,1-9.72,1.8,11.87,11.87,0,0,0,2.92,1.7,7.82,7.82,0,0,1,2.67-.69A4.91,4.91,0,0,1,156,86.09Z" class="cls-14 path40" style=""></path>
<path d="M212.31,84.25c-.73-.1-1.46-.22-2.16-.37a18.36,18.36,0,0,1-2.84-.86l-.16,9.15c1.7-.38,3.39-.83,5-1.38a37.91,37.91,0,0,0,7.12-3.18c.49-.3.89-.53,1.25-.72.67-.48,1.33-1,2-1.49h.09l.3.23a10.92,10.92,0,0,1,2.11-.55c-3.86-.37-8.11-.28-12-.74l-.45,0Z" class="cls-15 path189" style=""></path>
<path d="M393.16,201.5c.95,5.78,1.58,9.93,1.58,9.93a12.89,12.89,0,0,0-.86,5c0,3.17-1.09,9.61,0,9.91s2.18-2.68,2.48-5.06,2.58-3,2.78-1-.2,4.8-1.49,6.09-4.91,2.43-4.25,4.26c0,0,4.79-1.14,6.33-2.68s3.57-6.19,3.57-7.43a71.24,71.24,0,0,0-1.64-9.08s-.17-4.19-.42-9.93q0-.74-.06-1.5h-8.27C393,200.51,393.08,201,393.16,201.5Z" class="cls-15 path146" style=""></path>
<path d="M371.44,150H356.16l-.87,50H382c-.06-12.76-5.69-33.86-10.11-48.5C371.74,151,371.59,150.49,371.44,150Z" class="cls-4 path167" style=""></path>
<path d="M311.21,151.5l-.06.2c-1.74,5.79-3.67,12.57-5.36,19.43L305.28,200h50l.87-50H311.67C311.52,150.49,311.37,151,311.21,151.5Z" class="cls-4 path160" style=""></path>
<path d="M311.15,151.7l.06-.2c.16-.51.31-1,.46-1.5h-2.94l-.33,1.5c-.79,3.55-1.66,7.24-2.46,10.81l-.15,8.82C307.48,164.27,309.41,157.49,311.15,151.7Z" class="cls-22 path142" style=""></path>
<path d="M305.79,171.13c-.87,3.51-1.69,7.05-2.38,10.49h0A100.53,100.53,0,0,0,301.1,200h4.18Z" class="cls-4 path169" style=""></path>
<path d="M305.79,171.13l.15-8.82c-1.72,7.67-3.12,14.85-2.77,19.23l.24.08h0C304.1,178.18,304.92,174.64,305.79,171.13Z" class="cls-22 path140" style=""></path>
<path d="M229.7,101.5a70.19,70.19,0,0,0-2.77,8.13c-.05.26-.12.51-.17.76a46.74,46.74,0,0,0,10-3.28,19.24,19.24,0,0,0,7.36-5.61,11.6,11.6,0,0,0,.92-1.5H230.35C230.12,100.5,229.91,101,229.7,101.5Z" class="cls-16 path204" style=""></path>
<path d="M232.92,95.3c-.41.63-.8,1.27-1.18,1.92s-.84,1.59-1.23,2.41c-.06.12-.11.25-.16.37h14.71a10.78,10.78,0,0,0,.53-1.14,19.63,19.63,0,0,0-3.65-7.27c-2.38-3-2.24-2.86-5-1.15l-.12.08a26.54,26.54,0,0,0-3.2,3.75Z" class="cls-16 path205" style=""></path>
<path d="M228.71,87.05c-4.38,4.16-10.19,7-15.94,8.89-.22.08-.44.19-.67.28l-.56.25c-.31.14-.61.31-.91.48l-.28.15q-.57.33-1.14.72h0c-.39.26-.77.54-1.15.83h0l-1,1.19a.12.12,0,0,1-.05.05v.1h23.34c.05-.12.1-.25.16-.37.39-.82.79-1.62,1.23-2.41a31.88,31.88,0,0,1,1.86-3,26.54,26.54,0,0,1,3.2-3.75c.15-.15.31-.29.47-.43A21.47,21.47,0,0,1,239,88.64a17.64,17.64,0,0,0-8.45-3.47,22.67,22.67,0,0,1-1.67,1.73Z" class="cls-21 path257" style=""></path>
<path d="M221.25,86.46c.45-.35.9-.72,1.36-1.06h-.09c-.62.52-1.28,1-2,1.49a36,36,0,0,1-8.38,4.32,47.76,47.76,0,0,1-5.05,1.54l-.08,4.6a14.64,14.64,0,0,0,4.14-2.17c.32-.24.63-.51.94-.79l.11-.09-.11.11-2.44,2.43c.8-.21,1.6-.46,2.41-.71l.66-.19c5.75-1.86,11.56-4.73,15.94-8.89l.15-.15a22.67,22.67,0,0,0,1.67-1.73,18.89,18.89,0,0,0-5.51-.09,10.92,10.92,0,0,0-2.11.55A8.58,8.58,0,0,0,221.25,86.46Z" class="cls-20 path263" style=""></path>
<path d="M212.19,91.21a36,36,0,0,0,8.38-4.32c-.36.19-.76.42-1.25.72a37.91,37.91,0,0,1-7.12,3.18c-1.66.55-3.35,1-5,1.38v.58A47.76,47.76,0,0,0,212.19,91.21Z" class="cls-16 path202" style=""></path>
<path d="M173.39,95.84c.63.21,1.25.4,1.87.58l.26.13c4,2.17,10.68,2.39,15.86,2.34l3.26,0c1.08,0,2.18,0,3.29-.08a34.56,34.56,0,0,0,8.19-1.1c.32-.09.63-.2.94-.31l.08-4.6c-11.85,2.9-25.83,1.78-36.37-2.71-.69-.29-1.37-.59-2-.91l-.46-.24c-.51-.26-1-.53-1.52-.81-.21-.12-.42-.23-.62-.36-.64-.37-1.26-.76-1.86-1.16h0c.39.3.77.63,1.16,1A17.55,17.55,0,0,0,162.28,86c-.42-.15-.84-.3-1.27-.42a15,15,0,0,0-3.74-.52l0,2.09a35.34,35.34,0,0,0,5,3.67A51.34,51.34,0,0,0,173.39,95.84Z" class="cls-20 path264" style=""></path>
<path d="M155.16,85.1c.31.33.63.66,1,1l.15.15c.31.31.64.6,1,.89l0-2.09A15.17,15.17,0,0,0,155.16,85.1Z" class="cls-20 path262" style=""></path>
<polygon points="500.08 500 504.97 500 504.97 450 500.95 450 500.08 500" class="cls-29 polygon11" style=""></polygon>
<polygon points="493.97 450 493.97 482.4 466.74 450 452.45 450 494.17 500 500.08 500 500.95 450 493.97 450" class="cls-29 polygon15" style=""></polygon>
<polygon points="493.97 450 500.95 450 501.38 425.4 493.97 425.4 493.97 450" class="cls-29 polygon12" style=""></polygon>
<polygon points="504.97 450 504.97 425.4 501.38 425.4 500.95 450 504.97 450" class="cls-29 polygon13" style=""></polygon>
<polygon points="451.37 450 451.37 448.7 452.45 450 466.74 450 451.26 431.58 450.94 450 451.37 450" class="cls-29 polygon14" style=""></polygon>
<polygon points="431.96 425.4 440.67 435.9 440.67 450 450.94 450 451.26 431.58 446.06 425.4 431.96 425.4" class="cls-29 polygon17" style=""></polygon>
<polygon points="440.67 450 440.67 500 450.07 500 450.94 450 440.67 450" class="cls-29 polygon16" style=""></polygon>
<polygon points="450.94 450 450.07 500 451.37 500 451.37 450 450.94 450" class="cls-29 polygon18" style=""></polygon>
<path d="M354.42,250h18.44c3.33-12.84,8.77-35.64,9.13-48.5,0-.45,0-.88,0-1.3V200H355.29Z" class="cls-4 path168" style=""></path>
<path d="M304.81,227c1.5,7.22,3.22,14.36,4.68,20.1.26,1,.51,2,.75,2.95h44.18l.87-50h-50Z" class="cls-4 path161" style=""></path>
<path d="M301.11,201.5c.19,6.72,1.77,16.15,3.7,25.45l.47-26.95H301.1c0,.07,0,.14,0,.2C301.09,200.62,301.1,201.05,301.11,201.5Z" class="cls-4 path170" style=""></path>
<path d="M218,138.46c0,1.89.47,5.2.16,7.42a4,4,0,0,1-.55,2.07h.56c.46.68.91,1.37,1.36,2.05h8c-.74-4.08-1.11-7.59-.74-10,1-6.49,6.51-22.89,10-32.93a46.74,46.74,0,0,1-10,3.28c.05-.25.12-.5.17-.76-.07.26-.15.52-.21.77C224.31,119.24,218.17,129.09,218,138.46Z" class="cls-22 path198" style=""></path>
<path d="M220.49,151.5a175.28,175.28,0,0,1,12.85,23.7c-1.64-7.62-4.08-16.43-5.52-23.7-.1-.51-.19-1-.29-1.5h-8C219.83,150.5,220.17,151,220.49,151.5Z" class="cls-22 path199" style=""></path>
<path d="M207,139l3.5.28.88.06c2.08.17,4.16.34,6.23.47l.37,0c0-.44,0-.89,0-1.33.21-9.37,6.35-19.22,8.76-28.06.06-.25.14-.51.21-.77a70.19,70.19,0,0,1,2.77-8.13c.21-.5.42-1,.65-1.5H207l-.68,38.91Z" class="cls-21 path258" style=""></path>
<path d="M158.61,110.41h0a71.16,71.16,0,0,0,3.09,8.79c2.73,6.75,5.84,13.69,5.62,20.5a.34.34,0,0,1,0,.1c7-.43,14-1.2,21-1.46l1.32-.05h.09c1,0,2,0,3,0,4.53,0,9.1.31,13.65.67L207,100h-.09c-.48.48-.95,1-1.42,1.5-5.6,6.27-10.1,15.74-12.82,22.5-.44-1.09-.9-2.17-1.39-3.24a1.47,1.47,0,0,0-.1-.22,1,1,0,0,0-.07-.15l-.22-.49a97.55,97.55,0,0,0-11.34-18.4l-1.2-1.5H157l-.16,9.69c.42.16.84.32,1.26.5Z" class="cls-21 path255" style=""></path>
<path d="M179.56,101.5a97.55,97.55,0,0,1,11.34,18.4l.22.49a1,1,0,0,1,.07.15,1.47,1.47,0,0,1,.1.22c.49,1.07,1,2.15,1.39,3.24,2.72-6.76,7.22-16.23,12.82-22.5.47-.52.94-1,1.42-1.5H178.36Z" class="cls-16 path278" style=""></path>
<path d="M206.12,97.81a30.57,30.57,0,0,1-8.19,1.25,59.68,59.68,0,0,1-6.55.15c-5.18.06-11.83-.19-15.86-2.66.54.63,1.07,1.27,1.6,1.91s.83,1,1.24,1.54h28.56l.09-.1,0-2.32Z" class="cls-16 path280" style=""></path>
<path d="M209.48,96.94c-.8.23-1.61.44-2.43.64l0,2.32a.12.12,0,0,0,.05-.05l1-1.19h0C208.53,98.08,209,97.5,209.48,96.94Z" class="cls-16 path279" style=""></path>
<path d="M209.48,96.94c-.48.56-.95,1.14-1.43,1.72h0c.38-.29.76-.57,1.15-.83h0q.57-.39,1.14-.72l.28-.15c.3-.17.6-.34.91-.48l.56-.25c.23-.09.45-.2.67-.28l-.66.19c-.81.25-1.61.5-2.41.71l2.44-2.43.11-.11-.11.09c-.31.28-.62.55-.94.79a14.64,14.64,0,0,1-4.14,2.17v.23C207.87,97.38,208.68,97.17,209.48,96.94Z" class="cls-15 path194" style=""></path>
<path d="M207.14,92.75v-.58c-1.1.25-2.21.48-3.31.66C193.41,94.59,181,94.31,170.77,90,181.31,94.53,195.29,95.65,207.14,92.75Z" class="cls-16 path203" style=""></path>
<path d="M177.12,98.46c-.16-.15-.33-.28-.49-.42l-.53-.43-.51-.38L175,96.8l-.43-.29c-.37-.23-.74-.45-1.13-.67a51.34,51.34,0,0,1-11.2-5.06,35.34,35.34,0,0,1-5-3.67L157,100h21.36C178,99.49,177.54,99,177.12,98.46Z" class="cls-21 path260" style=""></path>
<path d="M175.26,96.42c-.62-.18-1.24-.37-1.87-.58.39.22.76.44,1.13.67l.43.29.64.43.51.38.53.43c.16.14.33.27.49.42-.53-.64-1.06-1.28-1.6-1.91Z" class="cls-15 path196" style=""></path>
<path d="M141.53,101.5a12.19,12.19,0,0,0,3,3.09c3.85,2.82,8.1,3.53,12.28,5.1L157,100H140.76a8.09,8.09,0,0,0,.43,1C141.29,101.14,141.42,101.32,141.53,101.5Z" class="cls-21 path261" style=""></path>
<path d="M157.23,87.11c-.33-.29-.66-.58-1-.89l-.24-.13a4.91,4.91,0,0,0-2.84-.66,7.82,7.82,0,0,0-2.67.69,19.47,19.47,0,0,0-4.17,2.48h0c-4.58,3.56-7,7.57-5.58,11.4H157Zm-8.5,3.56c-.1-.11-.22-.2-.33-.3-.27-.27-.55-.53-.83-.77-.07-.07-.15-.12-.23-.19l-.08-.06,0,0,.05,0c.08.07.16.12.23.19.29.24.56.51.84.77.1.1.22.19.32.3s.31.32.46.48C149,91,148.89,90.82,148.73,90.67Zm1.19,1.26,0-.07.06.07c.12.13.22.28.34.42C150.15,92.21,150,92.06,149.92,91.93Zm1.19,1.45-.42-.51c.15.18.31.36.46.55.41.56.81,1.13,1.19,1.71C151.94,94.53,151.54,93.94,151.11,93.38Z" class="cls-21 path256" style=""></path>
<path d="M412.57,462.2a28.13,28.13,0,0,1-12.26,23.31l-.22,12.54c13.55-6.11,23.28-19.35,23.28-35.25a39.9,39.9,0,0,0-2.1-12.8H409.78A27.47,27.47,0,0,1,412.57,462.2Z" class="cls-29 path298" style=""></path>
<path d="M400.31,485.51a29.79,29.79,0,0,1-17,5.29c-15.6,0-29.5-11.8-29.5-27.9a29.59,29.59,0,0,1,2.85-12.9h-5.69l-.61,34.92a39.21,39.21,0,0,0,21,15.08h23.55a40.67,40.67,0,0,0,5.21-1.95Z" class="cls-29 path297" style=""></path>
<path d="M383.17,501.7a41,41,0,0,0,11.71-1.7H371.33A41.73,41.73,0,0,0,383.17,501.7Z" class="cls-29 path296" style=""></path>
<path d="M401.33,427.37l-.22,12.47A27.39,27.39,0,0,1,409.78,450h11.49A39.34,39.34,0,0,0,401.33,427.37Z" class="cls-29 path299" style=""></path>
<path d="M383.17,434.2a30.75,30.75,0,0,1,17.94,5.64l.22-12.47a41.35,41.35,0,0,0-50.2,11.12l-.2,11.51h5.69C361.3,440.33,371.25,434.2,383.17,434.2Z" class="cls-29 path295" style=""></path>
<path d="M343.06,461.6a40.31,40.31,0,0,0,7.26,23.32l.61-34.92h-6A36.85,36.85,0,0,0,343.06,461.6Z" class="cls-29 path294" style=""></path>
<path d="M344.91,450h6l.2-11.51A36.87,36.87,0,0,0,344.91,450Z" class="cls-29 path293" style=""></path>
<path d="M354.25,259.47h16.07l.39-1.4c.06-.23.13-.48.21-.76.24-.86.53-2,.88-3.26.21-.78.43-1.63.67-2.55H354.39Z" class="cls-3 path187" style=""></path>
<path d="M354.39,251.5h18.08c.13-.48.26-1,.39-1.5H354.42Z" class="cls-4 path171" style=""></path>
<path d="M311.3,254.05c.35,1.29.64,2.4.88,3.26.08.28.15.53.21.76l.39,1.4h41.47l.14-8H310.63C310.87,252.42,311.09,253.27,311.3,254.05Z" class="cls-3 path186" style=""></path>
<path d="M310.63,251.5h43.76l0-1.5H310.24C310.37,250.51,310.51,251,310.63,251.5Z" class="cls-4 path162" style=""></path>
<path d="M205.27,200h22c-.69-4.53-1.52-9-2.56-13.46A107.53,107.53,0,0,1,228.89,200h13.48a183.25,183.25,0,0,0-9-24.8,175.28,175.28,0,0,0-12.85-23.7c-.32-.51-.66-1-1-1.5H206.14Z" class="cls-16 path217" style=""></path>
<path d="M217.19,148c-1.05.69-3.49.7-6,.54l-1.31-.1-3.71-.35,0,2h13.35c-.45-.68-.9-1.37-1.36-2.05h-.56a4,4,0,0,0,.55-2.07A2.88,2.88,0,0,1,217.19,148Z" class="cls-16 path220" style=""></path>
<path d="M209.88,148.39l1.31.1c2.51.16,4.95.15,6-.54a2.88,2.88,0,0,0,.93-2.07c.31-2.22-.13-5.53-.16-7.42,0,.44,0,.89,0,1.33l-.37,0c-2.07-.13-4.15-.3-6.23-.47l-.88-.06L207,139l-.64-.05-.16,9.13Z" class="cls-20 path250" style=""></path>
<path d="M167.32,147.11a2,2,0,0,0,1.06.78c1.09.35,2.66.06,4.21.06h32c.39,0,.93,0,1.55.09l.16-9.13c-4.55-.36-9.12-.67-13.65-.67-1,0-2,0-3,0h-.09l-1.32.05c-7,.26-14,1-21,1.46a.34.34,0,0,0,0-.1C166.84,142,166.7,146.05,167.32,147.11Z" class="cls-20 path251" style=""></path>
<path d="M165.72,150a5.61,5.61,0,0,1,1.71-2.05,5.92,5.92,0,0,1,.56-.23,1.7,1.7,0,0,1-.67-.61c-.62-1.06-.48-5.14,0-7.41.22-6.81-2.89-13.75-5.62-20.5a71.16,71.16,0,0,1-3.09-8.79h0l-.51-.22c-.42,1.92-.89,4.24-1.39,6.77l-.58,33Z" class="cls-1 path119" style=""></path>
<path d="M156.71,117c-2.53,12.87-5.68,31.33-5.68,31.33s-.06.64-.17,1.71h5.27Z" class="cls-1 path121" style=""></path>
<path d="M151,148.29s3.15-18.46,5.68-31.33l.13-7.27c-4.18-1.57-8.43-2.28-12.28-5.1a12.19,12.19,0,0,1-3-3.09c-.11-.18-.24-.36-.34-.54,0,.17,0,.36-.06.54-1.21,11-2.16,44.89-2.8,48.5h12.53C151,148.93,151,148.29,151,148.29Z" class="cls-15 path274" style=""></path>
<path d="M158.1,110.19c-.42-.18-.84-.34-1.26-.5l-.13,7.27C157.21,114.43,157.68,112.11,158.1,110.19Z" class="cls-15 path275" style=""></path>
<path d="M353.9,279.88v0L353.54,300h7.62a109.77,109.77,0,0,0-2.22-21.29c-.06-.27-.1-.42-.1-.42L359,278q3.38-9.87,6.05-18.49H354.25Z" class="cls-22 path130" style=""></path>
<path d="M339.65,280.11A137.58,137.58,0,0,1,342.79,300h10.75l.36-20.11c-.21.95-2.11,9.15-6.49,8.62-4.65-.56-3.77-10.05-3.77-10.05s-.44,6.94,3.95,7.18c4.09.23,6.06-5.06,6.31-5.76l.35-20.41H340.3C339.33,269.18,338.82,276.62,339.65,280.11Z" class="cls-22 path126" style=""></path>
<path d="M347.59,285.64c-4.39-.24-3.95-7.18-3.95-7.18s-.88,9.49,3.77,10.05c4.38.53,6.28-7.67,6.49-8.62h0C353.65,280.58,351.68,285.87,347.59,285.64Z" class="cls-25 path136" style=""></path>
<path d="M336.56,276.85c.42-2.33,1.12-8.86,1.87-17.38H313.12c1.8,10.61,3.31,19.43,3.42,22.53.14,3.91-.64,10.68-1.27,18h20.84C335.73,290.87,335.55,282.59,336.56,276.85Zm-9.91,12.48c-4.68-.45-4.39-14.78-4.39-14.78s0,10.46,4.39,10.46,6-9.32,6-9.32S331.33,289.79,326.65,289.33Z" class="cls-22 path128" style=""></path>
<path d="M326.65,285c-4.39,0-4.39-10.46-4.39-10.46s-.29,14.33,4.39,14.78,6-13.64,6-13.64S331,285,326.65,285Z" class="cls-26 path137" style=""></path>
<path d="M234.14,245a11.2,11.2,0,0,1-.52,2.08c3.12-.53,7.31-.64,9.41-1.21.52-.14,2.09-.42,3.51-.82a5,5,0,0,0,2.46-1.2c2-3.22-.78-14.09-1.24-17.61h0c-4,2.19-8.92,2.86-13.39,3.44a4.71,4.71,0,0,1-.74,0c0,.16,0,.32,0,.49C234,234.79,235,240.44,234.14,245Z" class="cls-20 path224" style=""></path>
<path d="M229.26,201.5q.74,3.1,1.36,6.21a178.81,178.81,0,0,1,3,22,4.71,4.71,0,0,0,.74,0c4.47-.58,9.39-1.25,13.39-3.44a173.42,173.42,0,0,0-5-24.72c-.13-.5-.28-1-.42-1.5H228.89C229,200.5,229.14,201,229.26,201.5Z" class="cls-16 path215" style=""></path>
<path d="M233.63,229.7a178.81,178.81,0,0,0-3-22q-.63-3.11-1.36-6.21c-.12-.5-.25-1-.37-1.5h-1.61c.08.5.16,1,.23,1.5A266.66,266.66,0,0,1,230,230.18s0,0,0-.05C230.39,229.68,232.41,229.72,233.63,229.7Z" class="cls-28 path239" style=""></path>
<path d="M214.93,236.52c3.75-.5,12.77-.93,15-3.61a.65.65,0,0,0,.12-.33c0-.21,0-.42,0-.62-.1-.66-.32-1.42-.06-1.78a266.66,266.66,0,0,0-2.45-28.68c-.07-.5-.15-1-.23-1.5h-22l-.66,37.47c1.68-.1,3.36-.22,5-.37S213.17,236.75,214.93,236.52Z" class="cls-16 path221" style=""></path>
<path d="M165.72,150c-.29.5-.56,1-.81,1.5s-.48.92-.67,1.23c-1.11,1.81-2.18,3.66-3.23,5.51q-2.53,4.5-4.83,9.11c-.13.25-.24.5-.36.75l-.56,31.9h5.16a105.89,105.89,0,0,1,4.17-13.46c-1,4.43-1.87,8.93-2.56,13.46h43.24l.87-50Z" class="cls-16 path216" style=""></path>
<path d="M206.17,148c-.62,0-1.16-.09-1.55-.09h-32c-1.55,0-3.12.29-4.21-.06a1.71,1.71,0,0,1-.39-.17,5.92,5.92,0,0,0-.56.23,5.61,5.61,0,0,0-1.71,2.05h40.42Z" class="cls-16 path222" style=""></path>
<path d="M161,158.24c1.05-1.85,2.12-3.7,3.23-5.51.19-.31.42-.74.67-1.23s.52-1,.81-1.5h-9.59l-.31,18.1c.12-.25.23-.5.36-.75Q158.48,162.75,161,158.24Z" class="cls-1 path118" style=""></path>
<path d="M155.82,168.1l.31-18.1h-5.27c-.05.43-.1.93-.17,1.5-.67,6.23-2.26,19.74-3.65,24.13-1.52,4.8-3.58,15.13-5.28,24.37h1.53A200.41,200.41,0,0,1,155.82,168.1Z" class="cls-1 path120" style=""></path>
<path d="M147,175.63c1.39-4.39,3-17.9,3.65-24.13.07-.57.12-1.07.17-1.5H138.33c0,.07,0,.16,0,.21-.08.3-.19.74-.32,1.29-.94,4-3,14.22-4.37,25.15-.36,2.9-.94,13.58-1.42,23.35h9.58C143.46,190.76,145.52,180.43,147,175.63Z" class="cls-15 path277" style=""></path>
<rect width="10.7" height="50" x="315.37" y="450" class="cls-29 rect3" style=""></rect>
<rect width="10.7" height="24.6" x="315.37" y="425.4" class="cls-29 rect2" style=""></rect>
<path d="M352.67,350H354c1.65-5.41,3-10.65,4-15.65a158.63,158.63,0,0,0,3.22-32.85c0-.51,0-1,0-1.5h-7.62Z" class="cls-22 path134" style=""></path>
<path d="M342.79,300c0,.5.09,1,.13,1.5a197.33,197.33,0,0,1-2.73,48.5h12.48l.87-50Z" class="cls-22 path132" style=""></path>
<path d="M342.92,301.5c0-.5-.09-1-.13-1.5h-6.68c0,.5,0,1,.07,1.5.12,2.83.26,5.72.38,8.64.33,7.57-.48,24.67-1.22,39.86h4.85A197.33,197.33,0,0,0,342.92,301.5Z" class="cls-1 path111" style=""></path>
<path d="M340.3,259.47h-1.87c-.75,8.52-1.45,15-1.87,17.38-1,5.74-.83,14-.45,23.15h6.68a137.58,137.58,0,0,0-3.14-19.89C338.82,276.62,339.33,269.18,340.3,259.47Z" class="cls-1 path110" style=""></path>
<path d="M336.56,310.14c-.12-2.92-.26-5.81-.38-8.64,0-.5-.05-1-.07-1.5H315.27l-.12,1.5c-.55,6.71-.91,13.74-.27,19.35.6,5.21,2.4,16.91,4.17,29.15h16.29C336.08,334.81,336.89,317.71,336.56,310.14Z" class="cls-22 path133" style=""></path>
<path d="M209.34,254.46l1.8-.13.37,0c1.84-.17,3.68-.35,5.51-.58,1.48-.18,4.25-.24,6.79-.58a15.91,15.91,0,0,0,3.06-1c0,.13-.05.26-.07.39a5.68,5.68,0,0,0,1.83-.89.86.86,0,0,0,.13-.14,1.54,1.54,0,0,0,.25-.36,4.77,4.77,0,0,0,.38-1.14h-25l-.08,4.8C206,254.71,207.67,254.59,209.34,254.46Z" class="cls-20 path229" style=""></path>
<path d="M234.14,245c.9-4.54-.14-10.19-.47-14.79,0-.17,0-.33,0-.49-1.22,0-3.24,0-3.65.43,0,0,0,0,0,.05L230,232a1.88,1.88,0,0,1,0,.62,1.62,1.62,0,0,0,0,.22q.21,7.62.2,15.16l.45,0a10.19,10.19,0,0,1,2.92-.86A11.2,11.2,0,0,0,234.14,245Z" class="cls-28 path243" style=""></path>
<path d="M230.1,248.33a2.37,2.37,0,0,1,.3-.23l.3-.18-.45,0q0-7.53-.2-15.16a1.62,1.62,0,0,1,0-.22.65.65,0,0,1-.12.33c-2.22,2.68-11.24,3.11-15,3.61-1.76.23-3.52.42-5.28.58s-3.36.27-5,.37L204.39,250h25A3.58,3.58,0,0,1,230.1,248.33Z" class="cls-20 path232" style=""></path>
<path d="M159.25,250h45.14l.22-12.53c-2.77.16-5.54.27-8.31.3h-4.43q-6-.06-11.9-.44l-.62,0c-1.84-.12-3.69-.26-5.53-.42l-.82-.08c-1.86-.17-3.72-.35-5.57-.57-1.67-.19-5.87.06-7.22-.95a2.49,2.49,0,0,1-.41-.37,1.88,1.88,0,0,1-.12-.18,2.54,2.54,0,0,1-.37-1.69c0-.3.05-.62.08-1s.06-.67.08-1.06h-.15c0,.63,0,1.26,0,1.89-.15,5-.22,10.08-.22,15.07h-.12c-1.65-.15-2.44-.1-2.89-.42s-.57-1-.88-2.55c-.84-4.23,0-9.42.38-13.83h-.83l-.3,16.88.91,0C159.51,248.09,158.63,248.56,159.25,250Z" class="cls-20 path228" style=""></path>
<path d="M162,200c-.08.5-.16,1-.23,1.5-.83,5.72-1.43,11.5-1.84,17.29q-.44,6.11-.64,12.21h.15c0,.39-.05.73-.08,1.06s-.06.68-.08,1a2.54,2.54,0,0,0,.37,1.69,1.88,1.88,0,0,0,.12.18,2.49,2.49,0,0,0,.41.37c1.35,1,5.55.76,7.22.95,1.85.22,3.71.4,5.57.57l.82.08c1.84.16,3.69.3,5.53.42l.62,0q5.94.38,11.9.44h4.43c2.77,0,5.54-.14,8.31-.3l.66-37.47Z" class="cls-16 path219" style=""></path>
<path d="M155.17,245c.31,1.57.44,2.24.88,2.55s1.24.27,2.89.42h.12c0-5,.07-10,.22-15.07,0-.63,0-1.26,0-1.89-1.17.06-2.43.11-3.77.15C155.17,235.56,154.33,240.75,155.17,245Z" class="cls-28 path249" style=""></path>
<path d="M161.8,201.5c.07-.5.15-1,.23-1.5h-1.61c0,.18-.1.36-.14.55s-.16.63-.23.95q-.74,3.1-1.36,6.21a177,177,0,0,0-3.05,22.48l-.09,1c1.34,0,2.6-.09,3.77-.15q.21-6.1.64-12.21C160.37,213,161,207.22,161.8,201.5Z" class="cls-28 path245" style=""></path>
<path d="M143.29,200c-.14.5-.3,1-.44,1.5q-2.23,7.84-3.75,15.86c-.08.4-.14.8-.21,1.2a13.24,13.24,0,0,1,.65,4.28c0,1.62.31,4.12.44,6.18,4.3,1.88,9.86,2.21,14.74,2.14l.54-31.16Z" class="cls-16 path218" style=""></path>
<path d="M158.69,207.71q.63-3.11,1.36-6.21c.07-.32.15-.64.23-.95s.09-.37.14-.55h-5.16l-.54,31.16h.83l.09-1A177,177,0,0,1,158.69,207.71Z" class="cls-16 path223" style=""></path>
<path d="M143.29,200h12l.56-31.9A200.41,200.41,0,0,0,143.29,200Z" class="cls-16 path214" style=""></path>
<path d="M136.57,233.3a6.65,6.65,0,0,1-1-.72c-1.35-1.27-1.77-4.09-1.56-6s2.61-1.33,2.92,1a14.59,14.59,0,0,0,.33,1.65c.51,1.85,1.39,3.55,2.28,3.32.54-.14.57-1.67.44-3.56-.13-2.06-.44-4.56-.44-6.18a13.24,13.24,0,0,0-.65-4.28,6,6,0,0,0-.25-.66s1.22-7.52,2.84-16.4c.09-.5.18-1,.28-1.5h-9.58c0,.5-.05,1-.07,1.5-.43,8.76-.75,16.4-.75,16.4a65,65,0,0,0-1.73,8.93c0,1.22,2.14,5.8,3.75,7.31a9.1,9.1,0,0,0,2.85,1.5,31.73,31.73,0,0,0,3.82,1.13C140.6,235.31,138.22,234.3,136.57,233.3Z" class="cls-15 path276" style=""></path>
<path d="M142.85,201.5c.14-.5.3-1,.44-1.5h-1.53c-.1.5-.19,1-.28,1.5-1.62,8.88-2.84,16.4-2.84,16.4a6,6,0,0,1,.25.66c.07-.4.13-.8.21-1.2Q140.6,209.35,142.85,201.5Z" class="cls-1 path122" style=""></path>
<path d="M282.47,450v4.3a26.17,26.17,0,0,1-10.1,1.9c-5.7,0-15.81-1.54-21.53-2l-.19,11c5.68.48,16,2.06,21.72,2.06a26.17,26.17,0,0,0,10.1-1.9V500h10.9V450Z" class="cls-29 path291" style=""></path>
<rect width="10.9" height="24.6" x="282.47" y="425.4" class="cls-29 rect1" style=""></rect>
<path d="M248.07,465c.67,0,1.56.05,2.58.14l.19-11c-1.1-.1-2.06-.16-2.77-.16a21.1,21.1,0,0,0-9.5,2v-6h-10.8v50h10.8V467A21.1,21.1,0,0,1,248.07,465Z" class="cls-29 path292" style=""></path>
<rect width="10.8" height="24.6" x="227.77" y="425.4" class="cls-29 rect0" style=""></rect>
<path d="M335,388.74c.17,1.55.35,3.11.51,4.63l.24,1.4c0,.22.08.44.11.65a33.77,33.77,0,0,0,5.62-.22s0,0,0-.05a40.32,40.32,0,0,0,2.12-7A23.91,23.91,0,0,1,335,388.74Z" class="cls-4 path9" style=""></path>
<path d="M335,388.74a23.91,23.91,0,0,0,8.62-.6,88.39,88.39,0,0,0,1.75-11.8,27,27,0,0,1,.88-4.34,57.64,57.64,0,0,1,2.26-6.71c1.52-3.7,2.85-7.33,4-10.89l.08-4.4H340.19c-.09.5-.18,1-.27,1.5-1,5.49-2,9.67-2.65,12.07s-1.77,5-2.86,7.84c.14-5,.49-12.14.86-19.91,0-.5.05-1,.07-1.5H319.05c.08.5.15,1,.22,1.5,2.3,16,4.44,32.47,3.67,36.34A100.19,100.19,0,0,0,321.35,400h14.94c-.22-2-.47-4.23-.74-6.63C335.39,391.85,335.21,390.29,335,388.74Z" class="cls-22 path129" style=""></path>
<path d="M335.27,351.5c-.37,7.77-.72,14.93-.86,19.91,1.09-2.8,2.09-5.49,2.86-7.84s1.63-6.58,2.65-12.07c.09-.48.18-1,.27-1.5h-4.85C335.32,350.5,335.29,351,335.27,351.5Z" class="cls-1 path109" style=""></path>
<path d="M352.59,354.4c.33-1,.65-1.94,1-2.9.16-.5.3-1,.45-1.5h-1.32Z" class="cls-22 path131" style=""></path>
<path d="M221.91,301.5c0-.51-.1-1-.15-1.5H203.52l-.87,50h16.26c1.65-10.46,3.2-20,3.75-24.52C223.5,318.56,222.69,309.44,221.91,301.5Z" class="cls-15 path271" style=""></path>
<path d="M220.9,287.29c.17-4.23,3.14-19.24,5.9-34.76,0-.13,0-.26.07-.39a15.91,15.91,0,0,1-3.06,1c-2.54.34-5.31.4-6.79.58-1.83.23-3.67.41-5.51.58l-.37,0-1.8.13c-1.67.13-3.35.25-5,.34l-.79,45.2h18.24A114.19,114.19,0,0,1,220.9,287.29Zm-10.63,7.21a2.57,2.57,0,0,1-1.62-.42c-3.6-2.27-4.64-13-4.64-13s1.27,7.08,4.71,8.79a3.41,3.41,0,0,0,1.55.38c4.62,0,4.62-10.29,4.62-10.29S215.19,294.05,210.27,294.5Z" class="cls-15 path273" style=""></path>
<path d="M210.27,290.25a3.41,3.41,0,0,1-1.55-.38c-3.44-1.71-4.71-8.79-4.71-8.79s1,10.73,4.64,13a2.57,2.57,0,0,0,1.62.42c4.92-.45,4.62-14.54,4.62-14.54S214.89,290.25,210.27,290.25Z" class="cls-26 path227" style=""></path>
<path d="M204,254.82c-2.34.12-4.69.19-7,.23v0c1.1,13.1,2.26,24,2.86,27.16.87,4.57.91,10.8.67,17.77h3l.79-45.2Z" class="cls-15 path268" style=""></path>
<path d="M165,253.08h0l.92.16a79.24,79.24,0,0,0,9.86,1.35c1,.05,2,.09,2.95.15,2,.12,4,.2,5.92.27l4.3.07h4.8c1.07,0,2.15,0,3.23,0h0c2.35,0,4.7-.11,7-.23l.29,0,.08-4.8H159.25a1.66,1.66,0,0,0,.16.33,5.25,5.25,0,0,0,.9,1.17l.09.09a7,7,0,0,0,3.29,1.27l.66.12Z" class="cls-20 path230" style=""></path>
<path d="M140,229c.13,1.89.1,3.42-.44,3.56-.89.23-1.77-1.47-2.28-3.32-.19,1.11-.44,2.52-.69,4,1.65,1,4,2,3.48,3.47a31.73,31.73,0,0,1-3.82-1.13c-.46,3.43-.64,6.87.33,8.25a3.83,3.83,0,0,0,1.57,1.05,38.67,38.67,0,0,0,4.57,1.33c.49.15,1,.28,1.49.41l.07,0c.82.21,1.66.39,2.5.55l.4.08c.75.13,1.5.25,2.25.35l.66.08c1.44.16,2.9.25,4.35.28l.3-16.88C149.84,231.23,144.28,230.9,140,229Z" class="cls-20 path231" style=""></path>
<path d="M322,410.66h0l-.06,0-.06,0a15.89,15.89,0,0,0,3.82,6.77,30.41,30.41,0,0,0,12,0,18.29,18.29,0,0,0,1.63-6.77l-.25.16C332.85,414.74,323.2,411.15,322,410.66Z" class="cls-3 path10" style=""></path>
<path d="M321.22,403.1h0s-.69,4.78.63,7.52h0l.06,0,.06,0h0c1.24.49,10.89,4.08,17.07.11l.25-.16h0s.42-4.71-1-7.19v0l-.2-.3S332.61,408.81,321.22,403.1Z" class="cls-4 path11" style=""></path>
<path d="M321.27,401.5c0,.54,0,1.07,0,1.6,11.39,5.71,16.82,0,16.82,0l.2.3c-.08-.61-.19-1.25-.29-1.89-.06-.33-.11-.66-.17-1l-.06,0c-.46,0-.92,0-1.37,0l-.06-.52H321.35C321.32,400.5,321.29,401,321.27,401.5Z" class="cls-22 path127" style=""></path>
<path d="M340.29,397.53a14.85,14.85,0,0,0,1.23-2.33,33.77,33.77,0,0,1-5.62.22c.26,1.48.52,2.93.76,4.33,0,.08,0,.17,0,.25h.84c.2-.14.41-.3.65-.49A16.22,16.22,0,0,0,340.29,397.53Z" class="cls-3 path8" style=""></path>
<path d="M200.57,477.3a10.22,10.22,0,0,1-.18,1.94l-.3,17.24c7.22-4.22,11.68-10.83,11.68-19.18,0-8.84-2.63-15.31-11-18.92l-.3,17.09A15,15,0,0,1,200.57,477.3Z" class="cls-29 path285" style=""></path>
<path d="M200.39,479.24c-1.44,7.94-11.72,11.56-21.92,11.56-11.7,0-19-7-22.9-11.7L150.3,484l-.09,5.21A40.19,40.19,0,0,0,167.49,500h24.15a35.48,35.48,0,0,0,8.45-3.52Z" class="cls-29 path290" style=""></path>
<path d="M178.47,501.7a49.5,49.5,0,0,0,13.17-1.7H167.49A37.36,37.36,0,0,0,178.47,501.7Z" class="cls-29 path288" style=""></path>
<path d="M150.21,489.24l.09-5.21-2.53,2.37C148.53,487.39,149.36,488.33,150.21,489.24Z" class="cls-29 path284" style=""></path>
<path d="M163.92,450h-12.7c1.63,10.47,11.11,15.9,27.25,15.9,10.19,0,20.81,0,22,9.57l.3-17.09c-5-2.15-12-3.28-21.79-3.28C169.72,455.1,165.52,452.92,163.92,450Z" class="cls-29 path289" style=""></path>
<path d="M151,446.6a21.93,21.93,0,0,0,.25,3.4h12.7a7.16,7.16,0,0,1-.85-3.5c0-6.5,7-12.3,15.4-12.3,9.24,0,14.9,2.19,22.56,8.29l.23-13.18c-6.94-4.36-14.46-6.11-22.79-6.11C162.47,423.2,151,434.5,151,446.6Z" class="cls-29 path286" style=""></path>
<path d="M201.67,443l6.8-8a43.34,43.34,0,0,0-7.21-5.69L201,442.49Z" class="cls-29 path287" style=""></path>
<path d="M206.53,415.63a20.18,20.18,0,0,1-5-.22l-.1,5.37a36.27,36.27,0,0,0,5,.2,26.2,26.2,0,0,0,4.89-.59,15.37,15.37,0,0,0,4-6.66l-.13,0A34,34,0,0,1,206.53,415.63Z" class="cls-19 path54" style=""></path>
<path d="M201.63,408.17l-.12,7.24a20.18,20.18,0,0,0,5,.22,34,34,0,0,0,8.68-1.85l.13,0c1.4-2.69.67-7.38.67-7.38h0a24.07,24.07,0,0,1-9.34,2.49A14.51,14.51,0,0,1,201.63,408.17Z" class="cls-20 path56" style=""></path>
<path d="M201.63,408.17a14.51,14.51,0,0,0,5,.67,24.07,24.07,0,0,0,9.34-2.49c0-1.58-.12-3.23-.27-4.85-.05-.5-.1-1-.16-1.5H201.78Z" class="cls-15 path52" style=""></path>
<path d="M214.29,383.73a21.82,21.82,0,0,1-7.23,1.27,13.8,13.8,0,0,1-1.82-.13,9.92,9.92,0,0,1-3.18-1.05L201.78,400h13.78c-.37-3.33-.92-6.46-1.38-8.66A33,33,0,0,1,214.29,383.73Z" class="cls-15 path51" style=""></path>
<path d="M207.08,384a12.07,12.07,0,0,1-2.34-.27,8,8,0,0,1-2.5-1,.58.58,0,0,0-.16-.05l0,1.14a9.92,9.92,0,0,0,3.18,1.05,13.8,13.8,0,0,0,1.82.13,21.82,21.82,0,0,0,7.23-1.27l.2-.06a.52.52,0,0,0-.1-1l-.19,0A21.39,21.39,0,0,1,207.08,384Z" class="cls-20 path72" style=""></path>
<path d="M207.19,378.8h0a20.47,20.47,0,0,1-4.25.75c-.25,0-.49.05-.74.06h0c0,.55,0,1.13-.07,1.72l0,1.35a.58.58,0,0,1,.16.05,8,8,0,0,0,2.5,1,12.07,12.07,0,0,0,2.34.27,21.39,21.39,0,0,0,7.12-1.32l.19,0c0-.37.07-.76.12-1.16h-.1A22.15,22.15,0,0,1,207.19,378.8Z" class="cls-15 path68" style=""></path>
<path d="M207.47,377.55l-.27-.18a15.65,15.65,0,0,1-4.94-5.13l0,2.05A14.94,14.94,0,0,0,206,378a16.91,16.91,0,0,1-3.48.55l-.31,0h0l0,1h.05c.25,0,.49-.05.74-.06a20.47,20.47,0,0,0,4.25-.75h0a22.15,22.15,0,0,0,7.22,2.69h.1c.61,0,.85-.86.19-1l-.09,0a20.37,20.37,0,0,1-5.89-2.19,16.66,16.66,0,0,0,6.7-4.52c.19-.23.41-.44.59-.68.35-.46,0-1.27-.35-1.18a.36.36,0,0,0-.19.13A17.52,17.52,0,0,1,207.47,377.55Z" class="cls-20 path74" style=""></path>
<path d="M214.61,380.49c.22-2.06.49-4.32.81-6.71a16.66,16.66,0,0,1-6.7,4.52A20.37,20.37,0,0,0,214.61,380.49Z" class="cls-15 path69" style=""></path>
<path d="M197.26,413.89a2.4,2.4,0,0,1-.27-.16,16.87,16.87,0,0,0,1.71,6.66s1.06.22,2.71.39l.1-5.37A12.3,12.3,0,0,1,197.26,413.89Z" class="cls-19 path55" style=""></path>
<path d="M197.26,413.89a12.3,12.3,0,0,0,4.25,1.52l.12-7.24a9.45,9.45,0,0,1-3.35-1.82l-.21.32c-1.52,2.43-1.08,7.06-1.08,7.06l.27.08Z" class="cls-20 path57" style=""></path>
<path d="M201.63,408.17l.15-8.17h-2.52c-.09.5-.18,1-.28,1.5s-.19,1.05-.28,1.56c0,.25-.09.5-.14.74-.17,1-.34,1.95-.49,2.87l.21-.32A9.45,9.45,0,0,0,201.63,408.17Z" class="cls-15 path53" style=""></path>
<path d="M200.69,392.18c-.34,2-.72,4-1.08,6l-.12.63c-.08.41-.15.81-.23,1.21h2.52l.28-16.18-.15-.08C201.64,386.35,201.2,389.24,200.69,392.18Z" class="cls-15 path50" style=""></path>
<path d="M202.26,372.24a15.65,15.65,0,0,0,4.94,5.13l.27.18a17.52,17.52,0,0,0,8-5.5.36.36,0,0,1,.19-.13c.86-6.38,2-13.56,3-20.42.08-.5.16-1,.23-1.5H202.65Z" class="cls-15 path269" style=""></path>
<path d="M202.17,377.81c0,.28,0,.53,0,.78h0l.31,0A16.91,16.91,0,0,0,206,378a14.94,14.94,0,0,1-3.75-3.73l-.05,3.37Z" class="cls-15 path70" style=""></path>
<path d="M200.46,301.5c-.16,4.3-.41,8.85-.62,13.46-.31,6.76.37,21.25,1.07,35h1.74l.87-50h-3C200.5,300.5,200.48,301,200.46,301.5Z" class="cls-15 path270" style=""></path>
<path d="M201,351.5c.39,7.55.77,14.81,1,20.35a.36.36,0,0,1,.13.14c0,.09.1.17.14.25l.39-22.24h-1.74C200.94,350.5,201,351,201,351.5Z" class="cls-15 path272" style=""></path>
<path d="M199.84,315c.21-4.61.46-9.16.62-13.46,0-.51,0-1,0-1.5H192.8c-.06.5-.14,1-.2,1.5-2.17,18.32-.5,35.81,1.64,48.5h6.67C200.21,336.21,199.53,321.72,199.84,315Z" class="cls-1 path114" style=""></path>
<path d="M199.84,282.23c-.6-3.14-1.76-14.06-2.86-27.16q-1.62,0-3.24.06c1.64,14.36,3,25.76,1.8,30.3A125.53,125.53,0,0,0,192.8,300h7.71C200.75,293,200.71,286.8,199.84,282.23Z" class="cls-1 path113" style=""></path>
<path d="M193.74,255.13v0H189l-4.3-.07c-2-.07-4-.15-5.92-.27-.93-.06-1.93-.1-2.95-.15a79.24,79.24,0,0,1-9.86-1.35l-.92-.16h0l.06.21c2.75,8.9,6.12,19,10.29,30.34A89.64,89.64,0,0,0,173.11,300H192.8a125.53,125.53,0,0,1,2.74-14.57C196.7,280.89,195.38,269.49,193.74,255.13Zm-5.69,37.31c-4.9.55-6.85-8.57-6.85-8.57s2,6,6.66,5.75,4.15-7.06,4.15-7.06S192.94,291.89,188.05,292.44Z" class="cls-22 path266" style=""></path>
<path d="M187.86,289.62c-4.62.24-6.66-5.75-6.66-5.75s2,9.12,6.85,8.57,4-9.88,4-9.88S192.47,289.38,187.86,289.62Z" class="cls-25 path226" style=""></path>
<path d="M103.23,450l14.54,28.1H104c-1.25,0-2.44,0-3.57.08l-.19,10.92h22.46l4.9,10.9h12.2l-23.65-50Z" class="cls-29 path283" style=""></path>
<path d="M100,489.1h.24l.19-10.92c-8.08.39-13.06,2.1-15.43,4.12L99.9,450h-12L63.67,500h11.8l1.9-3.5C79.07,493.4,86.37,489.1,100,489.1Z" class="cls-29 path282" style=""></path>
<polygon points="101.34 424.1 91.87 424.1 95.97 433.3 87.88 450 99.9 450 100.93 447.77 101.34 424.1" class="cls-29 polygon9" style=""></polygon>
<polygon points="101.34 424.1 100.93 447.77 101.47 446.6 103.23 450 116.12 450 103.87 424.1 101.34 424.1" class="cls-29 polygon10" style=""></polygon>
<path d="M199,401.5c.1-.49.19-1,.28-1.5h-5.15a12.27,12.27,0,0,0,.81.93l.57.57a16.52,16.52,0,0,0,1.6,1.32,17.07,17.07,0,0,0,1.47,1c.05-.24.09-.49.14-.74C198.79,402.55,198.89,402,199,401.5Z" class="cls-17 path48" style=""></path>
<path d="M200.69,392.18a26.31,26.31,0,0,1-9.38-.54h0s-.18,4.69,1.82,6.88h.43l0,.05a37.83,37.83,0,0,0,5.91.21l.12-.63C200,396.18,200.35,394.17,200.69,392.18Z" class="cls-18 path49" style=""></path>
<path d="M199.49,398.79a37.83,37.83,0,0,1-5.91-.21l-.45-.06a9.26,9.26,0,0,0,1,1.48h5.15C199.34,399.6,199.41,399.2,199.49,398.79Z" class="cls-17 path47" style=""></path>
<path d="M200.69,392.18c.51-2.94.95-5.83,1.22-8.44l-.23-.12a.53.53,0,0,1,.33-1q.06-.67.09-1.32l0-1.72a.51.51,0,0,1,0-1v-.8c-1.39-3.27-2.71-6.47-3.74-9.28,0,0,0,.05-.06.06-3,2-7.22,3.94-11.13,3.18a38,38,0,0,1,2.25,8.28,83,83,0,0,0,1.83,11.6A26.31,26.31,0,0,0,200.69,392.18Z" class="cls-22 path62" style=""></path>
<path d="M198.36,368.58s0,0,.06-.06a.49.49,0,0,0-.3-.83.44.44,0,0,0-.32.08c-2.91,2-7.17,4-11,2.9h-.06a.48.48,0,1,0-.24.92c.24.07.48.13.73.18C191.14,372.52,195.41,370.58,198.36,368.58Z" class="cls-20 path65" style=""></path>
<path d="M202.07,374.08a9.7,9.7,0,0,1-.58-1c-.27-.51.17-1.42.5-1.25-.23-5.54-.61-12.8-1-20.35,0-.5-.05-1-.08-1.5h-6.67c.09.5.17,1,.26,1.5.43,2.47.88,4.74,1.31,6.77.22-.57.79.38.57,1-.07.19-.16.38-.24.56.53,2.36,1,4.34,1.43,5.91h0a.47.47,0,0,1,.2.92l.23.87.08.21a.49.49,0,0,1,.3.83c1,2.81,2.35,6,3.74,9.28v-.14C202.15,376.62,202.12,375.42,202.07,374.08Z" class="cls-1 path115" style=""></path>
<path d="M202,371.85c-.33-.17-.77.74-.5,1.25a9.7,9.7,0,0,0,.58,1c.05.07.11.14.15.21l0-2.05c0-.08-.1-.16-.14-.25A.36.36,0,0,0,202,371.85Z" class="cls-20 path76" style=""></path>
<path d="M202,382.65a.53.53,0,0,0-.33,1l.23.12.15.08,0-1.14Z" class="cls-20 path73" style=""></path>
<path d="M202.13,379.61l0-1A.51.51,0,0,0,202.13,379.61Z" class="cls-20 path75" style=""></path>
<path d="M197.8,367.77a.44.44,0,0,1,.32-.08l-.08-.21-.23-.87a.53.53,0,0,1-.17,0,22.89,22.89,0,0,1-7.34-.68,20.6,20.6,0,0,1-4.54,1.9h-.13c.19.43.36.86.55,1.3h0c.22.5.42,1,.62,1.49C190.63,371.74,194.89,369.73,197.8,367.77Z" class="cls-22 path60" style=""></path>
<path d="M190.3,366a22.89,22.89,0,0,0,7.34.68.53.53,0,0,0,.17,0,.47.47,0,0,0-.2-.92h0a21.52,21.52,0,0,1-6-.52,12.8,12.8,0,0,0,4.56-5.39c.08-.18.17-.37.24-.56.22-.58-.35-1.53-.57-1h0a14,14,0,0,1-5.68,6.54A17,17,0,0,1,183,361c-.09-.08-.15-.1-.19-.08-.2.06,0,.92.34,1.29l.24.21a15.37,15.37,0,0,0,5.49,3.16,17.83,17.83,0,0,1-3.43,1.41.67.67,0,0,0-.17.08.48.48,0,0,0,.35.85h.13A20.6,20.6,0,0,0,190.3,366Z" class="cls-20 path66" style=""></path>
<path d="M191.58,365.18a21.52,21.52,0,0,0,6,.52c-.41-1.57-.9-3.55-1.43-5.91A12.8,12.8,0,0,1,191.58,365.18Z" class="cls-22 path64" style=""></path>
<path d="M188.88,365.54a15.37,15.37,0,0,1-5.49-3.16q.9,2.31,1.89,4.65a.67.67,0,0,1,.17-.08A17.83,17.83,0,0,0,188.88,365.54Z" class="cls-22 path59" style=""></path>
<path d="M190.13,364.81a14,14,0,0,0,5.68-6.54h0c-.43-2-.88-4.3-1.31-6.77-.09-.49-.17-1-.26-1.5H179.18c.15.5.29,1,.44,1.5.94,3.07,2,6.19,3.19,9.38,0,0,.1,0,.19.08A17,17,0,0,0,190.13,364.81Z" class="cls-22 path267" style=""></path>
<path d="M192.6,301.5c.06-.5.14-1,.2-1.5H173.11l-.09,1.5a147.22,147.22,0,0,0,6.16,48.5h15.06C192.1,337.31,190.43,319.82,192.6,301.5Z" class="cls-22 path265" style=""></path>
<path d="M134,226.6c-.21,1.89.21,4.71,1.56,6a6.65,6.65,0,0,0,1,.72c.25-1.52.5-2.93.69-4a14.59,14.59,0,0,1-.33-1.65C136.62,225.27,134.22,224.71,134,226.6Z" class="cls-1 path125" style=""></path>
<path d="M38.07,467.2H50.58l.19-11.1H38.07c-4.9,0-9.6.3-14.1,2.9v-9H13.07v50H24V470.1C28.47,467.7,33.27,467.2,38.07,467.2Z" class="cls-29 path281" style=""></path>
<polygon points="54.37 467.2 54.37 456.1 50.77 456.1 50.58 467.2 54.37 467.2" class="cls-29 polygon6" style=""></polygon>
<polygon points="51.12 436.4 51.31 425.4 13.07 425.4 13.07 450 23.97 450 23.97 436.4 51.12 436.4" class="cls-29 polygon8" style=""></polygon>
<polygon points="65.57 436.4 65.57 425.4 51.31 425.4 51.12 436.4 65.57 436.4" class="cls-29 polygon7" style=""></polygon>
</svg>