<?xml version="1.0" encoding="utf-8"?>
<!--Generator: Adobe Illustrator 22.0.1, SVG Export Plug-In . SVG Version: 6.00 Build 0)-->
<svg xmlns="http://www.w3.org/2000/svg" xmlns:xlink="http://www.w3.org/1999/xlink" id="Layer_1" x="0px" y="0px" style="enable-background:new 0 0 436.5 437.1" version="1.1" viewBox="0 0 436.5 437.1" xml:space="preserve">
    <style type="text/css">
         .st0{fill:#1D0B00; stroke:#1D0B00;} .st1{fill:#A47B52; stroke:#A47B52;} .st2{fill:#41200B; stroke:#41200B;} .st3{fill:#040404; stroke:#040404;} .st4{fill:#F2DE7E; stroke:#F2DE7E;} .st5{fill:#624C2A; stroke:#624C2A;} .st6{fill:#181818; stroke:#181818;} .st7{fill:#343434; stroke:#343434;} .st8{fill:#A1A0A0; stroke:#A1A0A0;} .st9{fill:#210800; stroke:#210800;} .st10{fill:#FEFEFE; stroke:#FEFEFE;} .st11{fill:#030303; stroke:#030303;} .st12{fill:#211D19; stroke:#211D19;} .st13{fill:#1F1B17; stroke:#1F1B17;} .st14{fill:#505050; stroke:#505050;} .st15{fill:#E3E3E3; stroke:#E3E3E3;} .st16{fill:#323232; stroke:#323232;} .st17{fill:#F9F9F9; stroke:#F9F9F9;} .st18{fill:#A09F9E; stroke:#A09F9E;} .st19{fill:#634D2C; stroke:#634D2C;} .st20{fill:#010101; stroke:#010101;} .st21{fill:#020202; stroke:#020202;} .st22{fill:#4B4B4B; stroke:#4B4B4B;} .st23{fill:#ABABAB; stroke:#ABABAB;} .st24{fill:#AAAAAA; stroke:#AAAAAA;}
    </style>
    <title>
        wassupfilm
    </title>
    <path d="M175.4,35.5c0.7-0.7,1.1-0.4,1.6,0.3c2.9,4.1,6.1,8,9.5,11.8l12,10.9l0.5-0.5c-7.1-7.3-14-14.7-20-22.9
	c-0.9-1.2-0.7-1.7,0.5-2.4c10.5-6.5,22.9-9.2,35.2-7.6l-2.5-2.4c-8-0.5-16,0.7-23.5,3.4c-5.8,2-11.2,5-16.1,8.8l1.7,1.5L175.4,35.5z
	" class="path135" style=""></path>
<path d="M220.8,26.1c0.9,0.2,2,0,1.4,1.7l-1.1,3.2l1.7,1.6l1.3-3.8c0.3-0.7,0.2-1.8,1.4-1.3l2.8,1.1l1.7-1.7
	c-5.7-2.3-11.8-3.7-17.9-4.1l2.5,2.4C216.7,25.3,218.8,25.7,220.8,26.1z" class="path133" style=""></path>
<path d="M231.8,29.9c1.1,0.4,0.5,1.1,0.3,1.7c-1.1,2.2-2,4.5-2.9,6.7l1.7,1.6c0.9-2.3,1.8-4.5,2.7-6.7c1-2.2,1.5-1.7,3-0.8
	c7.9,4.7,14.5,11.3,19.2,19.2l1.5-1.5c-6.4-10.4-16-18.5-27.2-23.2l-1.7,1.7L231.8,29.9z" class="path136" style=""></path>
<path d="M261,67.4l4.1,3.8c-1.1-7.5-3.8-14.7-7.8-21.2l-1.5,1.5c2.4,4,4.3,8.3,5.7,12.8C262.1,66.1,261.8,67,261,67.4z" class="path138" style=""></path>
<path d="M221.2,30.9l-6.5-5.9c-12.2-1.5-24.6,1.2-35.2,7.6c-1.2,0.7-1.4,1.1-0.5,2.4c6,8.2,12.8,15.6,20,22.9
	l19.3-19.2L221.2,30.9z" class="st10 path307" style=""></path>
<path d="M222.2,27.8c0.6-1.7-0.5-1.5-1.4-1.7c-0.9-0.2-4.1-0.8-6.2-1.1l6.5,5.9L222.2,27.8z" class="st10 path308" style=""></path>
<path d="M228.4,28.5l-2.8-1.1c-1.2-0.4-1.1,0.6-1.4,1.3l-1.3,3.8l0.8,0.7L228.4,28.5z" class="st10 path350" style=""></path>
<path d="M229.2,38.2c0.9-2.2,1.8-4.5,2.9-6.7c0.3-0.6,0.8-1.2-0.3-1.7l-3.4-1.4l-4.7,4.7L229.2,38.2z" class="st10 path347" style=""></path>
<path d="M221.9,35c0.4-0.8,0.6-1.7,1-2.5l-1.7-1.6l-2.9,7.7L221.9,35z" class="path132" style=""></path>
<path d="M221.9,35c-0.4,1-0.7,2-1.1,3c-3.4,8.7-7.3,17.1-11.5,25.6c-0.6,1.3-1,2.2,1.1,2.4c2.1,0.2,5.9,1.8,8.4,4
	c2.1-6.8,4-13.2,6.1-19.6c1.3-4,2.7-8.1,4.3-12l-5.5-5L221.9,35z" class="st10 path348" style=""></path>
<path d="M223.6,33.2l-0.8-0.7c-0.4,0.8-0.6,1.7-1,2.5L223.6,33.2z" class="st10 path349" style=""></path>
<path d="M255.8,51.5c-4.8-7.9-11.4-14.4-19.2-19.2c-1.5-0.9-2.2-1-3,0.8c-0.8,1.8-1.8,4.4-2.7,6.7L250,57.3L255.8,51.5
	z" class="st10 path315" style=""></path>
<path d="M218.3,38.7l-19.3,19.2l7.2,7.3C210.4,56.3,214.7,47.6,218.3,38.7z" class="st10 path306" style=""></path>
<path d="M208.9,67.9c6.3,0.1,11.4,4.9,12,11.2l2,1.8c0.1-0.1,0.1-0.2,0.1-0.3c0.4-2.9-0.8-5.7-2.2-8.6c5.1,0,10-0.1,14.9-0.3
	l2.2-2.2h-0.4c-1.7,0.1-3.5,0-5.3,0v0.4H223c-1.5,0-1.9-0.4-1.5-1.8c2.8-9.6,5.7-19.1,9.3-28.4l-1.7-1.6c-1.6,4-3,8-4.3,12
	c-2,6.4-4,12.8-6.1,19.6c-2.5-2.2-5.3-3.8-8.4-4c-3.2-0.2-1.8-1.1-1.1-2.4c4.2-8.4,8.1-16.9,11.5-25.6c0.4-1,0.8-2,1.1-3l-3.6,3.7
	c-3.6,9.1-7.8,17.8-12.1,26.7l-7.2-7.3l-0.5,0.5l10.3,9.4H208.9z" class="path121" style=""></path>
<path d="M223,70.1h9.1v-0.4c1.8,0,3.6,0.1,5.3,0h0.4L250,57.5l-19.2-17.7c-3.6,9.3-6.5,18.8-9.3,28.4
	C221.1,69.6,221.5,70.1,223,70.1z" class="st10 path313" style=""></path>
<path d="M261,67.4l-11-10.1l-12.2,12.2l21.4-1.7C259.8,67.8,260.4,67.7,261,67.4z" class="st10 path314" style=""></path>
<path d="M261,67.4c0.8-0.4,1.1-1.3,0.5-3.1c-1.4-4.5-3.3-8.8-5.7-12.8l-5.8,5.8L261,67.4z" class="st10 path312" style=""></path>
<path d="M259.2,67.9l-21.4,1.7l-2.2,2.2l5.5-0.3c6.8-0.4,13.5-0.8,20.2-2.3c1.1-0.3,1.4,0.2,1.6,1.1c0.1,0.2,0.1,0.3,0.1,0.5
	c1.3,6.7,1.3,6.8-5.4,7.3c-10.8,1-21.5,2.6-32.1,4.8h-0.4l1.8,1.7c9.2-1.7,18.5-3.3,27.8-4.3l4.1-0.3c5.1,0,5.2,0,4.7,5.1
	c-0.4,3.8-1.2,7.6-2.3,11.2l2.8-2.8c1.5-6.1,2-12.4,1.4-18.6c-0.1-1.3-0.3-2.5-0.4-3.7l-4.1-3.8C260.4,67.7,259.8,67.8,259.2,67.9z" class="path137" style=""></path>
<path d="M235.6,71.7c-4.8,0.2-9.8,0.3-14.9,0.3c1.4,2.9,2.6,5.7,2.2,8.6c0,0.1,0,0.2-0.1,0.3l1.9,1.8L235.6,71.7z" class="st10 path354" style=""></path>
<path d="M225.2,83h0.4c10.6-2.3,21.3-3.9,32.1-4.9c6.7-0.5,6.7-0.6,5.4-7.3c0-0.2,0-0.4-0.1-0.5
	c-0.2-0.9-0.4-1.3-1.6-1.1c-6.7,1.5-13.4,1.8-20.2,2.3l-5.5,0.3l-10.8,10.9L225.2,83z" class="st10 path353" style=""></path>
<path d="M261.3,96.4c1.1-3.7,1.9-7.4,2.3-11.2c0.4-5.1,0.4-5.1-4.7-5.1l-4.1,0.3c-9.3,1-18.5,2.6-27.8,4.3l24.1,22.1
	L261.3,96.4z" class="st10 path320" style=""></path>
<path d="M256.4,111.5c3.6-5.5,6.2-11.5,7.7-17.9l-2.8,2.8c-1.5,4.9-3.6,9.5-6.4,13.8L256.4,111.5z" class="path127" style=""></path>
<path d="M254.9,110.2c2.8-4.3,4.9-8.9,6.4-13.8l-10.3,10.3L254.9,110.2z" class="st10 path322" style=""></path>
<path d="M298.3,160.4l3.4-3.4C299,157.1,298.5,157.7,298.3,160.4z" class="st5 path103" style=""></path>
<path d="M301.8,157l-3.4,3.4c-0.1,0.8-0.1,1.6-0.1,2.4c-0.1,1.8-0.7,2.1-2.3,2.1h-2.1l-8.8,8.8c0,4.2,0.1,8.3,0.1,12.6
	l19.8,18.1l13.4-13.5c0-7.5,0-15,0.1-22.5L306,156.9L301.8,157L301.8,157z" class="st5 path104" style=""></path>
<path d="M318.5,165.7c0-4.1,0.2-4.2,4.2-4.3c8.4-0.1,16.8,0.2,25.2-0.1l0,0c-8.7,0-17.4-0.1-26.2,0
	c-1.7,0-2.7-0.3-2.3-2.2c0.4-1.9-0.8-2.2-2.4-2.1H306l12.5,11.3V165.7z" class="st5 path108" style=""></path>
<path d="M322.7,161.4c-4,0.1-4.2,0.2-4.2,4.3v2.5l0.9,0.9v-4.4c-0.1-2.5,0.8-3.1,3.2-3.1c7.9,0.2,15.8,0.1,23.7,0.1h1.1
	l0.5-0.4C339.5,161.6,331.1,161.3,322.7,161.4z" class="st5 path114" style=""></path>
<path d="M322.5,161.6c-2.4,0-3.3,0.5-3.2,3.1v4.4l10.8,9.8l17.2-17.2h-1.1C338.3,161.7,330.4,161.8,322.5,161.6z" class="st2 path66" style=""></path>
<path d="M351.4,157.7v0.4c0.1,1.4-0.8,2.8-2.2,3.2c-0.5,0.5-1.2,0.7-1.8,0.5L330.2,179l26.4,24.1l25.2-25.2l-25.8-23.6
	h-1L351.4,157.7z" class="st2 path60" style=""></path>
<path d="M351.4,157.7l3.5-3.5C352.9,154.4,351.6,155.2,351.4,157.7z" class="st2 path61" style=""></path>
<path d="M373.9,154.2h-18l25.8,23.6l25.3-25.2l-8.8-8l-19.5,8.6C377.2,153.9,375.6,154.2,373.9,154.2z" class="st2 path68" style=""></path>
<path d="M410.9,148.6v-2.5c0-4.5-1.8-6.3-6.6-4.2l-6.1,2.7l8.8,8L410.9,148.6z" class="st2 path69" style=""></path>
<path d="M381.7,177.8l26.4,24.1l2.7-2.7c0-14.3,0-28.7,0.1-43.1l-3.9-3.5L381.7,177.8z" class="st2 path54" style=""></path>
<path d="M381.7,177.8L356.5,203l20.7,18.9l1.1,0.4l6.7,2.8l23.2-23.2L381.7,177.8z" class="st2 path63" style=""></path>
<path d="M410.9,156.1v-7.5l-3.9,4L410.9,156.1z" class="st2 path67" style=""></path>
<path d="M384.9,225.1l19.7,8c4.4,1.8,6.2,0.6,6.2-4.1v-24.6l-2.7-2.5L384.9,225.1z" class="st2 path64" style=""></path>
<path d="M410.8,204.4v-5.2l-2.7,2.7L410.8,204.4z" class="st2 path59" style=""></path>
<path d="M319.3,169.1l-0.9-0.9c-0.1,7.5-0.1,15-0.1,22.5l1.1-1C319.3,182.8,319.3,176,319.3,169.1z" class="st5 path115" style=""></path>
<path d="M319.4,189.8l10.7-10.8l-10.8-9.8C319.3,176,319.3,182.8,319.4,189.8z" class="st2 path62" style=""></path>
<path d="M319.4,189.8c0,8.3-0.1,16.5-0.1,24.7c5.8-0.2,5.9-0.1,5.9,5.5v2.8l6.1,5.5l2.2-2.3v-9.2c0-2.5,1.1-3.8,3.7-3.8
	h9.3l10-10L330.2,179L319.4,189.8z" class="st2 path58" style=""></path>
<path d="M348,213.1c2.5,0,3.5,1.2,3.6,3.6s0.8,4.4,4.6,4.5H372c1.8-0.1,3.5,0.2,5.2,0.8L356.5,203l-10,10H348z" class="st2 path65" style=""></path>
<path d="M285.1,169.4v4.2l8.8-8.8h-8.1c-1-0.1-2.1,0.3-2.7,1.1l0,0C284.8,166.4,285.1,167.9,285.1,169.4z" class="st5 path109" style=""></path>
<path d="M318.5,210.7c-0.1-6.7-0.1-13.3-0.1-20l-13.4,13.5l14,12.7c0.5-0.4,0.7-1.2,0.4-2.5
	C319.1,213.1,318.5,212,318.5,210.7z" class="st5 path106" style=""></path>
<path d="M318.5,210.7c0,1.3-0.2,2.7,0.9,3.8c0-8.2,0.1-16.4,0.1-24.7l-1.1,1C318.4,197.4,318.4,204,318.5,210.7z" class="st5 path116" style=""></path>
<path d="M325.2,234.3v2.9c0,3.3,1.3,4.7,4.3,4.7s4-1.2,4-4.6v-6.9l-2.2-2L325.2,234.3z" class="st2 path56" style=""></path>
<path d="M325.2,222.8v11.5l6.1-6L325.2,222.8z" class="st2 path55" style=""></path>
<path d="M333.5,230.4v-4.3l-2.2,2.3L333.5,230.4z" class="st2 path57" style=""></path>
<path d="M355.8,250.8h-13.5c-1.6,0-2.5,0-2.5,2.1s0.7,2.1,2.4,2.1H355l2.6-2.5L355.8,250.8z" class="st7 path200" style=""></path>
<path d="M360.4,255h22.5c1.6,0,2.5-0.1,2.5-2.1s-0.8-2.1-2.4-2.1c-6.9,0.1-13.7,0-20.6,0h-3.2l-1.6,1.7L360.4,255z" class="st7 path201" style=""></path>
<path d="M357.7,252.4l1.6-1.7h-3.4L357.7,252.4z" class="st7 path198" style=""></path>
<path d="M355,255h5.4l-2.7-2.5L355,255z" class="st7 path199" style=""></path>
<path d="M403.5,342.8h-25.7c-6.5,0-6.4,0-6.3,6.5c0,2.1,0.8,2.5,2.6,2.5c3.4-0.1,6.9,0.1,10.2-0.1
	c3.3-0.2,3.1,0.5,3.1,2.9c-0.2,6.5-0.1,13-0.1,19.5l10.5-10.5v-8.9c-0.1-2.2,0.4-3.3,2.8-3c2.4,0.3,4.7,0,7,0h1.9l1.8-1.7
	L403.5,342.8z" class="st4 path182" style=""></path>
<path d="M410.4,342.7h-6.9l7.9,7.2l2.2-2.3c0.1-0.6,0.1-1.2,0.1-1.8C413.8,343.2,412.9,342.7,410.4,342.7z" class="st4 path180" style=""></path>
<path d="M412.7,351.1c0.7-0.5,0.9-1.5,1-3.4l-2.2,2.3L412.7,351.1z" class="st4 path181" style=""></path>
<path d="M409.7,351.7c1.5,0,2.5-0.1,3-0.5l-1.2-1.1L409.7,351.7z" class="st4 path179" style=""></path>
<path d="M387.4,376.3l10.5,9.7v-22.4l-10.5,10.5V376.3z" class="st4 path184" style=""></path>
<path d="M387.4,378.3v19.6c0,7.6,0,7.6,7.6,7.6c2.5,0.1,3.1-0.8,3.1-3.2c-0.1-5.4-0.1-11-0.1-16.4l-10.5-9.7V378.3z" class="st4 path183" style=""></path>
<path d="M166.4,43.7c1.2-1.5,1.8-1.8,3.4-0.1c6.8,7.8,13.2,15.9,19.2,24.3l1.5-1.5l-1.8-2.4c-5.7-7.8-11.4-15.7-18.4-22.6
	c-0.9-0.8-0.6-1.3,0.1-1.8l3.8-3.3l-1.7-1.5c-9.7,7.7-16.6,18.3-19.8,30.2l1.7,1.5C156.6,58.1,160.7,50.3,166.4,43.7z" class="path125" style=""></path>
<path d="M186.5,47.6l-12.2-11.2l-3.8,3.3c-0.7,0.5-1,1.1-0.1,1.8c6.9,6.9,12.7,14.8,18.4,22.6l1.8,2.4l7-7
	C193.7,55.5,190,51.6,186.5,47.6z" class="st10 path345" style=""></path>
<path d="M177,35.8c-0.4-0.7-0.9-1-1.6-0.3l-1.1,0.9l12.2,11.2C183.1,43.8,179.9,39.9,177,35.8z" class="st10 path346" style=""></path>
<path d="M204.2,66.4c-2.2-2.4-4.5-4.7-6.7-6.9l-7,7l5.2,7.2C197.5,70.2,200.5,67.6,204.2,66.4z" class="st10 path344" style=""></path>
<path d="M198.4,58.5l-12-10.9c3.5,4,7.2,7.9,11.1,11.9L198.4,58.5z" class="path122" style=""></path>
<path d="M193.1,74c-5.1,1.8-10.2,3.5-15.4,5.1l-3.1,3.1c5.9-1.8,11.8-3.7,17.7-5.6l2.4-0.7c-0.9,3.5-0.7,7.3,0.8,10.6l-16.3,2.7
	l1.9,1.8c4.2-0.8,8.5-1.5,12.9-2.1c1-0.1,2-0.5,1.6,1.5c-0.7,3.9-1.5,7.8-2.4,11.7l1.7,1.6c1.1-4.4,2-8.8,2.7-13.3
	c1.5,0.3,2.2,1.5,3.3,2.1c4.3,2.3,8.6,2.8,12.8,1.1l10.4-10.4c-1.1,0-1.5-0.4-1.3-2.3l-2-1.8c0,0.4,0.1,0.9,0.1,1.3
	c-0.1,6.8-5.6,12.2-12.4,12.1c-6.7,0.1-12.2-5.3-12.2-12c0-0.1,0-0.3,0-0.4c0-6.9,5.4-12,12.4-12.1l-10.3-9.4l-0.9,1
	c2.2,2.3,4.5,4.6,6.7,6.9c-3.7,1.2-6.7,3.9-8.5,7.3l-5.2-7.2l-1.5,1.5l2.8,4L193.1,74z" class="path123" style=""></path>
<path d="M196.3,80c-0.2,6.7,5.1,12.3,11.8,12.5c0.1,0,0.3,0,0.4,0c6.8,0,12.3-5.4,12.4-12.1c0-0.4-0.1-0.9-0.1-1.3
	l-12.1-11.2C201.7,67.9,196.3,73.1,196.3,80z M208.6,87.7c-4.2,0-7.6-3.4-7.6-7.6c0-4.2,3.4-7.6,7.6-7.6c4.2,0,7.6,3.4,7.6,7.6
	c0,0.1,0,0.1,0,0.2C215.9,84.4,212.7,87.6,208.6,87.7z" class="st14 path372" style=""></path>
<path d="M209,76.7c-2.2-0.1-3.4,1.1-3.5,3.3c-0.2,1.7,0.9,3.2,2.6,3.5c0.2,0,0.4,0,0.6,0c2.2,0.2,3.3-1.2,3.5-3.3
	C212.4,78.1,211.1,76.8,209,76.7z" class="st24 path396" style=""></path>
<path d="M208.6,72.6c-4.2,0-7.6,3.4-7.6,7.6c0,4.2,3.4,7.6,7.6,7.6c0,0,0,0,0,0c4.2,0,7.6-3.4,7.6-7.6
	C216.2,76,212.8,72.6,208.6,72.6C208.6,72.6,208.6,72.6,208.6,72.6z M208.5,85.4c-2.8,0.2-5.1-2-5.3-4.7c0-0.2,0-0.4,0-0.6
	c-0.2-2.7,1.9-5,4.6-5.2c0.2,0,0.5,0,0.7,0c2.9-0.1,5.2,2.2,5.3,5.1c0,0.1,0,0.2,0,0.3c0.1,2.8-2.2,5.1-5,5.2
	C208.8,85.4,208.6,85.4,208.5,85.4L208.5,85.4z" class="st21 path392" style=""></path>
<path d="M208.6,74.9c-2.7-0.2-5.1,1.7-5.3,4.5c0,0.2,0,0.5,0,0.7c0.3,2.9,3,5.1,5.9,4.7c2.4-0.3,4.4-2.1,4.7-4.6
	c0.1-2.9-2.1-5.3-5-5.4C208.8,74.9,208.7,74.9,208.6,74.9z M208.7,83.6c-1.7,0.1-3.1-1.3-3.2-3c0-0.2,0-0.4,0-0.6
	c0.1-2.2,1.3-3.4,3.5-3.3c2.2,0.1,3.1,1.4,3.2,3.5C212.3,82.4,210.9,83.8,208.7,83.6z" class="st22 path394" style=""></path>
<path d="M208.9,67.9h-0.2L220.8,79C220.3,72.8,215.1,68,208.9,67.9z" class="st14 path371" style=""></path>
<path d="M222.8,80.9c-0.2,1.8,0.3,2.3,1.3,2.3l0.6-0.5L222.8,80.9z" class="st10 path352" style=""></path>
<path d="M221.8,86.3c6.1,10.3,13.4,19.6,21,28.7l1.5-1.5c-6.9-8.3-13.6-16.7-19.3-25.8c-1.1-1.8-1.1-2.4,1.2-2.8l0.8-0.2l-1.8-1.7
	l-1.1,0.2l-10.4,10.4c1-0.4,2-1,3-1.6C219.1,90.6,220.3,88.4,221.8,86.3z" class="path126" style=""></path>
<path d="M222.1,103.6c5.1,5.6,10,11.3,14.9,17.1l5.3-5.3c-7.4-8.9-14.6-17.9-20.5-28c-1.2,2-2.8,3.8-4.7,5.1
	c1.1,2.4,1,5.1-0.2,7.4C219.4,100,220.6,102,222.1,103.6z" class="st10 path324" style=""></path>
<path d="M221.8,87.5c5.9,10.1,13.1,19.2,20.5,28l0.5-0.5c-7.6-9.1-14.9-18.4-21-28.7c-1.5,2.1-2.7,4.3-5,5.6l0.3,0.6
	C219,91.2,220.6,89.5,221.8,87.5z" class="st10 path328" style=""></path>
<path d="M216.9,99.9c1.2-2.3,1.3-5,0.2-7.4l-0.2,0.2h-0.1L216.9,99.9L216.9,99.9z" class="st10 path329" style=""></path>
<path d="M219.9,102.6c-1-0.9-1.8-2.1-3.2-2.5c-1.4-0.4-1.1,1.6,0,2.4c6.6,6.3,12.4,13.3,18.2,20.3l1.6-1.6c-0.1,0-0.1,0-0.1-0.1
	C231,114.9,225.7,108.5,219.9,102.6z" class="path117" style=""></path>
<path d="M225,87.6c5.7,9.1,12.5,17.6,19.3,25.8l6.8-6.8L227,84.6l-0.8,0.2C223.8,85.3,223.8,85.8,225,87.6z" class="st10 path323" style=""></path>
<path d="M222.1,103.6c-1.5-1.6-2.6-3.6-5.2-3.7c0,0.1-0.1,0.1-0.1,0.2c1.4,0.4,2.2,1.6,3.2,2.5
	c5.8,5.9,11.1,12.3,16.5,18.5c0,0.1,0,0.1,0.1,0.1l0.4-0.4C232.1,115,227.1,109.3,222.1,103.6z" class="st10 path326" style=""></path>
<path d="M238.8,122.9c1.1,1.3,2.2,1.5,3.4,0.3l0.9-0.7c3-2.6,2.9-2.5,0.3-5.7l-1.1-1.2l-5.3,5.3L238.8,122.9z" class="st10 path325" style=""></path>
<path d="M249.9,116.8c1.8-2.1,3.5-4.3,5-6.6l-3.9-3.5l-6.8,6.8l3,3.7C248.6,118.8,249.2,117.7,249.9,116.8z" class="st10 path321" style=""></path>
<path d="M249.9,116.8c-0.7,0.9-1.3,2-2.6,0.4l-3-3.7l-1.5,1.5l2.7,3.2c1.3,1.5,1.1,2.2-0.3,3.4c-4.7,4.2-4.7,4.3-8.7-0.4l-1.6,1.6
	l3.4,4c-3.7,2.5-7.7,4.4-11.9,5.8l1.8,1.6c11.6-4.2,21.5-12.2,28.1-22.6l-1.5-1.3C253.4,112.5,251.7,114.7,249.9,116.8z" class="path130" style=""></path>
<path d="M243.3,116.7c2.6,3.2,2.7,3.1-0.3,5.7l-0.9,0.7c-1.2,1.2-2.3,1.1-3.4-0.3l-1.8-2.1l-0.4,0.4
	c4,4.7,4,4.6,8.7,0.4c1.3-1.2,1.6-1.9,0.3-3.4l-2.7-3.2l-0.5,0.5L243.3,116.7z" class="st10 path327" style=""></path>
<path d="M222.8,140.7c-5,0-4.8,0-5,5c-0.1,2.9,1,3.8,3.8,3.7c5.9-0.2,11.9,0.1,17.8-0.1c2.8-0.1,3.7,0.7,3.7,3.6v12.1
	l9.1-9.1l-16.7-15.2L222.8,140.7z" class="st0 path14" style=""></path>
<path d="M253.4,154.8c0-1.1,0-2.4,0.1-3.5c0.1-2.6-0.6-4.1-3.5-3.9c-2.9,0.3-3.3-1-2.9-3.3s-1.1-3.5-3.7-3.4h-7.9
	l16.7,15.2L253.4,154.8z" class="st0 path10" style=""></path>
<path d="M262.7,165.6h-5.7c-2.5,0.1-3.7-0.7-3.5-3.5c0.1-1.6,0.1-3.3,0-4.9l-1.2-1.1l-9.1,9.1c0,10.4,0,20.7-0.1,30.9
	l10.3,9.4l25.2-25.3L262.7,165.6z" class="st0 path31" style=""></path>
<path d="M284.1,174.6c0.1-1.8,0-3.4,0.1-5.2c0.1-1.2-0.3-2.5-1.1-3.4c-1.3-0.2-2.5-0.3-3.8-0.4h-16.6l15.9,14.5
	L284.1,174.6z" class="st0 path12" style=""></path>
<path d="M253.4,157.2v-2.4l-1.2,1.2L253.4,157.2z" class="st0 path9" style=""></path>
<path d="M284.1,185.2l1.1,1c0-4.2-0.1-8.3-0.1-12.6l-1,1V185.2z" class="st5 path112" style=""></path>
<path d="M278.6,180.1l5.5,5.1v-10.6L278.6,180.1z" class="st0 path13" style=""></path>
<path d="M284.1,174.6l1-1v-4.2c0-1.5-0.3-3-2-3.4l0,0c0.8,0.9,1.2,2.2,1.1,3.4C284.1,171.1,284.2,172.8,284.1,174.6z" class="st5 path110" style=""></path>
<path d="M270,209.7c3.8,0,7.6-0.1,11.4,0.1c0.8,0.1,1.6-0.2,2.2-0.7l0,0c0.4-0.9,0.6-1.8,0.5-2.8v-21.1l-5.5-5.1
	l-25.2,25.3l5.5,5.1l0.3,0.2l7.6,6.9c0-1.5,0-3-0.1-4.5S267.6,209.7,270,209.7z" class="st0 path30" style=""></path>
<path d="M284.1,206.3c0.1,1-0.1,1.9-0.5,2.8l0,0c1.3-0.5,1.5-1.8,1.5-2.9c0.1-6.7,0.1-13.4,0.1-20l-1.1-1V206.3z" class="st5 path111" style=""></path>
<path d="M285.2,186.2c0,6.7,0,13.4-0.1,20c0,1.1-0.2,2.4-1.5,2.9c2.9,0.8,5.8,0.4,8.7,0.4s5.2,0.1,5.6,1.8l7-6.9
	L285.2,186.2z" class="st5 path102" style=""></path>
<path d="M297.9,211.2c0.3,1.3,0.4,2.6,0.3,4c-0.1,2,0.7,2.4,2.5,2.3c5.3-0.1,10.5-0.2,15.8,0c0.8,0.2,1.7,0,2.5-0.4
	l-14-12.7L297.9,211.2z" class="st5 path107" style=""></path>
<path d="M303,250.8h-26.6c-1.5,0-2.4,0-2.4,1.9c0,1.9,0.4,2.4,2.3,2.3h28.3l1.4-1.4L303,250.8z" class="st7 path208" style=""></path>
<path d="M307.6,255h7.9c1.8,0,2.3-0.4,2.3-2.2s-0.7-2-2.2-2h-6.8l-2.8,2.8L307.6,255z" class="st7 path206" style=""></path>
<path d="M303,250.8l3,2.8l2.8-2.8H303z" class="st7 path207" style=""></path>
<path d="M304.6,255h3l-1.6-1.4L304.6,255z" class="st7 path209" style=""></path>
<path d="M329.6,244.8c-5,0-8.6,3.3-8.6,8.2c0,4.6,3.6,8.3,8.2,8.3c4.6,0,8.3-3.6,8.3-8.2
	C337.7,248.7,334.2,244.9,329.6,244.8C329.7,244.8,329.7,244.8,329.6,244.8z M329.2,256.6c-2.1-0.1-3.4-1.4-3.4-3.9
	c0-2.5,1.6-3.3,3.8-3.1c1.9,0.4,3.1,2.2,2.7,4.1C332,255.3,330.7,256.4,329.2,256.6z" class="st5 path205" style=""></path>
<path d="M329.5,249.6c-2.2-0.2-3.4,1.1-3.8,3.1c-0.4,1.9,1.3,3.8,3.4,3.9c1.9-0.2,3.3-1.9,3.1-3.8
	C332.2,251.2,331.1,249.9,329.5,249.6z" class="st18 path379" style=""></path>
<path d="M349.1,341.4c-4.8-0.4-9.7,0.6-13.9,2.9c-10.4,6-11.5,22.8,0.2,28.7l1.8,0.9l6.6-6.7c-1.5-0.7-2.8-1.7-4-2.9
	c-3.9-4-2.8-10.2,2.2-12.4c5-2.2,9.8-2.3,13.5,1.1c0.4,0.4,0.9,0.7,1.4,1l2.9-2.8L349.1,341.4z" class="st4 path152" style=""></path>
<path d="M359.9,351.1l3.9-4c-3.6-3.4-9.1-5.4-14.6-5.8L359.9,351.1z" class="st4 path150" style=""></path>
<path d="M362.3,353.4l0.3-0.2c0.7-0.5,1.4-0.8,2.1-1.1c1.8-0.6,2-1.4,0.7-3.1l-1.7-1.8l-3.9,4L362.3,353.4z" class="st4 path154" style=""></path>
<path d="M357,353.9c2,1.1,3.5,0.5,5.4-0.5l-2.5-2.3L357,353.9z" class="st4 path153" style=""></path>
<path d="M359,373.4c-3.4-1.7-6.9-3.1-10.5-4.3c-1.6-0.5-3.2-1.2-4.7-1.9l-6.6,6.7c2.3,1.2,4.6,2.2,6.9,3.2
	c3.1,1.2,6.2,2.3,9.1,4.1c3.9,2.6,5,7.9,2.5,11.8c-0.4,0.6-0.8,1.1-1.3,1.6l6.6,6l4.7-4.7C368.8,388.4,367.9,377.5,359,373.4z" class="st4 path151" style=""></path>
<path d="M361.8,401.2L361.8,401.2c1.7-1.5,3-3.3,3.8-5.4l-4.7,4.7L361.8,401.2z" class="st4 path155" style=""></path>
<path d="M354.3,394.5l-1.1,0.9c-4.3,3-13.1,3-16.8-0.8c-3.7-3.8-4.6-2.2-7-0.4c-0.6,0.5-1.3,0.9-2,1.1
	c-2.3,1-1.9,2.1-0.6,3.7c4.9,5.4,11.2,7.5,18.5,7.7c4.2,0,8.3-0.9,12.1-2.6l3.6-3.7L354.3,394.5z" class="st4 path156" style=""></path>
<path d="M357.3,404.1c1.6-0.8,3.1-1.8,4.5-2.9l-0.9-0.8L357.3,404.1z" class="st4 path149" style=""></path>
<path d="M189,67.9c-6-8.4-12.4-16.6-19.2-24.3c-1.6-1.8-2.2-1.4-3.4,0.1c-5.7,6.6-9.8,14.5-12,22.9l16,14.7l7.3-2.2
	L189,67.9z" class="st10 path309" style=""></path>
<path d="M193.1,74l-1.3-2l-2.8-4l-11.2,11.2C182.9,77.5,188,75.8,193.1,74z" class="st10 path311" style=""></path>
<path d="M194.7,75.9l-2.4,0.7c-5.9,1.9-11.8,3.9-17.7,5.6l-1.6,1.6l6.1,5.4l16.3-2.7C194.1,83.1,193.8,79.4,194.7,75.9
	z" class="st10 path356" style=""></path>
<path d="M194,88.9c-4.4,0.6-8.7,1.3-12.9,2.1l12.1,11.1c0.9-3.9,1.7-7.8,2.4-11.7C196,88.3,195,88.8,194,88.9z" class="st10 path318" style=""></path>
<path d="M200,107.3c0-3.9,0-7.7,0.1-11.6c-0.1-0.9,0-1.8,0.4-2.6c-2.3-1.5-2.4-1.4-2.9,1.5s-1.3,6.4-2.1,9.7l4,3.6
	L200,107.3z" class="st10 path362" style=""></path>
<path d="M197.6,94.6c0.5-2.9,0.6-3,2.9-1.5c0.1-0.2,0.2-0.4,0.4-0.6c-1.1-0.6-1.8-1.8-3.3-2.1
	c-0.7,4.5-1.6,8.9-2.7,13.3l0.6,0.6C196.3,101,197,97.8,197.6,94.6z" class="st10 path364" style=""></path>
<path d="M200,107.3l1-1v-13l-0.3-0.2h-0.2c-0.4,0.8-0.6,1.7-0.4,2.6C200,99.6,200,103.5,200,107.3z" class="st10 path366" style=""></path>
<path d="M200,107.3v1l1,0.9v-2.8L200,107.3z" class="st10 path368" style=""></path>
<path d="M216.4,102.9c-1.3-1.1-1.2-2.1,0.3-3h0.1v-7.2c-1.3,0.9-2.7,1.6-4.2,2L201,106.4v2.8l15.7,14.4
	c0-6.8,0.1-13.5,0.1-20.3C216.7,103.1,216.6,103,216.4,102.9z" class="st6 path158" style=""></path>
<path d="M212.6,94.8c-3.8,1.1-7.6,0.6-11.6-1.4v13L212.6,94.8z" class="st6 path161" style=""></path>
<path d="M212.6,94.8l1.2-1.2c-4.2,1.8-8.5,1.2-12.8-1.1v0.9C204.9,95.4,208.8,95.9,212.6,94.8z" class="st6 path163" style=""></path>
<path d="M216.8,92.7v-0.8c-0.9,0.6-1.9,1.2-3,1.6l-1.2,1.2C214.1,94.3,215.5,93.6,216.8,92.7z" class="st6 path167" style=""></path>
<path d="M216.8,100.1v-0.2h-0.1c-1.5,0.9-1.6,1.8-0.3,3c0.2,0.1,0.3,0.2,0.4,0.4v-0.8
	C215.7,101.7,216.2,100.9,216.8,100.1z" class="st6 path166" style=""></path>
<path d="M234.5,123.2c-5.6-6.5-11.1-13.1-17.1-19.3c0.2,1,0.3,2,0.3,3.1c0,5.8,0.1,11.7,0,17.5l8.2,7.5L234.5,123.2z" class="st10 path332" style=""></path>
<path d="M217.7,107c0-1,0-2.1-0.3-3.1l-0.6-0.6c0,6.8-0.1,13.5-0.1,20.3l1,0.9C217.7,118.7,217.7,112.8,217.7,107z" class="st10 path340" style=""></path>
<path d="M216.8,102.5c0.3,0.4,0.5,0.9,0.6,1.4c6.1,6.2,11.5,12.8,17.1,19.3l0.4-0.4
	C229.2,115.8,223.4,108.8,216.8,102.5z" class="st10 path339" style=""></path>
<path d="M225.9,132c3.1-1.1,6.2-2.4,9.1-4c1.6-1,2.2-1.8,0.8-3.3l-1.3-1.5L225.9,132L225.9,132z" class="st10 path334" style=""></path>
<path d="M235.8,124.7c1.4,1.6,0.8,2.4-0.8,3.3c-3,1.5-6,2.8-9.1,4l0.6,0.5c4.2-1.4,8.2-3.3,11.9-5.8l-3.4-4l-0.4,0.4
	L235.8,124.7z" class="st10 path338" style=""></path>
<path d="M156.3,99.9c-0.8-2-0.3-2.6,1.6-3.2l3.3-1l3-2.9c-2.5,0.6-4.9,1.4-7.3,2.2c-2.4,0.8-1.8,0.4-2.3-1.1
	c-1.8-6.3-1.8-6.4,4.2-7.6c4.5-0.9,9.1-2,13.4-3.3l-1.8-1.6c-4.8,1.3-9.7,2.5-14.6,3.4c-2.5,0.5-3-0.1-3.1-2.6
	c-0.1-5.2,0.4-10.4,1.7-15.5l-1.7-1.5c-1.8,6.7-2.4,13.6-1.8,20.5c0.5,5.6,1.8,11.1,4,16.3l1.6-1.5L156.3,99.9z" class="path129" style=""></path>
<path d="M152.8,82.1c0.1,2.5,0.6,3.2,3.1,2.6c4.9-0.9,9.8-2.1,14.6-3.4l-16-14.7C153.2,71.7,152.7,76.9,152.8,82.1z" class="st10 path310" style=""></path>
<path d="M172.2,82.9c-4.4,1.3-9,2.5-13.4,3.3c-6.1,1.2-6,1.3-4.2,7.6c0.4,1.5,0.7,1.8,2.3,1.1c1.6-0.6,4.8-1.6,7.3-2.2
	l9-9.1L172.2,82.9z" class="st10 path357" style=""></path>
<path d="M177.8,79.1l-7.3,2.2l1.8,1.6l2.5-0.7L177.8,79.1z" class="path131" style=""></path>
<path d="M174.7,82.2l-2.5,0.7l0.9,0.9L174.7,82.2z" class="st10 path358" style=""></path>
<path d="M179.2,89.2c-4,0.8-7.9,1.7-11.8,2.7l-3.3,0.9l-3,2.9c6.6-1.8,13.3-3.4,20-4.7L179.2,89.2z" class="path119" style=""></path>
<path d="M179.2,89.2l-6.1-5.4l-9,9.1l3.3-0.9C171.3,90.9,175.2,90,179.2,89.2z" class="st10 path355" style=""></path>
<path d="M178.1,129.2l1.5-1.5c-10.4-6.4-18.5-16-23-27.3l-1.6,1.5C159.7,113.2,167.7,122.7,178.1,129.2z" class="path134" style=""></path>
<path d="M189.3,115.8c1.6-4.6,2.8-9.1,4-13.8L181.1,91c-6.7,1.3-13.4,2.9-20,4.7l-4.6,4.7c4.5,11.4,12.6,21,23,27.3
	l8.5-8.5C188.6,118,188.9,117,189.3,115.8z" class="st10 path316" style=""></path>
<path d="M157.9,96.7c-1.8,0.5-2.4,1.1-1.6,3.2l0.3,0.5l4.6-4.7L157.9,96.7z" class="st10 path317" style=""></path>
<path d="M193.2,102c-1.1,4.7-2.4,9.2-4,13.8c-0.4,1.1-0.7,2.2-1.1,3.3l3.3-3.3c1.3-4,2.5-8.1,3.4-12.2L193.2,102z" class="path139" style=""></path>
<path d="M195.5,104.2c-0.9,3.5-1.8,7-3,10.5l6.9-6.9L195.5,104.2z" class="st10 path359" style=""></path>
<path d="M195.5,104.2l-0.6-0.6c-1,4.1-2.1,8.3-3.4,12.2l1.1-1.1C193.7,111.3,194.6,107.8,195.5,104.2z" class="st10 path365" style=""></path>
<path d="M184.5,128.1c1.3-2.9,2.5-5.9,3.6-8.9l-8.5,8.5l2.2,1.2C183.2,129.7,183.8,129.6,184.5,128.1z" class="st10 path319" style=""></path>
<path d="M200.9,135.2l-3.9-0.6c1.1-3.4,2.3-6.6,3.3-9.8c0.8-1.7,0.9-3.6,0.2-5.4l0,0c-1.6,4.1-3.3,8.3-4.8,12.5
	c-0.5,1.5-1.1,2.3-2.8,1.6c-1.8-0.7-5.4-1.1-6.5-2.6c-1.1-1.6,1.2-4.3,2-6.4c0.8-2.1,2.1-5.7,3.1-8.6l-3.3,3.3c-1.1,3-2.3,6-3.6,8.9
	c-0.7,1.5-1.3,1.7-2.7,0.9l-2.2-1.2l-1.5,1.5c6.9,4.3,14.7,7.1,22.8,8V135.2z" class="path124" style=""></path>
<path d="M198.8,121.7c-1,2.1-1.7,4.3-2.5,6.5c-2,5.2-2,5.1-7.3,3.2c-2-0.7-2.3-1.8-1.4-3.5c0.7-1.4,1.4-2.8,1.9-4.3
	c1.1-2.9,2.1-5.9,3-8.8l-1.1,1.1c-1,2.9-1.9,5.7-3.1,8.6c-1.1,2.9-3.3,4.6-2,6.4c1.3,1.8,4.3,1.8,6.5,2.6c2.2,0.9,2.3-0.1,2.8-1.6
	c1.6-4.2,3.3-8.3,4.8-12.5l0,0C199.4,119.8,199.2,120.9,198.8,121.7z" class="st10 path363" style=""></path>
<path d="M200,117.3v-9l-0.5-0.4l-6.9,6.9c-0.9,2.9-1.9,5.9-3,8.8c-0.6,1.5-1.2,2.9-1.9,4.3c-0.9,1.7-0.6,2.8,1.4,3.5
	c5.3,1.9,5.3,2,7.3-3.2c0.8-2.2,1.5-4.4,2.5-6.5c1-2.1,0.6-1.9,1.8-2.3C200.1,118.8,199.9,118,200,117.3z" class="st10 path360" style=""></path>
<path d="M200,117.3c-0.1,0.8,0.1,1.6,0.5,2.2l0,0c0.4-1.1,0.5-2.3,0.4-3.4v-6.9l-1-0.9V117.3z" class="st10 path367" style=""></path>
<path d="M197.9,134l2.4-6.3c0-0.8,0.4-1.6,0.3-2.5s-0.1-0.3-0.2-0.4c-1.1,3.2-2.2,6.3-3.3,9.8l3.9,0.6
	c0-0.2-0.1-0.3-0.1-0.4C199.9,134.3,198.9,134,197.9,134z" class="st17 path374" style=""></path>
<path d="M200.3,127.9c-0.1,2.3-0.7,4.7,0.5,6.9v0.2c-0.1-3,0.4-5.9-0.1-8.8l-0.5,1.5L200.3,127.9z" class="st17 path375" style=""></path>
<path d="M200.3,127.9v-0.2l-2.4,6.3c1,0,2,0.3,2.9,0.8C199.6,132.6,200.2,130.2,200.3,127.9z" class="st17 path373" style=""></path>
<path d="M216.8,137c-0.8-1.2-0.3-1.8,0.6-2.3c-0.6-0.3-0.8-1.1-0.8-1.9c0.1-3.1,0.1-6.2,0.1-9.2L201,109.2v6.9
	c0.1,1.2-0.1,2.3-0.4,3.4h0.2c1.7,1.7,1,3.5,0.6,5.4l-0.5,1.5c0.5,2.9,0,5.8,0.1,8.8l0.4,0.4c0.3,0.6,0.1,1.3-0.4,1.8V157l15.9-15.9
	L216.8,137z" class="st6 path160" style=""></path>
<path d="M200.8,126.2l0.5-1.5c0.4-1.8,1.1-3.7-0.6-5.4h-0.2c0.7,1.7,0.6,3.7-0.2,5.4c0.1,0.2,0.2,0.3,0.2,0.4
	L200.8,126.2z" class="st6 path165" style=""></path>
<path d="M225.8,131.9l-8.2-7.5v4.9c0,1.7,0.2,3.3,0.7,4.9L225.8,131.9L225.8,131.9z" class="st10 path333" style=""></path>
<path d="M218.4,134.3c-0.5-1.6-0.7-3.3-0.7-4.9v-4.9l-1-0.9c0,3.1,0,6.2-0.1,9.2c0,0.9,0.2,1.7,0.8,1.9l0.7-0.4H218.4z
	" class="st10 path341" style=""></path>
<path d="M224.6,133.2l-6.1,1.7c-0.7,0.6-2.2,0.7-1.8,2.2c1.6-0.2,3.2-0.5,4.8-0.9L224.6,133.2z" class="path118" style=""></path>
<path d="M218.4,134.3l0.2,0.5l6.1-1.7l1.1-1.1L218.4,134.3z" class="st10 path337" style=""></path>
<path d="M221.6,136.2c2.3-0.5,4.5-1.2,6.7-2l-1.8-1.6l-1.9,0.6L221.6,136.2z" class="path120" style=""></path>
<path d="M206.5,162.5c0.8-0.2,1.6-0.3,2.4-0.2c2.9,0.1,5.2,1.8,7.9,3.4V141l-15.9,15.9v0.5L206.5,162.5z" class="st6 path157" style=""></path>
<path d="M241,167.3v-12.4c0-2.6-1.1-3.7-3.7-3.7h-16.2c-2.6,0-3.5,1.2-3.4,3.9c0.2,6.2,0.9,12.5,1.6,18.6
	c0.1,0.2,0.1,0.5,0.1,0.7l7.6,6.9L241,167.3z" class="st1 path52" style=""></path>
<path d="M227,181.3l14,12.8c0-9,0.1-17.9,0.1-26.9L227,181.3z" class="st1 path35" style=""></path>
<path d="M199,151.4c-0.1-4.7-1.3-5.4-5.9-3.7l-1.9,0.8l7.9,7.3C199,154.3,199,152.9,199,151.4z" class="st1 path40" style=""></path>
<path d="M227,181.3l-7.6-6.9c0.3,5.6-3.9,10.5-9.5,10.8c-0.9,0.1-1.7,0-2.6-0.2c-7-1.2-10.7-6.2-9.1-13.7
	c0.8-4.2,1.1-8.4,1-12.7l-17.7,17.6h0.6c5.7,0,9.4,3.6,9.5,9.4c0,4,0.1,7.8,0.1,11.8l9.9,9.1L227,181.3z" class="st1 path46" style=""></path>
<path d="M227,181.3l-25.3,25.2l5.3,4.8h0.9c2.1-0.1,2.6,0.7,2.5,2.7v0.4l17.7,16.2l12.9-13v-23.6L227,181.3z" class="st1 path33" style=""></path>
<path d="M228,230.6l12.9,11.8v-24.7L228,230.6z" class="st1 path39" style=""></path>
<path d="M292.3,354c0-1.8,0.6-2.4,2.4-2.4h13l-9.8-9h-13.2c-2.2,0-2.9,0.5-2.8,2.8c0.1,9.4,0,18.9,0,28.4v2.5l1.1,1.1
	l9.7-9.7c-0.3-0.6-0.4-1.2-0.4-1.8C292.5,362,292.5,358,292.3,354z" class="st4 path140" style=""></path>
<path d="M314.2,342.7h-16.3l9.8,9h1.1l8-8.1C316.4,342.9,315.6,342.7,314.2,342.7z" class="st4 path144" style=""></path>
<path d="M310.7,351.7c6.4,0,6.2,0,6.3-6.2c0-0.6-0.1-1.2-0.3-1.8l-8,8.1L310.7,351.7z" class="st4 path142" style=""></path>
<path d="M292.4,386.1c0-2,0-4-0.1-6s0.6-2.2,2.2-2.2h14.7c6.2,0,6.2,0,6.2-6.4c0.1-2.5-0.9-3.1-3.2-3
	c-5.8,0.2-11.5,0-17.3,0.1c-1.2,0-1.9-0.2-2.3-0.9l-9.7,9.7L292.4,386.1z" class="st4 path148" style=""></path>
<path d="M303.3,396.1h-8.6c-1.8,0-2.5-0.4-2.5-2.3c0-1.8,0.1-5.2,0.1-7.8l-9.4-8.6l-1.1,1.1c0,8.1,0.1,16.2,0,24.3
	c0,2,0.5,2.6,2.6,2.6h21l3.9-3.9L303.3,396.1z" class="st4 path146" style=""></path>
<path d="M281.8,378.6l1.1-1.1l-1.1-1.1V378.6z" class="st4 path147" style=""></path>
<path d="M303.3,396.1l6,5.4l5.5-5.4H303.3z" class="st4 path141" style=""></path>
<path d="M313.5,405.4c4.7,0,4.7-0.7,4.7-6.5c0-2.2-0.5-2.9-2.8-2.8h-0.6l-5.5,5.4L313.5,405.4z" class="st4 path143" style=""></path>
<path d="M305.5,405.4h8.1l-4.2-3.9L305.5,405.4z" class="st4 path145" style=""></path>
<path d="M100,72.2c0.6,0.1,1.8-0.1,1.8,1.1c-1,2.8-1.8,5.4-2.9,8.1c-2.9,7.6-6.2,14.9-9.7,22.3l1.6,1.5
	c1.1-2.3,2.2-4.6,3.3-6.9c3.5-7.6,6.6-15.3,9.3-23.2c0.5-1.7,1.1-1.8,2.6-1.3c6.4,2.2,6.4,2.1,4.1,8.4s-5.2,14.4-7.7,21.8l3.5-3.6
	l7.4-20.7c0.3-0.8,0.5-1.3,0.9-1.5l-6.4-5.9c-6.5-2.5-13.5-3.7-20.5-3.7l-2.2,2.2C90.1,70.6,95.1,71.1,100,72.2z" class="st3 path80" style=""></path>
<path d="M89.2,103.7c3.4-7.4,6.8-14.8,9.7-22.3c1.1-2.6,1.9-5.3,2.9-8.1c0-1.2-1.2-1.1-1.8-1.1
	c-4.9-1.1-9.9-1.5-14.9-1.3L69.9,86.1L89.2,103.7z" class="st10 path253" style=""></path>
<path d="M102.4,104.1c2.5-7.4,5.2-14.6,7.7-21.8c2.5-7.2,2.3-6.2-4.1-8.4c-1.5-0.5-2.1-0.4-2.6,1.3
	c-2.7,7.9-5.8,15.6-9.3,23.2c-1.1,2.3-2.1,4.6-3.3,6.9l5.4,4.9L102.4,104.1z" class="st10 path276" style=""></path>
<path d="M114.2,78.2c-0.4,0.2-0.6,0.7-0.9,1.5l-7.4,20.7l15.6-15.6L114.2,78.2z" class="st10 path268" style=""></path>
<path d="M116.2,78.7c2.3,1.4,4.6,3.1,6.7,4.8l1.5-1.5c-5-4.1-10.6-7.4-16.6-9.7l6.4,5.9
	C114.6,77.9,115.3,78.1,116.2,78.7z" class="st3 path73" style=""></path>
<path d="M122.9,83.5c-2.1-1.8-4.3-3.4-6.7-4.8c-1-0.6-1.6-0.8-2-0.4l7.3,6.7L122.9,83.5z" class="st10 path267" style=""></path>
<path d="M122.9,83.5l-1.4,1.4L134.8,97C131.6,91.9,127.6,87.3,122.9,83.5z" class="st10 path265" style=""></path>
<path d="M134.8,97l4.7,4.3c-0.8-1.7-1.8-3.4-2.7-5.1c-3.3-5.4-7.5-10.2-12.4-14.2l-1.5,1.5
	C127.6,87.3,131.6,91.9,134.8,97z" class="st3 path77" style=""></path>
<path d="M100.9,114.4l1.8,1.8h0.4c12.9,0,25.7-0.9,38.5-2.7c-1.4-5.8-3.8-11.3-6.9-16.3l-13.3-12.1l-15.6,15.6l-4.7,13
	C101,113.7,101,114,100.9,114.4z" class="st10 path266" style=""></path>
<path d="M99.3,112.9l3.2-8.8l-6.2,6.1L99.3,112.9z" class="st10 path274" style=""></path>
<path d="M100.9,114.4c0-0.3,0.1-0.6,0.3-0.9l4.7-13l-3.5,3.6l-3.2,8.8L100.9,114.4z" class="st3 path86" style=""></path>
<path d="M140.1,115.5c0.5-0.1,0.9-0.1,1.4,0l2.3-2.4c-1-4.1-2.4-8-4.2-11.8l-4.7-4.3c3.1,5.1,5.4,10.6,6.9,16.3
	c-12.8,1.8-25.6,2.7-38.5,2.7h-0.4l2.3,2.1c9.5-0.3,18.8-0.6,28.1-1.7L140.1,115.5z" class="st3 path87" style=""></path>
<path d="M141.5,115.5c-0.5-0.1-0.9-0.1-1.4,0l-6.9,1.1c-9.3,1.1-18.6,1.4-28.1,1.7l9.8,8.9c5.8-1.1,11.6-1.9,17.5-2.5
	L141.5,115.5z" class="st10 path294" style=""></path>
<path d="M142.4,117c-0.2-1-0.5-1.4-1-1.5l-9.1,9.1l4.6-0.4C143.7,123.7,143.7,123.8,142.4,117z" class="st10 path293" style=""></path>
<path d="M143.7,113.1l-2.3,2.4c0.4,0.1,0.8,0.5,1,1.5c1.2,6.9,1.2,6.7-5.5,7.2l-4.6,0.4l-2.5,2.5
	c3.4-0.4,6.9-0.7,10.3-1c3.4-0.3,3.1,0.6,2.9,3c-0.3,6.8-1.9,13.4-4.7,19.6l1.6,1.5C145.3,138.6,146.6,125.5,143.7,113.1z" class="st3 path83" style=""></path>
<path d="M132.3,124.5c-5.9,0.6-11.7,1.5-17.5,2.5l1.9,1.8l13.1-1.8L132.3,124.5z" class="st3 path88" style=""></path>
<path d="M129.9,127l-13.1,1.8l5.9,5.4L129.9,127z" class="st10 path272" style=""></path>
<path d="M140.1,126c-3.4,0.3-6.9,0.5-10.3,1l-7.2,7.2l15.7,14.4c2.8-6.2,4.4-12.8,4.7-19.6
	C143.2,126.7,142.8,126,140.1,126z" class="st10 path270" style=""></path>
<path d="M199.2,158.7c-0.1-1-0.1-1.9-0.1-2.8l-7.9-7.3l-37,14.6l14.4,13.2h12.9L199.2,158.7z" class="st1 path37" style=""></path>
<path d="M272.1,252.8c-0.1-4.2-3.3-7.8-7.5-8.3l-9.1,9.1c0.1,0.9,0.3,1.9,0.7,2.7l4.8,4.4c0.9,0.4,1.9,0.5,2.8,0.5
	C268.5,261.2,272.1,257.4,272.1,252.8z M260.3,253c-0.1-1.7,1.1-3.3,2.9-3.4c0.1,0,0.2,0,0.4,0c2.1,0,3.4,1,3.7,3.1
	c0.3,2.1-1.3,3.7-3.3,3.8c-1.8,0.1-3.4-1.2-3.6-3.1C260.3,253.2,260.3,253.1,260.3,253z" class="st5 path204" style=""></path>
<path d="M267.2,252.6c-0.3-2.1-1.6-3.1-3.7-3.1c-1.7-0.1-3.2,1.3-3.3,3.1c0,0.1,0,0.2,0,0.4c-0.1,1.8,1.4,3.4,3.2,3.4
	c0.1,0,0.2,0,0.4,0C265.9,256.3,267.1,255,267.2,252.6z" class="st18 path378" style=""></path>
<path d="M255.4,253c0,0.2,0,0.4,0.1,0.6l9.1-9.1h-1C259,244.6,255.4,248.4,255.4,253C255.4,253,255.4,253,255.4,253z" class="st5 path202" style=""></path>
<path d="M85.1,70.8l2.2-2.2c-6.2,0.1-12.4,1.1-18.3,3.2c-3.4,1.2-6.7,2.6-9.8,4.4l1.6,1.5
	C68.3,73.6,76.6,71.2,85.1,70.8z" class="st3 path75" style=""></path>
<path d="M85.1,70.8c-8.5,0.4-16.9,2.7-24.3,6.9l9.1,8.3L85.1,70.8z" class="st10 path251" style=""></path>
<path d="M47.6,87.9c3.3,3.6,6.3,7.3,9.4,11.1l1.5-1.5c-2.7-3.3-5.6-6.7-8.6-9.8c-0.7-0.7-1-1.2-0.1-1.8l0.6-0.6
	c4.7-4.6,4.7-4.5,8.7,0.5c1.7,2.1,3.3,4.1,5.1,6.2l1.5-1.6c-2.5-2.8-4.9-5.8-7.1-8.8c-1.1-1.3-1-1.9,0.5-2.8l1.7-1l-1.6-1.5
	c-10.6,6-19,15.3-24,26.5l1.6,1.4C39.4,98.1,43.1,92.6,47.6,87.9z" class="st3 path85" style=""></path>
<path d="M60.8,77.7l-1.7,1c-1.5,0.9-1.6,1.5-0.5,2.8c2.2,3,4.7,6,7.1,8.8l4.2-4.2L60.8,77.7z" class="st10 path252" style=""></path>
<path d="M59.1,85.7c-4-5-4-5.1-8.7-0.5l-0.6,0.6c-0.9,0.6-0.6,1.1,0.1,1.8c3,3.2,5.9,6.5,8.6,9.8l5.7-5.6
	C62.4,89.8,60.8,87.8,59.1,85.7z" class="st10 path292" style=""></path>
<path d="M86.4,109.4l2.8-5.7L69.9,86.1l-4.2,4.2c5.9,6.9,12.3,13.4,18.6,20C85.9,111.7,86.1,110.3,86.4,109.4z" class="st10 path254" style=""></path>
<path d="M75,119.7c2-3.5,5.2-6.2,9-7.5c-2.6-2.5-5-4.7-7.3-6.9c-4.4-4.3-8.5-8.8-12.5-13.4l-5.7,5.6
	c3.9,4.7,7.6,9.8,11.1,14.8L75,119.7z" class="st10 path291" style=""></path>
<path d="M73.9,121.7c-0.4,3.5-0.7,6.9,0.7,10.1l1.7-1.7c-0.5-1.1-0.7-2.4-0.7-3.6c-0.1-6.7,5.2-12.3,11.9-12.5
	c0.1,0,0.2,0,0.4,0c1.3,0,2.7,0.2,4,0.5l1.7-1.7c-1.8-0.8-3.8-1.1-5.8-1.1l3.2-6.6l-1.6-1.5l-2.8,5.7c-0.4,0.9-0.5,2.3-2.1,0.8
	c-6.3-6.5-12.7-13-18.6-20l-1.5,1.6c4,4.7,8.1,9.1,12.5,13.4c2.3,2.3,4.7,4.4,7.3,6.9c-3.8,1.3-7,4-9,7.5l-5.4-7.5
	c-3.5-5-7.2-10-11.1-14.8L57,99c5.4,6.8,10.5,13.7,15.4,20.9c-4.5,1.6-9,3.1-13.5,4.4l1.8,1.7l9.9-3.2L73.9,121.7z" class="st3 path84" style=""></path>
<path d="M75.5,126.6c0,1.2,0.3,2.5,0.7,3.6l4.1-4c0.2-3.9,3.3-7.1,7.2-7.3l4.2-4.2c-1.3-0.4-2.6-0.5-4-0.5
	c-6.7-0.1-12.3,5.4-12.3,12.1C75.5,126.3,75.5,126.5,75.5,126.6z" class="st14 path302" style=""></path>
<path d="M88.5,129.7c1.8,0,3.3-1.5,3.3-3.2c0-0.1,0-0.1,0-0.2c-0.1-2-1.2-3.4-3.5-3.3c-1.8-0.1-3.3,1.3-3.4,3.1
	c0,0.1,0,0.2,0,0.4C84.9,128.8,86.4,129.7,88.5,129.7z" class="st23 path395" style=""></path>
<path d="M87.8,131.8c2.8,0.1,5.3-2.5,5.4-5.4s-2.2-5.4-5.3-5.4c-2.8-0.1-5.2,2-5.4,4.8c0,0.1,0,0.3,0,0.4
	C82.5,129.2,84.9,131.7,87.8,131.8z M88.2,123c2.3-0.1,3.4,1.3,3.5,3.3c0.1,1.8-1.3,3.3-3.1,3.4c-0.1,0-0.1,0-0.2,0
	c-2,0-3.5-1-3.7-3.3c-0.1-1.8,1.3-3.3,3.1-3.4C88,123,88.1,123,88.2,123z" class="st22 path393" style=""></path>
<path d="M87.9,133.6c4.3-0.1,7.5-3.2,7.5-7.3c0.1-4.1-3.2-7.4-7.3-7.5c-0.1,0-0.2,0-0.4,0h-0.2l-7.2,7.3v0.2
	C80.4,130.4,83.8,133.7,87.9,133.6C87.9,133.6,87.9,133.6,87.9,133.6z M87.9,120.9c3.1-0.1,5.3,2.1,5.3,5.4s-2.5,5.5-5.4,5.4
	c-3-0.1-5.3-2.6-5.3-5.5c-0.1-2.8,2.1-5.2,4.9-5.3C87.6,120.9,87.8,120.9,87.9,120.9z" class="st20 path391" style=""></path>
<path d="M80.4,126.1l7.2-7.3C83.7,119.1,80.5,122.2,80.4,126.1z" class="st20 path390" style=""></path>
<path d="M87.8,118.8c4.1-0.1,7.5,3,7.6,7.1c0,0.1,0,0.2,0,0.4c0,4.1-3.2,7.2-7.5,7.3c-4.1,0.1-7.5-3.1-7.6-7.2
	c0,0,0-0.1,0-0.1v-0.2l-4.1,4c1.7,4.8,6.4,8.5,11.5,8.5c6.8,0,12.4-5.5,12.4-12.4c0,0,0-0.1,0-0.1c0.1-5.3-3.3-10-8.3-11.6l-4.2,4.2
	H87.8z" class="st14 path301" style=""></path>
<path d="M93.5,112.9l2.8-2.8l-5.4-4.9l-3.2,6.6C89.7,111.8,91.6,112.2,93.5,112.9z" class="st10 path273" style=""></path>
<path d="M93.5,112.9c1.7,0.8,3.3,1.8,4.7,3c0.4-1,0.7-2,1.1-3.1l-3-2.7L93.5,112.9z" class="st10 path275" style=""></path>
<path d="M73.4,135.1l0.8-0.2c1.5-0.2,0.8,1.1,0.7,1.8c-0.2,0.6-0.3,1.3-0.4,1.9l1.8,1.7c0.1-0.6,0.3-1.2,0.4-1.8
	c0.1-0.7,0.3-1.4,0.5-2.1c2.7,1.3,3.5,3.2,3.3,5.8c-0.1,0.6-0.1,1.2-0.2,1.8L96,158.2v-8.3c0-0.5-0.1-1.1,0.6-1.1
	c-0.8-0.6-1.4-1.3-0.6-2.4c-1.1-5.6,1-10,5.4-13.5c2.8,4.7,5.8,9.3,9.1,13.6l1.5-1.6c-2.5-3.4-5-6.9-7.3-10.6l-1.7-2.8l13.7-2.5
	l-1.9-1.8l-10.5,2c-1.8,0.4-2.3,0.2-1.9-1.8c0.4-2-0.7-5.9-2.2-9h4.9l-2.3-2.1c-1.7,0-2.2-0.4-1.8-1.8l-1.7-1.5
	c-0.4,1.1-0.8,2.1-1.1,3.1c-1.4-1.2-3-2.2-4.7-3l-1.7,1.7c5.1,1.6,8.5,6.3,8.3,11.6c0,6.8-5.5,12.4-12.3,12.5c0,0-0.1,0-0.1,0
	c-5.1,0-9.8-3.7-11.5-8.5l-1.7,1.7c0.2,0.3,0.3,0.6,0.4,0.9l-1.5,0.2l-2.5,2.5l0,0L73.4,135.1z" class="st3 path78" style=""></path>
<path d="M102.8,116.1l-1.8-1.8C100.6,115.8,101.1,116.1,102.8,116.1z" class="st10 path264" style=""></path>
<path d="M100.1,118.3c1.5,3.1,2.6,5.9,2.2,9c-0.4,3.1,0.1,2.3,1.9,1.8l10.5-2l-9.8-8.9L100.1,118.3z" class="st10 path295" style=""></path>
<path d="M116.8,128.9l-13.7,2.5l1.7,2.8c2.3,3.7,4.7,7.2,7.3,10.6l10.6-10.6L116.8,128.9z" class="st10 path269" style=""></path>
<path d="M99.4,148.9c1.4,1.4,2.8,2.9,4.1,4.4l6.4-6.4c-3.1-4.1-6-8.3-8.6-12.7c-4.8,2.9-4.9,7.4-4.7,12v0.3
	C97.9,146.9,98.6,148,99.4,148.9z" class="st10 path224" style=""></path>
<path d="M96.6,146.3c-0.2-4.7-0.1-9.1,4.7-12c2.6,4.4,5.5,8.6,8.6,12.7l0.5-0.4c-3.3-4.4-6.3-8.9-9.1-13.6
	c-4.4,3.5-6.5,7.9-5.4,13.5l0.6,0.2L96.6,146.3z" class="st10 path227" style=""></path>
<path d="M103,153.8l-6.5-6.9c0.2,0.7,0.3,1.4,0.4,2.1c1.8,1.8,3.5,3.8,5.2,5.7L103,153.8z" class="st11 path229" style=""></path>
<path d="M103.6,153.3c-1.3-1.5-2.7-3-4.1-4.4c-1.4-1.4-1.6-2-2.8-2.4c-0.1,0.1-0.1,0.3-0.1,0.4l6.5,6.9L103.6,153.3z" class="st11 path233" style=""></path>
<path d="M101.6,155.2l-4.1-4.3l-0.6-0.6v8.7l0.5,0.5L101.6,155.2z" class="st10 path278" style=""></path>
<path d="M96.5,147l-0.5-0.6c-0.8,1.1-0.2,1.8,0.6,2.4l0.3,0.4C96.8,148.4,96.7,147.7,96.5,147z" class="st11 path232" style=""></path>
<path d="M96.9,150.3c-0.4-0.4-0.5-1.1-0.3-1.6c-0.7,0.1-0.6,0.6-0.6,1.1v8.3l0.9,0.8V150.3z" class="st10 path282" style=""></path>
<path d="M97.5,150.9l4.1,4.3l0.4-0.4c-1.7-1.9-3.4-3.9-5.2-5.7v1.2L97.5,150.9z" class="st10 path285" style=""></path>
<path d="M129.4,162.8c3.7-4.2,6.7-9,9-14.2l-15.7-14.4L112,144.9c4.5,6.2,9.4,12,14.2,18
	C127.7,164.5,128.3,164.2,129.4,162.8z" class="st10 path271" style=""></path>
<path d="M123,163.2c1.2,1.5,1.8,2.9,1.4,4.7h0.2c1.7-1.4,1.4-2.7-0.2-4.1c-1-1-2-2.1-2.8-3.3c-3.9-4.6-7.6-9.2-11.1-14
	l-0.5,0.4C114.1,152.5,118.5,157.9,123,163.2z" class="st10 path226" style=""></path>
<path d="M124.4,163.7c1.6,1.4,1.8,2.7,0.2,4.1c1-0.4,1.8-2,3.1-0.3c5.1-5,9.3-11,12.3-17.5l-1.6-1.5
	c-2.2,5.1-5.3,9.9-9,14.2c-1.1,1.4-1.8,1.8-3.2,0.1c-4.8-6-9.8-11.9-14.2-18l-1.5,1.6c3.5,4.7,7.2,9.4,11.1,14
	C122.4,161.6,123.4,162.7,124.4,163.7z" class="st3 path76" style=""></path>
<path d="M118.1,173.2l0.2-0.2c0.7-0.4,1.3-0.8,1.8-1.4c-0.8,0.3-1.6-0.3-2.4-1.1c-2.5-2.5-4.5-5.4-6.8-8
	c-2.3-2.6-5.2-5.9-7.8-8.7l-1,1c5.3,5.9,10.5,11.9,15.6,17.8C117.7,172.9,117.9,173,118.1,173.2z" class="st11 path230" style=""></path>
<path d="M118.1,170.1c1.2,1.4,1.9,1.5,3.2,0.4l0,0c0.6-0.6,1.2-1.1,1.9-1.6l0.4-0.4c0.1-0.2,0.4-0.4,0.6-0.5h0.3
	c0.4-1.8-0.2-3.2-1.4-4.7c-4.5-5.4-8.9-10.7-13-16.3l-6.4,6.4C108.6,158.7,113.3,164.4,118.1,170.1z" class="st10 path223" style=""></path>
<path d="M117.6,170.5c0.8,0.8,1.6,1.3,2.4,1.1l1-0.8l0.3-0.2l0,0c-1.2,1.1-1.9,1-3.2-0.4c-4.7-5.7-9.5-11.3-14.5-16.8
	l-0.5,0.5c2.6,2.8,5.3,5.7,7.8,8.7C113.4,165.6,115.2,168,117.6,170.5z" class="st11 path234" style=""></path>
<path d="M121.3,171.2c1.2-0.6,2.4-1.2,2.8-2.6l0,0c-1,0.7-1.6,1.7-2.7,2.1C121.5,170.9,121.5,171.1,121.3,171.2z" class="st13 path245" style=""></path>
<path d="M121.3,170.5c0.7-0.4,1.3-1,1.8-1.6C122.5,169.4,121.8,169.9,121.3,170.5L121.3,170.5L121.3,170.5z" class="st13 path246" style=""></path>
<path d="M124.3,168.1L124.3,168.1c1.2,1,2-1.8,3.3-0.4c-1.2-1.8-2.1-0.2-3.1,0.3L124.3,168.1z" class="st3 path90" style=""></path>
<path d="M120,171.6c-0.5,0.6-1.1,1-1.8,1.4l-0.2,0.2c0.3,0.2,0.6,0.3,0.9,0.3l0,0l2.4-2.2v-0.4
	C121,171.2,120.5,171.5,120,171.6z" class="st11 path231" style=""></path>
<path d="M132,171.9c-1.3,0.5-2.7,1.6-4,0.3s-1.1-3-0.3-4.6c-1.3-1.3-2.1,1.4-3.3,0.4l0,0c-0.2,0.2-0.3,0.3-0.2,0.5l0,0
	c-0.4,1.4-1.6,2-2.8,2.6l-2.4,2.2l0,0l-4,2.1l8.7,8l14-14L132,171.9z" class="st1 path48" style=""></path>
<path d="M143.5,176.1c8.3,0.4,16.8,0.4,25.1,0.3l-14.4-13.2l-16.5,6.5l-14,14l6.3,5.7
	C130.2,180.8,130.8,175.6,143.5,176.1z" class="st1 path51" style=""></path>
<path d="M168.6,176.3c-8.3,0.1-16.8,0.1-25.1-0.3c-12.7-0.4-13.3,4.7-13.4,13.3l20,18.4l25.3-25.2L168.6,176.3z
	 M140.8,193.4c-3.1,0-5.5-2.5-5.5-5.5c0-0.1,0-0.2,0-0.3c-0.1-3.5,1.8-5.4,5.4-5.4c3.6-0.1,5.7,2,5.8,5.4c0.1,3.1-2.3,5.7-5.4,5.8
	C141,193.4,140.9,193.4,140.8,193.4L140.8,193.4z" class="st9 path218" style=""></path>
<path d="M140.7,182.1c-3.6,0.1-5.4,1.9-5.4,5.4c-0.1,3.1,2.2,5.6,5.3,5.8c0.1,0,0.2,0,0.3,0c3.1,0,5.6-2.5,5.6-5.6
	c0-0.1,0-0.1,0-0.2C146.4,184.1,144.2,182.1,140.7,182.1z" class="st5 path385" style=""></path>
<path d="M191.6,185.6c-0.1-5.8-3.8-9.4-9.5-9.4h-0.6l-6.2,6.2l16.3,14.9C191.7,193.5,191.6,189.6,191.6,185.6z" class="st9 path217" style=""></path>
<path d="M181.5,176.2h-12.9l6.8,6.2L181.5,176.2z" class="st9 path221" style=""></path>
<path d="M196.8,211.4h-1.6c-2.8,0.1-3.8-0.6-3.7-3.5c0.1-2.9,0.2-7,0.2-10.5l-16.3-14.9l-25.3,25.2l26.4,24.1
	L196.8,211.4z M164.7,218.7c-1-1.3-1.8-2.7-2.5-4.2l0,0c-1.1-0.3-2.8,0.8-3.3-0.9c-0.4-1.7-0.7-3.6,0.1-5s2.5-0.4,3.8-0.6l0,0
	c0.9-4.7,5.3-7.9,10.3-8.3c5-0.4,11.2,3.9,11.4,8.3c0.7,2.1,0.7,4.4,0.1,6.5l0,0c-0.8,4.6-4,7-7.9,8
	C172.7,223.4,167.8,222.6,164.7,218.7z" class="st9 path215" style=""></path>
<path d="M162.7,214.3c-1.2-2-1.1-4.4,0.1-6.3c-1.3,0.3-3.1-0.6-3.8,0.6s-0.6,3.4-0.1,5s2.1,0.6,3.3,0.9
	C163.3,214.7,162.5,214.2,162.7,214.3z" class="st19 path386" style=""></path>
<path d="M184.6,214.5L184.6,214.5c0.6-2.1,0.6-4.4-0.1-6.5h-21.7c0,2.1,0.1,4.3,0.1,6.4L184.6,214.5z" class="st8 path380" style=""></path>
<path d="M162.7,214.3h0.2c0-2.1-0.1-4.3-0.1-6.4C161.6,209.8,161.5,212.3,162.7,214.3z" class="st19 path387" style=""></path>
<path d="M181.5,207.1c1.1-0.1,2.1,0.2,3,0.9c-0.3-4.4-6-8.7-11.4-8.3c-5.4,0.4-9.4,3.6-10.3,8.3l0,0
	c0.8-0.7,1.9-1,3-0.9H181.5z" class="st5 path383" style=""></path>
<path d="M176.7,222.5c4-1,7.1-3.4,7.9-8c-0.8,0.6-1.7,0.9-2.7,0.9h-16.5c-0.9,0-1.7-0.2-2.5-0.7
	c-0.1-0.1-0.1-0.2-0.1-0.3h-0.6c0.7,1.5,1.6,2.9,2.5,4.2C167.8,222.6,172.2,223.5,176.7,222.5z" class="st5 path381" style=""></path>
<path d="M181.5,207.1h-15.7c-1.1-0.1-2.1,0.2-3,0.9h21.7C183.7,207.3,182.6,207,181.5,207.1z" class="st5 path384" style=""></path>
<path d="M162.9,214.4L162.9,214.4c-0.1,0.1-0.1,0.2,0,0.3c0.7,0.5,1.6,0.7,2.5,0.7h16.5c1,0.1,2-0.3,2.7-0.9
	L162.9,214.4L162.9,214.4z" class="st5 path382" style=""></path>
<path d="M191.7,197.4c0,3.5-0.1,7-0.2,10.5c-0.1,3.5,0.9,3.6,3.7,3.5h1.6l4.8-4.8L191.7,197.4z" class="st1 path43" style=""></path>
<path d="M209.1,249.5l1.1-1.1c0.1-0.4,0.2-0.9,0.2-1.3c-0.2-10.8-0.2-21.7-0.1-32.6l-3.4-3.1h-10.1l-20.4,20.4
	l19.6,17.9h11.7L209.1,249.5z" class="st9 path211" style=""></path>
<path d="M196.8,211.4h10.1l-5.3-4.8L196.8,211.4z" class="st1 path41" style=""></path>
<path d="M207.8,211.3h-0.9l3.4,3.1v-0.4C210.4,212,209.9,211.2,207.8,211.3z" class="st9 path216" style=""></path>
<path d="M210.4,247.1c0,0.4-0.1,0.9-0.2,1.3l17.8-17.8l-17.7-16.2C210.3,225.4,210.3,236.3,210.4,247.1z" class="st1 path34" style=""></path>
<path d="M210.3,248.4c-0.1,0.6-0.6,1-1.1,1.1l-3.6,3.6h30.9c4,0,4.5-0.4,4.5-3.6v-7.1L228,230.6L210.3,248.4z" class="st1 path38" style=""></path>
<path d="M207.7,249.7H196l3.8,3.4h5.7l3.6-3.6L207.7,249.7z" class="st1 path36" style=""></path>
<path d="M243.1,215.6l10.3-10.2l-10.3-9.4V215.6z" class="st0 path29" style=""></path>
<path d="M247.3,229.8c0-1.8,0.7-2.5,2.5-2.5c1.8,0.1,3-1,2.9-3.2c-0.1-2.2,0-6.4,0-9.7c0-3.3,0.1-4.3,3.5-4.3
	c1.4,0,2.2,0,2.7,0.4l-5.5-5.1l-10.3,10.2v28.7l4.3,4c-0.1-0.4-0.1-0.8-0.1-1.2L247.3,229.8z" class="st0 path32" style=""></path>
<path d="M259.6,214.5c0,7.8,0.1,15.6-0.1,23.5c-0.1,2.9,1.2,3.4,3.8,3.4s3.5-0.8,3.4-3.4c-0.1-6.8,0-13.6,0-20.4
	l-7.6-6.9C259.6,211.3,259.6,212.4,259.6,214.5z" class="st0 path11" style=""></path>
<path d="M228.9,274.6c5.9-0.1,6-0.1,6-5.9c0-2,0.7-2.8,2.7-2.7h5.5l3.8-3.9c0.1-1.6,0.1-3.2,0-4.7
	c-0.1-2.3,0.6-3.3,3-3.2c2.4,0.2,2.3-0.2,2.6-1.3l-3.8-3.4c-0.7-0.1-1.2-0.6-1.4-1.2l-4.3-4v8.5c0,3.6,0,3.7-3.8,3.7h-35.7l19.6,18
	C224.4,274.5,226.2,274.6,228.9,274.6z" class="st0 path3" style=""></path>
<path d="M249.9,249.6h-1.1l3.8,3.4c0-0.3,0.1-0.5,0.1-0.9C252.7,250.1,251.6,249.4,249.9,249.6z" class="st0 path7" style=""></path>
<path d="M244.4,266.1c1.8,0,2.5-0.8,2.5-2.5v-1.4l-3.8,3.9H244.4z" class="st0 path21" style=""></path>
<path d="M247.9,354.5c-0.1-2.3,0.8-2.8,2.9-2.8h4l-9.8-9h-4c-2.5-0.1-3.2,0.6-3.2,3.1c0,8.8,0.1,17.7,0.1,26.5
	l10.1-10.1C248,359.6,248,357,247.9,354.5z" class="st4 path175" style=""></path>
<path d="M258.3,351.7l9-9H245l9.8,9H258.3z" class="st4 path174" style=""></path>
<path d="M265.5,351.7c6.5,0,6.5,0,6.4-6.4c-0.1-1.9-0.7-2.5-2.5-2.5h-2l-9,9L265.5,351.7z" class="st4 path177" style=""></path>
<path d="M247.9,381c-0.1-1.9,0.5-2.5,2.5-2.5h12c6.8,0,6.7,0,6.7-6.7c0.1-2.4-0.9-2.7-2.9-2.7h-16.1
	c-1.7,0-2.3-0.5-2.2-2.2c0.1-1.7,0-3.3,0.1-4.9l-10.1,10.1v12.4l10,9.1V381z" class="st4 path178" style=""></path>
<path d="M237.8,398.2c0,7.4,0.1,7.3,7.4,7.3c2.2,0,2.8-0.6,2.8-2.8s-0.1-6-0.1-9l-10-9.1
	C237.9,389.1,237.8,393.7,237.8,398.2z" class="st4 path176" style=""></path>
<path d="M208.8,165.9c-4.4,0-7.9,3.5-7.9,7.9c0,0,0,0.1,0,0.1c0,4.2,3.3,7.7,7.6,7.7c0.1,0,0.2,0,0.3,0
	c4.6-0.1,8.1-3.5,8-7.9c0-0.7-0.1-1.5-0.4-2.2l-6-5.4L208.8,165.9z" class="st5 path196" style=""></path>
<path d="M200.9,166.1c1.5-1.7,3.5-2.9,5.6-3.6l-5.6-5.1V166.1z" class="st6 path159" style=""></path>
<path d="M210.4,166.1l6,5.4C215.4,168.8,213.2,166.8,210.4,166.1z" class="st5 path197" style=""></path>
<path d="M57,99c-3.1-3.8-6.2-7.5-9.4-11.1c-4.5,4.7-8.1,10.2-10.8,16.2l7.9,7.2L57,99z" class="st10 path262" style=""></path>
<path d="M57,99l-12.3,12.3l14.2,13c4.6-1.3,9.1-2.8,13.5-4.4C67.5,112.7,62.4,105.7,57,99z" class="st10 path260" style=""></path>
<path d="M74.6,131.8c-1.4-3.3-1.1-6.6-0.7-10.1l-3.3,1.1l-9.9,3.2l8.3,7.6l4.5-0.7L74.6,131.8z" class="st10 path298" style=""></path>
<path d="M75,132.7c-0.2-0.3-0.3-0.6-0.4-0.9l-1.1,1.1L75,132.7z" class="st10 path297" style=""></path>
<path d="M69,133.6l2,1.8l2.5-2.5L69,133.6z" class="st3 path82" style=""></path>
<path d="M74.2,134.9l-0.8,0.2l-2.4,0.4l3.5,3.2c0.1-0.7,0.2-1.3,0.4-1.9C75,136,75.7,134.7,74.2,134.9z" class="st10 path255" style=""></path>
<path d="M80.5,142.1c0.2-2.6-0.6-4.5-3.3-5.8c-0.2,0.7-0.4,1.4-0.5,2.1c-0.1,0.6-0.3,1.2-0.4,1.8l4,3.7
	C80.5,143.4,80.5,142.7,80.5,142.1z" class="st10 path300" style=""></path>
<path d="M101.6,155.2l-4.2,4.3l16.3,14.9l3.3-1.5C111.7,167.1,106.9,161,101.6,155.2z" class="st10 path280" style=""></path>
<path d="M117.6,172.6c-5.1-6-10.3-12-15.6-17.8l-0.4,0.4c5.3,5.8,10.1,11.9,15.4,17.7L117.6,172.6z" class="st10 path284" style=""></path>
<path d="M36.8,104.1l-1.6-1.4c-3.3,7.3-5,15.2-5.1,23.2l2.1-2.1C32.5,117,34,110.3,36.8,104.1z" class="st3 path72" style=""></path>
<path d="M36.8,104.1c-2.7,6.2-4.3,12.9-4.6,19.7l12.5-12.5L36.8,104.1z" class="st10 path261" style=""></path>
<path d="M32.2,123.8c-0.1,1.6-0.1,3.3-0.1,4.9c0,1.7,0.8,2.1,2.3,1.8c8.3-1.7,16.3-3.8,24.4-6.2l-14.2-13L32.2,123.8z" class="st10 path263" style=""></path>
<path d="M30.5,132.8c0.6,6.5,2.4,12.9,5.4,18.7l5.2,4.7c-2.2-3.4-4-6.9-5.4-10.6c-0.7-1.9-0.4-2.6,1.6-3.2
	c11.1-3.2,22.4-5.5,33.8-7h0.1l-2-1.8c-9.7,1.3-19.2,3.2-28.7,5.8h-0.5c-1.8,0.4-4.4,2.4-5.4,1.3c-1-1.1-1.5-4.7-1.8-7.1
	c-0.1-0.8,0.1-1.2,1.1-1.3c9.2-1.1,18.1-3.7,27-6.4l-1.8-1.7c-8.1,2.5-16.2,4.6-24.4,6.2c-1.5,0.3-2.2-0.1-2.3-1.8
	c-0.1-1.8,0-3.3,0.1-4.9l-2.1,2.1C30.1,128.2,30.2,130.5,30.5,132.8z" class="st3 path71" style=""></path>
<path d="M33.7,132.4c-1,0.1-1.1,0.5-1.1,1.3c0.4,2.5,0.2,5.4,1.8,7.1c1.7,1.7,3.5-0.9,5.4-1.3h0.5
	c9.4-2.6,19-4.5,28.7-5.8l-8.3-7.6C51.8,128.7,42.9,131.3,33.7,132.4z" class="st10 path296" style=""></path>
<path d="M71,135.4c-11.4,1.5-22.7,3.9-33.8,7c-2,0.5-2.3,1.2-1.6,3.2c1.5,3.7,3.3,7.3,5.4,10.6l4.7,4.4L71,135.4z" class="st10 path257" style=""></path>
<path d="M61.9,175.4c1,0.3,1.5-0.2,2.1-1.6c3.7-8.3,6.5-16.9,8.5-25.7c0.8-3.2,1.4-6.4,2-9.6l-3.5-3.2H71l-25.2,25.2
	L61.9,175.4z" class="st10 path256" style=""></path>
<path d="M65.5,176.8c1,1.8,4,1.8,6.2,2.6c2.2,0.9,2.3,0,3-1.4c4.4-8.7,6.9-17.7,5.8-27.4c-0.2-2.2-0.3-4.5-0.2-6.7
	l-4-3.7c-1.9,10.4-4.8,20.7-8.7,30.6C66.8,172.9,64.6,175.2,65.5,176.8z" class="st10 path299" style=""></path>
<path d="M76.4,180.4c-0.8-0.4,0.1-1.1,0.3-1.7l3.3-7.9l0.6,0.2v5.3L96,160.8v-2.6L80.4,144c-0.1,2.2-0.1,4.5,0.2,6.7
	c1.1,9.8-1.4,18.7-5.8,27.4c-0.7,1.4-1.3,2.1-3,1.4s-5.3-0.9-6.2-2.6c-1-1.8,1.3-4,2.1-6c3.9-9.9,6.8-20.1,8.7-30.6l-1.8-1.7
	c-0.6,3.2-1.2,6.4-2,9.6c-2,8.8-4.9,17.4-8.5,25.7c-0.6,1.4-1.1,1.8-2.1,1.6l4.9,4.5c2.5,1,5.1,1.8,7.7,2.4L76.4,180.4z" class="st3 path89" style=""></path>
<path d="M80.5,171l-0.6-0.2l-3.3,7.9c-0.2,0.5-1.1,1.3-0.3,1.7l4.1-4.1V171z" class="st15 path304" style=""></path>
<path d="M79.8,181.2c0.9,0,0.7-1.1,0.7-1.7v-3.2l-4.1,4.1l0,0C77.5,180.9,78.7,181.1,79.8,181.2z" class="st15 path303" style=""></path>
<path d="M83.7,182.4c7.2,0.3,14.4-0.7,21.2-3.1h-0.2l-7,1.7c-1.1,0.3-1.8,0.2-1.8-1.3c0.1-6.2,0.1-12.5,0.1-18.7
	l-15.5,15.4v3.2c0,0.6,0.2,1.7-0.7,1.7c-1.2,0-2.3-0.2-3.4-0.6l0,0l-1.8,1.8c2.2,0.5,4.4,1,6.7,1.2
	C81.7,182.7,82.7,182.2,83.7,182.4z M90.6,182h-5.6C86.8,181.5,88.7,181.5,90.6,182z" class="st3 path74" style=""></path>
<path d="M101.6,179.1c0.9-0.4,1.9-0.5,2.9-0.5h0.4l0.2-0.3c3-1.2,5.8-2.6,8.7-4l-16.3-14.9l-0.5,0.4v15.6
	C96.9,180.1,97.1,180.3,101.6,179.1z" class="st10 path277" style=""></path>
<path d="M83.7,182.4c-1-0.2-2,0.2-2.5,1.1c0.8-0.3,1.7-0.5,2.5-0.4c7.5,0.5,15.1-0.7,22.1-3.3l-1.1-0.4
	C98.1,181.6,90.9,182.7,83.7,182.4z" class="st3 path91" style=""></path>
<path d="M95.9,179.6c0,1.5,0.6,1.6,1.8,1.3l7-1.7c0-0.2,0-0.4,0.1-0.5h-0.4c-1,0-2,0.2-2.9,0.5c-4.5,1.1-4.7,1-4.7-3.5
	V160l-0.9,0.9C96,167.1,96,173.3,95.9,179.6z" class="st10 path281" style=""></path>
<path d="M96.9,160v-1l-0.9-0.8v2.6L96.9,160z" class="st10 path283" style=""></path>
<path d="M114.3,174.9l-0.6-0.5c-2.9,1.4-5.7,2.8-8.7,4l-0.2,0.3l0.7,0.2C108.5,177.7,111.4,176.4,114.3,174.9z" class="st10 path287" style=""></path>
<path d="M105.7,179c0.1,0.2,0.2,0.5,0.3,0.7l0,0c3.1-1.1,6.2-2.5,9.1-4.1l-0.6-0.5C111.6,176.7,108.7,178,105.7,179z" class="st12 path240" style=""></path>
<path d="M117.1,173L117.1,173l-3.4,1.5l0.6,0.5C115.3,174.4,116.3,173.8,117.1,173z" class="st10 path288" style=""></path>
<path d="M117.1,173c-0.9,0.8-1.8,1.4-2.8,1.9v0.2l3.2-1.7l-0.2-0.2L117.1,173z" class="st12 path238" style=""></path>
<path d="M117.6,173.4l-3.2,1.7l0.6,0.5l4-2.1C118.5,173.7,118,173.7,117.6,173.4z" class="st12 path239" style=""></path>
<path d="M105.5,178.9l0.2,0.2c3-1,5.9-2.4,8.7-4v-0.2C111.5,176.4,108.5,177.7,105.5,178.9z" class="st12 path237" style=""></path>
<path d="M123.7,183.6l-8.7-8c-2.9,1.7-5.9,3.1-9.1,4.1l0,0c-7.1,2.7-14.6,3.8-22.1,3.3c-0.9,0-1.7,0.1-2.5,0.4
	c-1.4,3.3-0.6,4.5,2.9,4.6c1.2-0.1,2.3,0,3.5,0.1c9.3,0.8,13,6.1,10.1,15c-0.4,1.4-0.7,2.7-1,4.1l1.7,1.5L123.7,183.6z" class="st1 path45" style=""></path>
<path d="M41,156.3l-5.2-4.7c2,4.1,4.6,8,7.6,11.5l1.5-1.5C43.5,159.9,42.2,158.1,41,156.3z" class="st3 path81" style=""></path>
<path d="M45.7,160.7l-4.7-4.4c1.2,1.8,2.5,3.6,3.9,5.3L45.7,160.7z" class="st10 path258" style=""></path>
<path d="M66.8,179.9l-4.9-4.5l-1.1-0.5c-6.1-3.4-11.5-8-16-13.4l-1.5,1.5C49.7,170.5,57.7,176.3,66.8,179.9z" class="st3 path70" style=""></path>
<path d="M44.9,161.6c4.5,5.4,9.9,9.9,16,13.4l1.1,0.5l-16.2-14.8L44.9,161.6z" class="st10 path259" style=""></path>
<path d="M104.5,211.3c7.8,0.3,15.6,0,23.5,0.2c1.8,0,2.1-0.5,2.1-2.1c-0.1-6.6-0.1-13.1,0-19.7v-0.4l-6.3-5.7
	l-25.2,25.2l3.4,3.1C102.3,211.5,103.1,211.3,104.5,211.3z" class="st1 path49" style=""></path>
<path d="M150.1,207.7l-20-18.4v0.4c-0.1,6.6-0.1,13.1,0,19.7c0,1.6-0.4,2.1-2.1,2.1c-7.8-0.2-15.6,0.1-23.5-0.2
	c-1.3,0-2.1,0.2-2.5,0.6l22.9,21L150.1,207.7z" class="st9 path214" style=""></path>
<path d="M150.1,207.7l-25.2,25.2l18.3,16.7h15.5l17.8-17.8L150.1,207.7z" class="st9 path220" style=""></path>
<path d="M158.6,249.6H196l-19.6-17.9L158.6,249.6z" class="st9 path222" style=""></path>
<path d="M155.6,249.6h-12.5l3.9,3.5h8.1l3.5-3.5H155.6z" class="st1 path53" style=""></path>
<path d="M196,249.7h-37.4l-3.5,3.5h44.7L196,249.7z" class="st1 path42" style=""></path>
<path d="M151.7,256.6l-0.4,0.4l26.4,24.2l24.5-24.6H151.7z" class="st0 path6" style=""></path>
<path d="M191.8,291.9h25.5l3.7-3.8v-5.7c0.1-6.4-0.6-7.6,2.2-7.8l-19.6-18h-1.5l-24.5,24.6l12,10.9
	C190.3,291.8,191.1,291.8,191.8,291.9z" class="st0 path5" style=""></path>
<path d="M221,288.1l-3.7,3.8C220.7,291.8,221,291.5,221,288.1z" class="st0 path24" style=""></path>
<path d="M217.1,301.2h0.9c1.8,0.1,3-0.5,3-2.6s-1.2-2.5-2.9-2.4h-5.2l-4.9,5H217.1z" class="st0 path26" style=""></path>
<path d="M212.9,296.2H194l5.4,5h8.5L212.9,296.2z" class="st0 path2" style=""></path>
<path d="M88,192c-2.1-0.1-4.2,0.6-5.8,1.9l12,10.9c0.9-1.4,1.4-3.1,1.3-4.7C95.5,195.3,92.5,192,88,192z" class="st5 path195" style=""></path>
<path d="M79.6,200c0,4.7,3.4,8.1,8.3,8.1c2.5,0,4.8-1.2,6.2-3.3l-12-10.9C80.5,195.5,79.5,197.7,79.6,200z" class="st5 path194" style=""></path>
<path d="M96.8,207.3c-0.2,1.1-0.3,2.3-0.3,3.4l1.9-1.9L96.8,207.3z" class="st1 path44" style=""></path>
<path d="M96.5,245.2c0,8.7-0.8,7.9,8.1,7.9l3.5-3.5h-3.3c-4.1,0-3.6,0.5-3.7-3.8c0-10.4,0.1-20.7,0-31
	c0-1.4,0.1-2.3,0.7-2.9l-3.4-3.1l-1.9,1.9C96.5,210.8,96.5,245.2,96.5,245.2z" class="st1 path47" style=""></path>
<path d="M101.9,211.9c-0.6,0.6-0.7,1.5-0.7,2.9c0.1,10.3,0,20.7,0,31c0.1,4.3-0.4,3.8,3.7,3.8h3.3l16.7-16.7
	L101.9,211.9z" class="st9 path212" style=""></path>
<path d="M124.8,232.9l-16.7,16.7h35L124.8,232.9z" class="st9 path213" style=""></path>
<path d="M108.1,249.6l-3.5,3.5H147l-3.9-3.5H108.1z" class="st1 path50" style=""></path>
<path d="M151.2,257l-0.5-0.4h-49.5l-1.6,1.6l17.8,16.3h16.3L151.2,257z" class="st0 path28" style=""></path>
<path d="M177.6,281.2L151.2,257l-17.5,17.5h1.8c6,0,5.9,0,5.9,5.9c0,1.9-0.5,2.9-2.6,3.4l-8.7,2.3l6.1,5.5l5.4-1.2
	c1.6-0.4,3.6-0.9,4,1.5c0.4,2.4,0.8,4.2-2.5,4.4c-0.5,0-1,0.1-1.3,0.4l4.8,4.4h11L177.6,281.2z M148,285.8v-14.1
	c0-1.3,0.5-1.7,1.8-1.7c4.4,0.1,8.8,0.1,13.2,0c1.2,0,1.7,0.4,1.7,1.7s0,4.7,0,7s-0.1,4.7,0,7c0.1,2.4-0.4,1.8-1.8,1.8
	c-4.4-0.1-8.8-0.1-13.2,0C148.5,287.6,148,287.1,148,285.8L148,285.8z" class="st0 path8" style=""></path>
<path d="M162.9,287.6c1.3,0,1.8-0.5,1.8-1.8c0-1.2,0-4.7,0-7c0-2.4-0.1-4.7,0-7c0.1-2.4-0.4-1.7-1.7-1.7
	c-4.4,0.1-8.8,0.1-13.2,0c-1.2,0-1.8,0.4-1.8,1.7v14.1c0,1.2,0.4,1.8,1.7,1.8C154.1,287.5,158.5,287.5,162.9,287.6z" class="st8 path210" style=""></path>
<path d="M191.4,296.2c-2.5,0-3.5-1.3-2.6-3.3c0.1-0.4,0.4-0.7,0.8-0.9l-12-10.9l-20,20h41.9l-5.4-5L191.4,296.2z" class="st0 path0" style=""></path>
<path d="M155.8,345.7c0.1,2.5,0.1,5.1,0.1,7.6l10.1-10.2c-1.6-0.4-3.7-0.4-7.2-0.4S155.8,343.4,155.8,345.7z" class="st4 path96" style=""></path>
<path d="M166.3,357.9c5.2,7.3,10.2,13.8,14.8,20.7l6.7-6.8L172.7,350c-3-4.5-4.2-6.2-6.7-6.9l-10.1,10.2v4.7l10.5,9.6
	V357.9z" class="st4 path93" style=""></path>
<path d="M166.3,371.3v-3.8l-10.5-9.6v39.9c0,2.6,0,4.4,0.4,5.5l10.1-10.2V371.3z" class="st4 path95" style=""></path>
<path d="M163.6,405.5c2.2,0,2.8-0.6,2.8-2.8s-0.1-6.3-0.1-9.5l-10.1,10.2C156.8,405.5,158.5,405.5,163.6,405.5z" class="st4 path101" style=""></path>
<path d="M202.4,357.2c-4,6-8.3,11.8-12.4,17.8l-2.2-3.2l-6.7,6.8l0.6,0.9c2.4,3.6,4.8,5.9,9.6,5.2
	c2.4-0.3,3.9-0.9,5.3-2.8c4.9-7.1,10-14.2,15.1-21.2l-6.7-6.1L202.4,357.2z" class="st4 path99" style=""></path>
<path d="M207.7,349.1c-1.1,1.7-2.1,3.3-3.3,5l0.5,0.4l12-12C212.9,342.8,210.2,345.1,207.7,349.1z" class="st4 path94" style=""></path>
<path d="M202.4,357.2l2.6-2.6l-0.5-0.4L202.4,357.2z" class="st4 path92" style=""></path>
<path d="M223.9,346.6c0-3.9-0.1-3.5-4-4c-0.9-0.1-1.9-0.1-2.8-0.1l-12,12l6.7,6.1l1.6-2.2l0.5,0.2v4l10,9.2
	C223.8,363.4,223.9,355,223.9,346.6z" class="st4 path98" style=""></path>
<path d="M223.8,371.8l-10-9.2v33.7l10.1-10C223.8,381.4,223.8,376.6,223.8,371.8z" class="st4 path97" style=""></path>
<path d="M213.8,398.6c0,6.9,0,6.8,6.9,6.9c2.5,0.1,3.3-0.6,3.3-3.3v-16.1l-10.1,10V398.6z" class="st4 path100" style=""></path>
<path d="M94.2,252.8c0.2-13.1,0.1-26.2,0.1-39.3v-0.4l-14.6,14.5c0,0.1,0.1,0.2,0,0.4s-0.9,1.5-1.9,1.8h-0.2l-1.3,1.3
	c-0.2,0.5-0.2,0.9-0.2,1.4c0.1,1.3,0.7,2.4,2,2.4c1.3,0,2.4,0.7,2.4,2.3c0,1-0.7,1.9-1.8,1.9c0,0,0,0,0,0l15.5,14.2V252.8z" class="st0 path19" style=""></path>
<path d="M90.6,210.5c-1.2,0.3-2.5,0.4-3.8,0.4c-1.7,0.1-3.4-1.8-5-0.1c-1.6,1.7-0.4,3.5-0.6,5.3c-0.1,0.2,0,0.3,0,0.4
	c0.2,1.8-0.5,3-2.5,3.1c-2,0.1-2.5,0.8-2.5,2.5c0,1.7-0.4,3.3,1.7,3.9c2,0.6,1.9,0.6,1.9,1.8l14.6-14.5
	C94.2,210.4,93.3,209.8,90.6,210.5z" class="st0 path18" style=""></path>
<path d="M97.9,256.6c-2.7,0-3.6-0.8-3.7-3.4l-15.5-14.2h-0.5c-1.8,0.1-2.2,1.4-2.1,2.9c0.1,1.5-0.3,2.9,2.1,3.1
	c2.4,0.2,2.4,1.2,2.3,3.1c-0.2,3.5-0.1,7,0,10.5c0.1,7.2-1.3,6.9,6.9,6.9c2.5,0,3.5,0,4,0.9l8.3-8.3L97.9,256.6z" class="st0 path15" style=""></path>
<path d="M91.3,266.5c0.3,1.1,0.4,2.2,0.3,3.3c0,4.7,0.1,4.7,4.8,4.7h21.1l-17.8-16.3L91.3,266.5z" class="st0 path16" style=""></path>
<path d="M97.9,256.6l1.8,1.6l1.6-1.6H97.9z" class="st0 path4" style=""></path>
<path d="M97.9,300.8l12.6-3l8.8-8.8l-14.2,4c-5.8,1.6-11.8,2.4-17.8,2.3l6.4,5.9h0.7C95.6,301.2,96.7,301,97.9,300.8z" class="st0 path25" style=""></path>
<path d="M141.1,299.8c-0.1,2.2,1.5,1.3,2.5,1.3h3l-4.8-4.4C141,297.4,141.2,298.7,141.1,299.8z" class="st0 path20" style=""></path>
<path d="M119.2,289l-8.8,8.8l9-2.1l16.8-4l-6.1-5.5L119.2,289z" class="st0 path17" style=""></path>
<path d="M102.5,350c0-7.4,0-7.3-7.3-7.3c-2.3,0-2.8,0.7-2.8,2.8c0,2.1,0,1.9,0.1,2.8l9.3,8.5l0.7-0.7V350z" class="st4 path193" style=""></path>
<path d="M127,350.2c0-7.6,0-7.5-7.6-7.5c-2.2,0-2.9,0.6-2.9,2.8c0.2,8.3,0.1,16.6,0.1,24.9L127,380
	C127.1,370,127,360.1,127,350.2z" class="st4 path188" style=""></path>
<path d="M127,380l-10.5-9.6v22.1l10.5-10.5V380z" class="st4 path186" style=""></path>
<path d="M129.9,396.2c-2.4,0.1-2.9-0.7-2.9-3v-11.2l-10.5,10.5c0,3.3,0,6.5-0.1,9.8c-0.1,3.3,0.7,3.3,3.2,3.3h22.6
	c6.2,0,6.6,0,6.6-5.5l-4.1-3.8C139.8,396.2,134.9,396,129.9,396.2z" class="st4 path185" style=""></path>
<path d="M148.8,398.6c0-1.8-0.5-2.5-2.5-2.5h-1.7l4.1,3.8V398.6z" class="st4 path187" style=""></path>
<path d="M45,295.2c-2.4,0-4.4,0.9-4.5,3.3c-0.1,2.4,2.2,2.7,4.3,2.7h11.7l6-6L45,295.2z" class="st0 path22" style=""></path>
<path d="M86.6,295.3H62.5l-6,6h37.2l-6.4-5.9L86.6,295.3z" class="st0 path27" style=""></path>
<path d="M92.5,366.2l9.3-9.3l-9.3-8.5V366.2z" class="st4 path191" style=""></path>
<path d="M102.6,402.5c-0.1-15-0.1-30-0.1-44.9l-0.7-0.7l-9.3,9.3v30.6l9.2,8.3C102.3,404.7,102.6,403.9,102.6,402.5z" class="st4 path190" style=""></path>
<path d="M92.5,398.5c0,7,0,6.9,7,7c0.8,0.1,1.5-0.1,2.2-0.4l-9.2-8.3V398.5z" class="st4 path189" style=""></path>
<path d="M65.4,342.8H51.3c-2.2,0-2.8,0.6-2.8,2.8c0.1,3.7,0.1,7.4,0.1,11l1.7,1.6L65.4,342.8z" class="st4 path170" style=""></path>
<path d="M59,366.2c0.2-3.9,0.2-7.9,0-11.9c-0.1-2,0.5-2.7,2.6-2.6c4.9,0.2,9.8,0,14.7,0c6.3,0,6.2,0,6.2-6.2
	c0-2-0.4-2.7-2.5-2.7H65.4l-15.2,15.4L59,366.2z" class="st4 path168" style=""></path>
<path d="M48.6,356.5v3.2l1.7-1.6L48.6,356.5z" class="st4 path169" style=""></path>
<path d="M59,381.2c0-1.9,0.4-2.7,2.6-2.6h11l-10.2-9.3h-0.7c-2,0.1-2.8-0.5-2.7-2.6v-0.4l-8.8-8.1l-1.7,1.6v38
	c0,6.7,0,7.7,4.7,7.9l5.9-6C59,393.5,59.1,387.3,59,381.2z" class="st4 path171" style=""></path>
<path d="M73.3,378.6c7.1,0,7,0,6.9-7.1c0-1.8-0.6-2.3-2.4-2.3H62.4l10.2,9.3L73.3,378.6z" class="st4 path173" style=""></path>
<path d="M56.5,405.5c2,0,2.7-0.5,2.6-2.6v-3.3l-5.9,6H56.5z" class="st4 path172" style=""></path>
</svg>
