<svg xmlns="http://www.w3.org/2000/svg" xmlns:xlink="http://www.w3.org/1999/xlink" id="Layer_1" x="0px" y="0px" style="enable-background:new 0 0 492 489.8" version="1.1" viewBox="0 0 492 489.8" xml:space="preserve">
      <style type="text/css">
          .st0{fill:#7C300A;stroke:#7C300A} .st1{fill:#EA7A20;stroke:#EA7A20} .st2{fill:#D12C48;stroke:#D12C48} .st3{fill:#1F49A2;stroke:#1F49A2} .st4{fill:#9DD5DF;stroke: #9DD5DF} .st5{fill:#A0CC3B;stroke:#A0CC3B} .st6{fill:#F7D538;stroke:#F7D538} .st7{fill:#F9911E;stroke:#F9911E} .st8{fill:#4F1F69;stroke:#4F1F69} .st9{fill:#C8C7CB;stroke:#C8C7CB} .st10{fill:#EA8449;stroke:#EA8449} .st11{fill:#E26D1E;stroke:#E26D1E}
      </style>
      <title>
          Fine Arts
      </title>
          <path d="M471.6,23c-3.7,0.7-7.9,1.5-12.2,2.5L459,38.1C463.7,33.5,468,28.5,471.6,23z" class="st10 path62" style=""></path>
          <path d="M424.3,19.2c-1.1,0.4-9.2,2.1-9.2,2.1c7.4-4.2,12.5-14.1,16.4-21.3c-3.3,1.6-11.9,5.4-21.6,10.6l-0.7,21.1
              C413.5,26.5,417.5,23.6,424.3,19.2z" class="st10 path66" style=""></path>
          <path d="M467.4,34.8c0,0-5.3,2.8-8.5,4.4l-0.3,8.6C463.4,43,468,37.6,467.4,34.8z" class="st10 path64" style=""></path>
          <path d="M458.6,47.7l0.3-8.6c-1.2,0.6-2.1,1.1-2.2,1.2c0.8-0.7,1.5-1.4,2.3-2.2l0.4-12.7
              c-15.1,3.6-32.3,9.8-37.8,22.6h36.8L458.6,47.7z" class="st10 path63" style=""></path>
          <path d="M406.2,35.4c1-1.4,2-2.7,3-3.8l0.7-21.1c-18.1,9.7-40.2,24.1-38.8,37.4h24.3C399.4,44.2,403,39.9,406.2,35.4z
              " class="st10 path68" style=""></path>
          <path d="M420.7,64.4c8,9.8,22.1-2.2,28.5-7.9c1.3-1.2,5.3-4.6,9.2-8.5h-36.8C419.6,52.6,419.1,58,420.7,64.4z" class="st10 path65" style=""></path>
          <path d="M453.2,448c-1.6-1.1-2.6-3-2.5-4.9c0-5.5,5.9-10.4,13-10.4c8,0,12.9,2,19.6,7.5l5.8-6.8
              c-7.5-7.3-15.8-10-25.4-10c-7-0.1-13.8,2.7-18.5,7.9l-0.6,16.8H453.2z" class="st11 path93" style=""></path>
          <path d="M444.5,453.7c3.8,3.9,10.3,5.9,19.3,5.9c9.1,0,18.7,0,18.7,9.7c0,7.9-9.4,11.4-18.7,11.4
              c-9.9,0-16.1-5.9-19.4-9.9l-0.5,0.5l-0.4,11.4c5.8,4.6,12.9,7.2,20.3,7.3c16,0,28.2-8,28.2-20.7c0-12-5.7-18.8-27.8-18.8
              c-5.6,0-9-0.9-11-2.4h-8.6L444.5,453.7z" class="st11 path92" style=""></path>
          <path d="M441.1,448h3.5l0.6-16.8c-3,3.3-4.7,7.5-4.8,11.9C440.5,444.8,440.7,446.4,441.1,448z" class="st11 path91" style=""></path>
          <path d="M441.1,448c0.6,2.1,1.7,4.1,3.3,5.7l0.2-5.7H441.1z" class="st11 path90" style=""></path>
          <path d="M437.8,476.9c1.7,2.1,3.6,4,5.7,5.7l0.4-11.4L437.8,476.9z" class="st11 path89" style=""></path>
          <path d="M410.8,80.3c7.9-8.7,14.2-22.1-2.8-15.2l-0.6,18.8C408.5,82.7,409.6,81.5,410.8,80.3z" class="st9 path56" style=""></path>
          <path d="M375.2,55.7c8.1,0.8,14.6-2.6,20.2-7.7h-24.3c0.2,1.8,0.8,3.6,1.7,5.1L375.2,55.7z" class="st10 path67" style=""></path>
          <path d="M362.1,96.6l-1.8,1.4h32c5.2-4.5,10.3-9.2,15-14.1l0.7-18.8l-0.6,0.2C390.9,72.3,375.9,85.4,362.1,96.6z" class="st9 path57" style=""></path>
          <path d="M366.1,73.4c3.7-4.5,10.8-11.4,9.1-17.7l-2.4-2.6c-1.5-2.1-7.2,0.8-14.6,6.1L357.3,83
              C360.4,79.9,363.3,76.7,366.1,73.4z" class="st9 path75" style=""></path>
          <path d="M411.2,124.2c-1.7-0.4-3.5-0.6-5.2-0.6l-0.2,4.8C407.5,126.9,409.3,125.5,411.2,124.2z" class="st10 path74" style=""></path>
          <path d="M355.1,146.1l-0.1,1.9h32.3c5.6-3.8,11.7-6.9,18.1-9v-0.1l-13.1,1.1c4.4-4.1,8.8-8,13.5-11.8l0.2-4.8
              C391.7,123.5,365.9,133.3,355.1,146.1z" class="st10 path71" style=""></path>
          <polygon points="431,434.5 431,425.2 395.4,425.2 395.1,434.5 399.8,434.5 399.8,448 408.7,448 408.7,434.5 	" class="st11 polygon60" style=""></polygon>
          <rect width="9" height="40.4" x="399.8" y="448" class="st11 rect3" style=""></rect>
          <polygon points="377.2,434.5 395.1,434.5 395.4,425.2 377.2,425.2 	" class="st11 polygon59" style=""></polygon>
          <path d="M356.7,101.7l12.2,15.3c7.9-6.2,15.8-12.5,23.4-19h-32l-3.6,2.9L356.7,101.7z" class="st9 path55" style=""></path>
          <path d="M315.9,98h25.8c5.3-4.9,10.6-9.8,15.7-15l0.8-23.8c-15.5,11-38.1,31.9-43.9,37.3l0,0L315.9,98z" class="st9 path76" style=""></path>
          <path d="M360.1,106.4l8.8,10.9L360.1,106.4l-3.5-4.2l-0.9,25.5l13.4-10.4l-0.3-0.3h-0.1L360.1,106.4z" class="st1 path12" style=""></path>
          <path d="M381.1,152.8c2-1.7,4-3.3,6.2-4.8h-32.3l-0.5,15.4C363.8,168.1,374.4,158.7,381.1,152.8z" class="st10 path73" style=""></path>
          <path d="M315.9,98l13,11.7c4.2-3.9,8.5-7.8,12.8-11.7H315.9z" class="st9 path77" style=""></path>
          <path d="M356,101.4L356,101.4l-0.2-0.2l-50.7,42.2L305,148h24.6l26.1-20.3l0.9-25.6L356,101.4z" class="st1 path13" style=""></path>
          <path d="M350.5,160.3c1.1,1.3,2.5,2.3,4,3.1L355,148h-1.4C351,151.9,349.6,156.1,350.5,160.3z" class="st10 path69" style=""></path>
          <path d="M305.6,132.5l23.4-22.8l-0.1-0.1l-0.5,0.4l-9-8.6l-3.8-3.5h-3l-6.1,6L305.6,132.5z" class="st1 path5" style=""></path>
          <path d="M304.9,198h4.8c7.4-5.6,14.7-11.2,21.8-17.1c4.2-3.4,26-19,14.3-21.1c-11.2-2-32.8,17.7-41.9,23.5l-0.1,0.1
              l-0.4,12.6L304.9,198z" class="st9 path80" style=""></path>
          <path d="M356.7,102.1l3.5,4.3l8.7,10.7h0.1l-12.2-15.3L356.7,102.1z" class="st9 path59" style=""></path>
          <path d="M356.7,102.1v-0.4l-0.4-0.5l-0.2,0.2L356.7,102.1z" class="st9 path60" style=""></path>
          <path d="M356.7,100.9l-0.4,0.3l0.4,0.5L356.7,100.9z" class="st9 path58" style=""></path>
          <path d="M315.8,98l3.7,3.5l9,8.4l-9-8.4l9,8.6l0.5-0.4L315.9,98H315.8z" class="st9 path78" style=""></path>
          <polygon points="314.4,96.8 315.7,98 315.8,98 314.3,96.6 314.3,96.5 312.7,98 315.7,98 	" class="st1 polygon3" style=""></polygon>
          <path d="M355.1,148l0.1-1.9c-0.5,0.6-1,1.2-1.4,1.9H355.1z" class="st10 path70" style=""></path>
          <path d="M302.6,195l0.7,1l0.4-12.6l-6.5,4.1L302.6,195z" class="st9 path81" style=""></path>
          <polygon points="329.7,148 305,148 304.4,167.6 	" class="st1 polygon32" style=""></polygon>
          <polygon points="305.6,132.5 306.6,103.9 261.1,148 289.7,148 	" class="st1 polygon8" style=""></polygon>
          <polygon points="305,148 305.2,143.5 299.8,148 	" class="st1 polygon34" style=""></polygon>
          <path d="M306.6,200.3c1-0.8,2-1.5,3.1-2.3h-4.8L306.6,200.3z" class="st9 path79" style=""></path>
          <path d="M311.7,246.1c1.3,0.5,2.5,1.1,3.7,1.9h23.1c-7.8-16.2-20.4-29.5-35.6-40l-1.3,37.4
                      C305,244.6,308.5,244.8,311.7,246.1z" class="st0 path33" style=""></path>
          <path d="M321.7,268c-3.2,8.5-12.5,13-21.2,10.2l-0.6,17.4c2.6-0.3,5.3,0.1,7.8,1c0.9,0.4,1.8,0.8,2.7,1.3h36
                      c0.5-3.8,0.7-7.7,0.8-11.5c0.2-13.3-2.8-26.4-8.6-38.4h-23.1C321.8,252.4,324.4,260.7,321.7,268z" class="st0 path32" style=""></path>
          <path d="M310.3,298c8.2,4.7,11,15,6.3,23.2c-3.6,6.3-10.8,9.6-18,8.3l-0.6,18.5h27.3c11-14.5,18.6-31.2,20.9-50H310.3z
                      " class="st0 path23" style=""></path>
          <path d="M315.4,248c-1.1-0.8-2.4-1.4-3.7-1.9c-3.2-1.2-6.7-1.4-10.1-0.6l-0.1,2.5H315.4z" class="st3 path44" style=""></path>
          <path d="M300.5,278.3c8.9,3,18.5-1.7,21.6-10.6c2.5-7.3-0.2-15.4-6.7-19.7h-13.8L300.5,278.3z" class="st3 path45" style=""></path>
          <path d="M298.7,329.5c9.2,1.8,18.1-4.3,19.9-13.5c1.4-7.1-1.9-14.4-8.3-18h-10.5L298.7,329.5z" class="st4 path50" style=""></path>
          <path d="M299.9,295.7l-0.1,2.3h10.5c-0.9-0.5-1.8-1-2.7-1.3C305.2,295.8,302.5,295.4,299.9,295.7z" class="st4 path47" style=""></path>
          <path d="M297.1,375.6c10.7-7.8,20.2-17.1,28.3-27.6h-27.3L297.1,375.6z" class="st0 path35" style=""></path>
          <path d="M349.4,425.2h-4l-0.3,9.2h4.3c6,0,10.8,2.3,10.8,8.9c0,1.6-0.3,3.2-0.9,4.7h9.7c0.3-1.4,0.4-2.8,0.4-4.1
                      C369.3,431.9,360.9,425.2,349.4,425.2z" class="st11 path87" style=""></path>
          <path d="M349.4,453h-4.9l-0.3,9.2h0.6l7.7,16.2c4.8,10,12.3,10,19.6,10V479l-2,0.1h-0.9c-4.1,0-5.5-1.3-9.5-7.1
                      l-4.9-10.1c7.8-1.9,12.8-6.7,14.2-13.9h-9.7C357.6,451.5,354,453,349.4,453z" class="st11 path88" style=""></path>
          <polygon points="325.4,434.5 345.1,434.5 345.4,425.2 316.1,425.2 316.1,448 325.4,448 	" class="st11 polygon58" style=""></polygon>
          <path d="M337.3,453c-4.1,0-8.1,0.3-11.9,2.5V448h-9.2v40.4h9.2v-23.7c3.8-2,7.9-2.5,11.9-2.5h6.8l0.3-9.2H337.3z" class="st11 path86" style=""></path>
          <polygon points="253.7,186.4 253.3,198 265.3,198 304.4,167.6 305,148 299.8,148 	" class="st1 polygon33" style=""></polygon>
          <polygon points="303.4,196.1 301.6,193.6 296.9,187.4 281.8,198 303.3,198 	" class="st1 polygon19" style=""></polygon>
          <polygon points="253.8,183 289.7,148 261.1,148 254.8,154.1 	" class="st1 polygon9" style=""></polygon>
          <polygon points="281.8,198 252.6,218.4 251.9,237 303.1,202.8 303.3,198 	" class="st1 polygon20" style=""></polygon>
          <path d="M286.2,214.4c5.7,7.5,4.3,18.2-3.2,23.9c-7.5,5.7-18.2,4.3-23.9-3.2c-0.4-0.5-0.8-1.1-1.1-1.7
                      c7.4-4.9,14.8-9.9,22.1-15l-28.2,18.7l-0.4,10.8H296c1.7-1.2,3.6-2,5.6-2.5l1.3-37.4c-1.2-0.8-2.4-1.6-3.6-2.4L286.2,214.4z" class="st0 path31" style=""></path>
          <path d="M266.7,240.8c8.8,3.3,18.7-1.1,22-10c2.1-5.5,1.2-11.8-2.5-16.4l-6.1,4.1c-7.3,5-14.7,10-22.1,15
                      C260,236.8,263.1,239.4,266.7,240.8z" class="st8 path54" style=""></path>
          <path d="M301.6,245.5c-2,0.5-3.9,1.4-5.6,2.5h5.5L301.6,245.5z" class="st3 path46" style=""></path>
          <path d="M289.7,256c-3.3,8.8,1.2,18.7,10,22c0,0,0,0,0,0l0.8,0.3l1-30.3H296C293.1,250,291,252.8,289.7,256z" class="st3 path43" style=""></path>
          <path d="M300.5,278.3l-0.8-0.3c-8.8-3.2-13.3-13-10.1-21.8c1.2-3.3,3.5-6.2,6.4-8.2h-44.5l-1.8,50h43.2
                      c2.1-1.3,4.5-2,7-2.3L300.5,278.3z" class="st0 path37" style=""></path>
          <path d="M299.9,295.7c-2.5,0.3-4.8,1-7,2.3h6.9L299.9,295.7z" class="st4 path48" style=""></path>
          <path d="M292.9,298c-8.1,4.7-10.9,15.1-6.1,23.2c2.5,4.4,6.9,7.4,11.9,8.2l1.1-31.5H292.9z" class="st4 path49" style=""></path>
          <path d="M295.6,328.6c-8.8-3.3-13.3-13.1-10-22c1.4-3.6,3.9-6.7,7.3-8.7h-43.2l-1.8,50h2.4c0.2-1.2,0.5-2.4,0.9-3.5
                      c3.3-8.8,13.1-13.3,21.9-10c5.8,2.2,10,7.4,10.9,13.5h13.9l0.6-18.5C297.7,329.3,296.6,329,295.6,328.6z" class="st0 path25" style=""></path>
          <path d="M298.1,348h-13.9c1.4,9.3-5,18-14.4,19.4s-18-5-19.4-14.4c-0.2-1.7-0.2-3.3,0-5H248l-1.7,50h11.4
                      c14-5.9,27.2-13.4,39.4-22.4L298.1,348z" class="st0 path15" style=""></path>
          <path d="M273.3,334.5c-8.8-3.3-18.7,1.1-22,10c0,0,0,0,0,0c-0.4,1.1-0.7,2.3-0.9,3.5h33.8
                      C283.3,341.9,279.1,336.7,273.3,334.5z" class="st5 path52" style=""></path>
          <path d="M261.3,366.5c8.8,3.3,18.7-1.1,22-10c1-2.7,1.3-5.7,0.9-8.5h-33.8C249.3,356,253.8,363.7,261.3,366.5z" class="st5 path51" style=""></path>
          <polygon points="271.9,443.2 274.4,448 285.2,448 273.9,424.1 263.7,424.1 267.2,431.9 259.4,448 269.6,448 	" class="st11 polygon55" style=""></polygon>
          <polygon points="294,488.4 304.3,488.4 293.9,466.5 293.2,486.7 	" class="st11 polygon57" style=""></polygon>
          <path d="M274.4,448l11.3,21.9H274c-8.6,0-13.8,1.6-16.1,3.6l11.7-25.4h-10.2l-16,33.1l-0.3,7.3h6.7l1.6-3
                      c1.4-2.6,7.6-6.3,19.1-6.3h19.2l3.4,7.5l0.7-20.3l-8.8-18.4H274.4z" class="st11 path85" style=""></path>
          <polygon points="239.9,488.4 243.1,488.4 243.4,481.1 	" class="st11 polygon56" style=""></polygon>
          <path d="M306.4,200.4l-1.7-2.4h-0.1l1.6,2.3l-1.6-2.3h-1.4l-0.2,4.8l3.6-2.4l-0.1-0.1L306.4,200.4L306.4,200.4z" class="st1 path9" style=""></path>
          <polygon points="303.3,198 304.7,198 303.4,196.1 	" class="st1 polygon25" style=""></polygon>
          <path d="M212,198h25.9l4.2-3.5l11.7-11.5l1-29L223,184.8c0.9,0,1.9,0.1,2.9,0.2L212,198z" class="st1 path7" style=""></path>
          <polygon points="253.3,198 253.7,186.4 239.8,198 	" class="st1 polygon29" style=""></polygon>
          <polygon points="265.3,198 253.3,198 252.9,207.6 	" class="st1 polygon26" style=""></polygon>
          <polygon points="202.1,229.4 201.5,247.5 252.9,207.6 253.3,198 239.8,198 	" class="st1 polygon27" style=""></polygon>
          <polygon points="235.4,248 251.9,237 252.6,218.4 210.2,248 	" class="st1 polygon22" style=""></polygon>
          <polygon points="251.5,248 251.9,237.2 235.7,248 	" class="st0 polygon37" style=""></polygon>
          <polygon points="235.7,248 200.7,271.3 199.7,298 249.8,298 251.5,248 	" class="st0 polygon39" style=""></polygon>
          <polygon points="210.2,248 201.3,254.3 200.7,271.1 235.4,248 	" class="st1 polygon16" style=""></polygon>
          <polygon points="199.7,298 198,348 248,348 249.8,298 	" class="st0 polygon38" style=""></polygon>
          <path d="M196.3,398h50l1.8-50h-50L196.3,398z M226.6,358.3c8.8,3.3,13.3,13,10.1,21.8c0,0.1,0,0.1-0.1,0.2
                      c-3.4,8.8-13.3,13.3-22.1,10c-8.8-3.3-13.3-13-10.1-21.8c0-0.1,0-0.1,0.1-0.2C207.8,359.5,217.7,355,226.6,358.3L226.6,358.3z" class="st0 path24" style=""></path>
          <path d="M196.3,398l-0.6,16.1c17.2-1.8,34.2-5.7,50.4-11.6l0.2-4.5H196.3z" class="st0 path21" style=""></path>
          <path d="M246.1,402.5c3.9-1.4,7.7-2.9,11.5-4.5h-11.4L246.1,402.5z" class="st0 path16" style=""></path>
          <ellipse cx="220.5" cy="374.3" class="st7 ellipse1" rx="17.2" ry="17.1" style=""></ellipse>
          <polygon points="202.2,228.2 237.9,198 212,198 202.9,206.5 	" class="st1 polygon10" style=""></polygon>
          <path d="M212,198l13.9-13c-0.9-0.1-1.9-0.1-2.9-0.2L209.4,198H212z" class="st1 path8" style=""></path>
          <path d="M223,184.8c-5.4-0.3-10.8-0.3-16.2,0l-3.1,0.2l-0.5,13h6.1L223,184.8z" class="st0 path1" style=""></path>
          <polygon points="212,198 209.4,198 203,204.2 202.9,206.5 	" class="st1 polygon13" style=""></polygon>
          <polygon points="209.4,198 203.2,198 203,204.2 	" class="st0 polygon1" style=""></polygon>
          <path d="M203.2,198l0.5-13c-15.7,1.2-34.4,4.2-50.4,10.6l-0.1,2.4H203.2z" class="st0 path0" style=""></path>
          <polygon points="203,204.2 203.2,198 153.2,198 151.5,248 157.7,248 	" class="st0 polygon0" style=""></polygon>
          <polygon points="203,204.2 157.7,248 158.6,248 202.9,206.5 	" class="st1 polygon12" style=""></polygon>
          <polygon points="202.9,206.5 158.6,248 178.8,248 202.2,228.2 	" class="st1 polygon11" style=""></polygon>
          <polygon points="201.5,247.5 202.1,229.4 179.8,248 200.9,248 	" class="st1 polygon31" style=""></polygon>
          <polygon points="179.8,248 150.6,272.3 150.1,287.4 200.9,248 	" class="st1 polygon30" style=""></polygon>
          <polygon points="201.3,254.3 150,290.1 149.7,298 160.4,298 200.7,271.1 	" class="st1 polygon24" style=""></polygon>
          <polygon points="160.5,298 199.7,298 200.7,271.3 	" class="st0 polygon36" style=""></polygon>
          <polygon points="199.7,298 160.5,298 149.4,305.3 148,348 198,348 	" class="st0 polygon35" style=""></polygon>
          <path d="M148,348l-1.7,50h50l1.7-50H148z M159.7,392.7c-8.8-3.3-13.3-13.2-9.9-22s13.2-13.3,22-9.9
                      c8.8,3.3,13.3,13.1,10,21.9C178.4,391.5,168.6,396,159.7,392.7C159.7,392.7,159.7,392.7,159.7,392.7L159.7,392.7z" class="st0 path29" style=""></path>
          <ellipse cx="166.8" cy="377.8" class="st6 ellipse0" rx="18.2" ry="18.2" style=""></ellipse>
          <path d="M146.2,398l-0.5,14.2c14.2,2.5,28.6,3.3,42.9,2.5c2.3-0.1,4.7-0.3,7.1-0.6l0.6-16.1H146.2z" class="st0 path19" style=""></path>
          <polygon points="206,434.5 206,425.2 195.3,425.2 195,434.5 	" class="st11 polygon54" style=""></polygon>
          <polygon points="170.7,434.5 195,434.5 195.3,425.2 161.5,425.2 161.5,448 170.7,448 	" class="st11 polygon51" style=""></polygon>
          <polygon points="196.5,460.6 196.5,451.2 194.4,451.2 194.1,460.6 	" class="st11 polygon52" style=""></polygon>
          <polygon points="209.7,488.4 209.7,479.2 193.4,479.2 193.1,488.4 	" class="st11 polygon53" style=""></polygon>
          <path d="M170.7,453.7V448h-9.2v40.4h31.6l0.3-9.2h-22.7v-16.1c3.8-2,7.9-2.5,11.9-2.5h11.4l0.3-9.4h-11.7
                      C178.5,451.2,174.6,451.5,170.7,453.7z" class="st11 path84" style=""></path>
          <polygon points="158.6,248 151.2,254.9 150.6,271.8 178.8,248 	" class="st1 polygon4" style=""></polygon>
          <polygon points="151.5,248 151.2,254.3 157.7,248 	" class="st0 polygon2" style=""></polygon>
          <polygon points="149.5,305.3 160.4,298 149.7,298 	" class="st1 polygon21" style=""></polygon>
          <path d="M153.3,195.6c-1.9,0.8-3.7,1.5-5.5,2.4h5.4L153.3,195.6z" class="st0 path2" style=""></path>
          <path d="M153.2,198h-5.4c-20.2,9.5-34.6,25-29.9,50h33.6L153.2,198z" class="st0 path4" style=""></path>
          <path d="M151.5,248h-33.6c0.3,1.5,0.6,3.1,1.1,4.7c1.8,6.6,5.7,13,10.7,22.3l1.8-1.7l19.8-19.2L151.5,248z" class="st0 path3" style=""></path>
          <polygon points="157.7,248 151.2,254.3 151.2,254.9 158.6,248 	" class="st1 polygon15" style=""></polygon>
          <polygon points="150.6,271.8 151.2,254.9 131.4,273.4 106,298 119.6,298 	" class="st1 polygon7" style=""></polygon>
          <polygon points="150.6,272.3 119.8,298 136.4,298 150.1,287.4 	" class="st1 polygon28" style=""></polygon>
          <polygon points="138.7,298 149.7,298 150,290.1 	" class="st1 polygon23" style=""></polygon>
          <path d="M149.7,298h-11.1l-22.1,15.4l0.8,1c5.7,3.1,12.1,3.8,16.8,1l15.2-10.1L149.7,298z" class="st1 path10" style=""></path>
          <path d="M149.4,305.3L135,315l-0.2,0.1c-0.1,0.1-0.1,0.1-0.2,0.1l-0.2,0.1l-0.2,0.1l-10.1,6.7l-6.8-7.7
                      c-0.6-0.4-1.3-0.7-1.9-1.1c-1.9-1.3-3.7-2.8-5.2-4.5l-1.8-1.4l-5.5-6.6l1.8-1.8c-0.1-0.4-0.2-0.8-0.2-1.1h-5l-1.8,50h50
                      L149.4,305.3z" class="st0 path26" style=""></path>
          <path d="M148,348H98l-0.4,10.5c4.2-8.5,14.4-12,22.9-7.8c8.5,4.2,12,14.4,7.8,22.9c-4.2,8.5-14.4,12-22.9,7.8
                      c-3.8-1.8-6.7-5-8.3-8.9l-0.8,23.4c1.4,0.8,2.9,1.5,4.3,2.2h45.6L148,348z" class="st0 path36" style=""></path>
          <path d="M100.6,398c14.3,6.8,29.5,11.6,45.1,14.2l0.5-14.2H100.6z" class="st0 path20" style=""></path>
          <path d="M106.9,382c8.8,3.3,18.7-1.1,22-10c3.3-8.8-1.1-18.7-10-22c-8.2-3.1-17.4,0.6-21.3,8.4l-0.5,14
                      C98.9,376.9,102.4,380.3,106.9,382z" class="st2 path41" style=""></path>
          <rect width="9.3" height="22.8" x="133.6" y="425.2" class="st11 rect2" style=""></rect>
          <polygon points="133.6,473.5 112.1,448 100,448 133.7,488.4 142.9,488.4 142.9,448 133.6,448 	" class="st11 polygon48" style=""></polygon>
          <polygon points="95.2,427.8 94.4,448 97.5,448 97.5,445 100,448 112.1,448 	" class="st11 polygon46" style=""></polygon>
          <polygon points="95.2,427.8 93,425.2 81.1,425.2 88.4,434.1 88.4,448 94.4,448 	" class="st11 polygon47" style=""></polygon>
          <polygon points="93,488.4 97.5,488.4 97.5,448 94.4,448 	" class="st11 polygon50" style=""></polygon>
          <polygon points="88.4,448 88.4,488.4 93,488.4 94.4,448 	" class="st11 polygon49" style=""></polygon>
          <path d="M117.4,314.4l6.8,7.7l10.1-6.7C129.6,318.2,123.2,317.5,117.4,314.4z" class="st0 path39" style=""></path>
          <path d="M136.4,298h-16.7l-10.9,9.1l0,0c0.5,0.6,0.9,1.2,1.4,1.7l6.3,4.6L136.4,298z" class="st1 path11" style=""></path>
          <path d="M105.2,300.5c0.9,2.4,2.1,4.6,3.7,6.6l10.8-9.1H106l-1.2,1.1c0.1,0.3,0.1,0.7,0.2,1
                      C105.1,300.3,105.1,300.4,105.2,300.5z" class="st1 path6" style=""></path>
          <path d="M105.2,300.5c0-0.1-0.1-0.3-0.1-0.4c-0.1-0.3-0.1-0.6-0.2-1l-1.9,1.8l5.4,6.5l0.4-0.4
                      C107.3,305.1,106,302.9,105.2,300.5z" class="st0 path38" style=""></path>
          <path d="M83.3,236.7c-9.3-1.8-17,3.1-23.3,11.3h37.5C94.6,242.3,90.2,238.1,83.3,236.7z" class="st0 path18" style=""></path>
          <path d="M101,259l-1.4,39h5C102.9,287.7,103.7,272,101,259z" class="st0 path28" style=""></path>
          <path d="M99.7,298l1.3-39c-0.7-3.8-1.9-7.5-3.6-11H60c-3.7,5.1-6.8,10.6-9.2,16.5L49.7,298H99.7z" class="st0 path27" style=""></path>
          <path d="M97.9,348l1.8-50h-50L48,346.8c0.2,0.4,0.3,0.8,0.5,1.2H97.9z" class="st0 path22" style=""></path>
          <path d="M108.8,307.1l-0.4,0.4l1.8,1.4C109.8,308.3,109.3,307.7,108.8,307.1z" class="st0 path40" style=""></path>
          <path d="M97.1,372.5l0.5-14c-0.3,0.5-0.5,1-0.7,1.5C95.4,364,95.4,368.5,97.1,372.5z" class="st2 path42" style=""></path>
          <path d="M96.9,360c0.2-0.5,0.4-1,0.7-1.5l0.4-10.5H48.5c9.6,21,27,36.9,47.8,47.8l0.8-23.4
                      C95.4,368.5,95.4,364,96.9,360z" class="st0 path30" style=""></path>
          <path d="M50.8,264.5c-4.4,10.8-7.5,22-9.3,33.5h8.1L50.8,264.5z" class="st0 path17" style=""></path>
          <path d="M41.5,298c-0.8,5-1.2,10.1-1.2,15.2c0.4,11.6,2.9,23,7.6,33.6l1.7-48.8H41.5z" class="st0 path34" style=""></path>
          <rect width="9.1" height="22.8" x="58.9" y="425.2" class="st11 rect0" style=""></rect>
          <rect width="9.1" height="40.4" x="58.9" y="448" class="st11 rect1" style=""></rect>
          <polygon points="44.5,434.5 44.5,425.2 0,425.2 0,448 9.2,448 9.2,434.5 	" class="st11 polygon45" style=""></polygon>
          <path d="M0,488.4h9.2v-25.3c3.8-2,7.9-2.5,11.9-2.5H35v-9.4H21.2c-4.1,0-8.1,0.3-11.9,2.5V448H0V488.4z" class="st11 path83" style=""></path>
          <polygon points="151.2,254.3 131.4,273.4 151.2,254.9 	" class="st1 polygon14" style=""></polygon>
  </svg>