<svg xmlns="http://www.w3.org/2000/svg" viewBox="0 0 508.81 500">
    <defs>
        <style>
           .cls-2{fill:#fff800;stroke: #fff800;}.cls-3{fill:#1d4084;stroke: #1d4084;}.cls-4{fill:#513f40;stroke: #513f40;}.cls-5{fill:#923c21;stroke: #923c21;}.cls-6{fill:#e6e6e6;stroke: #e6e6e6;}.cls-7{fill:#00609a;stroke: #00609a;}.cls-8{fill:#f9c68c;stroke: #f9c68c;}.cls-9{fill:#a54d2e;stroke: #a54d2e;}.cls-10{fill:#38f9d7;stroke: #38f9d7;}svg{height: 500px;width: 500px;
           }
        </style>
    </defs>
    <title>
        Music
    </title>
    <path d="M507.8,57.22a15.64,15.64,0,0,0,.92-7.22h-.79Z" class="cls-5 path141" style=""></path>
<path d="M507.93,50h.79a16.48,16.48,0,0,0-.73-3.44Z" class="cls-5 path142" style=""></path>
<path d="M489.65,50c-1.79.36-3.95.23-5.11,1.38-1.59.34-2.47.11-2.7-1.36v0h-2.26c.09.34.18.69.24,1,.51,2.77-2.52,2.43-4.25,3.1-1.35.53-2.72,1-3.71,1.36-2.42.18-4.55.24-3-2.71a5.19,5.19,0,0,0,.32-2.77h-5.41a6.94,6.94,0,0,1,2.12,4.59c.44,4.94-5,3.14-7.14,4.81-.33.09-.66.21-1,.32l-.46,26.44a79,79,0,0,0,9.08-13.39c5.22-9.63,9.12-10.72,19-6.31,6,2.67,15.07.56,19.64-4.56a14.71,14.71,0,0,0,2.82-4.68l.13-7.22Z" class="cls-5 path143" style=""></path>
<path d="M488.49,35.65a30.7,30.7,0,0,0-3.72,1c-3,1.14-4.44.61-3-2.81a7.28,7.28,0,0,0,.66-4.24c-.27-1.6-1-2.86-2.84-2.63a2.63,2.63,0,0,0-2.29,3.2,11.4,11.4,0,0,0,1.56,4c1.5,2.6.65,4.14-2,5-1.39.45-2.86.66-4.23,1.17-3.06,1.15-5.43,1.84-3.27-2.93a4.67,4.67,0,0,0-.95-5.57,1.93,1.93,0,0,0-2.93.18c-1.62,1.74-1.28,3.67-.23,5.57.86,1.55,2.65,3.61.46,4.74C463.38,43.52,460.7,45,458,45l-.09,5h.45a2,2,0,0,1,.85-.73,4.69,4.69,0,0,1,4.52.73h5.41c-.12-1.47-.29-2.91,1.16-3.83,1.75-1.11,4.22-3,6-1.61A10.94,10.94,0,0,1,479.58,50h2.26c-.55-3.68,2.41-9.2,5.24-9.47,4.34-.41,5.56,3.66,5.54,6s-1.35,3.15-3,3.48h18.28l.06-3.44a17.36,17.36,0,0,0-1.62-3.51A15.87,15.87,0,0,0,488.49,35.65Zm9.27,11.41c-1.09.42-2.9,1.4-3-.56s.49-4.75,2.6-5.42c1.64-.51,3.09,1.46,4.07,3C501.71,47,499.26,46.48,497.76,47.06Z" class="cls-5 path148" style=""></path>
<path d="M497.39,41.08c-2.11.67-2.66,3.42-2.6,5.42s1.88,1,3,.56c1.5-.58,3.95-.07,3.7-2.94C500.48,42.54,499,40.57,497.39,41.08Z" class="cls-9 path202" style=""></path>
<path d="M481.84,50c.23,1.47,1.11,1.7,2.7,1.36,1.16-1.15,3.32-1,5.11-1.38h-7.81Z" class="cls-9 path197" style=""></path>
<path d="M492.62,46.52c0-2.33-1.2-6.4-5.54-6-2.83.27-5.79,5.79-5.24,9.47h7.81C491.27,49.67,492.59,49,492.62,46.52Z" class="cls-9 path196" style=""></path>
<path d="M468.83,52.77c-1.52,2.95.61,2.89,3,2.71,1-.36,2.36-.83,3.71-1.36,1.73-.67,4.76-.33,4.25-3.1-.06-.33-.15-.68-.24-1H469.15A5.19,5.19,0,0,1,468.83,52.77Z" class="cls-9 path194" style=""></path>
<path d="M476.27,44.56c-1.74-1.38-4.21.5-6,1.61-1.45.92-1.28,2.36-1.16,3.83h10.43A10.94,10.94,0,0,0,476.27,44.56Z" class="cls-9 path193" style=""></path>
<path d="M457.91,50.64l-.16,9.08c.31-.11.64-.23,1-.32,2.12-1.67,7.58.13,7.14-4.81A6.94,6.94,0,0,0,463.74,50h-5.37C458.22,50.19,458.07,50.4,457.91,50.64Z" class="cls-9 path198" style=""></path>
<path d="M459.22,49.27a2,2,0,0,0-.85.73h5.37A4.69,4.69,0,0,0,459.22,49.27Z" class="cls-9 path200" style=""></path>
<path d="M455.23,58.85c-.44-1.45,1.21-5.92,2.68-8.21V50H439.49A2.56,2.56,0,0,1,438,51.21c-2.78,1-5.55,2.73-8.61,2.27-.67-1.2-.15-2,.18-2.85.09-.21.16-.42.23-.63h-4.47l.21.53c.59,1.48,2.19,3.34.31,4.35-2.67,1.43-5.78,3.3-8.76,2.41-2.48-.75.2-3,.08-4.71a7.25,7.25,0,0,0-.56-2.58h-4.52a5.7,5.7,0,0,0,0,2.6,18.36,18.36,0,0,0,1.32,3.55c.53,1.33.61,2.56-1,3.18a10.09,10.09,0,0,0-4.7,3.69l-.2,11.14a15.08,15.08,0,0,0,1.73-3.8,10,10,0,0,1,9.12-8.06c2.27-.28,5.19-3.93,6.92.15,1.28,3,3.42,6.83-2,8.85-2.35.88-2.82,3.63-3.81,5.79-1.66,3.62-3,7.57-7.61,8.66l3.87,6.17c8.39-1.63,16,.61,23,5,3.25,2,5.33,1.54,8.19-.72a70.69,70.69,0,0,0,10.38-10.06l.46-26.44C456.63,60.12,455.7,60.41,455.23,58.85Zm-23.37,9.08c-.92-.15-2.32.87-2.45-1.49-.34-6,1.18-8.9,5.79-9.44s3.2,3.93,4.34,6C440.57,65,436.59,67.46,431.86,67.93Zm13.69-4c-1.77.26-3.42,0-2.73-1.69,1.3-3.27-1.7-8.89,4.93-9.36,4.37-.32,4.71,3.86,4.93,5.89C453.22,63.88,447.45,61.76,445.55,63.94Z" class="cls-5 path144" style=""></path>
<path d="M455.23,58.85c.47,1.56,1.4,1.27,2.52.87l.16-9.08C456.44,52.93,454.79,57.4,455.23,58.85Z" class="cls-9 path199" style=""></path>
<path d="M458,45a7.08,7.08,0,0,1-1.58-.17c-2.52-.6.11-3.11-.3-4.77-.35-1.39-.15-3-1.66-3.83a1.91,1.91,0,0,0-2.49.36,4,4,0,0,0-.75,4.57,6,6,0,0,0,.74,1.47c2.28,3,.5,4.15-2.21,4.93-1.4.4-2.77.92-4.19,1.29-1.15.31-2.41,1.55-3.51.27-.83-1,.09-2,.51-3,.82-2,1-3.94-.69-5.57a2,2,0,0,0-2.94.1c-1.71,1.71-1.34,3.65-.34,5.55.68,1.3,1.41,2.73.89,3.82h18.43Z" class="cls-5 path146" style=""></path>
<path d="M447.75,52.89c-6.63.47-3.63,6.09-4.93,9.36-.69,1.73,1,2,2.73,1.69,1.9-2.18,7.67-.06,7.13-5.16C452.46,56.75,452.12,52.57,447.75,52.89Z" class="cls-9 path201" style=""></path>
<path d="M435.2,57c-4.61.54-6.13,3.43-5.79,9.44.13,2.36,1.53,1.34,2.45,1.49,4.73-.47,8.71-3,7.68-4.88C438.4,60.93,439.85,56.46,435.2,57Z" class="cls-9 path195" style=""></path>
<path d="M411.83,85.75h0c4.57-1.09,5.95-5,7.61-8.66,1-2.16,1.46-4.91,3.81-5.79,5.43-2,3.29-5.85,2-8.85-1.73-4.08-4.65-.43-6.92-.15a10,10,0,0,0-9.12,8.06,15.08,15.08,0,0,1-1.73,3.8l-.08,4.68Z" class="cls-9 path190" style=""></path>
<path d="M428.86,45.05a2,2,0,0,0-2.95-.09c-1.64,1.53-1.27,3.31-.62,5h4.47C430.34,48.24,430.41,46.52,428.86,45.05Z" class="cls-5 path147" style=""></path>
<path d="M414.32,48.59A2,2,0,0,0,412.05,50h4.52A2.34,2.34,0,0,0,414.32,48.59Z" class="cls-5 path149" style=""></path>
<path d="M406.05,76.71c.44-.86.95-1.7,1.44-2.55l.2-11.14c-2.15,3-2.83,7-4.41,10.43Z" class="cls-5 path145" style=""></path>
<path d="M407.41,78.84l.08-4.68c-.49.85-1,1.69-1.44,2.55Z" class="cls-9 path189" style=""></path>
<path d="M407.41,78.84l-.34,19.35c2.88-2.1,5.75-4.2,8.63-6.27l-3.87-6.17Z" class="cls-4 path130" style=""></path>
<path d="M406.05,76.71l-2.77-3.26a12.4,12.4,0,0,0-5.55,2.16Q378.41,87.82,359.08,100h45.49l2.5-1.81.34-19.35Z" class="cls-4 path129" style=""></path>
<path d="M356.47,132.65q19.63-13.2,39.25-26.42c3-2,5.93-4.12,8.85-6.23H359.08L357,101.3Z" class="cls-4 path132" style=""></path>
<path d="M410.06,480a40.8,40.8,0,0,0,30.5-13.5l-6.7-9.1a29.41,29.41,0,0,1-23.7,11.7,30.91,30.91,0,0,1-9.53-1.51l-.2,11.3A42.11,42.11,0,0,0,410.06,480Z" class="cls-10 path222" style=""></path>
<path d="M382.12,450H371.17a39.29,39.29,0,0,0,29.26,28.92l.2-11.3A28.7,28.7,0,0,1,382.12,450Z" class="cls-10 path225" style=""></path>
<path d="M380.66,441.23c0-13.8,8.63-24.28,20.91-27.59l.19-11.25C384.07,406,370,420.87,370,439.93A42.08,42.08,0,0,0,371.17,450h10.95A26.85,26.85,0,0,1,380.66,441.23Z" class="cls-10 path223" style=""></path>
<path d="M410.06,412.53a30.33,30.33,0,0,1,21.8,9l7-8.2a40.51,40.51,0,0,0-28.7-11.8,41.78,41.78,0,0,0-8.4.86l-.19,11.25A32.59,32.59,0,0,1,410.06,412.53Z" class="cls-10 path224" style=""></path>
<path d="M310.24,130.82l-3.79,2.4-.3,16.78h24.49q12.9-8.69,25.83-17.35L357,101.3Q333.63,116.06,310.24,130.82Z" class="cls-4 path128" style=""></path>
<path d="M247.08,108.12c-1.08,1.11-1,3.6.29,6,1.37,2.7,3.57,4.4,5.34,4.14h0a7.12,7.12,0,0,0,4-1.89l.14-7.7a19.82,19.82,0,0,0-6.69-1.52A4.18,4.18,0,0,0,247.08,108.12Z" class="cls-2 path81" style=""></path>
<path d="M252.71,118.3h0c-1.77.26-4-1.44-5.34-4.14-1.25-2.44-1.37-4.93-.29-6a4.18,4.18,0,0,1,3.1-.93,19.82,19.82,0,0,1,6.69,1.52l0-2.11c-19.91-7-12.13,14.88-3.9,13.68a9.43,9.43,0,0,0,3.69-1.31l0-2.56A7.12,7.12,0,0,1,252.71,118.3Z" class="cls-2 path87" style=""></path>
<path d="M259.83,107.76c-1-.45-2-.84-2.93-1.16l0,2.11c.84.31,1.73.68,2.71,1.12a10.61,10.61,0,0,1-2.85,6.58l0,2.56c3.38-2.11,4.46-6,4.8-8.41a1.87,1.87,0,0,1-.87-.26A2,2,0,0,1,259.83,107.76Z" class="cls-2 path86" style=""></path>
<path d="M259.58,109.83c-1-.44-1.87-.81-2.71-1.12l-.14,7.7A10.61,10.61,0,0,0,259.58,109.83Z" class="cls-2 path82" style=""></path>
<path d="M263.64,109.15l-.27.46a2,2,0,0,1-1.72,1l-.16,0c-.34,2.38-1.42,6.3-4.8,8.41l0,2.27C261.9,118.75,263.53,112.81,263.64,109.15Z" class="cls-2 path85" style=""></path>
<path d="M253,120.28c-8.23,1.2-16-20.73,3.9-13.68l0-2.11c-5.95-2-10.22-1.72-12.72.84-2.33,2.39-2.5,6.57-.42,10.65s5.29,6.35,8.54,6.35a5.86,5.86,0,0,0,.94-.07,11.57,11.57,0,0,0,3.37-1l0-2.27A9.43,9.43,0,0,1,253,120.28Z" class="cls-2 path83" style=""></path>
<path d="M259.83,107.76c0-.06.06-.13.1-.2s.35-.6.92-1.54c-1.38-.61-2.68-1.11-3.91-1.53l0,2.11C257.82,106.92,258.8,107.31,259.83,107.76Z" class="cls-2 path84" style=""></path>
<path d="M259.83,107.76c.59.26,1.19.52,1.82.82a14.13,14.13,0,0,1-.16,2l.16,0a2,2,0,0,0,1.72-1l.27-.46c0-.2,0-.41,0-.6a2,2,0,0,0-1.14-1.77c-.56-.27-1.12-.52-1.66-.76-.57.94-.9,1.51-.92,1.54S259.86,107.7,259.83,107.76Z" class="cls-2 path91" style=""></path>
<path d="M261.65,108.58c-.63-.3-1.23-.56-1.82-.82a2,2,0,0,0,.79,2.54,1.87,1.87,0,0,0,.87.26A14.13,14.13,0,0,0,261.65,108.58Z" class="cls-2 path92" style=""></path>
<path d="M260.85,106c.54.24,1.1.49,1.66.76a2,2,0,0,1,1.14,1.77c0,.19,0,.4,0,.6l5.45-9.15h-4.66Z" class="cls-2 path88" style=""></path>
<path d="M264.43,100h4.66C273,93.49,277.94,85.18,281,80.14a2,2,0,0,0-1.37-3c-10.54-1.85-17.5-4.24-22.07-6.67l-.08,4.41a80.93,80.93,0,0,0,18.61,5.67C272.66,86.21,267.9,94.18,264.43,100Z" class="cls-2 path90" style=""></path>
<path d="M249.94,63.9a6.06,6.06,0,0,1-.71-5,2,2,0,0,0-3.66-1.61,9.92,9.92,0,0,0,.76,8.32c1.89,3.58,5.63,6.67,11.13,9.26l.08-4.41C253.23,68.19,251,65.86,249.94,63.9Z" class="cls-2 path89" style=""></path>
<path d="M238.08,100h.11c4.4-14.56,6.45-32.56,6.53-33.32a2,2,0,1,0-4-.45c0,.18-2,17.31-6,31.32q1,.24,2,.57A2,2,0,0,1,238.08,100Z" class="cls-2 path75" style=""></path>
<path d="M214.54,105.22c-1.49,4-.49,9.86,7.25,13.06a7.15,7.15,0,0,0,2.77.57,7,7,0,0,0,3-.68c4-1.88,7.41-7.62,10.48-17.57h0a2,2,0,0,1-1.91,1.41,2.06,2.06,0,0,1-.59-.09h0c-3.19,9.59-7.47,16.78-12.94,14.51-9.69-4-7.87-13.16.06-16.43h-4.09A11.73,11.73,0,0,0,214.54,105.22Z" class="cls-2 path72" style=""></path>
<path d="M218.29,106.6c-1.19,3.21.69,6.19,5,8a2.92,2.92,0,0,0,2.5,0c1.52-.71,4.48-3.39,7.74-13.18a20.24,20.24,0,0,0-4.63-.57C223.12,100.8,219.35,103.75,218.29,106.6Z" class="cls-2 path70" style=""></path>
<path d="M234.1,100H222.61c-7.93,3.27-9.75,12.43-.06,16.43,5.47,2.27,9.75-4.92,12.94-14.51A2,2,0,0,1,234.1,100Zm-8.28,14.55a2.92,2.92,0,0,1-2.5,0c-4.34-1.8-6.22-4.78-5-8,1.06-2.85,4.83-5.8,10.64-5.8a20.24,20.24,0,0,1,4.63.57C230.3,111.16,227.34,113.84,225.82,114.55Z" class="cls-2 path73" style=""></path>
<path d="M234.17,99.47a.06.06,0,0,0,0,0c.19-.62.38-1.25.56-1.88-6.85-1.71-12.53-.36-16.22,2.45h4.09A18.64,18.64,0,0,1,234.17,99.47Z" class="cls-2 path71" style=""></path>
<path d="M234.17,99.47c.62.15,1.24.32,1.87.53h2a2,2,0,0,0-1.36-1.88q-1-.33-2-.57c-.18.63-.37,1.26-.56,1.88A.06.06,0,0,1,234.17,99.47Z" class="cls-2 path78" style=""></path>
<path d="M234.17,99.47a18.64,18.64,0,0,0-11.56.53H234.1A2,2,0,0,1,234.17,99.47Z" class="cls-2 path74" style=""></path>
<path d="M236,100H234.1a2,2,0,0,0,1.39,1.92c.2-.63.41-1.26.6-1.9Z" class="cls-2 path79" style=""></path>
<path d="M236,100l.05,0c-.19.64-.4,1.27-.6,1.9h0a2.06,2.06,0,0,0,.59.09,2,2,0,0,0,1.91-1.41h0a1.76,1.76,0,0,0,.07-.6Z" class="cls-2 path77" style=""></path>
<path d="M234.1,100H236c-.63-.21-1.25-.38-1.87-.53A2,2,0,0,0,234.1,100Z" class="cls-2 path80" style=""></path>
<polygon points="350.43 478.33 352.96 478.33 352.96 450 350.93 450 350.43 478.33" class="cls-10 polygon59" style=""></polygon>
<polygon points="342.26 450 342.26 478.33 350.43 478.33 350.93 450 342.26 450" class="cls-10 polygon61" style=""></polygon>
<polygon points="351.73 403.73 342.26 403.73 342.26 450 350.93 450 351.73 403.73" class="cls-10 polygon62" style=""></polygon>
<polygon points="351.73 403.73 350.93 450 352.96 450 352.96 403.73 351.73 403.73" class="cls-10 polygon60" style=""></polygon>
<path d="M311.64,162.79l19-12.79H306.15l-.29,16.7Z" class="cls-4 path133" style=""></path>
<path d="M306.45,133.22Q293.21,141.61,280,150h26.18Z" class="cls-4 path135" style=""></path>
<path d="M255.27,200h1.37q24.6-16.68,49.22-33.3l.29-16.7H280l-24.09,15.25Z" class="cls-4 path131" style=""></path>
<path d="M205.27,200h50l.61-34.75q-11.43,7.26-22.87,14.49c-7.71,4.87-15.55,9.53-23.33,14.28-1.41,1.2-2.88,2.33-4.37,3.42Z" class="cls-4 path136" style=""></path>
<path d="M315.06,455.63c0,7.11-6.49,11.24-14.46,12.79l-.2,11.09c15.11-2.15,25.86-10.92,25.86-23.88a32.36,32.36,0,0,0-.45-5.63H313.75A11.14,11.14,0,0,1,315.06,455.63Z" class="cls-10 path220" style=""></path>
<path d="M293,469.13c-11.7,0-19-7-22.9-11.7l-7.8,7.3A39.58,39.58,0,0,0,293,480a52.66,52.66,0,0,0,7.44-.52l.2-11.09A40.14,40.14,0,0,1,293,469.13Z" class="cls-10 path218" style=""></path>
<path d="M301.2,433.71l-.18,10.7c5.61.4,10.49,1.65,12.73,5.59h12.06C324.19,440.73,317.77,435,301.2,433.71Z" class="cls-10 path219" style=""></path>
<path d="M265.46,424.93c0,12.7,9.7,19.3,27.5,19.3,2.72,0,5.46,0,8.06.18l.18-10.7c-2.37-.18-4.94-.28-7.74-.28-12.7,0-15.9-4.1-15.9-8.6,0-6.5,7-12.3,15.4-12.3a37.17,37.17,0,0,1,8.6.88l.19-11.14a50.45,50.45,0,0,0-8.79-.74C277,401.53,265.46,412.83,265.46,424.93Z" class="cls-10 path217" style=""></path>
<path d="M316.16,421.33l6.8-8a39.72,39.72,0,0,0-21.21-11.06l-.19,11.14C306.59,414.58,310.88,417,316.16,421.33Z" class="cls-10 path221" style=""></path>
<path d="M204.64,236.14h0c5.73-4.19,11.35-8.54,17.22-12.53q16.69-11.36,33.4-22.67V200h-50Z" class="cls-4 path137" style=""></path>
<path d="M243.09,256.94c-2.05.78-4.18,1.34-6.29,1.92-12.94,3.55-23.8-.26-29-8.86h-3.45l0,2.42c7.6,11.58,19.33,15,34.87,10.2a9.74,9.74,0,0,1,1-.37c3.37-.69,7.35-3.82,9.85.51,2.18,3.75-1.13,6.85-3.37,9.65-7.87,9.84-18.85,14-30.68,16.5a55.51,55.51,0,0,1-6.46,1.19,57.56,57.56,0,0,0-5.91.85l-.09,4.92c10.84-2.05,21.9-3.46,31.85-8.82,7.71-4.16,14.44-9.33,18.3-17.49.12-.24.23-.49.33-.73l.14-8a7.38,7.38,0,0,0-1.12-1.53A8.64,8.64,0,0,0,243.09,256.94Z" class="cls-3 path98" style=""></path>
<path d="M254.21,260.85l-.14,8C255.22,266.11,255.61,263.34,254.21,260.85Z" class="cls-3 path111" style=""></path>
<path d="M216.05,288.91c11.83-2.51,22.81-6.66,30.68-16.5,2.24-2.8,5.55-5.9,3.37-9.65-2.5-4.33-6.48-1.2-9.85-.51a9.74,9.74,0,0,0-1,.37c-15.54,4.84-27.27,1.38-34.87-10.2L203.68,291a57.56,57.56,0,0,1,5.91-.85A55.51,55.51,0,0,0,216.05,288.91Z" class="cls-6 path151" style=""></path>
<path d="M204.39,250h3.45a24.44,24.44,0,0,1-3.2-13.86h0Z" class="cls-3 path114" style=""></path>
<path d="M204.64,236.14h0c-2.42.44-4.16,2.12-6.13,3.36h0c.48,1.38.93,2.77,1.45,4.14a48,48,0,0,0,2.93,6.36h1.5Z" class="cls-3 path125" style=""></path>
<path d="M198.51,239.5c2-1.24,3.71-2.92,6.13-3.36l.63-36.14h-3.68c-3.65,2.41-7.43,4.65-11.16,6.95l-.87.65c-3.6,2.63-9.76,3.92-10.43,7.73-.57,3.29,3.69,7.44,5.84,11.19s4.66,7.38,6.45,11.31c.92,2,1.91,3.08,3.07,3.32a2.12,2.12,0,0,0,.44,0,3,3,0,0,0,.93-.12,6.31,6.31,0,0,0,1-.42,9.86,9.86,0,0,0,1.65-1.16Z" class="cls-4 path134" style=""></path>
<path d="M202.89,250c.47.84,1,1.65,1.46,2.42l0-2.42Z" class="cls-3 path96" style=""></path>
<path d="M205.31,197.44q-1.83,1.32-3.72,2.56h3.68Z" class="cls-4 path138" style=""></path>
<path d="M209.68,194a25.39,25.39,0,0,1-4.29-1l-.08,4.45C206.8,196.35,208.27,195.22,209.68,194Z" class="cls-3 path108" style=""></path>
<path d="M188.55,200c.7,2.29,1.28,4.62,1.88,6.95,3.73-2.3,7.51-4.54,11.16-6.95Z" class="cls-3 path113" style=""></path>
<path d="M174.2,191.15c4.44-4.84,8.66-4.05,11.6,1.8a44.18,44.18,0,0,1,2.75,7.05h13q1.89-1.25,3.72-2.56l.08-4.45c-10.88-3.65-15.51-14.33-10.39-25.68,2.31-5.12,6-9.13,10.21-12.73.28-.24.57-.46.86-.69l.07-3.89H195c-9.36,4.82-17.23,11.78-24,20.06-5,6.13-10.1,12.2-15.51,17.94l-.21,12H167C169.29,197,171.63,194,174.2,191.15Z" class="cls-3 path104" style=""></path>
<path d="M210.24,141.86c.37,3-2,3.21-4,3.68l-.08,4.46H211l.22-.18c2.82-2.56,4.9-5.58,3.83-9.65-1.15-4.35-4.75-5.76-8.62-6.35l-.07,4.42C208.28,138.48,209.93,139.3,210.24,141.86Z" class="cls-3 path95" style=""></path>
<path d="M206.07,153.89c1.64-1.31,3.36-2.51,4.92-3.89h-4.85Z" class="cls-3 path93" style=""></path>
<path d="M195,150h11.13l.08-4.46q-.43.09-.84.21A63.33,63.33,0,0,0,195,150Z" class="cls-3 path107" style=""></path>
<path d="M210.24,141.86c-.31-2.56-2-3.38-3.89-3.62l-.13,7.3C208.29,145.07,210.61,144.86,210.24,141.86Z" class="cls-7 path170" style=""></path>
<path d="M203.59,295.87l.09-4.92A48.69,48.69,0,0,0,183.17,300h7.71a41.83,41.83,0,0,1,11.39-3.88Z" class="cls-3 path99" style=""></path>
<path d="M203.68,291l.67-38.53c-.5-.77-1-1.58-1.46-2.42h-40q3.61,6.57,7.16,13.19c1.16,2.17,0,4.22-2.11,5.55s-4.76,1.09-5.9-.84c-2.64-4.47-5.22-9-7.74-13.41l-.8,45.51h29.66A48.69,48.69,0,0,1,203.68,291Z" class="cls-6 path160" style=""></path>
<path d="M162.9,250h40a48,48,0,0,1-2.93-6.36c-.52-1.37-1-2.76-1.45-4.14a9.86,9.86,0,0,1-1.65,1.16,6.31,6.31,0,0,1-1,.42,3,3,0,0,1-.93.12,2.12,2.12,0,0,1-.44,0c-1.16-.24-2.15-1.3-3.07-3.32-1.79-3.93-4.29-7.54-6.45-11.31s-6.41-7.9-5.84-11.19c.67-3.81,6.83-5.1,10.43-7.73l.87-.65c-.6-2.33-1.18-4.66-1.88-6.95H167q-1.51,2-3,4a78.21,78.21,0,0,1-8.91,9.79l-.38,21.44Q158.81,242.59,162.9,250Z" class="cls-6 path152" style=""></path>
<path d="M174.2,191.15C171.63,194,169.29,197,167,200h21.58A44.18,44.18,0,0,0,185.8,193C182.86,187.1,178.64,186.31,174.2,191.15Z" class="cls-6 path153" style=""></path>
<path d="M163.93,204q1.53-2,3-4H155.26L155,213.77A78.21,78.21,0,0,0,163.93,204Z" class="cls-3 path97" style=""></path>
<path d="M195,150H173.67c-6.79,5.41-12.34,12-17.86,18.61L155.47,188c5.41-5.74,10.48-11.81,15.51-17.94C177.78,161.78,185.65,154.82,195,150Z" class="cls-7 path175" style=""></path>
<path d="M205.38,145.75q.41-.12.84-.21l.13-7.3a16.54,16.54,0,0,0-2.44-.09c-10.22.2-19.19,3.9-27.45,9.74-1,.68-1.88,1.39-2.79,2.11H195A63.33,63.33,0,0,1,205.38,145.75Z" class="cls-7 path176" style=""></path>
<path d="M176.46,147.89c8.26-5.84,17.23-9.54,27.45-9.74a16.54,16.54,0,0,1,2.44.09l.07-4.42-.12,0a27.24,27.24,0,0,0-8.72.27c-12.05,2.14-22,8-30.68,15.93h6.77C174.58,149.28,175.5,148.57,176.46,147.89Z" class="cls-3 path94" style=""></path>
<path d="M173.67,150H166.9q-2,1.84-4,3.84c-2.42,2.5-4.74,5.08-7,7.69l-.12,7.08C161.33,162,166.88,155.41,173.67,150Z" class="cls-3 path106" style=""></path>
<path d="M247.26,403.73h-10.8v45.6c0,.23,0,.44,0,.67h10.82c0-.22,0-.44,0-.67Z" class="cls-10 path216" style=""></path>
<path d="M213.76,469.13a29,29,0,0,1-13.14-2.69l-.21,11.76A45.79,45.79,0,0,0,213.76,480c20.85,0,33.2-11,33.49-30H236.43C236.14,462.37,228,469.13,213.76,469.13Z" class="cls-10 path214" style=""></path>
<path d="M191.09,450H180.27c.22,14.49,7.46,24.34,20.14,28.2l.21-11.76C194.59,463.39,191.27,457.82,191.09,450Z" class="cls-10 path213" style=""></path>
<path d="M191.06,449.33v-45.6h-10.8v45.6c0,.23,0,.45,0,.67h10.82C191.08,449.77,191.06,449.56,191.06,449.33Z" class="cls-10 path215" style=""></path>
<path d="M167.86,317.43c-4.75,7.74-9.68,15.36-15.05,22.68l-.13,7.47c2.68-3.55,5.26-7.19,7.82-10.85,6.39-9.13,12-18.78,19.08-27.46a35.63,35.63,0,0,1,11.3-9.27h-7.71A62.26,62.26,0,0,0,167.86,317.43Z" class="cls-3 path103" style=""></path>
<path d="M183.17,300H153.51l-.7,40.11c5.37-7.32,10.3-14.94,15.05-22.68A62.26,62.26,0,0,1,183.17,300Z" class="cls-6 path161" style=""></path>
<path d="M154.31,254.49c2.52,4.44,5.1,8.94,7.74,13.41,1.14,1.93,3.68,2.23,5.9.84s3.27-3.38,2.11-5.55q-3.54-6.62-7.16-13.19h-8.51Z" class="cls-8 path203" style=""></path>
<path d="M154.39,250h8.51q-4.1-7.42-8.26-14.79Z" class="cls-8 path204" style=""></path>
<path d="M123.83,229.69A64,64,0,0,0,155,213.77l.24-13.77H142.84c-1.38,1.15-2.78,2.27-4.22,3.36-7.54,5.7-15.84,9.79-25.42,10.69q-4.12.38-8.21.93l-.33,18.77C111,232.08,117.44,231,123.83,229.69Z" class="cls-3 path110" style=""></path>
<path d="M155.47,188a146.25,146.25,0,0,1-12.63,12h12.42Z" class="cls-3 path102" style=""></path>
<path d="M113.2,214.05c9.58-.9,17.88-5,25.42-10.69,1.44-1.09,2.84-2.21,4.22-3.36H122.06a66.43,66.43,0,0,1-16.93,7.11L105,215Q109.07,214.43,113.2,214.05Z" class="cls-7 path173" style=""></path>
<path d="M155.47,188l.34-19.39c-2.39,2.86-4.78,5.72-7.26,8.48-8.12,9-16.63,17.1-26.49,22.91h20.78A146.25,146.25,0,0,0,155.47,188Z" class="cls-7 path169" style=""></path>
<path d="M148.55,177.09c2.48-2.76,4.87-5.62,7.26-8.48l.12-7.08c-7.93,9.08-15.38,18.59-24.58,26.52A69.9,69.9,0,0,1,112.57,200h9.49C131.92,194.19,140.43,186.1,148.55,177.09Z" class="cls-3 path105" style=""></path>
<path d="M112.57,200a53.82,53.82,0,0,1-7.36,2.45l-.08,4.66A66.43,66.43,0,0,0,122.06,200Z" class="cls-3 path123" style=""></path>
<path d="M152.81,340.11q-3.7,5.06-7.73,9.89h5.74c.62-.8,1.25-1.6,1.86-2.42Z" class="cls-3 path109" style=""></path>
<path d="M153.51,300H107.92a205.52,205.52,0,0,0,10.76,18.74c2.5,3.72,2.51,7.37-1.56,9.88s-7.2.43-9.5-3.23c-.47-.75-1.06-1.42-1.59-2.12q-1.45,3.45-3,6.83l-.35,19.9h18c.58-2.52,2.68-4,5.65-4.77,3.41.12,5.77,1.66,6.7,4.77h12.12q4-4.83,7.73-9.89Z" class="cls-6 path157" style=""></path>
<path d="M151.77,250H139.2c4.59,8,9,15.93,13.34,23.52.42,3,0,5.11-2.22,6.34-2.47,1.35-4.93.88-6.25-1.41Q136,264.34,128.24,250H104.38l-.74,42.12c1.47,2.6,2.88,5.24,4.28,7.88h45.59l.8-45.51C153.45,253,152.61,251.49,151.77,250Z" class="cls-6 path154" style=""></path>
<path d="M144.07,278.45c1.32,2.29,3.78,2.76,6.25,1.41,2.26-1.23,2.64-3.3,2.22-6.34-4.31-7.59-8.75-15.55-13.34-23.52h-11Q136,264.34,144.07,278.45Z" class="cls-8 path208" style=""></path>
<path d="M154.64,235.21c-.67-1.18-1.33-2.37-2-3.56-1.2-2.11-3.55-2.6-5.8-1.57s-3.2,2.89-2.54,6.61c2.4,4.26,4.91,8.74,7.48,13.31h2.62Z" class="cls-8 path206" style=""></path>
<path d="M151.77,250c.84,1.49,1.68,3,2.54,4.49l.08-4.49Z" class="cls-8 path205" style=""></path>
<path d="M128.87,241.33c-2.44,1.44-3.22,3.86-2,6.12l1.38,2.55h11q-2.2-3.83-4.46-7.64C133.57,240.37,131.1,240,128.87,241.33Z" class="cls-8 path207" style=""></path>
<path d="M126.86,247.45c-1.21-2.26-.43-4.68,2-6.12,2.23-1.31,4.7-1,5.87,1q2.25,3.81,4.46,7.64h12.57c-2.57-4.57-5.08-9.05-7.48-13.31-.66-3.72.33-5.6,2.54-6.61s4.6-.54,5.8,1.57c.68,1.19,1.34,2.38,2,3.56l.38-21.44a64,64,0,0,1-31.19,15.92c-6.39,1.3-12.85,2.39-19.17,4.06L104.38,250h23.86Z" class="cls-6 path155" style=""></path>
<path d="M97.21,236.05c2.45-.9,4.94-1.64,7.45-2.3L105,215c-17.58,2.32-34.52,6.91-50.28,15.58L54.37,250H83.92C84.41,243.61,88.69,239.18,97.21,236.05Z" class="cls-3 path101" style=""></path>
<path d="M105,215l.14-7.87a65.59,65.59,0,0,1-13.51,2,105.17,105.17,0,0,0-36.69,9.12l-.22,12.28C70.47,221.89,87.41,217.3,105,215Z" class="cls-7 path172" style=""></path>
<path d="M91.62,209.16a65.59,65.59,0,0,0,13.51-2l.08-4.66A54.06,54.06,0,0,1,96.05,204a151.26,151.26,0,0,0-40.48,9.33l-.56.21-.08,4.77A105.17,105.17,0,0,1,91.62,209.16Z" class="cls-3 path112" style=""></path>
<polygon points="146.36 450 146.36 478.33 150.4 478.33 150.9 450 146.36 450" class="cls-10 polygon58" style=""></polygon>
<polygon points="150.4 478.33 157.06 478.33 157.06 450 150.9 450 150.4 478.33" class="cls-10 polygon56" style=""></polygon>
<polygon points="165.76 403.73 151.7 403.73 150.9 450 157.06 450 157.06 414.23 165.76 403.73" class="cls-10 polygon55" style=""></polygon>
<polygon points="151.7 403.73 151.66 403.73 120.76 440.33 101.46 417.17 101.17 433.8 114.61 450 127.16 450 146.36 427.03 146.36 450 150.9 450 151.7 403.73" class="cls-10 polygon57" style=""></polygon>
<polygon points="120.86 457.53 127.16 450 114.61 450 120.86 457.53" class="cls-10 polygon53" style=""></polygon>
<polygon points="101.17 433.8 101.46 417.17 90.26 403.73 76.16 403.73 84.86 414.23 84.86 450 95.56 450 95.56 427.03 101.17 433.8" class="cls-10 polygon54" style=""></polygon>
<rect width="10.7" height="28.33" x="84.86" y="450" class="cls-10 rect0" style=""></rect>
<path d="M150.82,350h-5.74c-1.57,1.87-3.16,3.72-4.81,5.53-6.61,7.21-14,13.34-23.44,16.58a20.22,20.22,0,0,1-14.57-.51l-.13,7.26a53.63,53.63,0,0,0,34.53-13.57A107.15,107.15,0,0,0,150.82,350Z" class="cls-3 path116" style=""></path>
<path d="M116.83,372.11c9.42-3.24,16.83-9.37,23.44-16.58,1.65-1.81,3.24-3.66,4.81-5.53H133c.08.28.17.55.23.86a6.4,6.4,0,0,1-5.77,7.25c-3.71.08-6.43-1.67-6.91-5.52a7.09,7.09,0,0,1,.1-2.59h-18l-.15,8.59a6.27,6.27,0,0,1,3.8-1.77c3.68-.44,6.25,1.53,6.89,5.53.13,3.84-1.81,6.4-5.58,6.69a5.86,5.86,0,0,1-5.25-2l-.08,4.52A20.22,20.22,0,0,0,116.83,372.11Z" class="cls-6 path163" style=""></path>
<path d="M120.51,352.59c.48,3.85,3.2,5.6,6.91,5.52a6.4,6.4,0,0,0,5.77-7.25c-.06-.31-.15-.58-.23-.86H120.61A7.09,7.09,0,0,0,120.51,352.59Z" class="cls-8 path210" style=""></path>
<path d="M126.26,345.23c-3,.76-5.07,2.25-5.65,4.77H133C132,346.89,129.67,345.35,126.26,345.23Z" class="cls-8 path209" style=""></path>
<path d="M107.59,369c3.77-.29,5.71-2.85,5.58-6.69-.64-4-3.21-6-6.89-5.53a6.27,6.27,0,0,0-3.8,1.77l-.14,8.49A5.86,5.86,0,0,0,107.59,369Z" class="cls-8 path212" style=""></path>
<path d="M64.54,363.75C75.47,374,88.81,379,102.13,378.86l.13-7.26a19.89,19.89,0,0,1-10.08-9.48A13.08,13.08,0,0,1,92.25,350H52.63l0,.75A102.51,102.51,0,0,0,64.54,363.75Z" class="cls-3 path118" style=""></path>
<path d="M101,363.31a6.64,6.64,0,0,0,1.39,3.77l.14-8.49A5.91,5.91,0,0,0,101,363.31Z" class="cls-8 path211" style=""></path>
<path d="M101,363.31a5.91,5.91,0,0,1,1.53-4.72l.15-8.59H92.25a13.08,13.08,0,0,0-.07,12.12,19.89,19.89,0,0,0,10.08,9.48l.08-4.52A6.64,6.64,0,0,1,101,363.31Z" class="cls-6 path162" style=""></path>
<path d="M103,330.1c-2,4.18-4.11,8.28-6.37,12.31-1.16,2.06-2.36,4.11-3.58,6.15q-.44.72-.78,1.44h10.38Z" class="cls-6 path159" style=""></path>
<path d="M103.18,318.42l2.85,4.85h0c.53.7,1.12,1.37,1.59,2.12,2.3,3.66,5.32,5.81,9.5,3.23s4.06-6.16,1.56-9.88A205.52,205.52,0,0,1,107.92,300h-4.41Z" class="cls-8 path179" style=""></path>
<path d="M92.36,300q5.42,9.21,10.82,18.42l.33-18.42Z" class="cls-8 path182" style=""></path>
<path d="M103.51,300l.13-7.88a113.08,113.08,0,0,0-8.13-12.71c-3.62-.86-7.42-1.7-10,1.91-2.41,3.41-.36,6.51,1.45,9.55S90.57,297,92.36,300Z" class="cls-8 path181" style=""></path>
<path d="M103.51,300h4.41c-1.4-2.64-2.81-5.28-4.28-7.88Z" class="cls-8 path180" style=""></path>
<path d="M104.38,250H83.92a26.18,26.18,0,0,0,2,11c2.45,6.56,6.52,12.22,9.59,18.42a113.08,113.08,0,0,1,8.13,12.71Z" class="cls-6 path156" style=""></path>
<path d="M104.66,233.75c-2.51.66-5,1.4-7.45,2.3-8.52,3.13-12.8,7.56-13.29,13.95h20.46Z" class="cls-6 path158" style=""></path>
<path d="M96.61,342.41c2.26-4,4.4-8.13,6.37-12.31l.2-11.68q-5.4-9.21-10.82-18.42H53.5l-.87,50H92.25q.34-.72.78-1.44C94.25,346.52,95.45,344.47,96.61,342.41Z" class="cls-3 path124" style=""></path>
<path d="M103.18,318.42,103,330.1q1.59-3.37,3-6.83Z" class="cls-3 path100" style=""></path>
<path d="M87,290.87c-1.81-3-3.86-6.14-1.45-9.55,2.56-3.61,6.36-2.77,10-1.91-3.07-6.2-7.14-11.86-9.59-18.42a26.18,26.18,0,0,1-2-11H54.37l-.87,50H92.36Q89.67,295.44,87,290.87Z" class="cls-3 path126" style=""></path>
<path d="M53.5,300H32.83c3.44,11.48,9.07,22.26,15.39,32.82,1.31,2.18,3.13,4.1,3.31,6.82l.7.6h0l-.41.29c-.09-.29-.19-.59-.29-.88a20,20,0,0,1-2.82-2.77,27.7,27.7,0,0,1-2.27-3.13c-.68-1.09-1.31-2.22-1.91-3.37-1.4-2.67-2.67-5.43-4.24-8A184,184,0,0,1,28,300H23.35C30,316.13,39.88,330.57,49,345.41c1,1.58,2,3.1,3.1,4.59h.57Z" class="cls-3 path121" style=""></path>
<path d="M40.29,322.4c1.57,2.55,2.84,5.31,4.24,8,.6,1.15,1.23,2.28,1.91,3.37a27.7,27.7,0,0,0,2.27,3.13,20,20,0,0,0,2.82,2.77h0c-.18-2.72-2-4.64-3.31-6.82C41.9,322.26,36.27,311.48,32.83,300H28A184,184,0,0,0,40.29,322.4Z" class="cls-7 path174" style=""></path>
<path d="M35.21,250a56.13,56.13,0,0,0-5.84,23.77A79.25,79.25,0,0,0,32.83,300H53.5l.87-50Z" class="cls-3 path122" style=""></path>
<path d="M54.61,230.61A46.33,46.33,0,0,0,35.21,250H54.37l.34-19.44Z" class="cls-3 path117" style=""></path>
<path d="M54.61,230.61l.1-.05.22-12.28c-2.45,1.06-4.87,2.2-7.26,3.4-8.34,4.21-16,9.29-20.82,17.94A51.13,51.13,0,0,0,22.51,250h12.7A46.33,46.33,0,0,1,54.61,230.61Z" class="cls-7 path171" style=""></path>
<path d="M26.85,239.62c4.77-8.65,12.48-13.73,20.82-17.94,2.39-1.2,4.81-2.34,7.26-3.4l.08-4.77c-17.8,6.66-32.16,16.84-37.16,36.49h4.66A51.13,51.13,0,0,1,26.85,239.62Z" class="cls-3 path115" style=""></path>
<path d="M23.88,288.47c-3.51-13-5.08-25.86-1.37-38.47H17.85c-.07.29-.15.58-.22.87-3.13,13.21-1.77,26.19,2.08,38.95,1,3.48,2.28,6.86,3.64,10.18H28A81.35,81.35,0,0,1,23.88,288.47Z" class="cls-3 path119" style=""></path>
<path d="M29.37,273.77A56.13,56.13,0,0,1,35.21,250H22.51c-3.71,12.61-2.14,25.48,1.37,38.47A81.35,81.35,0,0,0,28,300h4.84A79.25,79.25,0,0,1,29.37,273.77Z" class="cls-7 path168" style=""></path>

</svg>
