<svg xmlns="http://www.w3.org/2000/svg" viewBox="0 0 499.65 483.56">
    <defs>
        <style>
            .cls-1{fill:#353535; stroke:#353535;}.cls-2{fill:#d1d1d1; stroke:#d1d1d1;}.cls-3{fill:#fac67b; stroke:#fac67b;}.cls-4{fill:#e5a46e; stroke:#e5a46e;}.cls-5{fill:#c2272d; stroke:#c2272d;}.cls-6{fill:#f9f9f9; stroke:#f9f9f9;}.cls-7{fill:#232323; stroke:#232323;}.cls-8{fill:#dbb89c; stroke:#dbb89c;}.cls-9{fill:#edd2b6; stroke:#edd2b6;}.cls-10{fill:#f9b370; stroke:#f9b370;}.cls-11{fill:#cf8558; stroke:#cf8558;}.cls-12{fill:#383440; stroke:#383440;}.cls-13{fill:#324851; stroke:#324851;}.cls-14{fill:#4d2902; stroke:#4d2902;}.cls-15{fill:#fff; stroke:#fff;}.cls-16{fill:#d3d3d3; stroke:#d3d3d3;}.cls-17{fill:#50a4ff; stroke:#50a4ff;}.cls-18{fill:#f4ec62; stroke:#f4ec62;}
        </style>
    </defs>
    <title>
        Oratory
    </title>
    <path d="M450.39,24.39l-.22,12.47H469a74.61,74.61,0,0,0-17.23-11.8C451.33,24.82,450.86,24.61,450.39,24.39Z" class="cls-16 path145"></path>
<path d="M449.82,57.1c.32,0,.64-.06,1-.07h.4l.38-19.16L451.24,57a12.69,12.69,0,0,1,1.85.13h0a13.91,13.91,0,0,1-2.34,27.67l0,2.06h29.17a35.18,35.18,0,0,0,4.76-13.19c1.78-12.81-3.88-25.53-14.53-35.81l-1.09-1H450.17Z" class="cls-16 path146"></path>
<path d="M450.75,84.8v0a13.9,13.9,0,0,0,2.34-27.65h0a12.69,12.69,0,0,0-1.85-.13h0v0c-.15,0-.3,0-.45,0-.33,0-.65,0-1,.07l-.48,27.58Q450,84.77,450.75,84.8Z" class="cls-17 path152"></path>
<path d="M450.39,24.39A95.75,95.75,0,0,0,422,15.92,98.44,98.44,0,0,0,402,15.14l-.37,21.72h48.58Z" class="cls-16 path137"></path>
<path d="M450.7,87.86h0l-.36,20.74c12.73-4.27,23-11.49,28.93-20.74h0l.62-1H450.72Z" class="cls-16 path133"></path>
<path d="M437.36,68.93a13.75,13.75,0,0,0,.3,5.44v0q.13.49.3,1l.11.35c.08.2.17.4.26.6s.17.44.27.64l.16.29q.23.47.48.9h0a13.89,13.89,0,0,0,9.89,6.53h.2l.48-27.58A13.87,13.87,0,0,0,437.36,68.93Z" class="cls-17 path153"></path>
<path d="M400.67,86.86H449.3l0-2.17-.25,0a13.88,13.88,0,0,1-9.84-6.53h0q-.25-.43-.48-.9l-.16-.29c-.1-.2-.18-.42-.27-.64s-.18-.4-.26-.6l-.11-.35q-.16-.46-.3-1v0A13.86,13.86,0,0,1,449.82,57.1l.35-20.24H401.59l0,1Zm6.7-30.08s0,0,0,0a10.92,10.92,0,0,1,.9-.9c.15-.14.31-.27.47-.4s.35-.31.54-.45h0a13.05,13.05,0,0,1,1.16-.78l.1-.05a12.31,12.31,0,0,1,1.13-.61l.06,0c.35-.17.71-.31,1.07-.45l.13,0c.34-.13.68-.23,1-.33h0a13.67,13.67,0,0,1,5.61-.36,13.89,13.89,0,0,1,11.79,15.73c-.06.37-.15.74-.23,1.1,0,0,0,0,0,.08-.07.32-.16.64-.25,1l-.12.34a13.07,13.07,0,0,1-.5,1.28l-.32.68-.29.51c-.22.39-.46.78-.72,1.15l-.08.12c-.2.28-.43.55-.65.81l-.23.28c-.19.21-.4.42-.61.62l-.37.37c-.13.12-.28.23-.42.35s-.42.36-.64.53a13.89,13.89,0,0,1-18.62-20.46Z" class="cls-16 path135"></path>
<path d="M426,77.24c.22-.17.43-.35.64-.53s.29-.23.42-.35l.37-.37c.21-.2.42-.41.61-.62l.23-.28c.22-.26.45-.53.65-.81l.08-.12a12.33,12.33,0,0,0,.72-1.15c.1-.17.2-.34.29-.51s.21-.45.32-.68a12.55,12.55,0,0,0,.5-1.28l.12-.34c.09-.31.18-.63.25-1,0,0,0,0,0-.08A13.89,13.89,0,0,0,414,52.7h0c-.35.09-.7.21-1,.33l-.13,0a11,11,0,0,0-1.07.45l-.06,0a12.31,12.31,0,0,0-1.13.61l-.1.05a13.05,13.05,0,0,0-1.16.78h0c-.19.14-.36.3-.54.45s-.32.26-.47.4a10.92,10.92,0,0,0-.9.9s0,0,0,0A13.89,13.89,0,0,0,426,77.24Z" class="cls-17 path154"></path>
<path d="M400.54,15.26c-20.14,1.6-37.37,9.59-46.9,21.6h46.52Z" class="cls-16 path138"></path>
<path d="M401.59,36.86,402,15.14c-.48,0-.95.08-1.42.12l-.38,21.6Z" class="cls-16 path136"></path>
<path d="M449.34,84.69l0,2.17h1.37l0-2.06A10.53,10.53,0,0,1,449.34,84.69Z" class="cls-16 path144"></path>
<path d="M448.91,109c.47-.14.94-.27,1.41-.42l.36-20.74h0l0-.94H449.3Z" class="cls-16 path139"></path>
<path d="M400.67,86.86l0,1,0-1h-1.38l-.41,23.24,1.38.34h0c.62.14,1.24.29,1.87.42a12.38,12.38,0,0,1-2,8v.07a18.4,18.4,0,0,1-1.43,1.92l-.09,5.15,1.42-.37v0c13-3.8,17.36-10.84,18.33-12.76h.43A89,89,0,0,0,448.91,109l.39-22.1Z" class="cls-16 path141"></path>
<path d="M351.53,39.75v0c-.53.78-1,1.6-1.47,2.42l-.57,33c.42.86.88,1.71,1.37,2.55a53.33,53.33,0,0,0,6.58,9.08h41.85l.87-50H353.64c-.26.33-.55.66-.8,1C352.38,38.48,351.94,39.11,351.53,39.75Zm33,7.64a13.78,13.78,0,0,1,4.29.81l.25.1c.33.13.66.26,1,.41l.48.25c.23.12.46.23.68.36s.43.27.64.42.31.19.46.3.48.38.72.57l.3.25q.39.35.75.72l.2.2c.25.27.49.56.72.85l.13.15c.25.32.48.65.7,1l.06.09c.19.31.37.62.54.94l.23.46c.08.17.16.33.23.5s.17.41.25.62l.13.34c.09.26.17.51.24.77a.65.65,0,0,0,0,.13,13.87,13.87,0,0,1-15.36,17.44c-.38-.06-.75-.14-1.12-.22l-.14,0c-.35-.08-.69-.19-1-.3l-.3-.09c-.31-.11-.6-.23-.89-.36l-.39-.16c-.26-.12-.51-.26-.77-.39l-.44-.24c-.22-.13-.42-.27-.63-.41s-.35-.22-.51-.34a6,6,0,0,1-.47-.38c-.2-.16-.41-.31-.6-.49l-.3-.29c-.23-.22-.46-.44-.68-.67-.05-.06-.09-.12-.14-.17-.26-.29-.5-.58-.73-.88l0,0a13.88,13.88,0,0,1,11.51-22.22Z" class="cls-16 path140"></path>
<polygon points="399.29 86.86 400.67 86.86 401.53 37.86 401.57 37.86 401.59 36.86 400.16 36.86 399.29 86.86" class="cls-16 polygon39"></polygon>
<path d="M373.06,69.64c.23.3.47.59.73.88,0,0,.09.11.14.17.22.23.45.45.68.67l.3.29c.19.18.4.33.6.49a6,6,0,0,0,.47.38c.16.12.34.23.51.34s.41.28.63.41l.44.24c.26.13.51.27.77.39l.39.16c.29.13.58.25.89.36l.3.09c.35.11.69.22,1,.3l.14,0a14.66,14.66,0,0,0,2.67.34,13.92,13.92,0,0,0,13.81-17.56.65.65,0,0,1,0-.13c-.07-.26-.16-.51-.24-.77l-.13-.34c-.08-.21-.16-.41-.25-.62s-.15-.33-.23-.5l-.23-.46c-.17-.32-.35-.63-.54-.94l-.06-.09c-.22-.34-.45-.67-.7-1l-.13-.15c-.23-.29-.47-.58-.72-.85l-.2-.2q-.36-.37-.75-.72l-.3-.25c-.24-.19-.47-.39-.72-.57s-.31-.2-.46-.3-.42-.29-.64-.42-.45-.24-.68-.36l-.48-.25c-.32-.15-.65-.28-1-.41l-.25-.1A13.89,13.89,0,0,0,373,69.61Z" class="cls-17 path147"></path>
<path d="M390.22,127.58a59.89,59.89,0,0,0,8.39-1.57l.09-5.15C395.4,124.76,390.89,127.07,390.22,127.58Z" class="cls-16 path142"></path>
<path d="M358.33,87.86c9.5,10.13,23.73,18.19,40.55,22.24l.41-23.24H357.44C357.74,87.19,358,87.53,358.33,87.86Z" class="cls-16 path143"></path>
<path d="M346,54.22a37,37,0,0,0,3.51,21l.57-33A35,35,0,0,0,346,54.22Z" class="cls-16 path134"></path>
<path d="M300.13,37.85h0l-.39,22.27q.7.21,1.41.48v.06l.06,0c4.4,1.75,8.54,5.48,11,12.76a88.07,88.07,0,0,1,3.29,13.41h11c.27-3.77.45-7.71.49-11.82A90.81,90.81,0,0,1,329,86.86h.46c.73-6.55,2.44-27.35-3.36-40.51a36.38,36.38,0,0,0-4.28-8.49c-.23-.35-.48-.67-.72-1h-21Z" class="cls-1 path97"></path>
<path d="M321.13,36.86a46.77,46.77,0,0,0-19.27-15.93h0l-.31-.15a12.35,12.35,0,0,0-1.1-1.38l-.3,17.47Z" class="cls-1 path99"></path>
<path d="M499.65,415.15h-6.08l-.22,12.66A123.36,123.36,0,0,0,499.65,415.15Z" class="cls-18 path180"></path>
<path d="M476.41,436.86h11.28c2-2.9,3.88-5.91,5.66-9.05l.22-12.66h-5.13A85.44,85.44,0,0,1,476.41,436.86Z" class="cls-18 path181"></path>
<path d="M394.93,336.86h7.56c1.53-1.32,3.06-2.65,4.55-4-.88-26.08-4.73-42.14-4.73-42.14q-.26-1.47-.54-2.85h-4.58l0-1H395.8Z" class="cls-1 path12"></path>
<path d="M397.47,272.28l-.25,14.58h4.34A106.53,106.53,0,0,0,397.47,272.28Z" class="cls-1 path28"></path>
<path d="M373.24,243.6c-5.3-2.16-10.69-4.11-15.51-5.74l-3-1h-6.64v1h0v-1h-1.42l-.87,50h50l.31-18.07a76,76,0,0,0-4.81-9.69A37.54,37.54,0,0,0,373.24,243.6Z" class="cls-1 path0"></path>
<path d="M348.08,236.86l0-2.1-1.41-.43,0,2.53Z" class="cls-1 path14"></path>
<path d="M348.12,234.76l0,2.1h6.64C352.29,236.06,350.05,235.35,348.12,234.76Z" class="cls-1 path17"></path>
<path d="M397.21,286.86l.25-14.58c-.42-1.18-.87-2.34-1.35-3.49l-.31,18.07Z" class="cls-1 path1"></path>
<path d="M401.78,287.86c-.07-.34-.15-.67-.22-1h-4.34l0,1Z" class="cls-1 path29"></path>
<path d="M394.82,343.19c.47-.38,1-.74,1.44-1.12h0c1.71-1.38,3.41-2.78,5.08-4.21h0l1.16-1h-7.56Zm1.51-5.33h0l-.08,4.18Z" class="cls-1 path19"></path>
<path d="M325.47,96.6c-.06.42-.1.84-.16,1.25-.12,1-.27,1.91-.41,2.86l-.12.81c-.18,1.17-.38,2.35-.59,3.53,0,0,0,.07,0,.11a167.47,167.47,0,0,1-4.25,18,5.05,5.05,0,0,0,.56.12c4.62.16,8-7,8.29-16,.18-5.36-1-10.15-3-13.17,0,0,0,.06,0,.09h0C325.67,95,325.57,95.81,325.47,96.6Z" class="cls-9 path39"></path>
<path d="M319.91,123.24v0a167.47,167.47,0,0,0,4.25-18s0-.08,0-.11c.21-1.18.41-2.36.59-3.53l.12-.81c.14-.95.29-1.9.41-2.86.06-.41.1-.83.16-1.25.1-.79.2-1.57.29-2.36h0c-1.33-2-3-3.27-4.87-3.34a4.39,4.39,0,0,0-4,2.47A125.9,125.9,0,0,1,318,110.18q0,5.88-.55,11.61A4.25,4.25,0,0,0,319.91,123.24Z" class="cls-1 path88"></path>
<path d="M319.87,123.24a4.25,4.25,0,0,1-2.41-1.45q-.4,4.36-1.09,8.59v2.86A96.29,96.29,0,0,0,319.87,123.24Z" class="cls-1 path87"></path>
<path d="M316.41,94.19a194.7,194.7,0,0,1,.24,26.46c-.14,3.52-.28,6.79-.28,9.73.46-2.82.82-5.69,1.09-8.59q.53-5.73.53-11.66a126,126,0,0,0-1.12-16.81,4.39,4.39,0,0,1,4-2.46c1.86.07,3.54,1.31,4.87,3.34.24-2,.44-4.16.62-6.33h0c0-.33,0-.67.07-1h-11c0,.33.12.66.17,1Q316.13,91.06,316.41,94.19Z" class="cls-1 path95"></path>
<path d="M309.13,86.86h6.35a88.07,88.07,0,0,0-3.29-13.41c-2.44-7.28-6.58-11-11-12.76l-.28,16.23C305.47,78.49,309.39,81.69,309.13,86.86Z" class="cls-3 path50"></path>
<path d="M300.65,85.48l.05,0h0l2.36,1.33h6c.26-5.12-3.65-8.31-8.24-9.89h0c-.47-.16-.94-.3-1.42-.43l-.14,8.22C299.76,85,300.2,85.23,300.65,85.48Z" class="cls-12 path117"></path>
<path d="M300.8,76.92l.28-16.25c-.45-.18-.89-.33-1.34-.47l-.28,16.31C299.91,76.63,300.35,76.77,300.8,76.92Z" class="cls-3 path43"></path>
<path d="M251.84,21V21h0l-.29,15.83h39.5C281,26.88,268.81,21,255.65,20.79h-.57q-.79,0-1.59,0c.53,0,1,0,1.59,0h.57c13.17.16,25.38,6.09,35.43,16.08h9.07l.3-17.47C297,15.51,284.34,4.75,252.11,5.62l0,1.21,0-1.21-1.43,0-.27,15.5C250.89,21.11,251.36,21,251.84,21Zm0-.08v0c.53,0,1.07,0,1.6,0-.54,0-1.07.05-1.6.09Z" class="cls-1 path98"></path>
<path d="M251.84,21l-1.43.17-.27,15.67h1.42Z" class="cls-1 path90"></path>
<path d="M465,453.07v29h9.68v-29a146.66,146.66,0,0,0,13-16.21H476.41a86.54,86.54,0,0,1-6.53,7.69,88.25,88.25,0,0,1-6.53-7.69H452.08A146.58,146.58,0,0,0,465,453.07Z" class="cls-18 path183"></path>
<path d="M452.08,436.86h11.27a85.44,85.44,0,0,1-12-21.71h-7.75l-.13,7.13A125.8,125.8,0,0,0,452.08,436.86Z" class="cls-18 path182"></path>
<path d="M443.44,422.28l.13-7.13h-3.46C441.16,417.6,442.28,420,443.44,422.28Z" class="cls-18 path184"></path>
<polygon points="394.93 336.86 395.8 286.86 345.79 286.86 344.92 336.86 394.93 336.86" class="cls-1 polygon8"></polygon>
<polygon points="310.98 237.86 314.19 255.99 299.02 265.7 311.39 272.37 304.14 286.86 345.79 286.86 346.66 236.86 310.8 236.86 310.98 237.86" class="cls-1 polygon5"></polygon>
<path d="M307.77,219.68l3,17.18h35.86l0-2.53c-3.61-1.1-5.85-1.71-5.85-1.71A261.37,261.37,0,0,1,307.77,219.68Z" class="cls-1 path11"></path>
<path d="M307.77,219.68h0l-9.3-5.19v.44c2.32,1.27,5.14,2.74,8.42,4.32-3.28-1.58-6.1-3.05-8.43-4.32l-.38,21.93H310.8Z" class="cls-7 path33"></path>
<path d="M288.42,208.85v0l0,0v.19l-.35,1.59,0,0-.15.51.6.22v0h0c.14,4.14.25,7.05.25,7.05h0c0-.38-.12-3.16-.25-7l-.64-.24-2.34,10.63-1.28,5.78h0l-2,9.22h9.55l2.31-9.17h0l-2.32,9.17h5l.4-23.15-8.64-4.83Zm0,1.59Z" class="cls-7 path34"></path>
<polygon points="298.08 236.86 298.46 214.93 298.46 214.49 297.06 213.71 296.66 236.86 298.08 236.86" class="cls-7 polygon29"></polygon>
<path d="M299.18,173.86a100.92,100.92,0,0,0,15.72-36h0l.21-1H298.4l-.68,38.92C298.21,175.14,298.71,174.51,299.18,173.86Z" class="cls-3 path42"></path>
<path d="M309,87.86h0a1.75,1.75,0,0,1-.13.28,1.58,1.58,0,0,1-2.16.61c-.56-.28-1.1-.56-1.63-.85H305l-1.9-1h-2.36v1h-.07v-1h-1.38l-.87,50h16.68c.47-2.13.9-4.29,1.26-6.48,0-2.94.14-6.21.28-9.73-1.81-3.06-2.53-8.41-2.32-14.26.17-5,.77-9.4,2.08-12.2q-.28-3.15-.78-6.33h0c0-.34-.12-.67-.17-1h-6.35C309.11,87.18,309.08,87.51,309,87.86Z" class="cls-3 path49"></path>
<path d="M316.65,120.65a194.7,194.7,0,0,0-.24-26.46c-1.31,2.8-1.91,7.15-2.08,12.2C314.12,112.24,314.84,117.59,316.65,120.65Z" class="cls-3 path56"></path>
<path d="M305,87.91h.12c.52.29,1.06.57,1.62.85a1.58,1.58,0,0,0,2.16-.61,1.75,1.75,0,0,0,.13-.28h0c.05-.35.08-.68.1-1h-6Z" class="cls-12 path119"></path>
<path d="M255.65,133.34c3.59.2,7.36-.28,11.1.57a13.74,13.74,0,0,1,1.6.46c.37.13.45.74,0,.83a54.19,54.19,0,0,1-12.7,1.23v.43H298.4l.87-50H255.65ZM280.91,104a.15.15,0,0,0,0-.07A7.72,7.72,0,0,1,288,96.45a6.71,6.71,0,0,1,1.1,0l.19,0h0A7.79,7.79,0,0,1,294.66,99l0,0c.15.17.3.36.44.55l.06.08a6.33,6.33,0,0,1,.36.54s.05.09.07.14.2.35.29.53,0,.11.07.17.15.35.22.53a1.72,1.72,0,0,0,.07.21c.05.18.11.35.15.53a2.1,2.1,0,0,1,.06.24c0,.17.07.35.1.52l0,.3a3.88,3.88,0,0,1,0,.48.28.28,0,0,1,0,.09c0,.1,0,.2,0,.31s0,.2,0,.3a.28.28,0,0,1,0,.09,4.22,4.22,0,0,1,0,.49l0,.29c0,.18-.06.35-.1.52a2.1,2.1,0,0,1-.06.24c0,.18-.1.36-.15.53a1.72,1.72,0,0,0-.07.21c-.07.18-.14.36-.22.53l-.07.18c-.09.18-.19.35-.29.53l-.07.13a5.07,5.07,0,0,1-.36.54l-.06.09c-.14.19-.29.37-.44.55l0,0a7.82,7.82,0,0,1-3.82,2.35l-.57.13-.19,0c-.26,0-.53.07-.79.09h-.19c-.1,0-.2,0-.3,0h-.32l-.48,0a7.72,7.72,0,0,1-7.08-7.45.15.15,0,0,0,0-.07V104Z" class="cls-3 path45"></path>
<path d="M249.91,132h0l-.06,3.35a24.14,24.14,0,0,0,5.79,1v.05h0a54.19,54.19,0,0,0,12.7-1.23c.45-.09.37-.7,0-.83a13.74,13.74,0,0,0-1.6-.46c-3.74-.85-7.51-.37-11.1-.54v0h0A15.51,15.51,0,0,1,249.91,132Z" class="cls-11 path114"></path>
<path d="M250,126.56l.14-7.75v0c-.44,1-.94,2-1.47,3l-.13,7.53A13.68,13.68,0,0,0,250,126.56Z" class="cls-11 path112"></path>
<path d="M250.13,118.77v0h0l0-2.37,0,2.42a54.79,54.79,0,0,0,1.92-5.53,52.82,52.82,0,0,0,1.3-5.7.38.38,0,0,1,.09-.15l0,0,.09-.06h.29l.1.06,0,0a.38.38,0,0,1,.09.15,12.94,12.94,0,0,1,.2,2.56c-.07,3.74-1.56,7.51-2.56,11a52.64,52.64,0,0,1-1.74,5.47v-.06h0L249.9,132h0a15.51,15.51,0,0,0,5.73,1.31V87.86h0v-1h-5l0,1,0-1h-1.4l-.61,34.92C249.19,120.8,249.69,119.8,250.13,118.77Z" class="cls-10 path72"></path>
<path d="M250,126.65a52.64,52.64,0,0,0,1.74-5.47c1-3.48,2.49-7.25,2.56-11a12.94,12.94,0,0,0-.2-2.56.38.38,0,0,0-.09-.15l0,0-.1-.06-.06,0h-.23l-.09.06,0,0a.38.38,0,0,0-.09.15,52.82,52.82,0,0,1-1.3,5.7,54.79,54.79,0,0,1-1.92,5.53l-.14,7.73Z" class="cls-11 path110"></path>
<path d="M288,112.12a7,7,0,0,0,.8,0h.49c.26,0,.53-.05.79-.09l.19,0,.57-.13a7.92,7.92,0,0,0,3.82-2.35l0,0c.15-.18.3-.36.44-.55l.06-.09a5.07,5.07,0,0,0,.36-.54l.07-.13c.1-.18.2-.35.29-.53l.07-.18c.08-.17.15-.35.22-.53a1.72,1.72,0,0,1,.07-.21c.05-.17.11-.35.15-.53a2.1,2.1,0,0,0,.06-.24c0-.17.07-.34.1-.52l0-.29a4.22,4.22,0,0,0,0-.49.28.28,0,0,0,0-.09c0-.1,0-.2,0-.3s0-.27,0-.4a3.88,3.88,0,0,0,0-.48l0-.3c0-.17-.07-.35-.1-.52a2.1,2.1,0,0,0-.06-.24c0-.18-.1-.35-.15-.53a1.72,1.72,0,0,1-.07-.21c-.07-.18-.14-.35-.22-.53s-.05-.12-.07-.17-.19-.36-.29-.53-.05-.1-.07-.14a6.33,6.33,0,0,0-.36-.54l-.06-.08c-.14-.19-.29-.38-.44-.55l0,0a7.79,7.79,0,0,0-5.37-2.61h0l-.19,0a6.71,6.71,0,0,0-1.1,0,7.87,7.87,0,0,0-7.08,7.45.15.15,0,0,1,0,.07v.31c0,.13,0,.26,0,.39A7.72,7.72,0,0,0,288,112.12Z" class="cls-13 path124"></path>
<path d="M299.27,86.86l0-2.1A22.12,22.12,0,0,0,289,81.84a107,107,0,0,0-16.67,1.22.32.32,0,0,1-.35-.12.54.54,0,0,1,0-.81c6.44-5,15.45-7,23.46-6.32a22.25,22.25,0,0,1,3.95.7l.28-16.31c-6.45-2-13.14-.12-15.64.74-.57.2-.9.34-.9.34a70.46,70.46,0,0,1-15.13,7.39q-2.64.93-5.36,1.65a56.33,56.33,0,0,1-7.06,1.11V86.86Z" class="cls-3 path48"></path>
<path d="M272.12,82.18a.59.59,0,0,0-.11.76.32.32,0,0,0,.35.12A107,107,0,0,1,289,81.84a22.12,22.12,0,0,1,10.28,2.92l.14-8.22a21.93,21.93,0,0,0-3.87-.68C287.58,75.17,278.58,77.22,272.12,82.18Z" class="cls-12 path118"></path>
<path d="M299.31,84.76l0,2.1h1.38V85.48C300.2,85.23,299.76,85,299.31,84.76Z" class="cls-3 path44"></path>
<path d="M300.72,86.86h2.36l-2.36-1.33Z" class="cls-3 path46"></path>
<path d="M255.65,86.86V71.43c-1.58.15-3.15.22-4.69.22l-.29,15.21Z" class="cls-10 path69"></path>
<path d="M250.93,71.65l-1.4,0-.26,15.23h1.4Z" class="cls-10 path63"></path>
<path d="M251.55,37.86,251,71.65c1.53,0,3.1-.07,4.69-.22a54.48,54.48,0,0,0,7.18-1.15q2.66-.7,5.24-1.61a70.46,70.46,0,0,0,15.13-7.39s.33-.14.9-.34c2.39-.83,9.1-2.75,15.64-.81l.39-22.27h-8.06c-.33-.35-.67-.67-1-1h-39.5l0,1Z" class="cls-1 path91"></path>
<path d="M300.13,37.85l0-1h-9.07c.33.33.67.65,1,1Z" class="cls-1 path92"></path>
<path d="M251,71.65l.59-33.79,0-1h-1.42l-.61,34.77Z" class="cls-1 path93"></path>
<path d="M220.67,35.34c-.53.48-1,1-1.55,1.52h31l.27-15.67a53.26,53.26,0,0,0-26.8,11.57c1.09-.9,2.19-1.74,3.32-2.55a53.29,53.29,0,0,1,23.48-9l.27-15.5c-2.14.08-4.35.2-6.66.39,0,0-.76-3.15,6.35-6,0,0-35.46-2.26-43.48,21.85A21,21,0,0,0,201.78,24l-.22,12.83h17.53C219.61,36.35,220.13,35.82,220.67,35.34Zm.88-.83c-.31.27-.6.55-.9.83C221,35.06,221.24,34.78,221.55,34.51Z" class="cls-1 path102"></path>
<path d="M201.56,36.86,201.78,24c-.49.28-1,.58-1.44.88l-.21,12Z" class="cls-1 path108"></path>
<path d="M409.28,444.55H396.54c-1.18,0-2.34,0-3.5.1l-.17,9.82c1.22-.1,2.45-.14,3.67-.14h7.8l8.16,17.12C417.61,482,425.5,482,433.3,482v-9.95l-2.15.09h-1c-4.31,0-5.83-1.35-10.05-7.53L414.92,454c9-2.26,14.63-8.11,15.34-17.11h-9.82C419.45,442.23,415.15,444.55,409.28,444.55Z" class="cls-18 path177"></path>
<path d="M409.28,415.15H393.56l-.17,9.77h15.89c6.36,0,11.38,2.42,11.38,9.41a13.39,13.39,0,0,1-.22,2.53h9.82c.06-.65.09-1.31.09-2C430.35,422.23,421.47,415.15,409.28,415.15Z" class="cls-18 path179"></path>
<polygon points="383.9 424.92 393.39 424.92 393.56 415.14 374.13 415.14 374.13 436.86 383.9 436.86 383.9 424.92" class="cls-18 polygon48"></polygon>
<path d="M383.9,447.15V436.86h-9.77V482h9.77v-25.1a22.78,22.78,0,0,1,9-2.46l.17-9.82A20.27,20.27,0,0,0,383.9,447.15Z" class="cls-18 path178"></path>
<path d="M344.92,336.86l-.64,36.37,1.39-.58.61-34.79h0l-.61,34.79a225.13,225.13,0,0,0,49.11-29.46l.11-6.33Z" class="cls-1 path13"></path>
<path d="M294,386.86h6.57a223.16,223.16,0,0,0,43.67-13.63l.64-36.37h-50Z" class="cls-1 path5"></path>
<polygon points="303.64 287.86 296.95 301.22 295.48 304.15 294.91 336.86 344.92 336.86 345.79 286.86 304.14 286.86 303.64 287.86" class="cls-1 polygon7"></polygon>
<polygon points="295.78 286.86 304.14 286.86 311.39 272.37 299.02 265.7 314.19 255.99 310.98 237.86 310.8 236.86 298.08 236.86 298.06 237.86 298.08 236.86 296.66 236.86 295.78 286.86" class="cls-7 polygon30"></polygon>
<polygon points="295.48 304.15 296.95 301.22 303.64 287.86 304.14 286.86 295.78 286.86 295.48 304.15" class="cls-7 polygon26"></polygon>
<polygon points="271.13 286.86 295.78 286.86 296.66 236.86 291.71 236.86 291.46 237.86 291.71 236.86 282.16 236.86 281.94 237.86 271.13 286.86" class="cls-7 polygon28"></polygon>
<polygon points="279.61 248.4 268.72 239.14 267.22 237.86 265.99 236.86 265.97 236.86 265.46 237.86 263.38 241.9 263.38 241.91 263.39 241.89 263.39 241.99 263.39 241.99 263.39 242.03 266.64 286.86 271.13 286.86 281.94 237.86 279.61 248.4" class="cls-2 polygon14"></polygon>
<path d="M263.32,242a2.81,2.81,0,0,1-1.56.82,2.65,2.65,0,0,0,1.56-.86h.07v-.1l0,0v0l2.08-4,.51-1H246.65l-.06,3.22.89,1.73-1.21,16.64-.49,28.41h1.38l.77-44.48a1.4,1.4,0,0,1-.39-.45,1.32,1.32,0,0,0,.43.45v-.67h0v.67a5.45,5.45,0,0,0,2.74.67h0a5.45,5.45,0,0,1-2.74-.67l-.77,44.48H255l-.35-43.81h0l.31,43.81h.48l.13-43.81v-1.34h0v1.34l-.17,43.81h11.16L263.39,242Zm-1.65.85h0Z" class="cls-5 path30"></path>
<polygon points="265.97 236.86 265.97 236.84 255.65 228.07 255.65 228.02 255.2 227.64 255.11 227.56 255.03 227.64 254.58 228.02 248.59 233.11 248.13 233.51 248.13 233.51 246.69 234.73 246.65 236.86 265.97 236.86" class="cls-5 polygon23"></polygon>
<path d="M285.56,210.37l-30.45,16.91-6.8-3.78h0l0,0-1.36-.75-.17,9.28,1.41.85v0l-1.4-.85,0,2.72,1.44-1.22h0l.46-.4,6-5.09.45-.38.08-.08.09.08.45.38v0L266,236.84l0,0h16.17l2-9.22,1.29-5.83,2.34-10.63.11-.49.41-1.86-2.75,1.53Zm-37.32,17v0l.06-3.08Zm20.84,3.16a2.52,2.52,0,0,0-2-2.87H255.66v0h11.41a5,5,0,0,0-1.67-.25h0a5,5,0,0,1,1.67.25A2.51,2.51,0,0,1,269.08,230.55Z" class="cls-6 path31"></path>
<polygon points="267.22 237.86 268.72 239.14 279.61 248.4 281.94 237.86 282.16 236.86 265.99 236.86 267.22 237.86" class="cls-6 polygon25"></polygon>
<path d="M255.65,199.49h-1.84l-1.23-.06h-.24c-1.21-.08-2.41-.19-3.6-.36l-.43,24.44,6.8,3.78,30.45-16.91L256,199.49Z" class="cls-3 path20"></path>
<path d="M286.12,187.86c-8.93,7.21-19.18,11.4-30.18,11.6l29.65,10.9,2.75-1.53c-.13-3.59-.26-7.75-.39-11.69v-1.23a12.27,12.27,0,0,0-.05-1.36v-.07c-.07-2.46-.13-4.74-.17-6.64h0c0-.35,0-.67,0-1h-.39Z" class="cls-4 path27"></path>
<path d="M255.65,199.36l.29.1c11-.2,21.25-4.39,30.18-11.6l1.2-1H255.65Z" class="cls-3 path52"></path>
<path d="M255.65,183.51v3.35h31.67l.38-.31v-3.83l-.7,0A312.29,312.29,0,0,1,255.65,183.51Z" class="cls-3 path53"></path>
<path d="M255.65,155.69c10.55-.45,20.83-2,22.12-3.72h0a71.12,71.12,0,0,1-2,9.22v0h0a28.8,28.8,0,0,1-3.21,7,21.15,21.15,0,0,1-16.9,11.08v.06h0v4.16a312.29,312.29,0,0,0,31.35-.82h.71v3.83a72.7,72.7,0,0,0,10-10.74l.68-38.92H255.65Z" class="cls-3 path47"></path>
<path d="M248.77,196.83l3.84,1.41-3.84-1.38V199c1.15.14,2.35.27,3.56.35h.24l1.23.06h1.85v-.11h0V187.86h0v-1H249l0,1h0l0-1h-1.42l-.16,9.45Z" class="cls-10 path57"></path>
<path d="M249.08,178.86l-.07,3.83h0v.69h0l-.06,3.48h6.7v-3.35h0v-.77h0v-3.39c-.51.05-1,.11-1.57.11A14.83,14.83,0,0,1,249.08,178.86Zm0,4.52q3.47.09,6.55.13C253.54,183.51,251.36,183.46,249.06,183.38Z" class="cls-10 path68"></path>
<path d="M249,183.38v-.69h0l.07-3.83c-.48-.14-1-.32-1.41-.49l-.15,8.49h1.42Z" class="cls-10 path61"></path>
<path d="M255.67,165.74h0c-2.11.11-4.24.11-6.33.11l-.23,13a14.83,14.83,0,0,0,5,.6c.53,0,1.06-.06,1.57-.11h0v-.06a21.15,21.15,0,0,0,16.9-11.08,28.8,28.8,0,0,0,3.21-7h0c-4.16,2.37-12,4.06-20.1,4.55Z" class="cls-14 path128"></path>
<path d="M255.64,155.75h-.81c-1.79,0-3.59.1-5.35.1h-1.42l-.17,10c.47,0,.94,0,1.42.06h0c2.09,0,4.22,0,6.33-.11v-.06c8.12-.43,16-2.13,20.13-4.5a72.67,72.67,0,0,0,2-9.21h0c-1.29,1.68-11.57,3.27-22.12,3.72h0Z" class="cls-15 path132"></path>
<path d="M249.84,137.86h0l-.32,18c1.76,0,3.56-.06,5.35-.1l.81,0V137.86h0v-1h-5.81Z" class="cls-10 path84"></path>
<path d="M255.64,136.4a23.76,23.76,0,0,1-5.8-1v1.48h5.81v-.43h0Z" class="cls-10 path83"></path>
<path d="M248.49,131.2a12.12,12.12,0,0,0,1.41.79v0h0l.09-5.43a13.68,13.68,0,0,1-1.46,2.75Z" class="cls-10 path86"></path>
<path d="M248.49,131.2l-.06,3.63c.46.18.93.36,1.41.51l.06-3.31v0A12.12,12.12,0,0,1,248.49,131.2Z" class="cls-11 path113"></path>
<path d="M249.84,135.38c-.48-.15-1-.33-1.41-.51l0,2h1.41Z" class="cls-10 path64"></path>
<path d="M248.43,134.87a19.7,19.7,0,0,1-5.1-3,2,2,0,0,1-.57-1.39,2,2,0,0,1,.57-1.39,35.91,35.91,0,0,0,5.33-7.35l.61-34.92H202.91a2.41,2.41,0,0,1-.38,0h-3.27l-.87,50h50ZM228.12,104v.07a7.73,7.73,0,0,1-7.09,7.46,6.71,6.71,0,0,1-1.1,0h-.19a7.84,7.84,0,0,1-5.38-2.62l0,0c-.15-.18-.3-.36-.44-.55l-.06-.08q-.2-.27-.36-.54l-.08-.14-.28-.53-.07-.18a4.77,4.77,0,0,1-.22-.52,1.87,1.87,0,0,1-.07-.22c-.06-.17-.11-.34-.16-.52s0-.17-.05-.25-.07-.34-.1-.52l0-.29c0-.17,0-.33,0-.49a.28.28,0,0,0,0-.09c0-.1,0-.2,0-.3s0-.21,0-.31a.28.28,0,0,0,0-.09c0-.16,0-.32,0-.48l0-.3c0-.18.06-.35.1-.52s0-.16.05-.24.1-.36.16-.53a1.72,1.72,0,0,1,.07-.21,4.93,4.93,0,0,1,.22-.53l.07-.18c.09-.18.19-.36.29-.53a.83.83,0,0,1,.07-.13,6.49,6.49,0,0,1,.36-.55l.06-.08c.14-.19.29-.37.44-.55l0,0a7.83,7.83,0,0,1,3.83-2.36l.54-.12.22,0a5.16,5.16,0,0,1,.79-.09h0l.19,0c.1,0,.2,0,.3,0h.32c.16,0,.32,0,.48,0a7.73,7.73,0,0,1,7.09,7.46v.07c0,.11,0,.21,0,.32S228.13,103.89,228.12,104Z" class="cls-10 path73"></path>
<path d="M247.59,130.57c.29.23.59.43.9.63l0-1.85C248.23,129.77,247.93,130.18,247.59,130.57Z" class="cls-10 path85"></path>
<path d="M248.43,134.83l.06-3.63c-.31-.2-.61-.4-.9-.63h0a14.3,14.3,0,0,0,1-1.25l.13-7.53a35.91,35.91,0,0,1-5.33,7.35,2,2,0,0,0-.57,1.39,2,2,0,0,0,.57,1.35A19.7,19.7,0,0,0,248.43,134.83Z" class="cls-11 path111"></path>
<path d="M221,95.83a7.13,7.13,0,0,0-.8,0h-.49a5.16,5.16,0,0,0-.79.09l-.22,0-.54.12a7.84,7.84,0,0,0-3.83,2.36l0,0c-.15.18-.3.36-.44.55l-.06.08a6.49,6.49,0,0,0-.36.55.83.83,0,0,0-.07.13c-.1.17-.2.35-.29.53l-.07.18a4.93,4.93,0,0,0-.22.53,1.72,1.72,0,0,0-.07.21c-.06.17-.11.35-.16.53s0,.16-.05.24-.07.34-.1.52l0,.3c0,.16,0,.32,0,.48a.28.28,0,0,1,0,.09c0,.1,0,.2,0,.31v.39c0,.16,0,.32,0,.49l0,.29c0,.18.06.35.1.52s0,.17.05.25.1.35.16.52a1.87,1.87,0,0,0,.07.22,4.77,4.77,0,0,0,.22.52l.07.18.28.53.08.14q.17.27.36.54l.06.08c.14.19.29.37.44.55l0,0a7.84,7.84,0,0,0,5.38,2.62h.19a6.71,6.71,0,0,0,1.1,0,7.88,7.88,0,0,0,7.09-7.46V104c0-.1,0-.21,0-.31s0-.26,0-.39A7.73,7.73,0,0,0,221,95.83Z" class="cls-13 path120"></path>
<path d="M199.47,74.6l-.21,12.26h3.27a1.07,1.07,0,0,1-1-1.2c.78-6.94,8.63-10.24,14.85-10.59,9.12-.52,15.95,2.86,23.06,8.29a.44.44,0,0,1,.14.13l0,.06a.34.34,0,0,1,.06.12s0,0,0,.06a.66.66,0,0,1,0,.14s0,0,0,.06v0s0,0,0,.08a.32.32,0,0,1,0,.09h0l0,0a.94.94,0,0,1-.1.1l-.06,0-.12,0h-.06a.67.67,0,0,1-.2,0c-6.27-1.21-12.87-1-19.22-1.57-6.2-.52-11.23-.37-16.11,3.77a1.48,1.48,0,0,1-.74.3h46.36l.26-15.23c-21.44-.44-37.42-13.17-37.64-13.35A51.25,51.25,0,0,0,201,71.79v-.16l-.05.09v.07a.25.25,0,0,0,0,.07v0C200.38,72.79,199.92,73.69,199.47,74.6Z" class="cls-10 path70"></path>
<path d="M202.56,86.86h.26a1.42,1.42,0,0,0,.83-.3c4.88-4.14,9.91-4.29,16.11-3.77s13,.36,19.22,1.57a.67.67,0,0,0,.2,0h.06l.12,0,.06,0a.94.94,0,0,0,.1-.1l0,0a.42.42,0,0,0,0-.1s0,0,0-.08v0s0,0,0-.06a.66.66,0,0,0,0-.14s0,0,0-.06a.34.34,0,0,0-.06-.12l0-.06a.44.44,0,0,0-.14-.13c-7.11-5.43-13.94-8.81-23.06-8.29-6.22.35-14.07,3.65-14.85,10.59A1.08,1.08,0,0,0,202.56,86.86Z" class="cls-12 path115"></path>
<path d="M201.1,64.12v.18L201,71.63v.16a51.25,51.25,0,0,1,10.92-13.51h0s16,12.9,37.63,13.35l.61-34.77h-31c-.34.33-.69.65-1,1A82.47,82.47,0,0,0,201.1,64.12Z" class="cls-1 path105"></path>
<path d="M199.59,67.9c.48-1.28,1-2.55,1.49-3.78a82.39,82.39,0,0,1,17-26.26c.34-.35.69-.67,1-1H201.56l0,1,0-1h-1.43Z" class="cls-1 path109"></path>
<path d="M199.47,74.57c.45-.91.92-1.82,1.41-2.71a.25.25,0,0,1,0-.07v-.07l.13-7.37s0,0,0,0v-.18c-.52,1.24-1,2.51-1.49,3.8Z" class="cls-1 path100"></path>
<path d="M329.25,88.92s.05-.38.13-1.06c0-.28.07-.62.11-1H329c0,.33.09.66.12,1S329.22,88.56,329.25,88.92Z" class="cls-1 path96"></path>
<path d="M300.61,386.86H294l0,1.23,1.42-.23C297.17,387.55,298.89,387.2,300.61,386.86Z" class="cls-1 path3"></path>
<path d="M322.94,473.78c-14,0-26.45-10.58-26.45-25a26.28,26.28,0,0,1,2.74-11.91h-6.06l-.54,30.52a35.57,35.57,0,0,0,30.22,16.18,36.93,36.93,0,0,0,19.61-5.65l.22-12.78A26.55,26.55,0,0,1,322.94,473.78Z" class="cls-18 path175"></path>
<path d="M349.21,448.14a25.1,25.1,0,0,1-6.53,17l-.22,12.78a34.43,34.43,0,0,0,16.43-29.23,35.63,35.63,0,0,0-2-11.82H346.54A24.6,24.6,0,0,1,349.21,448.14Z" class="cls-18 path174"></path>
<path d="M343.48,419.45,343.26,432a24.38,24.38,0,0,1,3.28,4.84h10.35A35.17,35.17,0,0,0,343.48,419.45Z" class="cls-18 path171"></path>
<path d="M293.32,427.93l-.15,8.93h6.06c4.26-8.47,13.08-13.82,23.62-13.82a27,27,0,0,1,20.41,9l.22-12.57a36.37,36.37,0,0,0-20.54-6.28A36.79,36.79,0,0,0,293.32,427.93Z" class="cls-18 path176"></path>
<path d="M293.32,427.93a33.75,33.75,0,0,0-4.66,8.93h4.51Z" class="cls-18 path172"></path>
<path d="M288.66,436.86a33.23,33.23,0,0,0-1.77,10.74,36.27,36.27,0,0,0,5.74,19.78l.54-30.52Z" class="cls-18 path173"></path>
<polygon points="279.13 336.86 278.63 337.86 255.71 383.67 255.21 384.67 255.15 384.78 255.15 366.72 255.12 366.6 255.09 366.72 255.08 366.7 255.08 384.78 245.81 366.25 244.44 363.51 244.03 386.86 294.04 386.86 294.91 336.86 279.13 336.86" class="cls-1 polygon6"></polygon>
<path d="M244,386.86,244,391l1.42.08c3.25.15,6.52.24,9.81.25v-3.5h0v3.5h.63A227.39,227.39,0,0,0,294,388.09l0-1.23Z" class="cls-1 path4"></path>
<polygon points="294.91 336.86 295.48 304.15 279.13 336.86 294.91 336.86" class="cls-1 polygon3"></polygon>
<polygon points="271.13 286.86 270.91 287.86 267.75 302.18 260.1 336.86 279.13 336.86 295.48 304.15 295.78 286.86 271.13 286.86" class="cls-7 polygon31"></polygon>
<polygon points="259.88 337.86 255.52 357.65 255.28 358.73 255.15 359.3 255.15 384.78 255.21 384.67 255.71 383.67 278.63 337.86 279.13 336.86 260.1 336.86 259.88 337.86" class="cls-7 polygon27"></polygon>
<polygon points="255.08 384.78 255.08 359.3 250.35 337.86 250.13 336.86 244.9 336.86 244.44 363.51 245.81 366.25 255.08 384.78" class="cls-7 polygon37"></polygon>
<polygon points="267.75 302.18 266.71 287.86 266.64 286.86 255.48 286.86 255.48 287.86 255.48 286.86 255 286.86 255.01 287.86 255 286.86 247.2 286.86 247.18 287.86 247.14 287.86 247.16 286.86 245.78 286.86 245.29 314.91 246.6 320.87 250.13 336.86 260.1 336.86 267.75 302.18" class="cls-5 polygon18"></polygon>
<polygon points="255.15 359.3 255.28 358.73 255.52 357.65 259.88 337.86 260.1 336.86 250.13 336.86 250.35 337.86 255.08 359.3 255.08 366.02 255.15 366.13 255.15 359.3" class="cls-5 polygon17"></polygon>
<polygon points="266.71 287.86 267.75 302.18 270.91 287.86 271.13 286.86 266.64 286.86 266.71 287.86" class="cls-2 polygon16"></polygon>
<polygon points="245.29 314.91 244.9 336.86 250.13 336.86 246.6 320.87 245.29 314.91" class="cls-7 polygon34"></polygon>
<polygon points="244.21 286.86 244.14 287.86 242.95 304.3 245.29 314.91 245.78 286.86 244.21 286.86" class="cls-5 polygon20"></polygon>
<polygon points="246.27 258.45 246.59 240.08 245.45 237.86 244.94 236.86 244.19 236.86 243.01 237.86 230.62 248.4 228.29 237.86 239.1 286.86 244.21 286.86 246.27 258.45" class="cls-2 polygon11"></polygon>
<polygon points="244.21 286.86 239.1 286.86 239.32 287.86 242.95 304.3 244.14 287.86 244.21 286.86" class="cls-2 polygon10"></polygon>
<polygon points="228.07 236.86 218.52 236.86 218.77 237.86 218.52 236.86 199.42 236.86 199.25 237.86 197.91 245.41 196.34 254.3 196.3 256.15 197.71 257.05 211.21 265.7 198.84 272.37 206.09 286.86 239.1 286.86 228.29 237.86 228.07 236.86" class="cls-7 polygon33"></polygon>
<path d="M246.69,234.73l0-2.72L242,229.13a2.46,2.46,0,0,0-.2,1.13,2.46,2.46,0,0,1,.2-1.13,2.83,2.83,0,0,1,.76-.95,2.83,2.83,0,0,0-.76.95l4.76,2.87.17-9.28-24.21-13.44,0,0-.76-.42.41,1.86.25,1.15.06-1,0,0-.06,1,1.39,6.43,2.06,9.35,2,9.22h16.12l.52-.44Zm-1.19-7.34h0a5,5,0,0,0-1.68.25h0A5,5,0,0,1,245.5,227.39Z" class="cls-6 path32"></path>
<polygon points="228.29 237.86 230.62 248.4 243.01 237.86 244.19 236.86 228.07 236.86 228.29 237.86" class="cls-6 polygon24"></polygon>
<path d="M224,218.29l-1.71-1v0l1.71,1-1.43-6.45v0l-.25-1.14-1.87-1s-5.94,4.23-18,10l0,0-3,17.14h19.1l-2.32-9.22h0l2.31,9.22h9.55l-2-9.22Z" class="cls-7 path36"></path>
<polygon points="211.21 265.7 197.71 257.05 196.3 256.15 195.77 286.86 206.09 286.86 198.84 272.37 211.21 265.7" class="cls-1 polygon0"></polygon>
<path d="M246.9,222.72l.41-23.94c-.92-.17-1.84-.35-2.75-.58a46.13,46.13,0,0,1-4.49-1.3l-.32-.11-.92-.33-.79-.31-.39-.16c-1.18-.49-2.33-1-3.47-1.59q1.69.85,3.45,1.59l.39.16.79.31.92.33-.92-.33-.79-.31-.39-.16a55,55,0,0,1-13.7-8.13h0l-.05,0h0l-.06,0v0l-1.17,21.43,0,0Z" class="cls-3 path22"></path>
<path d="M247.31,198.78l-.41,23.94,1.36.75.47-24.44C248.25,199,247.78,198.87,247.31,198.78Z" class="cls-3 path21"></path>
<polygon points="246.59 240.08 246.27 258.45 247.48 241.81 246.59 240.08" class="cls-2 polygon13"></polygon>
<polygon points="246.69 234.73 244.71 236.42 244.94 236.86 246.65 236.86 246.69 234.73" class="cls-5 polygon21"></polygon>
<polygon points="244.94 236.86 245.45 237.86 246.59 240.08 246.65 236.86 244.94 236.86" class="cls-5 polygon22"></polygon>
<polygon points="244.21 286.86 245.78 286.86 246.27 258.45 244.21 286.86" class="cls-5 polygon19"></polygon>
<path d="M222.3,210.69l-.41-1.86-19.43,10.85c12-5.73,18-10,18-10Z" class="cls-7 path35"></path>
<polygon points="199.25 237.86 199.42 236.86 196.64 236.86 196.34 254.3 197.91 245.41 199.25 237.86" class="cls-1 polygon1"></polygon>
<path d="M202.43,219.72l0,0v0l-4.13,1.92-1.43.61-.26,14.65h2.78Z" class="cls-1 path2"></path>
<path d="M248.77,196.86l-1.41-.52-.05,2.43,1.44.24Z" class="cls-10 path65"></path>
<path d="M223.83,187.77l.06,0,.05,0h0a55,55,0,0,0,13.7,8.13q-1.75-.74-3.45-1.59l-.18-.08-1-.55-.85-.45-.64-.38-.93-.53-.37-.22a1.1,1.1,0,0,0-.14-.09c-1-.62-2-1.26-2.95-1.95l-.14-.09c-1-.71-1.95-1.44-2.89-2.2.94.76,1.9,1.5,2.89,2.2l.14.09c1,.68,1.95,1.33,2.95,1.95l.26.15c.39.24.78.47,1.18.69l.64.38.85.45,1,.55.18.08c1.14.57,2.29,1.1,3.47,1.59l.39.16.79.31.92.33.32.11a46.13,46.13,0,0,0,4.49,1.3c.91.22,1.83.4,2.75.57l.05-2.43-17.12-6.29-1.81-2.19,1.81,2.16,17.12,6.29.16-9.45H222.85l1,.83Z" class="cls-10 path58"></path>
<path d="M199.53,152.69c5.38,14.13,13.44,25.94,23.2,34.17h.11c-9.81-8.34-17.89-20.34-23.29-34.7v-.08l.25-14.22h0l-.25,14.25c5.39,14.38,13.48,26.4,23.3,34.75h24.67l.15-8.49a20.74,20.74,0,0,1-10.71-9,44.41,44.41,0,0,1-3.15-6.56A28.44,28.44,0,0,1,232,152.7h0v0c1.88,2.13,8.46,3,16.07,3.14l.33-18.93h-50l-.21,12c.43,1.28.87,2.54,1.35,3.8Z" class="cls-10 path74"></path>
<path d="M233.81,162.86a44.41,44.41,0,0,0,3.15,6.56,20.74,20.74,0,0,0,10.71,9l.22-12.57C242.44,165.55,237.37,164.64,233.81,162.86Z" class="cls-14 path129"></path>
<path d="M249.08,178.86l.23-13h0c-.48,0-.95,0-1.42-.06l-.22,12.57c.46.17.93.35,1.41.49Z" class="cls-14 path130"></path>
<path d="M248.06,155.85c-7.61-.1-14.19-1-16.07-3.15h0a28.44,28.44,0,0,0,1.82,10.16c3.56,1.78,8.63,2.69,14.08,2.94Z" class="cls-15 path131"></path>
<path d="M249.8,137.86h0l0-1h-1.41l-.33,18.93,1.42,0Z" class="cls-10 path66"></path>
<path d="M195.06,136.86c.07.33.13.66.21,1,.13.56.21.86.21.86l0-.05v.05l-.24-.34a108.09,108.09,0,0,0,3,10.45l.21-12Z" class="cls-10 path60"></path>
<path d="M192.54,120.08v.06a121.1,121.1,0,0,0,2.5,16.72h0a122.09,122.09,0,0,1-2.5-16.79s0,0,0,0a122.66,122.66,0,0,0,2.5,16.83h3.33l.87-50h-4.35c-.09.33-.18.66-.26,1h0q-.61,2.51-1.08,5c-.31,1.73-.57,3.47-.77,5.23h0s0,0,0,.08v0a4.91,4.91,0,0,1-.06.65.15.15,0,0,0,0,.07v0h0l-.06.65c-.08,1-.15,2-.22,3,0,.49-.06,1-.08,1.48q-.07,1.35-.12,2.73c0,1.34-.08,2.69-.08,4.06v.42q0,3.09.15,6.13c0,.59.07,1.16.1,1.74l.09,1A.14.14,0,0,1,192.54,120.08Z" class="cls-10 path71"></path>
<path d="M194.91,86.86h4.35l.21-12.26A64.29,64.29,0,0,0,194.91,86.86Z" class="cls-10 path59"></path>
<path d="M180.86,78.09l3-9.33a165.67,165.67,0,0,0-.86,18.1h11.4c.67-3.58,1.46-7.07,2.41-10.44l.21-.72c.19-.64.38-1.27.58-1.9.6-2,1.27-4,2-5.9l.54-31H188.79c-.2.33-.41.66-.59,1C183.4,46.28,179.83,59,180.86,78.09Z" class="cls-1 path94"></path>
<path d="M197.65,73.8c-.2.63-.4,1.26-.58,1.9l-.21.72q-1.43,5.06-2.41,10.44h.46a64.56,64.56,0,0,1,4.56-12.29l.12-6.65q-1.07,2.88-2,5.88c.6-1.9,1.24-3.74,1.92-5.56C198.86,70.06,198.22,71.9,197.65,73.8Z" class="cls-1 path101"></path>
<path d="M200.34,24.87a35.43,35.43,0,0,0-11.55,12h11.34Z" class="cls-1 path106"></path>
<path d="M183,87.86c0,2.22.08,4.56.2,7v0c.47,9.62,1.87,20.51,5.22,30.13a4.21,4.21,0,0,0,2.1-1.27,4.33,4.33,0,0,1-2.07,1.31,51.92,51.92,0,0,0,5.69,11.85h.69a121.38,121.38,0,0,1-2.38-16.65v-.07l-.06-1c0-.58-.07-1.15-.1-1.74h0c-.09-1.34-.15-2.67-.18-4s-.05-2.67,0-4,0-2.66.11-4,.14-2.66.25-4c.06-.9.13-1.8.21-2.69h0l0,.11c0,.23,0,.47-.05.71l.06-.68a5.2,5.2,0,0,1,.08-.69s0-.06,0-.08h0c.2-1.76.46-3.5.77-5.23s.66-3.38,1.07-5c.08-.34.17-.67.26-1h-.46c-.06.33-.13.66-.19,1h0c.06-.34.13-.67.19-1H183c0,.33,0,.66,0,1Z" class="cls-1 path103"></path>
<path d="M179.37,109.16c.31,9,3.66,16.12,8.29,16a4.29,4.29,0,0,0,.79-.11c-3.35-9.63-4.75-20.54-5.22-30.17C180.74,97.71,179.16,103.07,179.37,109.16Z" class="cls-8 path38"></path>
<polygon points="278.83 425.01 278.83 415.14 243.54 415.14 243.37 425.01 245.75 425.01 245.75 436.86 255.25 436.86 255.25 425.01 278.83 425.01" class="cls-18 polygon46"></polygon>
<polygon points="221.9 425.01 243.37 425.01 243.54 415.14 221.9 415.14 221.9 425.01" class="cls-18 polygon47"></polygon>
<polygon points="231.11 336.86 231.61 337.86 244.44 363.51 244.9 336.86 231.11 336.86" class="cls-7 polygon36"></polygon>
<polygon points="245.29 314.91 242.95 304.3 239.32 287.86 239.1 286.86 206.09 286.86 206.59 287.86 231.11 336.86 244.9 336.86 245.29 314.91" class="cls-7 polygon35"></polygon>
<path d="M244.44,363.51l-12.83-25.65-.5-1H194.9l-.81,45.87c.48.13.95.28,1.42.42q7.61,2.12,15.46,3.71H244Z" class="cls-1 path16"></path>
<path d="M211,386.86c1.73.35,3.48.68,5.23,1A227,227,0,0,0,244,391l.07-4.17Z" class="cls-1 path18"></path>
<polygon points="206.09 286.86 195.77 286.86 194.9 336.86 231.11 336.86 206.59 287.86 206.09 286.86" class="cls-1 polygon4"></polygon>
<path d="M195.77,286.86l.53-30.71L196,256l.3-1.69.3-17.44H155.49l-3,1c-1.45.49-2.94,1-4.49,1.56l-1.43.51-.82,46.93Z" class="cls-1 path10"></path>
<path d="M169.37,232.62s-5.84,1.59-13.88,4.24h41.15l.26-14.65A271,271,0,0,1,169.37,232.62Z" class="cls-1 path15"></path>
<rect width="9.5" height="45.18" x="245.74" y="436.86" class="cls-18 rect0"></rect>
<polygon points="193.04 443.18 202.98 462.4 192.7 462.4 192.53 472.26 207.38 472.26 211.77 482.03 222.71 482.03 201.34 436.86 193.15 436.86 193.04 443.18" class="cls-18 polygon43"></polygon>
<polygon points="193.15 436.86 201.34 436.86 193.44 420.16 193.15 436.86" class="cls-18 polygon42"></polygon>
<polygon points="188.37 434.15 189.76 436.86 193.15 436.86 193.44 420.16 190.52 413.98 179.76 413.98 183.44 422.23 176.35 436.86 187.12 436.86 188.37 434.15" class="cls-18 polygon44"></polygon>
<path d="M144.45,361.8l1.41.82.43-24.76h0l-.44,24.76a223.64,223.64,0,0,0,48.23,20.11l.81-45.87h-50Z" class="cls-1 path7"></path>
<polygon points="145.76 286.86 144.89 336.86 194.9 336.86 195.77 286.86 145.76 286.86" class="cls-1 polygon2"></polygon>
<path d="M146.58,239.93c-3.13,1.13-6.37,2.36-9.57,3.67a37.43,37.43,0,0,0-18.08,15.5c-3.69,6.2-7.63,15.2-10.26,27.76h37.09Z" class="cls-1 path9"></path>
<path d="M190.61,462.4c-9.15,0-14.62,1.7-17,3.76l13.55-29.3H176.35L154.47,482h10.58l1.71-3.14c1.52-2.78,8.07-6.63,20.26-6.63h5.51l.17-9.86Z" class="cls-18 path170"></path>
<path d="M122.38,415.15H93.51l-.38,21.71H97V424.92h25.37c6.37,0,11.39,2.42,11.39,9.41a14.27,14.27,0,0,1-.22,2.53h9.59l.09-5.13C141.87,421.07,133.52,415.15,122.38,415.15Z" class="cls-18 path169"></path>
<polygon points="93.51 415.14 87.23 415.14 87.23 436.86 93.14 436.86 93.51 415.14" class="cls-18 polygon40"></polygon>
<path d="M109.19,336.86l1.16,1a225,225,0,0,0,34.1,23.94l.44-24.94Z" class="cls-1 path6"></path>
<path d="M145.76,286.86H108.67l-.21,1h0q-.28,1.38-.54,2.85c-.26,1.46-3.72,15.53-4.68,40.83q2.92,2.71,6,5.32h35.7Z" class="cls-1 path8"></path>
<path d="M133.55,436.86c-1,5.37-5.3,7.69-11.17,7.69H109.65c-4.39,0-8.61.27-12.64,2.6V436.86H93.13L92.35,482H97v-25.1c4-2.16,8.34-2.6,12.64-2.6h7.8l8.16,17.12c4.22,8.75,10.34,10.26,16.74,10.53l.18-9.83c-3.75-.16-5.34-1.7-9.3-7.51L128,454c8.33-2.08,13.73-7.22,15.08-15.07l0-2Z" class="cls-18 path166"></path>
<path d="M146.41,482v-9.95l-2.15.09h-1l-.74,0-.18,9.83C143.7,482,145.06,482,146.41,482Z" class="cls-18 path168"></path>
<polygon points="87.23 436.86 87.23 482.03 92.35 482.03 93.14 436.86 87.23 436.86" class="cls-18 polygon41"></polygon>
<path d="M62.31,448.14A25.59,25.59,0,0,1,42.5,473l-.18,10C58.84,480.1,72,466.2,72,448.68a35.63,35.63,0,0,0-2-11.82H59.64A24.47,24.47,0,0,1,62.31,448.14Z" class="cls-18 path161"></path>
<path d="M43.53,413.93,43.35,424a25.54,25.54,0,0,1,16.29,12.85H70A35.53,35.53,0,0,0,43.53,413.93Z" class="cls-18 path163"></path>
<path d="M36,423a28.65,28.65,0,0,1,7.4,1l.18-10.08a37.68,37.68,0,0,0-7.49-.76c-15.5,0-29.47,9.6-34.27,23.69H12.33C16.59,428.39,25.42,423,36,423Z" class="cls-18 path164"></path>
<path d="M36,473.78c-14,0-26.45-10.58-26.45-25a26.41,26.41,0,0,1,2.74-11.91H1.77A33.23,33.23,0,0,0,0,447.6a35.5,35.5,0,0,0,36,36,36.28,36.28,0,0,0,6.37-.57l.18-10A27,27,0,0,1,36,473.78Z" class="cls-18 path162"></path>

</svg>
