<svg xmlns="http://www.w3.org/2000/svg" viewBox="0 0 501.47 438.64">
    <defs>
        <style>
            .cls-1{fill:#c3c3b9; stroke:#c3c3b9;}.cls-2{fill:#a29b8d; stroke:#a29b8d;}.cls-3{fill:#eaebdc; stroke:#eaebdc;}
            .cls-4{fill:#845e38; stroke:#845e38;}.cls-5{fill:#ff4e50; stroke:#ff4e50;}.cls-6{fill:#523b1e; stroke:#523b1e;}
            .cls-7{fill:#59bdd5; stroke:#59bdd5;}
        </style>
    </defs>
    <title>
        Quizzing
    </title>
    <path d="M469.91,51a93.49,93.49,0,0,0-13-18.6c-.36-.4-.73-.78-1.09-1.17-.93-1-1.88-2-2.86-3l-.09-.09L452.51,51Z" class="cls-3 path45"></path>
<path d="M452.42,56.28l.09-5.26h-3.59c.24.33.49.66.73,1Q451.11,54.1,452.42,56.28Z" class="cls-3 path40"></path>
<path d="M452.42,56.28q1.56,2.58,2.91,5.28c.37.72.73,1.46,1.07,2.2a75,75,0,0,1,5,14.87c.26,1.16.5,2.33.71,3.51A75.58,75.58,0,0,1,463,101h17.64a94.73,94.73,0,0,0-1.22-22.31,4.11,4.11,0,0,0-.13-.7,93.48,93.48,0,0,0-8.87-26c-.17-.34-.36-.67-.54-1h-17.4Z" class="cls-3 path44"></path>
<path d="M406.35,3.17,406,22l.48.11A75.57,75.57,0,0,1,448.92,51h3.59l.4-22.86A94.19,94.19,0,0,0,406.83,3.27Z" class="cls-3 path41"></path>
<path d="M463,102h0a75.56,75.56,0,0,1-7.71,27.06l-.22.42c-.3.59-.61,1.17-.92,1.74-1,1.77-2,3.49-3.1,5.17L450.77,151h11.49a94.39,94.39,0,0,0,12.27-22.2,93.19,93.19,0,0,0,6.05-26.8h0l.06-1H463C463,101.35,463,101.69,463,102Z" class="cls-3 path46"></path>
<path d="M450.75,152h3v0h-3l-.21,12.05c1-1,2.07-1.94,3.07-3v0c.37-.37.74-.72,1.11-1.1a95.37,95.37,0,0,0,6.79-8h0c.25-.33.49-.67.73-1H450.77Z" class="cls-3 path42"></path>
<path d="M438.6,151h12.17l.25-14.61A76,76,0,0,1,438.6,151Z" class="cls-3 path47"></path>
<path d="M401.39,128.61a12,12,0,0,1,2.11-7.32l.7.43v0l.47.3.53.33c-.2.33-.38.65-.55,1a8.79,8.79,0,0,0-.5,1.08v.17a7.86,7.86,0,0,0-.11,6.06V131l.15.36c.1.19.2.38.31.56a8.18,8.18,0,0,0,2.31,2.45l-1.06,1.7a8.44,8.44,0,0,1-1.22-1c-.15-.14-.31-.31-.47-.49h0a10.48,10.48,0,0,1-2-3.18c-.08-.21-.17-.44-.24-.67l-.67.1-.24,13.66a17.83,17.83,0,0,0,3,.15h.47c6-.4,12.13-3.76,14.47-8.27H419a13.24,13.24,0,0,0,1.81-5.63c0-.4,0-.81,0-1.21-.17-3.31-1.93-6.45-5.24-9.33a12.67,12.67,0,0,1-7.21,4.41l-.52-2c9.69-2.45,8.06-11.51,8-11.9l2.06-.4a14.26,14.26,0,0,1-1.19,8.14q5.9,5,6.22,11v1.23a14.86,14.86,0,0,1-1.52,5.69,14.87,14.87,0,0,0,9.34-6,15.18,15.18,0,0,0,2.06-3.9s2.07-5.76-.55-10.64c-1.68-3.14-4.94-5.3-9.7-6.44l.49-2c5.37,1.28,9.09,3.81,11.07,7.51a13.66,13.66,0,0,1,1.49,5c2.18-2.22,5-6.22,2.84-10.07a11,11,0,0,0,4.14-7.73H421.29a12.18,12.18,0,0,1-5.41,1.17,18.43,18.43,0,0,1-5.84-1v-.11l-.06,0a12.14,12.14,0,0,1-5,2.39,2.81,2.81,0,0,0-.49.09h0a16.94,16.94,0,0,1-2.93.31l-.41,23.71Z" class="cls-7 path63"></path>
<path d="M438.94,92.15a10.4,10.4,0,0,1-8.23,3.32,13.89,13.89,0,0,1-3.9-.57,10.94,10.94,0,0,1-3.95,6.12h19.71C442.62,97.38,441.11,93.92,438.94,92.15Z" class="cls-7 path61"></path>
<path d="M408,101l.67-.49a12.16,12.16,0,0,0,4-7.93l2.09.11a14.67,14.67,0,0,1-3.12,7.8,17.46,17.46,0,0,0,2.83.51h2.68a8.35,8.35,0,0,0,7.67-6.94,9,9,0,0,1-2.22-1.76A11.57,11.57,0,0,1,420,84.15l2.09.18a9.61,9.61,0,0,0,2.12,6.59,7.06,7.06,0,0,0,1.54,1.23l.78.33s4.77,2,8.62,0A7.49,7.49,0,0,0,439,87.86a9.05,9.05,0,0,0,.33-1.94c.06-2.34-.45-4.83-1.91-6.42a4.89,4.89,0,0,0-2.4-1.45c1.94-6.91-2.74-14.12-8.57-15.47,1.2,4,1,7.48-.68,10.21-3,5-9.55,5.67-9.83,5.7l-.2-2.09c.05,0,5.79-.64,8.24-4.71,1.44-2.37,1.11-4.94.21-9.33C423.74,57.64,417.66,51.6,411,53a14.25,14.25,0,0,1,.56,10,15.09,15.09,0,0,1-5.91,7.43l-.49.33v2.15c.17.45.31,1,.45,1.44a20.66,20.66,0,0,1,.61,4.5,11.11,11.11,0,0,1,6,1.53c.47.26.94.54,1.43.87L412.45,83a9.57,9.57,0,0,0-7-1.94,2.19,2.19,0,0,0-.49.12h0a8.19,8.19,0,0,0-3,1.5L401.63,101Z" class="cls-7 path69"></path>
<path d="M421.29,102h21.25c0-.34,0-.67,0-1H422.86a11.74,11.74,0,0,1-1.18.81Z" class="cls-7 path60"></path>
<path d="M401.6,102.83a17,17,0,0,0,3-.38V102h0v0h0l0,.43.49-.1,1-.33h0a9.63,9.63,0,0,0,1.94-1h-6.38Z" class="cls-7 path71"></path>
<path d="M402.49,52h3v0h-3l-.28,16a10.4,10.4,0,0,1,1.11,1.28A16.08,16.08,0,0,0,405.21,68v0a6,6,0,0,0,.49-.39,12.42,12.42,0,0,0,3.89-5.45c1-3,.57-6.47-1.29-10.21l-.14-.3c-.16-.24-.34-.47-.51-.7H402.5Z" class="cls-7 path77"></path>
<path d="M407.65,51A14.1,14.1,0,0,0,406,49.11l-.48-.42h0a11.12,11.12,0,0,0-3-1.9L402.5,51Z" class="cls-7 path75"></path>
<path d="M404.1,79.18a16.16,16.16,0,0,0-2-7.78L402,80.09A10.92,10.92,0,0,1,404.1,79.18Z" class="cls-7 path68"></path>
<path d="M390,52a16.62,16.62,0,0,0-.83,5.38V65c5.27-.94,9.45-.14,12.42,2.39.23.2.44.41.66.63l.28-16Z" class="cls-7 path76"></path>
<path d="M390.36,51H402.5l.08-4.23a11,11,0,0,0-4.29-.92A8.22,8.22,0,0,0,390.36,51Z" class="cls-7 path74"></path>
<path d="M402.49,52V51H390.36a9.92,9.92,0,0,0-.4,1Z" class="cls-7 path73"></path>
<path d="M405.13,72.83V70.68c-.27.17-.53.34-.76.47A12.7,12.7,0,0,1,405.13,72.83Z" class="cls-7 path66"></path>
<path d="M375.38,45.87A11.69,11.69,0,0,0,366,51H383.3A8.2,8.2,0,0,0,375.38,45.87Z" class="cls-7 path82"></path>
<path d="M399.58,2a93.13,93.13,0,0,0-25,0h-.17c-1.23.17-2.46.35-3.7.57a93.83,93.83,0,0,0-14.47,3.77h-.13c-1,.34-1.94.69-2.89,1.06l-.37,21c1-.5,1.92-1,2.9-1.44l.13-.06A75.39,75.39,0,0,1,403,21.34l.33-18.77c-1.2-.21-2.41-.41-3.62-.57Z" class="cls-3 path58"></path>
<path d="M406,22l.33-18.87c-1-.21-2-.4-3-.58L403,21.34C404,21.55,405,21.77,406,22Z" class="cls-3 path57"></path>
<path d="M352.89,28.38l.37-21a93.56,93.56,0,0,0-47.69,41.09L305.48,51h21.28A74.85,74.85,0,0,1,352.89,28.38Z" class="cls-3 path59"></path>
<path d="M437.51,152a75.15,75.15,0,0,1-33.57,16.91l-.49.1v0c-.83.18-1.67.36-2.52.51l-.5.08L400.11,188c1-.15,2.07-.31,3.1-.49h.11l.29-.06a93.16,93.16,0,0,0,46.93-23.31l.21-12.05Z" class="cls-3 path49"></path>
<path d="M400.18,69c-2.53-2.16-6.25-2.78-11.05-1.85V96.57A17.78,17.78,0,0,0,394,101h7.6L402,82.64a8.4,8.4,0,0,0-1.48,1.44l-1.71-1.21A10.8,10.8,0,0,1,402,80.09l.15-8.69A9.61,9.61,0,0,0,400.18,69Z" class="cls-7 path72"></path>
<path d="M394,101a17.59,17.59,0,0,0,1.87,1h0a9.58,9.58,0,0,0,2.11.59,16.72,16.72,0,0,0,3.6.22l0-1.81Z" class="cls-7 path70"></path>
<path d="M397.7,104.68a13.68,13.68,0,0,1-6-2.66c-.43-.32-.84-.65-1.24-1h-1.33v20.92a11,11,0,0,0,3.91,5.43c2.12,1.45,4.87,1.88,8.11,1.28l.41-23.71-.34,0A23,23,0,0,1,397.7,104.68Z" class="cls-7 path64"></path>
<path d="M398.45,131a11.42,11.42,0,0,1-6.61-1.93,11.71,11.71,0,0,1-2.7-2.65v1.83a27.78,27.78,0,0,0,.23,3.53c1.08,8.16,5.95,11.86,11.5,12.64l.24-13.66A18.26,18.26,0,0,1,398.45,131Z" class="cls-7 path65"></path>
<path d="M437.51,152h13.24l0-1H438.6Z" class="cls-3 path48"></path>
<path d="M389.13,99.76V101h1.33C390,100.62,389.55,100.2,389.13,99.76Z" class="cls-7 path62"></path>
<path d="M372.53,102a10.08,10.08,0,0,0-4.89,7.23l-.18,1.31-1.24-.48a10.55,10.55,0,0,0-8.14.43,8.05,8.05,0,0,0-3.69,4.29h0c-.05.12-.1.25-.14.38a9.07,9.07,0,0,0-.09,5.06,1.59,1.59,0,0,0,.13.46c.1.35.21.71.35,1.07,3.79-1,7.49.56,10.35,4.19,3.49-2.71,8.09-2.5,12.62.58l-1.16,1.71c-3.73-2.53-7.43-2.77-10.15-.66a7.82,7.82,0,0,0-2.88,5.11,7.4,7.4,0,0,0,.35,3.46l-2,.71a9.32,9.32,0,0,1-.47-4.09,10,10,0,0,1,2.15-5.33c-2.38-3.13-5.42-4.45-8.47-3.62a5.32,5.32,0,0,0-.79.29v0l-.1,0a7.63,7.63,0,0,0-2.91,2.18L351,136a13.14,13.14,0,0,0,2.87.39H354a2.87,2.87,0,0,0,.78-.08c5,9.6,26.89,14,29.45-4.34a27,27,0,0,0,.25-3.7V102.4c-.24-.14-.48-.25-.73-.38h0a11.16,11.16,0,0,0-2.37-1h-6.61c-.34.1-.68.21-1,.34A10.32,10.32,0,0,0,372.53,102Z" class="cls-7 path88"></path>
<path d="M363.76,102h5.38a11.78,11.78,0,0,1,1.14-1h-7.61A11.22,11.22,0,0,1,363.76,102Z" class="cls-7 path81"></path>
<path d="M366.3,106.21a12.2,12.2,0,0,1,2.82-4.19h-5.38A13,13,0,0,1,366.3,106.21Z" class="cls-7 path85"></path>
<path d="M354.63,102l-.15,8.72a9.89,9.89,0,0,1,2.6-2.08,12.76,12.76,0,0,1,7.45-1.17,10.13,10.13,0,0,0-4.08-5.47,10.66,10.66,0,0,0-2.24-1h-3.55v1Z" class="cls-7 path86"></path>
<path d="M352.68,122.52c-1.82-4.67-.76-8.87,1.64-11.63l.14-.14.15-8.72h-3l-.38,21.42A10.85,10.85,0,0,1,352.68,122.52Z" class="cls-7 path91"></path>
<path d="M354.61,101l0-.58h-.14a18.42,18.42,0,0,0-2.87.24V101Z" class="cls-7 path95"></path>
<polygon points="354.61 101.02 351.62 101.02 351.61 102.02 354.57 102.02 354.61 101.02" class="cls-7 polygon31"></polygon>
<path d="M374.82,101h6.61A11.62,11.62,0,0,0,374.82,101Z" class="cls-7 path90"></path>
<path d="M364.61,53.55a9.91,9.91,0,0,0-9.16.71l-.28,16.11a9.88,9.88,0,0,0,6.5.51c4.32-1.28,6.8-5.7,7.39-6.87a15.73,15.73,0,0,1-1.83-4.68l2-.47c.79,3.4,2.23,5.63,4.29,6.62,3,1.43,6.36-.15,6.4-.17l.91,1.89a11.36,11.36,0,0,1-4.52,1,8.51,8.51,0,0,1-3.68-.81,7.93,7.93,0,0,1-2.2-1.56A17.94,17.94,0,0,1,366,71c1.69,2.67,3.4,6.42,2.46,10.91a8.56,8.56,0,0,1-.24,1c-.68,2.36-3.12,4.31-5.69,5.35C366.84,91,370.45,92,373.36,91c3.76-1.27,5.07-5.52,5.08-5.56l2,.59c-.06.22-1.61,5.31-6.39,7a9.29,9.29,0,0,1-3,.49c-2.77,0-5.88-1.11-9.29-3.32a6.9,6.9,0,0,1-1.05,4.8,8.93,8.93,0,0,1-4.86,3.42,11.83,11.83,0,0,1,6.82,2.63h7.61A12.1,12.1,0,0,1,373,99.41a13.6,13.6,0,0,1,11.54.59V57.4a16.62,16.62,0,0,0-.83-5.38h0a9.92,9.92,0,0,0-.4-1H366c-.25.34-.46.68-.65,1A8.55,8.55,0,0,0,364.61,53.55Z" class="cls-7 path80"></path>
<path d="M354.57,96.52h.14v0A7.15,7.15,0,0,0,359,93.83,5.47,5.47,0,0,0,359,88.3L358.45,87l1.37-.22c2.59-.41,5.8-2.34,6.44-4.55a.55.55,0,0,1,.07-.32c.83-3.19.2-6.28-2.06-9.87a11.13,11.13,0,0,1-2,.8,11.5,11.5,0,0,1-7.15-.28v0l-.13,0a17.63,17.63,0,0,1-2.85-1.34l-.41,23.72a9.49,9.49,0,0,1,.54,1.91A12.88,12.88,0,0,0,354.57,96.52Z" class="cls-7 path79"></path>
<path d="M354.66,100.44V101h3.55A11,11,0,0,0,354.66,100.44Z" class="cls-7 path87"></path>
<path d="M355.13,70.29l.28-16.11-.1.15a12.21,12.21,0,0,0-2.91,2.46l-.21,12a17,17,0,0,0,2.8,1.47Z" class="cls-7 path83"></path>
<path d="M349.94,62.33c-6.4-.64-12.45,6.34-11.71,13.64a12.64,12.64,0,0,0,5.23-.22c4.73-1.25,7.09-6.49,7.11-6.55l.5-1.13,1,.68.12.07.21-12A8.86,8.86,0,0,0,349.94,62.33Z" class="cls-7 path84"></path>
<path d="M352,71.14c-1.05,1.85-3.63,5.53-8,6.67a14.06,14.06,0,0,1-3.65.47,16.18,16.18,0,0,1-2.09-.14c-2.15.74-3.27,2.71-3.72,4.92a13.69,13.69,0,0,0,.44,6.78,16.94,16.94,0,0,1,9.41-1.14,10.37,10.37,0,0,1,6.76,5,9.38,9.38,0,0,1,.59,1.24l.41-23.72Z" class="cls-7 path78"></path>
<path d="M350,99.33a5.8,5.8,0,0,0-.75-4.57,8.27,8.27,0,0,0-5.37-4c-3.53-.73-7.19.52-9.43,1.56A11.74,11.74,0,0,0,331,101h18.42Z" class="cls-7 path93"></path>
<path d="M305.54,48.51c-.26.45-.53.91-.78,1.37s-.41.76-.6,1.14h1.31Z" class="cls-3 path51"></path>
<path d="M302.43,54.47,301.62,101h11a74.63,74.63,0,0,1,.67-17.22A75.54,75.54,0,0,1,326,52c.23-.34.48-.67.72-1H305.48l0,1,0-1h-1.31l-.51,1C303.23,52.83,302.83,53.65,302.43,54.47Z" class="cls-3 path52"></path>
<path d="M302.43,54.47a92.78,92.78,0,0,0-9,46.55h8.23Z" class="cls-3 path50"></path>
<path d="M353.56,162.44l-.35,20.07c.32.13.64.24,1,.36l2,.74a93.32,93.32,0,0,0,43.9,4.34l.32-18.34A75.13,75.13,0,0,1,353.56,162.44Z" class="cls-3 path43"></path>
<path d="M349.39,130.77l-2.1-.1a10,10,0,0,1,3.94-7.22l.38-21.42h-20.5a11,11,0,0,0,4.15,7.72c-2.94,5.31,3.49,10.9,4.75,11.74a15.29,15.29,0,0,0,5.77,11.83A12.87,12.87,0,0,0,351,136l.17-9.65A7.8,7.8,0,0,0,349.39,130.77Z" class="cls-7 path89"></path>
<path d="M331,101c0,.33,0,.66,0,1h20.54v-1Z" class="cls-7 path94"></path>
<path d="M353,182.44h.06l.14.05.35-20.07-.14-.07c-1-.49-1.9-1-2.84-1.55l-.36,20.49C351.14,181.69,352.07,182.08,353,182.44Z" class="cls-3 path53"></path>
<path d="M337.08,151h-25.3c.24.33.48.67.73,1a93.36,93.36,0,0,0,13,13.81c.56.49,1.14,1,1.71,1.44l0,0a96,96,0,0,0,10.42,7.48h0l0,0a99.13,99.13,0,0,0,8.77,4.79c1.23.58,2.48,1.15,3.74,1.7l.36-20.49a76.19,76.19,0,0,1-12.4-8.78C337.8,151.69,337.45,151.35,337.08,151Z" class="cls-3 path55"></path>
<path d="M302.05,134.85c.38.82.78,1.63,1.18,2.43.24.47.5.91.74,1.37A93.62,93.62,0,0,0,311.78,151h25.3a75.33,75.33,0,0,1-23.55-42.68c-.37-2.11-.65-4.21-.84-6.32h0c0-.33-.05-.67-.07-1h-11l-.56,31.63C301.39,133.39,301.71,134.12,302.05,134.85Z" class="cls-3 path56"></path>
<path d="M294.6,111.3a94.13,94.13,0,0,0,6.46,21.35l.56-31.63h-8.23c0,.33,0,.67.06,1A93.31,93.31,0,0,0,294.6,111.3Z" class="cls-3 path54"></path>
<path d="M331.45,184.47l-.56.9-.68,1.11,14,8.79h0l0,0,1.54-2.24,4.38-6.36.09-5.4c-1.26-.55-2.51-1.12-3.74-1.7a99.13,99.13,0,0,1-8.77-4.79l-4.81,7.42Z" class="cls-2 path28"></path>
<path d="M350.22,181.29l-.09,5.4,2-2.94.88-1.29,0,0h0C352.07,182.08,351.14,181.69,350.22,181.29Z" class="cls-2 path29"></path>
<path d="M327.27,184.61l2.78,1.76-.57.81.1.07.57-.81h.06l.68-1.07.56-.9,1.45-2.25,4.76-7.45a96,96,0,0,1-10.42-7.48l0,0-8.43,12Z" class="cls-1 path27"></path>
<path d="M495.88,431.34a36.91,36.91,0,0,0,5.59-5.08V401h-5.06Z" class="cls-7 path107"></path>
<path d="M479,401l3.72,8.55h8.8V422a27.37,27.37,0,0,1-18,6.61c-14.31,0-27-10.82-27-25.59,0-.69,0-1.37.07-2h-.21l-.44,25.5a36.55,36.55,0,0,0,27.54,12.12,37.65,37.65,0,0,0,22.38-7.3l.53-30.32Z" class="cls-7 path106"></path>
<path d="M446.81,377.66,446.4,401h.21c1-14.32,12.35-24.28,26.89-24.28a27.84,27.84,0,0,1,20,8.25l3.27-3.82.11-6.4a37.22,37.22,0,0,0-23.28-8.12A37.91,37.91,0,0,0,446.81,377.66Z" class="cls-7 path108"></path>
<path d="M499.91,377.47a39.06,39.06,0,0,0-3-2.7l-.11,6.4Z" class="cls-7 path104"></path>
<polygon points="349.76 207.87 352.7 203.67 352.84 203.48 353.86 202.02 354.16 201.59 353.25 201.02 349.88 201.02 349.76 207.87" class="cls-6 polygon24"></polygon>
<polygon points="353.25 201.02 352.89 200.79 352.75 200.7 349.92 198.91 349.88 201.02 353.25 201.02" class="cls-6 polygon25"></polygon>
<polygon points="319.86 201.02 319.15 202.02 302.45 225.69 301.67 226.78 299.36 230.05 299 251.02 319.55 251.02 330.67 235.15 349.76 207.87 349.88 201.02 319.86 201.02" class="cls-6 polygon18"></polygon>
<polygon points="345.07 195.86 344.18 195.3 344.17 195.29 330.21 186.48 330.15 186.44 329.58 187.25 319.86 201.02 349.88 201.02 349.92 198.91 345.08 195.87 345.07 195.86" class="cls-6 polygon13"></polygon>
<polygon points="319.73 201.02 329.48 187.18 330.05 186.37 327.27 184.61 318.79 179.26 316.92 178.08 316.91 178.08 307.9 172.38 303.26 179.26 302.48 180.41 300.17 183.82 299.87 201.02 319.73 201.02" class="cls-4 polygon30"></polygon>
<polygon points="299.37 229.94 301.67 226.67 302.45 225.57 319.03 202.02 319.73 201.02 299.87 201.02 299.37 229.94" class="cls-4 polygon27"></polygon>
<polygon points="294.82 236.4 299.37 229.94 299.87 201.02 288.56 201.02 287.89 202.02 263.95 237.48 256.81 248.05 258.81 251.02 284.52 251.02 294.82 236.4" class="cls-4 polygon28"></polygon>
<polygon points="288.56 201.02 299.87 201.02 300.17 183.82 298.97 185.6 288.56 201.02" class="cls-4 polygon26"></polygon>
<polygon points="284.56 251.02 299 251.02 299.36 230.05 294.89 236.4 284.56 251.02" class="cls-6 polygon19"></polygon>
<path d="M190.13,107A74.74,74.74,0,0,1,165,151h25.23a92.4,92.4,0,0,0,8.24-12.56c.92-1.7,1.77-3.45,2.59-5.23L201.6,101H190.92c0,.33,0,.67-.08,1C190.66,103.67,190.42,105.32,190.13,107Z" class="cls-3 path12"></path>
<path d="M202.13,130.84c.75-1.74,1.44-3.52,2.09-5.32v-.13a95,95,0,0,0,4-15.22c.48-2.73.83-5.44,1.07-8.15,0-.33,0-.67.07-1H201.6L201,133.23C201.41,132.44,201.78,131.65,202.13,130.84Z" class="cls-3 path15"></path>
<path d="M191.07,88.07a74.69,74.69,0,0,1-.15,13H201.6l.76-43.51c-.78-1.86-1.65-3.69-2.55-5.49-.17-.34-.35-.67-.53-1H177.85c.23.34.48.66.71,1A75.19,75.19,0,0,1,191.07,88.07Z" class="cls-3 path18"></path>
<path d="M209.45,87.43a93.31,93.31,0,0,0-4.22-22v-.06c-.58-1.82-1.21-3.63-1.9-5.41-.3-.82-.63-1.62-1-2.43L201.6,101h7.79A94.84,94.84,0,0,0,209.45,87.43Z" class="cls-3 path16"></path>
<path d="M156.2,9.15l-.36,20.76a72.45,72.45,0,0,1,6.92,4.88c1.39,1.11,2.69,2.28,4,3.48A75.91,75.91,0,0,1,177.85,51h21.43A94.07,94.07,0,0,0,156.2,9.15Z" class="cls-3 path13"></path>
<path d="M106,19a75.88,75.88,0,0,1,46.83,9.09l.35-20.35A93.54,93.54,0,0,0,135,2H106.32v.07h-3L103,19.56c1-.18,2-.34,3-.47Z" class="cls-3 path22"></path>
<path d="M153.26,28.32c.87.5,1.73,1,2.58,1.55l.36-20.76c-.85-.41-1.72-.81-2.59-1.19l-.39-.16-.35,20.35Z" class="cls-3 path24"></path>
<path d="M129.39,1a93.5,93.5,0,0,0-23-.56V1Z" class="cls-3 path25"></path>
<path d="M106.35,2,135,2c-1-.2-1.92-.39-2.9-.56s-1.82-.31-2.74-.44h-23Z" class="cls-3 path26"></path>
<path d="M106.34,1V.5c-1,.1-2,.22-3,.35V1Z" class="cls-3 path19"></path>
<polygon points="106.34 1.02 103.33 1.02 103.31 2.02 106.32 2.02 106.34 1.02" class="cls-3 polygon0"></polygon>
<path d="M133.06,101a95.4,95.4,0,0,0,10-11.27c4.39-5.93,7.88-12.59,7.43-18.35C149.92,64.24,149,57.54,145.3,52h0c-.23-.34-.47-.67-.71-1H102.46l-.29,16.68a24.22,24.22,0,0,1,3-2.06v0A12.77,12.77,0,0,1,114,63.72c9.61,1.92,13.45,9.6,3.85,17.28a84.31,84.31,0,0,0-10.52,10c-.93,1.06-1.82,2.17-2.64,3.29h0a25.79,25.79,0,0,0-3.1,5.36l0,1.37Z" class="cls-5 path35"></path>
<path d="M144.63,51c-2.72-3.63-6.74-6.71-12.81-9a42.14,42.14,0,0,0-8.63-2.24,43.28,43.28,0,0,0-15.84.56c-.57.12-1.14.26-1.71.41h0c-.87.23-1.73.47-2.59.75l-.43.14L102.46,51Z" class="cls-5 path32"></path>
<path d="M102.62,41.65l-.22.08A51.75,51.75,0,0,0,85.7,51h16.76Z" class="cls-5 path33"></path>
<path d="M104.3,117.46l.27-15.44h0l-.27,15.45h19.42v0a3.75,3.75,0,0,0,3.75-3.75v-6a3.73,3.73,0,0,1,1.35-2.88c.8-.67,1.91-1.64,3.2-2.84h0c.35-.33.68-.67,1-1H101.59l-.26,14.9A3.69,3.69,0,0,0,104.3,117.46Z" class="cls-5 path31"></path>
<path d="M79.73,57a3.77,3.77,0,0,0,.41,5.2L91.91,72.69a3.74,3.74,0,0,0,5.25-.28,38.72,38.72,0,0,1,4.78-4.54l.23-.17L102.46,51H85.7c-.4.33-.8.66-1.19,1A47,47,0,0,0,79.73,57Z" class="cls-5 path36"></path>
<path d="M96.6,2.09A94.15,94.15,0,0,0,56,21.64l-.47,27A73.16,73.16,0,0,1,61.11,42,75.74,75.74,0,0,1,95.45,21.23h.11c2.37-.66,4.79-1.21,7.24-1.64l.21,0,.3-17.47Z" class="cls-3 path23"></path>
<path d="M103.31,2l0-1h-1.11q-2.84.42-5.62,1Z" class="cls-3 path20"></path>
<path d="M53.8,51c.56-.81,1.11-1.62,1.7-2.4l.47-27c-1,.85-2,1.73-3,2.63L52.45,51Z" class="cls-3 path6"></path>
<path d="M52.92,24.25l-.86.77a93.35,93.35,0,0,0-15,17.76A92,92,0,0,0,32.33,51H52.45Z" class="cls-3 path8"></path>
<polygon points="501.47 401.02 501.47 399.67 496.43 399.67 496.41 401.02 501.47 401.02" class="cls-7 polygon49"></polygon>
<polygon points="479.04 401.02 496.41 401.02 496.43 399.67 478.45 399.67 479.04 401.02" class="cls-7 polygon50"></polygon>
<path d="M436.72,401.87A36.75,36.75,0,0,0,446,426.52l.44-25.5h-9.65C436.74,401.3,436.72,401.58,436.72,401.87Z" class="cls-7 path105"></path>
<path d="M436.75,401h9.65l.41-23.36A34,34,0,0,0,436.75,401Z" class="cls-7 path109"></path>
<polygon points="411.04 420.94 396.35 403.46 396.08 418.93 411.23 437.08 421.13 437.08 421.13 401.02 411.04 401.02 411.04 420.94" class="cls-7 polygon48"></polygon>
<rect width="10.09" height="32.35" x="411.04" y="368.67" class="cls-7 rect4"></rect>
<rect width="9.81" height="36.06" x="362.16" y="401.02" class="cls-7 rect5"></rect>
<polygon points="394.3 401.02 381.14 401.02 396.08 418.93 396.35 403.46 394.3 401.02" class="cls-7 polygon47"></polygon>
<polygon points="367.12 368.67 354.19 368.67 362.16 378.3 362.16 401.02 371.98 401.02 371.98 390.04 381.14 401.02 394.3 401.02 367.12 368.67" class="cls-7 polygon46"></polygon>
<rect width="9.81" height="32.35" x="330.16" y="368.67" class="cls-7 rect2"></rect>
<polygon points="300.78 277.83 301.56 276.72 318.85 252.02 319.55 251.02 299 251.02 298.47 281.12 300.78 277.83" class="cls-6 polygon17"></polygon>
<polygon points="288.63 295.18 294.31 287.07 298.47 281.12 299 251.02 284.56 251.02 283.85 252.02 271.4 269.66 259.49 252.02 258.81 251.02 248.99 251.02 248.35 287.6 249.07 288.65 249.94 289.93 251.28 291.9 257.51 301.02 287.3 301.02 290.88 298.51 288.63 295.18" class="cls-6 polygon22"></polygon>
<polygon points="258.19 302.02 267.13 315.14 281.9 304.8 285.87 302.02 287.3 301.02 257.51 301.02 258.19 302.02" class="cls-6 polygon20"></polygon>
<polygon points="284.52 251.02 258.81 251.02 259.49 252.02 271.4 269.66 283.82 252.02 284.52 251.02" class="cls-4 polygon29"></polygon>
<polygon points="252.17 241.17 250.83 239.19 250 237.96 249.24 236.83 248.99 251.02 258.81 251.02 256.81 248.05 252.17 241.17" class="cls-6 polygon23"></polygon>
<polygon points="224.09 252.02 248.35 287.6 248.99 251.02 223.41 251.02 224.09 252.02" class="cls-6 polygon21"></polygon>
<polygon points="225.73 202.02 225.05 201.02 199.85 201.02 199.59 216.08 200.58 217.53 202.52 220.39 215.33 239.17 223.41 251.02 248.99 251.02 249.24 236.83 225.73 202.02" class="cls-6 polygon16"></polygon>
<polygon points="204.95 171.25 203.36 172.26 201.35 173.53 200.32 174.18 199.85 201.02 225.05 201.02 216.59 188.48 204.95 171.25" class="cls-6 polygon12"></polygon>
<polygon points="195.95 176.95 193.84 178.29 193.82 178.3 185.86 183.32 179.84 187.12 179.94 187.27 181.6 189.7 189.32 201.02 199.85 201.02 200.32 174.18 195.95 176.95" class="cls-6 polygon14"></polygon>
<polygon points="190 202.02 199.59 216.08 199.85 201.02 189.32 201.02 190 202.02" class="cls-6 polygon15"></polygon>
<path d="M193.82,178.3h0l-1.08-1.65-10.67-16.32,0,0a95.38,95.38,0,0,1-13.26,11l11,15.69h0l5.29-3.26.72-.44Z" class="cls-2 path2"></path>
<path d="M153.22,179.92v0q1.59-.69,3.15-1.44h0l1.47-.73h0l1.46-.77,1.45-.76c.58-.31,1.14-.64,1.71-1l1.27-.73c.56-.33,1.12-.68,1.68-1l1.24-.79,1.63-1.06a94,94,0,0,0,13.75-11.28l.19-.19c.36-.35.71-.71,1.06-1.07q3.25-3.36,6.18-7h0c.26-.33.5-.67.76-1H165c-.39.33-.76.68-1.15,1a76.11,76.11,0,0,1-10.24,7.12v0c-.88.51-1.75,1-2.64,1.49l-.4.2-.36,20.31.4-.15C151.47,180.67,152.35,180.3,153.22,179.92Z" class="cls-3 path14"></path>
<path d="M101.09,101c-.1.33-.19.66-.27,1a9.67,9.67,0,0,0-.24,2v9.69a3.59,3.59,0,0,0,.53,1.88,3.15,3.15,0,0,0,.22.33l.26-14.9Z" class="cls-5 path34"></path>
<rect width="9.81" height="36.06" x="330.16" y="401.02" class="cls-7 rect3"></rect>
<polygon points="315.48 437.08 315.48 427.09 295.92 427.09 295.75 437.08 315.48 437.08" class="cls-7 polygon44"></polygon>
<polygon points="293.59 401.02 280.56 401.02 259.81 427 259.81 437.08 295.75 437.08 295.92 427.09 272.29 427.09 293.59 401.02" class="cls-7 polygon41"></polygon>
<polygon points="298.33 378.76 296.73 380.76 296.44 397.54 312.09 378.39 312.09 368.67 296.94 368.67 296.77 378.76 298.33 378.76" class="cls-7 polygon42"></polygon>
<polygon points="296.44 397.54 296.73 380.76 280.56 401.02 293.59 401.02 296.44 397.54" class="cls-7 polygon45"></polygon>
<polygon points="261.92 378.76 296.77 378.76 296.94 368.67 261.92 368.67 261.92 378.76" class="cls-7 polygon43"></polygon>
<polygon points="257.49 301.02 248.12 301.02 247.66 327.51 248.25 328.36 249.29 327.64 250.68 326.66 255.62 323.2 267.13 315.14 258.17 302.02 257.49 301.02" class="cls-4 polygon7"></polygon>
<polygon points="229.11 301.02 229.81 302.02 234.07 308.11 247.66 327.51 248.12 301.02 229.11 301.02" class="cls-4 polygon11"></polygon>
<polygon points="249.94 289.98 249.04 288.65 248.35 287.64 248.12 301.02 257.49 301.02 251.28 291.94 249.94 289.98" class="cls-4 polygon10"></polygon>
<polygon points="248.35 287.64 224.02 252.02 223.34 251.02 198.98 251.02 198.86 257.83 199.85 259.24 201.8 262.01 221.13 289.62 225 295.15 229.11 301.02 248.12 301.02 248.35 287.64" class="cls-4 polygon5"></polygon>
<polygon points="202.52 220.55 200.58 217.71 199.59 216.26 198.98 251.02 223.34 251.02 215.24 239.18 202.52 220.55" class="cls-4 polygon9"></polygon>
<polygon points="194.8 252.02 198.86 257.83 198.98 251.02 194.1 251.02 194.8 252.02" class="cls-4 polygon8"></polygon>
<polygon points="189.86 202.02 189.18 201.02 159.08 201.02 159.78 202.02 186.51 240.18 194.1 251.02 198.98 251.02 199.59 216.26 189.86 202.02" class="cls-4 polygon4"></polygon>
<polygon points="181.45 189.71 179.83 187.34 179.73 187.19 175.41 189.92 168.45 194.32 167.78 194.74 158.69 200.46 159.08 201.02 189.18 201.02 181.45 189.71" class="cls-4 polygon6"></polygon>
<path d="M179.73,187.19l.1.15.11-.07-.1-.15,5.3-3.36L179.85,187h0l-11.09-15.71-.45.3-1.63,1.06-1.24.79c-.56.34-1.12.69-1.68,1l-1.27.73c-.57.33-1.13.66-1.71,1l-1.45.76-1.46.77h0l8,12.54,2.6,4.07,7-4.4Z" class="cls-1 path0"></path>
<path d="M103.45,168.28l-.33,18.56a93,93,0,0,0,47.07-5.67l.36-20.31A75.26,75.26,0,0,1,103.45,168.28Z" class="cls-3 path17"></path>
<path d="M128.07,140.92a15.32,15.32,0,0,0-23.9-15.75h0a15.43,15.43,0,0,0-3.06,2.87l-.32,18.81a15.24,15.24,0,0,0,2.95,3h0A15.81,15.81,0,0,0,105.5,151h15.11A15.38,15.38,0,0,0,128.07,140.92Z" class="cls-5 path38"></path>
<path d="M107.61,152h0a15.32,15.32,0,0,0,10.89,0,15.12,15.12,0,0,0,2.11-1H105.5A16.28,16.28,0,0,0,107.61,152Z" class="cls-5 path37"></path>
<path d="M100.88,128.32a15.29,15.29,0,0,0-.31,18.25l.22.28.32-18.81C101,128.13,101,128.22,100.88,128.32Z" class="cls-5 path39"></path>
<path d="M40.45,93.33A75,75,0,0,1,51.55,54.4c.28-.46.57-.92.87-1.37l0-2H32.33c-.17.33-.35.66-.51,1A94,94,0,0,0,22,94c0,2.36.11,4.7.29,7H40.75A73.12,73.12,0,0,1,40.45,93.33Z" class="cls-3 path9"></path>
<path d="M53.8,51H52.45l0,2c.22-.34.44-.67.68-1S53.57,51.36,53.8,51Z" class="cls-3 path11"></path>
<polygon points="250.64 437.08 250.64 427.09 245.92 427.09 245.74 437.08 250.64 437.08" class="cls-7 polygon39"></polygon>
<polygon points="197.09 378.76 233.49 378.76 215.72 401.02 228.75 401.02 246.76 378.99 246.94 368.67 197.09 368.67 197.09 378.76" class="cls-7 polygon37"></polygon>
<polygon points="228.75 401.02 215.72 401.02 195.93 425.8 195.74 437.08 245.74 437.08 245.92 427.09 207.45 427.09 228.75 401.02" class="cls-7 polygon38"></polygon>
<polygon points="194.98 427 194.98 437.08 195.74 437.08 195.93 425.8 194.98 427" class="cls-7 polygon40"></polygon>
<polygon points="247.25 378.39 247.25 368.67 246.94 368.67 246.76 378.99 247.25 378.39" class="cls-7 polygon36"></polygon>
<rect width="9.81" height="32.35" x="170.49" y="368.67" class="cls-7 rect1"></rect>
<path d="M103.42,168.28l-.69-.11c-.78-.14-1.54-.31-2.31-.46l-.32,18.66c1,.18,2,.33,3,.47Z" class="cls-3 path10"></path>
<path d="M53.45,164a93.23,93.23,0,0,0,46,22.3l.42,0,.23,0,.32-18.66-.22-.05A74.48,74.48,0,0,1,67.75,152l-1.16-1H50.71l-.18,10.23c.95.92,1.92,1.82,2.92,2.7Zm.24-12h0v0Z" class="cls-3 path7"></path>
<path d="M58.88,143.34A77,77,0,0,1,54,137c-1-1.48-2-3-2.93-4.55L50.71,151H66.59A76.57,76.57,0,0,1,58.88,143.34Z" class="cls-3 path3"></path>
<path d="M41.45,151c.25.33.49.67.75,1a93.68,93.68,0,0,0,7.5,8.43l.83.8L50.71,151Z" class="cls-3 path5"></path>
<path d="M51,132.47c-.27-.45-.56-.9-.82-1.36A74.87,74.87,0,0,1,40.84,102c0-.33-.06-.67-.09-1H22.27c0,.33,0,.67.07,1a93.75,93.75,0,0,0,14.24,42.1c1.51,2.38,3.15,4.67,4.87,6.9h9.26Z" class="cls-3 path4"></path>
<rect width="9.81" height="36.06" x="170.49" y="401.02" class="cls-7 rect0"></rect>
<polygon points="146.92 368.67 146.36 401.02 151.23 401.02 151.23 368.67 146.92 368.67" class="cls-7 polygon32"></polygon>
<polygon points="141.32 401.02 146.36 401.02 146.92 368.67 141.32 368.67 141.32 401.02" class="cls-7 polygon33"></polygon>
<path d="M145.88,428.22c3.49-4.57,5.35-10.54,5.35-17.73V401h-4.87Z" class="cls-7 path103"></path>
<path d="M141.32,401v9.47c0,11.74-7.52,18.16-20.81,18.16s-20.82-6.42-20.82-18.16V401H96.35l-.49,28.1c5.22,6.16,13.64,9.52,24.65,9.52,11.53,0,20.23-3.68,25.37-10.42l.48-27.2Z" class="cls-7 path101"></path>
<polygon points="96.91 368.67 96.35 401.02 99.69 401.02 99.69 368.67 96.91 368.67" class="cls-7 polygon35"></polygon>
<polygon points="96.91 368.67 89.78 368.67 89.78 401.02 96.35 401.02 96.91 368.67" class="cls-7 polygon34"></polygon>
<path d="M89.78,401v9.47c0,7.67,2.12,13.95,6.08,18.63l.49-28.1Z" class="cls-7 path102"></path>
<path d="M63.73,402.42a25.9,25.9,0,0,1-7.06,17.79c-5-3.69-7.88-5.95-10.54-7.29l-.2,11.78,2.12,1.56c-.71.32-1.43.6-2.16.85l-.19,10.48A36,36,0,0,0,57,432.86c4,2.85,7.89,5.23,13.11,5.78l5-8.71c-3.86-.27-7.61-2.2-10.27-3.85A35.1,35.1,0,0,0,73.64,403c0-.66,0-1.31,0-2H63.7C63.72,401.48,63.73,402,63.73,402.42Z" class="cls-7 path100"></path>
<path d="M46.92,368l-.19,10.48c9.44,3.46,16.41,11.77,17,22.53h9.89A36.1,36.1,0,0,0,46.92,368Z" class="cls-7 path96"></path>
<path d="M36.77,376.74a29.05,29.05,0,0,1,10,1.75L46.92,368a37.86,37.86,0,0,0-10.05-1.36C17.52,366.65.5,381.27,0,401H9.89C10.88,386.7,22.23,376.74,36.77,376.74Z" class="cls-7 path99"></path>
<path d="M34.39,419.93c4.46.24,7.13,1.59,11.54,4.77l.2-11.78a16,16,0,0,0-6.7-1.7Z" class="cls-7 path97"></path>
<path d="M36.87,428.65c-14.31,0-27.06-10.82-27.06-25.59,0-.69,0-1.37.08-2H0c0,.28,0,.56,0,.85a36.31,36.31,0,0,0,36.77,36.77,38.83,38.83,0,0,0,8.93-1.05l.19-10.48A27.26,27.26,0,0,1,36.87,428.65Z" class="cls-7 path98"></path>
</svg>
