<?xml version="1.0" encoding="utf-8"?>
<!--Generator: Adobe Illustrator 22.0.1, SVG Export Plug-In . SVG Version: 6.00 Build 0)-->
<svg xmlns="http://www.w3.org/2000/svg" xmlns:xlink="http://www.w3.org/1999/xlink" id="Layer_1" x="0px" y="0px" style="enable-background:new 0 0 451.5 472.3" version="1.1" viewBox="0 0 451.5 472.3" xml:space="preserve">
    <style type="text/css">
        .st0{fill:#2386BA; stroke:#2386BA;} .st1{fill:#9AC7DF; stroke:#9AC7DF;} .st2{fill:#55616A; stroke:#55616A;} .st3{fill:#F74F24; stroke:#F74F24;} .st4{fill:#4007A9; stroke:#4007A9;} .st5{fill:#ED1AFC; stroke:#ED1AFC;} .st6{fill:#E6ADFC; stroke:#E6ADFC;} .st7{fill:#FE3CDD; stroke:#FE3CDD;} .st8{fill:#59035E; stroke:#59035E;} .st9{fill:#9328FC; stroke:#9328FC;} .st10{fill:#ED4A84; stroke:#ED4A84;} .st11{fill:#F1558C; stroke:#F1558C;} .st12{fill:#F45D92; stroke:#F45D92;} .st13{fill:#DCC8F4; stroke:#DCC8F4;} .st14{fill:#F5F3AF; stroke:#F5F3AF;} .st15{fill:#2A3D4F; stroke:#2A3D4F;} .st16{fill:#FEFEFE; stroke:#FEFEFE;} .st17{fill:#2387BA; stroke:#2387BA;} .st18{fill:#76E0FD; stroke:#76E0FD;} .st19{fill:#75DEFB; stroke:#75DEFB;} .st20{fill:#75DFFC; stroke:#75DFFC;} .st21{fill:#75E0FD; stroke:#75E0FD;} .st22{fill:#74DDFA; stroke:#74DDFA;} .st23{fill:#74DEFA; stroke:#74DEFA;} .st24{fill:#4008A9; stroke:#4008A9;} .st25{fill:#410AA6; stroke:#410AA6;} .st26{fill:#75DFFB; stroke:#75DFFB;} .st27{fill:#2A3E50; stroke:#2A3E50;}
    </style>
    <title>
        sup
    </title>
    <path d="M397.1,41.7c-0.3,0.6-0.9,1.1-1.6,1.4l1.7,1.6l1.6-1.4c0.5-0.8,1.3-1.3,2.2-1.6c-2.6-2.6-0.5-6.3-2-9.5
	l-2.9,2.8C397.8,37,398.5,39.2,397.1,41.7z" class="st11 path138" style=""></path>
<path d="M390.2,38.2l4.4,4c1.8-0.5,2.4-2,2.2-3.8c-0.2-1.8-1-2.1-0.6-3.4c-1.9,1.5-3.7,3-6.5,1.9l0,0
	C390,37.3,390.2,37.7,390.2,38.2z" class="st12 path143" style=""></path>
<path d="M384.9,35.9c-0.6,0.8,0.3,1.7,0.5,2.6c0.3,0.8,1.3,3.6,1.9,5.5c0.8-0.5,1.3,0.2,1.9,0.5c3.1,1.9,5.5,2,8,0.2
	l-1.7-1.6c-0.9,0.3-1.8,0.4-2.7,0.3c-2.6-0.3-3.8-2.3-3.3-5.7l-1.3-1.3l-0.8-0.2C386.6,35.9,385.7,35,384.9,35.9z" class="st11 path137" style=""></path>
<path d="M394.2,42.3h0.4l-4.4-4.1c0,0.5,0.1,1,0.2,1.5C390.7,41.8,392.1,42.7,394.2,42.3z" class="st12 path142" style=""></path>
<path d="M392.9,47c-2.2-0.2-4.2-1.3-5.6-3l0,0c-2,2.2-3.5,4.8-4.6,7.6c6.7-2.9,10.9-0.2,14.4,5.6
	c-0.3-4.5,1.2-7.2,3.8-8.9l-2.9-2.7C396.7,46.6,394.8,47.2,392.9,47z" class="st10 path135" style=""></path>
<path d="M398.1,45.4l2.9,2.7c2.1-1.3,4.4-2.1,6.7-2.6l-6.7-3.9C400.3,43.1,399.3,44.3,398.1,45.4z" class="st10 path136" style=""></path>
<path d="M392.9,47c1.9,0.2,3.8-0.3,5.2-1.6l-0.8-0.7c-2.6,1.8-4.9,1.7-8-0.2c-0.6-0.4-1.1-1-1.9-0.5l0,0
	C388.8,45.7,390.8,46.7,392.9,47z" class="st11 path140" style=""></path>
<path d="M396.8,38.4c0.2,1.8-0.4,3.4-2.2,3.8l1,0.8c0.7-0.3,1.2-0.7,1.6-1.4c1.4-2.5,0.6-4.7-1-6.7
	C395.8,36.3,396.7,37.2,396.8,38.4z" class="st12 path145" style=""></path>
<path d="M394.2,42.3c-2.1,0.4-3.5-0.5-3.8-2.6c-0.1-0.5-0.2-1-0.2-1.5l-0.6-0.5c-0.5,3.4,0.6,5.4,3.3,5.7
	c0.9,0.1,1.9,0,2.7-0.3l-1-0.8L394.2,42.3z" class="st12 path144" style=""></path>
<path d="M398.9,43.3l-1.6,1.4l0.8,0.7c1.2-1.1,2.1-2.3,2.9-3.7C400.2,42,399.4,42.5,398.9,43.3z" class="st11 path141" style=""></path>
<path d="M345.8,47.6c-0.8-4.6-2.1-8.9-3.4-14.1l-5.3,6.3L345.8,47.6L345.8,47.6z" class="st5 path113" style=""></path>
<path d="M313.4,45.5l2.6,3.9l3.4-3.4L313.4,45.5z" class="st5 path109" style=""></path>
<path d="M327.5,46.8l-8.1-0.7l-3.4,3.4l0.8,1.4c0.9,1.6,2.4,2.9,2.5,4.9l0,0c3.7,1.7,4.9,4.2,3.4,7.8l-3.9,9.6l1.9,1.7
	c2.6-0.5,5.2-1.2,7.7-2.1c4.2-1.6,7.3-0.3,10,2.9l1.8,1.9l7.3-7.3v-0.5c-0.1-2.2,1.2-4.3,3.2-5.3c2-1.1,4-2.2,6-3.5l1.8-1.8
	l-7.6-6.8l-1.3-0.5c-2.1-0.8-3.4-1.8-3.8-4.3l-8.7-7.9c-1.2,1.5-2.4,2.9-3.4,4.4C332.4,46.2,329.9,47.3,327.5,46.8z" class="st5 path111" style=""></path>
<path d="M361.3,56.5l-10.4-4.1l7.6,6.8L361.3,56.5z" class="st5 path112" style=""></path>
<path d="M358.9,59.7l4.1-2.6l-1.7-0.6l-2.8,2.7L358.9,59.7z" class="st5 path110" style=""></path>
<path d="M341.2,79.2c0.5,0.4,0.9,0.8,1.2,1.4c1.5,0.7,2.3,2.5,4.1,2.6c0.7-4.3,1-8.6,0.9-12.9l-7.3,7.3l0.3,0.4
	C340.7,78.4,341,78.8,341.2,79.2z" class="st5 path108" style=""></path>
<path d="M316.1,76.9l5.4-1.3l-0.8-0.7l-2.9,0.5c0.4-0.7,0.7-1.5,1-2.3l-0.7-0.7C317.3,73.9,316.8,75.3,316.1,76.9z" class="st5 path116" style=""></path>
<path d="M321.1,65.1l-3.1,7.3l0.7,0.7l3.9-9.6c1.6-3.6,0.4-6.1-3.4-7.8C323.3,59.9,323.3,59.9,321.1,65.1z" class="st5 path117" style=""></path>
<path d="M320.6,74.9l-1.9-1.7c-0.3,0.8-0.6,1.5-1,2.3L320.6,74.9z" class="st5 path107" style=""></path>
<path d="M325.2,74.4c6-2.6,10.7-1.2,14.5,3.6l0.5-0.5l-1.8-1.9c-2.7-3.2-5.8-4.5-10-2.9c-2.5,0.9-5.1,1.6-7.7,2.1
	l0.8,0.7C322.7,75.4,324,75,325.2,74.4z" class="st5 path118" style=""></path>
<path d="M340.1,78.6l-0.4-0.5l-7.4,7.5l24.2,22.1c-4.1-9.4-9-18.4-14.8-26.9C340.9,80.2,340.3,79.5,340.1,78.6z" class="st0 path2" style=""></path>
<path d="M341.6,80.1c-0.1-0.3-0.2-0.6-0.4-0.8c-0.3-0.3-0.7-0.5-1.2-0.6C340.6,79,341.1,79.6,341.6,80.1z" class="st13 path150" style=""></path>
<path d="M340.1,78.6c0.4,0.1,0.8,0.3,1.2,0.6c-0.2-0.4-0.5-0.9-0.8-1.3l-0.3-0.4l-0.5,0.5L340.1,78.6z" class="st5 path115" style=""></path>
<path d="M340.1,78.6c0.3,0.9,0.9,1.6,1.6,2.1c0-0.3-0.1-0.5-0.1-0.6S340.6,79,340.1,78.6z" class="st13 path148" style=""></path>
<path d="M356.6,61.1l2.3-1.4l-0.5-0.5L356.6,61.1z" class="st5 path114" style=""></path>
<path d="M281.5,31.6c-4.6-1.9-9.2-3.6-14-5.2l10,9.1L281.5,31.6z" class="st1 path26" style=""></path>
<path d="M281.7,39.2l2.7-4.3c0.5-0.8,1.2-1.6,2.3-0.8c1.1,0.7-0.5-0.5-0.8-0.6l-4.4-1.9l-3.9,3.9L281.7,39.2z" class="st1 path31" style=""></path>
<path d="M283.3,38.3c-0.4,0.5-0.7,1-1,1.6l22.6,20.6l9-9c-8.4-6.8-17.6-12.6-27.3-17.3l0,0
	C284.5,34.6,284.3,36.8,283.3,38.3z" class="st0 path9" style=""></path>
<path d="M284.4,34.9l-2.7,4.3l0.6,0.6c0.3-0.5,0.6-1.1,1-1.6c1-1.5,1.2-3.7,3.4-4.2l0,0
	C285.6,33.4,284.9,34.1,284.4,34.9z" class="st1 path35" style=""></path>
<path d="M318,72.4l3.1-7.3c2.2-5.2,2.2-5.2-1.8-9.4l0,0c-1.7-1.5-3.5-2.9-5.3-4.3l-9,9L318,72.4z" class="st0 path1" style=""></path>
<path d="M339.7,78.1c-3.8-4.8-8.5-6.3-14.5-3.6c-1.2,0.5-2.4,0.9-3.7,1.2l10.9,9.9L339.7,78.1z" class="st0 path10" style=""></path>
<path d="M240.2,20.6l-16.1,16l1.6,1.6c14.2,0.1,28.3,2.6,41.6,7.6l10.3-10.3l-10-9.1c-8.7-2.8-17.6-4.7-26.6-5.7H240.2z
	" class="st1 path28" style=""></path>
<path d="M276,49c1.6-3.4,3.5-6.7,5.7-9.8l-4.1-3.7l-10.3,10.3l6.2,2.5C274.3,48.6,275.2,48.8,276,49z" class="st1 path22" style=""></path>
<path d="M276.2,49L276.2,49c2.5-2.7,4.1-6,6.1-9.1l-0.6-0.6c-2.1,3.1-4,6.4-5.7,9.8H276.2z" class="st1 path34" style=""></path>
<path d="M294.6,59.9l6.3,4.6l4-4l-22.6-20.6c-2,3.1-3.6,6.4-6.1,9.1C282.2,52.8,288.7,55.8,294.6,59.9z" class="st0 path16" style=""></path>
<path d="M326.6,91.1l5.7-5.6l-10.9-9.9l-5.4,1.3c0.7-1.6,1.3-3,1.9-4.5l-13-11.9l-4,4C310.8,72,319.4,81,326.6,91.1z" class="st0 path11" style=""></path>
<path d="M326.6,91.1c7.6,10.8,13.4,22.8,17,35.5l14.6-14.7c-0.5-1.4-1.1-2.8-1.7-4.3l-24.2-22.1L326.6,91.1z" class="st0 path0" style=""></path>
<path d="M348.4,150.4l12.3,11.3l6.6-6.6c-0.6-8.5-1.8-16.9-3.6-25.2c-1.4-6.2-3.2-12.2-5.5-18.1l-14.6,14.7v0.2
	C345.8,134.5,347.5,142.4,348.4,150.4z" class="st0 path12" style=""></path>
<path d="M266.6,46.5l0.7-0.7c-13.3-4.9-27.4-7.5-41.6-7.6l0.9,0.9C240.3,39.2,253.8,41.7,266.6,46.5z" class="st14 path210" style=""></path>
<path d="M222.5,38.2l-0.9,0.9c1.7-0.1,3.3-0.1,5,0l-0.9-0.9H222.5z" class="st14 path207" style=""></path>
<path d="M225.7,38.2l-1.6-1.6l-1.6,1.6H225.7z" class="st1 path21" style=""></path>
<path d="M266.6,46.5c-12.8-4.8-26.3-7.3-39.9-7.4l24.8,22.6L266.6,46.5z" class="st14 path186" style=""></path>
<path d="M278.7,86.7L300.4,65c-6.2-4.8-12.9-9-20-12.6c-1.6-0.8-3.6-1.3-4.6-3.2c0.1,0,0.1,0,0.1-0.1v0
	c-1.3,0.8-2.6,0.1-3.7-0.4c-1.2-0.5-3.7-1.6-5.7-2.3l-15.1,15.2L278.7,86.7z" class="st14 path189" style=""></path>
<path d="M280.4,52.4c7,3.5,13.7,7.8,20,12.6l0.5-0.5l-6.3-4.6c-5.9-4.1-12.4-7.1-18.4-10.9l0,0l-0.3,0.2
	c0,0.1,0,0.1-0.1,0.1l0,0C276.8,51.2,278.8,51.6,280.4,52.4z" class="st14 path199" style=""></path>
<path d="M272.2,48.8c1.2,0.5,2.5,1.2,3.7,0.4c1.3-0.8,0.1-0.1,0.1-0.2c-0.9-0.2-1.7-0.4-2.6-0.7l-6.2-2.5l-0.7,0.7
	C268.5,47.1,270.4,48,272.2,48.8z" class="st14 path213" style=""></path>
<path d="M306,111.7l19.8-19.8c-7.1-10.2-15.7-19.2-25.4-26.9l-21.7,21.7L306,111.7z" class="st14 path183" style=""></path>
<path d="M300.9,64.5l-0.5,0.5c9.8,7.6,18.3,16.7,25.4,26.9l0.8-0.8C319.4,81,310.8,72,300.9,64.5z" class="st14 path200" style=""></path>
<path d="M333.4,136.7l9.6-9.6h-0.1c-3.8-12.5-9.5-24.4-17.1-35.1L306,111.8L333.4,136.7z" class="st14 path182" style=""></path>
<path d="M342.9,127L342.9,127l0.7-0.5c-3.6-12.7-9.3-24.6-17-35.4l-0.8,0.8C333.4,102.6,339.1,114.5,342.9,127z" class="st14 path202" style=""></path>
<path d="M347.6,149.7c-0.9-7.7-2.4-15.2-4.7-22.6l-9.6,9.6L347.6,149.7z" class="st14 path180" style=""></path>
<path d="M347.6,149.7l0.8,0.6c-1-8-2.6-15.9-4.8-23.6v-0.2l-0.6,0.5C345.2,134.5,346.7,142.1,347.6,149.7z" class="st14 path201" style=""></path>
<path d="M347.9,174.5l1.1-1.1c0.5-7.7,0.4-15.4-0.5-23.1l-0.8-0.6C348.6,158,348.7,166.3,347.9,174.5z" class="st14 path198" style=""></path>
<path d="M349,173.4l11.8-11.8l-12.3-11.3C349.3,158,349.5,165.7,349,173.4z" class="st0 path15" style=""></path>
<path d="M367.6,168c0.1-4.3,0-8.5-0.3-12.9l-6.6,6.6L367.6,168z" class="st0 path13" style=""></path>
<path d="M414.9,261.4c-2.8,1.6-5.8,1.4-9-1.1c-1.7-1.4-1.5,1.2-1.2,1.9c1.2,3.4-0.2,5.6-2.8,7.4
	c-0.7,0.5-1.7,0.9-1.6,2.4c2.1-0.4,4.2,0.1,5.8,1.4l10.4-10.5L414.9,261.4z" class="st9 path134" style=""></path>
<path d="M406.2,273.4c1.7,1.4,2.8,3.8,3.5,7c2-4.7,3.8-7.9,8.9-7.4c2.2,0.2,1.4-1.4,0.4-2.2c-2.6-2.1-3.4-4.7-2.2-7.8
	l-0.2-0.2L406.2,273.4z" class="st9 path133" style=""></path>
<path d="M416.5,260.4l-1.6,1l1.6,1.5l0.4-0.4c0.5-0.7,0.3-1.6-0.4-2C416.5,260.5,416.5,260.4,416.5,260.4z" class="st9 path131" style=""></path>
<path d="M240.2,20.6c-11.2-1.2-22.5-1.2-33.6,0.1l17.5,16L240.2,20.6z" class="st1 path32" style=""></path>
<path d="M349,173.4c-0.5,8.1-1.9,16.1-4.1,23.9l14.8,13.5c4.9-13.8,7.6-28.2,7.9-42.9l-6.8-6.3L349,173.4z" class="st0 path8" style=""></path>
<path d="M179.6,46.2c8.2-3.1,16.8-5.3,25.5-6.6c5.8-0.8,11.6-1.3,17.4-1.5l1.6-1.6l-17.5-16c-4,0.5-8,1.2-11.9,2
	c-3.9,0.8-8,1.8-11.9,3l-12.2,12.2L179.6,46.2z" class="st1 path23" style=""></path>
<path d="M180.4,46.9l17.4,16l23.8-23.8c-2.4,0-4.8,0.2-7.3,0.4C202.7,40.3,191.3,42.8,180.4,46.9z" class="st14 path187" style=""></path>
<path d="M214.3,39.5c2.5-0.2,4.9-0.4,7.3-0.4l0.9-0.9c-5.8,0.1-11.6,0.6-17.4,1.5c-8.7,1.2-17.3,3.4-25.5,6.6l0.8,0.6
	C191.3,42.8,202.7,40.3,214.3,39.5z" class="st14 path209" style=""></path>
<path d="M220.5,83.6h8.9l22-21.9l-24.8-22.6c-1.7-0.1-3.3-0.1-5,0l-23.8,23.8L220.5,83.6z" class="st14 path188" style=""></path>
<path d="M230.1,83.6h5.7c2.2-0.2,4.4-0.2,6.6,0.2l0,0c1.6,0.5,3.2,1.4,4.9,1.3c2.4,0.7,4.7,1.8,6.7,3.3l0,0
	c2.2,0.7,3.6,2.5,5.3,3.8c2.5,2.1,4.8,4.5,6.7,7.2l12.7-12.7l-27.3-25l-22,21.9H230.1z" class="st14 path173" style=""></path>
<path d="M275.3,119.9c1.3,5.1,2,10.4,2,15.7l2.6,2.3l26.2-26.2l-27.4-25L266,99.4C270.6,105.4,273.4,112.4,275.3,119.9
	z" class="st14 path171" style=""></path>
<path d="M302.8,158.9h0.9c2.6,0.1,5.5-0.5,7.9-0.5l21.7-21.7l-27.4-25l-26.2,26.2L302.8,158.9z" class="st14 path170" style=""></path>
<path d="M311.7,158.4c1.3,0,2.7,0.4,3.7,1.2c2.5,2.2,0.6,7.3,0.7,11.1v0.4l18.4,16.9l13.3-13.4
	c0.8-8.3,0.7-16.6-0.3-24.8l-14.2-13L311.7,158.4z" class="st14 path179" style=""></path>
<path d="M347.7,176.7c0.1-0.7,0.2-1.5,0.2-2.2l-13.3,13.4l9.3,8.5C345.7,190,347,183.4,347.7,176.7z" class="st14 path197" style=""></path>
<path d="M347.7,176.7c-0.7,6.7-2,13.3-3.8,19.7l1,0.9c2.2-7.8,3.6-15.8,4.1-23.9l-1.1,1.1
	C347.9,175.3,347.8,176,347.7,176.7z" class="st14 path205" style=""></path>
<path d="M182.7,25.7c-6.2,1.8-12.2,4.1-18.1,6.7l5.8,5.5L182.7,25.7z" class="st1 path18" style=""></path>
<path d="M152.6,49.1c0.3,0.6,1.5,1,0.9,2s-1.5,0.6-2.3,0.6h-6.3c-3.3,0.1-5.7,1.3-7.2,4.4c-0.2,0.5-0.5,0.9-0.6,1.3
	l7.2,6.7l26.2-26.1l-5.8-5.5c-6.1,2.8-12,5.9-17.6,9.5C148,45,151.1,46.3,152.6,49.1z" class="st1 path19" style=""></path>
<path d="M179.6,46.2l-9.1-8.3l-26.2,26.2l1.6,1.5C156,57.3,167.4,50.8,179.6,46.2z" class="st1 path33" style=""></path>
<path d="M146.7,66.3c10.1-8.2,21.5-14.8,33.7-19.4l-0.8-0.6c-12.2,4.6-23.6,11.1-33.6,19.3L146.7,66.3z" class="st14 path208" style=""></path>
<path d="M197.8,62.9l-17.4-16c-12.2,4.6-23.6,11.2-33.7,19.4l25,22.8L197.8,62.9z" class="st14 path156" style=""></path>
<path d="M185.4,101.7c1.4-2,2.8-3.9,4.4-5.8c1.6-1.9,3.1-2.8,4.7-4.3l0,0c1.4-1.8,3.7-2.3,5.4-3.7
	c1.9-1.4,4.1-2.4,6.5-2.8l0,0c1.7-1,3.7-0.8,5.6-1.4h8.7l-22.7-20.7l-26.2,26.2L185.4,101.7z" class="st14 path151" style=""></path>
<path d="M194.5,97.2c0,4.3,0.1,8.6,0,12.9l3.2,2.9c1.2,0,2.5,0.2,2.4-1.7c-0.1-7.8,0.5-15.6-0.3-23.4
	c-0.7,2.1-1,4.3-0.9,6.6c0,4.2,0.1,8.4,0.1,12.6c0,1.6,0.8,4.6-1.7,4.7c-2.6,0.1-1.8-2.8-1.9-4.5c-0.1-3.6,0-7.2,0-10.9
	c-0.1-1.6,0.3-3.3-0.9-4.7l0,0C194.4,93.5,194.5,95.3,194.5,97.2z" class="st22 path463" style=""></path>
<path d="M195.3,96.3c0,3.6-0.1,7.2,0,10.9c0.1,1.6-0.7,4.6,1.9,4.5c2.6-0.1,1.7-3,1.7-4.7c0-4.2-0.1-8.4-0.1-12.6
	c-0.1-2.2,0.2-4.4,0.9-6.6c-1.6,1.5-4,1.9-5.4,3.7C195.6,93,195.3,94.7,195.3,96.3z" class="st22 path462" style=""></path>
<path d="M194.5,97.2c0-1.9-0.1-3.7-0.1-5.7l0,0c-1.6,1.5-3.3,2.7-4.7,4.3c-1.4,1.6-3,3.8-4.4,5.8l9.1,8.4
	C194.6,105.8,194.5,101.5,194.5,97.2z" class="st15 path354" style=""></path>
<path d="M194.5,110.5c0,1.8,0.7,2.6,2.6,2.5h0.6l-3.2-2.9V110.5z" class="st22 path464" style=""></path>
<path d="M200.1,111.3c0.1,1.9-1.2,1.7-2.4,1.7l1.3,1.1l7.3-7.2V85c-2.3,0.4-4.6,1.4-6.5,2.8
	C200.6,95.7,200,103.4,200.1,111.3z" class="st15 path343" style=""></path>
<path d="M206.3,106.9l1.1-1.2v-16c-0.1-1.6,0.2-3.3-1.1-4.7l0,0V106.9z" class="st21 path454" style=""></path>
<path d="M207.4,89.6v16l3.5-3.5V88.4c0-1.6-0.2-3.4,1-4.7c-1.8,0.5-3.8,0.4-5.6,1.4l0,0
	C207.6,86.4,207.3,88.1,207.4,89.6z" class="st21 path452" style=""></path>
<path d="M209.1,113c1.9,0,2.9-0.3,2.9-2.6c0-2.4-0.1-6.1-0.1-9.2l-1.1,1.1v4.7c0,1.1,0,2.1-0.2,3.2
	c-0.2,0.8-0.5,1.6-1.6,1.6s-1.3-0.8-1.5-1.6c-0.2-1.1-0.3-2.1-0.2-3.2v-1.2l-1.1,1.2c0,1.1-0.1,2.3-0.1,3.5S207.1,113.1,209.1,113z" class="st21 path456" style=""></path>
<path d="M207.6,110.1c0.2,0.8,0.5,1.6,1.5,1.6s1.5-0.7,1.6-1.6c0.2-1.1,0.2-2.1,0.2-3.2v-4.7l-3.5,3.5v1.2
	C207.3,107.9,207.4,109,207.6,110.1z" class="st21 path453" style=""></path>
<path d="M218.2,94.8V83.6h-6.4c0.1,5.8,0,11.7,0.1,17.5L218.2,94.8z" class="st15 path347" style=""></path>
<path d="M210.8,88.4v13.9l1.1-1.1c-0.1-5.8,0-11.7-0.1-17.5C210.7,85,210.8,86.7,210.8,88.4z" class="st21 path455" style=""></path>
<path d="M218.2,83.6L218.2,83.6c1.3,1.4,1.1,3,1.1,4.7v5.5l3.5-3.5v-2c0.1-0.8,0-1.6,0.1-2.5l-2.4-2.2H218.2z" class="st21 path440" style=""></path>
<path d="M219.3,93.7v-5.5c0-1.6,0.2-3.3-1.1-4.7l0,0v11.2L219.3,93.7z" class="st21 path444" style=""></path>
<path d="M223.9,86.7v-3.1c-0.5,0.6-0.8,1.4-1,2.2L223.9,86.7z" class="st21 path446" style=""></path>
<path d="M223.9,83.6h-3.4l2.4,2.2C223,85,223.4,84.3,223.9,83.6z" class="st21 path441" style=""></path>
<path d="M218.2,110c-0.1,2.3,0.5,3.1,2.8,3.1c2.4,0,2.9-0.9,2.9-3.1c-0.1-6.9-0.1-13.9-0.1-20.8l-1.1,1.1v17.1
	c0.1,1,0,2.1-0.3,3.1c0,0.8-0.7,1.5-1.5,1.5c-0.8,0-1.5-0.7-1.5-1.5c-0.2-1-0.3-2.1-0.3-3.1V93.7l-1.1,1.1V110z" class="st21 path445" style=""></path>
<path d="M219.3,107.3c0,1,0,2.1,0.3,3.1c0,0.8,0.7,1.5,1.5,1.5c0.8,0,1.5-0.7,1.5-1.5c0.3-1,0.4-2.1,0.3-3.1V90.3
	l-3.5,3.5V107.3z" class="st21 path442" style=""></path>
<path d="M223.9,86.7l-1-0.9c-0.1,0.8,0,1.6-0.1,2.5v2l1.1-1.1L223.9,86.7z" class="st21 path443" style=""></path>
<path d="M225.2,87.9l4.3-4.3h-5.6v3.1L225.2,87.9z" class="st15 path340" style=""></path>
<path d="M224,110c0,2.2-0.5,3.1-2.9,3.1s-2.9-0.8-2.8-3.1V94.8l-6.3,6.3c0,3.1,0,6.2,0.1,9.2s-1,2.6-2.9,2.6
	s-2.9-0.4-2.9-2.6s0.1-2.4,0.1-3.5l-7.3,7.2l27.4,25l26.2-26.2l-5.2-4.7v2.3c0.1,1.6-0.2,2.7-2.2,2.6c-2-0.2-3.4,0.5-3.4-1.9v-8
	l-6-5.6v12.1c0,2.3-0.5,3.5-3.1,3.5c-2.6,0-2.6-1.6-2.6-3.4V92.4l-4.9-4.5l-1.3,1.3C223.9,96.1,223.9,103,224,110z" class="st15 path344" style=""></path>
<path d="M225.2,87.9l-1.3-1.2v2.5L225.2,87.9z" class="st15 path342" style=""></path>
<path d="M230.1,92.4v-8.8h-0.6l-4.3,4.3L230.1,92.4z" class="st15 path355" style=""></path>
<path d="M231.4,88.2c-0.1-1.6,0.2-3.3-1.3-4.6v8.8l1.3,1.2V88.2z" class="st22 path449" style=""></path>
<path d="M234.8,88.4v8.3l0.9,0.8V83.6C234.6,85,234.8,86.7,234.8,88.4z" class="st22 path450" style=""></path>
<path d="M231.4,88.2v5.4l3.5,3.1v-8.3c0-1.6-0.2-3.4,0.9-4.7h-5.7C231.5,84.9,231.3,86.5,231.4,88.2z" class="st22 path448" style=""></path>
<path d="M230.1,109.7c0,1.8-0.2,3.4,2.6,3.4c2.7,0,3.1-1.2,3.1-3.5V97.5l-0.9-0.8V107c0.1,1.2-0.1,2.3-0.4,3.5
	c-0.1,0.7-0.7,1.2-1.5,1.2c-0.9,0-1.3-0.5-1.5-1.4c-0.2-1-0.2-2.1-0.2-3.1V93.6l-1.3-1.2L230.1,109.7z" class="st22 path451" style=""></path>
<path d="M231.4,107.1c0,1,0,2.1,0.2,3.1c0.2,0.8,0.5,1.4,1.5,1.4c0.7,0.1,1.4-0.5,1.5-1.2c0.3-1.1,0.4-2.3,0.4-3.5
	V96.7l-3.5-3.1L231.4,107.1z" class="st22 path447" style=""></path>
<path d="M235.7,97.5l6,5.6c0-6.1,0-12.2,0.1-18.3c0.1-0.3,0.2-0.7,0.5-0.9c-2.2-0.3-4.4-0.4-6.6-0.2V97.5z" class="st15 path353" style=""></path>
<path d="M241.8,103l0.8,0.7c0-6.7,0.4-13.3-0.3-20l0,0c-0.2,0.3-0.4,0.6-0.5,0.9C241.8,90.8,241.8,96.9,241.8,103z" class="st23 path459" style=""></path>
<path d="M242.6,103.8l3.6,3.3l0,0V89.7c0-1.6-0.2-3.4,1.1-4.7c-1.7,0.1-3.3-0.8-4.9-1.3l0,0
	C242.9,90.5,242.6,97.1,242.6,103.8z" class="st23 path457" style=""></path>
<path d="M246.1,89.7V107l0,0l1.2,1.1c0-7.7-0.1-15.4-0.1-23.1C246,86.4,246.1,88.1,246.1,89.7z" class="st23 path460" style=""></path>
<path d="M246,110.1c-0.2,0.8-0.5,1.6-1.6,1.6c-1-0.1-1.4-0.6-1.6-1.6c-0.2-1.3-0.3-2.5-0.3-3.8v-2.5l-0.8-0.7v8
	c0,2.5,1.9,1.7,3.4,1.9c1.5,0.2,2.3-0.9,2.2-2.6v-2.3l-1.2-1.1C246.2,108.1,246.1,109.1,246,110.1z" class="st23 path461" style=""></path>
<path d="M242.9,110.1c0.2,0.9,0.5,1.6,1.6,1.6s1.4-0.7,1.6-1.6c0.2-1,0.2-2,0.2-3l-3.6-3.3v2.5
	C242.6,107.5,242.7,108.8,242.9,110.1z" class="st23 path458" style=""></path>
<path d="M252.5,112.9l1.1-1.1c-0.1-0.4-0.2-0.9-0.1-1.4c0.4-7.4-0.5-14.8,0.5-22.1l0,0c-2-1.5-4.3-2.6-6.7-3.3
	c0,7.7,0.1,15.4,0.1,23.1L252.5,112.9z" class="st15 path352" style=""></path>
<path d="M254.6,101.2c0.1,2.4-0.1,4.7,0,7c0,0.8,0,1.7,0.2,2.5l3.3-3.4c0.1-3.6,0-7.2,0.1-10.9c0-1.5-0.2-3.1,1.1-4.3
	c-1.6-1.4-3.1-3.1-5.3-3.8C255.3,92.6,254.3,96.9,254.6,101.2z" class="st21 path465" style=""></path>
<path d="M253.5,110.4c-0.1,0.5,0,0.9,0.1,1.4l1.2-1.1c-0.2-0.8-0.2-1.6-0.2-2.5c-0.1-2.4,0.1-4.7,0-7
	c-0.3-4.3,0.6-8.7-0.6-12.9l0,0C253,95.7,253.9,103,253.5,110.4z" class="st21 path468" style=""></path>
<path d="M256.4,111.6c2,0,1.6-2,1.6-3.3v-1l-3.3,3.4C255,111.4,255.7,111.8,256.4,111.6z" class="st21 path466" style=""></path>
<path d="M256.4,113c2.3,0.2,2.8-0.6,2.8-2.7c0-2.1-0.1-2.7-0.1-4l-1.1,1.1v1c0,1.3,0.4,3.3-1.6,3.3
	c-0.7,0.2-1.4-0.2-1.6-0.9l-1.2,1.1C254,112.9,255.1,113,256.4,113z" class="st21 path467" style=""></path>
<path d="M258.1,107.3l1.1-1.1c0-4.7,0.1-9.3,0.1-14c-1.3,1.2-1.1,2.8-1.1,4.3C258.1,100.1,258.2,103.7,258.1,107.3z" class="st21 path469" style=""></path>
<path d="M259.3,110.2c0,2.1-0.5,2.9-2.8,2.7c-2.3-0.2-2.5-0.1-2.8-1.2l-1.1,1.1l24.8,22.7c0-5.3-0.7-10.6-2-15.7
	c-1.9-7.5-4.7-14.5-9.3-20.5l-6.8,6.8C259.2,107.5,259.2,108.9,259.3,110.2z" class="st15 path349" style=""></path>
<path d="M259.2,106.2l6.8-6.8c-2-2.7-4.2-5.1-6.7-7.2C259.3,96.9,259.2,101.6,259.2,106.2z" class="st15 path348" style=""></path>
<path d="M226.3,139.1l21.3,19.5c0.4-0.6,1.2-0.9,1.9-0.8h10.3l15.6-15.6l-1.3,0.2c-11.6-0.2-23.1-0.2-34.6,0
	c-3.2,0-2.6-1.8-2.6-3.6c0.1-1.8-0.7-4,2.6-3.8c5.7,0.3,11.6,0.1,17.3,0.1c5.7,0,11.3,0.1,16.9-0.1c2.6-0.1,3.3,0.9,3,3.3
	c-0.1,0.8,0.1,1.8,0,2.6l0.5-0.5v-2.1c0-0.9,0-1.8-0.1-2.7l-24.8-22.6L226.3,139.1z" class="st15 path350" style=""></path>
<path d="M277,138.2c0.3-2.4-0.4-3.4-3-3.3c-5.6,0.2-11.2,0.1-16.9,0.1c-5.7,0-11.6,0.2-17.3-0.1
	c-3.4-0.2-2.6,2-2.6,3.8c0,1.8-0.6,3.6,2.6,3.6c11.5-0.2,23-0.2,34.6,0l1.3-0.2l1.5-1.4C277,140.1,276.9,139.1,277,138.2z" class="st18 path488" style=""></path>
<path d="M253.8,164l6.1-6.1h-10.3c-0.7-0.1-1.5,0.2-1.9,0.8l5.8,5.4L253.8,164z" class="st19 path494" style=""></path>
<path d="M274.9,157.8c2.8,0,1.8,2.1,2,3.5s-0.1,2.9-2.4,2.8c-4.2-0.2-8.4-0.1-12.6-0.1h-8.2v0.2l11.4,10.4
	c3.2,0,6.4,0.1,9.6-0.1c3.2-0.2,2.3,1.6,2.3,3.2s0.3,3.2-2.4,3.2H272l5.5,5.1c0.1-15.1,0-30.3,0-45.4L277,141
	c-0.1,0.7-0.7,1.3-1.5,1.4L260,157.9L274.9,157.8z" class="st15 path356" style=""></path>
<path d="M262,164c4.2,0,8.4-0.1,12.6,0.1c2.3,0.1,2.6-1.1,2.4-2.8c-0.2-1.7,0.8-3.5-2-3.5h-15l-6.1,6.1L262,164z" class="st19 path492" style=""></path>
<path d="M274.6,180.8c2.6,0,2.5-1.5,2.4-3.2c-0.1-1.7,0.5-3.3-2.3-3.2c-2.7,0.1-6.4,0.1-9.6,0.1l6.8,6.2L274.6,180.8z" class="st26 path491" style=""></path>
<path d="M277.4,185.8l3.6,3.3l6.7-6.7h-1.4c-2,0-2.5-0.5-2.6-2.6c-0.2-9.6-0.2-9.5,9.3-9.6h6.8l1.6-1.6
	c0-2.6,0-5.1-0.1-7.7c-0.1-2.6,0.4-2,1.5-2l-23-21.2l-2.5,2.6C277.4,155.6,277.5,170.7,277.4,185.8z" class="st14 path185" style=""></path>
<path d="M294.3,171.3h-4.6c-4.6,0.1-4.7,0.3-4.7,4.8s0.1,4.9,3.9,5l9.8-9.8C297.3,171.5,295.7,171.2,294.3,171.3z" class="st15 path414" style=""></path>
<path d="M277.4,140.4l2.5-2.6l-2.6-2.3c0.1,0.9,0.1,1.8,0.1,2.7L277.4,140.4z" class="st14 path184" style=""></path>
<path d="M301.5,168.6l-1.6,1.6h1.6V168.6z" class="st14 path155" style=""></path>
<path d="M285,176.2c0-4.6,0.2-4.7,4.7-4.8h4.6c1.5-0.1,3,0.2,4.5,0l1.2-1.2h-6.8c-9.5,0.1-9.5,0-9.3,9.6
	c0.1,2,0.5,2.6,2.6,2.6h1.4l1.2-1.2C285.1,181.1,285,180.6,285,176.2z" class="st15 path417" style=""></path>
<path d="M301.3,170.6c-0.8,0.5-1.7,0.7-2.6,0.7l-9.8,9.8h1.3c3.6,0.1,7.4-0.6,11,0.5
	C299.9,178.1,299.9,174.2,301.3,170.6z" class="st15 path413" style=""></path>
<path d="M301.2,181.8L301.2,181.8l0.3,0.2v-11.5h-0.2C299.9,174.2,299.8,178.2,301.2,181.8z" class="st15 path418" style=""></path>
<path d="M301.3,170.6c0.1-0.2,0.1-0.4,0.2-0.5h-1.6l-1.2,1.2C299.6,171.3,300.5,171.1,301.3,170.6z" class="st15 path415" style=""></path>
<path d="M301.5,182.6l-0.3-0.7c-3.6-1.2-7.4-0.5-11-0.5h-1.3l-1.2,1.2L301.5,182.6z" class="st15 path416" style=""></path>
<path d="M301.4,160.9c0.1,2.6,0.1,5.1,0.1,7.7l1.1-1.1c0.4-4.3,0.5-6.2,2-7l-1.7-1.6
	C301.8,158.9,301.3,159.7,301.4,160.9z" class="st2 path373" style=""></path>
<path d="M310.1,160c-2.8-0.1-4.5-0.1-5.5,0.5l2.6,2.4L310.1,160z" class="st2 path370" style=""></path>
<path d="M302.6,167.5L302.6,167.5c0,1-0.3,1.9-0.7,2.7l-0.4,0.2v11.5c1.1,1.1,1,2.6,1,4c0,1.8,0.4,3.5,1.4,5
	c1.8-2.5,4.6-1.4,6.8-1c0.8,0,1.5,0.5,1.7,1.3c0.3-0.8,0.9-1.5,1.6-1.9c1.2-0.6,1.1-2,1.1-3.2c0.1-5.3,0.1-10.7,0.1-16l-8-7.4
	L302.6,167.5z" class="st2 path372" style=""></path>
<path d="M302.6,167.5l4.7-4.7l-2.6-2.4C303.1,161.3,302.9,163.2,302.6,167.5z" class="st2 path371" style=""></path>
<path d="M303.8,158.9h-0.9l1.7,1.6c1-0.5,2.6-0.5,5.5-0.5l1.6-1.6C309.2,158.4,306.3,159,303.8,158.9z" class="st2 path381" style=""></path>
<path d="M315.3,170.2v-6.6c0-2.5-1-3.6-3.6-3.6h-1.6l-2.8,2.8L315.3,170.2z" class="st2 path369" style=""></path>
<path d="M311.3,160.1h0.4c2.6-0.1,3.6,1.1,3.6,3.6v6.6l0.9,0.8v-0.4c-0.1-3.8,1.7-8.9-0.7-11.1
	c-1.1-0.8-2.4-1.2-3.7-1.2l-1.6,1.6L311.3,160.1z" class="st2 path378" style=""></path>
<path d="M301.5,170.5l0.4-0.2c0.5-0.8,0.7-1.8,0.7-2.7l0,0l-1.1,1.1L301.5,170.5L301.5,170.5z" class="st2 path380" style=""></path>
<path d="M315.2,186.2c0,1.2,0.1,2.6-1.1,3.2c-0.7,0.4-1.3,1.1-1.6,1.9c0.1,0.9,0.1,1.8,0,2.6v16l0.3-0.3
	c0-5.2,0-10.4,0.1-15.6c0-1.1-0.8-3,1.2-3.1c2-0.1,2.2-1.8,2.2-3.4c0.1-5.6,0.2-11,0-16.6l-0.9-0.8
	C315.3,175.5,315.3,180.9,315.2,186.2z" class="st2 path379" style=""></path>
<path d="M301.5,182.6L301.5,182.6c0.1,1.9,0,3.8-0.2,5.7c-0.2,1.9,0.7,2.7,2.3,3.2l0.3-0.5c-0.9-1.5-1.4-3.2-1.4-5
	c0-1.5,0.1-2.9-1-4L301.5,182.6L301.5,182.6z" class="st2 path377" style=""></path>
<path d="M310.7,190c-2.3-0.4-5-1.5-6.8,1h0.1c0.7-0.5,1.7-0.4,2.6-0.4c4.6,0.1,5.5-0.2,5.6,1.6c0.1-0.3,0.2-0.7,0.4-1
	C312.2,190.5,311.5,190,310.7,190z" class="st2 path382" style=""></path>
<path d="M303.6,191.5c-1.6-0.5-2.5-1.3-2.3-3.2c0.2-1.9,0.3-3.8,0.2-5.7l0,0l-13.8-0.2l-6.7,6.7l22.5,20.6V191.5z" class="st14 path160" style=""></path>
<path d="M303.6,209.7l1.1,1v-14.4c0.1-1.6,0-3.3-0.5-4.8c-0.1-0.1-0.1-0.2-0.2-0.4l-0.4,0.4V209.7z" class="st15 path235" style=""></path>
<path d="M304.7,196.3v14.4l3.6,3.4l3.5-3.5v-15.3c0-1,0-2,0.3-3c-0.1-1.7-1-1.5-5.6-1.6c-0.8,0-1.8-0.2-2.6,0.4
	c-0.7,0.5,0.1,0.3,0.2,0.4C304.6,193.1,304.8,194.7,304.7,196.3z" class="st15 path221" style=""></path>
<path d="M316.2,187.7c0,1.6,0.5,3.3-2.2,3.4c-2.6,0.1-1.2,2-1.2,3.1c-0.1,5.2-0.1,10.4-0.1,15.6l21.9-21.8l-18.4-16.9
	C316.3,176.6,316.3,182.1,316.2,187.7z" class="st14 path175" style=""></path>
<path d="M312.1,196.1c0,4.7,0,9.6,0.1,14.3l0.3-0.4v-16c0.1-0.9,0.1-1.8,0-2.6c-0.2,0.3-0.3,0.7-0.4,1
	C312.2,193.1,312.1,194.3,312.1,196.1z" class="st2 path384" style=""></path>
<path d="M311.8,210.6l0.4-0.3c-0.1-4.7-0.1-9.6-0.1-14.3c0-1.7,0.1-2.9,0-3.7c-0.2,1-0.3,2-0.3,3V210.6z" class="st15 path232" style=""></path>
<path d="M312.7,218.1l15,13.7c7.2-10.9,12.7-22.8,16.1-35.4l-9.3-8.5l-21.9,21.8V218.1z" class="st14 path167" style=""></path>
<path d="M308.3,214.1l3.5,3.1v-6.6L308.3,214.1z" class="st15 path225" style=""></path>
<path d="M311.8,210.6v6.6l0.4,0.4v-7.2L311.8,210.6z" class="st15 path234" style=""></path>
<path d="M312.4,217.8l0.3,0.3v-8.4l-0.3,0.3V217.8z" class="st2 path376" style=""></path>
<path d="M312.2,217.6l0.3,0.3V210l-0.3,0.4V217.6z" class="st2 path383" style=""></path>
<path d="M327.7,231.8l0.5,0.5c7.4-10.7,13-22.5,16.6-35l-1-0.9C340.4,209,335,220.9,327.7,231.8z" class="st14 path203" style=""></path>
<path d="M344.9,197.3c-3.6,12.5-9.2,24.3-16.6,35l7.4,6.7l21.2-21.2c1-2.4,1.9-4.7,2.8-7.1L344.9,197.3z" class="st0 path6" style=""></path>
<path d="M342.1,244.9c5.8-8.5,10.8-17.5,14.8-27l-21.2,21.2L342.1,244.9z" class="st0 path4" style=""></path>
<path d="M387.3,380.3c-2.6-0.1-3.3,0.7-3.3,3.2l8.7,7.9l11-11C398.2,380.4,392.8,380.5,387.3,380.3z" class="st3 path326" style=""></path>
<path d="M395,393.6c-0.1-1.1,0.2-2.2,0.9-3.1c1.8-2.1,5.9-0.5,9-0.7s5.7,0.1,8.1,2c3.3,2.4,4.7,6.7,3.5,10.6
	c-0.8,2.7-2.7,4.9-5.3,6l7.9,7.3c7.6-4.2,10.9-12.9,8.6-21.4c-2.3-8-9.6-13.6-18-13.8h-6.1l-11,11L395,393.6z" class="st3 path319" style=""></path>
<path d="M419,415.8h0.2l-7.9-7.3c-1.1,0.5-2.3,0.8-3.6,0.9c-3.5,0.2-6.8,0-10.3,0.1c-1.7,0.1-2.1-0.7-2.1-2.3
	c0-1.6,0-5.2,0-7.8h-0.1c0.1-1.8-0.3-3.9-0.2-5.7l-2.4-2.2l-8.6,8.7v33.6l9.8,8.9l1.5-1.6v-16.7c0-5.8,0.1-5.7,6-5.9
	c3.1-0.2,4.8,0.8,6,3.7c1.2,2.9,1.5,3.1,2.1,4.7l7.7-7.6C416.6,417.9,416.9,417,419,415.8z" class="st3 path320" style=""></path>
<path d="M384,383.7c0,5.5,0,10.9,0.1,16.4l8.6-8.7l-8.7-7.9V383.7z" class="st3 path325" style=""></path>
<path d="M384.1,433.8v6.7c0,6.5,0,8.2,3.5,8.6l6.3-6.3L384.1,433.8z" class="st3 path322" style=""></path>
<path d="M387.6,449c1.8,0.1,3.5,0.1,5.3,0c2.1,0,2.6-0.6,2.6-2.6v-2.4l-1.6-1.4L387.6,449z" class="st3 path323" style=""></path>
<path d="M415.8,440.1c4.6,9.3,4.6,9.3,15.8,8.7c-4.7-9.7-9.2-18.9-13.9-28c-0.3-0.4-0.5-0.9-0.6-1.4l-7.7,7.6
	L415.8,440.1z" class="st3 path324" style=""></path>
<path d="M395.4,444.1c0-1-0.1-1.9-0.1-2.9l-1.5,1.6L395.4,444.1z" class="st3 path321" style=""></path>
<path d="M122.8,39.9l-2.6,2.2l16.1,14.7l0.5-1c1.8-3.5,4.7-4.7,8.3-4.9c2.2-0.1,4.4,0.3,6.7-0.4
	c-0.6-2.3-2.3-3.5-3.6-4.9c-1.3-1.5-2.3-1.9-1.4-3.6c-1.7-0.8-2.1-2.1-1.5-4c1.1-3.6,1.8-7.4,2.8-11.6c-3.8,1.6-7.2,3-10.5,4.6
	c-1.8,0.8-3.4,1-5.2-0.3c-1.4-1-2.9-2-4.5-2.8l-4.7,4.8c0.1,1.5,0.3,3,0.5,4.5C124.1,38.6,123.8,39.1,122.8,39.9z" class="st6 path120" style=""></path>
<path d="M125.3,26c-2.1-1.5-2.5-0.5-2.3,1.4c0.2,1.8,0.3,3.5,0.5,5.3l4.7-4.8L125.3,26z" class="st6 path119" style=""></path>
<path d="M132.9,62.9c1.2-2,2.4-4,3.5-6.1l-16.1-14.7l-7.1,6.1c3.8,0.8,7,1.6,10.2,2.1c3.2,0.5,5.3,2.1,5.4,5.7l0,0
	C131.9,57.2,131.2,60.7,132.9,62.9z" class="st6 path121" style=""></path>
<path d="M137.7,56.2c1.6-3.1,3.9-4.3,7.2-4.4h6.3c0.8,0,1.8,0.2,2.3-0.6c0.5-0.8-0.6-1.4-0.9-2
	c-1.5-2.7-4.6-4.1-5.6-7.1c-0.9,1.7,0.5,2.6,1.4,3.6c0.8,1.1,2.9,2.6,3.6,4.9c-2.4,0.6-4.6,0.3-6.7,0.4c-3.6,0.2-6.5,1.5-8.3,4.9
	l-0.5,1l0.7,0.6C137.3,57.1,137.5,56.6,137.7,56.2z" class="st6 path122" style=""></path>
<path d="M144.3,64.1l-7.2-6.7c-1.3,2.4-2.7,4.6-4.2,7c-2.1-2.9-2.2-6.1-4.2-8.5c-6.3,5.5-12.1,11.7-17.3,18.3
	c-1.6,1.9-2.9,3.9-4.4,5.8l11.1,10.1L144.3,64.1z" class="st1 path17" style=""></path>
<path d="M137.1,57.5l-0.7-0.6c-1.1,2.1-2.3,4.1-3.5,6.1c-1.7-2.2-1-5.7-4.2-6.9l0,0c2,2.4,2.1,5.6,4.2,8.5
	C134.3,62,135.8,59.8,137.1,57.5z" class="st6 path123" style=""></path>
<path d="M139.5,71.1c2.1-2,4.2-3.8,6.4-5.6l-1.6-1.5l-26.2,26.2l2.6,2.4C126.1,84.8,132.5,77.6,139.5,71.1z" class="st1 path24" style=""></path>
<path d="M171.6,89.1l-25-22.8c-1.1,0.9-2.2,1.8-3.3,2.7c-8.4,7.1-15.7,15.3-21.9,24.3l24,21.9L171.6,89.1z" class="st14 path152" style=""></path>
<path d="M143.4,69c1.1-1,2.2-1.9,3.3-2.7l-0.7-0.7c-2.2,1.7-4.3,3.6-6.4,5.6c-7.1,6.4-13.4,13.7-18.9,21.5l0.8,0.7
	C127.6,84.3,135,76.1,143.4,69z" class="st14 path211" style=""></path>
<path d="M175.9,137.1V135c-0.1-12.2,2.9-23.3,9.5-33.3l-13.8-12.6l-26.2,26.2l27.4,25.1L175.9,137.1z" class="st14 path163" style=""></path>
<path d="M178.1,135.1l20.9-21l-1.3-1.1h-0.6c-1.8,0.2-2.6-0.6-2.6-2.5v-0.5l-9.1-8.4c-6.6,9.9-9.6,21.1-9.5,33.3
	L178.1,135.1z" class="st15 path346" style=""></path>
<path d="M175.9,135v2.2l1.4-1.4C176.8,135.6,176.3,135.3,175.9,135z" class="st18 path409" style=""></path>
<path d="M176,142.3L176,142.3c0-1.6-0.1-3.4-0.1-5.1l-3.1,3.2l3.2,2.9V142.3z" class="st14 path192" style=""></path>
<path d="M180.9,136.1h31c1.3,0.1,2.2,0.6,2.2,2.2s-0.7,2.3-2.3,2.5h-31c-1.6,0-3.6-0.3-4.8,1.3
	c12.1,0.1,24.2-0.1,36.3,0.2c3.3,0.1,3.2-1.5,3.2-3.8s-0.1-3.7-3.3-3.6c-11.3,0.2-22.7,0.1-34.1,0.1l-0.8,0.7
	C178.5,136,179.7,136.2,180.9,136.1z" class="st18 path411" style=""></path>
<path d="M212.2,135c3.2-0.1,3.4,1.3,3.3,3.6c-0.1,2.4,0.1,3.9-3.2,3.8c-12.1-0.3-24.2-0.1-36.3-0.2l0,0v1l15.8,14.4
	l10.5-0.2c2.7,0,2.6,1.4,2.6,3.1l21.4-21.5l-27.4-25l-20.9,21C189.5,135.1,200.9,135.1,212.2,135z" class="st15 path345" style=""></path>
<path d="M178.1,135.1h-2.2c0.4,0.4,0.9,0.7,1.4,0.8L178.1,135.1z" class="st18 path412" style=""></path>
<path d="M176,142.3c1.3-1.6,3.2-1.3,4.8-1.3h31c1.6-0.2,2.4-0.9,2.3-2.5s-0.9-2.1-2.2-2.2h-31c-1.2,0.1-2.5,0-3.6-0.4
	l-1.4,1.4c0,1.7,0.1,3.5,0.1,5.1L176,142.3z" class="st18 path410" style=""></path>
<path d="M204.9,160.8c0,1.8,0.3,3.3-2.6,3.3h-0.8l-1.4,1.3l27.4,25l26.3-26.2l-0.2-0.2h-3.8c-2.4,0.1-2.4-1.2-2.4-2.8
	c0-0.9,0.1-1.8,0.4-2.6L226.3,139l-21.4,21.5L204.9,160.8z M226.2,156.1c6.3-0.2,11.6,4.8,11.8,11.1c0,0.2,0,0.4,0,0.6
	c-0.1,6.5-5.4,11.8-12,11.7s-11.8-5.4-11.7-12C214.4,161.1,219.7,156,226.2,156.1C226.1,156.1,226.1,156.1,226.2,156.1L226.2,156.1z
	" class="st15 path341" style=""></path>
<path d="M226.1,179.5c6.5,0.1,11.8-5.1,11.9-11.6c0,0,0-0.1,0-0.1c0.1-6.5-5.2-11.9-11.7-12c-6.5-0.1-11.9,5.2-12,11.7
	C214.3,174.1,219.5,179.4,226.1,179.5C226.1,179.5,226.1,179.5,226.1,179.5z M226.5,161.9c3.1,0.1,5.7,2.7,5.7,5.8
	c-0.1,3.3-2.8,6-6.1,6.1c-3.3-0.1-5.9-2.9-5.8-6.2c0-3.2,2.6-5.8,5.7-5.8C226.2,161.8,226.4,161.8,226.5,161.9L226.5,161.9z" class="st21 path484" style=""></path>
<path d="M226.2,173.8c3.3-0.1,6-2.8,6.1-6.1c-0.1-3.1-2.6-5.7-5.7-5.8c-3.2-0.3-5.9,2.1-6.2,5.3c0,0.2,0,0.3,0,0.5
	C220.3,170.9,222.9,173.7,226.2,173.8z" class="st27 path495" style=""></path>
<path d="M249.7,164h3.8l-5.8-5.4c-0.3,0.9-0.4,1.7-0.4,2.6C247.3,162.9,247.3,164.1,249.7,164z" class="st19 path493" style=""></path>
<path d="M250,180.8c-2.7,0-2.5-1.7-2.6-3.6c-0.2-1.8,0.5-2.9,2.7-2.8c4,0.2,7.9,0.1,11.9,0.1h3.1l-11.4-10.4
	l-26.3,26.2l9.7,8.8c-0.1-1.7-0.3-3.3,2.6-3.3c11.5,0.2,23,0.2,34.6,0l0,0l3.1-3.1v-6.8l-5.5-5.1C264.6,180.6,257.3,180.7,250,180.8
	z" class="st15 path351" style=""></path>
<path d="M250.1,174.4c-2.3-0.1-2.8,0.8-2.7,2.8s-0.1,3.6,2.6,3.6c7.3-0.1,14.6-0.2,22-0.1l-6.8-6.2H262
	C258,174.5,254.1,174.6,250.1,174.4z" class="st26 path490" style=""></path>
<path d="M257.2,203.3h9.7l7.5-7.5l0,0c-11.6,0.2-23.1,0.2-34.6,0c-2.9,0-2.7,1.6-2.6,3.3l4.7,4.3
	C246.9,203.2,252,203.3,257.2,203.3z" class="st19 path486" style=""></path>
<path d="M281.1,189.1l-3.6-3.3v6.8L281.1,189.1z" class="st14 path177" style=""></path>
<path d="M274.4,203.3c3.6,0.1,2.5-2.3,2.6-4c0.1-1.7,0.4-3.6-2.6-3.6l-7.5,7.5L274.4,203.3z" class="st19 path487" style=""></path>
<path d="M277,199.3c-0.1,1.7,1,4.1-2.6,4h-7.6l-12,12l12.6,11.5h1.7c1.2,0,2.6-0.6,3.6,0.6l0,0
	c3.6-7.3,4.6-15.2,4.7-23.2c0-3.8,0.1-7.7,0.1-11.6l-3.1,3.1C277.3,195.8,277,197.4,277,199.3z" class="st15 path338" style=""></path>
<path d="M257.2,203.3c-5.2,0-10.3-0.2-15.4,0l13,11.9l12-12L257.2,203.3z" class="st15 path337" style=""></path>
<path d="M269.1,226.8h-1.7l1.2,1.1c1.4,0.1,2.8-0.1,4.1-0.5l0,0C271.8,226.1,270.3,226.8,269.1,226.8z" class="st18 path366" style=""></path>
<path d="M268.6,227.9l2.9,2.6l1.2-3.1C271.3,227.8,269.9,228,268.6,227.9z" class="st18 path359" style=""></path>
<path d="M277.3,204.3c-0.1,7.9-1.1,15.9-4.7,23.2l0,0l-1.2,3.1l10.7,9.8l21.4-21.4v-9.1l-22.5-20.6l-3.6,3.6
	C277.4,196.6,277.3,200.4,277.3,204.3z" class="st14 path157" style=""></path>
<path d="M297.5,254.3c4-7.2,6-15.2,6-23.4c0.1-4,0.1-8,0.1-12l-21.4,21.4L297.5,254.3z" class="st14 path196" style=""></path>
<path d="M304.7,210.7l-1.1-1v9.1l1.1-1.1V210.7z" class="st15 path237" style=""></path>
<path d="M304.7,217.8l3.6-3.6l-3.6-3.4V217.8z" class="st15 path222" style=""></path>
<path d="M304.7,217.8l-1.1,1.1c0,4,0,8-0.1,12c0,8.2-2,16.3-6,23.4l0.8,0.7c4.2-7.7,6.3-16.3,6.4-25L304.7,217.8z" class="st15 path239" style=""></path>
<path d="M304.7,217.8v12.3c0,8.7-2.2,17.3-6.4,25l5.4,4.9l2.1-3.1c-0.1-0.7,0.1-1.4,0.5-2c2.8-6.4,4.6-13.2,5.2-20.2
	c0.6-2,0.4-4,0.4-5.9v-11.6l-3.5-3.1L304.7,217.8z" class="st15 path226" style=""></path>
<path d="M312.7,230.2c0,1.7,0.3,3.6-0.5,5.2c-0.3,7.1-2.1,14.1-5.4,20.4c8.5-6.7,15-15,21-24l0,0l-15-13.7V230.2z" class="st14 path165" style=""></path>
<path d="M312.2,217.6l-0.4-0.4v11.6c0,1.9,0.3,3.9-0.4,5.9c-0.6,7-2.4,13.8-5.2,20.2c-0.4,0.6-0.5,1.3-0.5,2l0.4-0.5
	l0.6-0.5c3.2-6.3,5.1-13.3,5.4-20.4V217.6z" class="st15 path233" style=""></path>
<path d="M312.4,232.5c0.1,1,0,1.9-0.3,2.8c0.8-1.6,0.5-3.5,0.5-5.2v-12l-0.3-0.3L312.4,232.5z" class="st2 path374" style=""></path>
<path d="M312.4,232.5v-14.7l-0.3-0.3v17.8C312.5,234.4,312.6,233.5,312.4,232.5z" class="st2 path386" style=""></path>
<path d="M327.7,231.8c-5.9,8.9-12.5,17.3-21,24c-0.2,0.6-0.6,1.2-0.9,1.7l0,0c1.4-0.9,2.7-1.9,3.9-3
	c6.9-6.8,13.1-14.2,18.5-22.2L327.7,231.8L327.7,231.8z" class="st14 path204" style=""></path>
<path d="M303.7,260l0.6,0.5c0.5-1,1.1-2,1.6-3c0.5-1-0.1-0.4-0.1-0.6L303.7,260z" class="st15 path227" style=""></path>
<path d="M305.8,256.9c0,0.3,0.1,0.5,0.1,0.6l0,0c0.4-0.5,0.7-1.1,0.9-1.7l-0.6,0.5L305.8,256.9z" class="st15 path240" style=""></path>
<path d="M305.9,257.5L305.9,257.5c-0.5,1-1,2-1.6,3l5.2,4.7l26.2-26.2l-7.4-6.7c-5.5,8-11.7,15.4-18.5,22.2
	C308.6,255.6,307.3,256.6,305.9,257.5z" class="st0 path14" style=""></path>
<path d="M309.5,265.3l7.8,7.2c8.1-6.8,15.3-14.6,21.5-23.1l3.2-4.5l-6.4-5.8L309.5,265.3z" class="st0 path5" style=""></path>
<path d="M118.1,90.3L107,80.2c-7.5,10.4-13.5,21.7-17.9,33.7l2.8,2.6L118.1,90.3z" class="st1 path20" style=""></path>
<path d="M118.1,90.3l-26.2,26.3l12.1,11c3.6-12.5,9.2-24.2,16.6-34.9L118.1,90.3z" class="st1 path29" style=""></path>
<path d="M105.1,127.5c3.7-12.1,9.3-23.6,16.4-34.1l-0.8-0.7c-7.4,10.7-13,22.5-16.6,34.9l0.7,0.7L105.1,127.5z" class="st14 path206" style=""></path>
<path d="M145.5,115.3l-24-21.9c-7.1,10.5-12.7,22-16.4,34.1l-0.3,0.8l14.4,13.2L145.5,115.3z" class="st14 path158" style=""></path>
<path d="M139.3,158.8c3.3,0.2,6.6,0.2,9.8,0.1c1.7-0.1,2.3,0.5,2.3,2.2v0.7l21.5-21.5l-27.4-25.1l-26.3,26.3l19.1,17.4
	L139.3,158.8z" class="st14 path162" style=""></path>
<path d="M140.5,160.1c2,0,4,0.1,6-0.1c2-0.2,3.6,0.7,3.7,2.8l1.1-1v-0.7c0-1.6-0.5-2.3-2.3-2.2
	c-3.2,0.1-6.5,0.1-9.8-0.1h-1l1.4,1.2L140.5,160.1z" class="st2 path393" style=""></path>
<path d="M150.2,162.9c-0.2-2.1-1.4-2.9-3.7-2.8c-2.4,0.1-4,0.1-6,0.1h-0.8l6.9,6.4L150.2,162.9z" class="st2 path387" style=""></path>
<path d="M151.2,170.7v-0.2l0,0c-1.6-2.1-1-4.5-1-6.7v-0.9l-3.6,3.6L151.2,170.7z" class="st2 path388" style=""></path>
<path d="M150.2,163.8c0,2.3-0.5,4.7,1,6.7l0,0c0.1-0.1,0.1-0.2,0.1-0.3c0-2.8-0.1-5.7,0-8.4l-1.1,1L150.2,163.8z" class="st2 path396" style=""></path>
<path d="M151.3,170.2h14.8c1.7,0,2.3,0.5,2.4,2.4c0.4,7.8,0.5,9.4-4.6,9.7l10,9.2l2-2v-8.8l0,0c0-2,0-4,0.1-6.1V164
	l0,0v-20.7l-3.2-2.9l-21.5,21.5C151.2,164.6,151.3,167.4,151.3,170.2z" class="st14 path166" style=""></path>
<path d="M163.2,171.3c2.9,0,3.9,1.1,3.9,3.9c0,5.4,0,5.8-4.5,5.9l1.2,1.1c5-0.3,4.9-1.8,4.6-9.7
	c-0.1-1.8-0.6-2.4-2.4-2.4h-14.8v0.4C155.2,172.2,159.3,171.2,163.2,171.3z" class="st15 path423" style=""></path>
<path d="M167.2,175.3c0-2.8-1-3.9-3.9-3.9s-8,0.8-11.9-0.7c0.1,0.1,0.1,0.2,0.1,0.3l11.3,10.3
	C167.2,181.1,167.2,180.6,167.2,175.3z" class="st15 path421" style=""></path>
<path d="M191.8,157.7L176,143.3v14.4H191.8z" class="st15 path329" style=""></path>
<path d="M180.7,158.7h12.2l-1.1-1H176C177.3,158.8,179,158.7,180.7,158.7z" class="st18 path433" style=""></path>
<path d="M180.7,162.9h16.8l-4.6-4.2h-12.2c-1.6,0-3.4,0.2-4.7-1v6.3l0,0C177.3,162.7,179,162.9,180.7,162.9z" class="st18 path429" style=""></path>
<path d="M198.6,164l-1.2-1.1h-16.8c-1.6,0-3.4-0.2-4.7,1.1H198.6z" class="st18 path432" style=""></path>
<path d="M198.9,158.7c1,0,2.1,0,3.1,0.3c0.9,0.1,1.5,0.8,1.6,1.6c0.2,0.9-0.5,1.8-1.4,2c0,0-0.1,0-0.1,0
	c-1,0.2-2.1,0.3-3.1,0.3h-1.5l1.2,1.1h2.8l3.5-3.5c0-1.7,0.1-3.1-2.6-3.1l-10.5,0.2l1.1,1L198.9,158.7z" class="st18 path434" style=""></path>
<path d="M202,162.6c1-0.1,1.7-0.9,1.6-1.9c0,0,0-0.1,0-0.1c0-0.9-0.7-1.6-1.6-1.6c-1-0.2-2.1-0.3-3.1-0.3h-6l4.6,4.2
	h1.5C199.9,162.9,201,162.8,202,162.6z" class="st18 path430" style=""></path>
<path d="M202.3,164c2.9,0,2.6-1.5,2.6-3.3v-0.2l-3.5,3.5H202.3z" class="st18 path431" style=""></path>
<path d="M190.9,174.5l9.2-9.2l-1.5-1.4H176v10.6H190.9z" class="st15 path328" style=""></path>
<path d="M180.7,175.6h9.1l1.1-1.1H176C177.4,175.7,179,175.6,180.7,175.6z" class="st20 path437" style=""></path>
<path d="M180.8,179.8h4.9l4.1-4.2h-9.1c-1.6,0-3.3,0.1-4.7-1.1c-0.1,2.1-0.1,4.1-0.1,6.1l0,0
	C177.4,179.6,179.1,179.8,180.8,179.8z" class="st20 path436" style=""></path>
<path d="M184.8,180.6l0.9-0.8h-4.9c-1.6,0-3.4-0.2-4.8,0.8H184.8z" class="st20 path439" style=""></path>
<path d="M175.9,180.6v8.8l8.8-8.8H175.9z" class="st15 path330" style=""></path>
<path d="M178.7,195.9c11.4,0,22.8,0.1,34.1-0.1c3.6-0.1,2.6,2.2,2.6,3.9c0.1,1.7,0.2,2.1-0.3,2.8l12.2-12.2l-27.4-25
	l-9.2,9.2H202c2.5,0,3,0.7,2.9,3c-0.1,2.3-0.1,3.5-2.9,3.4c-5.7-0.2-11.5-0.2-17.2-0.2l-8.8,8.8v3.8L178.7,195.9z" class="st15 path334" style=""></path>
<path d="M198.6,175.6c1.1,0,2.1,0,3.2,0.2c1.1,0.2,1.7,0.7,1.7,1.8c0.1,1-0.7,1.9-1.6,2c-1.1,0.2-2.2,0.1-3.2,0.2h-13
	l-0.9,0.8c5.7,0,11.5,0,17.2,0.2c2.8,0.1,2.8-1.3,2.9-3.4c0.1-2.1-0.5-3-2.9-3h-11.1l-1.1,1.1L198.6,175.6z" class="st20 path438" style=""></path>
<path d="M198.7,179.8c1-0.1,2.1,0,3.2-0.2c1-0.1,1.7-1,1.6-2c0-1.1-0.6-1.6-1.7-1.8c-1.1-0.2-2.1-0.2-3.2-0.2h-8.8
	l-4.1,4.2L198.7,179.8z" class="st20 path435" style=""></path>
<path d="M175.9,189.5l-2,2l2,1.8V189.5z" class="st14 path190" style=""></path>
<path d="M180.4,196.8h16.5c4.9,0.1,9.8-0.1,14.9,0.1c1.6,0.1,2.5,1,2.5,2.7c0.2,1.3-0.8,2.5-2.1,2.6
	c-0.1,0-0.3,0-0.4,0h-26l1,0.9h26.1c0.7,0.1,1.3-0.1,1.9-0.4l0.5-0.5c0.5-0.7,0.3-1.7,0.3-2.8s0.9-4-2.6-3.9
	c-11.3,0.2-22.7,0.1-34.1,0.1l1,0.9L180.4,196.8z" class="st19 path405" style=""></path>
<path d="M208.6,202.3h3.2c1.3,0.1,2.4-0.9,2.5-2.2c0-0.2,0-0.3,0-0.5c0-1.8-0.8-2.7-2.5-2.7c-5-0.2-9.9,0-14.9-0.1
	h-17.1l6,5.6H208.6z" class="st19 path403" style=""></path>
<path d="M186.8,203.3l14.5,13.2l13.5-13.5c-0.6,0.3-1.3,0.4-1.9,0.4L186.8,203.3z" class="st15 path333" style=""></path>
<path d="M200.1,165.3l1.4-1.3h-2.8L200.1,165.3z" class="st15 path327" style=""></path>
<path d="M214.8,203l-13.5,13.5l11.2,10.3h30.9l11.4-11.5l-13-11.9h-1.9c-3.4,0.2-2.7-2-2.7-3.9v-0.4l-9.7-8.8
	l-12.2,12.2C215.1,202.7,214.9,202.8,214.8,203z" class="st15 path331" style=""></path>
<path d="M239.8,203.3h1.9l-4.7-4.3v0.4C237.1,201.3,236.5,203.5,239.8,203.3z" class="st19 path485" style=""></path>
<path d="M242.2,227.9l1.2-1.1h-30.9l1.3,1.1H242.2z" class="st18 path367" style=""></path>
<path d="M228.6,241.5l13.6-13.6h-28.4L228.6,241.5z" class="st18 path362" style=""></path>
<path d="M254.8,215.3l-11.4,11.5h24L254.8,215.3z" class="st15 path335" style=""></path>
<path d="M268.2,227.9h0.4l-1.2-1.1h-24l-1.2,1.1H268.2z" class="st18 path365" style=""></path>
<path d="M268.2,227.9h-26l-13.6,13.6l15.2,14c13.6-3.1,22.2-12.5,27.6-24.9l-2.9-2.6L268.2,227.9z" class="st18 path358" style=""></path>
<path d="M243.9,255.4l12.1,11l26.2-26.2l-10.7-9.8C266,242.9,257.4,252.3,243.9,255.4z" class="st14 path193" style=""></path>
<path d="M282.2,240.3L256,266.4l10.6,9.7l4,0.6l0,0l2.1-0.6l17-20.9c0.7,2.7,1.4,4.8,2,6.9h0.2c2.2-2.4,4-5,5.7-7.8
	L282.2,240.3z" class="st14 path181" style=""></path>
<path d="M274.1,275.2c5.3-5.6,9.5-12,15-17.4c1.4,1.3,0.4,4.1,2.6,4.4c-0.6-2.1-1.3-4.2-2-6.9l-17,20.9l0,0
	L274.1,275.2z" class="st24 path471" style=""></path>
<path d="M291.6,262.2c-2.2-0.3-1.2-3.1-2.6-4.4c-5.5,5.4-9.7,11.9-15,17.4c6.2-3.7,12.1-8,17.5-12.9l0,0L291.6,262.2z" class="st24 path470" style=""></path>
<path d="M273.8,275.7c7-2.8,13.2-7.4,17.9-13.3c-5.4,4.9-11.3,9.2-17.5,12.9L273.8,275.7z" class="st24 path472" style=""></path>
<path d="M270.6,276.7L270.6,276.7l-4-0.6l1,1L270.6,276.7z" class="st25 path476" style=""></path>
<path d="M272.7,276.1l-2.1,0.6l0,0l-1.5,0.6h0.8c1,0.1,1.9-0.2,2.7-0.7l1.1-1.1L272.7,276.1L272.7,276.1z" class="st15 path236" style=""></path>
<path d="M267.6,277.1l0.2,0.2h1.4l1.5-0.6L267.6,277.1z" class="st25 path480" style=""></path>
<path d="M303.7,260l-5.4-4.9l-2.2,3.6c-0.8,1.5-2,2.7-3.4,3.6h-0.9l-0.2,0.2l0,0c-4.7,6-10.8,10.6-17.9,13.3l-1.1,1.1
	c-0.8,0.6-1.8,0.8-2.7,0.7h-0.8l-0.9,0.3l6.8,6.3c5.3-2.1,10.3-4.9,14.9-8.5c1.1-0.8,1.9-2.2,3.6-1.8c0-0.4,0.1-0.7,0.4-1
	C297.4,268.7,300.7,264.4,303.7,260z" class="st15 path223" style=""></path>
<path d="M291.8,262.2h0.9c1.4-0.9,2.6-2.1,3.4-3.6l2.2-3.6l-0.8-0.7C295.9,257.1,294,259.8,291.8,262.2z" class="st15 path238" style=""></path>
<path d="M293.8,272.6c-0.3,0.3-0.4,0.6-0.4,1l0.4,0.2l0,0c3.7-4.3,7.6-8.5,10.5-13.3l-0.6-0.5
	C300.7,264.4,297.4,268.6,293.8,272.6z" class="st15 path228" style=""></path>
<path d="M289.9,275.5c-4.5,3.5-9.5,6.4-14.9,8.5l0.8,0.7c2.4-1,4.7-2.1,7-3.4c3.7-2.1,6.9-4.9,10.5-7.2
	c0-0.2,0-0.3,0.1-0.5C291.8,273.3,291,274.7,289.9,275.5z" class="st15 path229" style=""></path>
<path d="M293.8,273.8c0.8,0.7,0.8,1.9,0.9,2.9c0.1,0.9,0.3,1.8,0.5,2.7l14.2-14.2l-5.2-4.7
	C301.4,265.4,297.6,269.5,293.8,273.8z" class="st0 path3" style=""></path>
<path d="M293.8,273.8L293.8,273.8l-0.5,0.3v0.2c0.3,2,0.8,3.9,1.4,5.8l0,0l0.5-0.6c-0.3-0.9-0.5-1.8-0.5-2.7
	C294.6,275.7,294.6,274.6,293.8,273.8z" class="st4 path78" style=""></path>
<path d="M295.3,279.5l-0.5,0.6c0.9,3.4,2.7,4.5,6.7,4.3C298.2,283.8,296.2,282.1,295.3,279.5z" class="st4 path79" style=""></path>
<path d="M295.3,279.5c0.9,2.6,2.9,4.3,6.2,4.9l0,0l2.6-1.9c4.6-3.1,9.1-6.5,13.3-10l-7.8-7.2L295.3,279.5z" class="st0 path7" style=""></path>
<path d="M294.7,280.1c-0.6-1.9-1.1-3.9-1.4-5.8v-0.2c-3.6,2.3-6.7,5.1-10.5,7.2c-2.3,1.3-4.6,2.4-7,3.4l7.5,6.8
	L294.7,280.1z" class="st4 path75" style=""></path>
<path d="M294.7,280.1l-11.4,11.4l16.2,14.9c0.8-0.8,1.7-1.5,2.7-2c6.5-3.7,12.8-7.8,19.6-11.9l-20.4-8.1l0,0
	C297.5,284.6,295.6,283.5,294.7,280.1z" class="st4 path74" style=""></path>
<path d="M321.5,380.3c-2.1,0.1-2.6,0.7-2.6,2.6c0.1,7.5,0.1,14.9,0.1,22.2l0,0v7.5l11.2-11.2v-12.7c0-1.8,0-3.2-0.1-4.3
	l-4.6-4.2L321.5,380.3z" class="st3 path93" style=""></path>
<path d="M325.6,380.3l4.6,4.2C330,381.2,329.1,380.4,325.6,380.3z" class="st3 path91" style=""></path>
<path d="M330.4,425.8c-0.1-8.1-0.1-16.2-0.1-24.3l-11.2,11.2v11.9l21.2,19.3l3.8-3.9
	C336.2,439.9,330.5,434.3,330.4,425.8z" class="st3 path96" style=""></path>
<path d="M319.1,424.6c0.1,0.8,0.1,1.7,0.1,2.6c0,6.8,3.2,13.2,8.7,17.3c2.3,1.8,4.8,3.3,7.6,4.4l4.9-4.9L319.1,424.6z" class="st3 path90" style=""></path>
<path d="M335.4,448.8c3.8,1.4,7.8,1.9,11.8,1.4l-6.8-6.3L335.4,448.8z" class="st3 path92" style=""></path>
<path d="M358.5,425.7c-0.4,7.9-4.8,13.2-11.5,14.2h-2.8l-3.8,3.9l6.8,6.3c3.1-0.4,6-1.3,8.8-2.6
	c9.5-4.4,13.7-12.5,13.8-22.8v-4.1l-3.3-3L358.5,425.7z" class="st3 path95" style=""></path>
<path d="M358.5,425.7l8-7.9l-7.9-7.3c0,4.8,0,9.6-0.1,14.4L358.5,425.7z" class="st3 path97" style=""></path>
<path d="M366.5,417.7l3.3,3v-6.4L366.5,417.7z" class="st3 path94" style=""></path>
<path d="M369.8,414.3v-27.5c0-6.4,0-6.4-6.5-6.4c-4.7,0-4.7,0-4.7,4.6v25.4l7.9,7.3L369.8,414.3z" class="st3 path98" style=""></path>
<path d="M46.1,110c-0.5-3.3,0.8-6.7,3.6-10.4c-6.4,2-11.7,3.6-15.4-2.3c-0.3-0.5-0.8-1.4-1.6-0.8
	c-0.4,0.4-0.6,1-0.5,1.6c0.9,4.9-1.3,7.8-4.6,9.8l10.8,9.9L46.1,110z" class="st8 path130" style=""></path>
<path d="M27.6,107.8c-0.9,0.5-1.9,1-2.9,1.5c-0.4,0.2-0.9,0.3-0.8,1.5c6.4,0.8,9.8,4.6,10.4,11.1l4.1-4.1L27.6,107.8z" class="st8 path128" style=""></path>
<path d="M38.6,117.9l-0.3-0.2l-4.1,4.1c0,0.5,0,0.9,0.1,1.4C35.3,121.1,36.8,119.3,38.6,117.9z" class="st8 path129" style=""></path>
<path d="M38.6,117.9c3-2.1,6.8-2.3,11.4-1c-2-1.8-3.4-4.3-3.9-6.9l-7.8,7.8L38.6,117.9z" class="st8 path127" style=""></path>
<path d="M89.1,113.9c-1,2.6-1.9,5.4-2.7,8.1l5.6-5.5L89.1,113.9z" class="st1 path25" style=""></path>
<path d="M84.6,159.9l14.3-1.6l0,0c0.5-10.4,2.2-20.8,5.1-30.8l-12.1-11l-5.6,5.5c-3.3,11.2-5.2,22.8-5.6,34.5
	L84.6,159.9z" class="st1 path30" style=""></path>
<path d="M100.1,155.2c0.9-9.1,2.1-18.1,4.7-26.9l-0.7-0.7c-2.9,10-4.6,20.4-5.1,30.8h0.1
	C100,157.6,99.9,156.4,100.1,155.2z" class="st14 path212" style=""></path>
<path d="M99,158.7L99,158.7c-4.4,1.4-8.9,2.1-13.5,2l7.6,6.9l5.9-5.9C99.1,160.7,99,159.7,99,158.7z" class="st0 path45" style=""></path>
<path d="M100,160.8c0-0.8-0.3-1.7-0.9-2.3v0.2c0,1,0.1,2,0,3.1L100,160.8z" class="st14 path216" style=""></path>
<path d="M98.9,158.8L98.9,158.8l0.1-0.3l0,0L84.6,160l0.8,0.8C90,160.9,94.5,160.2,98.9,158.8z" class="st0 path50" style=""></path>
<path d="M119.2,141.5l-14.4-13.2c-2.6,8.8-3.8,17.8-4.7,26.9c-0.2,1.2-0.1,2.4-1,3.3c0.6,0.6,0.9,1.4,0.9,2.3
	L119.2,141.5z" class="st14 path159" style=""></path>
<path d="M99,161.8l-5.9,5.9l6.3,5.7C99.1,169.6,99,165.8,99,161.8L99,161.8z" class="st0 path46" style=""></path>
<path d="M100,163.7c0-0.9,0.1-2,0-2.9l-1,1l0,0c0,3.9,0.1,7.8,0.4,11.6l1.1,0.9C100.1,170.7,99.9,167.2,100,163.7z" class="st14 path218" style=""></path>
<path d="M136.4,176.7c0-5-0.1-9.9-0.2-14.9c0-1.9,0.5-2.8,2-2.9l-19.1-17.4L100,160.8c0.1,0.9,0,2,0,2.9
	c0,3.6,0.1,7.1,0.5,10.7l20,18.3L136.4,176.7z" class="st14 path169" style=""></path>
<path d="M137.5,163.1c0-1.7,0.6-2.7,2.1-3l-1.4-1.2c-1.6,0.1-2,1-2,2.9c0.1,4.9,0.2,9.8,0.2,14.9l1.1-1.2V163.1z" class="st2 path391" style=""></path>
<path d="M139.6,160.1c-1.5,0.3-2.1,1.3-2.1,3v12.4l9-9L139.6,160.1z" class="st2 path389" style=""></path>
<path d="M136.3,186.8c0.1-3.4,0.1-6.7,0.2-10l-16,16l19.5,17.9v-19.1C136.8,191.4,136.2,189.7,136.3,186.8z" class="st14 path178" style=""></path>
<path d="M139.9,191.5l0.3-0.4c-1.3-1.3-2.7-2.3-2.7-4.5c0.1-3.7,0.1-7.4,0.1-11.1l-1.1,1.2c-0.1,3.3-0.1,6.7-0.2,10
	C136.2,190.1,136.8,191.4,139.9,191.5z" class="st2 path395" style=""></path>
<path d="M147.1,190c1,0,1.7,0.9,1.7,1.8c0.6-3.2,1.6-6.3,2.1-9.5c0.1-0.2,0.2-0.2,0.4-0.3c-1.1-3.7-1.2-7.7-0.1-11.4
	l-4.7-4.2l-9,9c0,3.7,0,7.4-0.1,11.1c0,2.2,1.5,3.2,2.7,4.5C142,188.5,144.7,189.7,147.1,190z" class="st2 path390" style=""></path>
<path d="M147.1,190c-2.4-0.4-5.1-1.6-6.9,1.1h0.1c1.1-0.8,2.5-0.3,3.6-0.5c2.9-0.5,4.3,0.3,4.6,2.9
	c0.1-0.6,0.2-1.2,0.4-1.8C148.8,190.8,148,190.1,147.1,190z" class="st2 path398" style=""></path>
<path d="M149.1,194.5c0-1.1-0.6-2.7,0.5-3.2c1.2-0.5,1.5-2.3,1.6-3.6s0.1-3.6,0.2-5.3c-0.1-0.1-0.1-0.2-0.1-0.3
	c-0.2,0.1-0.3,0.1-0.4,0.3c-0.5,3.2-1.5,6.3-2.1,9.5c0,0.7-0.1,1.6-0.1,2.2v22.6l0.3-0.3C149,209.1,149.1,201.8,149.1,194.5z" class="st2 path392" style=""></path>
<path d="M148,199.1c0-1.8,0.2-3.6,0.5-5.4c-0.3-2.6-1.6-3.4-4.6-2.9c-1.2,0.2-2.6-0.4-3.6,0.5l0,0
	c0.9,1.6,0.7,3.5,0.7,5.2c0,5,0.1,10.1,0.1,15.1l6.7,6.1l0.5-0.5C148.2,211.2,148.2,205.2,148,199.1z" class="st15 path241" style=""></path>
<path d="M141,196.4c0-1.7,0.2-3.6-0.7-5.2l0,0l-0.4,0.3v19.1l1.2,1C141.1,206.5,141,201.4,141,196.4z" class="st15 path257" style=""></path>
<path d="M148.7,194c0-0.6,0.1-1.5,0.1-2.2c-0.2,0.6-0.3,1.2-0.4,1.8v1.4c-0.2,7.3-0.2,14.7-0.1,22.1l0.4-0.5V194z" class="st2 path400" style=""></path>
<path d="M151.4,182.4c-0.1,1.7-0.1,3.5-0.2,5.3s0.5,2.8-1.6,3.6c-2.1,0.8-0.5,2.1-0.5,3.2c0,7.3-0.1,14.6-0.1,21.9
	l24.9-24.9l-10-9.2L151.4,182.4L151.4,182.4z" class="st14 path194" style=""></path>
<path d="M151.4,182c1.4-0.9,2.9-0.7,4.5-0.8h6.8l-11.3-10.3C151.7,174.6,151.7,178.3,151.4,182z" class="st15 path422" style=""></path>
<path d="M151.4,170.9l-0.2-0.2c-1.1,3.7-1,7.7,0.1,11.4c0-0.1,0-0.1,0.1-0.1C151.7,178.3,151.7,174.6,151.4,170.9z" class="st15 path425" style=""></path>
<path d="M161.4,181.2h-5.6c-1.6,0.1-3.1-0.1-4.5,0.8v0.4h12.5l-1.2-1.1L161.4,181.2z" class="st15 path424" style=""></path>
<path d="M149,218.8l26.1,23.8l8-8c-1.2-2.4-2.3-4.9-3.1-7.5c-3.2-7.5-4.6-15.7-4.1-23.9l0,0v-9.9l-2-1.8L149,216.4
	V218.8z" class="st14 path195" style=""></path>
<path d="M175.9,193.3v2.6h2.8L175.9,193.3z" class="st15 path339" style=""></path>
<path d="M181,202.3h4.7l-6-5.6c-1.3,0.1-2.7-0.1-3.8-0.8v7.3l0,0C177.6,202.2,179.3,202.3,181,202.3z" class="st19 path404" style=""></path>
<path d="M178.7,195.9h-2.8c1.2,0.7,2.5,1,3.8,0.8L178.7,195.9z" class="st19 path407" style=""></path>
<path d="M185.8,202.3H181c-1.7,0-3.5-0.2-5.1,0.9h10.9L185.8,202.3z" class="st19 path406" style=""></path>
<path d="M183.5,226.8h7.6l10.2-10.3l-14.5-13.2h-10.9c-0.5,8.2,0.9,16.4,4.1,23.9C181.1,226.3,182.3,226.8,183.5,226.8
	z" class="st15 path336" style=""></path>
<path d="M185.6,227.9h4.3l1.2-1.1h-7.6c-1.2,0-2.4-0.5-3.5,0.4C181.8,228.1,183.8,227.9,185.6,227.9z" class="st18 path368" style=""></path>
<path d="M185.6,227.9c-1.8,0-3.7,0.2-5.6-0.7c0.8,2.6,1.9,5.1,3.1,7.5l6.7-6.7H185.6z" class="st18 path361" style=""></path>
<path d="M212.5,226.8l-11.2-10.3l-10.2,10.3H212.5z" class="st15 path332" style=""></path>
<path d="M213.8,227.9h-23.9l-6.7,6.7c3.3,6.1,7.9,11.3,13.5,15.4c4.9,3.8,10.9,6,17.1,6.3l14.9-14.9L213.8,227.9z" class="st18 path363" style=""></path>
<path d="M183.1,234.6l-8,8l27.4,25.1l11.3-11.4c-6.2-0.3-12.2-2.5-17.1-6.3C191.1,245.9,186.4,240.7,183.1,234.6z" class="st14 path164" style=""></path>
<path d="M189.9,227.9h23.9l-1.3-1.1h-21.4L189.9,227.9z" class="st18 path364" style=""></path>
<path d="M213.8,256.3h3.2c8.2-0.2,16.6,0.9,24.6-0.5l2.3-0.5l-15.2-14L213.8,256.3z" class="st18 path360" style=""></path>
<path d="M241.6,256c-8,1.4-16.4,0.3-24.6,0.5h-3.2l-11.3,11.4l7.7,6.9H248l8-8.1l-12.1-11L241.6,256z" class="st14 path153" style=""></path>
<path d="M238.9,275.7h-27.6l18.1,16.5h0.7l16.7-16.7L238.9,275.7z" class="st2 path261" style=""></path>
<path d="M241.2,274.7h-31.1l1.2,1.2h35.5l1.2-1.1L241.2,274.7z" class="st2 path265" style=""></path>
<path d="M255.7,275.3L255.7,275.3l10.9,0.8l-10.6-9.7l-8,8.1C250.6,274.5,253.2,274.8,255.7,275.3z" class="st14 path154" style=""></path>
<path d="M255.3,279.9l0.3-0.5c-0.6-1-0.7-2.3-0.3-3.4c-2.8-0.3-5.6-0.5-8.5-0.5l-16.7,16.7h25l-0.2-0.3
	c-0.2-1.1,0-2.2,0.5-3.2c0-0.1,0-0.1,0.1-0.1l0,0C253.9,285.9,254.4,282.9,255.3,279.9z" class="st2 path259" style=""></path>
<path d="M255.7,275.3c-2.6-0.5-5.1-0.8-7.8-0.7l-1.2,1.1c2.8,0,5.7,0.1,8.5,0.5C255.4,275.8,255.5,275.5,255.7,275.3
	L255.7,275.3z" class="st2 path266" style=""></path>
<path d="M255.5,279.5l-0.3,0.5c-0.8,2.9-1.4,5.9,0.3,8.8h0.1v-8.9C255.6,279.6,255.6,279.6,255.5,279.5z" class="st2 path267" style=""></path>
<path d="M255.6,279.7v8.9c2.2-1.2,4.6-1,6.9-1.4c4.3-0.6,8.5-1.7,12.5-3.3l-6.8-6.3
	C264.2,279.1,259.9,279.8,255.6,279.7z" class="st15 path224" style=""></path>
<path d="M255.7,279.4c0.5-0.3,1-0.6,1.6-0.6c3.2-0.3,6.5-0.8,9.7-1.6c-3.7-0.3-7.5-0.6-11.1-1.1
	C255.9,277.2,255.9,278.3,255.7,279.4z" class="st25 path474" style=""></path>
<path d="M255.7,279.4c0.2-1.1,0.2-2.2,0.1-3.3h-0.5c-0.5,1.1-0.4,2.4,0.3,3.4L255.7,279.4z" class="st25 path481" style=""></path>
<path d="M255.7,275.3c0,0.3,0,0.6,0.1,0.8c3.6,0.5,7.4,0.8,11.1,1.1h0.6l-1-1L255.7,275.3L255.7,275.3z" class="st25 path475" style=""></path>
<path d="M266.9,277.2c-3.2,0.7-6.4,1.2-9.7,1.6c-0.6,0.1-1.1,0.3-1.6,0.6c-0.1,0.1-0.1,0.2-0.1,0.3
	c4.3,0.1,8.6-0.6,12.6-2l-0.5-0.4L266.9,277.2z" class="st25 path477" style=""></path>
<path d="M255.8,276.1c-0.1-0.3-0.1-0.5-0.1-0.8c-0.2,0.3-0.3,0.5-0.5,0.8H255.8z" class="st25 path482" style=""></path>
<path d="M262.5,287.2c-2.4,0.4-4.7,0.2-6.9,1.4v0.2c6.9-0.2,13.8-1.5,20.2-4.1L275,284
	C271,285.5,266.8,286.6,262.5,287.2z" class="st15 path230" style=""></path>
<path d="M255.5,288.7C255.5,288.7,255.4,288.7,255.5,288.7L255.5,288.7c-0.7,1-0.9,2.2-0.6,3.3l0.2,0.3h0.5L255.5,288.7
	L255.5,288.7C255.6,288.7,255.6,288.7,255.5,288.7L255.5,288.7z" class="st2 path263" style=""></path>
<path d="M255.6,288.8L255.6,288.8v3.5l0,0c3,3.3,4.3,6.8,1.2,10.9l0,0c-1.4,3.5-2.8,6.8-4.3,10.4l4.6,4.2l26.3-26.2
	l-7.5-6.8C269.4,287.2,262.6,288.6,255.6,288.8z" class="st4 path73" style=""></path>
<path d="M299.6,306.4l-16.2-14.9l-26.3,26.2l3.1,2.8c2.8-0.7,5.6-1.5,8.3-2.4c4.8-1.6,8.6-1.4,12,2.6
	c1.7,1.8,3.5,3.5,5.6,4.9h0.5c0.8-0.1,1.6,0,2.5,0.1c6.5,0.5,7.6-1.1,7.2,5.2l0.5-0.5c0.5-6.3,1.1-12.7,1.1-19.1
	C297.8,309,298.4,307.6,299.6,306.4z" class="st4 path76" style=""></path>
<path d="M270.2,318.7c3.7-1.2,6.4-0.4,9.1,2.3c2.7,2.6,3.4,3.8,5.7,4.8h1c-2-1.4-3.9-3.1-5.6-4.9
	c-3.5-4-7.2-4.3-12-2.6c-2.7,0.9-5.5,1.6-8.3,2.4l0.7,0.6C264,320.5,267.1,319.6,270.2,318.7z" class="st16 path295" style=""></path>
<path d="M284.1,325.8h1c-2.4-1-4-3.1-5.7-4.8c-1.7-1.7-5.4-3.5-9.1-2.3c-3.7,1.2-6.2,1.7-9.3,2.5l5,4.7L284.1,325.8z" class="st16 path285" style=""></path>
<path d="M286.8,326.4c-0.6-0.1-1.2-0.3-1.7-0.5h-19.1l1.2,1h16C284.3,326.8,285.7,327.3,286.8,326.4z" class="st16 path288" style=""></path>
<path d="M295.4,327.5c-1.5-1.7-4.4-0.4-6.6-0.6l-2-0.5l0,0c-1.1,0.9-2.5,0.5-3.6,0.5h-16l17.3,15.9l11.7-11.6
	C296.2,329.7,296.2,328.4,295.4,327.5z" class="st2 path54" style=""></path>
<path d="M296.1,331.1l-11.7,11.6l2,1.8h1c2.6,0,6.2,0.9,7.8-0.5c1.6-1.4,0.5-5.3,0.6-8c0.1-0.5,0.1-1,0.1-1.5
	C295.9,333.4,296,332.2,296.1,331.1z" class="st2 path56" style=""></path>
<path d="M286.8,326.4L286.8,326.4l2,0.5c2.2,0.3,5.1-1.1,6.6,0.6c1.5,1.7,0.8,2.2,0.7,3.6v-0.2c0.4-6.3-0.7-4.7-7.2-5.2
	c-0.8-0.1-1.6-0.2-2.5-0.1H286C286.3,325.8,286.5,326,286.8,326.4L286.8,326.4z" class="st4 path80" style=""></path>
<path d="M296.1,331.1c-0.2,1.1-0.2,2.3-0.2,3.5c0.1-1.5,0.2-2.6,0.3-3.6L296.1,331.1z" class="st4 path81" style=""></path>
<path d="M80.8,156.5c-0.1,1.3-0.1,2.6-0.1,3.9l3.9-0.5L80.8,156.5z" class="st1 path27" style=""></path>
<path d="M85.5,160.8c-1.6,0-3.2-0.1-4.7-0.4c-0.2,6.3,0.1,12.6,0.7,18.9L93,167.7L85.5,160.8z" class="st0 path38" style=""></path>
<path d="M106.6,206.5c-4-10.6-6.4-21.8-7.3-33.1l-6.3-5.7l-11.6,11.6c1.4,12.4,4.3,24.5,8.8,36.1l3.9,3.5L106.6,206.5z" class="st0 path47" style=""></path>
<path d="M85.5,160.8l-0.8-0.8l-3.9,0.5C82.3,160.7,83.9,160.8,85.5,160.8z" class="st0 path49" style=""></path>
<path d="M100.4,174.3l-1.1-0.9c0.9,11.3,3.3,22.5,7.3,33.1l0.7-0.8C103.6,195.6,101.3,185.1,100.4,174.3z" class="st14 path219" style=""></path>
<path d="M100.4,174.3c0.9,10.7,3.2,21.3,6.9,31.4l13-13L100.4,174.3z" class="st14 path168" style=""></path>
<path d="M139.9,210.5l-19.5-17.9l-13,13c0.5,1.4,1,2.6,1.6,4c4.3,10.6,10,20.7,17.1,29.7l14-14V210.5z" class="st14 path161" style=""></path>
<path d="M125.2,240.2l0.7-0.7c-7-9.1-12.8-19.1-17.1-29.7c-0.5-1.4-1.1-2.6-1.6-4l-0.7,0.8c2.2,6,4.9,11.7,7.9,17.3
	C117.7,229.6,121.3,235,125.2,240.2z" class="st14 path217" style=""></path>
<path d="M149.1,262.3c-0.3-0.7-0.7-1.4-1.2-2.1c-5.2-8.8-8-18.9-8-29.2v-5.5l-14,14C132.6,248,140.4,255.7,149.1,262.3
	z" class="st14 path191" style=""></path>
<path d="M141,224.4l6.7-6.7l-6.7-6.1C141.1,215.8,141.1,220.1,141,224.4z" class="st15 path243" style=""></path>
<path d="M148.1,232.9c0-4.9,0.1-9.8,0.1-14.8l-0.5-0.5l-6.7,6.7v4.7c-0.2,10.2,2.3,20.4,7.2,29.4
	c0.6,1.3,1.8,2.5,1.4,4.1l0,0c1.1,0.7,2.1,1.6,2.9,2.6l5.2-5.1C151.8,252.3,148.4,242.7,148.1,232.9z" class="st15 path245" style=""></path>
<path d="M141.1,211.6l-1.2-1v15l1.1-1.1C141.1,220.1,141.1,215.8,141.1,211.6z" class="st15 path250" style=""></path>
<path d="M139.9,231c0,10.3,2.8,20.3,8,29.2c0.5,0.7,0.9,1.4,1.2,2.1l0.5,0.4c0.5-1.6-0.7-2.8-1.4-4.1
	c-4.9-9-7.4-19.1-7.2-29.4v-4.7l-1.1,1.1L139.9,231z" class="st15 path253" style=""></path>
<path d="M148.7,230v-11.3l-0.4-0.4v11.5c0,1.3-0.4,2.8,0.6,4C148.7,232.6,148.6,231.3,148.7,230z" class="st2 path402" style=""></path>
<path d="M148.7,216.7l-0.4,0.5v1.2l0.4,0.4V216.7z" class="st2 path401" style=""></path>
<path d="M149,233.8c-1-1.2-0.6-2.7-0.6-4v-11.5l-0.2-0.2c0,4.9-0.1,9.8-0.1,14.8c0.3,9.9,3.6,19.4,9.6,27.3l0.6-0.7
	C152.8,251.9,149.6,243.1,149,233.8z" class="st15 path254" style=""></path>
<path d="M149,218.8v15c0.6,9.3,3.8,18.1,9.3,25.6l16.8-16.8L149,218.8z" class="st14 path176" style=""></path>
<path d="M175.1,242.6l-16.8,16.8c7.8,10.8,19.5,18.2,32.6,19.9l11.6-11.6L175.1,242.6z" class="st14 path174" style=""></path>
<path d="M201.8,274.7c-4.7,0-4.7,0-4.7,4.9v0.2l0.6-0.7c0.5-2.8,2.4-3.3,4.8-3.3h8.7l-1.2-1.2L201.8,274.7z" class="st2 path264" style=""></path>
<path d="M190.9,279.3c2.1,0.2,4.1,0.3,6.2,0.3c0-4.9,0-4.9,4.7-4.9h8.3l-7.7-6.9L190.9,279.3z" class="st14 path172" style=""></path>
<path d="M217.5,292.3h11.9l-18.1-16.5h-8.7c-2.5,0-4.4,0.5-4.8,3.3l-0.6,0.7c1.5,2.7,1.5,6.1,0,8.8l0.5,0.5
	c0.8,1.7,2.3,2.2,4.1,2.2c1.8,0,5.8-0.1,8.8,0s3.3,0,4.5,1.4C215.7,292.2,216.6,292.3,217.5,292.3z" class="st2 path260" style=""></path>
<path d="M215,293.1c1,4.3,1.1,8.7,0.1,13l-0.3,0.4l0.5,0.6l13.7-13.7C224.3,293.6,219.7,293.5,215,293.1z" class="st15 path272" style=""></path>
<path d="M238.1,300.4l-7.5-6.9H229l-13.7,13.7c0.6,1.2,0.5,2.6,0.5,3.8v11.6c0,2.4,1,3.3,3.4,3.3
	c6.3,0,12.6-0.1,18.9,0.1l0,0V306l0,0V300.4z" class="st15 path274" style=""></path>
<path d="M229,293.4l0.8-0.7l-0.5-0.4h-11.9c-0.9,0-1.8-0.2-2.6,0.4h0.1v0.3C219.7,293.4,224.3,293.6,229,293.4z" class="st15 path282" style=""></path>
<path d="M230.6,293.4l7.5,6.9v-7L230.6,293.4z" class="st15 path273" style=""></path>
<path d="M230.6,293.4h7.5v-1h-8l-0.3,0.4L230.6,293.4z" class="st15 path281" style=""></path>
<path d="M238.1,293.3v7l1,0.8c-0.1-2.6,0.5-5.3-0.5-7.8L238.1,293.3z" class="st17 path313" style=""></path>
<path d="M238.6,293.4c1.1,2.5,0.5,5.1,0.5,7.8l3.7,3.5c4.4-0.9,8.9-1.6,13.4-2c2.7-3.6,0.6-6.8-1-10
	c-1,0.8-2.3,0.8-3.6,0.8C247.3,293.4,242.9,293.5,238.6,293.4z" class="st17 path308" style=""></path>
<path d="M238.1,292.3L238.1,292.3c0.2,0.3,0.3,0.7,0.5,1.1c4.4,0.1,8.8,0,13.1,0c1.3,0,2.6,0,3.6-0.8l-0.2-0.4
	L238.1,292.3z" class="st17 path310" style=""></path>
<path d="M238.6,305.5h0.5c0-1.2,0.1-2.3,0-3.5v-0.7l-1-0.8v5.7l0,0C238.3,305.8,238.4,305.5,238.6,305.5z" class="st17 path312" style=""></path>
<path d="M239.1,305.4l3.7-0.7l-3.7-3.5v0.7C239.2,303.1,239.1,304.2,239.1,305.4z" class="st17 path307" style=""></path>
<path d="M243.8,305.5c4-0.5,8.1-1.4,12.1-2.2c0.1-0.2,0.2-0.3,0.2-0.5l0.2-0.2c-4.5,0.4-9,1.1-13.4,2L243.8,305.5z" class="st17 path316" style=""></path>
<path d="M256.3,302.6L256.3,302.6c0.3,0,0.5,0.3,0.5,0.5c3.1-4,1.8-7.6-1.2-10.9l0,0c-0.2,0.1-0.3,0.2-0.4,0.4
	C256.9,295.8,259,299,256.3,302.6z" class="st17 path309" style=""></path>
<path d="M248.9,320c1-2.4,2-4.7,2.9-7.1l-8-7.4l-4.7,0.5c0.2,5.7,0.1,11.3,0.1,17c0.1,1-0.1,2-0.4,3h10.3l2.2-2.3
	c-0.9,0.4-1.9,0.6-2.6-0.3h-0.2v-0.2C247.8,322.1,248.5,321,248.9,320z" class="st16 path287" style=""></path>
<path d="M239,305.9h-0.9v19.9h0.6c0.3-1,0.4-2,0.4-3C239.1,317.2,239.2,311.6,239,305.9z" class="st16 path297" style=""></path>
<path d="M239.1,305.4c0,0.2,0,0.3-0.1,0.5l0,0l4.7-0.5l-0.9-0.8L239.1,305.4z" class="st17 path315" style=""></path>
<path d="M251.8,312.9c1.4-3.2,2.6-6.4,4.1-9.6c-4,0.8-8.1,1.6-12.1,2.2L251.8,312.9z" class="st16 path286" style=""></path>
<path d="M255.9,303.3c-1.5,3.2-2.7,6.4-4.1,9.6l0.7,0.6c1.5-3.6,2.9-6.9,4.3-10.4l0,0L255.9,303.3z" class="st16 path291" style=""></path>
<path d="M248.9,320c-0.4,1-1.1,2.1-0.4,3.2l4-9.7l-0.7-0.6C250.9,315.2,249.9,317.6,248.9,320z" class="st16 path294" style=""></path>
<path d="M248.5,323.2C248.5,323.2,248.5,323.3,248.5,323.2L248.5,323.2L248.5,323.2l3.9-0.8l4.7-4.7l-4.6-4.2
	L248.5,323.2z" class="st4 path77" style=""></path>
<path d="M260.2,320.5l-3.1-2.8l-4.7,4.7L260.2,320.5z" class="st4 path72" style=""></path>
<path d="M251.2,323.5l1.2-1.2l-3.8,0.9C249.3,324.2,250.3,323.9,251.2,323.5z" class="st16 path292" style=""></path>
<path d="M265.9,325.8l-5-4.7l-9,2.2l-0.6,0.2l-2.2,2.3H265.9z" class="st16 path284" style=""></path>
<path d="M251.2,323.5l0.6-0.2l9-2.2l-0.7-0.6l-7.8,1.8L251.2,323.5z" class="st16 path293" style=""></path>
<path d="M238.7,325.9l-0.6,1h9.8l1.1-1.1L238.7,325.9z" class="st16 path290" style=""></path>
<path d="M249.1,325.8l-1.1,1.1h19.1l-1.2-1L249.1,325.8z" class="st16 path289" style=""></path>
<path d="M267.1,326.8H248l-17.1,17l0.7,0.6h51l1.8-1.8L267.1,326.8z" class="st2 path57" style=""></path>
<path d="M282.6,344.5h3.8l-2-1.8L282.6,344.5z" class="st2 path58" style=""></path>
<path d="M239.6,401.9l9.4,8.6c1.8-12.3,11.9-21.5,24.2-21.4c3.3,0,6.5,0.7,9.5,2.1l-13-11.9
	C256.1,380.5,244.4,389.3,239.6,401.9z" class="st3 path302" style=""></path>
<path d="M269.6,379.2l13,11.9c1.3,0.6,2.5,1.2,3.6,2l7.5-7.5c-6.1-4.3-13.4-6.6-20.9-6.7L269.6,379.2z" class="st3 path305" style=""></path>
<path d="M293.7,401.3l14.8,13.6c0.1-0.2,0.1-0.4,0.1-0.6c0-11.4-5.6-22-14.9-28.5l-7.5,7.5
	C289.3,395.3,291.9,398.1,293.7,401.3z" class="st3 path306" style=""></path>
<path d="M293.7,401.3c2.3,4.1,3.5,8.7,3.5,13.4c0,11.7-7.1,21.2-17.2,24.2l6.7,6.2l20.2-20.2c1-3.2,1.5-6.6,1.6-9.9
	L293.7,401.3z" class="st3 path303" style=""></path>
<path d="M288.5,446.6c8.9-4.4,15.6-12.3,18.4-21.8l-20.2,20.2L288.5,446.6z" class="st3 path300" style=""></path>
<path d="M249,410.5l-9.4-8.6c-1.5,3.9-2.2,8-2.3,12.1c0,7.7,2.4,15.1,6.8,21.3l7.8-7.8c-2.2-4-3.3-8.4-3.3-12.9
	C248.6,413.2,248.7,411.9,249,410.5z" class="st3 path304" style=""></path>
<path d="M280,438.9c-2.3,0.7-4.7,1-7.1,1c-8.7,0-16.8-4.7-21-12.3l-7.8,7.8c6.6,9.3,17.3,14.8,28.7,14.9
	c3.5,0,6.9-0.5,10.2-1.5l3.6-3.7L280,438.9z" class="st3 path299" style=""></path>
<path d="M283.1,448.8c1.9-0.6,3.7-1.3,5.5-2.2l-1.8-1.6L283.1,448.8z" class="st3 path301" style=""></path>
<path d="M90.3,215.4l2.2,5.2l1.7-1.7L90.3,215.4z" class="st0 path40" style=""></path>
<path d="M114.6,223.9c-3.1-5.6-5.7-11.4-7.9-17.3l-12.4,12.3l27.4,25.1l3.6-3.7C121.3,235,117.7,229.6,114.6,223.9z" class="st0 path39" style=""></path>
<path d="M149.2,263.3L149.2,263.3c-9.1-6.5-17.1-14.3-24-23.2l-3.6,3.7l27.3,25l3-2.9L149.2,263.3z" class="st0 path36" style=""></path>
<path d="M149.1,262.3c-8.7-6.6-16.5-14.2-23.2-22.8l-0.7,0.7c6.8,8.8,14.9,16.6,24,23.2
	C149.3,263,149.2,262.6,149.1,262.3z" class="st14 path215" style=""></path>
<path d="M149.6,262.6L149.6,262.6c-0.1,0.3-0.2,0.5-0.4,0.7l0,0l2.6,2.6l0.6-0.7C151.7,264.2,150.7,263.3,149.6,262.6z
	" class="st15 path249" style=""></path>
<path d="M152.4,266.6l-0.5-0.6l-3,2.9l27.4,25l7.1-7C171.2,283.8,160.9,277,152.4,266.6z" class="st0 path37" style=""></path>
<path d="M157.7,260.2l-5.2,5.1c1,1.2,1.9,2.4,2.9,3.5c7.6,8.5,17.6,14.6,28.6,17.4l5.9-6
	C177,278.2,165.3,270.5,157.7,260.2z" class="st15 path244" style=""></path>
<path d="M148.7,218.7V230c-0.1,1.3,0,2.6,0.3,3.8v-15L148.7,218.7z" class="st2 path397" style=""></path>
<path d="M158.3,259.4l-0.6,0.7c7.7,10.4,19.3,18.1,32.3,20l0.9-0.8C177.8,277.7,166.1,270.2,158.3,259.4z" class="st15 path251" style=""></path>
<path d="M155.4,268.7c-1-1.1-1.9-2.3-2.9-3.5l-0.6,0.7l0.5,0.6c8.5,10.4,18.8,17.1,30.9,20.2l0.7-0.7
	C173,283.3,163,277.3,155.4,268.7z" class="st15 path247" style=""></path>
<path d="M193.1,280.5l-3.1-0.4l-5.9,6c3.2,0.8,6.5,1.3,9.8,1.6c1.1,0.2,2.4,0.1,3.3,0.7v-8.7
	C196,280.9,194.4,280.6,193.1,280.5z" class="st15 path246" style=""></path>
<path d="M190.9,279.3l-0.9,0.8l3.1,0.4c1.4,0.1,2.9,0.4,4-0.6v-0.3C195,279.6,192.9,279.5,190.9,279.3z" class="st15 path252" style=""></path>
<path d="M193.8,287.8c-3.3-0.3-6.6-0.9-9.8-1.6l-0.7,0.7c4.5,1.1,9.1,1.8,13.8,2v-0.4
	C196.2,287.9,194.9,288,193.8,287.8z" class="st15 path248" style=""></path>
<path d="M197.2,279.8L197.2,279.8l-0.1,8.7c0,0.1,0,0.1,0.1,0.1h0C198.7,285.8,198.7,282.5,197.2,279.8z" class="st2 path269" style=""></path>
<path d="M210.5,291.3c-2.9-0.1-5.8,0-8.8,0c-2.9,0-3.3-0.5-4.1-2.2l-0.5-0.5v0.3c-0.4,2.6,0.5,3.6,3.4,3.6
	c4.7,0,9.5-0.9,14.1,0.6l0.4-0.4C213.8,291.3,212.1,291.3,210.5,291.3z" class="st2 path262" style=""></path>
<path d="M215.1,306.1c1-4.3,0.9-8.8-0.1-13h-0.5c0.1,4.4,0.1,8.8,0.1,13.3h0.2L215.1,306.1z" class="st15 path275" style=""></path>
<path d="M214.7,306.4L214.7,306.4c0-4.5,0-8.9-0.1-13.3c-4.7-1.6-9.4-0.6-14.1-0.6c-2.8,0-3.7-1-3.4-3.6
	c-4.6-0.2-9.3-0.9-13.8-2l-7.1,7l8,7.3c9.8,2.8,19.8,4.6,29.9,5.3L214.7,306.4z" class="st0 path43" style=""></path>
<path d="M238.1,325.9c-6.3-0.2-12.6-0.1-18.9-0.1c-2.4,0-3.4-0.9-3.4-3.3v-11.6c-0.1-1.3,0.1-2.6-0.5-3.8l-0.5,0.6
	c0,5.3,0.2,10.5,0,15.8c0,2.6,0.6,3.5,3.4,3.5c6.7-0.2,13.3-0.1,20-0.1V325.9L238.1,325.9z" class="st15 path276" style=""></path>
<path d="M218.1,327c-2.7,0-3.4-0.8-3.4-3.5c0.2-5.3,0-10.5,0-15.8l-0.6,0.5c0,4.9,0,9.8,0.3,14.7
	c0.2,2.5-0.5,3.5-2.2,3.8l18.7,17.1l17.1-17h-9.8C231.5,326.9,224.8,326.8,218.1,327z" class="st2 path55" style=""></path>
<path d="M214.1,306.5v1.8l0.6-0.5c0-0.4,0-0.9-0.1-1.3C214.5,306.6,214.3,306.6,214.1,306.5z" class="st2 path60" style=""></path>
<path d="M238.1,326.9l0.6-1h-0.6V326.9z" class="st16 path298" style=""></path>
<path d="M238.1,293.3h0.5c-0.1-0.4-0.3-0.7-0.5-1.1l0,0V293.3L238.1,293.3z" class="st17 path314" style=""></path>
<path d="M229,293.4h1.6l-0.8-0.7L229,293.4z" class="st15 path280" style=""></path>
<path d="M239.1,305.4h-0.5c-0.2,0-0.3,0.4-0.5,0.5h0.9C239.1,305.8,239.1,305.6,239.1,305.4z" class="st17 path318" style=""></path>
<path d="M256.3,302.6L256.3,302.6l-0.3,0.2c0,0.2-0.1,0.3-0.2,0.5l0.9-0.2l0,0C256.7,302.9,256.5,302.6,256.3,302.6z" class="st17 path317" style=""></path>
<path d="M94.2,218.8l-1.7,1.7c5.1,11.7,11.7,22.7,19.8,32.6l9.3-9.3L94.2,218.8z" class="st0 path42" style=""></path>
<path d="M121.6,243.9l-9.3,9.3c7.8,9.6,16.8,18.3,26.7,25.6l9.8-9.9L121.6,243.9z" class="st0 path41" style=""></path>
<path d="M148.8,268.9l-9.8,9.9c10.4,7.7,21.7,13.9,33.7,18.5l3.5-3.5L148.8,268.9z" class="st0 path44" style=""></path>
<path d="M172.7,297.4c3.7,1.4,7.5,2.7,11.5,3.8l-8-7.3L172.7,297.4z" class="st0 path48" style=""></path>
<path d="M210.5,326.9h-14.9l-17.8,17.7h52.4l0.6-0.6l-18.7-17.1H210.5z" class="st2 path52" style=""></path>
<path d="M195.6,326.8h-35.9c-0.7-0.1-1.4,0-2,0.3l19.1,17.5h1L195.6,326.8z" class="st2 path59" style=""></path>
<path d="M156.5,329.9c0.3,3.6,0.3,7.3,0,10.9c-0.3,3.2,0.9,3.7,3.9,3.7h16.4l-19.1-17.5
	C156.8,327.4,156.4,328.3,156.5,329.9z" class="st2 path51" style=""></path>
<path d="M114.5,300.5c-2.6-1.1-5.3-1.6-8.5-2.4c1.5,3.6,2.6,6.7,3.9,9.7l6.7-6.7C115.9,301,115.2,300.8,114.5,300.5z" class="st7 path126" style=""></path>
<path d="M122.2,298.8c-1.7,1.8-3.5,2.6-5.6,2.3l-6.7,6.7c0.1,0.1,0.1,0.2,0.1,0.3c0.8,1.4,0.6,3.2-0.5,4.5
	c-1.9,2.6-3.6,5.5-5.7,8.7c3.4,0.2,6.8,0,10.1-0.5c1.7-0.4,3.5,0.3,4.5,1.7c2,2.6,3.8,5.7,6.6,7.9c1.2-2.9,2-5.9,2.6-8.9
	c0.2-2.2,1.8-4,4-4.6c2.8-1,6-1.6,8.8-3.7c-2.6-1.8-5.3-3.5-8-5c-2.3-1.3-3-2.9-2.9-5.4c0-0.5,0.1-1.1,0.1-1.6l-4.8-4.4
	C123.8,297.4,123,298.1,122.2,298.8z" class="st7 path124" style=""></path>
<path d="M128.7,293.5l-4.1,3.3l4.8,4.4C129.6,298.6,129.4,296,128.7,293.5z" class="st7 path125" style=""></path>
<path d="M172.1,390.4l-11-10c-1.8-0.3-3.6-0.3-5.4-0.1c-2.6,0.4-3.2,0.9-3.2,3.5c0.1,12.9,0.1,25.7,0.1,38.6l11.2-11.2
	v-9.7c0-1.1-0.4-2.3,0.5-3.6l5.4,7.4l7.4-7.3C175.3,395.4,173.6,392.9,172.1,390.4z" class="st3 path63" style=""></path>
<path d="M170.5,387.8c-2.6-4.3-5.5-6.7-9.4-7.5l11,10L170.5,387.8z" class="st3 path69" style=""></path>
<path d="M189.8,415.1c-1.1-0.2-1.4-1.1-1.8-1.8c-3.6-5.1-7.4-10.2-10.9-15.4l-7.4,7.3c4,5.5,8,10.9,11.7,16.4
	c2.5,3.9,5.3,5.4,9.7,4.9c2.4-0.2,3.9-0.6,5.2-2.6c1.3-2,3.2-4.7,4.8-6.9l-7.6-7L189.8,415.1z" class="st3 path67" style=""></path>
<path d="M163.8,411.1l-11.2,11.2v0.4l11.2,10.3C163.7,425.7,163.7,418.4,163.8,411.1z" class="st3 path64" style=""></path>
<path d="M152.5,440.8c0,8.3,0,8.2,8.2,8.2c2.6,0,3.1-0.7,3.1-3.2v-12.9l-11.2-10.3C152.6,428.8,152.5,434.8,152.5,440.8
	z" class="st3 path70" style=""></path>
<path d="M215.4,396.9v14.8l11.3-11.3v-10.2l-10.8-9.8c-1.8,0.3-3.1,1.5-4.4,3.4l-18.1,26.2l7.6,7l1.3-1.7L215.4,396.9z" class="st3 path66" style=""></path>
<path d="M226.2,381.1c-1.6-1.9-5.5-0.3-8.4-0.6H216l10.8,9.8v-0.9C226.7,386.4,227.6,382.7,226.2,381.1z" class="st3 path65" style=""></path>
<path d="M226.7,400.4l-11.3,11.3V430l11.4,10.4C226.7,427.1,226.7,413.7,226.7,400.4z" class="st3 path68" style=""></path>
<path d="M215.4,441.2c0,7.8,0,7.6,7.8,7.8c3.1,0.1,3.6-1,3.6-3.8v-4.8L215.4,430V441.2z" class="st3 path62" style=""></path>
<path d="M99,423.5c-0.1-11.6,0-23.3-0.1-34.8c0-8.3,0-8.2-8.2-8.3h-1l-2,2v1.1c0.1,7.2,0,14.4,0,21.5h0.1
	c0,2.8-0.1,5.7-0.1,8.5l11.1,10.1L99,423.5z" class="st3 path105" style=""></path>
<path d="M87.7,413.5c0,4.4,0,8.7,0.1,13c0,2.4,0.4,4.8,1.1,7l9.9-9.9L87.7,413.5z" class="st3 path102" style=""></path>
<path d="M107.4,439c-5.6-2.2-8.4-6.7-8.5-12.7v-2.5l-0.2-0.2l-9.9,9.9c0.8,2.4,2,4.7,3.6,6.7
	c6.5,8.7,18.3,12.1,29.2,8.6c1.1-0.4,2.2-0.8,3.3-1.4l-8.5-7.8C113.4,440.5,110.3,440.2,107.4,439z" class="st3 path100" style=""></path>
<path d="M138.4,425c0.1-5.1,0.1-10.1,0.1-15.2l-11.2-10.3c0,8.3-0.1,16.6-0.1,24.8c0,4.7-0.9,8.9-4.6,12.1
	c-1.8,1.6-3.9,2.8-6.2,3.4l8.5,7.8C133.3,443.4,138.3,435.4,138.4,425z" class="st3 path103" style=""></path>
<path d="M138.4,388v-3.8l-11.2,11.1c0,1.4,0,2.8,0.1,4.2l11.2,10.3C138.4,402.5,138.4,395.3,138.4,388z" class="st3 path101" style=""></path>
<path d="M130.6,380.3c-2.6,0-3.6,0.6-3.5,3.5v11.5l11.2-11.1C138.1,380.4,136.7,380.4,130.6,380.3z" class="st3 path99" style=""></path>
<path d="M23.6,380.3c-3.2-0.1-3.6,1-3.6,3.7v13.7l11.4-11.3C31.3,380.4,30.7,380.5,23.6,380.3z" class="st3 path86" style=""></path>
<path d="M51.5,418.7l20-20.1l-9.5-8.7c0,5.3-0.1,10.6,0.1,15.9c0,2.5-0.8,3.1-3.2,3.1c-8.3-0.2-16.5-0.1-24.7,0
	c-2.1,0-2.8-0.5-2.8-2.7c0.2-6,0.1-12,0.1-18.1v-1.7L20,397.7v4.1l18.4,16.8L51.5,418.7z" class="st3 path85" style=""></path>
<path d="M33.9,418.6h4.6L20,401.9c0.1,12.9,0,25.8,0,38.7c0,5,0,7,1.7,7.9l9.7-9.7c0-5.8,0-11.7-0.1-17.5
	C31.3,419.3,31.8,418.6,33.9,418.6z" class="st3 path84" style=""></path>
<path d="M28.7,449c2.6,0,2.7-1,2.7-3v-7.2l-9.7,9.7C22.9,449,25,449,28.7,449z" class="st3 path88" style=""></path>
<path d="M73.2,446.1c-0.1-10.5,0-20.9,0-31.4v-14.5l-1.7-1.6l-20,20.1h7.8c2.2-0.1,2.7,0.7,2.6,2.8
	c-0.1,6.2,0,12.5,0,18.7l9.6,8.8C72.8,448.6,73.2,447.9,73.2,446.1z" class="st3 path87" style=""></path>
<path d="M73.2,388.6c0-8.5,0-8.4-8.6-8.3c-2.3,0.1-2.7,0.9-2.6,2.9v6.7l9.5,8.7l1.7-1.7V388.6z" class="st3 path83" style=""></path>
<path d="M71.4,398.7l1.7,1.6v-3.3L71.4,398.7z" class="st3 path82"></path>
<path d="M61.9,440.9c0,8.2,0,8.1,8.3,8.1h1.3l-9.6-8.8V440.9z" class="st3 path89" style=""></path>

</svg>
