<svg xmlns="http://www.w3.org/2000/svg" xmlns:xlink="http://www.w3.org/1999/xlink" viewBox="0 0 620 536">
    <defs>
        <style>
            .cls-1{fill:#cf0;}.cls-2{fill:#295a0d;}.cls-3{fill:#abedc6;}

            @-webkit-keyframes textOne {
            <!-- on off -->
                0% { fill: #abedc7}
                50% { fill: #abedc7}
                51% { fill: #316c31}
                100% { fill: #316c31}
            }

            .textStuff {
                -webkit-animation: textOne 1s infinite;
            }

            @-webkit-keyframes leftOne {
            <!-- off on -->
                0% { fill: #758d1d}
                50% { fill: #758d1d}
                51% { fill: #cf0}
                100% { fill: #cf0}
            }

            .leftFace {
                -webkit-animation: leftOne 2s infinite;
            }

            @-webkit-keyframes rightOne {
            <!-- off on -->
                0% { fill: #295a0d}
                50% { fill: #295a0d}
                51% { fill: #00ff09}
                100% { fill: #00ff09}
            }

            .rightFace {
                -webkit-animation: rightOne 2s 0.5s infinite;
            }
        </style>
    </defs>
    <title>
        Asset 3
    </title>
    <g id="Layer_2" data-name="Layer 2">
        <g id="Layer_2-2" data-name="Layer 2">
            <use transform="translate(76 131)" xlink:href="#image-2"/>
            <use transform="translate(197 92)" xlink:href="#image-3"/>
            <use transform="translate(136 215)" xlink:href="#image"/>
            <use transform="translate(136 215)" xlink:href="#image"/>
            <use transform="translate(76 131)" xlink:href="#image-2"/>
            <use transform="translate(197 92)" xlink:href="#image-3"/>
            <path d="M336.67,69c-8-42-26.26-26.67-26.26-26.67C190.83,135,52.67,115.67,52.67,115.67,36.67,118.33,40,133,40,135.67,110.67,341,236.67,379,242,381.67c26.67,10.66,46.67-8.67,49.33-12C372.67,269,344.67,111,336.67,69ZM123.12,209.88c-8.5,0-9.62-10.26-9.74-11.5,5.24-30.88,30.12-30.88,30.12-30.88,18,.88,35.12,11.38,36.5,11.88,22.87,12.32,6.39,23.26,2.42,25.56a4,4,0,0,1-1.62.5Zm179.55,47.41a2.78,2.78,0,0,1-.11.75c-12.74,43.68-44.57,52.3-49.89,53C204,327.67,174,292.33,174,292.33s84.05,11.4,128.67-39.33Zm-1.05-99.79L247.5,186.43a2.5,2.5,0,0,1-.8.26c-13.47,1.82-13.23-12-13.09-15a1.33,1.33,0,0,1,.13-.52c14.34-30.94,29.3-41.76,42.8-42.38,12.83-.59,22.74,9.69,24.81,11.1a3.48,3.48,0,0,1,.6.49C311.16,150.17,301.62,157.5,301.62,157.5Z" class="cls-1 leftFace"/>
            <path d="M567.67,149.67C424.8,143.05,353.12,79.34,352,78.34c3.66,7.39,8,76.66,7.66,77C393.33,151,391,167,391,167.5c1.67,10.83-29,25.17-30.33,24.83-3.34,62-14.67,89-14.34,89.34,77,12.33,74.34,71,73,70C384.67,309.33,339.67,305,339,304.33c-4,20-32.67,65.67-33,68.34,16,37,54.71,25.33,58.37,23.33,149.34-51,212-217,213.67-222C588,151.67,568.67,150.33,567.67,149.67Zm-81,95.66c-2,1-22.34,7.34-35-9.83-1.67-2.17-19.34-31.8-13-48.65,2-.85,4.33-6.18,15.33-3.18l43.87,40a5.25,5.25,0,0,1,1.61,2.82C500.34,230.66,500.89,241.12,486.67,245.33Z" class="cls-2 rightFace"/>
            <path d="M141.51,427.43H160a49.69,49.69,0,0,1,12.34,1.34,22.79,22.79,0,0,1,9.34,5q10.91,9.35,10.91,28.4a55.78,55.78,0,0,1-1.09,11.49,34.06,34.06,0,0,1-3.39,9.36,29,29,0,0,1-5.86,7.46,23.74,23.74,0,0,1-6.15,4,27.9,27.9,0,0,1-7.17,2.15,55,55,0,0,1-8.65.62H141.8a11.58,11.58,0,0,1-5.82-1.17,5.39,5.39,0,0,1-2.54-3.29,20.73,20.73,0,0,1-.6-5.5V436.11q0-4.58,2-6.63C136.25,428.12,138.46,427.43,141.51,427.43Zm5.48,11.2v47.42h10.73c2.35,0,4.19-.06,5.52-.19a17.3,17.3,0,0,0,4.15-.95,11.39,11.39,0,0,0,3.72-2.15q7.09-6,7.1-20.68,0-10.33-3.12-15.49t-7.7-6.55a37.89,37.89,0,0,0-11.06-1.41Z" class="cls-3 textStuff"/>
            <path d="M224,467.42h-4.95v22.44c0,3-.65,5.13-2,6.53a6.64,6.64,0,0,1-5.1,2.1,6.5,6.5,0,0,1-5.24-2.19q-1.86-2.19-1.86-6.44V436.11c0-3.05.69-5.26,2.05-6.63s3.58-2.05,6.63-2.05h23a69.66,69.66,0,0,1,8.14.41,20.62,20.62,0,0,1,6.1,1.64,17.75,17.75,0,0,1,5.82,4,17.27,17.27,0,0,1,3.83,6,19.8,19.8,0,0,1,1.31,7.22q0,7.82-4.4,12.49T244,465.75a25.76,25.76,0,0,1,7.2,5.91,61.09,61.09,0,0,1,6.12,8.31,62.63,62.63,0,0,1,4.19,8,15.77,15.77,0,0,1,1.5,4.89,5,5,0,0,1-.88,2.74,6.22,6.22,0,0,1-2.4,2.14,7.56,7.56,0,0,1-3.53.79,6.91,6.91,0,0,1-4-1.12,10.78,10.78,0,0,1-2.79-2.84q-1.17-1.71-3.17-5l-5.67-9.43a52.24,52.24,0,0,0-5.46-7.92,13.34,13.34,0,0,0-4.88-3.71A16.8,16.8,0,0,0,224,467.42Zm8.11-29.36H219.05v19.21h12.67a35.94,35.94,0,0,0,8.58-.88,10.09,10.09,0,0,0,5.32-3,8.64,8.64,0,0,0,1.83-5.84,9,9,0,0,0-1.48-5.12,8.87,8.87,0,0,0-4.1-3.31Q239.4,438.06,232.11,438.06Z" class="cls-3 textStuff"/>
            <path d="M319.89,489.39l-3.34-8.77h-28.4l-3.34,9a31.3,31.3,0,0,1-3.33,7.07c-.93,1.23-2.43,1.84-4.53,1.84a6.62,6.62,0,0,1-4.72-2,6,6,0,0,1-2.05-4.43,9.82,9.82,0,0,1,.48-3c.32-1,.84-2.43,1.57-4.24l17.87-45.37,1.84-4.7a23.74,23.74,0,0,1,2.28-4.55,9.4,9.4,0,0,1,3.2-2.93,11.3,11.3,0,0,1,9.81,0,9.5,9.5,0,0,1,3.2,2.89,20.23,20.23,0,0,1,2.05,3.78q.82,2,2.12,5.41l18.25,45.09Q335,489.67,335,492a6.18,6.18,0,0,1-2,4.45,6.67,6.67,0,0,1-4.89,2,6.32,6.32,0,0,1-2.86-.6,5.84,5.84,0,0,1-2-1.62,14.89,14.89,0,0,1-1.74-3.14C320.86,491.71,320.33,490.47,319.89,489.39Zm-28-19.4h20.87l-10.53-28.83Z" class="cls-3 textStuff"/>
            <path d="M369,486.77l-11.2-44.52v48.23q0,4-1.78,6a6.57,6.57,0,0,1-9.42,0c-1.2-1.32-1.81-3.33-1.81-6V435.2c0-3.05.8-5.1,2.39-6.17a11.41,11.41,0,0,1,6.43-1.6H358a16.68,16.68,0,0,1,5.75.72,4.81,4.81,0,0,1,2.64,2.57,40.21,40.21,0,0,1,1.95,6.06L378.46,475l10.15-38.26a40.21,40.21,0,0,1,1.95-6.06,4.81,4.81,0,0,1,2.64-2.57,16.68,16.68,0,0,1,5.75-.72h4.38a11.41,11.41,0,0,1,6.43,1.6c1.59,1.07,2.39,3.12,2.39,6.17v55.28q0,4-1.79,6a6.12,6.12,0,0,1-4.79,2,6,6,0,0,1-4.62-2q-1.81-2-1.81-6V442.25l-11.2,44.52q-1.1,4.34-1.79,6.36a8.75,8.75,0,0,1-2.55,3.69,7.43,7.43,0,0,1-5.14,1.67,7.53,7.53,0,0,1-6.87-3.81,16.28,16.28,0,0,1-1.5-3.7C369.73,489.63,369.35,488.23,369,486.77Z" class="cls-3 textStuff"/>
            <path d="M471.38,489.39l-3.33-8.77H439.64l-3.33,9a31.21,31.21,0,0,1-3.34,7.07q-1.38,1.85-4.52,1.84a6.61,6.61,0,0,1-4.72-2,6,6,0,0,1-2.05-4.43,10.13,10.13,0,0,1,.47-3c.32-1,.85-2.43,1.58-4.24l17.87-45.37,1.83-4.7a24.32,24.32,0,0,1,2.29-4.55,9.37,9.37,0,0,1,3.19-2.93,11.32,11.32,0,0,1,9.82,0,9.46,9.46,0,0,1,3.19,2.89A19.66,19.66,0,0,1,464,434q.84,2,2.12,5.41l18.26,45.09c1.42,3.43,2.14,5.92,2.14,7.48a6.19,6.19,0,0,1-2,4.45,6.65,6.65,0,0,1-4.88,2,6.29,6.29,0,0,1-2.86-.6,5.84,5.84,0,0,1-2-1.62,14.89,14.89,0,0,1-1.74-3.14C472.36,491.71,471.83,490.47,471.38,489.39Zm-28-19.4h20.87L453.7,441.16Z" class="cls-3 textStuff"/>
        </g>
    </g>
</svg>
