<svg xmlns="http://www.w3.org/2000/svg" viewBox="0 0 245.99 218.32">
    <defs>
        <style>
            .cls-1,.cls-2{fill:none;stroke-linecap:round;stroke-linejoin:round;stroke-width:4px;}.cls-1{stroke:#cf0;}.cls-2{stroke:#00ff09;}.cls-3{fill:#fff;}

            @-webkit-keyframes textOne {
            <!-- on off -->
                0% { fill: #abedc7}
                50% { fill: #abedc7}
                51% { fill: #316c31}
                100% { fill: #316c31}
            }

            .cls-3 {
                -webkit-animation: textOne 1s infinite;
            }

            @-webkit-keyframes leftOne {
            <!-- off on -->
                0% { stroke: #758d1d}
                50% { stroke: #758d1d}
                51% { stroke: #cf0}
                100% { stroke: #cf0}
            }

            .cls-1 {
                -webkit-animation: leftOne 2s infinite;
            }

            @-webkit-keyframes rightOne {
            <!-- off on -->
                0% { stroke: #295a0d}
                50% { stroke: #295a0d}
                51% { stroke: #00ff09}
                100% { stroke: #00ff09}
            }

            .cls-2 {
                -webkit-animation: rightOne 2s 0.5s infinite;
            }
        </style>
    </defs>
    <title>
        DRAMA FINAL_2
    </title>
    <g id="Layer_2" data-name="Layer 2">
        <g id="Layer_2-2" data-name="Layer 2">
            <path d="M132.3,14.9C128.79-3.53,120.77,3.2,120.77,3.2,68.31,43.86,7.69,35.38,7.69,35.38c-7,1.16-5.56,7.6-5.56,8.77,31,90.1,86.29,106.77,88.63,107.94,11.7,4.68,20.48-3.8,21.64-5.26C148.09,102.65,135.81,33.33,132.3,14.9ZM38.6,76.71c-3.73,0-4.22-4.5-4.28-5,2.3-13.55,13.22-13.55,13.22-13.55,7.9.38,15.41,5,16,5.21,10,5.41,2.81,10.21,1.07,11.22a2,2,0,0,1-.71.22Zm78.78,20.81a1.26,1.26,0,0,1,0,.33c-5.59,19.16-19.56,22.94-21.89,23.23a32.2,32.2,0,0,1-34.52-8.19s36.88,5,56.46-17.26Zm-.46-43.79L93.17,66.42a1.12,1.12,0,0,1-.35.12c-5.91.8-5.8-5.27-5.74-6.6a.59.59,0,0,1,0-.23c6.3-13.57,12.86-18.32,18.78-18.59,5.63-.26,10,4.25,10.89,4.87a1.71,1.71,0,0,1,.26.21C121.1,50.51,116.92,53.73,116.92,53.73Z" class="cls-1"/>
            <path d="M238.2,50.3c-62.68-2.91-94.13-30.86-94.62-31.3,1.6,3.24,3.5,33.63,3.36,33.78,14.77-1.9,13.75,5.12,13.75,5.34.73,4.75-12.73,11-13.31,10.89-1.47,27.21-6.44,39.05-6.29,39.2,33.78,5.41,32.61,31.16,32,30.72a59.07,59.07,0,0,0-35.25-20.77c-1.76,8.77-14.33,28.81-14.5,30,7,16.24,24,11.12,25.61,10.24C214.51,136,242,63.16,242.74,61,247.12,51.17,238.64,50.59,238.2,50.3Zm-35.54,42c-.87.44-9.8,3.22-15.35-4.31-.74-1-8.49-14-5.71-21.35.88-.37,1.9-2.71,6.73-1.4l19.25,17.54a2.31,2.31,0,0,1,.7,1.24C208.66,85.83,208.9,90.42,202.66,92.27Z" class="cls-2"/>
            <path d="M50.14,218.32a2.53,2.53,0,0,1-2.51-2.52V183.14a2.53,2.53,0,0,1,2.51-2.51h10a12.56,12.56,0,0,1,12.56,12.56v12.57a12.56,12.56,0,0,1-12.56,12.56Zm2.51-32.66v27.63h7.54a7.55,7.55,0,0,0,7.54-7.53V193.19a7.55,7.55,0,0,0-7.54-7.53Z" class="cls-3"/>
            <path d="M88.83,202h-6V215.8a2.53,2.53,0,0,1-2.51,2.52,2.54,2.54,0,0,1-2.52-2.52V183.14a2.54,2.54,0,0,1,2.52-2.51H92.22a10.69,10.69,0,0,1,2.51,21.08l7.16,11.58a4.82,4.82,0,0,1,1,2.51,2.51,2.51,0,0,1-4.29,1.78,6.81,6.81,0,0,1-1.24-1.78Zm3.39-16.33H82.8V197h9.42a5.65,5.65,0,0,0,0-11.3Z" class="cls-3"/>
            <path d="M114.58,210.78l-1.38,4.52a7.3,7.3,0,0,1-1.12,2.28,2,2,0,0,1-1.65.74,2.53,2.53,0,0,1-2.51-2.52,5.3,5.3,0,0,1,.5-2L118,182.64h0a2.26,2.26,0,0,1,.7-1.25,2.36,2.36,0,0,1,1.76-.76,2.44,2.44,0,0,1,1.79.76,2.35,2.35,0,0,1,.68,1.25h0l9.54,31.15a5.12,5.12,0,0,1,.5,2,2.53,2.53,0,0,1-2.51,2.52,2,2,0,0,1-1.64-.74,7.09,7.09,0,0,1-1.12-2.28l-1.38-4.52Zm10.27-5-4.37-14.37-4.37,14.37Z" class="cls-3"/>
            <path d="M163.19,183.14V215.8a2.46,2.46,0,0,1-.74,1.78,2.51,2.51,0,0,1-4.28-1.78V199.9l-5,16.41h0a2.29,2.29,0,0,1-.68,1.25,2.4,2.4,0,0,1-1.78.76,2.34,2.34,0,0,1-1.76-.76,2.26,2.26,0,0,1-.7-1.25h0l-5-16.41v15.9a2.5,2.5,0,0,1-4.28,1.78,2.46,2.46,0,0,1-.74-1.78V183.14a2.53,2.53,0,0,1,2.51-2.51,2.49,2.49,0,0,1,1.78.73,4.54,4.54,0,0,1,1,2.29l7.29,23.91,7.29-23.91a9,9,0,0,1,1.13-2.29,2,2,0,0,1,1.63-.73,2.42,2.42,0,0,1,1.77.74A2.45,2.45,0,0,1,163.19,183.14Z" class="cls-3"/>
            <path d="M174.87,210.78l-1.38,4.52a7.09,7.09,0,0,1-1.12,2.28,2,2,0,0,1-1.64.74,2.53,2.53,0,0,1-2.51-2.52,5.12,5.12,0,0,1,.5-2l9.55-31.15h0a2.2,2.2,0,0,1,.7-1.25,2.32,2.32,0,0,1,1.76-.76,2.41,2.41,0,0,1,1.78.76,2.29,2.29,0,0,1,.68,1.25h0l9.55,31.15a5.3,5.3,0,0,1,.5,2,2.53,2.53,0,0,1-2.51,2.52,2,2,0,0,1-1.65-.74,7.3,7.3,0,0,1-1.12-2.28l-1.38-4.52Zm10.28-5-4.37-14.37-4.37,14.37Z" class="cls-3"/>
        </g>
    </g>
</svg>
