<svg xmlns="http://www.w3.org/2000/svg" viewBox="0 0 401.21 469">
    <defs>
        <style>
            .cls-1{fill:#a34809;}.cls-10,.cls-11,.cls-12,.cls-13,.cls-2,.cls-3,.cls-4,.cls-5,.cls-6,.cls-7,.cls-8,.cls-9{fill:none;stroke-linecap:round;stroke-width:4px;}.cls-2{stroke:#a34809;stroke-linejoin:round;}.cls-3{stroke:#c8253f;}.cls-10,.cls-11,.cls-12,.cls-13,.cls-3,.cls-4,.cls-5,.cls-6,.cls-7,.cls-8,.cls-9{stroke-miterlimit:10;}.cls-4{stroke:#3038b3;}.cls-5{stroke:#19aaf1;}.cls-6{stroke:#4bd643;}.cls-7{stroke:#f8dd38;}.cls-8{stroke:#f9971d;}.cls-9{stroke:#502081;}.cls-10{stroke:#9d9fa1;}.cls-11{stroke:#f35624;}.cls-12{stroke:#fdb013;}.cls-13{stroke:#000;}

            @-webkit-keyframes brush_yellowOne {
                0% { stroke: #845e1a }
                24% { stroke: #845e1a }
                25% { stroke: #fdb013 }
                100% { stroke: #fdb013 }
            }

            .cls-12 {
                -webkit-animation: brush_yellowOne 2s infinite;
            }

            @-webkit-keyframes brush_greyOne {
                0% { stroke: #585959 }
                24% { stroke: #585959 }
                25% { stroke: #9d9fa1 }
                100% { stroke: #9d9fa1 }
            }

            .cls-10 {
                -webkit-animation: brush_greyOne 2s infinite;
            }

            @-webkit-keyframes brush_brownOne {
                0% { stroke: #632c07 }
                24% { stroke: #632c07 }
                25% { stroke: #a34809 }
                100% { stroke: #a34809 }
            }

            .cls-2 {
                -webkit-animation: brush_brownOne 2s infinite;
            }

            @-webkit-keyframes paletteOne {
                0% { stroke: #601b08 }
                50% { stroke: #601b08 }
                51% { stroke: #f35624 }
                100% { stroke: #f35624 }
            }

            .cls-11 {
                -webkit-animation: paletteOne 2s infinite;
            }

            @-webkit-keyframes hole0 { 0% { stroke: #70192a} 74% { stroke: #70192a} 75% { stroke: #c8253f} 100% { stroke: #c8253f} }
            .cls-3 { -webkit-animation: hole0 2s infinite }
            @-webkit-keyframes hole1 { 0% { stroke: #756212} 74% { stroke: #756212} 75% { stroke: #3038b3} 100% { stroke: #3038b3} }
            .cls-7 { -webkit-animation: hole1 2s infinite }
            @-webkit-keyframes hole2 { 0% { stroke: #874f17} 74% { stroke: #874f17} 75% { stroke: #19aaf1} 100% { stroke: #19aaf1} }
            .cls-8 { -webkit-animation: hole2 2s infinite }
            @-webkit-keyframes hole3 { 0% { stroke: #127a0a} 74% { stroke: #127a0a} 75% { stroke: #4bd643} 100% { stroke: #4bd643} }
            .cls-6 { -webkit-animation: hole3 2s infinite }
            @-webkit-keyframes hole4 { 0% { stroke: #0b465e} 74% { stroke: #0b465e} 75% { stroke: #f8dd38} 100% { stroke: #f8dd38} }
            .cls-5 { -webkit-animation: hole4 2s infinite }
            @-webkit-keyframes hole5 { 0% { stroke: #0c156b} 74% { stroke: #0c156b} 75% { stroke: #f9971d} 100% { stroke: #f9971d} }
            .cls-4 { -webkit-animation: hole5 2s infinite }
            @-webkit-keyframes hole6 { 0% { stroke: #2f095b} 74% { stroke: #2f095b} 75% { stroke: #502081} 100% { stroke: #502081} }
            .cls-9 { -webkit-animation: hole6 2s infinite }

            @-webkit-keyframes textOne {
                0% { fill: #e26d1e }
                50% { fill: #e26d1e }
                51% { fill: #a34809 }
                100% { fill: #a34809 }
            }

            .cls-1 {
                -webkit-animation: textOne 1s infinite;
            }

        </style>
    </defs>
    <title>
        Fine arts
    </title>
    <g id="Layer_2" data-name="Layer 2">
        <g id="Layer_1-2" data-name="Layer 1">
            <path d="M7.5,465.25a3.57,3.57,0,0,1-1.11,2.64A3.61,3.61,0,0,1,3.75,469a3.57,3.57,0,0,1-2.64-1.11A3.57,3.57,0,0,1,0,465.25V416.52a3.57,3.57,0,0,1,1.11-2.64,3.57,3.57,0,0,1,2.64-1.11h30a3.75,3.75,0,0,1,0,7.5H7.5v16.87H30a3.75,3.75,0,0,1,0,7.49H7.5Z" class="cls-1"/>
            <path d="M62.28,461.5V420.27H51a3.75,3.75,0,0,1,0-7.5H81a3.61,3.61,0,0,1,2.64,1.11,3.72,3.72,0,0,1,0,5.28A3.61,3.61,0,0,1,81,420.27H69.78V461.5H81a3.77,3.77,0,0,1,3.74,3.75,3.56,3.56,0,0,1-1.1,2.64A3.61,3.61,0,0,1,81,469H51a3.75,3.75,0,0,1,0-7.5Z" class="cls-1"/>
            <path d="M101,413.88a9.67,9.67,0,0,1,1.85,2.64l21.74,35.27V416.52a3.79,3.79,0,0,1,3.75-3.75,3.77,3.77,0,0,1,3.75,3.75v48.73a3.73,3.73,0,0,1-6.39,2.64,9.49,9.49,0,0,1-1.86-2.64L102.07,430v35.27a3.75,3.75,0,0,1-7.5,0V416.52a3.79,3.79,0,0,1,3.75-3.75A3.61,3.61,0,0,1,101,413.88Z" class="cls-1"/>
            <path d="M175.6,461.5a3.75,3.75,0,0,1,0,7.5h-30a3.79,3.79,0,0,1-3.75-3.75V416.52a3.79,3.79,0,0,1,3.75-3.75h30a3.75,3.75,0,0,1,0,7.5H149.36v16.87h22.49a3.76,3.76,0,0,1,3.75,3.74,3.64,3.64,0,0,1-1.1,2.65,3.6,3.6,0,0,1-2.65,1.1H149.36V461.5Z" class="cls-1"/>
            <path d="M220.2,457.75l-2.06,6.75a10.43,10.43,0,0,1-1.67,3.39A3,3,0,0,1,214,469a3.79,3.79,0,0,1-3.75-3.75,7.73,7.73,0,0,1,.75-3l14.25-46.48h.07a3.46,3.46,0,0,1,1-1.88,3.52,3.52,0,0,1,2.63-1.12,3.64,3.64,0,0,1,2.66,1.12,3.46,3.46,0,0,1,1,1.88h.08L247,462.25a7.73,7.73,0,0,1,.75,3A3.77,3.77,0,0,1,244,469a3,3,0,0,1-2.45-1.11,10.43,10.43,0,0,1-1.67-3.39l-2.06-6.75Zm15.33-7.49L229,428.81l-6.52,21.45Z" class="cls-1"/>
            <path d="M274.05,444.63h-9v20.62a3.75,3.75,0,0,1-7.5,0V416.52a3.79,3.79,0,0,1,3.75-3.75h17.81a16,16,0,0,1,3.75,31.45l10.68,17.28a7.17,7.17,0,0,1,1.5,3.75,3.73,3.73,0,0,1-6.39,2.64,9.49,9.49,0,0,1-1.86-2.64Zm5.06-24.36H265.05v16.87h14.06a8.44,8.44,0,0,0,0-16.87Z" class="cls-1"/>
            <path d="M320.36,420.27v45a3.75,3.75,0,0,1-7.5,0v-45H301.62a3.75,3.75,0,0,1,0-7.5h30a3.61,3.61,0,0,1,2.64,1.11,3.72,3.72,0,0,1,0,5.28,3.61,3.61,0,0,1-2.64,1.11Z" class="cls-1"/>
            <path d="M382.64,428.7a3.75,3.75,0,0,1-7.5,0,8.43,8.43,0,0,0-8.43-8.43h-5.62a8.44,8.44,0,0,0,0,16.87h5.62a15.93,15.93,0,0,1,0,31.86h-5.62a15.94,15.94,0,0,1-15.94-15.93,3.79,3.79,0,0,1,3.75-3.75,3.77,3.77,0,0,1,3.75,3.75,8.45,8.45,0,0,0,8.44,8.43h5.62a8.44,8.44,0,0,0,0-16.87h-5.62a15.93,15.93,0,1,1,0-31.86h5.62a15.94,15.94,0,0,1,15.93,15.93Z" class="cls-1"/>
        </g>
        <g id="Layer_2-2" data-name="Layer 2">
            <path d="M378.57,54c-5.86,5.25-18.86,16.35-26.22,7.31-6.93-27,27.62-34.69,46.86-38.15a89.41,89.41,0,0,1-13.76,16c.59-.34,9.86-5.07,9.88-5.11C396.31,38.71,381.3,51.51,378.57,54Z" class="cls-2"/>
            <circle cx="68.97" cy="338.93" r="15.7" class="cls-3"/>
            <circle cx="246.48" cy="243.2" r="15.7" class="cls-4"/>
            <circle cx="242.73" cy="289.8" r="15.7" class="cls-5"/>
            <circle cx="211.14" cy="324.65" r="15.7" class="cls-6"/>
            <circle cx="117.59" cy="348.77" r="15.7" class="cls-7"/>
            <circle cx="167.98" cy="346.54" r="15.7" class="cls-8"/>
            <path d="M231.81,214.46a15.71,15.71,0,0,1-28.25,2.42q13-8.69,25.91-17.64A15.71,15.71,0,0,1,231.81,214.46Z" class="cls-9"/>
            <path d="M347.12,21.62s7.5-1.64,8.48-2c-7.64,5-11.38,7.85-16.65,15-7,9.42-15.64,20-28.5,18.65l-2.21-2.37C296.29,31,352.72,6.53,362.23,2,358.6,8.59,353.92,17.75,347.12,21.62Z" class="cls-2"/>
            <path d="M343.18,75.92c-11.43,12.53-25.1,23.19-38.58,33.83L292.82,95.37l5.56-4.49c12.71-10.25,26.53-22.34,41.72-28.73C356.36,55.32,350.53,67.87,343.18,75.92Z" class="cls-10"/>
            <path d="M326.18,130.93l12.27-1.07a65.44,65.44,0,0,0-22.53,12.8c-7.1,6.2-19,16.76-28.22,6.85-3.86-19.3,41.4-37.26,55.85-33.22A197.16,197.16,0,0,0,326.18,130.93Z" class="cls-2"/>
            <path d="M302.06,69.56c-10.39,12.38-22.84,22.79-34.66,33.79L254.34,90.86c7.9-7.43,49.72-46,53.9-40l2.21,2.37C312,59.06,305.5,65.45,302.06,69.56Z" class="cls-10"/>
            <path d="M270.21,168.56q-11.29,9.19-23,17.92h0l-8.39-11.92,6.05-3.83c8.37-5.29,28.27-23.45,38.59-21.62C294.12,151,274,165.44,270.21,168.56Z" class="cls-10"/>
            <path d="M225.56,183c-2.25-1.06-4.54-2.06-6.85-3" class="cls-11"/>
            <line x1="188.03" x2="65.28" y1="181.23" y2="284.68" class="cls-12"/>
            <path d="M304.6,109.75c-4.8,3.78-9.57,7.56-14.21,11.43C267,140.69,243.55,161.64,218.71,180,210,186.44,201.1,192.56,192,198.2L94,273.11,71.42,290.36l22.82-16.29,89.64-63.94q20.79-13.65,41.68-27.13,6.58-4.25,13.2-8.44" class="cls-12"/>
            <path d="M292.82,95.37c-31.84,25.73-63.37,51.87-95,77.84q-4.87,4-9.77,8c2.83-2.78,5.67-5.55,8.49-8.33,21.14-20.69,42.3-41.37,63.26-62.25,2.49-2.48,5-4.91,7.62-7.3" class="cls-12"/>
            <path d="M84.42,252.22c-4.63-8.62-8.2-14.5-9.84-20.57-12.7-47.17,44.56-60.32,80.89-62.53a130.17,130.17,0,0,1,17.53.14" class="cls-11"/>
            <path d="M61.73,278.31l.05-.06q12-11.7,24-23.46,43.63-42.72,87.19-85.53,40-39.12,80.57-77.68l.77-.72" class="cls-12"/>
            <path d="M240.63,191.29c25.61,16.38,44.16,41.48,43.91,74.38C284,337.85,201.21,380.05,138.7,383.72,79.9,387.17,4.92,358.81,2.25,290.29c-.72-18.5,12.38-75.68,39.46-70.38C64.3,224.32,58,261.49,61.78,278.25c0,.13,0,.25.09.37a22.82,22.82,0,0,0,3.41,6.06,25.21,25.21,0,0,0,6.14,5.68c5.73,3.76,12.55,4.85,17.39,1.88l.14-.09.22-.14.15-.11" class="cls-11"/>
            <line x1="254.34" x2="254.33" y1="90.86" y2="90.86" class="cls-13"/>
            <path d="M247.15,186.48c-2.16,1.61-4.33,3.22-6.52,4.81q-7.63,5.58-15.4,11-12.84,9-25.91,17.64c-13.89,9.25-27.87,18.29-41.71,27.28C134.8,262,112.09,277,89.32,291.9l-.15.11a1.64,1.64,0,0,0-.22.14l-.14.09" class="cls-12"/>
            <line x1="254.43" x2="267.43" y1="91.06" y2="103.17" class="cls-12"/>
            <line x1="292.66" x2="304.64" y1="95.1" y2="109.93" class="cls-12"/>
            <line x1="238.6" x2="247.01" y1="174.42" y2="186.36" class="cls-12"/>
        </g>
    </g>
</svg>
