<svg xmlns="http://www.w3.org/2000/svg" viewBox="0 0 480.65 448.61">
    <defs>
        <style>
            .cls-1,.cls-3,.cls-4{fill:none;stroke-width:4px;}.cls-1,.cls-2{stroke:#fff;}.cls-1,.cls-2,.cls-3,.cls-4{stroke-linecap:round;stroke-linejoin:round;}.cls-3{stroke:#fff800;}.cls-4{stroke:#6ef989;}.cls-5{fill:#fff;}

            @-webkit-keyframes yellowOne {
                0% { stroke: #737518; }
                50% { stroke: #737518; }
                51% { stroke: #fff800; }
                100% { stroke: #fff800; }
            }

            .cls-3 {
                -webkit-animation: yellowOne 2s infinite;
            }

            @-webkit-keyframes greenOne {
                0% { stroke: #496f3c; }
                50% { stroke: #496f3c; }
                51% { stroke: #6ef989; }
                100% { stroke: #6ef989; }
            }

            .cls-4 {
                -webkit-animation: greenOne 2s infinite;
            }

            @-webkit-keyframes whiteOne {
                0% { stroke: #b3fbfe; }
                50% { stroke: #b3fbfe; }
                51% { stroke: #184f50; }
                100% { stroke: #184f50; }
            }

            .cls-1, .cls-2 {
                -webkit-animation: whiteOne 2s infinite;
            }

            @-webkit-keyframes textOne {
                0% { stroke: #5a3172; fill: #5a3172}
                50% { stroke: #5a3172; fill: #5a3172}
                51% { stroke: #e2aff9; fill: #e2aff9}
                100% { stroke: #e2aff9; fill: #e2aff9}
            }

            .cls-5 {
                -webkit-animation: textOne 1s infinite;
            }
        </style>
    </defs>
    <title>
        MUSIC FINAL SEND
    </title>
    <g id="Layer_2" data-name="Layer 2">
        <g id="Layer_1-2" data-name="Layer 1">
            <polygon points="184.77 175.15 367.81 64.26 384.29 86.53 205.38 201.03 184.77 175.15" class="cls-1"/>
            <path d="M478.25,35.76s5.79,25.38-27.16,18.7c-3.56,1.34-18.71,22.27-35.63,27.61l-31.17,4.46L367.81,64.26S375.38,54,384.29,50L463.11,26.4S475.58,24.62,478.25,35.76Z" class="cls-1"/>
            <path d="M214.9,212.12c2.08,4.55,5.31,9.27,9.57,12a11.25,11.25,0,0,0,4.73,1.77,19.13,19.13,0,0,0,4.89-.33c4-.61,8-1.57,12-2.44a127.08,127.08,0,0,1,13.13-2.34,26.51,26.51,0,0,1,10.16.48,11.79,11.79,0,0,1,3.57,1.63,7.45,7.45,0,0,1,3.32,6.47c-.17,5.24-4.12,10.07-7.42,13.78a103.43,103.43,0,0,1-11.12,10.53c-2.18,1.81-4.29,3.51-7.08,4.28a34,34,0,0,1-4.61.72c-7.33.94-14.64,2-21.84,3.67A103.86,103.86,0,0,0,197.68,272a67.51,67.51,0,0,0-6.28,3.88,20,20,0,0,0-4.45,3.79c-1.75,2.19-3.46,4.4-5.15,6.63a191.47,191.47,0,0,0-14.47,21.35c-1.48,2.65-2.59,5.51-4.17,8.1a51.71,51.71,0,0,1-5.41,7.18,90.33,90.33,0,0,1-18.31,15.7,79.1,79.1,0,0,1-25.37,11.18,58.9,58.9,0,0,1-14.19,1.55c-2.14,0-4.26-.23-6.41-.25a40.31,40.31,0,0,1-11.73-1.94,76.24,76.24,0,0,1-20.47-10.48Q58,336.4,54.9,333.93a82.36,82.36,0,0,1-7-5.9c-.62-.62-1.16-1.34-1.72-2q-4.75-5.65-9.31-11.45c-4.64-5.92-9.12-12-13.37-18.18A186.42,186.42,0,0,1,11,275.76,90.23,90.23,0,0,1,6.53,265.7a38,38,0,0,1-2.14-7.76c-.41-3-1-6-1.34-9a133.52,133.52,0,0,1-1-18.1A97.09,97.09,0,0,1,4.8,208.24,63.86,63.86,0,0,1,15,186a86.44,86.44,0,0,1,8.44-9.41,56.93,56.93,0,0,1,10.61-8.32,60.6,60.6,0,0,1,19.69-7.76,62.65,62.65,0,0,1,13-1.2,67.07,67.07,0,0,1,7.37.5q1.92.24,3.81.57a19.29,19.29,0,0,0,3.39.65c1.3,0,2.63-.16,3.94-.17,2.7,0,5.4-.05,8.1-.19,7.35-.39,14.79-1.44,21.69-4.11a35,35,0,0,0,9.92-5.7c1.07-.91,2-2.06,3-2.93a6.4,6.4,0,0,0,.77-.7c2.73-2.95,5-6.35,7.47-9.53,4.06-5.24,8.21-10.41,12.61-15.36a118,118,0,0,1,15.21-14.69c4.5-3.51,9.73-6.93,15.5-7.73a15.2,15.2,0,0,1,3.63-.07,23.67,23.67,0,0,0,4.61,0,35.23,35.23,0,0,1,4.36-.13,22.58,22.58,0,0,1,10.68,2.91,21.73,21.73,0,0,1,9,11.65c2.79,7.78,2.79,16.43,2.11,24.55" class="cls-1"/>
            <path d="M173.93,219l-19.3-28.21s-8.31,0-5.34,11.28c8,11.88,13.36,20.79,13.36,20.79S177.2,229,173.93,219Z" class="cls-1"/>
            <path d="M88.72,228.74l21.08,30.58s3,10.69-3.56,14c-4.53,2.41-14.25-.3-17.52-3.56l-16.63-29.4s.3-8,5.64-11.58S88.72,228.74,88.72,228.74Z" class="cls-1"/>
            <circle cx="379.54" cy="31.09" r="6.61" class="cls-1"/>
            <circle cx="403.59" cy="22.74" r="6.61" class="cls-1"/>
            <circle cx="454.84" cy="8.61" r="6.61" class="cls-1"/>
            <circle cx="428.91" cy="15.55" r="6.61" class="cls-1"/>
            <line x1="371.2" x2="94.69" y1="68.84" y2="237.41" class="cls-2"/>
            <line x1="374.96" x2="98.5" y1="73.92" y2="242.93" class="cls-2"/>
            <line x1="378.25" x2="101.44" y1="78.37" y2="247.19" class="cls-2"/>
            <line x1="381.48" x2="105.23" y1="82.73" y2="252.69" class="cls-2"/>
            <path d="M248.84,18.59s-7.49,66.83-24.2,59.92-9-28.23,12.1-21.32" class="cls-3"/>
            <path d="M254.41,8.61s-7.68,17.09,38.22,25.16C285.91,44.9,271.5,69.1,271.5,69.1s.2,12.48-10.37,14-24-32.26,6.92-17.48" class="cls-3"/>
            <path d="M141.57,67s-17,2.48-15.28-26.95c-7.16,17.19-13.65,41-21.85,45.82C92.74,85.24,74.62,75.74,76,110.47s44.05-9.22,28.21-17.69" class="cls-4"/>
            <path d="M147.32,388.15v56.14a4.12,4.12,0,0,1-1.27,3,4.26,4.26,0,0,1-6.09,0,4.12,4.12,0,0,1-1.27-3V417l-8.64,28.2H130a4,4,0,0,1-1.16,2.16,4.19,4.19,0,0,1-3.07,1.3,4,4,0,0,1-3-1.3,3.87,3.87,0,0,1-1.21-2.16h-.09L112.78,417v27.34a4.32,4.32,0,0,1-8.64,0V388.15a4.22,4.22,0,0,1,1.29-3.07,4.16,4.16,0,0,1,3-1.25,4.26,4.26,0,0,1,3.06,1.25,8,8,0,0,1,1.69,3.93l12.52,41.12L138.25,389a15.81,15.81,0,0,1,1.95-3.93,3.45,3.45,0,0,1,2.8-1.25,4.35,4.35,0,0,1,4.32,4.32Z" class="cls-5"/>
            <path d="M158.61,388.15a4.32,4.32,0,0,1,8.64,0V427a13,13,0,0,0,25.91,0V388.15a4.32,4.32,0,0,1,8.64,0V427a21.6,21.6,0,0,1-43.19,0Z" class="cls-5"/>
            <path d="M256.27,402.19a4.32,4.32,0,0,1-8.64,0,9.73,9.73,0,0,0-9.71-9.72h-6.48a9.72,9.72,0,0,0,0,19.43h6.48a18.36,18.36,0,0,1,0,36.71h-6.48a18.35,18.35,0,0,1-18.35-18.36,4.32,4.32,0,0,1,8.63,0,9.73,9.73,0,0,0,9.72,9.72h6.48a9.72,9.72,0,0,0,0-19.43h-6.48a18.36,18.36,0,0,1,0-36.71h6.48a18.37,18.37,0,0,1,18.35,18.36Z" class="cls-5"/>
            <path d="M284.83,440v-47.5H271.88a4.17,4.17,0,0,1-3.05-1.28,4.27,4.27,0,0,1,0-6.08,4.17,4.17,0,0,1,3.05-1.28h34.55a4.32,4.32,0,0,1,0,8.64h-13V440h13a4.34,4.34,0,0,1,4.31,4.32,4.35,4.35,0,0,1-4.31,4.32H271.88a4.17,4.17,0,0,1-3.05-1.28,4.29,4.29,0,0,1,0-6.09,4.2,4.2,0,0,1,3.05-1.27Z" class="cls-5"/>
            <path d="M356.58,427a4.34,4.34,0,0,1,4.32-4.32,4.35,4.35,0,0,1,4.32,4.32A21.6,21.6,0,0,1,322,427v-21.6a21.6,21.6,0,0,1,43.19,0,4.32,4.32,0,0,1-8.64,0,13,13,0,0,0-25.91,0V427a13,13,0,0,0,25.91,0Z" class="cls-5"/>
        </g>
    </g>
</svg>
