<svg xmlns="http://www.w3.org/2000/svg" xmlns:xlink="http://www.w3.org/1999/xlink" viewBox="0 0 620 578">
    <defs>
        <style>
            .cls-1,.cls-3,.cls-4{fill:none;}.cls-1,.cls-2{stroke:#fff;stroke-width:2px;}.cls-1,.cls-2,.cls-3,.cls-4{stroke-miterlimit:10;}.cls-3{stroke:#fff800;}.cls-3,.cls-4{stroke-width:3px;}.cls-4{stroke:#6ef989;}.cls-5{fill:#e2aff9;}

            svg {
                background: black;
            }

            @-webkit-keyframes yellowOne {
                0% { stroke: #737518; }
                33% { stroke: #737518; }
                34% { stroke: #fff800; }
                66% { stroke: #fff800; }
                67% { stroke: #737518; }
                100% { stroke: #737518; }
            }

            .yellowMusic {
                -webkit-animation: yellowOne 2s infinite;
            }

            @-webkit-keyframes greenOne {
                0% { stroke: #496f3c; }
                33% { stroke: #496f3c; }
                34% { stroke: #6ef989; }
                66% { stroke: #6ef989; }
                67% { stroke: #496f3c; }
                100% { stroke: #496f3c; }
            }

            .greenMusic {
                -webkit-animation: greenOne 2s infinite;
            }

            @-webkit-keyframes whiteOne {
                0% { stroke: #b3fbfe; }
                33% { stroke: #b3fbfe; }
                34% { stroke: #184f50; }
                100% { stroke: #184f50; }
            }

            .guitar {
                -webkit-animation: whiteOne 2s infinite;
            }

            @-webkit-keyframes textOne {
                0% { stroke: #5a3172; fill: #5a3172}
                66% { stroke: #5a3172; fill: #5a3172}
                67% { stroke: #e2aff9; fill: #e2aff9}
                100% { stroke: #e2aff9; fill: #e2aff9}
            }

            .textStuff {
                -webkit-animation: textOne 2s infinite;
            }
        </style>
    </defs>
    <title>
        Asset 1
    </title>
    <g id="Layer_2" data-name="Layer 2">
        <g id="Layer_1-2" data-name="Layer 1">
            <polygon points="247.5 240.5 453 116 471.5 141 270.65 269.55 247.5 240.5" class="cls-1 guitar"/>
            <path d="M577,84s6.5,28.5-30.5,21c-4,1.5-21,25-40,31l-35,5L453,116s8.5-11.5,18.5-16L560,73.5S574,71.5,577,84Z" class="cls-1 guitar"/>
            <path d="M281.33,282s7.17,16,17.67,15.5,33.25-8.69,43.5-5.24c0,0,25.28,5.48-15.48,38.35a15.24,15.24,0,0,1-7.49,3.23c-12.54,1.71-45.61,4.63-67.87,22.13a8,8,0,0,0-1.2,1.2c-3.21,4-19.82,25-25.46,37.83-6.25,14.25-40.5,46.75-77.75,43-4.5,0-22.58,1.67-53.58-26-1-1.33-43.34-49.67-48.67-78.33,0-2.67-13.33-59,19.33-89.34,0,0,23.67-29.33,67-19.66,2-1,37,3,52.34-14.67,2.61-.33,38.08-56.9,62.25-54a17,17,0,0,0,3.91,0c8.56-.92,34.35-2.2,30.5,43.66" class="cls-1 guitar"/>
            <path d="M235.33,289.67,213.67,258s-9.34,0-6,12.67c9,13.33,15,23.33,15,23.33S239,301,235.33,289.67Z" class="cls-1 guitar"/>
            <path d="M139.67,300.67,163.33,335s3.34,12-4,15.67c-5.08,2.71-16-.34-19.66-4l-18.67-33s.33-9,6.33-13S139.67,300.67,139.67,300.67Z" class="cls-1 guitar"/>
            <circle cx="466.18" cy="78.76" r="7.42" class="cls-1 guitar"/>
            <circle cx="493.18" cy="69.39" r="7.42" class="cls-1 guitar"/>
            <circle cx="550.71" cy="49.52" r="7.42" class="cls-1 guitar"/>
            <circle cx="521.6" cy="59.31" r="7.42" class="cls-1 guitar"/>
            <line x1="456.81" x2="146.37" y1="121.14" y2="310.4" class="cls-2 guitar"/>
            <line x1="461.03" x2="150.64" y1="126.85" y2="316.59" class="cls-2 guitar"/>
            <line x1="464.72" x2="153.95" y1="131.84" y2="321.38" class="cls-2 guitar"/>
            <line x1="468.35" x2="158.2" y1="136.74" y2="327.55" class="cls-2 guitar"/>
            <path d="M304.77,93.32s-6.51,58.06-21,52.05-7.84-24.52,10.51-18.51" class="cls-3 yellowMusic"/>
            <path d="M309.61,84.65s-6.68,14.85,33.2,21.85c-5.84,9.68-18.35,30.7-18.35,30.7s.17,10.84-9,12.18-20.85-28,6-15.18" class="cls-3 yellowMusic"/>
            <path d="M192.68,123.47s-14.24,2.07-12.8-22.56c-6,14.39-11.42,34.35-18.29,38.35-9.79-.49-25-8.44-23.83,20.63s36.88-7.72,23.62-14.81" class="cls-4 greenMusic"/>
            <path d="M103.94,537.94a2.6,2.6,0,0,1-2.14-.9,6.23,6.23,0,0,1-1-3.95v-53.3l-7.88-1L80.58,528c-.78,3.07-1.41,5.33-1.88,6.71a5.8,5.8,0,0,1-1.71,2.4,4.5,4.5,0,0,1-3,.82,4.77,4.77,0,0,1-2.52-.58,4.56,4.56,0,0,1-1.59-1.62,12.82,12.82,0,0,1-1.27-3.14c-.41-1.48-.82-3-1.23-4.63L55,478.82l-7.88,1v53.3a6.28,6.28,0,0,1-1,4,2.71,2.71,0,0,1-2.26.88,2.68,2.68,0,0,1-2.21-.89c-.61-.67-.95-2.08-.95-4V472c0-2.16.45-3.22.86-3.5a8.91,8.91,0,0,1,4.88-1.09h4.85a14.4,14.4,0,0,1,4.86.51,1.32,1.32,0,0,1,.78.8,40.43,40.43,0,0,1,1.92,6L74,531.63l15.08-56.87a40.3,40.3,0,0,1,1.92-6,1.32,1.32,0,0,1,.78-.8,14.46,14.46,0,0,1,4.86-.51h4.85a8.91,8.91,0,0,1,4.88,1.09c.42.28.86,1.34.86,3.5v61.09a6.28,6.28,0,0,1-1,4A2.72,2.72,0,0,1,103.94,537.94Z" class="cls-5 textStuff"/>
            <path d="M161,537.94a49.93,49.93,0,0,1-14.18-1.76,20.74,20.74,0,0,1-8.81-4.95,20.28,20.28,0,0,1-4.94-8.64,49,49,0,0,1-1.72-13.88V471.58c0-2.1.38-3.63,1.1-4.44a3.21,3.21,0,0,1,2.64-1,3.41,3.41,0,0,1,2.8,1c.72.81,1.1,2.34,1.1,4.44v38a38.94,38.94,0,0,0,1.65,12.09,16.53,16.53,0,0,0,6.75,8.83c3.15,2,7.24,3,12.51,3,7.37,0,12.79-2.16,16.11-6.42,3.12-4,4.63-9.64,4.63-17.23V471.58c0-2.1.39-3.69,1.08-4.46a3.22,3.22,0,0,1,2.67-1,3.42,3.42,0,0,1,2.78,1.07c.73.78,1.11,2.3,1.11,4.41v37.13a51.46,51.46,0,0,1-1.6,14,19.28,19.28,0,0,1-5.55,8.84,22.11,22.11,0,0,1-8.29,4.8A39.16,39.16,0,0,1,161,537.94Z" class="cls-5 textStuff"/>
            <path d="M237.24,537.94c-6.87,0-12.54-1.27-16.85-3.78a21,21,0,0,1-7.19-7,15,15,0,0,1-2.66-7.94,2.74,2.74,0,0,1,.84-2.08,2.67,2.67,0,0,1,2.16-.82,1.93,1.93,0,0,1,1.47.52,8.38,8.38,0,0,1,1.91,3.2,34.8,34.8,0,0,0,3.63,7,16.78,16.78,0,0,0,6.27,5.36,21.34,21.34,0,0,0,10,2.06c5.49,0,10.1-1.36,13.68-4a13.74,13.74,0,0,0,6-11.29,12.43,12.43,0,0,0-3.48-9,19.14,19.14,0,0,0-7.63-4.65,105.31,105.31,0,0,0-10.33-2.8,69,69,0,0,1-13.13-4.29,18.33,18.33,0,0,1-7.36-5.84,14.43,14.43,0,0,1-2.52-8.83,15.15,15.15,0,0,1,2.75-9,17.84,17.84,0,0,1,8.28-6.2,37.3,37.3,0,0,1,14-2.37,34.54,34.54,0,0,1,11,1.55,22.25,22.25,0,0,1,7.3,3.94,15.82,15.82,0,0,1,4,4.86,10.22,10.22,0,0,1,1.17,4.5,3.38,3.38,0,0,1-1,2.38,2.32,2.32,0,0,1-1.92.89,2.64,2.64,0,0,1-1.31-.22,13.89,13.89,0,0,1-2.23-3.34,24.11,24.11,0,0,0-6.07-8.08c-2.73-2.27-6.67-3.37-12-3.37-4.87,0-8.94,1.15-12.09,3.41-4.45,3.18-5.39,7-5.39,9.65a10.41,10.41,0,0,0,2.07,6.4,14.6,14.6,0,0,0,4.75,4,27.58,27.58,0,0,0,5.24,2.21c1.58.48,4.16,1.17,7.66,2.05a115.6,115.6,0,0,1,11.48,3.27,32,32,0,0,1,8,4,14.38,14.38,0,0,1,4.56,5.24,17.61,17.61,0,0,1,1.63,8,18.56,18.56,0,0,1-3,10.41,19.85,19.85,0,0,1-8.85,7.28A35.81,35.81,0,0,1,237.24,537.94Z" class="cls-5 textStuff"/>
            <path d="M289.53,537.94a3.23,3.23,0,0,1-2.6-1.09c-.94-1-1.14-3-1.14-4.44V471.58c0-2.09.39-3.62,1.12-4.42a3.23,3.23,0,0,1,2.62-1.06,3.43,3.43,0,0,1,2.79,1.07c.73.78,1.11,2.3,1.11,4.41v60.83c0,2.11-.39,3.65-1.12,4.45A3.44,3.44,0,0,1,289.53,537.94Z" class="cls-5 textStuff"/>
            <path d="M349.1,537.94a45.62,45.62,0,0,1-10.21-1.06,27.27,27.27,0,0,1-7.93-3.14,26.63,26.63,0,0,1-6.52-5.62,34.46,34.46,0,0,1-4.65-7.27,38.81,38.81,0,0,1-2.93-8.71,48.44,48.44,0,0,1-1-10,44.54,44.54,0,0,1,2.46-15.31,32,32,0,0,1,6.89-11.22,30.09,30.09,0,0,1,10.47-7,34.46,34.46,0,0,1,13-2.45,32.4,32.4,0,0,1,14.87,3.3,26.38,26.38,0,0,1,9.78,8c2.09,3,3.16,5.69,3.16,8.09a2.78,2.78,0,0,1-.84,2,2,2,0,0,1-1.64.76,3.11,3.11,0,0,1-1.75-.32,15.53,15.53,0,0,1-2.56-3.87,27.62,27.62,0,0,0-8.46-10,21.49,21.49,0,0,0-12.46-3.55,22.36,22.36,0,0,0-18.5,8.86c-4.36,5.57-6.56,13.4-6.56,23.26,0,6.51.95,12.08,2.84,16.54a22.91,22.91,0,0,0,8.7,10.74,23.73,23.73,0,0,0,13,3.58,23,23,0,0,0,13.73-4.1,24.21,24.21,0,0,0,8.46-11.69l0-.13a12.86,12.86,0,0,1,1.85-3.79,2.33,2.33,0,0,1,1.56-.36,2.67,2.67,0,0,1,2,.82,2.54,2.54,0,0,1,.79,2,16.92,16.92,0,0,1-1.5,6.42,25,25,0,0,1-4.94,7.24,25.53,25.53,0,0,1-8.61,5.78A32,32,0,0,1,349.1,537.94Z" class="cls-5 textStuff"/>
        </g>
    </g>
</svg>
