<svg xmlns="http://www.w3.org/2000/svg" xmlns:xlink="http://www.w3.org/1999/xlink" viewBox="0 0 183 213">
    <defs>
        <style>
            .cls-1,.cls-2,.cls-3{fill:none;}.cls-2{stroke:#ff1049;}.cls-2,.cls-3{stroke-miterlimit:10;}.cls-3{stroke:#fff;}.cls-4{fill:aqua;}

            svg {
                background: black;
            }

            @-webkit-keyframes y {
                0% { stroke: #8a0022; }
                33% { stroke: #8a0022; }
                34% { stroke: #ff1049; }
                66% { stroke: #ff1049; }
                67% { stroke: #8a0022; }
                100% { stroke: #8a0022; }
            }

            .pathStuff {
                -webkit-animation: y 2s infinite;
            }

            @-webkit-keyframes whiteOne {
                0% { stroke: #fff; }
                33% { stroke: #fff; }
                34% { stroke: #7f7979; }
                100% { stroke: #7f7979; }
            }

            .mic-path {
                -webkit-animation: whiteOne 2s infinite;
            }

            @-webkit-keyframes textOne {
                0% { stroke: #21ada6; fill: #21ada6}
                66% { stroke: #21ada6; fill: #21ada6}
                67% { stroke: aqua; fill: aqua}
                100% { stroke: aqua; fill: aqua}
            }

            .textStuff {
                -webkit-animation: textOne 2s infinite;
            }

        </style>
    </defs>
    <title>
        Asset 2
    </title>
    <g id="Layer_2" data-name="Layer 2">
        <g id="Layer_2-2" data-name="Layer 2">
            <path d="M107.43,53.28v-.23c0,.08,0,.15,0,.23Z" class="cls-1"/>
            <path d="M113.33,55.49A53.56,53.56,0,0,1,96.42,157.82V134.38s17.65-4.67,17.65-20.34V95.56" class="cls-2 pathStuff"/>
            <path d="M70.1,95.56V114A18.31,18.31,0,0,0,75.3,127a29.75,29.75,0,0,0,12.45,7.41v23.51A53.55,53.55,0,0,1,70.83,55.14" class="cls-2 pathStuff"/>
            <path d="M107.42,53.13c0-.08,0-.15,0-.23a15.18,15.18,0,0,0-30.36-.1" class="mic-path cls-3"/>
            <path d="M77.06,113.3a14.59,14.59,0,0,0,29.18,0" class="mic-path cls-3"/>
            <path d="M107.42,53.13h0v50.7" class="mic-path cls-3"/>
            <path d="M77.06,52.9v60.4" class="mic-path cls-3"/>
            <line x1="82.41" x2="102.41" y1="93.87" y2="93.87" class="mic-path cls-3"/>
            <line x1="82.41" x2="82.41" y1="50.42" y2="89.16" class="mic-path cls-3"/>
            <line x1="88.79" x2="88.79" y1="44.73" y2="89.16" class="mic-path cls-3"/>
            <line x1="95.54" x2="95.54" y1="44.73" y2="89.16" class="mic-path cls-3"/>
            <line x1="102.41" x2="102.41" y1="50.42" y2="89.16" class="mic-path cls-3"/>
            <path d="M53.81,162.45a7.29,7.29,0,0,0-2.72.48,5.59,5.59,0,0,0-2,1.38,6,6,0,0,0-1.27,2.18,8.41,8.41,0,0,0-.44,2.81,9,9,0,0,0,.42,2.79A6.06,6.06,0,0,0,49,174.3a5.51,5.51,0,0,0,2.06,1.42,7.28,7.28,0,0,0,2.8.51,7.55,7.55,0,0,0,2.79-.49,5.52,5.52,0,0,0,2.05-1.42A5.94,5.94,0,0,0,60,172.13a8.87,8.87,0,0,0,.42-2.81,8.16,8.16,0,0,0-.76-3.64,5.47,5.47,0,0,0-2.25-2.39A7.13,7.13,0,0,0,53.81,162.45Zm3.84,6.85a6.08,6.08,0,0,1-.52,2.67,3.59,3.59,0,0,1-1.38,1.6,3.82,3.82,0,0,1-3.39.21,3.33,3.33,0,0,1-1.19-.9,4.16,4.16,0,0,1-.81-1.52,6.93,6.93,0,0,1-.29-2.06,6.77,6.77,0,0,1,.29-2,4.24,4.24,0,0,1,.78-1.48,3.21,3.21,0,0,1,1.18-.89,3.67,3.67,0,0,1,1.49-.3,3.71,3.71,0,0,1,2,.55,3.52,3.52,0,0,1,1.35,1.62A6.31,6.31,0,0,1,57.65,169.3Z" class="cls-4 textStuff"/>
            <path d="M66.32,170.3a3.41,3.41,0,0,1,1.19.19,2.75,2.75,0,0,1,.93.71,10.86,10.86,0,0,1,1,1.51l1.08,1.8q.38.63.6,1a2.1,2.1,0,0,0,.53.54,1.27,1.27,0,0,0,.77.22,1.44,1.44,0,0,0,.67-.15,1.22,1.22,0,0,0,.46-.41,1,1,0,0,0,.17-.52,3.16,3.16,0,0,0-.29-.94,12,12,0,0,0-.8-1.51,11.21,11.21,0,0,0-1.17-1.59A4.83,4.83,0,0,0,70.13,170a4.8,4.8,0,0,0,2.55-1.27,3.33,3.33,0,0,0,.84-2.38,3.7,3.7,0,0,0-.25-1.37,3.23,3.23,0,0,0-.73-1.14,3.38,3.38,0,0,0-1.11-.76,3.73,3.73,0,0,0-1.16-.31,13.66,13.66,0,0,0-1.56-.08H64.33a1.42,1.42,0,0,0-1.66,1.65v10.25a1.84,1.84,0,0,0,.36,1.23,1.23,1.23,0,0,0,1,.42,1.29,1.29,0,0,0,1-.4,1.78,1.78,0,0,0,.37-1.25V170.3Zm1.54-5.59a5.39,5.39,0,0,1,1.86.2,1.64,1.64,0,0,1,.78.63,1.71,1.71,0,0,1,.29,1,1.67,1.67,0,0,1-.35,1.12,1.92,1.92,0,0,1-1,.57,6.79,6.79,0,0,1-1.63.17H65.37v-3.66Z" class="cls-4 textStuff"/>
            <path d="M84.6,174.49q.12.31.3.72a3.26,3.26,0,0,0,.33.59,1,1,0,0,0,.38.31,1.2,1.2,0,0,0,.55.12,1.27,1.27,0,0,0,.93-.39,1.18,1.18,0,0,0,.39-.85,4.32,4.32,0,0,0-.41-1.42L83.59,165c-.17-.43-.3-.77-.41-1a3.13,3.13,0,0,0-.39-.72,1.63,1.63,0,0,0-.61-.55,2.1,2.1,0,0,0-1.87,0,1.82,1.82,0,0,0-.61.56,4.58,4.58,0,0,0-.43.86c-.14.35-.26.65-.35.9l-3.41,8.65q-.21.51-.3.81a1.87,1.87,0,0,0-.09.56,1.13,1.13,0,0,0,.39.84,1.27,1.27,0,0,0,.9.38,1,1,0,0,0,.86-.35,6.13,6.13,0,0,0,.64-1.35l.63-1.71H84Zm-5.35-3.7,2-5.49,2,5.49Z" class="cls-4 textStuff"/>
            <path d="M96.47,164.91a1.56,1.56,0,0,0,1-.31,1,1,0,0,0,.34-.8,1,1,0,0,0-.34-.81,1.49,1.49,0,0,0-1-.31H87.89a1.5,1.5,0,0,0-1,.3,1,1,0,0,0-.35.82,1,1,0,0,0,.34.8,1.48,1.48,0,0,0,1,.31h3v9.67a1.74,1.74,0,0,0,.38,1.24,1.35,1.35,0,0,0,1.94,0,1.82,1.82,0,0,0,.37-1.24v-9.67Z" class="cls-4 textStuff"/>
            <path d="M105.07,162.45a7.3,7.3,0,0,0-2.73.48,5.47,5.47,0,0,0-2,1.38A5.91,5.91,0,0,0,99,166.49a8.67,8.67,0,0,0-.44,2.81,9,9,0,0,0,.42,2.79,6.06,6.06,0,0,0,1.25,2.21,5.51,5.51,0,0,0,2.06,1.42,7.31,7.31,0,0,0,2.8.51,7.55,7.55,0,0,0,2.79-.49,5.44,5.44,0,0,0,2-1.42,6.1,6.1,0,0,0,1.26-2.19,8.87,8.87,0,0,0,.42-2.81,8.16,8.16,0,0,0-.77-3.64,5.47,5.47,0,0,0-2.25-2.39A7.09,7.09,0,0,0,105.07,162.45Zm3.83,6.85a6.23,6.23,0,0,1-.51,2.67,3.47,3.47,0,0,1-3.29,2.11,3.59,3.59,0,0,1-1.48-.3,3.45,3.45,0,0,1-1.2-.9,4.16,4.16,0,0,1-.81-1.52,6.93,6.93,0,0,1-.29-2.06,6.77,6.77,0,0,1,.29-2,4.24,4.24,0,0,1,.78-1.48,3.21,3.21,0,0,1,1.18-.89,3.93,3.93,0,0,1,3.51.25,3.52,3.52,0,0,1,1.35,1.62A6.31,6.31,0,0,1,108.9,169.3Z" class="cls-4 textStuff"/>
            <path d="M117.57,170.3a3.37,3.37,0,0,1,1.19.19,2.75,2.75,0,0,1,.93.71,10.06,10.06,0,0,1,1,1.51l1.08,1.8c.26.42.46.74.61,1a1.82,1.82,0,0,0,.53.54,1.24,1.24,0,0,0,.76.22,1.44,1.44,0,0,0,.67-.15,1.15,1.15,0,0,0,.46-.41,1,1,0,0,0,.17-.52,3.16,3.16,0,0,0-.29-.94,10.78,10.78,0,0,0-.8-1.51,12,12,0,0,0-1.16-1.59,5,5,0,0,0-1.38-1.12,4.8,4.8,0,0,0,2.55-1.27,3.33,3.33,0,0,0,.84-2.38,3.7,3.7,0,0,0-.25-1.37,3.1,3.1,0,0,0-.73-1.14,3.38,3.38,0,0,0-1.11-.76,3.73,3.73,0,0,0-1.16-.31,13.6,13.6,0,0,0-1.55-.08h-4.39a1.41,1.41,0,0,0-1.65,1.65v10.25a1.84,1.84,0,0,0,.35,1.23,1.24,1.24,0,0,0,1,.42,1.29,1.29,0,0,0,1-.4,1.78,1.78,0,0,0,.37-1.25V170.3Zm1.54-5.59a5.5,5.5,0,0,1,1.87.2,1.74,1.74,0,0,1,.78.63,1.78,1.78,0,0,1,.28,1,1.67,1.67,0,0,1-.35,1.12,1.89,1.89,0,0,1-1,.57,6.94,6.94,0,0,1-1.64.17h-2.42v-3.66Z" class="cls-4 textStuff"/>
            <path d="M129.59,174.58a1.77,1.77,0,0,0,.37,1.24,1.26,1.26,0,0,0,1,.41,1.3,1.3,0,0,0,1-.41,1.79,1.79,0,0,0,.38-1.24v-4.22l3.33-5.12a8.06,8.06,0,0,0,.59-1,1.51,1.51,0,0,0,.17-.71,1,1,0,0,0-.34-.76,1.13,1.13,0,0,0-.85-.34,1.18,1.18,0,0,0-.55.12,1.31,1.31,0,0,0-.41.34,3.21,3.21,0,0,0-.34.48l-.39.63-2.51,4-2.49-4a9,9,0,0,0-.86-1.25,1.08,1.08,0,0,0-.84-.32,1.28,1.28,0,0,0-.89.34,1.05,1.05,0,0,0-.36.8,1.56,1.56,0,0,0,.18.66,10.15,10.15,0,0,0,.61,1.07l3.25,5Z" class="cls-4 textStuff"/>
        </g>
    </g>
</svg>
