<svg xmlns="http://www.w3.org/2000/svg" viewBox="0 0 174.31 240.93">
    <defs>
        <style>
            .cls-1,.cls-2,.cls-3,.cls-4{fill:none;}.cls-2,.cls-3{stroke:#fff;}.cls-2,.cls-3,.cls-4{stroke-miterlimit:10;stroke-width:4px;}.cls-3,.cls-4{stroke-linecap:round;}.cls-4{stroke:#ff1049;}.cls-5{fill:#06f9f9;}

            @-webkit-keyframes y {
                0% { stroke: #8a0022; }
                50% { stroke: #8a0022; }
                51% { stroke: #ff1049; }
                100% { stroke: #ff1049; }
            }

            .cls-4 {
                -webkit-animation: y 2s infinite;
            }

            @-webkit-keyframes whiteOne {
                0% { stroke: #fff; }
                50% { stroke: #fff; }
                51% { stroke: #7f7979; }
                100% { stroke: #7f7979; }
            }

            .cls-3, .cls-2 {
                -webkit-animation: whiteOne 2s infinite;
            }

            @-webkit-keyframes textOne {
                0% { stroke: #21ada6; fill: #21ada6}
                50% { stroke: #21ada6; fill: #21ada6}
                51% { stroke: aqua; fill: aqua}
                100% { stroke: aqua; fill: aqua}
            }

            .cls-5 {
                -webkit-animation: textOne 1s infinite;
            }
        </style>
    </defs>
    <title>
        Asset 13
    </title>
    <g id="Layer_2" data-name="Layer 2">
        <g id="Layer_2-2" data-name="Layer 2">
            <path d="M112.23,26.51v-.37c0,.12,0,.24,0,.37Z" class="cls-1"/>
            <path d="M112.21,26.27c0-.12,0-.24,0-.36A24.14,24.14,0,0,0,64,25.74" class="cls-2"/>
            <line x1="72.45" x2="104.25" y1="91.04" y2="91.04" class="cls-3"/>
            <path d="M121.6,30A85.15,85.15,0,0,1,94.72,192.71V155.44s28.06-7.42,28.06-32.34V93.72" class="cls-4"/>
            <path d="M52.88,93.72V123.1a29.11,29.11,0,0,0,8.26,20.56c8.29,8.73,19.8,11.78,19.8,11.78v37.38A85.14,85.14,0,0,1,54,29.46" class="cls-4"/>
            <path d="M112.21,26.27h0v80.6" class="cls-3"/>
            <line x1="63.95" x2="63.95" y1="25.91" y2="121.94" class="cls-3"/>
            <line x1="72.45" x2="72.45" y1="21.97" y2="83.56" class="cls-3"/>
            <line x1="82.59" x2="82.59" y1="12.91" y2="83.56" class="cls-3"/>
            <line x1="93.32" x2="93.32" y1="12.91" y2="83.56" class="cls-3"/>
            <line x1="104.25" x2="104.25" y1="21.97" y2="83.56" class="cls-3"/>
            <path d="M112.21,121.24c0,.12,0,.24,0,.36a24.14,24.14,0,0,1-48.27.17" class="cls-3"/>
            <path d="M33.11,231.1a9.83,9.83,0,0,1-9.83,9.83,9.46,9.46,0,0,1-7-2.88,9.45,9.45,0,0,1-2.89-7v-9.84a9.45,9.45,0,0,1,2.89-6.95,9.46,9.46,0,0,1,7-2.88,9.83,9.83,0,0,1,9.83,9.83Zm-15.73,0a5.91,5.91,0,0,0,5.9,5.9,5.91,5.91,0,0,0,5.9-5.9v-9.84a5.91,5.91,0,0,0-5.9-5.9,5.91,5.91,0,0,0-5.9,5.9Z" class="cls-5"/>
            <path d="M46.91,228.15H42.19V239a1.87,1.87,0,0,1-.58,1.38A2,2,0,0,1,38.25,239V213.4a1.93,1.93,0,0,1,.58-1.39,1.89,1.89,0,0,1,1.39-.58h9.34a8.37,8.37,0,0,1,2,16.5L57.14,237a3.75,3.75,0,0,1,.78,2,2,2,0,0,1-2,2,1.89,1.89,0,0,1-1.39-.58,5,5,0,0,1-1-1.38Zm2.65-12.79H42.19v8.85h7.37a4.43,4.43,0,0,0,0-8.85Z" class="cls-5"/>
            <path d="M68.28,235l-1.08,3.54a5.63,5.63,0,0,1-.88,1.78,1.58,1.58,0,0,1-1.29.58,2,2,0,0,1-2-2,4.12,4.12,0,0,1,.39-1.58L70.93,213h0a1.83,1.83,0,0,1,.55-1,1.86,1.86,0,0,1,1.38-.59A2,2,0,0,1,74.83,213h0l7.47,24.39a4.12,4.12,0,0,1,.39,1.58,2,2,0,0,1-2,2,1.58,1.58,0,0,1-1.29-.58,5.63,5.63,0,0,1-.88-1.78L77.52,235Zm8-3.93L72.9,219.85,69.48,231.1Z" class="cls-5"/>
            <path d="M90.43,215.36V239a2,2,0,0,1-2,2,1.89,1.89,0,0,1-1.39-.58A1.87,1.87,0,0,1,86.5,239V215.36H80.6a2,2,0,0,1-2-2,1.93,1.93,0,0,1,.58-1.39,1.89,1.89,0,0,1,1.39-.58H96.33a2,2,0,0,1,2,2,1.87,1.87,0,0,1-.58,1.38,1.89,1.89,0,0,1-1.39.58Z" class="cls-5"/>
            <path d="M118.21,231.1a9.83,9.83,0,0,1-19.66,0v-9.84a9.83,9.83,0,0,1,19.66,0Zm-15.73,0a5.9,5.9,0,0,0,11.8,0v-9.84a5.9,5.9,0,0,0-11.8,0Z" class="cls-5"/>
            <path d="M132,228.15h-4.72V239a1.87,1.87,0,0,1-.58,1.38,1.89,1.89,0,0,1-1.39.58,2,2,0,0,1-2-2V213.4a1.89,1.89,0,0,1,.58-1.39,1.87,1.87,0,0,1,1.38-.58h9.35a8.37,8.37,0,0,1,2,16.5l5.61,9.07a3.78,3.78,0,0,1,.79,2,2,2,0,0,1-3.36,1.38,5.17,5.17,0,0,1-1-1.38Zm2.66-12.79h-7.38v8.85h7.38a4.43,4.43,0,0,0,0-8.85Z" class="cls-5"/>
            <path d="M152.38,226.85l-.42-.67-6.66-10.82a3.7,3.7,0,0,1-.79-2,2,2,0,0,1,2-2,1.87,1.87,0,0,1,1.38.58,5.26,5.26,0,0,1,1,1.39l5.5,8.93,5.51-8.93a5,5,0,0,1,1-1.39,1.85,1.85,0,0,1,1.38-.58,1.89,1.89,0,0,1,1.39.58,1.93,1.93,0,0,1,.58,1.39,3.7,3.7,0,0,1-.79,2l-6.67,10.82-.41.67V239a1.87,1.87,0,0,1-.58,1.38,1.89,1.89,0,0,1-1.39.58,2,2,0,0,1-2-2Z" class="cls-5"/>
        </g>
    </g>
</svg>
