<svg xmlns="http://www.w3.org/2000/svg" viewBox="0 0 150.09 146.28">
    <defs>
        <style>
            .cls-1,.cls-2,.cls-3,.cls-4,.cls-5{fill:none;stroke-width:4px;}.cls-1{stroke:#fff;}.cls-1,.cls-2,.cls-3,.cls-5{stroke-miterlimit:10;}.cls-2{stroke:#ef3d43;}.cls-3{stroke:#f5bb47;}.cls-4,.cls-5{stroke:#6654d1;}.cls-4{stroke-linejoin:round;}.cls-6{fill:#6de022;}

            @-webkit-keyframes purpleOne {
                0% { stroke: #2b2375; }
                19% { stroke: #2b2375; }
                20% { stroke: #6654d1; }
                100% { stroke: #6654d1; }
            }

            .cls-4, .cls-5 {
                -webkit-animation: purpleOne 2s infinite;
            }

            @-webkit-keyframes whiteOne {
                0% { stroke: #7a7a7a; }
                39% { stroke: #7a7a7a; }
                40% { stroke: #fff; }
                100% { stroke: #fff; }
            }

            .cls-1 {
                -webkit-animation: whiteOne 2s infinite;
            }

            @-webkit-keyframes yellowOne {
                0% { stroke: #705525; }
                59% { stroke: #705525; }
                60% { stroke: #f5bb47; }
                100% { stroke: #f5bb47; }
            }

            .cls-3 {
                -webkit-animation: yellowOne 2s infinite;
            }

            @-webkit-keyframes redOne {
                0% { stroke: #7a161e; }
                79% { stroke: #7a161e; }
                80% { stroke: #ef3d43; }
                100% { stroke: #ef3d43; }
            }

            .cls-2 {
                -webkit-animation: redOne 2s infinite;
            }

            @-webkit-keyframes greenOne {
                0% { fill: #2f5b12; }
                50% { fill: #2f5b12; }
                51% { fill: #6de022; }
                100% { fill: #6de022; }
            }

            .cls-6 {
                -webkit-animation: greenOne 1s infinite;
            }
        </style>
    </defs>
    <title>
        Asset 2
    </title>
    <g id="Layer_2" data-name="Layer 2">
        <g id="Layer_1-2" data-name="Layer 1">
            <path d="M136.73,41.72a7.33,7.33,0,1,1-7.33-7.32A7.33,7.33,0,0,1,136.73,41.72Z" class="cls-1"/>
            <path d="M98,65.76a23.36,23.36,0,1,1-.3-3.73A23.26,23.26,0,0,1,98,65.76Z" class="cls-2"/>
            <path d="M110.84,65.76a35.79,35.79,0,1,1-.43-5.54A36.72,36.72,0,0,1,110.84,65.76Z" class="cls-3"/>
            <path d="M45.61,2h59.45l.32.71.87,1.92,6.09,13.5,2.51,5.55.56,1.24.38.12h22.4a10.3,10.3,0,0,1,6.27,6l.28.69a6.33,6.33,0,0,1,.45,2.35V41.9l0,31.95,0,28.18v4.44h0a12.09,12.09,0,0,1-5.2,7.42l-1.08.7H14.6a8.86,8.86,0,0,1-4.93-2.25l-2.3-2.1a8.24,8.24,0,0,1-2.64-5.18h0V31.94h0a4.59,4.59,0,0,1,.7-2.45l1.08-1.73a6.84,6.84,0,0,1,1.85-1.94l.26-.17a11.35,11.35,0,0,1,5.3-1.93h0l15,.28L35,23.94h0a5.18,5.18,0,0,0,1.95-2.27l4.8-10.89L45.61,2Z" class="cls-4"/>
            <path d="M19.05,24V12.9c0-.18-.1-.78,0-.92s.21-.05.4-.07a34.35,34.35,0,0,1,3.93,0h4.27c.17,0,.88-.11,1,0s0,.25.05.4a32.89,32.89,0,0,1,0,3.58V24" class="cls-5"/>
            <path d="M6.46,139H2.25v6.18a1.06,1.06,0,0,1-.34.79,1.07,1.07,0,0,1-.79.33A1.09,1.09,0,0,1,.33,146a1.09,1.09,0,0,1-.33-.79v-14.6a1.07,1.07,0,0,1,.33-.79,1.1,1.1,0,0,1,.79-.34H6.46a4.61,4.61,0,0,1,3.37,1.4,4.77,4.77,0,0,1,0,6.75A4.61,4.61,0,0,1,6.46,139Zm0-7.3H2.25v5H6.46A2.4,2.4,0,0,0,8.24,136a2.52,2.52,0,0,0,0-3.57A2.44,2.44,0,0,0,6.46,131.68Z" class="cls-6"/>
            <path d="M23.15,139H16.41v6.18a1.09,1.09,0,0,1-.33.79,1.11,1.11,0,0,1-1.58,0,1.09,1.09,0,0,1-.33-.79v-14.6a1.12,1.12,0,0,1,2.24,0v6.17h6.74v-6.17a1.07,1.07,0,0,1,.33-.79,1.1,1.1,0,0,1,.79-.34,1.16,1.16,0,0,1,1.13,1.13v14.6a1.1,1.1,0,0,1-.34.79,1.07,1.07,0,0,1-.79.33,1.13,1.13,0,0,1-1.12-1.12Z" class="cls-6"/>
            <path d="M39.56,140.66a5.61,5.61,0,0,1-9.58,4,5.39,5.39,0,0,1-1.65-4v-5.61a5.61,5.61,0,0,1,9.59-4,5.44,5.44,0,0,1,1.64,4Zm-9,0a3.37,3.37,0,0,0,6.74,0v-5.61a3.37,3.37,0,0,0-6.74,0Z" class="cls-6"/>
            <path d="M49.23,131.68v13.48a1.09,1.09,0,0,1-.33.79,1.11,1.11,0,0,1-1.58,0,1.09,1.09,0,0,1-.33-.79V131.68H43.62a1.07,1.07,0,0,1-.79-.33,1.09,1.09,0,0,1-.33-.79,1.14,1.14,0,0,1,1.12-1.13h9a1.12,1.12,0,0,1,.8.34,1.07,1.07,0,0,1,.33.79,1.09,1.09,0,0,1-.33.79,1.11,1.11,0,0,1-.8.33Z" class="cls-6"/>
            <path d="M65.1,140.66a5.62,5.62,0,1,1-11.23,0v-5.61a5.62,5.62,0,0,1,11.23,0Zm-9,0a3.37,3.37,0,0,0,6.74,0v-5.61a3.37,3.37,0,0,0-6.74,0Z" class="cls-6"/>
            <path d="M79.26,145.16a1.09,1.09,0,0,1-.33.79,1.07,1.07,0,0,1-.79.33,1,1,0,0,1-.79-.34,1,1,0,0,1-.33-.77,5.63,5.63,0,0,1-9-4.51v-5.61a5.62,5.62,0,1,1,11.23,0,1.12,1.12,0,0,1-2.24,0,3.37,3.37,0,0,0-6.74,0v5.61a3.37,3.37,0,0,0,6.74,0v-.56H73.09a1.09,1.09,0,0,1-.8-.33,1.11,1.11,0,0,1,0-1.58,1.09,1.09,0,0,1,.8-.33h5A1.13,1.13,0,0,1,79.26,139Z" class="cls-6"/>
            <path d="M87.14,139h-2.7v6.18a1.09,1.09,0,0,1-.33.79,1.11,1.11,0,0,1-1.58,0,1.09,1.09,0,0,1-.33-.79v-14.6a1.14,1.14,0,0,1,1.12-1.13h5.33a4.79,4.79,0,0,1,1.13,9.43L93,144a2.14,2.14,0,0,1,.45,1.13,1.12,1.12,0,0,1-1.92.79,3,3,0,0,1-.55-.79Zm1.51-7.3H84.44v5h4.21a2.41,2.41,0,0,0,1.79-.74,2.53,2.53,0,0,0-1.79-4.31Z" class="cls-6"/>
            <path d="M99.34,142.91l-.62,2a3.21,3.21,0,0,1-.5,1,.9.9,0,0,1-.73.33,1.13,1.13,0,0,1-1.13-1.12,2.3,2.3,0,0,1,.23-.9l4.26-13.93h0a1,1,0,0,1,.31-.56,1.08,1.08,0,0,1,.79-.34,1.14,1.14,0,0,1,.8.34,1.1,1.1,0,0,1,.3.56h0l4.27,13.93a2.26,2.26,0,0,1,.22.9,1.09,1.09,0,0,1-.33.79,1.07,1.07,0,0,1-.79.33.92.92,0,0,1-.74-.33,3.21,3.21,0,0,1-.5-1l-.61-2Zm4.59-2.25-2-6.42-2,6.42Z" class="cls-6"/>
            <path d="M117,139h-4.21v6.18a1.1,1.1,0,0,1-.34.79,1.07,1.07,0,0,1-.79.33,1.13,1.13,0,0,1-1.12-1.12v-14.6a1.07,1.07,0,0,1,.33-.79,1.1,1.1,0,0,1,.79-.34H117a4.78,4.78,0,0,1,0,9.55Zm0-7.3h-4.21v5H117a2.4,2.4,0,0,0,1.78-.74,2.53,2.53,0,0,0-1.78-4.31Z" class="cls-6"/>
            <path d="M133.68,139h-6.74v6.18a1.09,1.09,0,0,1-.33.79,1.11,1.11,0,0,1-1.58,0,1.09,1.09,0,0,1-.33-.79v-14.6a1.12,1.12,0,0,1,2.24,0v6.17h6.74v-6.17a1.07,1.07,0,0,1,.33-.79,1.1,1.1,0,0,1,.79-.34,1.16,1.16,0,0,1,1.13,1.13v14.6a1.1,1.1,0,0,1-.34.79,1.07,1.07,0,0,1-.79.33,1.13,1.13,0,0,1-1.12-1.12Z" class="cls-6"/>
            <path d="M143.35,138.24l-.23-.38-3.81-6.18a2.14,2.14,0,0,1-.45-1.12,1.07,1.07,0,0,1,.33-.79,1.1,1.1,0,0,1,.79-.34,1.08,1.08,0,0,1,.79.34,2.69,2.69,0,0,1,.56.79l3.15,5.1,3.14-5.1a2.69,2.69,0,0,1,.56-.79,1.08,1.08,0,0,1,.79-.34,1.1,1.1,0,0,1,.79.34,1.07,1.07,0,0,1,.33.79,2.14,2.14,0,0,1-.45,1.12l-3.81,6.18-.23.38v6.92a1.13,1.13,0,0,1-1.12,1.12,1.11,1.11,0,0,1-.8-.33,1.09,1.09,0,0,1-.33-.79Z" class="cls-6"/>
        </g>
    </g>
</svg>
